<?xml version="1.0" encoding="utf-8"?>
<!-- Generator: Adobe Illustrator 21.1.0, SVG Export Plug-In . SVG Version: 6.00 Build 0)  -->
<svg version="1.2" baseProfile="tiny" id="レイヤー_1"
	 xmlns="http://www.w3.org/2000/svg" xmlns:xlink="http://www.w3.org/1999/xlink" x="0px" y="0px" viewBox="0 0 24 24"
	 xml:space="preserve">
<path fill="#FFFFFF" d="M23,7c-0.3-1-1-1.7-2-2c-1.8-0.5-9-0.5-9-0.5S4.8,4.5,3,5C2,5.3,1.3,6,1,7c-0.3,1.8-0.5,3.7-0.5,5.6
	c0,1.9,0.2,3.7,0.5,5.5c0.3,1,1,1.7,2,2c1.8,0.5,9,0.5,9,0.5s7.2,0,9-0.5c1-0.3,1.7-1,2-2c0.3-1.8,0.5-3.7,0.5-5.5
	C23.5,10.7,23.3,8.8,23,7z M9.7,16V9.1l6,3.4L9.7,16z"/>
</svg>
