<svg xmlns="http://www.w3.org/2000/svg" xmlns:xlink="http://www.w3.org/1999/xlink" viewBox="0 0 736.17 340.62"><defs><linearGradient id="a" x1="259.05" y1="335.57" x2="259.05" y2="108.91" gradientTransform="matrix(1, 0, 0, -1, 0, 341.28)" gradientUnits="userSpaceOnUse"><stop offset="0" stop-color="#9ec9e5"/><stop offset="0.13" stop-color="#8ebfdf"/><stop offset="0.4" stop-color="#64a5d1"/><stop offset="0.76" stop-color="#217cb9"/><stop offset="0.87" stop-color="#0c6fb2"/><stop offset="0.99" stop-color="#06588f"/></linearGradient><linearGradient id="b" x1="310.9" y1="201.48" x2="310.9" y2="108.23" gradientTransform="matrix(1, 0, 0, -1, 0, 341.28)" gradientUnits="userSpaceOnUse"><stop offset="0" stop-color="#caddf0"/><stop offset="0.07" stop-color="#c1d9ee"/><stop offset="0.18" stop-color="#a7cde8"/><stop offset="0.32" stop-color="#7ebbdd"/><stop offset="0.48" stop-color="#45a1d0"/><stop offset="0.57" stop-color="#2593c8"/><stop offset="0.87" stop-color="#0c6fb2"/><stop offset="0.99" stop-color="#06588f"/></linearGradient><linearGradient id="c" x1="153.16" y1="141.24" x2="365.66" y2="141.24" gradientTransform="matrix(1, 0, 0, -1, 0, 341.28)" gradientUnits="userSpaceOnUse"><stop offset="0" stop-color="#0c6fb2"/><stop offset="0.99" stop-color="#06588f"/></linearGradient><linearGradient id="d" x1="307.28" y1="108.23" x2="307.28" y2="287.93" gradientTransform="matrix(1, 0, 0, -1, 0, 341.28)" gradientUnits="userSpaceOnUse"><stop offset="0" stop-color="#45b035"/><stop offset="1" stop-color="#76bd43"/></linearGradient><linearGradient id="e" x1="314.53" y1="108.23" x2="314.53" y2="196.72" gradientTransform="matrix(1, 0, 0, -1, 0, 341.28)" gradientUnits="userSpaceOnUse"><stop offset="0" stop-color="#229e3a"/><stop offset="1" stop-color="#41b035"/></linearGradient><linearGradient id="f" x1="428.76" y1="334.89" x2="428.76" y2="108.23" gradientTransform="matrix(1, 0, 0, -1, 0, 341.28)" gradientUnits="userSpaceOnUse"><stop offset="0" stop-color="#cb88b9"/><stop offset="0.17" stop-color="#cb7fb5"/><stop offset="0.44" stop-color="#cb65a8"/><stop offset="0.79" stop-color="#cb3c95"/><stop offset="0.99" stop-color="#cb2188"/></linearGradient><linearGradient id="g" x1="412.81" y1="277.03" x2="412.81" y2="108.23" gradientTransform="matrix(1, 0, 0, -1, 0, 341.28)" gradientUnits="userSpaceOnUse"><stop offset="0" stop-color="#c05a9e"/><stop offset="0.99" stop-color="#cb2188"/></linearGradient><linearGradient id="h" x1="395.76" y1="267.42" x2="395.76" y2="99.05" gradientTransform="matrix(1, 0, 0, -1, 0, 332.1)" gradientUnits="userSpaceOnUse"><stop offset="0" stop-color="#cb88b9"/><stop offset="0" stop-color="#c87fb3"/><stop offset="0" stop-color="#c677ae"/><stop offset="0.25" stop-color="#c766a6"/><stop offset="0.75" stop-color="#ca3992"/><stop offset="0.99" stop-color="#cb2188"/></linearGradient><linearGradient id="i" x1="397.57" y1="316.51" x2="397.57" y2="108.23" gradientTransform="matrix(1, 0, 0, -1, 0, 341.28)" gradientUnits="userSpaceOnUse"><stop offset="0" stop-color="#de8cad"/><stop offset="1" stop-color="#cd4292"/></linearGradient><linearGradient id="j" x1="455.6" y1="284.52" x2="455.6" y2="108.23" gradientTransform="matrix(1, 0, 0, -1, 0, 341.28)" gradientUnits="userSpaceOnUse"><stop offset="0" stop-color="#dde349"/><stop offset="1" stop-color="#dce239"/></linearGradient><linearGradient id="k" x1="450.88" y1="270.91" x2="450.88" y2="108.23" gradientTransform="matrix(1, 0, 0, -1, 0, 341.28)" gradientUnits="userSpaceOnUse"><stop offset="0" stop-color="#e2ea9f"/><stop offset="0.17" stop-color="#e1e995"/><stop offset="0.45" stop-color="#e0e77b"/><stop offset="0.82" stop-color="#dde451"/><stop offset="1" stop-color="#dce239"/></linearGradient><linearGradient id="l" x1="365.66" y1="148.73" x2="526.67" y2="148.73" xlink:href="#j"/><linearGradient id="m" x1="419.33" y1="214.41" x2="419.33" y2="108.23" gradientTransform="matrix(1, 0, 0, -1, 0, 341.28)" gradientUnits="userSpaceOnUse"><stop offset="0" stop-color="#e0e77f"/><stop offset="0.27" stop-color="#e1e45d"/><stop offset="0.57" stop-color="#e1e13e"/><stop offset="0.82" stop-color="#e2df2c"/><stop offset="1" stop-color="#e2de25"/></linearGradient><linearGradient id="n" x1="544.07" y1="135.39" x2="544.07" y2="76.38" gradientTransform="matrix(1, 0, 0, -1, 0, 341.28)" gradientUnits="userSpaceOnUse"><stop offset="0" stop-color="#bfdb8b"/><stop offset="0.45" stop-color="#7abd68"/><stop offset="1" stop-color="#20963a"/></linearGradient><linearGradient id="o" x1="511.26" y1="170.46" x2="511.26" y2="-29.69" xlink:href="#n"/><linearGradient id="p" x1="273.98" y1="64.65" x2="704.65" y2="64.65" gradientTransform="matrix(1, 0, 0, -1, 0, 341.28)" gradientUnits="userSpaceOnUse"><stop offset="0" stop-color="#2252a3"/><stop offset="0.53" stop-color="#6797b5"/><stop offset="1" stop-color="#a7d7c5"/></linearGradient><linearGradient id="q" x1="498.23" y1="-23.21" x2="498.23" y2="177.52" gradientTransform="matrix(1, 0, 0, -1, 0, 341.28)" gradientUnits="userSpaceOnUse"><stop offset="0.04" stop-color="#3172b9"/><stop offset="1" stop-color="#a7d7c5"/></linearGradient><linearGradient id="r" x1="191.23" y1="-23.3" x2="191.23" y2="140.98" gradientTransform="matrix(1, 0, 0, -1, 0, 341.28)" gradientUnits="userSpaceOnUse"><stop offset="0" stop-color="#54b332"/><stop offset="0.45" stop-color="#8fcc77"/><stop offset="1" stop-color="#dbecd1"/></linearGradient><linearGradient id="s" x1="214.44" y1="-26.5" x2="214.44" y2="167.29" xlink:href="#r"/><linearGradient id="t" x1="179.71" y1="-49.6" x2="297.12" y2="202.19" gradientTransform="matrix(1, 0, 0, -1, 0, 341.28)" gradientUnits="userSpaceOnUse"><stop offset="0" stop-color="#dde349"/><stop offset="0.74" stop-color="#e1e98e"/><stop offset="1" stop-color="#e2eba7"/></linearGradient><linearGradient id="u" x1="215.76" y1="-15.59" x2="308.67" y2="183.65" gradientTransform="matrix(1, 0, 0, -1, 0, 341.28)" gradientUnits="userSpaceOnUse"><stop offset="0" stop-color="#dce237"/><stop offset="1" stop-color="#dee570"/></linearGradient><linearGradient id="v" x1="398.95" y1="24.85" x2="475.37" y2="188.71" gradientTransform="matrix(1, 0, 0, -1, 0, 341.28)" gradientUnits="userSpaceOnUse"><stop offset="0" stop-color="#e7211c"/><stop offset="0.68" stop-color="#ea586a"/><stop offset="1" stop-color="#ec7491"/></linearGradient><linearGradient id="w" x1="365.66" y1="85.08" x2="470.83" y2="85.08" gradientTransform="matrix(1, 0, 0, -1, 0, 341.28)" gradientUnits="userSpaceOnUse"><stop offset="0" stop-color="#e7211c"/><stop offset="0.67" stop-color="#ed6a6a"/><stop offset="1" stop-color="#f09093"/></linearGradient><linearGradient id="x" x1="314.48" y1="32.67" x2="314.48" y2="108.41" gradientTransform="matrix(1, 0, 0, -1, 0, 341.28)" gradientUnits="userSpaceOnUse"><stop offset="0" stop-color="#48aae1"/><stop offset="0.26" stop-color="#51b3df"/><stop offset="0.58" stop-color="#63c4da"/><stop offset="0.66" stop-color="#88d0e1"/><stop offset="0.77" stop-color="#bbe0ec"/><stop offset="0.87" stop-color="#dfebf3"/><stop offset="0.95" stop-color="#f6f2f7"/><stop offset="1" stop-color="#fef5f9"/></linearGradient><linearGradient id="y" x1="268.48" y1="86.79" x2="365.66" y2="86.79" gradientTransform="matrix(1, 0, 0, -1, 0, 341.28)" gradientUnits="userSpaceOnUse"><stop offset="0" stop-color="#48aae1"/><stop offset="0.26" stop-color="#51b3df"/><stop offset="0.58" stop-color="#63c4da"/><stop offset="0.65" stop-color="#6ec8dc"/><stop offset="0.88" stop-color="#93d3e4"/><stop offset="1" stop-color="#a1d8e7"/></linearGradient><linearGradient id="z" x1="346.26" y1="108.23" x2="346.26" y2="136.82" gradientTransform="matrix(1, 0, 0, -1, 0, 341.28)" gradientUnits="userSpaceOnUse"><stop offset="0" stop-color="#61c4e2"/><stop offset="1" stop-color="#9dd6e3"/></linearGradient></defs><title>アートボード 1</title><polygon points="364.94 232.37 182.17 149.33 153.16 5.71 364.94 232.37" style="stroke:#040000;stroke-miterlimit:10;fill:url(#a)"/><polygon points="365.66 233.05 256.14 139.8 259.05 170.43 365.66 233.05" style="stroke:#040000;stroke-miterlimit:10;fill:url(#b)"/><polygon points="365.66 233.05 153.16 186.77 253.24 167.03 365.66 233.05" style="stroke:#040000;stroke-miterlimit:10;fill:url(#c)"/><polygon points="354.78 87.39 365.66 233.05 248.89 101.68 278.63 53.35 354.78 87.39" style="stroke:#040000;stroke-miterlimit:10;fill:url(#d)"/><polygon points="350.43 147.29 365.66 233.05 263.4 144.56 350.43 147.29" style="stroke:#040000;stroke-miterlimit:10;fill:url(#e)"/><polygon points="491.86 17.28 365.66 233.05 456.32 6.39 491.86 17.28" style="stroke:#040000;stroke-miterlimit:10;fill:url(#f)"/><polygon points="459.95 66.29 365.66 233.05 430.94 64.25 459.95 66.29" style="stroke:#040000;stroke-miterlimit:10;fill:url(#g)"/><path d="M354.06,68.33l11.6,164.72,71.8-160.64s-3.62-6.13-42.06-7.49S354.06,68.33,354.06,68.33Z" style="stroke:#040000;stroke-miterlimit:10;fill:url(#h)"/><polygon points="365.66 233.05 374.37 24.77 397.57 136.4 429.49 154.78 365.66 233.05" style="stroke:#040000;stroke-miterlimit:10;fill:url(#i)"/><polygon points="365.66 233.05 545.53 94.19 514.34 56.76 365.66 233.05" style="stroke:#040000;stroke-miterlimit:10;fill:url(#j)"/><polygon points="365.66 233.05 478.08 70.37 536.1 148.65 365.66 233.05" style="stroke:#040000;stroke-miterlimit:10;fill:url(#k)"/><polygon points="365.66 233.05 526.67 166.35 458.5 152.05 365.66 233.05" style="stroke:#040000;stroke-miterlimit:10;fill:url(#l)"/><polygon points="473 126.87 458.5 152.05 365.66 233.05 473 126.87" style="stroke:#040000;stroke-miterlimit:10;fill:url(#m)"/><path d="M249.77,162.27A909.2,909.2,0,0,0,159,176.55Q142.4,97.47,125.85,18.4,136.92,16.09,148,14l27,144q36.41-6.83,73.15-10.71Z" style="fill:#040000;stroke:#040000;stroke-miterlimit:10;stroke-width:24px"/><path d="M340.56,141c-6.18,2.75-17.42,6.26-33.83,6.95-31.24,1.37-52-16.55-55-45.87C248.46,71.5,267.35,47,300,45.54c37.23-1.46,46.54,26.9,46.42,43.88,0,3.43-.21,6-.42,8.3q-38.72,0-77.38,3.08c2.52,27.13,20.5,35.94,40.06,35.18a83.15,83.15,0,0,0,28.64-5.75Zm-11.5-54.35c0-13.29-6.95-30.72-30.34-29.71C276.86,58,268.65,76,268.1,89.62Q298.53,87.21,329.06,86.68Z" style="fill:#040000;stroke:#040000;stroke-miterlimit:10;stroke-width:24px"/><path d="M382.16,29.63q9.24-2.2,18.58-4.24-.6,11.45-1.21,22.88,15.48.81,30.92,2.1-.48,5.84-1,11.68Q414.21,60.82,398.92,60l-3,56.74c-.64,12.44,3.22,19.46,13.82,20.17a37.54,37.54,0,0,0,11.34-.6c0,3.86.05,7.73.06,11.59-3.68,1.14-9.28,1.61-16.21,1.17-26-1.53-26.15-22.89-25.79-33.43q1-28.22,2-56.42-9.11-.33-18.23-.48.09-5.85.2-11.72,9.22.16,18.44.48Z" style="fill:#040000;stroke:#040000;stroke-miterlimit:10;stroke-width:24px"/><path d="M443.05,57.11C448.84,46.82,458,26.35,462,12.65q10.23.12,20.47.45c-7.63,15.55-20.85,36.31-27.56,44Q449,57.06,443.05,57.11Z" style="fill:#040000;stroke:#040000;stroke-miterlimit:10;stroke-width:24px"/><path d="M543.25,81.37a46.77,46.77,0,0,0-21.65-9.94c-12.94-2.27-20.87,3.31-22.07,11.14-1.31,8.4,4.67,13.26,18.31,21.17,17.2,9.68,25.88,20.1,22.82,34.55C537,155.43,520.2,163.51,497,159.63c-10.58-1.77-20.38-5.93-27.2-10.84q3.06-5.41,6.16-10.81c5.4,3.85,14.22,8.8,23.53,10.36,14.46,2.43,22.9-3,24.59-11.72,1.73-9-3.16-15.19-17.12-22.88C489.1,104,480.43,93.65,482,81.82c2-15.17,18.61-25.81,42.66-21.58,11.32,2,20.36,6.56,26,11Z" style="fill:#040000;stroke:#040000;stroke-miterlimit:10;stroke-width:24px"/><path d="M250.18,162.82a890.29,890.29,0,0,0-90.39,14.52q-16.9-79-33.8-158,11.07-2.37,22.16-4.49,13.78,72,27.56,143.9,36.28-6.93,72.85-10.93Z" style="fill:#fff;stroke:#fff;stroke-miterlimit:10;stroke-width:16px"/><path d="M340.58,141.47c-6.16,2.75-17.35,6.26-33.7,7-31.1,1.4-51.78-16.48-54.93-45.79C248.65,72.07,267.46,47.57,300,46c37.17-1.48,46.47,26.88,46.35,43.87,0,3.42-.21,6-.42,8.29q-38.61,0-77.17,3.14c2.57,27.12,20.49,35.9,40,35.14a82.62,82.62,0,0,0,28.54-5.77Q339,136.07,340.58,141.47ZM329.1,87.13c0-13.3-7-30.73-30.3-29.7-21.82,1.09-30,19.11-30.51,32.68Q298.65,87.67,329.1,87.13Z" style="fill:#fff;stroke:#fff;stroke-miterlimit:10;stroke-width:16px"/><path d="M382.12,30.09q9.24-2.2,18.56-4.23l-1.23,22.88q15.45.82,30.87,2.14l-1,11.68q-15.24-1.29-30.51-2.11-1.51,28.36-3.05,56.73c-.64,12.44,3.19,19.46,13.75,20.19a37.28,37.28,0,0,0,11.3-.59v11.59c-3.68,1.14-9.25,1.6-16.15,1.15-25.89-1.55-26-22.9-25.66-33.45l2-56.42q-9.09-.33-18.2-.48c.07-3.91.13-7.82.2-11.72q9.21.15,18.42.48Q381.8,39,382.12,30.09Z" style="fill:#fff;stroke:#fff;stroke-miterlimit:10;stroke-width:16px"/><path d="M442.89,57.64c5.8-10.31,14.95-30.73,19.06-44.43q10.21.15,20.46.51C474.74,29.25,461.47,50,454.76,57.61,450.8,57.59,446.84,57.61,442.89,57.64Z" style="fill:#fff;stroke:#fff;stroke-miterlimit:10;stroke-width:16px"/><path d="M542.84,82.18a46.5,46.5,0,0,0-21.57-10c-12.91-2.36-20.85,3.23-22.07,11.06-1.34,8.39,4.62,13.27,18.19,21.22,17.13,9.74,25.73,20.19,22.61,34.62-3.77,17.13-20.52,25.15-43.64,21.2-10.54-1.8-20.29-6-27.06-10.91q3-5.42,6.17-10.79c5.37,3.86,14.13,8.83,23.41,10.42,14.4,2.47,22.84-3,24.56-11.65,1.76-9-3.08-15.19-17-22.92-17.75-9.8-26.37-20.16-24.72-32,2-15.15,18.65-25.76,42.66-21.44,11.3,2,20.31,6.63,25.87,11.12Q546.53,77.13,542.84,82.18Z" style="fill:#fff;stroke:#fff;stroke-miterlimit:10;stroke-width:16px"/><polygon points="365.29 232.78 722.86 253.13 709.81 218.42 365.29 232.78" style="stroke:#040000;stroke-miterlimit:10;fill:url(#n)"/><polygon points="657.22 213.31 365.31 232.81 641.99 331.07 645.62 329.71 657.22 213.31" style="stroke:#040000;stroke-miterlimit:10;fill:url(#o)"/><polygon points="618.78 292.27 365.4 232.73 556.05 320.52 618.78 292.27" style="stroke:#040000;stroke-miterlimit:10;fill:url(#p)"/><polygon points="631.11 280.7 548.27 265.76 559.67 321.88 365.35 232.78 572.37 203.78 631.11 280.7" style="stroke:#040000;stroke-miterlimit:10;fill:url(#q)"/><polygon points="19.7 258.92 48.72 329.71 365.66 233.05 16.8 235.77 19.7 258.92" style="stroke:#040000;stroke-miterlimit:10;fill:url(#r)"/><polygon points="115.8 326.64 365.66 233.05 63.22 212.63 115.8 326.64" style="stroke:#040000;stroke-miterlimit:10;fill:url(#s)"/><polygon points="155.33 203.78 365.4 232.05 170.56 321.54 155.33 203.78" style="stroke:#040000;stroke-miterlimit:10;fill:url(#t)"/><polygon points="240.19 316.77 364.83 232.19 198.12 199.7 240.19 316.77" style="stroke:#040000;stroke-miterlimit:10;fill:url(#u)"/><polygon points="365.66 233.05 489.69 199.02 474.45 309.29 365.66 233.05" style="stroke:#040000;stroke-miterlimit:10;fill:url(#v)"/><polygon points="420.06 196.3 365.66 233.05 449.79 316.09 470.83 303.16 420.06 196.3" style="stroke:#040000;stroke-miterlimit:10;fill:url(#w)"/><polygon points="365.56 232.87 263.4 278.66 304.01 308.61 365.56 232.87" style="stroke:#040000;stroke-miterlimit:10;fill:url(#x)"/><polygon points="268.48 239.86 281.53 212.63 365.66 233.05 336.65 296.35 268.48 239.86" style="stroke:#040000;stroke-miterlimit:10;fill:url(#y)"/><polygon points="365.66 233.05 338.1 204.46 326.86 232.71 365.66 233.05" style="stroke:#040000;stroke-miterlimit:10;fill:url(#z)"/><path d="M99.65,294.9c1,8.32,2.18,17,4.39,23.84q-7.58.87-15.14,1.8l-3.18-12.72-.6.07C80.48,316.52,70.27,325.1,55,327.2c-20.62,2.86-33.65-9.38-35.9-23.92-3.76-24,17.5-40.89,59-45.88-1-8.46-3.4-27.78-29.1-24.37-9.73,1.31-19.54,5.14-26.45,11l-5.69-9.88c8.31-6.69,20.56-11.64,33.25-13.34,32.11-4.22,42.77,15.14,45.05,35Zm-20-26.27c-21,2.55-46.86,9.09-43.74,30.27,1.88,12.92,11.47,17.32,21.45,15.92,16.14-2.15,26.12-15,24.64-27.17Q80.82,278.14,79.65,268.63Z" style="fill:#040000;stroke:#040000;stroke-miterlimit:10;stroke-width:26px"/><path d="M230.79,307.71q-8.31.48-16.6,1-2-29.88-3.94-59.77c-1.07-16.5-8.67-30.61-28.45-29.1C167,221,153.06,233.44,154.69,251l5.58,61.89q-8.28.74-16.56,1.55l-7.32-75c-1-10.37-2.17-17.92-3.39-26q7.73-.75,15.43-1.46l2.55,16.4h.41c4.68-10.32,17.07-20.41,34.85-21.74,14.24-1.12,39,5,40.93,39.4Q229,276.89,230.79,307.71Z" style="fill:#040000;stroke:#040000;stroke-miterlimit:10;stroke-width:26px"/><path d="M321.92,218.26a43.22,43.22,0,0,0-22.19-5.44c-12.51.34-18.93,7.48-18.63,15.66.31,8.74,6.86,12.57,21.38,17.77,18.25,6.23,28.77,14.69,29,29.93.21,18.06-14.43,30.09-38.18,30.81-10.79.33-21.29-2.05-28.89-5.81q2.05-6,4.12-12.09c6,2.91,15.56,6.27,25,6,14.65-.44,21.74-7.81,21.56-16.93-.19-9.47-6.18-14.6-21-19.56-19-6.31-29.06-15.32-29.59-27.6-.71-15.78,13-29.47,36-30.09,10.89-.28,20.16,2.34,26.27,5.6Q324.32,212.36,321.92,218.26Z" style="fill:#040000;stroke:#040000;stroke-miterlimit:10;stroke-width:26px"/><path d="M513.2,207.08q-21.3,49.53-41.07,99.42-7.41-.36-14.81-.67-7.53-25.83-15.45-51.6a302.78,302.78,0,0,1-8.82-33.79h-.62a258.22,258.22,0,0,1-11.24,33.38q-9.94,25.15-19.5,50.38-7.5-.13-15-.21-15.58-51-32.61-101.68h18q7.85,26.64,15.33,53.32c2.94,11.38,5.85,21.84,7.92,32.28h.6c2.57-10,6.39-20.92,10.28-31.83q9.81-26.5,20-52.94c5,.13,10,.29,15.06.45q8.22,26.52,16,53.1c3.39,12.05,6.16,23,8.32,33.31h.6c2.48-9.94,6-20.39,10.28-32.29Q486,231.82,495.86,206,504.53,206.52,513.2,207.08Z" style="fill:#040000;stroke:#040000;stroke-miterlimit:10;stroke-width:26px"/><path d="M613.58,313.54c-6.51,2.08-18.23,4.33-34.76,2.74-31.59-3-49-25-46.91-55.33,2.23-31.71,24-53.18,54.76-50.25,35.17,3.43,40.79,33.14,38.74,50.63-.4,3.51-.9,6.08-1.38,8.46q-37.75-4.32-75.6-7.38c-2,28,14.37,40,34,41.88a77.17,77.17,0,0,0,29.21-2.2Q612.6,307.82,613.58,313.54Zm-4.61-57c1.69-13.64-2.81-32.18-25.07-34.31-20.81-2-31.4,15-34.13,28.74q29.63,2.39,59.23,5.55Z" style="fill:#040000;stroke:#040000;stroke-miterlimit:2;stroke-width:26px"/><path d="M715.72,242.22a58.25,58.25,0,0,0-6.14-1.3c-18.61-2.77-30.36,12.38-32.66,29.33q-3.74,27.27-7.49,54.55-8.25-1.12-16.5-2.2,4.56-35.24,9.14-70.47c1.39-10.7,2.46-20.51,3.07-30.18l15.17,2-1.8,19.47.61.08c6.64-11.86,19.78-19.25,33.7-17.15a52.51,52.51,0,0,1,5.11,1.33Q716.82,235,715.72,242.22Z" style="fill:#040000;stroke:#040000;stroke-miterlimit:10;stroke-width:26px"/><path d="M100.13,295.43c1,8.31,2.2,17,4.42,23.83q-7.56.89-15.11,1.82-1.59-6.36-3.2-12.73l-.6.08c-4.61,8.64-14.79,17.23-30,19.36-20.56,2.89-33.6-9.33-35.88-23.86-3.8-24,17.39-40.93,58.77-46-1.06-8.45-3.44-27.77-29.1-24.32C39.69,235,29.9,238.82,23,244.72q-2.84-4.91-5.69-9.9c8.28-6.71,20.5-11.68,33.18-13.4,32.06-4.27,42.74,15.08,45.05,35Zm-20-26.24c-21,2.58-46.78,9.15-43.62,30.33C38.41,312.4,48,316.82,58,315.45c16.1-2.22,26.05-15.06,24.55-27.25q-1.23-9.51-2.43-19Z" style="fill:#fff;stroke:#fff;stroke-miterlimit:10;stroke-width:17px"/><path d="M231,308.11l-16.56,1-4-59.76c-1.09-16.51-8.69-30.61-28.44-29.09-14.77,1.15-28.69,13.64-27,31.24q2.83,30.93,5.66,61.87-8.28.75-16.53,1.57-3.7-37.49-7.42-75c-1-10.37-2.19-17.92-3.41-26q7.69-.76,15.41-1.48,1.28,8.19,2.56,16.39h.41c4.66-10.32,17-20.42,34.78-21.77,14.22-1.13,38.95,5,40.91,39.36Z" style="fill:#fff;stroke:#fff;stroke-miterlimit:10;stroke-width:17px"/><path d="M322,218.61a43.12,43.12,0,0,0-22.16-5.45c-12.49.34-18.9,7.48-18.6,15.66.31,8.74,6.85,12.57,21.36,17.76,18.22,6.23,28.72,14.69,28.92,29.93.2,18.06-14.41,30.09-38.1,30.82-10.78.33-21.25-2-28.84-5.8q2-6,4.1-12.1c6,2.92,15.54,6.27,25,6,14.62-.45,21.7-7.82,21.52-16.94-.2-9.47-6.18-14.6-21-19.55-19-6.3-29-15.31-29.57-27.59-.71-15.78,12.94-29.48,36-30.1,10.88-.29,20.14,2.33,26.23,5.58Q324.37,212.72,322,218.61Z" style="fill:#fff;stroke:#fff;stroke-miterlimit:10;stroke-width:17px"/><path d="M513,207.49Q491.67,257,471.9,306.88q-7.38-.36-14.77-.68-7.5-25.81-15.4-51.6A304.41,304.41,0,0,1,433,220.82h-.62a257.53,257.53,0,0,1-11.23,33.37q-9.94,25.15-19.48,50.38-7.5-.13-15-.21-15.54-51-32.54-101.69h18Q380,229.3,387.44,256c2.94,11.38,5.84,21.84,7.9,32.29h.6c2.56-10,6.39-20.93,10.27-31.83q9.8-26.5,20-52.94,7.53.21,15,.46,8.21,26.52,16,53.1c3.38,12.06,6.13,23,8.28,33.32h.6a337.19,337.19,0,0,1,10.29-32.28q9.48-25.89,19.33-51.69Z" style="fill:#fff;stroke:#fff;stroke-miterlimit:10;stroke-width:17px"/><path d="M613.09,314c-6.5,2.08-18.2,4.32-34.7,2.71-31.52-3.06-48.91-25.1-46.76-55.37,2.26-31.71,24-53.16,54.75-50.2,35.12,3.47,40.69,33.18,38.62,50.64-.4,3.51-.91,6.07-1.39,8.45q-37.7-4.36-75.48-7.46c-2,28,14.3,40,33.86,41.91a76.5,76.5,0,0,0,29.16-2.17Q612.13,308.32,613.09,314Zm-4.51-57c1.71-13.64-2.75-32.18-25-34.34-20.78-2-31.37,15-34.12,28.71q29.6,2.42,59.12,5.61Z" style="fill:#fff;stroke:#fff;stroke-miterlimit:10;stroke-width:17px"/><path d="M715.21,242.89a58.14,58.14,0,0,0-6.13-1.32c-18.58-2.75-30.35,12.34-32.67,29.25l-7.59,54.54q-8.24-1.16-16.47-2.23,4.64-35.24,9.26-70.46c1.41-10.7,2.49-20.5,3.13-30.17l15.15,2Q679,234.24,678,244l.62.09c6.65-11.85,19.78-19.22,33.69-17.1a47.21,47.21,0,0,1,5.1,1.34Q716.33,235.64,715.21,242.89Z" style="fill:#fff;stroke:#fff;stroke-miterlimit:10;stroke-width:17px"/><polygon points="720.25 118.68 501.3 43.01 517.22 2.45 736.17 78.12 720.25 118.68" style="fill:#e7211a"/><path d="M547.41,33.72l-5.84-2a16.3,16.3,0,0,0,4.68,6.39,6,6,0,0,0-1.44.76,18.26,18.26,0,0,1-4.94-7.74l-5.08-1.76a19.85,19.85,0,0,1-9.25,2.91,11.52,11.52,0,0,0-.64-1.38,18.23,18.23,0,0,0,8.1-2.16l-5.77-2,.48-1.23,6.72,2.31a14.76,14.76,0,0,0,2-1.62c-2.39-.73-4.55-1.43-6.24-2a.41.41,0,0,1-.42.18V22.62c1.09.38,2.39.81,3.87,1.3a29.47,29.47,0,0,0,4-2.83l1.59,1.22a.61.61,0,0,1-.56,0,36.77,36.77,0,0,1-3.37,2.13c2.8.93,6,2,9.13,3a32.58,32.58,0,0,0-2.08-2.84l1.43-.31a28.35,28.35,0,0,1,4.15,6.35,9.31,9.31,0,0,1-1.56.37,16.22,16.22,0,0,0-1-2l-7.1-2.19.16.1c-.12.13-.32.13-.59,0-.54.52-1.11,1-1.7,1.48l11.76,4.06Zm-5,5.78a.49.49,0,0,1-.52,0c-3.61,1.53-9.35,1.26-15.38,0a4.06,4.06,0,0,0-.26-1.42c5.75,1.33,11.38,1.74,14.75.26ZM540.26,36a.51.51,0,0,1-.48,0,30,30,0,0,1-10.47.35,4.27,4.27,0,0,0-.45-1.3c3.45.48,7.6.56,10.15-.18Zm-1.45-3.36a.43.43,0,0,1-.46,0,28,28,0,0,1-7.59.42,5.21,5.21,0,0,0-.57-1.19,23.76,23.76,0,0,0,7.38-.35Z" style="fill:#fff"/><path d="M560.62,33.75l.37.1.76.32c0,.12-.15.32-.22.49-4,9.59-5.35,12.6-6.34,13.26-.74.47-1.25.47-2.88-.1-.44-.15-.92-.34-1.41-.53a3.86,3.86,0,0,0,.13-1.55c1,.44,1.93.76,2.31.89a.86.86,0,0,0,.89-.07c.71-.44,2.06-3.26,5.5-11.55l-3.66-1.26c-2.39,5.49-5.14,10.44-9.2,12.65a4.46,4.46,0,0,0-.79-1.33c3.7-2,6.23-6.54,8.52-11.83l-3.06-1.06.54-1.38,3.1,1.07c.55-1.33,1.09-2.71,1.63-4.09l2,.81c-.11.17-.32.25-.69.16-.48,1.22-1,2.42-1.48,3.63Zm3.87-.49,7.58,2.62-6.39,16.28-1.49-.52.55-1.4-4.64-1.6-.62,1.57-1.45-.5Zm-3.86,14,4.64,1.6L570,36.72l-4.64-1.6Z" style="fill:#fff"/><path d="M581,56l9.54,3.3L590,60.58,569.5,53.49l.53-1.34,9.43,3.26,1.15-2.93-7-2.43.51-1.3,7,2.44,1-2.68,1.91.8c-.08.14-.23.21-.54.15l-.88,2.26,7.13,2.47-.51,1.29L582.15,53Zm.41-12.13-3.1-1.08a7.7,7.7,0,0,1-5.12,3.84,5,5,0,0,0-.64-1.34,6.52,6.52,0,0,0,4.36-3l-2.48-.86.5-1.27,2.61.9,1.26-3.19-2.1-.73.5-1.25,10,3.45-.5,1.25-2.1-.72L583.34,43l2.43.84-.5,1.28-2.43-.84L581,48.88l-1.42-.49Zm-1.23-5.52-1.25,3.21,3,1,1.26-3.2Zm10.52,2.52c-.07.14-.22.18-.55.12l-2.7,6.88-1.4-.49,2.85-7.28Zm5.95.91c-.08.14-.23.21-.54.15l-3.67,9.35c-.59,1.51-1.54,1.28-4.59.22a4.83,4.83,0,0,0,0-1.42c.51.2,1,.36,1.4.5,1.6.56,1.61.54,1.74.2L594.82,41Z" style="fill:#fff"/><path d="M616.52,53.57a1.77,1.77,0,0,1-.45.18c-5,6-10.37,9.06-17.67,9.86a5.47,5.47,0,0,0-.69-1.54,22.69,22.69,0,0,0,16.17-8.49l-8-2.75a24.8,24.8,0,0,1-7,3.44,8.5,8.5,0,0,0-.89-1.4,24.24,24.24,0,0,0,10.68-6.62l1.89,1.3a.72.72,0,0,1-.75,0c-.81.77-1.62,1.49-2.46,2.15l7.85,2.71h.31Z" style="fill:#fff"/><path d="M641.7,59.28a.6.6,0,0,1-.49,0l-.21-.1A59.42,59.42,0,0,1,632.68,62c.16.12.37.34.45.41a.68.68,0,0,1-.6.11l-4.41,11.23-1.63-.56,4.22-10.76a70.58,70.58,0,0,1-10.32,1.73,8.45,8.45,0,0,0-.49-1.47c7.12-.53,15.55-2.71,20.59-5.17Z" style="fill:#fff"/><path d="M661.63,67.62a.4.4,0,0,1-.3.06,37.59,37.59,0,0,1-7.07,5.56,80.46,80.46,0,0,1,5.43,10l-1.84.56a69.14,69.14,0,0,0-5.06-9.69,38.06,38.06,0,0,1-11.27,4.07,8.89,8.89,0,0,0-.72-1.53A33.75,33.75,0,0,0,659,67.51l-11-3.8.56-1.42,11.81,4.08h.33Zm1.21-2.8A15,15,0,0,1,664.13,69l-1.12.21a15.58,15.58,0,0,0-1.23-4.11Zm3.16,0a17.55,17.55,0,0,1,1.26,4l-1.12.21A15.89,15.89,0,0,0,665,65Z" style="fill:#fff"/><path d="M687.71,81.12l-7.6-2.62a23.13,23.13,0,0,0,6.59,6.88,7,7,0,0,0-1.49.84c-.6-.47-1.23-1-1.85-1.56l-3.05,7.78-1.49-.51.26-.67-11.4-3.94-.29.75-1.45-.5,3.1-7.91a20.22,20.22,0,0,1-2.91.18,6.26,6.26,0,0,0-.54-1.44,26.17,26.17,0,0,0,9.72-1.58l-7.44-2.58.47-1.21,5,1.74a12.9,12.9,0,0,0-.62-3.32h1.48a11.17,11.17,0,0,1,.69,3.52h-1l3.48,1.2,1.39-3.53c-2.57-.68-5.24-1.43-7.68-2.18a4.82,4.82,0,0,0,.09-1.2,127.62,127.62,0,0,0,16,3.86l.65,1.51h-.22a1.22,1.22,0,0,1-.24-.1c-1.89-.28-4.39-.81-7.07-1.47l-1.43,3.66,3.24,1.1c-.2-.19-.41-.36-.55-.48a21.22,21.22,0,0,0,3.32-2.65l1.57,1.25a.54.54,0,0,1-.55,0c-1,.76-2,1.46-3,2.12l5.31,1.83Zm-18.75,3-.83,2.09,4.8,1.66.82-2.1Zm5.2.61.78-2-4.79-1.66-.78,2Zm2.72-7.07a26.34,26.34,0,0,1-7.23,2l13.18,4.55a22.67,22.67,0,0,1-4.43-6.07L677,81.67l-1.49-.52Zm-2.52,10.7,5.17,1.79.82-2.1-5.17-1.79Zm6.4-1.35.78-2-5.17-1.79-.78,2Z" style="fill:#fff"/><path d="M691.53,88.45a.44.44,0,0,1-.51.07A19.49,19.49,0,0,1,687.53,93a8.7,8.7,0,0,0-.9-.92,19.1,19.1,0,0,0,3.43-4.6Zm5.7.88a8.74,8.74,0,0,0-.07-1.3l-2.54-.74-3.52,9-1.36-.47,3.49-8.9c-1.29-.4-2.47-.73-3.39-1a.39.39,0,0,1-.42.17l.22-1.71,1.69.58c.7-.37,1.46-.82,2.21-1.3a18.26,18.26,0,0,0-1.77-4.08l1.12-.66a6.18,6.18,0,0,1,.45.79,38.41,38.41,0,0,0,3.83-3.38l1.37,1.22a.55.55,0,0,1-.53,0,34.64,34.64,0,0,1-4.11,3.24,17.17,17.17,0,0,1,.86,2.08c1.55-1.06,3.09-2.21,4.26-3.19l1.31,1.26a.68.68,0,0,1-.56,0,64.1,64.1,0,0,1-7,4.5L697,86.75a25.06,25.06,0,0,0-.61-2.56l1.31-.12a18.6,18.6,0,0,1,1,5.11Zm8.52,9.79,1.69.59-.5,1.29-13.09-4.52.51-1.3,2.31.8,6.48-16.51,9.08,3.14Zm-9.54-9.57a19.24,19.24,0,0,1,0,4.55H694.8a17.65,17.65,0,0,0,.15-4.59Zm3.6,2.65-1.69,4.29,6.11,2.11,1.69-4.29Zm6.62.81,1.63-4.19L702,86.73l-1.63,4.17Zm3.77-9.63-6.11-2.11-1.63,4.17,6.11,2.11Z" style="fill:#fff"/></svg>