<svg xmlns="http://www.w3.org/2000/svg" viewBox="0 0 4194.77 4611.26"><defs><style>.cls-1{fill:#fbd075;}.cls-1,.cls-2,.cls-3,.cls-4,.cls-5,.cls-6,.cls-7,.cls-8{stroke:#fbd075;}.cls-1,.cls-2,.cls-4,.cls-5,.cls-6,.cls-7,.cls-8{stroke-miterlimit:10;}.cls-2{fill:#f7931e;}.cls-2,.cls-3,.cls-4,.cls-5,.cls-6,.cls-7,.cls-8{stroke-width:4px;}.cls-3,.cls-4{fill:#ffa24f;}.cls-3{stroke-linejoin:round;}.cls-5{fill:#e6e6e6;}.cls-6{fill:#fff;}.cls-7{fill:gray;}.cls-8{fill:#4d4d4d;}.cls-9{fill:none;}</style></defs><title>bg</title><g id="レイヤー_5" data-name="レイヤー 5"><rect class="cls-1" x="1.45" y="2" width="4190.77" height="4607.26"/><rect class="cls-2" x="2" y="3112.85" width="4189.67" height="1496.41"/><rect class="cls-3" x="3.09" y="3007.79" width="4189.67" height="105.06"/><rect class="cls-4" x="3.09" y="3112.85" width="463.84" height="1496.41"/><rect class="cls-4" x="466.93" y="3112.85" width="463.84" height="1496.41"/><rect class="cls-4" x="930.78" y="3112.85" width="463.84" height="1496.41"/><rect class="cls-4" x="1394.62" y="3112.85" width="463.84" height="1496.41"/><rect class="cls-4" x="8411.69" y="8717.98" width="422.36" height="1212.38" transform="translate(-5738.69 11950.25) rotate(-90)"/><rect class="cls-4" x="8304.14" y="9247.89" width="637.46" height="1212.38" transform="translate(-6268.6 12480.16) rotate(-90)"/><rect class="cls-4" x="8354.76" y="9730.09" width="536.22" height="1212.38" transform="translate(-6750.8 12962.36) rotate(-90)"/><rect class="cls-5" x="1843.47" y="3112.85" width="1140.55" height="1496.41"/><rect class="cls-5" x="1843.47" y="3112.85" width="1140.55" height="396.02"/><rect class="cls-6" x="1935.12" y="3688.27" width="957.26" height="920.98"/><rect class="cls-6" x="3080.05" y="3192.88" width="957.26" height="87.45"/><rect class="cls-6" x="3080.05" y="3610.27" width="957.26" height="87.45"/><rect class="cls-6" x="3080.05" y="4132.3" width="957.26" height="87.45"/><circle class="cls-7" cx="1981.66" cy="3317.49" r="87.55"/><circle class="cls-6" cx="343.18" cy="3367.89" r="87.55"/><circle class="cls-6" cx="605.2" cy="3367.89" r="87.55"/><circle class="cls-6" cx="1279.26" cy="3367.89" r="87.55"/><circle class="cls-6" cx="1518.38" cy="3367.89" r="87.55"/><circle class="cls-7" cx="2195.13" cy="3318.99" r="87.55"/><circle class="cls-7" cx="2846.5" cy="3318.99" r="87.55"/><rect class="cls-8" x="2324.42" y="3149.15" width="391.21" height="317.82"/><rect class="cls-4" x="3.09" y="2" width="4189.67" height="889.46"/></g><g id="レイヤー_6" data-name="レイヤー 6"><rect class="cls-9" x="0.07" y="2" width="4192.7" height="4605.61"/></g></svg>