<svg xmlns="http://www.w3.org/2000/svg" xmlns:xlink="http://www.w3.org/1999/xlink" viewBox="0 0 1735.96 972.95"><defs><style>.cls-1,.cls-2{stroke:#000;stroke-width:25px;}.cls-1{stroke-miterlimit:10;}.cls-2,.cls-3{stroke-linejoin:round;}.cls-3,.cls-6{fill:none;}.cls-3{stroke:#c1272d;stroke-width:7px;}.cls-4{fill:url(#名称未設定グラデーション_204);}.cls-5{fill:url(#名称未設定グラデーション_204-2);}</style><linearGradient id="名称未設定グラデーション_204" x1="6564.6" y1="7115.08" x2="6683.84" y2="6908.57" gradientUnits="userSpaceOnUse"><stop offset="0" stop-color="#ff9300"/><stop offset="0.44" stop-color="#ff9300"/><stop offset="0.45" stop-color="#ffe0b5"/><stop offset="0.99" stop-color="#fff"/></linearGradient><linearGradient id="名称未設定グラデーション_204-2" x1="6582.23" y1="7236.24" x2="6651.12" y2="7116.92" xlink:href="#名称未設定グラデーション_204"/></defs><title>cooperation</title><g id="レイヤー_2" data-name="レイヤー 2"><path class="cls-1" d="M6710,6995.33l-9.52,17.33c15-3.91,26.63-6.33,33.95-7.05,12.84-.83,21.7,2.26,25.92,9.43,2.85,4.47,4.31,11.15,4.31,20.05v17.15a31.21,31.21,0,0,1-4.31,16.56c-2.84,5.84-7.68,10.48-14.39,13.9-9,4.57-20.63,7.31-34.32,8.29a309.42,309.42,0,0,1-31.5.94l-6.69-22,30.15-3,1.58-31.08-18.06,3.42-27.46,54-33.08-4.13,19.36-41.39-15.5,3.53,1-20.69,28.24-7.33,9.91-17.9Zm-163.94,22.1,1.4-28.62,17.58-10.45-1.68,30.38,13.63-6.67-.63,18.72-14.1,6.65-.55,67.55-19.31,1.05,2.27-59.16-8.76,4.69.42-18.54ZM6564,7050l16.28-5.11,4.65-13.95,19.11-2.48-3.92,10.81c11.31-3.3,19.15-3.7,22.8-.9s5.66,8.59,5.66,17.05v8.87c0,12.69-2.86,21.31-8.41,25.74-3,2.56-7.34,4.1-12.9,4.65a81.64,81.64,0,0,1-16.07-.1l-3.53-13.89-4.09,14.12-17.89-2.88,7.65-27.61-9.34,3.55Zm16.28-68.67,31.15-16.84,9.65-19.4,33.95-16.7-6.81,16.21,24-13a153.23,153.23,0,0,1,26.8-10.49c9.44-2.8,15.45-2.6,17.71.72q3.4,10.16,3.42,27.15v21.21c-1.15,7.19-7.89,14.48-19.59,21.55-7.07,4.37-16.19,8.25-27,11.62l-32.87,9.56-5.16-18.55,31.61-12.2,1.26-27.4L6635.45,6971l-24.07,52.9-27.18,1.43,15.87-35.42-20.49,10.48Zm17.54,96.19.76-20.94-4.48,1.39-5.73,20.5Z" transform="translate(-6328.68 -6714.11)"/><path class="cls-1" d="M6538.91,7123.3l39.38,2.14,9.33-24.29,37.11,6.82-9.93,21.43c12.13.9,24.06,2,35.6,3.17,18.34,2,34.38,4.68,47.05,8.18,13.66,3.78,23.79,9.27,29.69,16.4,4.83,6.57,7.93,16.81,9.19,30.64l3.81,53.71,1.93,18.71c2.6,25.24-3.84,38.52-18.48,39.5-8,.67-22.06-3.9-40.66-12.89-11.63-5.65-28.35-15.46-48.49-28.28L6622,7225.46l43.86,20.58v-62.77l-1.24-19.73L6604,7153l-30.08,72.17-26.42-20,21.61-56.5-30.62-3.45Z" transform="translate(-6328.68 -6714.11)"/><path class="cls-2" d="M6709.4,6995.09l-9.53,17.32c15-3.9,26.63-6.44,33.95-7,12.83-1,21.58,2.34,25.93,9.43,2.76,4.51,4.3,11.15,4.3,20V7052a33.79,33.79,0,0,1-4.3,16.55,33,33,0,0,1-14.39,13.9c-9,4.58-20.65,7.12-34.32,8.3-7.54.65-18.23,1.06-31.5.94l-6.7-22,30.15-3,1.58-31.08-18,3.41-27.46,54-33.08-4.13,19.35-41.39-15.5,3.53,1-20.69,28.24-7.33,9.9-17.91Zm-163.95,22.1,1.41-28.63,17.58-10.44-1.68,30.37,13.63-6.67-.63,18.72-14.11,6.65-.55,67.56-19.31,1.05,2.27-59.17-8.75,4.7.42-18.54Zm17.86,32.58,16.28-5.12,4.65-13.94,19.11-2.49-3.92,10.81c11.31-3.29,19.16-3.7,22.8-.89s5.66,8.59,5.66,17v8.88c0,12.68-2.93,21.21-8.4,25.73q-4.56,3.77-12.91,4.66a85.72,85.72,0,0,1-16.07-.1l-3.52-13.9-4.1,14.12L6565,7091.7l7.66-27.61-9.35,3.54Zm16.28-68.68,31.15-16.83,9.66-19.4,33.94-16.7-6.81,16.21,24-13a163,163,0,0,1,26.8-10.48c9.47-2.68,15.92-2.88,17.71.72,3.17,6.4,3.42,15.83,3.42,27.14V6970c-1.16,7.18-7.93,14.42-19.6,21.55-7.08,4.33-16.18,8.24-27,11.62l-32.87,9.55-5.16-18.54,31.62-12.2,1.26-27.4-32.88,16.19-24.07,52.89-27.17,1.43,15.86-35.42-20.49,10.48Zm17.55,96.19.76-20.94-4.49,1.4-5.73,20.49Z" transform="translate(-6328.68 -6714.11)"/><path class="cls-2" d="M6538.28,7123.05l39.38,2.15,9.33-24.29,37.1,6.81-9.92,21.44c12.12.9,24.06,1.95,35.6,3.17,18.34,1.95,34.38,4.68,47,8.17,13.66,3.79,24,9.11,29.7,16.41,5,6.43,7.93,16.81,9.19,30.64l3.8,53.71,1.94,18.71c2.59,25.24-3.86,38.39-18.49,39.49-8,.61-22.06-3.9-40.66-12.89-11.62-5.65-28.35-15.46-48.49-28.28l-12.49-33.07,43.86,20.57V7183l-1.24-19.73-60.58-10.51L6573.27,7225l-26.41-20,21.61-56.49-30.62-3.45Z" transform="translate(-6328.68 -6714.11)"/><path class="cls-2" d="M6708.76,6994.85l-9.52,17.32c15-3.9,26.62-6.45,33.95-7,12.82-1.05,21.57,2.33,25.92,9.42,2.77,4.52,4.31,11.16,4.31,20.05v17.15a33.83,33.83,0,0,1-4.31,16.56,33,33,0,0,1-14.38,13.9c-9,4.57-20.66,7.12-34.33,8.3-7.54.65-18.23,1.06-31.5.94l-6.69-22,30.15-3,1.58-31.08-18.06,3.42-27.45,54-33.09-4.12,19.36-41.4-15.5,3.53,1-20.69,28.25-7.33,9.9-17.9Zm-163.94,22.09,1.4-28.62,17.58-10.45-1.68,30.38,13.63-6.67-.63,18.72L6561,7027l-.55,67.55-19.31,1.05,2.27-59.16-8.76,4.7.42-18.55Zm17.86,32.58,16.28-5.11,4.65-13.95,19.11-2.48-3.92,10.81c11.31-3.3,19.15-3.7,22.8-.89s5.66,8.59,5.66,17v8.88c0,12.68-2.94,21.21-8.41,25.73-3,2.51-7.34,4.06-12.9,4.66a85,85,0,0,1-16.07-.11l-3.53-13.89-4.09,14.12-17.89-2.88,7.65-27.61-9.34,3.55Zm16.28-68.67,31.15-16.84,9.65-19.4,33.95-16.69-6.81,16.21,24-13a162.2,162.2,0,0,1,26.79-10.49c9.47-2.68,15.93-2.87,17.71.72,3.17,6.4,3.42,15.84,3.42,27.15v21.21c-1.15,7.19-7.92,14.43-19.59,21.56-7.09,4.32-16.19,8.24-27,11.61l-32.87,9.56-5.16-18.54,31.61-12.2,1.26-27.4-32.87,16.18-24.07,52.9-27.18,1.43,15.87-35.42-20.49,10.48ZM6596.5,7077l.76-20.94-4.48,1.39-5.73,20.5Z" transform="translate(-6328.68 -6714.11)"/><path class="cls-2" d="M6537.64,7122.81,6577,7125l9.33-24.29,37.11,6.81-9.93,21.43c12.13.9,24.06,1.95,35.6,3.18,18.34,1.94,34.38,4.67,47.05,8.17,13.66,3.79,24,9.11,29.69,16.4,5,6.43,7.93,16.81,9.19,30.65l3.81,53.7,1.93,18.71c2.6,25.25-3.85,38.4-18.48,39.5-8,.6-22.06-3.9-40.66-12.89-11.63-5.65-28.35-15.46-48.49-28.28L6620.68,7225l43.86,20.58v-62.77l-1.24-19.73-60.58-10.51-30.08,72.17-26.42-20,21.61-56.5-30.62-3.44Z" transform="translate(-6328.68 -6714.11)"/><path class="cls-2" d="M6708.13,6994.6l-9.52,17.32c15-3.9,26.62-6.44,33.94-7,12.83-1,21.58,2.34,25.93,9.43,2.76,4.51,4.3,11.15,4.3,20v17.16a33.79,33.79,0,0,1-4.3,16.55,33,33,0,0,1-14.39,13.9c-9,4.58-20.65,7.12-34.32,8.3-7.54.65-18.23,1.06-31.5.94l-6.69-22,30.14-3,1.58-31.08-18.05,3.41-27.46,54-33.08-4.13,19.35-41.39-15.5,3.53,1-20.69,28.24-7.33,9.9-17.91Zm-163.95,22.1,1.41-28.62,17.58-10.45-1.68,30.37,13.63-6.66-.63,18.71-14.11,6.65-.55,67.56-19.31,1.05,2.27-59.17-8.75,4.7.42-18.54Zm17.86,32.58,16.28-5.11,4.65-13.95,19.11-2.49-3.92,10.82c11.31-3.3,19.16-3.7,22.8-.9s5.66,8.59,5.66,17v8.88c0,12.68-2.93,21.21-8.4,25.74-3,2.51-7.34,4-12.91,4.65a85.72,85.72,0,0,1-16.07-.1l-3.52-13.89-4.1,14.11-17.89-2.87,7.66-27.61-9.35,3.54Zm16.28-68.68,31.15-16.83,9.66-19.4,33.94-16.7-6.81,16.21,24-13a162.27,162.27,0,0,1,26.8-10.49c9.47-2.68,15.92-2.88,17.71.72,3.17,6.4,3.42,15.83,3.42,27.14v21.22c-1.16,7.19-7.93,14.42-19.59,21.55-7.09,4.33-16.19,8.25-27,11.62l-32.88,9.56-5.16-18.55,31.62-12.2,1.26-27.4-32.88,16.19-24.07,52.9-27.17,1.42,15.86-35.42-20.49,10.49Zm17.55,96.2.76-20.94-4.49,1.39-5.73,20.49Z" transform="translate(-6328.68 -6714.11)"/><path class="cls-2" d="M6537,7122.57l39.38,2.14,9.33-24.29,37.1,6.82-9.92,21.43c12.12.9,24.06,1.95,35.6,3.17,18.34,1.95,34.38,4.68,47,8.17,13.66,3.79,24,9.11,29.7,16.41,5,6.43,7.93,16.81,9.19,30.64l3.81,53.71,1.93,18.71c2.59,25.24-3.86,38.39-18.49,39.49-8,.61-22.06-3.9-40.66-12.89-11.62-5.64-28.35-15.46-48.49-28.28L6620,7224.73l43.86,20.58v-62.77l-1.24-19.73-60.58-10.52L6572,7224.46l-26.41-20L6567.2,7148l-30.62-3.45Z" transform="translate(-6328.68 -6714.11)"/><path class="cls-2" d="M6707.49,6994.36l-9.52,17.32c15-3.9,26.62-6.45,33.95-7,12.83-1,21.57,2.33,25.92,9.43,2.77,4.51,4.31,11.15,4.31,20v17.16a33.72,33.72,0,0,1-4.31,16.55,33,33,0,0,1-14.38,13.9c-9.05,4.57-20.66,7.12-34.33,8.3-7.54.65-18.23,1.06-31.5.94l-6.69-22,30.15-3,1.58-31.09-18.06,3.42-27.45,54-33.09-4.13,19.36-41.4-15.5,3.54,1-20.7,28.25-7.32,9.9-17.91Zm-163.94,22.09,1.41-28.62,17.57-10.45-1.68,30.38,13.63-6.67-.63,18.72-14.1,6.65-.55,67.55-19.31,1.06,2.27-59.17-8.76,4.7.42-18.55Zm17.86,32.58,16.28-5.11,4.65-13.95,19.11-2.48-3.92,10.81c11.31-3.3,19.15-3.7,22.8-.89s5.66,8.59,5.66,17v8.88c0,12.68-2.94,21.21-8.41,25.73-3,2.51-7.34,4.06-12.9,4.66a85,85,0,0,1-16.07-.11l-3.53-13.89-4.09,14.12L6563.1,7091l7.66-27.61-9.35,3.54Zm16.28-68.67,31.15-16.84,9.65-19.4,33.95-16.69-6.81,16.21,24-13a162.2,162.2,0,0,1,26.79-10.49c9.48-2.67,15.93-2.87,17.71.73,3.18,6.39,3.42,15.83,3.42,27.14v21.22c-1.15,7.18-7.92,14.42-19.59,21.55-7.09,4.33-16.19,8.24-27,11.61l-32.87,9.56-5.16-18.54,31.61-12.2,1.26-27.4L6632.91,6970l-24.07,52.9-27.18,1.43,15.87-35.42L6577,6999.41Zm17.54,96.19.76-20.94-4.48,1.39-5.73,20.5Z" transform="translate(-6328.68 -6714.11)"/><path class="cls-2" d="M6536.37,7122.32l39.38,2.15,9.33-24.29,37.11,6.81-9.92,21.44c12.12.9,24,1.94,35.59,3.17,18.34,1.94,34.39,4.67,47.05,8.17,13.66,3.79,24,9.11,29.69,16.4,5,6.43,7.93,16.81,9.19,30.65l3.81,53.71,1.93,18.71c2.6,25.24-3.85,38.39-18.48,39.49-8.05.61-22.06-3.9-40.66-12.89-11.62-5.65-28.35-15.46-48.49-28.28l-12.49-33.08,43.86,20.58v-62.77l-1.24-19.73-60.58-10.51-30.08,72.17-26.41-20,21.6-56.5-30.62-3.44Z" transform="translate(-6328.68 -6714.11)"/><path class="cls-2" d="M6706.86,6994.11l-9.52,17.33c15-3.91,26.62-6.45,33.94-7,12.83-1,21.58,2.34,25.93,9.43,2.76,4.52,4.3,11.15,4.3,20.05V7051a33.79,33.79,0,0,1-4.3,16.55,33,33,0,0,1-14.39,13.91c-9,4.57-20.65,7.11-34.32,8.29-7.54.65-18.23,1.06-31.5.94l-6.69-22,30.14-3,1.58-31.08L6684,7038l-27.46,54-33.08-4.13,19.35-41.39L6627.3,7050l1-20.69,28.24-7.33,9.9-17.9Zm-163.95,22.1,1.41-28.62,17.58-10.45-1.68,30.38,13.63-6.67-.63,18.72-14.11,6.65-.55,67.55-19.3,1,2.26-59.16-8.75,4.69.42-18.54Zm17.86,32.58,16.28-5.11,4.65-14,19.11-2.48-3.92,10.81c11.31-3.3,19.16-3.7,22.8-.9s5.66,8.59,5.66,17.05v8.87c0,12.69-2.93,21.21-8.4,25.74q-4.54,3.77-12.91,4.65a84.87,84.87,0,0,1-16.07-.1l-3.52-13.89-4.1,14.12-17.89-2.88,7.66-27.61-9.35,3.55Zm16.28-68.67,31.15-16.84,9.66-19.4,33.94-16.7-6.81,16.21,24-13a162.27,162.27,0,0,1,26.8-10.49c9.47-2.68,15.92-2.88,17.71.72,3.17,6.4,3.42,15.83,3.42,27.15V6969c-1.16,7.19-7.92,14.43-19.59,21.55-7.09,4.33-16.19,8.25-27,11.62l-32.87,9.56-5.17-18.55,31.62-12.2,1.26-27.4-32.88,16.19-24.07,52.9-27.17,1.43,15.86-35.42-20.49,10.48Zm17.55,96.19.76-20.94-4.49,1.39-5.73,20.49Z" transform="translate(-6328.68 -6714.11)"/><path class="cls-2" d="M6535.74,7122.08l39.38,2.14,9.33-24.29,37.1,6.82-9.92,21.43c12.12.9,24.06,1.95,35.6,3.17,18.34,1.95,34.38,4.68,47,8.18,13.66,3.78,24,9.1,29.7,16.4,5,6.43,7.93,16.81,9.19,30.64l3.81,53.71,1.93,18.71c2.59,25.24-3.86,38.39-18.49,39.5-8,.6-22.06-3.91-40.66-12.89-11.62-5.65-28.35-15.46-48.49-28.28l-12.49-33.08,43.86,20.58v-62.77l-1.24-19.73-60.58-10.51L6570.73,7224l-26.41-20,21.61-56.5-30.62-3.45Z" transform="translate(-6328.68 -6714.11)"/><path class="cls-2" d="M6706.23,6993.87l-9.53,17.32c15-3.9,26.62-6.44,33.95-7,12.83-1,21.57,2.34,25.92,9.43,2.77,4.51,4.31,11.15,4.31,20v17.16a33.69,33.69,0,0,1-4.31,16.55,32.93,32.93,0,0,1-14.38,13.9c-9,4.58-20.66,7.12-34.33,8.3-7.53.65-18.23,1.06-31.5.94l-6.69-22,30.15-3,1.58-31.08-18.06,3.41-27.45,54-33.08-4.13,19.35-41.4-15.5,3.54,1-20.69,28.25-7.33,9.9-17.91ZM6542.28,7016l1.41-28.63,17.57-10.44-1.68,30.37,13.63-6.67-.63,18.72-14.1,6.65-.55,67.55-19.31,1.06,2.27-59.17-8.76,4.7.42-18.54Zm17.86,32.58,16.28-5.12,4.65-14,19.11-2.48-3.92,10.81c11.31-3.29,19.15-3.7,22.8-.89s5.66,8.59,5.66,17v8.88c0,12.68-2.94,21.21-8.41,25.73-3,2.51-7.34,4.06-12.9,4.66a85,85,0,0,1-16.07-.11l-3.53-13.89-4.09,14.12-17.89-2.87,7.66-27.61-9.35,3.54Zm16.28-68.68,31.15-16.83,9.65-19.4,33.95-16.7-6.81,16.21,24-13a163,163,0,0,1,26.79-10.48c9.48-2.68,15.93-2.88,17.71.72,3.18,6.39,3.42,15.83,3.42,27.14v21.22c-1.15,7.18-7.92,14.42-19.59,21.55-7.09,4.33-16.19,8.24-27,11.61l-32.87,9.56-5.16-18.54,31.61-12.2,1.27-27.4-32.88,16.19-24.07,52.89-27.18,1.43,15.87-35.42-20.49,10.48Zm17.55,96.19.75-20.94-4.48,1.4-5.73,20.49Z" transform="translate(-6328.68 -6714.11)"/><path class="cls-2" d="M6535.1,7121.83l39.38,2.15,9.33-24.29,37.11,6.81-9.92,21.44c12.12.9,24.05,2,35.59,3.17,18.34,1.94,34.39,4.67,47.05,8.17,13.66,3.79,24,9.11,29.69,16.41,5,6.43,7.93,16.81,9.19,30.64l3.81,53.71,1.93,18.71c2.6,25.24-3.85,38.39-18.48,39.49-8.05.61-22.06-3.9-40.66-12.89-11.62-5.65-28.35-15.46-48.49-28.28L6618.14,7224l43.86,20.57V7181.8l-1.24-19.73-60.58-10.51-30.08,72.17-26.41-20,21.6-56.49-30.62-3.45Z" transform="translate(-6328.68 -6714.11)"/><path class="cls-2" d="M6705.59,6993.63l-9.52,17.32c15-3.9,26.62-6.45,34-7,12.82-1.05,21.57,2.33,25.92,9.42,2.77,4.52,4.31,11.16,4.31,20.05v17.15a33.83,33.83,0,0,1-4.31,16.56,33,33,0,0,1-14.39,13.9c-9,4.57-20.65,7.12-34.32,8.3-7.54.65-18.23,1.06-31.5.94l-6.69-22,30.14-3,1.58-31.08-18.05,3.42-27.46,54-33.08-4.12,19.35-41.4-15.49,3.53,1-20.69,28.24-7.33,9.9-17.9Zm-163.95,22.09,1.41-28.62,17.58-10.45L6559,7007l13.63-6.67-.63,18.72-14.11,6.65-.55,67.55-19.3,1.05,2.26-59.16-8.75,4.7.42-18.55Zm17.87,32.58,16.27-5.11,4.65-13.95,19.12-2.48-3.93,10.81c11.31-3.3,19.16-3.7,22.8-.89s5.66,8.58,5.66,17v8.87c0,12.69-2.93,21.22-8.4,25.74-3,2.51-7.34,4.06-12.9,4.66a85.08,85.08,0,0,1-16.08-.11l-3.52-13.89-4.09,14.12-17.89-2.88,7.65-27.61-9.34,3.55Zm16.27-68.67,31.15-16.84,9.66-19.4,33.94-16.69-6.81,16.21,24-13a162.27,162.27,0,0,1,26.8-10.49c9.47-2.68,15.93-2.87,17.71.72,3.17,6.4,3.42,15.84,3.42,27.15v21.21c-1.16,7.19-7.92,14.43-19.59,21.56-7.09,4.32-16.19,8.24-27,11.61l-32.87,9.56-5.17-18.54,31.62-12.2,1.26-27.4L6631,6969.29l-24.07,52.9-27.17,1.43,15.86-35.42-20.48,10.48Zm17.55,96.19.76-20.94-4.49,1.39-5.73,20.5Z" transform="translate(-6328.68 -6714.11)"/><path class="cls-2" d="M6534.47,7121.59l39.38,2.15,9.33-24.29,37.1,6.81-9.92,21.43c12.12.9,24.06,2,35.6,3.18,18.34,1.94,34.38,4.67,47.05,8.17,13.65,3.78,24,9.1,29.69,16.4,5,6.43,7.93,16.81,9.19,30.65l3.81,53.7,1.93,18.71c2.59,25.25-3.85,38.39-18.49,39.5-8,.6-22.06-3.9-40.66-12.89-11.62-5.65-28.35-15.46-48.49-28.28l-12.49-33.08,43.87,20.58v-62.77l-1.25-19.73-60.57-10.51-30.09,72.17-26.41-20,21.61-56.5-30.62-3.45Z" transform="translate(-6328.68 -6714.11)"/><path class="cls-2" d="M6705,6993.38l-9.53,17.32c15-3.9,26.62-6.44,33.95-7,12.83-1,21.57,2.34,25.92,9.43,2.77,4.51,4.31,11.15,4.31,20v17.16a33.69,33.69,0,0,1-4.31,16.55,32.93,32.93,0,0,1-14.38,13.9c-9.05,4.58-20.66,7.12-34.32,8.3-7.54.65-18.23,1.06-31.51.94l-6.69-22,30.15-3,1.58-31.08-18.06,3.41-27.45,54-33.08-4.13,19.35-41.39-15.5,3.53,1-20.69,28.25-7.33,9.9-17.91ZM6541,7015.48l1.41-28.62,17.57-10.45-1.68,30.37,13.63-6.66-.63,18.71-14.1,6.65-.55,67.56-19.31,1.05,2.27-59.17-8.76,4.7.42-18.54Zm17.86,32.58,16.28-5.11,4.65-13.95,19.11-2.49-3.92,10.82c11.31-3.3,19.15-3.7,22.8-.9s5.66,8.59,5.66,17v8.88c0,12.68-2.94,21.21-8.4,25.74-3,2.51-7.35,4.05-12.91,4.65a85.72,85.72,0,0,1-16.07-.1l-3.53-13.89-4.09,14.11-17.89-2.87,7.66-27.61-9.35,3.54Zm16.28-68.68,31.15-16.83,9.65-19.4,33.95-16.7-6.81,16.21,24-13a162.2,162.2,0,0,1,26.79-10.49c9.48-2.68,15.93-2.88,17.72.72,3.17,6.4,3.41,15.83,3.41,27.14v21.22c-1.15,7.19-7.92,14.42-19.59,21.55-7.09,4.33-16.18,8.24-27,11.62l-32.87,9.55-5.16-18.54,31.61-12.2,1.27-27.4-32.88,16.19-24.07,52.89-27.18,1.43L6595,6988l-20.49,10.49Zm17.55,96.2.76-20.94L6589,7056l-5.73,20.49Z" transform="translate(-6328.68 -6714.11)"/><path class="cls-2" d="M6533.83,7121.35l39.38,2.14,9.33-24.29,37.11,6.82-9.92,21.43c12.12.9,24.05,1.95,35.59,3.17,18.34,1.95,34.39,4.68,47.05,8.17,13.66,3.79,24,9.11,29.69,16.41,5,6.43,7.93,16.81,9.2,30.64l3.8,53.71,1.93,18.71c2.6,25.24-3.85,38.39-18.48,39.49-8,.61-22.06-3.9-40.66-12.89-11.62-5.64-28.35-15.46-48.49-28.28l-12.49-33.07,43.86,20.58v-62.77l-1.24-19.73-60.58-10.52-30.08,72.17-26.41-20,21.61-56.49-30.63-3.45Z" transform="translate(-6328.68 -6714.11)"/><path class="cls-2" d="M6704.32,6993.14l-9.52,17.32c15-3.9,26.62-6.45,33.95-7,12.82-1,21.57,2.33,25.92,9.43,2.77,4.51,4.31,11.15,4.31,20V7050a33.83,33.83,0,0,1-4.31,16.56,33,33,0,0,1-14.39,13.9c-9,4.57-20.65,7.12-34.32,8.3-7.54.65-18.23,1.06-31.5.94l-6.69-22,30.14-3,1.58-31.09-18.05,3.42-27.46,54-33.08-4.12,19.35-41.4-15.49,3.54,1-20.7,28.24-7.32,9.9-17.91Zm-163.95,22.09,1.41-28.62,17.58-10.45-1.68,30.38,13.63-6.67-.63,18.72-14.11,6.65-.55,67.55-19.3,1.06,2.26-59.17-8.75,4.7.42-18.55Zm17.87,32.58,16.27-5.11,4.65-13.95,19.12-2.48-3.93,10.81c11.31-3.3,19.16-3.7,22.8-.89s5.67,8.59,5.67,17v8.88c0,12.68-2.94,21.21-8.41,25.73-3,2.51-7.34,4.06-12.9,4.66a85.08,85.08,0,0,1-16.08-.11l-3.52-13.89-4.09,14.12-17.89-2.87,7.65-27.62-9.34,3.55Zm16.27-68.67,31.15-16.84,9.66-19.4,33.94-16.69-6.8,16.21,24-13a162.27,162.27,0,0,1,26.8-10.49c9.47-2.67,15.93-2.87,17.71.73,3.17,6.39,3.42,15.83,3.42,27.14V6968c-1.16,7.18-7.92,14.42-19.59,21.55-7.09,4.33-16.19,8.24-27,11.61l-32.87,9.56-5.17-18.54,31.62-12.2,1.26-27.4-32.88,16.18-24.07,52.9-27.17,1.43,15.86-35.42-20.48,10.48Zm17.55,96.19.76-20.94-4.49,1.39-5.72,20.5Z" transform="translate(-6328.68 -6714.11)"/><path class="cls-2" d="M6533.2,7121.1l39.38,2.15,9.33-24.29,37.1,6.81-9.92,21.44c12.12.89,24.06,1.94,35.6,3.17,18.34,1.94,34.38,4.67,47.05,8.17,13.66,3.79,24,9.11,29.69,16.4,5,6.43,7.93,16.81,9.19,30.65l3.81,53.71,1.93,18.7c2.6,25.25-3.85,38.4-18.48,39.5-8.05.6-22.07-3.9-40.67-12.89-11.62-5.65-28.34-15.46-48.49-28.28l-12.49-33.08,43.87,20.58v-62.77l-1.25-19.73-60.57-10.51L6568.19,7223l-26.41-20,21.61-56.5-30.62-3.44Z" transform="translate(-6328.68 -6714.11)"/><path class="cls-2" d="M6703.69,6992.89l-9.53,17.32c15-3.9,26.62-6.44,33.95-7,12.83-1,21.57,2.34,25.92,9.43,2.77,4.52,4.31,11.15,4.31,20v17.16a33.69,33.69,0,0,1-4.31,16.55,32.87,32.87,0,0,1-14.38,13.9c-9,4.58-20.66,7.12-34.32,8.3-7.54.65-18.23,1.06-31.51.94l-6.69-22,30.15-3,1.58-31.08-18.06,3.41-27.45,54-33.08-4.13,19.35-41.39-15.5,3.53,1-20.69,28.25-7.33,9.9-17.9ZM6539.74,7015l1.41-28.62,17.57-10.45-1.68,30.37,13.63-6.66-.63,18.72-14.1,6.64-.55,67.56-19.31,1.05,2.27-59.17-8.76,4.7.42-18.54Zm17.86,32.58,16.28-5.11,4.65-13.95,19.11-2.48-3.92,10.81c11.31-3.3,19.15-3.7,22.8-.9s5.66,8.59,5.66,17v8.88c0,12.69-2.94,21.21-8.4,25.74q-4.56,3.76-12.91,4.65a84.87,84.87,0,0,1-16.07-.1l-3.53-13.89-4.09,14.12-17.89-2.88,7.66-27.61-9.35,3.55Zm16.28-68.67,31.15-16.84,9.65-19.4,33.95-16.7-6.81,16.21,24-13a162.54,162.54,0,0,1,26.79-10.49c9.48-2.68,15.93-2.88,17.72.72,3.17,6.4,3.42,15.83,3.42,27.14v21.22c-1.16,7.19-7.93,14.43-19.6,21.55-7.09,4.33-16.18,8.25-27,11.62l-32.87,9.56L6629.1,6992l31.61-12.2,1.27-27.4-32.88,16.19-24.07,52.9-27.18,1.42,15.87-35.41L6573.23,6998Zm17.55,96.19.76-20.94-4.49,1.39L6582,7076Z" transform="translate(-6328.68 -6714.11)"/><path class="cls-2" d="M6532.56,7120.86,6572,7123l9.32-24.29,37.11,6.82-9.92,21.43c12.12.9,24.05,1.95,35.6,3.17,18.33,1.95,34.38,4.68,47,8.17,13.66,3.79,24,9.11,29.69,16.41,5,6.43,7.93,16.81,9.2,30.64l3.8,53.71,1.93,18.71c2.6,25.24-3.85,38.39-18.48,39.49-8,.61-22.06-3.9-40.66-12.88-11.62-5.65-28.35-15.46-48.49-28.28L6615.6,7223l43.86,20.58v-62.77l-1.24-19.73-60.58-10.51-30.08,72.17-26.41-20,21.61-56.5-30.63-3.45Z" transform="translate(-6328.68 -6714.11)"/><path class="cls-2" d="M6703.05,6992.65l-9.52,17.32c15-3.9,26.62-6.45,33.95-7,12.82-1,21.57,2.34,25.92,9.43,2.77,4.51,4.31,11.15,4.31,20v17.16a33.79,33.79,0,0,1-4.31,16.55A33,33,0,0,1,6739,7080c-9,4.58-20.65,7.12-34.32,8.3-7.54.65-18.23,1.06-31.5.94l-6.69-22,30.14-3,1.58-31.08-18.05,3.41-27.46,54-33.08-4.13L6639,7045l-15.5,3.54,1-20.7,28.24-7.32,9.91-17.91Zm-163.95,22.1,1.41-28.63,17.58-10.44-1.68,30.37,13.63-6.67-.63,18.72-14.11,6.65-.54,67.55-19.31,1.06,2.27-59.17-8.76,4.7.42-18.54Zm17.87,32.58,16.28-5.12,4.64-13.95,19.12-2.48-3.92,10.81c11.3-3.29,19.15-3.7,22.79-.89s5.67,8.59,5.67,17v8.88c0,12.68-2.94,21.21-8.41,25.73-3,2.51-7.34,4.06-12.9,4.66a85,85,0,0,1-16.07-.11l-3.53-13.89-4.09,14.12-17.89-2.87,7.65-27.61-9.34,3.54Zm16.28-68.68,31.14-16.84,9.66-19.39,33.94-16.7-6.8,16.21,24-13a163,163,0,0,1,26.8-10.48c9.47-2.68,15.93-2.88,17.71.72,3.17,6.39,3.42,15.83,3.42,27.14v21.22c-1.16,7.18-7.92,14.42-19.59,21.55-7.09,4.33-16.19,8.24-27,11.61l-32.87,9.56-5.17-18.54,31.62-12.2,1.26-27.4-32.88,16.19-24.07,52.89-27.17,1.43,15.87-35.42-20.49,10.48Zm17.54,96.19.76-20.94-4.49,1.4-5.72,20.49Z" transform="translate(-6328.68 -6714.11)"/><path class="cls-2" d="M6531.93,7120.61l39.38,2.15,9.33-24.29,37.1,6.81-9.92,21.44c12.12.9,24.06,1.95,35.6,3.17,18.34,1.94,34.38,4.67,47.05,8.17,13.66,3.79,24,9.11,29.69,16.4,5,6.44,7.93,16.82,9.19,30.65l3.81,53.71,1.93,18.71c2.6,25.24-3.85,38.39-18.48,39.49-8,.61-22.07-3.9-40.66-12.89-11.63-5.65-28.35-15.46-48.5-28.28L6615,7222.78l43.87,20.57v-62.77l-1.25-19.73L6597,7150.34l-30.09,72.17-26.41-20,21.61-56.49-30.62-3.45Z" transform="translate(-6328.68 -6714.11)"/><path class="cls-2" d="M6702.42,6992.4l-9.53,17.33c15-3.9,26.62-6.45,33.95-7,12.83-1,21.57,2.34,25.92,9.43,2.77,4.52,4.31,11.16,4.31,20.05v17.15a33.73,33.73,0,0,1-4.31,16.56,33,33,0,0,1-14.38,13.9c-9,4.57-20.66,7.12-34.32,8.29-7.54.66-18.23,1.06-31.51.94l-6.69-22,30.15-3,1.58-31.08-18.06,3.42-27.45,54-33.08-4.13,19.35-41.39-15.5,3.53,1-20.69,28.25-7.33,9.9-17.9Zm-163.95,22.1,1.41-28.62,17.58-10.45-1.69,30.38,13.63-6.67-.63,18.72-14.1,6.65-.55,67.55-19.31,1,2.27-59.16-8.75,4.7.41-18.55Zm17.86,32.58,16.28-5.11,4.65-13.95,19.11-2.48-3.92,10.81c11.31-3.3,19.15-3.7,22.8-.89s5.66,8.58,5.66,17v8.87c0,12.69-2.94,21.22-8.4,25.74q-4.56,3.77-12.91,4.66a85,85,0,0,1-16.07-.11l-3.53-13.89-4.09,14.12L6558,7089l7.66-27.61-9.35,3.55Zm16.28-68.67,31.15-16.84,9.65-19.4,33.95-16.69-6.81,16.21,24-13a162.27,162.27,0,0,1,26.8-10.49c9.47-2.68,15.92-2.87,17.71.72,3.17,6.4,3.42,15.84,3.42,27.15v21.21c-1.16,7.19-7.93,14.43-19.6,21.55-7.08,4.33-16.18,8.25-27,11.62L6633,7010l-5.16-18.55,31.61-12.2,1.27-27.4-32.88,16.19-24.07,52.9-27.18,1.43,15.87-35.42L6572,6997.46Zm17.55,96.19.76-20.94-4.49,1.39-5.73,20.5Z" transform="translate(-6328.68 -6714.11)"/><path class="cls-2" d="M6531.29,7120.37l39.39,2.15,9.32-24.29,37.11,6.81-9.92,21.43c12.12.9,24.06,1.95,35.6,3.18,18.33,1.94,34.38,4.67,47,8.17,13.66,3.78,24,9.1,29.69,16.4,5,6.43,7.94,16.81,9.2,30.64l3.8,53.71,1.93,18.71c2.6,25.25-3.85,38.39-18.48,39.5-8,.6-22.06-3.9-40.66-12.89-11.62-5.65-28.35-15.46-48.49-28.28l-12.49-33.08,43.86,20.58v-62.77l-1.24-19.73-60.58-10.51-30.08,72.17-26.41-20,21.61-56.5-30.63-3.45Z" transform="translate(-6328.68 -6714.11)"/><path class="cls-2" d="M6701.78,6992.16l-9.52,17.32c15-3.9,26.62-6.44,33.95-7,12.82-1,21.57,2.34,25.92,9.43,2.77,4.51,4.31,11.15,4.31,20v17.16a33.79,33.79,0,0,1-4.31,16.55,33,33,0,0,1-14.39,13.9c-9,4.58-20.65,7.12-34.32,8.3-7.54.65-18.23,1.06-31.5.94l-6.69-22,30.15-3,1.58-31.08-18.06,3.41-27.46,54-33.08-4.13,19.36-41.39-15.5,3.53,1-20.69,28.24-7.33,9.91-17.91Zm-163.95,22.1,1.41-28.62,17.58-10.45-1.68,30.37,13.63-6.67-.63,18.72-14.11,6.65-.54,67.56-19.31,1.05,2.27-59.17-8.76,4.7.42-18.54Zm17.87,32.58,16.28-5.11,4.64-13.95,19.12-2.49-3.92,10.81c11.31-3.29,19.15-3.69,22.79-.89s5.67,8.59,5.67,17v8.88c0,12.68-2.94,21.21-8.41,25.74-3,2.5-7.34,4.05-12.9,4.65a85.72,85.72,0,0,1-16.07-.1l-3.53-13.9-4.09,14.12-17.89-2.87,7.65-27.61-9.34,3.54Zm16.28-68.68,31.15-16.83,9.65-19.4,33.94-16.7-6.8,16.21,24-13a162.27,162.27,0,0,1,26.8-10.49c9.47-2.68,15.93-2.88,17.71.72,3.17,6.4,3.42,15.83,3.42,27.14v21.22c-1.15,7.19-7.92,14.42-19.59,21.55-7.09,4.33-16.19,8.24-27,11.62l-32.87,9.55-5.16-18.54,31.61-12.2,1.26-27.4-32.87,16.19-24.07,52.89-27.18,1.43,15.87-35.42-20.49,10.48Zm17.54,96.2.76-20.94-4.48,1.39-5.73,20.49Z" transform="translate(-6328.68 -6714.11)"/><path class="cls-2" d="M6530.66,7120.12l39.38,2.15,9.33-24.29,37.11,6.82-9.93,21.43c12.12.9,24.06,2,35.6,3.17,18.34,2,34.38,4.68,47.05,8.17,13.66,3.79,24,9.11,29.69,16.41,5,6.43,7.93,16.81,9.19,30.64l3.81,53.71,1.93,18.71c2.6,25.24-3.85,38.39-18.48,39.49-8.05.61-22.06-3.9-40.66-12.89-11.63-5.64-28.35-15.46-48.49-28.28l-12.5-33.07,43.87,20.57V7180.1l-1.25-19.74-60.57-10.51L6565.66,7222l-26.42-20,21.61-56.49-30.62-3.45Z" transform="translate(-6328.68 -6714.11)"/><path class="cls-2" d="M6701.15,6991.92l-9.53,17.32c15-3.9,26.62-6.45,33.95-7,12.83-1.05,21.57,2.33,25.92,9.43,2.77,4.51,4.31,11.15,4.31,20v17.15a33.73,33.73,0,0,1-4.31,16.56,33,33,0,0,1-14.38,13.9c-9,4.57-20.66,7.12-34.32,8.3-7.54.65-18.23,1.06-31.51.94l-6.69-22,30.15-3,1.58-31.08-18,3.42-27.46,54-33.08-4.12,19.35-41.4-15.5,3.54,1-20.7,28.25-7.32,9.9-17.91ZM6537.2,7014l1.41-28.62,17.58-10.45-1.68,30.38,13.63-6.67-.63,18.72L6553.4,7024l-.55,67.55-19.31,1.06,2.27-59.17-8.75,4.7.41-18.55Zm17.86,32.58,16.28-5.11,4.65-13.95,19.11-2.48-3.92,10.81c11.31-3.3,19.16-3.7,22.8-.89s5.66,8.59,5.66,17v8.88c0,12.68-2.94,21.21-8.4,25.73q-4.56,3.77-12.91,4.66a85,85,0,0,1-16.07-.11l-3.52-13.89-4.1,14.12-17.89-2.87,7.66-27.62-9.35,3.55Zm16.28-68.67,31.15-16.84,9.66-19.4,33.94-16.69-6.81,16.21,24-13a162.27,162.27,0,0,1,26.8-10.49c9.47-2.67,15.92-2.87,17.71.73,3.17,6.39,3.42,15.83,3.42,27.14v21.21c-1.16,7.19-7.93,14.43-19.6,21.56-7.08,4.33-16.18,8.24-27,11.61l-32.87,9.56-5.16-18.54,31.62-12.2,1.26-27.4-32.88,16.18-24.07,52.9-27.18,1.43,15.87-35.42L6570.69,6997Zm17.55,96.19.76-20.94-4.49,1.39-5.73,20.5Z" transform="translate(-6328.68 -6714.11)"/><path class="cls-2" d="M6530,7119.88l39.38,2.15,9.33-24.29,37.1,6.81-9.92,21.43c12.12.9,24.06,2,35.6,3.18,18.33,1.94,34.38,4.67,47,8.17,13.66,3.79,24,9.11,29.69,16.4,5,6.43,7.94,16.81,9.2,30.65l3.8,53.7,1.94,18.71c2.59,25.25-3.86,38.4-18.49,39.5-8,.6-22.06-3.9-40.66-12.89-11.62-5.65-28.35-15.46-48.49-28.28L6613.06,7222l43.86,20.58v-62.77l-1.24-19.73-60.58-10.51L6565,7221.78l-26.41-20,21.61-56.5-30.62-3.44Z" transform="translate(-6328.68 -6714.11)"/><path class="cls-2" d="M6700.51,6991.67,6691,7009c15-3.9,26.62-6.44,33.95-7,12.82-1,21.57,2.34,25.92,9.43,2.77,4.52,4.31,11.15,4.31,20v17.16a33.79,33.79,0,0,1-4.31,16.55,32.9,32.9,0,0,1-14.39,13.9c-9,4.58-20.65,7.12-34.32,8.3-7.54.65-18.23,1.06-31.5.94l-6.69-22,30.15-3,1.58-31.08-18.06,3.41-27.46,54-33.08-4.13,19.36-41.39-15.5,3.53,1-20.69,28.24-7.33,9.91-17.9Zm-163.95,22.1,1.41-28.62,17.58-10.45-1.68,30.37,13.63-6.66-.63,18.72-14.11,6.64-.54,67.56-19.31,1.05,2.27-59.17-8.76,4.7.42-18.54Zm17.87,32.58,16.28-5.11,4.65-13.95,19.11-2.49-3.92,10.82c11.31-3.3,19.15-3.7,22.8-.9s5.66,8.59,5.66,17v8.88c0,12.68-2.94,21.21-8.41,25.74-3,2.51-7.34,4.06-12.9,4.65a85.72,85.72,0,0,1-16.07-.1L6578.1,7077l-4.09,14.12-17.89-2.88,7.65-27.61-9.34,3.55Zm16.28-68.68,31.15-16.83,9.65-19.4,33.95-16.7-6.81,16.21,24-13a162.61,162.61,0,0,1,26.8-10.49c9.47-2.68,15.93-2.88,17.71.72,3.17,6.4,3.42,15.83,3.42,27.14v21.22c-1.15,7.19-7.92,14.42-19.59,21.55-7.09,4.33-16.19,8.25-27,11.62l-32.87,9.56-5.16-18.55,31.61-12.2,1.26-27.4-32.87,16.19-24.07,52.9-27.18,1.42,15.87-35.41-20.49,10.48Zm17.54,96.2.76-20.94-4.48,1.39-5.73,20.49Z" transform="translate(-6328.68 -6714.11)"/><path class="cls-2" d="M6529.39,7119.64l39.38,2.14,9.33-24.29,37.11,6.82-9.93,21.43c12.13.9,24.06,1.95,35.6,3.17,18.34,1.95,34.38,4.68,47.05,8.17,13.66,3.79,24,9.11,29.69,16.41,5,6.43,7.93,16.81,9.19,30.64l3.81,53.71,1.93,18.71c2.6,25.24-3.85,38.39-18.48,39.49-8,.61-22.06-3.9-40.66-12.88-11.63-5.65-28.35-15.46-48.49-28.29l-12.5-33.07,43.87,20.58v-62.77l-1.24-19.73-60.58-10.52-30.08,72.18-26.42-20,21.61-56.49-30.62-3.45Z" transform="translate(-6328.68 -6714.11)"/><path class="cls-2" d="M6699.88,6991.43l-9.53,17.32c15-3.9,26.62-6.45,33.95-7,12.83-1,21.58,2.33,25.92,9.43,2.77,4.51,4.31,11.15,4.31,20v17.16a33.72,33.72,0,0,1-4.31,16.55,32.93,32.93,0,0,1-14.38,13.9c-9,4.57-20.65,7.12-34.32,8.3-7.54.65-18.23,1.06-31.5.94l-6.7-22,30.15-3,1.58-31.09-18.05,3.42-27.46,54-33.08-4.13,19.35-41.4-15.5,3.54,1-20.7,28.25-7.32,9.9-17.91Zm-163.95,22.1,1.41-28.63,17.58-10.44-1.68,30.37,13.63-6.67-.63,18.72-14.11,6.65-.55,67.55-19.31,1.06,2.27-59.17-8.75,4.7.41-18.54Zm17.86,32.58,16.28-5.12,4.65-13.95,19.11-2.48-3.92,10.81c11.31-3.29,19.16-3.7,22.8-.89s5.66,8.59,5.66,17v8.88c0,12.68-2.93,21.21-8.4,25.73q-4.56,3.77-12.91,4.66a85,85,0,0,1-16.07-.11l-3.52-13.89-4.1,14.12-17.89-2.87,7.66-27.61-9.35,3.54Zm16.28-68.68,31.15-16.84,9.66-19.4,33.94-16.69-6.81,16.21,24-13a162.27,162.27,0,0,1,26.8-10.49c9.47-2.67,15.92-2.87,17.71.73,3.17,6.39,3.42,15.83,3.42,27.14v21.22c-1.16,7.18-7.93,14.42-19.6,21.55-7.08,4.33-16.18,8.24-27,11.61l-32.87,9.56-5.16-18.54,31.62-12.2,1.26-27.4-32.88,16.19L6601.22,7020l-27.18,1.43,15.87-35.42-20.49,10.48Zm17.55,96.19.76-20.94-4.49,1.39-5.73,20.5Z" transform="translate(-6328.68 -6714.11)"/><path class="cls-2" d="M6528.76,7119.39l39.38,2.15,9.33-24.29,37.1,6.81-9.92,21.44c12.12.9,24.06,1.95,35.6,3.17,18.34,1.94,34.38,4.67,47,8.17,13.66,3.79,24,9.11,29.7,16.4,5,6.43,7.93,16.82,9.19,30.65l3.8,53.71,1.94,18.71c2.59,25.24-3.86,38.39-18.49,39.49-8,.61-22.06-3.9-40.66-12.89-11.62-5.65-28.35-15.46-48.49-28.28l-12.49-33.08,43.86,20.58v-62.77l-1.24-19.73-60.58-10.51-30.08,72.17-26.41-20L6559,7144.8l-30.62-3.45Z" transform="translate(-6328.68 -6714.11)"/><path class="cls-2" d="M6699.24,6991.18l-9.52,17.33c15-3.91,26.62-6.45,33.95-7.05,12.82-1,21.57,2.34,25.92,9.43,2.77,4.52,4.31,11.15,4.31,20v17.15a33.83,33.83,0,0,1-4.31,16.56,33,33,0,0,1-14.39,13.9c-9,4.57-20.65,7.11-34.32,8.29-7.54.66-18.23,1.06-31.5.94l-6.69-22,30.15-3,1.58-31.08-18.06,3.42-27.46,54-33.08-4.13,19.36-41.39-15.5,3.53,1-20.69,28.24-7.33,9.91-17.9Zm-163.94,22.1,1.4-28.62,17.58-10.45-1.68,30.38,13.63-6.67-.63,18.72-14.1,6.65-.55,67.55-19.31,1.05,2.27-59.16-8.76,4.69.42-18.54Zm17.86,32.58,16.28-5.11,4.65-13.95,19.11-2.48-3.92,10.81c11.31-3.3,19.15-3.7,22.8-.9s5.66,8.59,5.66,17.05v8.87c0,12.69-2.94,21.22-8.41,25.74-3,2.51-7.34,4.06-12.9,4.65a84,84,0,0,1-16.07-.1l-3.53-13.89-4.09,14.12-17.89-2.88,7.65-27.61-9.34,3.55Zm16.28-68.67,31.15-16.84,9.65-19.4,33.95-16.7-6.81,16.21,24-13a162.61,162.61,0,0,1,26.8-10.49c9.47-2.68,15.93-2.87,17.71.72,3.17,6.4,3.42,15.83,3.42,27.15v21.21c-1.15,7.19-7.92,14.43-19.59,21.55-7.09,4.33-16.19,8.25-27,11.62l-32.87,9.56-5.16-18.55,31.61-12.2,1.26-27.4-32.87,16.19-24.07,52.9-27.18,1.43,15.87-35.42-20.49,10.48Zm17.54,96.19.76-20.94-4.48,1.39-5.73,20.5Z" transform="translate(-6328.68 -6714.11)"/><path class="cls-2" d="M6528.12,7119.15l39.38,2.15,9.33-24.3,37.11,6.82-9.93,21.43c12.13.9,24.06,1.95,35.6,3.17,18.34,1.95,34.38,4.68,47.05,8.18,13.66,3.78,24,9.1,29.69,16.4,5,6.43,7.93,16.81,9.19,30.64l3.81,53.71,1.93,18.71c2.6,25.24-3.85,38.39-18.48,39.5-8.05.6-22.06-3.9-40.66-12.89-11.63-5.65-28.35-15.46-48.49-28.28l-12.49-33.08,43.86,20.58v-62.77l-1.24-19.73-60.58-10.51-30.08,72.17-26.42-20,21.61-56.5-30.62-3.45Z" transform="translate(-6328.68 -6714.11)"/><path class="cls-2" d="M6698.61,6990.94l-9.53,17.32c15-3.9,26.63-6.44,33.95-7,12.83-1,21.58,2.34,25.93,9.43,2.76,4.51,4.3,11.15,4.3,20v17.16a33.79,33.79,0,0,1-4.3,16.55,33,33,0,0,1-14.39,13.9c-9,4.58-20.65,7.12-34.32,8.3-7.54.65-18.23,1.06-31.5.94l-6.69-22,30.14-3,1.58-31.08-18.05,3.41-27.46,54-33.08-4.13,19.35-41.39-15.5,3.53,1-20.69,28.24-7.33,9.9-17.91ZM6534.66,7013l1.41-28.63,17.58-10.44-1.68,30.37,13.63-6.67-.63,18.72-14.11,6.65-.55,67.56-19.31,1,2.27-59.17-8.75,4.7.42-18.54Zm17.86,32.58,16.28-5.12,4.65-13.94,19.11-2.49-3.92,10.81c11.31-3.29,19.16-3.7,22.8-.89s5.66,8.59,5.66,17v8.88c0,12.68-2.93,21.21-8.4,25.73q-4.56,3.76-12.91,4.66a85.72,85.72,0,0,1-16.07-.1l-3.52-13.9-4.1,14.12-17.89-2.87,7.66-27.61-9.35,3.54Zm16.28-68.68,31.15-16.83,9.66-19.4,33.94-16.7-6.81,16.21,24-13a163,163,0,0,1,26.8-10.48c9.47-2.68,15.92-2.88,17.71.72,3.17,6.4,3.42,15.83,3.42,27.14v21.22c-1.16,7.18-7.93,14.42-19.6,21.55-7.08,4.33-16.18,8.24-27,11.62l-32.88,9.55L6624,6990l31.62-12.2,1.26-27.4L6624,6966.61,6600,7019.5l-27.17,1.43,15.86-35.42L6568.15,6996Zm17.55,96.19.76-20.94-4.49,1.4-5.73,20.49Z" transform="translate(-6328.68 -6714.11)"/><path class="cls-2" d="M6527.49,7118.9l39.38,2.15,9.33-24.29,37.1,6.81-9.92,21.44c12.12.9,24.06,1.95,35.6,3.17,18.34,1.95,34.38,4.68,47,8.17,13.66,3.79,24,9.11,29.7,16.41,5,6.43,7.93,16.81,9.19,30.64l3.8,53.71,1.94,18.71c2.59,25.24-3.86,38.39-18.49,39.49-8,.61-22.06-3.9-40.66-12.89-11.62-5.65-28.35-15.46-48.49-28.28l-12.49-33.07,43.86,20.57v-62.76l-1.24-19.74-60.58-10.51-30.08,72.17-26.41-20,21.61-56.49-30.62-3.45Z" transform="translate(-6328.68 -6714.11)"/><path class="cls-2" d="M6698,6990.7l-9.52,17.32c15-3.9,26.62-6.45,33.95-7,12.83-1,21.57,2.33,25.92,9.42,2.77,4.52,4.31,11.16,4.31,20.05v17.15a33.83,33.83,0,0,1-4.31,16.56,33,33,0,0,1-14.38,13.9c-9,4.57-20.66,7.12-34.33,8.3-7.54.65-18.23,1.06-31.5.94l-6.69-22,30.15-3,1.58-31.08-18.06,3.42-27.45,54-33.09-4.12,19.36-41.4-15.5,3.53,1-20.69,28.25-7.32,9.9-17.91ZM6534,7012.79l1.4-28.62,17.58-10.45-1.68,30.38,13.63-6.67-.63,18.72-14.1,6.65-.55,67.55-19.31,1,2.27-59.16-8.76,4.7.42-18.55Zm17.86,32.58,16.28-5.11,4.65-13.95,19.11-2.48-3.92,10.81c11.31-3.3,19.15-3.7,22.8-.89s5.66,8.59,5.66,17v8.88c0,12.68-2.94,21.21-8.41,25.73-3,2.51-7.34,4.06-12.9,4.66a85,85,0,0,1-16.07-.11l-3.53-13.89-4.09,14.12-17.89-2.88,7.66-27.61-9.35,3.55Zm16.28-68.67,31.15-16.84,9.65-19.4,33.95-16.69-6.81,16.21,24-13a162.2,162.2,0,0,1,26.79-10.49c9.47-2.68,15.93-2.87,17.71.72,3.18,6.4,3.42,15.84,3.42,27.15v21.21c-1.15,7.19-7.92,14.43-19.59,21.56-7.09,4.32-16.19,8.24-27,11.61l-32.87,9.56-5.16-18.54,31.61-12.2,1.26-27.4-32.87,16.18-24.07,52.9-27.18,1.43,15.87-35.42-20.49,10.48Zm17.54,96.19.76-20.94-4.48,1.39-5.73,20.5Z" transform="translate(-6328.68 -6714.11)"/><path class="cls-2" d="M6526.85,7118.66l39.38,2.15,9.33-24.29,37.11,6.81-9.93,21.43c12.13.9,24.06,1.95,35.6,3.18,18.34,1.94,34.38,4.67,47.05,8.17,13.66,3.79,24,9.11,29.69,16.4,5,6.43,7.93,16.81,9.19,30.65l3.81,53.7,1.93,18.71c2.6,25.25-3.85,38.4-18.48,39.5-8.05.6-22.06-3.9-40.66-12.89-11.63-5.65-28.35-15.46-48.49-28.28l-12.49-33.08,43.86,20.58v-62.77l-1.24-19.73-60.58-10.51-30.08,72.17-26.42-20,21.61-56.5-30.62-3.44Z" transform="translate(-6328.68 -6714.11)"/><path class="cls-2" d="M6697.34,6990.45l-9.52,17.32c15-3.9,26.62-6.44,33.94-7,12.83-1,21.58,2.34,25.93,9.43,2.76,4.51,4.3,11.15,4.3,20v17.16a33.79,33.79,0,0,1-4.3,16.55,33,33,0,0,1-14.39,13.9c-9,4.58-20.65,7.12-34.32,8.3-7.54.65-18.23,1.06-31.5.94l-6.69-22,30.14-3,1.58-31.08-18.05,3.41-27.46,54-33.08-4.13,19.35-41.39-15.49,3.53,1-20.69,28.24-7.33,9.9-17.91Zm-163.95,22.1,1.41-28.62,17.58-10.45-1.68,30.37,13.63-6.66-.63,18.71-14.11,6.65-.55,67.56-19.31,1.05L6532,7032l-8.75,4.7.42-18.54Zm17.86,32.58,16.28-5.11,4.65-14,19.11-2.49-3.92,10.82c11.31-3.3,19.16-3.7,22.8-.9s5.66,8.59,5.66,17v8.88c0,12.68-2.93,21.21-8.4,25.74-3,2.51-7.34,4.05-12.91,4.65a85.72,85.72,0,0,1-16.07-.1l-3.52-13.89-4.1,14.11-17.89-2.87,7.66-27.61-9.35,3.55Zm16.28-68.68,31.15-16.83,9.66-19.4,33.94-16.7-6.81,16.21,24-13a162.27,162.27,0,0,1,26.8-10.49c9.47-2.68,15.92-2.88,17.71.72,3.17,6.4,3.42,15.83,3.42,27.14v21.22c-1.16,7.19-7.93,14.42-19.59,21.55-7.09,4.33-16.19,8.25-27,11.62l-32.88,9.56-5.16-18.55,31.62-12.2,1.26-27.4-32.88,16.19-24.07,52.9-27.17,1.42,15.86-35.42-20.49,10.49Zm17.55,96.2.76-20.94-4.49,1.39-5.73,20.49Z" transform="translate(-6328.68 -6714.11)"/><path class="cls-2" d="M6526.22,7118.42l39.38,2.14,9.33-24.29,37.1,6.82-9.92,21.43c12.12.9,24.06,1.95,35.6,3.17,18.34,2,34.38,4.68,47,8.17,13.66,3.79,24,9.11,29.7,16.41,5,6.43,7.93,16.81,9.19,30.64l3.81,53.71,1.93,18.71c2.59,25.24-3.86,38.39-18.49,39.49-8,.61-22.06-3.9-40.66-12.89-11.62-5.64-28.35-15.46-48.49-28.28l-12.49-33.07,43.86,20.58v-62.77l-1.24-19.73-60.58-10.52-30.08,72.17-26.41-20,21.61-56.49-30.62-3.45Z" transform="translate(-6328.68 -6714.11)"/><path class="cls-2" d="M6696.7,6990.21l-9.52,17.32c15-3.9,26.62-6.45,33.95-7,12.83-1,21.57,2.33,25.92,9.43,2.77,4.51,4.31,11.15,4.31,20v17.16a33.72,33.72,0,0,1-4.31,16.55,32.93,32.93,0,0,1-14.38,13.9c-9.05,4.57-20.66,7.12-34.33,8.3-7.54.65-18.23,1.06-31.5.94l-6.69-22,30.15-3,1.58-31.09-18.06,3.42-27.45,54-33.08-4.13,19.35-41.4-15.5,3.54,1-20.7,28.25-7.32,9.9-17.91Zm-163.94,22.09,1.41-28.62,17.57-10.45-1.68,30.38,13.63-6.67-.63,18.72-14.1,6.65-.55,67.55-19.31,1.06,2.27-59.17-8.76,4.7.42-18.55Zm17.86,32.58,16.28-5.11,4.65-14,19.11-2.48-3.92,10.81c11.31-3.3,19.15-3.7,22.8-.89s5.66,8.59,5.66,17v8.88c0,12.68-2.94,21.21-8.41,25.73-3,2.51-7.34,4.06-12.9,4.66a85,85,0,0,1-16.07-.11l-3.53-13.89-4.09,14.12-17.89-2.87,7.66-27.61-9.35,3.54Zm16.28-68.67,31.15-16.84,9.65-19.4,33.95-16.69-6.81,16.21,24-13a162.2,162.2,0,0,1,26.79-10.49c9.48-2.67,15.93-2.87,17.71.73,3.18,6.39,3.42,15.83,3.42,27.14v21.22c-1.15,7.18-7.92,14.42-19.59,21.55-7.09,4.33-16.19,8.24-27,11.61l-32.87,9.56-5.16-18.54,31.61-12.2,1.26-27.4-32.87,16.18-24.07,52.9-27.18,1.43,15.87-35.42-20.49,10.48Zm17.54,96.19.76-20.94-4.48,1.39-5.73,20.5Z" transform="translate(-6328.68 -6714.11)"/><path class="cls-2" d="M6525.58,7118.17l39.38,2.15,9.33-24.29,37.11,6.81-9.92,21.44c12.12.9,24.05,1.94,35.59,3.17,18.34,1.94,34.39,4.67,47.05,8.17,13.66,3.79,24,9.11,29.69,16.4,5,6.43,7.93,16.81,9.19,30.65l3.81,53.71,1.93,18.71c2.6,25.24-3.85,38.39-18.48,39.49-8.05.61-22.06-3.9-40.66-12.89-11.62-5.65-28.35-15.46-48.49-28.28l-12.49-33.08,43.86,20.58v-62.77l-1.24-19.73-60.58-10.51-30.08,72.17-26.41-20,21.6-56.49-30.62-3.45Z" transform="translate(-6328.68 -6714.11)"/><path class="cls-2" d="M6696.07,6990l-9.52,17.33c15-3.91,26.62-6.45,33.94-7.05,12.83-1,21.58,2.34,25.93,9.43,2.76,4.52,4.3,11.15,4.3,20.05v17.15a33.79,33.79,0,0,1-4.3,16.55,33,33,0,0,1-14.39,13.91c-9,4.57-20.65,7.11-34.32,8.29-7.54.65-18.23,1.06-31.5.94l-6.69-22,30.14-3,1.58-31.08-18.05,3.41-27.46,54-33.08-4.13,19.35-41.39-15.49,3.53,1-20.69,28.24-7.33,9.9-17.9Zm-163.95,22.1,1.41-28.62,17.58-10.45-1.68,30.38,13.63-6.67-.63,18.72-14.11,6.65-.55,67.55-19.3,1.05,2.26-59.16-8.75,4.69.42-18.54Zm17.86,32.58,16.28-5.11,4.65-13.95,19.11-2.48-3.92,10.81c11.31-3.3,19.16-3.7,22.8-.9s5.66,8.59,5.66,17.05v8.87c0,12.69-2.93,21.21-8.4,25.74q-4.55,3.77-12.91,4.65a84,84,0,0,1-16.07-.1l-3.52-13.89-4.1,14.12-17.88-2.88,7.65-27.61-9.35,3.55Zm16.28-68.67,31.15-16.84,9.66-19.4L6641,6923l-6.81,16.21,24-13a162.27,162.27,0,0,1,26.8-10.49c9.47-2.68,15.93-2.88,17.71.72,3.17,6.4,3.42,15.83,3.42,27.15v21.21c-1.16,7.19-7.92,14.43-19.59,21.55-7.09,4.33-16.19,8.25-27,11.62l-32.87,9.56-5.17-18.55,31.62-12.2,1.26-27.4-32.88,16.19-24.07,52.9-27.17,1.43,15.86-35.42L6565.62,6995Zm17.55,96.19.76-20.94-4.49,1.39-5.73,20.49Z" transform="translate(-6328.68 -6714.11)"/><path class="cls-2" d="M6525,7117.93l39.38,2.14,9.33-24.29,37.1,6.82-9.92,21.43c12.12.9,24.06,1.95,35.6,3.17,18.34,1.95,34.38,4.68,47,8.18,13.66,3.78,24,9.1,29.7,16.4,5,6.43,7.93,16.81,9.19,30.64l3.81,53.71,1.93,18.71c2.59,25.24-3.86,38.39-18.49,39.5-8,.6-22.06-3.91-40.66-12.89-11.62-5.65-28.35-15.46-48.49-28.28L6608,7220.09l43.86,20.58V7177.9l-1.24-19.73L6590,7147.66l-30.08,72.17-26.41-20,21.61-56.5-30.62-3.45Z" transform="translate(-6328.68 -6714.11)"/><path class="cls-2" d="M6695.44,6989.72l-9.53,17.32c15-3.9,26.62-6.44,33.95-7,12.83-1,21.57,2.34,25.92,9.43,2.77,4.51,4.31,11.15,4.31,20v17.16a33.69,33.69,0,0,1-4.31,16.55,32.93,32.93,0,0,1-14.38,13.9c-9,4.58-20.66,7.12-34.33,8.3-7.53.65-18.23,1.06-31.5.94l-6.69-22,30.15-3,1.58-31.08-18.06,3.41-27.45,54-33.08-4.13,19.35-41.4-15.5,3.54,1-20.69,28.25-7.33,9.9-17.91Zm-163.95,22.1,1.41-28.63,17.57-10.44-1.68,30.37,13.63-6.67-.63,18.72-14.1,6.65-.55,67.55-19.31,1.06,2.27-59.17-8.76,4.7.42-18.54Zm17.86,32.58,16.28-5.12,4.65-13.95,19.11-2.48-3.92,10.81c11.31-3.29,19.15-3.7,22.8-.89s5.66,8.59,5.66,17v8.88c0,12.68-2.94,21.21-8.41,25.73-3,2.51-7.34,4.06-12.9,4.66a85.72,85.72,0,0,1-16.07-.1l-3.53-13.9-4.09,14.12-17.89-2.87,7.66-27.61-9.35,3.54Zm16.28-68.68,31.15-16.83,9.65-19.4,33.95-16.7-6.81,16.21,24-13a163,163,0,0,1,26.79-10.48c9.48-2.68,15.93-2.88,17.71.72,3.18,6.39,3.42,15.83,3.42,27.14v21.22c-1.15,7.18-7.92,14.42-19.59,21.55-7.09,4.33-16.18,8.24-27,11.61l-32.87,9.56-5.16-18.54,31.61-12.2,1.27-27.4-32.88,16.19-24.07,52.89-27.18,1.43,15.87-35.42L6565,6994.77Zm17.55,96.19.76-20.94-4.49,1.4-5.73,20.49Z" transform="translate(-6328.68 -6714.11)"/><path class="cls-2" d="M6524.31,7117.68l39.38,2.15,9.33-24.29,37.11,6.81-9.92,21.44c12.12.9,24.05,1.95,35.59,3.17,18.34,1.94,34.39,4.67,47.05,8.17,13.66,3.79,24,9.11,29.69,16.41,5,6.43,7.93,16.81,9.19,30.64l3.81,53.71,1.93,18.71c2.6,25.24-3.85,38.39-18.48,39.49-8,.61-22.06-3.9-40.66-12.89-11.62-5.65-28.35-15.46-48.49-28.28l-12.49-33.07,43.86,20.57v-62.77l-1.24-19.73-60.58-10.51-30.08,72.17-26.41-20,21.61-56.49-30.63-3.45Z" transform="translate(-6328.68 -6714.11)"/><path class="cls-2" d="M6694.8,6989.48l-9.52,17.32c15-3.9,26.62-6.45,33.95-7,12.82-1.05,21.57,2.33,25.92,9.42,2.77,4.52,4.31,11.16,4.31,20v17.15a33.83,33.83,0,0,1-4.31,16.56,33,33,0,0,1-14.39,13.9c-9,4.57-20.65,7.12-34.32,8.3-7.54.65-18.23,1.06-31.5.94l-6.69-22,30.14-3L6690,7030l-18.05,3.42-27.46,54-33.08-4.12,19.35-41.4-15.49,3.53,1-20.69,28.24-7.33,9.9-17.9Zm-163.95,22.09,1.41-28.62,17.58-10.45-1.68,30.38,13.63-6.67-.63,18.72-14.11,6.65-.55,67.55-19.3,1.05,2.26-59.16-8.75,4.7.42-18.55Zm17.87,32.58L6565,7039l4.65-13.95,19.12-2.48-3.93,10.81c11.31-3.3,19.16-3.7,22.8-.89s5.66,8.58,5.66,17v8.87c0,12.69-2.93,21.22-8.4,25.74-3,2.51-7.34,4.06-12.9,4.66a85.08,85.08,0,0,1-16.08-.11l-3.52-13.89L6568.3,7089l-17.89-2.88,7.65-27.61-9.34,3.55Zm16.27-68.67,31.15-16.84,9.66-19.4,33.94-16.69-6.81,16.21,24-13a162.27,162.27,0,0,1,26.8-10.49c9.47-2.68,15.93-2.87,17.71.72,3.17,6.4,3.42,15.84,3.42,27.15v21.21c-1.16,7.19-7.92,14.43-19.59,21.56-7.09,4.32-16.19,8.24-27,11.61l-32.87,9.56-5.17-18.54,31.62-12.2,1.26-27.4-32.88,16.18-24.07,52.9-27.17,1.43,15.86-35.42-20.48,10.48Zm17.55,96.19.76-20.94-4.49,1.39-5.73,20.5Z" transform="translate(-6328.68 -6714.11)"/><path class="cls-2" d="M6523.68,7117.44l39.38,2.15,9.33-24.29,37.1,6.81-9.92,21.43c12.12.9,24.06,1.95,35.6,3.18,18.34,1.94,34.38,4.67,47.05,8.17,13.66,3.78,24,9.11,29.69,16.4,5,6.43,7.93,16.81,9.19,30.65l3.81,53.7,1.93,18.71c2.6,25.25-3.85,38.39-18.49,39.5-8,.6-22.06-3.9-40.66-12.89-11.62-5.65-28.35-15.46-48.49-28.28l-12.49-33.08,43.87,20.58v-62.77l-1.25-19.73-60.57-10.51-30.09,72.17-26.41-20,21.61-56.5-30.62-3.45Z" transform="translate(-6328.68 -6714.11)"/><path class="cls-2" d="M6694.17,6989.23l-9.53,17.32c15-3.9,26.62-6.44,33.95-7,12.83-1,21.57,2.34,25.92,9.43,2.77,4.51,4.31,11.15,4.31,20v17.16a33.69,33.69,0,0,1-4.31,16.55,32.93,32.93,0,0,1-14.38,13.9c-9.05,4.58-20.66,7.12-34.32,8.3-7.54.65-18.23,1.06-31.51.94l-6.69-22,30.15-3,1.58-31.08-18.06,3.41-27.45,54-33.08-4.13,19.35-41.39-15.5,3.53,1-20.69,28.25-7.33,9.9-17.91Zm-163.95,22.1,1.41-28.62,17.57-10.45-1.68,30.37,13.63-6.66-.63,18.71-14.1,6.65-.55,67.56-19.31,1,2.27-59.17-8.76,4.7.42-18.54Zm17.86,32.58,16.28-5.11,4.65-13.95,19.11-2.49-3.92,10.82c11.31-3.3,19.15-3.7,22.8-.9s5.66,8.59,5.66,17v8.88c0,12.68-2.94,21.21-8.4,25.74-3,2.51-7.35,4.05-12.91,4.65a85.72,85.72,0,0,1-16.07-.1l-3.53-13.89-4.09,14.11-17.89-2.87,7.66-27.61-9.35,3.54Zm16.28-68.68,31.15-16.83,9.65-19.4,33.95-16.7-6.81,16.21,24-13a162.2,162.2,0,0,1,26.79-10.49c9.48-2.68,15.93-2.88,17.72.72,3.17,6.4,3.41,15.83,3.41,27.14v21.22c-1.15,7.19-7.92,14.42-19.59,21.55-7.09,4.33-16.18,8.25-27,11.62l-32.87,9.55-5.16-18.54,31.61-12.2,1.27-27.4-32.88,16.19-24.07,52.89-27.18,1.43,15.87-35.42-20.49,10.49Zm17.55,96.2.76-20.94-4.49,1.39-5.73,20.49Z" transform="translate(-6328.68 -6714.11)"/><path class="cls-2" d="M6523,7117.2l39.39,2.14,9.32-24.29,37.11,6.82-9.92,21.43c12.12.9,24.05,1.95,35.59,3.17,18.34,1.95,34.39,4.68,47.05,8.17,13.66,3.79,24,9.11,29.69,16.41,5,6.43,7.93,16.81,9.2,30.64l3.8,53.71,1.93,18.71c2.6,25.24-3.85,38.39-18.48,39.49-8,.61-22.06-3.9-40.66-12.89-11.62-5.64-28.35-15.46-48.49-28.28l-12.49-33.07,43.86,20.58v-62.77l-1.24-19.73-60.58-10.52L6558,7219.09l-26.41-20,21.61-56.49-30.63-3.45Z" transform="translate(-6328.68 -6714.11)"/><path class="cls-2" d="M6693.53,6989l-9.52,17.32c15-3.9,26.62-6.45,33.95-7,12.82-1,21.57,2.33,25.92,9.43,2.77,4.51,4.31,11.15,4.31,20v17.15a33.83,33.83,0,0,1-4.31,16.56,33,33,0,0,1-14.39,13.9c-9,4.57-20.65,7.12-34.32,8.3-7.54.65-18.23,1.06-31.5.94l-6.69-22,30.14-3,1.58-31.09-18.05,3.42-27.46,54-33.08-4.13,19.35-41.4-15.49,3.54,1-20.7,28.24-7.32,9.9-17.91Zm-163.95,22.09,1.41-28.62,17.58-10.45-1.68,30.38,13.63-6.67-.63,18.72-14.11,6.65-.55,67.55-19.3,1.06,2.27-59.17-8.76,4.7.42-18.55Zm17.87,32.58,16.27-5.11,4.65-13.95,19.12-2.48-3.93,10.81c11.31-3.3,19.16-3.7,22.8-.89s5.67,8.59,5.67,17V7058c0,12.68-2.94,21.21-8.41,25.73-3,2.51-7.34,4.06-12.9,4.66a85.08,85.08,0,0,1-16.08-.11l-3.52-13.89-4.09,14.12-17.89-2.87,7.65-27.62-9.34,3.55Zm16.27-68.67,31.15-16.84,9.66-19.4,33.94-16.69-6.8,16.21,24-13a162.27,162.27,0,0,1,26.8-10.49c9.47-2.67,15.93-2.87,17.71.73,3.17,6.39,3.42,15.83,3.42,27.14v21.22c-1.16,7.18-7.92,14.42-19.59,21.55-7.09,4.33-16.19,8.24-27,11.61l-32.87,9.56-5.17-18.54,31.62-12.2,1.26-27.4-32.88,16.18-24.07,52.9L6567.7,7019l15.86-35.42L6563.08,6994Zm17.55,96.19.76-20.94-4.49,1.39-5.72,20.5Z" transform="translate(-6328.68 -6714.11)"/><path class="cls-2" d="M6522.41,7117l39.38,2.15,9.33-24.29,37.1,6.81-9.92,21.44c12.12.9,24.06,1.94,35.6,3.17,18.34,1.94,34.38,4.67,47.05,8.17,13.66,3.79,24,9.11,29.69,16.4,5,6.43,7.93,16.81,9.19,30.65l3.81,53.71,1.93,18.71c2.6,25.24-3.85,38.39-18.48,39.49-8.05.6-22.07-3.9-40.67-12.89-11.62-5.65-28.34-15.46-48.49-28.28l-12.49-33.08,43.87,20.58v-62.77l-1.25-19.73-60.57-10.51-30.09,72.17-26.41-20,21.61-56.5-30.62-3.44Z" transform="translate(-6328.68 -6714.11)"/><path class="cls-2" d="M6692.9,6988.74l-9.53,17.32c15-3.9,26.62-6.44,33.95-7,12.83-1,21.57,2.34,25.92,9.43,2.77,4.52,4.31,11.15,4.31,20v17.16a33.69,33.69,0,0,1-4.31,16.55,32.87,32.87,0,0,1-14.38,13.9c-9,4.58-20.66,7.12-34.32,8.3-7.54.65-18.23,1.06-31.51.94l-6.69-22,30.15-3,1.58-31.08-18.06,3.41-27.45,54-33.08-4.13,19.35-41.39-15.5,3.53,1-20.69,28.25-7.33,9.9-17.9ZM6529,7010.84l1.41-28.62,17.58-10.45-1.69,30.37,13.63-6.66-.63,18.72-14.1,6.64-.55,67.56-19.31,1.05,2.27-59.17-8.76,4.7.42-18.54Zm17.86,32.58,16.28-5.11,4.65-14,19.11-2.48-3.92,10.81c11.31-3.3,19.15-3.7,22.8-.9s5.66,8.59,5.66,17v8.88c0,12.69-2.94,21.21-8.4,25.74q-4.56,3.77-12.91,4.65a84.87,84.87,0,0,1-16.07-.1l-3.53-13.89-4.09,14.12-17.89-2.88,7.66-27.61-9.35,3.55Zm16.28-68.67,31.15-16.84,9.65-19.4,33.95-16.7L6631,6938l24-13a162.27,162.27,0,0,1,26.8-10.49c9.47-2.68,15.92-2.88,17.71.72,3.17,6.4,3.42,15.83,3.42,27.14v21.22c-1.16,7.19-7.93,14.43-19.6,21.55-7.09,4.33-16.18,8.25-27,11.62l-32.87,9.56-5.16-18.55,31.61-12.2,1.27-27.4-32.88,16.19-24.07,52.9-27.18,1.42,15.87-35.41-20.49,10.48Zm17.55,96.19.76-20.94-4.49,1.39-5.73,20.49Z" transform="translate(-6328.68 -6714.11)"/><path class="cls-2" d="M6521.77,7116.71l39.39,2.14,9.32-24.29,37.11,6.82-9.92,21.43c12.12.9,24.05,1.95,35.6,3.17,18.33,2,34.38,4.68,47,8.17,13.66,3.79,24,9.11,29.69,16.41,5,6.43,7.93,16.81,9.2,30.64l3.8,53.71,1.93,18.71c2.6,25.24-3.85,38.39-18.48,39.49-8,.61-22.06-3.9-40.66-12.88-11.62-5.65-28.35-15.46-48.49-28.28l-12.49-33.08,43.86,20.58v-62.77l-1.24-19.73-60.58-10.51-30.08,72.17-26.41-20,21.61-56.5-30.63-3.45Z" transform="translate(-6328.68 -6714.11)"/><path class="cls-2" d="M6692.26,6988.5l-9.52,17.32c15-3.9,26.62-6.45,33.95-7,12.82-1,21.57,2.34,25.92,9.43,2.77,4.51,4.31,11.15,4.31,20v17.16a33.79,33.79,0,0,1-4.31,16.55,33,33,0,0,1-14.39,13.9c-9,4.58-20.65,7.12-34.32,8.3-7.54.65-18.23,1.06-31.5.94l-6.69-22,30.14-3,1.58-31.08-18.05,3.41-27.46,54-33.08-4.13,19.36-41.4-15.5,3.54,1-20.7,28.24-7.32,9.91-17.91Zm-163.95,22.1,1.41-28.63,17.58-10.44-1.68,30.37,13.63-6.67-.63,18.72-14.11,6.65-.54,67.55-19.31,1.06,2.27-59.17-8.76,4.7.42-18.54Zm17.87,32.58,16.28-5.12,4.64-14,19.12-2.48-3.92,10.81c11.3-3.29,19.15-3.7,22.79-.89s5.67,8.59,5.67,17v8.88c0,12.68-2.94,21.21-8.41,25.73-3,2.51-7.34,4.06-12.9,4.66a85,85,0,0,1-16.07-.11l-3.53-13.89-4.09,14.12-17.89-2.87,7.65-27.61-9.34,3.54Zm16.28-68.68,31.14-16.83,9.66-19.4,33.94-16.7-6.8,16.21,24-13a163,163,0,0,1,26.8-10.48c9.47-2.68,15.93-2.88,17.71.72,3.17,6.39,3.42,15.83,3.42,27.14v21.22c-1.16,7.18-7.92,14.42-19.59,21.55-7.09,4.33-16.19,8.24-27,11.61l-32.87,9.56-5.17-18.54,31.62-12.2,1.26-27.4-32.88,16.19-24.07,52.89-27.17,1.43,15.87-35.42-20.49,10.48Zm17.54,96.19.76-20.94-4.49,1.4-5.72,20.49Z" transform="translate(-6328.68 -6714.11)"/><path class="cls-2" d="M6521.14,7116.46l39.38,2.15,9.33-24.29,37.11,6.81-9.93,21.44c12.12.9,24.06,2,35.6,3.17,18.34,1.94,34.38,4.67,47.05,8.17,13.66,3.79,24,9.11,29.69,16.4,5,6.44,7.93,16.82,9.19,30.65l3.81,53.71,1.93,18.71c2.6,25.24-3.85,38.39-18.48,39.49-8,.61-22.07-3.9-40.66-12.89-11.63-5.65-28.35-15.46-48.5-28.28l-12.49-33.07L6648,7239.2v-62.77l-1.25-19.73-60.57-10.51-30.08,72.17-26.42-20,21.61-56.49-30.62-3.45Z" transform="translate(-6328.68 -6714.11)"/><path class="cls-2" d="M6691.63,6988.25l-9.53,17.33c15-3.9,26.62-6.45,33.95-7,12.83-1.05,21.57,2.33,25.92,9.42,2.77,4.52,4.31,11.16,4.31,20.05v17.15a33.73,33.73,0,0,1-4.31,16.56,33,33,0,0,1-14.38,13.9c-9,4.57-20.66,7.12-34.32,8.3-7.54.65-18.23,1.05-31.51.93l-6.69-22,30.15-3,1.58-31.08-18.05,3.42-27.46,54-33.08-4.13,19.35-41.39-15.5,3.53,1-20.69,28.25-7.33,9.9-17.9Zm-163.95,22.1,1.41-28.62,17.58-10.45-1.69,30.38,13.64-6.67-.63,18.72-14.11,6.65-.55,67.55L6524,7089l2.27-59.16-8.75,4.7L6518,7016Zm17.86,32.58,16.28-5.11,4.65-13.95,19.11-2.48-3.92,10.81c11.31-3.3,19.16-3.7,22.8-.89s5.66,8.58,5.66,17v8.87c0,12.69-2.94,21.22-8.4,25.74q-4.56,3.77-12.91,4.66a85,85,0,0,1-16.07-.11l-3.53-13.89-4.09,14.12-17.89-2.88,7.66-27.61-9.35,3.55Zm16.28-68.67,31.15-16.84,9.65-19.4,33.95-16.69-6.81,16.21,24-13a162.27,162.27,0,0,1,26.8-10.49c9.47-2.68,15.92-2.87,17.71.72,3.17,6.4,3.42,15.84,3.42,27.15v21.21c-1.16,7.19-7.93,14.43-19.6,21.55-7.08,4.33-16.18,8.25-27,11.62l-32.87,9.56-5.16-18.55,31.61-12.2,1.27-27.4L6617,6963.92l-24.07,52.9-27.18,1.43,15.87-35.42-20.49,10.48Zm17.55,96.19.76-20.94-4.49,1.39-5.73,20.5Z" transform="translate(-6328.68 -6714.11)"/><path class="cls-2" d="M6520.51,7116.22l39.38,2.15,9.32-24.29,37.11,6.81-9.92,21.43c12.12.9,24.06,2,35.6,3.18,18.33,1.94,34.38,4.67,47,8.17,13.66,3.78,24,9.1,29.69,16.4,5,6.43,7.94,16.81,9.2,30.65l3.8,53.7,1.94,18.71c2.59,25.25-3.86,38.39-18.49,39.5-8,.6-22.06-3.9-40.66-12.89-11.62-5.65-28.35-15.46-48.49-28.28l-12.49-33.08L6647.4,7239v-62.77l-1.24-19.73L6585.58,7146l-30.08,72.17-26.41-20,21.61-56.5-30.63-3.45Z" transform="translate(-6328.68 -6714.11)"/><path class="cls-2" d="M6691,6988l-9.52,17.32c15-3.9,26.62-6.44,33.95-7,12.82-1,21.57,2.34,25.92,9.43,2.77,4.51,4.31,11.15,4.31,20v17.16a33.79,33.79,0,0,1-4.31,16.55,33,33,0,0,1-14.39,13.9c-9,4.58-20.65,7.12-34.32,8.3-7.54.65-18.23,1.06-31.5.94l-6.69-22,30.15-3,1.58-31.08-18.06,3.41-27.46,54-33.08-4.13,19.36-41.39-15.5,3.53,1-20.69,28.24-7.33,9.91-17.91ZM6527,7010.11l1.41-28.62L6546,6971l-1.68,30.37,13.63-6.67-.63,18.72-14.11,6.65-.54,67.56-19.31,1.05,2.27-59.17-8.76,4.7.42-18.54Zm17.87,32.58,16.28-5.11,4.65-13.95,19.11-2.49L6581,7032c11.31-3.29,19.15-3.69,22.8-.89s5.66,8.59,5.66,17V7057c0,12.68-2.94,21.21-8.41,25.74-3,2.5-7.34,4.05-12.9,4.65a85.72,85.72,0,0,1-16.07-.1l-3.53-13.9-4.09,14.12-17.89-2.87,7.65-27.61-9.34,3.54Zm16.28-68.68,31.15-16.83,9.65-19.4,33.94-16.7-6.8,16.21,24-13a162.61,162.61,0,0,1,26.8-10.49c9.47-2.68,15.93-2.88,17.71.72,3.17,6.4,3.42,15.83,3.42,27.14v21.22c-1.15,7.19-7.92,14.42-19.59,21.55-7.09,4.33-16.19,8.24-27,11.62l-32.87,9.55-5.16-18.54,31.61-12.2,1.26-27.4-32.87,16.19-24.07,52.89-27.18,1.43,15.87-35.42-20.49,10.49Zm17.54,96.2.76-20.94-4.48,1.39-5.73,20.49Z" transform="translate(-6328.68 -6714.11)"/><path class="cls-2" d="M6519.87,7116l39.38,2.15,9.33-24.29,37.11,6.82-9.93,21.43c12.13.9,24.06,1.95,35.6,3.17,18.34,1.95,34.38,4.68,47.05,8.17,13.66,3.79,24,9.11,29.69,16.41,5,6.43,7.93,16.81,9.19,30.64l3.81,53.71,1.93,18.71c2.6,25.24-3.85,38.39-18.48,39.49-8.05.61-22.06-3.9-40.66-12.89-11.63-5.64-28.35-15.46-48.49-28.28l-12.5-33.07,43.87,20.57V7176l-1.25-19.74L6585,7145.7l-30.08,72.17-26.42-20,21.61-56.49-30.62-3.45Z" transform="translate(-6328.68 -6714.11)"/><path class="cls-2" d="M6690.36,6987.77l-9.53,17.32c15-3.9,26.62-6.45,33.95-7,12.83-1.05,21.58,2.33,25.92,9.43,2.77,4.51,4.31,11.15,4.31,20v17.15a33.73,33.73,0,0,1-4.31,16.56,33,33,0,0,1-14.38,13.9c-9,4.57-20.66,7.12-34.32,8.3-7.54.65-18.23,1.06-31.51.94l-6.69-22,30.15-3,1.58-31.08-18.05,3.42-27.46,54-33.08-4.12,19.35-41.4-15.5,3.54,1-20.7,28.25-7.32,9.9-17.91Zm-163.95,22.09,1.41-28.62,17.58-10.45-1.68,30.38,13.63-6.67-.63,18.72-14.11,6.65-.55,67.55-19.31,1.06,2.27-59.17-8.75,4.7.41-18.55Zm17.86,32.58,16.28-5.11,4.65-13.95,19.11-2.48-3.92,10.81c11.31-3.3,19.16-3.7,22.8-.89s5.66,8.59,5.66,17v8.88c0,12.68-2.93,21.21-8.4,25.73q-4.56,3.76-12.91,4.66a85,85,0,0,1-16.07-.11l-3.52-13.89-4.1,14.12-17.89-2.87,7.66-27.62-9.35,3.55Zm16.28-68.67,31.15-16.84,9.66-19.4,33.94-16.69-6.81,16.21,24-13a162.27,162.27,0,0,1,26.8-10.49c9.47-2.67,15.92-2.87,17.71.73,3.17,6.39,3.42,15.83,3.42,27.14v21.21c-1.16,7.19-7.93,14.43-19.6,21.56-7.08,4.33-16.18,8.24-27,11.61l-32.87,9.56-5.16-18.54,31.62-12.2,1.26-27.4-32.88,16.18-24.07,52.9-27.18,1.43,15.87-35.42-20.49,10.48ZM6578.1,7070l.76-20.94-4.49,1.39-5.73,20.5Z" transform="translate(-6328.68 -6714.11)"/><path class="cls-2" d="M6519.24,7115.73l39.38,2.15,9.33-24.29,37.1,6.81-9.92,21.43c12.12.9,24.06,1.95,35.6,3.18,18.33,1.94,34.38,4.67,47,8.17,13.66,3.79,24,9.11,29.7,16.4,5,6.43,7.93,16.81,9.19,30.65l3.8,53.7,1.94,18.71c2.59,25.25-3.86,38.4-18.49,39.5-8,.6-22.06-3.9-40.66-12.89-11.62-5.65-28.35-15.46-48.49-28.28l-12.49-33.08,43.86,20.58V7175.7l-1.24-19.73-60.58-10.51-30.08,72.17-26.41-20,21.61-56.5-30.62-3.44Z" transform="translate(-6328.68 -6714.11)"/><path class="cls-2" d="M6689.72,6987.52l-9.52,17.32c15-3.9,26.62-6.44,33.95-7,12.82-1,21.57,2.34,25.92,9.43,2.77,4.52,4.31,11.15,4.31,20v17.16a33.79,33.79,0,0,1-4.31,16.55,32.9,32.9,0,0,1-14.39,13.9c-9,4.58-20.65,7.12-34.32,8.3-7.54.65-18.23,1.06-31.5.94l-6.69-22,30.15-3,1.58-31.08-18.06,3.41-27.46,54-33.08-4.13,19.36-41.39-15.5,3.53,1-20.69,28.24-7.33,9.91-17.9Zm-163.94,22.1,1.4-28.62,17.58-10.45-1.68,30.37,13.63-6.66-.63,18.72-14.1,6.64-.55,67.56-19.31,1,2.27-59.17-8.76,4.7.42-18.54Zm17.86,32.58,16.28-5.11,4.65-13.95,19.11-2.48-3.92,10.81c11.31-3.3,19.15-3.7,22.8-.9s5.66,8.59,5.66,17v8.88c0,12.69-2.94,21.21-8.41,25.74-3,2.51-7.34,4.06-12.9,4.65a85.72,85.72,0,0,1-16.07-.1l-3.53-13.89-4.09,14.12-17.89-2.88,7.65-27.61-9.34,3.55Zm16.28-68.68,31.15-16.83,9.65-19.4,33.95-16.7-6.81,16.21,24-13a162.61,162.61,0,0,1,26.8-10.49c9.47-2.68,15.93-2.88,17.71.72,3.17,6.4,3.42,15.83,3.42,27.14v21.22c-1.15,7.19-7.92,14.42-19.59,21.55-7.09,4.33-16.19,8.25-27,11.62l-32.87,9.56-5.16-18.55,31.61-12.2L6648,6947l-32.87,16.19-24.07,52.9-27.18,1.42,15.87-35.41-20.49,10.48Zm17.54,96.2.76-20.94-4.48,1.39-5.73,20.49Z" transform="translate(-6328.68 -6714.11)"/><path class="cls-2" d="M6518.6,7115.49l39.38,2.14,9.33-24.29,37.11,6.82-9.93,21.43c12.13.9,24.06,1.95,35.6,3.17,18.34,1.95,34.38,4.68,47.05,8.17,13.66,3.79,24,9.11,29.69,16.41,5,6.43,7.93,16.81,9.19,30.64l3.81,53.71,1.93,18.71c2.6,25.24-3.85,38.39-18.48,39.49-8.05.61-22.06-3.9-40.66-12.88-11.63-5.65-28.35-15.46-48.49-28.29l-12.5-33.07,43.87,20.58v-62.77l-1.24-19.73-60.58-10.52-30.08,72.18-26.42-20,21.61-56.49-30.62-3.45Z" transform="translate(-6328.68 -6714.11)"/><path class="cls-2" d="M6689.09,6987.28l-9.53,17.32c15-3.9,26.63-6.45,33.95-7,12.83-1,21.58,2.33,25.92,9.43,2.77,4.51,4.31,11.15,4.31,20v17.16a33.72,33.72,0,0,1-4.31,16.55,32.87,32.87,0,0,1-14.38,13.9c-9,4.57-20.65,7.12-34.32,8.3-7.54.65-18.23,1.06-31.5.94l-6.7-22,30.15-3,1.58-31.08-18.05,3.41-27.46,54-33.08-4.13,19.35-41.4-15.5,3.54,1-20.7,28.24-7.32,9.9-17.91Zm-163.95,22.1,1.41-28.63,17.58-10.44-1.68,30.37,13.63-6.67-.63,18.72-14.11,6.65-.55,67.55-19.31,1.06,2.27-59.17-8.75,4.7.41-18.54ZM6543,7042l16.28-5.12,4.65-13.95,19.11-2.48-3.92,10.81c11.31-3.29,19.16-3.7,22.8-.89s5.66,8.59,5.66,17v8.88c0,12.68-2.93,21.21-8.4,25.73q-4.56,3.77-12.91,4.66a85,85,0,0,1-16.07-.11l-3.52-13.89-4.1,14.12-17.89-2.87,7.66-27.61-9.35,3.54Zm16.28-68.68,31.15-16.84,9.66-19.4,33.94-16.69-6.81,16.21,24-13a163.16,163.16,0,0,1,26.8-10.49c9.47-2.67,15.92-2.87,17.71.73,3.17,6.39,3.42,15.83,3.42,27.14v21.22c-1.16,7.18-7.93,14.42-19.6,21.55-7.08,4.33-16.18,8.24-27,11.61l-32.87,9.56-5.16-18.54,31.62-12.2,1.26-27.4L6614.5,6963l-24.07,52.89-27.17,1.43,15.86-35.42-20.49,10.48Zm17.55,96.19.76-20.94-4.49,1.39-5.73,20.5Z" transform="translate(-6328.68 -6714.11)"/><path class="cls-2" d="M6518,7115.24l39.38,2.15,9.33-24.29,37.1,6.81-9.92,21.44c12.12.9,24.06,1.95,35.6,3.17,18.34,1.94,34.38,4.67,47,8.17,13.66,3.79,24,9.11,29.7,16.4,5,6.43,7.93,16.82,9.19,30.65l3.8,53.71,1.94,18.71c2.59,25.24-3.86,38.39-18.49,39.49-8,.61-22.06-3.9-40.66-12.89-11.62-5.65-28.35-15.46-48.49-28.28L6601,7217.4l43.86,20.58v-62.77l-1.24-19.73L6583,7145,6553,7217.14l-26.41-20,21.61-56.49-30.62-3.45Z" transform="translate(-6328.68 -6714.11)"/><path class="cls-2" d="M6688.45,6987l-9.52,17.33c15-3.91,26.62-6.45,33.95-7,12.82-1,21.57,2.34,25.92,9.43,2.77,4.52,4.31,11.15,4.31,20.05v17.15a33.83,33.83,0,0,1-4.31,16.56,33,33,0,0,1-14.39,13.9c-9,4.57-20.65,7.11-34.32,8.29-7.54.66-18.23,1.06-31.5.94l-6.69-22,30.15-3,1.58-31.08-18.06,3.42-27.46,54-33.08-4.13,19.36-41.39-15.5,3.53,1-20.69,28.24-7.33L6648,6997Zm-163.94,22.1,1.4-28.62,17.58-10.45-1.68,30.38,13.63-6.67-.63,18.72-14.1,6.65-.55,67.55-19.31,1.05,2.27-59.16-8.76,4.69.42-18.54Zm17.86,32.58,16.28-5.11,4.65-14,19.11-2.48-3.92,10.81c11.31-3.3,19.15-3.7,22.8-.9s5.66,8.59,5.66,17.05V7056c0,12.69-2.94,21.22-8.41,25.74-3,2.51-7.34,4.06-12.9,4.65a84,84,0,0,1-16.07-.1L6566,7072.4l-4.09,14.12-17.89-2.88,7.65-27.61-9.34,3.55Zm16.28-68.67,31.15-16.84,9.65-19.4,33.95-16.7-6.81,16.21,24-13a162.61,162.61,0,0,1,26.8-10.49c9.47-2.68,15.93-2.87,17.71.72,3.17,6.4,3.42,15.83,3.42,27.15v21.21c-1.15,7.19-7.92,14.43-19.59,21.55-7.09,4.33-16.19,8.25-27,11.62l-32.87,9.56-5.16-18.55,31.61-12.2,1.26-27.4-32.87,16.19-24.07,52.9-27.18,1.43,15.87-35.42L6558,6992.09Zm17.54,96.19.76-20.94-4.48,1.39-5.73,20.5Z" transform="translate(-6328.68 -6714.11)"/><path class="cls-2" d="M6517.33,7115l39.38,2.15,9.33-24.3,37.11,6.82-9.93,21.43c12.13.9,24.06,1.95,35.6,3.17,18.34,1.95,34.38,4.68,47.05,8.18,13.66,3.78,24,9.1,29.69,16.4,5,6.43,7.93,16.81,9.19,30.64l3.81,53.71,1.93,18.71c2.6,25.24-3.85,38.39-18.48,39.5-8.05.6-22.06-3.9-40.66-12.89-11.63-5.65-28.35-15.46-48.49-28.28l-12.49-33.08,43.86,20.58V7175l-1.24-19.73-60.58-10.51-30.08,72.17-26.42-20,21.61-56.5L6516.9,7137Z" transform="translate(-6328.68 -6714.11)"/><path class="cls-2" d="M6687.82,6986.79l-9.52,17.32c15-3.9,26.62-6.44,33.94-7,12.83-1,21.58,2.34,25.93,9.43,2.76,4.51,4.3,11.15,4.3,20v17.16a33.79,33.79,0,0,1-4.3,16.55,33,33,0,0,1-14.39,13.9c-9,4.58-20.65,7.12-34.32,8.3-7.54.65-18.23,1.06-31.5.94l-6.69-22,30.14-3,1.58-31.08-18.05,3.41-27.46,54-33.08-4.13,19.35-41.39-15.5,3.53,1-20.69,28.24-7.33,9.9-17.91Zm-163.95,22.1,1.41-28.62,17.58-10.45-1.68,30.37,13.63-6.67-.63,18.72-14.11,6.65-.55,67.56-19.31,1.05,2.27-59.17-8.75,4.7.42-18.54Zm17.86,32.58,16.28-5.12,4.65-13.94,19.11-2.49-3.92,10.81c11.31-3.29,19.16-3.7,22.8-.89s5.66,8.59,5.66,17v8.88c0,12.68-2.93,21.21-8.4,25.73q-4.56,3.77-12.91,4.66a85.72,85.72,0,0,1-16.07-.1l-3.52-13.9-4.1,14.12-17.89-2.87,7.66-27.61-9.35,3.54Zm16.28-68.68,31.15-16.83,9.66-19.4,33.94-16.7-6.81,16.21,24-13a163,163,0,0,1,26.8-10.48c9.47-2.68,15.92-2.88,17.71.72,3.17,6.4,3.42,15.83,3.42,27.14v21.22c-1.16,7.18-7.93,14.42-19.59,21.55-7.09,4.33-16.19,8.24-27,11.62l-32.88,9.55-5.16-18.54,31.62-12.2,1.26-27.4-32.88,16.19-24.07,52.89-27.17,1.43,15.86-35.42-20.49,10.48Zm17.55,96.19.76-20.94-4.49,1.4-5.73,20.49Z" transform="translate(-6328.68 -6714.11)"/><path class="cls-2" d="M6516.7,7114.75l39.38,2.15,9.33-24.29,37.1,6.81-9.92,21.44c12.12.9,24.06,2,35.6,3.17,18.34,1.95,34.38,4.68,47,8.17,13.66,3.79,24,9.11,29.7,16.41,5,6.43,7.93,16.81,9.19,30.64l3.8,53.71,1.94,18.71c2.59,25.24-3.86,38.39-18.49,39.49-8,.61-22.06-3.9-40.66-12.89-11.62-5.65-28.35-15.46-48.49-28.28l-12.49-33.07,43.86,20.57v-62.76l-1.24-19.74-60.58-10.51-30.08,72.17-26.41-20,21.61-56.49-30.62-3.45Z" transform="translate(-6328.68 -6714.11)"/><path class="cls-2" d="M6687.18,6986.55l-9.52,17.32c15-3.9,26.62-6.45,33.95-7,12.83-1.05,21.57,2.33,25.92,9.42,2.77,4.52,4.31,11.16,4.31,20.05v17.15a33.83,33.83,0,0,1-4.31,16.56,33,33,0,0,1-14.38,13.9c-9,4.57-20.66,7.12-34.33,8.3-7.54.65-18.23,1.06-31.5.94l-6.69-22,30.15-3,1.58-31.08-18.06,3.42-27.45,54-33.09-4.12,19.36-41.4-15.5,3.53,1-20.69,28.25-7.32,9.9-17.91Zm-163.94,22.09,1.41-28.62,17.57-10.45-1.68,30.38,13.63-6.67-.63,18.72-14.1,6.65-.55,67.55-19.31,1.05,2.27-59.16-8.76,4.7.42-18.55Zm17.86,32.58,16.28-5.11,4.65-13.95,19.11-2.48-3.92,10.81c11.31-3.3,19.15-3.7,22.8-.89s5.66,8.59,5.66,17v8.88c0,12.68-2.94,21.21-8.41,25.73-3,2.51-7.34,4.06-12.9,4.66a85,85,0,0,1-16.07-.11l-3.53-13.89-4.09,14.12-17.89-2.88,7.66-27.61-9.35,3.55Zm16.28-68.67,31.15-16.84,9.65-19.4,33.95-16.69-6.81,16.21,24-13a162.2,162.2,0,0,1,26.79-10.49c9.47-2.68,15.93-2.87,17.71.73,3.18,6.39,3.42,15.83,3.42,27.14v21.21c-1.15,7.19-7.92,14.43-19.59,21.56-7.09,4.32-16.19,8.24-27,11.61l-32.87,9.56-5.16-18.54,31.61-12.2,1.26-27.4-32.87,16.18-24.07,52.9-27.18,1.43,15.87-35.42-20.49,10.48Zm17.54,96.19.76-20.94-4.48,1.39-5.73,20.5Z" transform="translate(-6328.68 -6714.11)"/><path class="cls-2" d="M6516.06,7114.51l39.38,2.15,9.33-24.29,37.11,6.81-9.93,21.43c12.13.9,24.06,2,35.6,3.18,18.34,1.94,34.38,4.67,47.05,8.17,13.66,3.79,24,9.11,29.69,16.4,5,6.43,7.93,16.81,9.19,30.65l3.81,53.7,1.93,18.71c2.6,25.25-3.85,38.4-18.48,39.5-8.05.6-22.06-3.9-40.66-12.89-11.63-5.65-28.35-15.46-48.49-28.28l-12.49-33.08,43.86,20.58v-62.77l-1.24-19.73-60.58-10.51-30.08,72.17-26.41-20,21.6-56.5-30.62-3.44Z" transform="translate(-6328.68 -6714.11)"/><path class="cls-2" d="M6686.55,6986.3l-9.52,17.32c15-3.9,26.62-6.44,33.94-7,12.83-1,21.58,2.34,25.93,9.43,2.76,4.51,4.3,11.15,4.3,20v17.16a33.79,33.79,0,0,1-4.3,16.55,32.9,32.9,0,0,1-14.39,13.9c-9,4.58-20.65,7.12-34.32,8.3-7.54.65-18.23,1.06-31.5.94l-6.69-22,30.14-3,1.58-31.08-18.05,3.41-27.46,54-33.08-4.13,19.35-41.39-15.49,3.53,1-20.69,28.24-7.33,9.9-17.91Zm-163.95,22.1,1.41-28.62,17.58-10.45-1.68,30.37,13.63-6.66-.63,18.71-14.11,6.65-.55,67.56-19.31,1.05,2.27-59.17-8.75,4.7.42-18.54Zm17.86,32.58,16.28-5.11,4.65-13.95,19.11-2.49-3.92,10.82c11.31-3.3,19.16-3.7,22.8-.9s5.66,8.59,5.66,17v8.88c0,12.68-2.93,21.21-8.4,25.74-3,2.51-7.34,4.05-12.91,4.65a85.72,85.72,0,0,1-16.07-.1l-3.52-13.89-4.1,14.11-17.89-2.87,7.66-27.61-9.35,3.55Zm16.28-68.68,31.15-16.83,9.66-19.4,33.94-16.7-6.81,16.21,24-13a162.27,162.27,0,0,1,26.8-10.49c9.47-2.68,15.92-2.88,17.71.72,3.17,6.4,3.42,15.83,3.42,27.14v21.22c-1.16,7.19-7.92,14.42-19.59,21.55-7.09,4.33-16.19,8.25-27,11.62l-32.87,9.56-5.17-18.55,31.62-12.2,1.26-27.4L6612,6962l-24.07,52.9-27.17,1.42,15.86-35.41-20.49,10.48Zm17.55,96.2.76-20.94-4.49,1.39-5.73,20.49Z" transform="translate(-6328.68 -6714.11)"/><path class="cls-2" d="M6515.43,7114.27l39.38,2.14,9.33-24.29,37.1,6.82-9.92,21.43c12.12.9,24.06,1.95,35.6,3.17,18.34,1.95,34.38,4.68,47,8.17,13.66,3.79,24,9.11,29.7,16.41,5,6.43,7.93,16.81,9.19,30.64l3.81,53.71,1.93,18.71c2.59,25.24-3.86,38.39-18.49,39.49-8,.61-22.06-3.9-40.66-12.89-11.62-5.64-28.35-15.46-48.49-28.28l-12.49-33.07,43.86,20.58v-62.77l-1.24-19.73L6580.5,7144l-30.08,72.17-26.41-20,21.61-56.49-30.62-3.45Z" transform="translate(-6328.68 -6714.11)"/><path class="cls-2" d="M6685.92,6986.06l-9.53,17.32c15-3.9,26.62-6.45,33.95-7,12.83-1,21.57,2.33,25.92,9.43,2.77,4.51,4.31,11.15,4.31,20V7043a33.72,33.72,0,0,1-4.31,16.55,32.93,32.93,0,0,1-14.38,13.9c-9.05,4.57-20.66,7.12-34.33,8.3-7.54.65-18.23,1.06-31.5.94l-6.69-22,30.15-3,1.58-31.09L6663,7030l-27.45,54-33.08-4.13,19.35-41.4-15.5,3.54,1-20.7,28.25-7.32,9.9-17.91ZM6522,7008.15l1.41-28.62,17.57-10.45-1.68,30.38,13.63-6.67-.63,18.72-14.1,6.65-.55,67.55-19.31,1.06,2.27-59.17-8.76,4.7.42-18.55Zm17.86,32.58,16.28-5.11,4.65-13.95,19.11-2.48L6576,7030c11.31-3.3,19.15-3.7,22.8-.89s5.66,8.59,5.66,17V7055c0,12.68-2.94,21.21-8.41,25.73-3,2.51-7.34,4.06-12.9,4.66a85,85,0,0,1-16.07-.11l-3.53-13.89-4.09,14.12-17.89-2.87,7.66-27.61-9.35,3.54Zm16.28-68.67,31.15-16.84,9.65-19.4,33.95-16.69-6.81,16.21,24-13a162.2,162.2,0,0,1,26.79-10.49c9.48-2.67,15.93-2.87,17.71.73,3.18,6.39,3.42,15.83,3.42,27.14V6961c-1.15,7.18-7.92,14.42-19.59,21.55-7.09,4.33-16.19,8.24-27,11.61l-32.87,9.56-5.16-18.54,31.61-12.2,1.27-27.4-32.88,16.18-24.07,52.9-27.18,1.43,15.87-35.42-20.49,10.48Zm17.55,96.19.75-20.94-4.48,1.39-5.73,20.5Z" transform="translate(-6328.68 -6714.11)"/><path class="cls-2" d="M6514.79,7114l39.38,2.15,9.33-24.29,37.11,6.81-9.92,21.44c12.12.9,24.05,1.94,35.59,3.17,18.34,1.94,34.39,4.67,47.05,8.17,13.66,3.79,24,9.11,29.69,16.4,5,6.43,7.93,16.81,9.19,30.65l3.81,53.71,1.93,18.71c2.6,25.24-3.85,38.39-18.48,39.49-8.05.61-22.06-3.9-40.66-12.89-11.62-5.65-28.35-15.46-48.49-28.28l-12.49-33.08,43.86,20.58V7174l-1.24-19.73-60.58-10.51-30.08,72.17-26.41-20,21.6-56.49-30.62-3.45Z" transform="translate(-6328.68 -6714.11)"/><path class="cls-2" d="M6685.28,6985.81l-9.52,17.33c15-3.91,26.62-6.45,33.94-7.05,12.83-1,21.58,2.34,25.93,9.43,2.76,4.52,4.3,11.15,4.3,20v17.15a33.79,33.79,0,0,1-4.3,16.55,33,33,0,0,1-14.39,13.91c-9,4.57-20.65,7.11-34.32,8.29-7.54.65-18.23,1.06-31.5.94l-6.69-22,30.14-3,1.58-31.08-18.05,3.41-27.46,54-33.08-4.13,19.35-41.39-15.49,3.53,1-20.69,28.24-7.33,9.9-17.9Zm-163.95,22.1,1.41-28.62,17.58-10.45-1.68,30.38,13.63-6.67-.63,18.72-14.11,6.65-.55,67.55-19.3,1.05,2.26-59.16-8.75,4.69.42-18.54Zm17.87,32.58,16.27-5.11,4.65-13.95,19.12-2.48-3.93,10.81c11.31-3.3,19.16-3.7,22.8-.9s5.66,8.59,5.66,17.05v8.87c0,12.69-2.93,21.21-8.4,25.74q-4.54,3.76-12.91,4.65a84,84,0,0,1-16.07-.1l-3.52-13.89-4.1,14.12-17.88-2.88,7.65-27.61-9.34,3.55Zm16.27-68.67,31.15-16.84,9.66-19.4,33.94-16.7-6.81,16.21,24-13a162.27,162.27,0,0,1,26.8-10.49c9.47-2.68,15.93-2.88,17.71.72,3.17,6.4,3.42,15.83,3.42,27.15v21.21c-1.16,7.19-7.92,14.43-19.59,21.55-7.09,4.33-16.19,8.25-27,11.62l-32.87,9.56-5.17-18.55,31.62-12.2,1.26-27.4-32.88,16.19-24.07,52.9-27.17,1.43,15.86-35.42-20.48,10.48ZM6573,7068l.76-20.94-4.49,1.39-5.73,20.49Z" transform="translate(-6328.68 -6714.11)"/><path class="cls-2" d="M6514.16,7113.78l39.38,2.14,9.33-24.29,37.1,6.82-9.92,21.43c12.12.9,24.06,1.95,35.6,3.17,18.34,1.95,34.38,4.68,47,8.18,13.66,3.78,24,9.1,29.7,16.4,5,6.43,7.93,16.81,9.19,30.64l3.81,53.71,1.93,18.71c2.59,25.24-3.86,38.39-18.49,39.5-8,.6-22.06-3.9-40.66-12.89-11.62-5.65-28.35-15.46-48.49-28.28l-12.49-33.08,43.87,20.58v-62.77l-1.25-19.73-60.57-10.51-30.09,72.17-26.41-20,21.61-56.5-30.62-3.45Z" transform="translate(-6328.68 -6714.11)"/><path class="cls-2" d="M6684.65,6985.57l-9.53,17.32c15-3.9,26.62-6.44,33.95-7,12.83-1,21.57,2.34,25.92,9.43,2.77,4.51,4.31,11.15,4.31,20v17.16A33.69,33.69,0,0,1,6735,7059a32.93,32.93,0,0,1-14.38,13.9c-9,4.58-20.66,7.12-34.33,8.3-7.53.65-18.22,1.06-31.5.94l-6.69-22,30.15-3,1.58-31.08-18.06,3.41-27.45,54-33.08-4.13,19.35-41.4-15.5,3.54,1-20.69,28.25-7.33,9.9-17.91Zm-163.95,22.1,1.41-28.63,17.57-10.44L6538,6999l13.63-6.67L6551,7011l-14.1,6.65-.55,67.55-19.31,1.06,2.27-59.17-8.76,4.7.42-18.54Zm17.86,32.58,16.28-5.12,4.65-13.95,19.11-2.48-3.92,10.81c11.31-3.29,19.15-3.7,22.8-.89s5.66,8.59,5.66,17v8.88c0,12.68-2.94,21.21-8.4,25.73q-4.56,3.76-12.91,4.66a85.72,85.72,0,0,1-16.07-.1l-3.53-13.9-4.09,14.12-17.89-2.87,7.66-27.61-9.35,3.54Zm16.28-68.68,31.15-16.83,9.65-19.4,33.95-16.7-6.81,16.21,24-13a163,163,0,0,1,26.79-10.48c9.48-2.68,15.93-2.88,17.71.72,3.18,6.39,3.42,15.83,3.42,27.14v21.22c-1.15,7.18-7.92,14.42-19.59,21.55-7.09,4.33-16.18,8.24-27,11.61l-32.87,9.56-5.16-18.54,31.61-12.2,1.27-27.4-32.88,16.19L6586,7014.13l-27.18,1.43,15.87-35.42-20.49,10.48Zm17.55,96.19.76-20.94-4.49,1.4-5.73,20.49Z" transform="translate(-6328.68 -6714.11)"/><path class="cls-2" d="M6513.52,7113.53l39.38,2.15,9.33-24.29,37.11,6.81-9.92,21.44c12.12.9,24.05,1.95,35.59,3.17,18.34,1.94,34.39,4.68,47.05,8.17,13.66,3.79,24,9.11,29.69,16.41,5,6.43,7.93,16.81,9.2,30.64l3.8,53.71,1.93,18.71c2.6,25.24-3.85,38.39-18.48,39.49-8,.61-22.06-3.9-40.66-12.89-11.62-5.65-28.35-15.46-48.49-28.28l-12.49-33.07,43.86,20.57V7173.5l-1.24-19.73-60.58-10.51-30.08,72.17-26.41-20,21.61-56.49-30.63-3.45Z" transform="translate(-6328.68 -6714.11)"/><path class="cls-2" d="M6684,6985.33l-9.52,17.32c15-3.9,26.62-6.45,33.95-7,12.82-1,21.57,2.33,25.92,9.42,2.77,4.52,4.31,11.16,4.31,20.05v17.15a33.83,33.83,0,0,1-4.31,16.56,33,33,0,0,1-14.39,13.9c-9,4.57-20.65,7.12-34.32,8.3-7.54.65-18.23,1.06-31.5.94l-6.69-22,30.14-3,1.58-31.08-18.05,3.42-27.46,54-33.08-4.12,19.35-41.4-15.49,3.53,1-20.69,28.24-7.33,9.9-17.9Zm-163.95,22.09,1.41-28.62,17.58-10.45-1.68,30.38,13.63-6.67-.63,18.72-14.11,6.65-.55,67.55-19.3,1.05,2.26-59.16-8.75,4.7.42-18.55Zm17.87,32.58,16.27-5.11,4.65-14,19.12-2.48-3.93,10.81c11.31-3.3,19.16-3.7,22.8-.89s5.67,8.58,5.67,17v8.88c0,12.68-2.94,21.21-8.41,25.73-3,2.51-7.34,4.06-12.9,4.66a85.08,85.08,0,0,1-16.08-.11l-3.52-13.89-4.09,14.12-17.89-2.88,7.65-27.61-9.34,3.55Zm16.27-68.67,31.15-16.84,9.66-19.4L6629,6918.4l-6.8,16.21,24-13a162.27,162.27,0,0,1,26.8-10.49c9.47-2.68,15.93-2.87,17.71.72,3.17,6.4,3.42,15.84,3.42,27.15v21.21c-1.16,7.19-7.92,14.43-19.59,21.56-7.09,4.32-16.19,8.24-27,11.61l-32.87,9.56-5.17-18.54,31.62-12.2,1.26-27.4L6609.42,6961l-24.07,52.9-27.17,1.43L6574,6979.9l-20.48,10.48Zm17.55,96.19.76-20.94L6568,7048l-5.73,20.5Z" transform="translate(-6328.68 -6714.11)"/><path class="cls-2" d="M6512.89,7113.29l39.38,2.15,9.33-24.29,37.1,6.81-9.92,21.43c12.12.9,24.06,1.95,35.6,3.18,18.34,1.94,34.38,4.67,47.05,8.17,13.66,3.78,24,9.11,29.69,16.4,5,6.43,7.93,16.81,9.19,30.65l3.81,53.7,1.93,18.71c2.6,25.25-3.85,38.39-18.48,39.5-8,.6-22.07-3.9-40.67-12.89-11.62-5.65-28.35-15.46-48.49-28.28l-12.49-33.08,43.87,20.58v-62.77l-1.25-19.73L6578,7143l-30.09,72.17-26.41-20,21.61-56.5-30.62-3.45Z" transform="translate(-6328.68 -6714.11)"/><path class="cls-2" d="M6683.38,6985.08l-9.53,17.32c15-3.9,26.62-6.44,33.95-7,12.83-1,21.57,2.34,25.92,9.43,2.77,4.51,4.31,11.15,4.31,20V7042a33.69,33.69,0,0,1-4.31,16.55,32.93,32.93,0,0,1-14.38,13.9c-9,4.58-20.66,7.12-34.32,8.3-7.54.65-18.23,1.06-31.51.94l-6.69-22,30.15-3,1.58-31.08-18.06,3.41L6633,7083l-33.08-4.13,19.35-41.39-15.5,3.53,1-20.69L6633,7013l9.9-17.91Zm-163.95,22.1,1.41-28.62,17.57-10.45-1.68,30.37,13.63-6.66-.63,18.71-14.1,6.65-.55,67.56-19.31,1.05,2.27-59.17-8.76,4.7.42-18.54Zm17.86,32.58,16.28-5.11,4.65-13.95,19.11-2.49-3.92,10.82c11.31-3.3,19.15-3.7,22.8-.9s5.66,8.59,5.66,17v8.88c0,12.68-2.94,21.21-8.4,25.74-3,2.51-7.35,4.05-12.91,4.65a85.72,85.72,0,0,1-16.07-.1l-3.53-13.89-4.09,14.11-17.89-2.87,7.66-27.61-9.35,3.54Zm16.28-68.68,31.15-16.83,9.65-19.4,33.95-16.7-6.81,16.21,24-13a162.2,162.2,0,0,1,26.79-10.49c9.48-2.68,15.93-2.88,17.72.72,3.17,6.4,3.41,15.83,3.41,27.14V6960c-1.15,7.19-7.92,14.42-19.59,21.55-7.09,4.33-16.18,8.25-27,11.62L6614,7002.7l-5.16-18.54,31.61-12.2,1.27-27.4-32.88,16.19-24.07,52.89-27.18,1.43,15.87-35.42-20.49,10.49Zm17.55,96.2.76-20.94-4.49,1.39-5.73,20.49Z" transform="translate(-6328.68 -6714.11)"/><path class="cls-2" d="M6512.25,7113.05l39.39,2.14,9.32-24.29,37.11,6.82-9.92,21.43c12.12.9,24.05,2,35.59,3.17,18.34,2,34.39,4.68,47.05,8.17,13.66,3.79,24,9.11,29.69,16.41,5,6.43,7.93,16.81,9.2,30.64l3.8,53.71,1.93,18.71c2.6,25.24-3.85,38.39-18.48,39.49-8,.61-22.06-3.9-40.66-12.89-11.62-5.64-28.35-15.46-48.49-28.28l-12.49-33.07,43.86,20.58V7173l-1.24-19.73-60.58-10.52-30.08,72.17-26.41-20,21.61-56.49-30.63-3.45Z" transform="translate(-6328.68 -6714.11)"/><path class="cls-2" d="M6682.74,6984.84l-9.52,17.32c15-3.9,26.62-6.45,33.95-7,12.82-1,21.57,2.33,25.92,9.43,2.77,4.51,4.31,11.15,4.31,20v17.15a33.83,33.83,0,0,1-4.31,16.56,33,33,0,0,1-14.39,13.9c-9,4.57-20.65,7.12-34.32,8.3-7.54.65-18.23,1.06-31.5.94l-6.69-22,30.14-3,1.58-31.09-18.05,3.42-27.46,54-33.08-4.13,19.36-41.4-15.5,3.54,1-20.7,28.24-7.32,9.9-17.91Zm-163.95,22.09,1.41-28.62,17.58-10.45-1.68,30.38,13.63-6.67-.63,18.72-14.11,6.65-.54,67.55-19.31,1.06,2.27-59.17-8.76,4.7.42-18.55Zm17.87,32.58,16.28-5.11,4.64-13.95,19.12-2.48-3.92,10.81c11.3-3.3,19.15-3.7,22.79-.89s5.67,8.59,5.67,17v8.88c0,12.68-2.94,21.21-8.41,25.73-3,2.51-7.34,4.06-12.9,4.66a85.08,85.08,0,0,1-16.08-.11l-3.52-13.89-4.09,14.12-17.89-2.87,7.65-27.62-9.34,3.55Zm16.28-68.67,31.14-16.84,9.66-19.4,33.94-16.69-6.8,16.21,24-13a162.27,162.27,0,0,1,26.8-10.49c9.47-2.67,15.93-2.87,17.71.73,3.17,6.39,3.42,15.83,3.42,27.14v21.22c-1.16,7.18-7.92,14.42-19.59,21.55-7.09,4.33-16.19,8.24-27,11.61l-32.87,9.56-5.17-18.54,31.62-12.2,1.26-27.4-32.88,16.18-24.07,52.9-27.17,1.43,15.87-35.42-20.49,10.48Zm17.54,96.19.76-20.94-4.49,1.39L6561,7068Z" transform="translate(-6328.68 -6714.11)"/><path class="cls-2" d="M6511.62,7112.8,6551,7115l9.33-24.29,37.1,6.81-9.92,21.44c12.12.9,24.06,1.94,35.6,3.17,18.34,1.94,34.38,4.67,47.05,8.17,13.66,3.79,24,9.11,29.69,16.4,5,6.43,7.93,16.81,9.19,30.65l3.81,53.71,1.93,18.71c2.6,25.24-3.85,38.39-18.48,39.49-8.05.6-22.07-3.9-40.66-12.89-11.63-5.65-28.35-15.46-48.5-28.28L6594.65,7215l43.87,20.58v-62.77l-1.25-19.73-60.57-10.51-30.09,72.17-26.41-20,21.61-56.5-30.62-3.44Z" transform="translate(-6328.68 -6714.11)"/><path class="cls-2" d="M6682.11,6984.59l-9.53,17.32c15-3.9,26.62-6.44,33.95-7,12.83-1,21.57,2.34,25.92,9.43,2.77,4.52,4.31,11.15,4.31,20v17.16a33.69,33.69,0,0,1-4.31,16.55,32.87,32.87,0,0,1-14.38,13.9c-9,4.58-20.66,7.12-34.32,8.3-7.54.65-18.23,1.06-31.51.94l-6.69-22,30.15-3,1.58-31.08-18.06,3.41-27.45,54-33.08-4.13L6618,7037l-15.5,3.53,1-20.69,28.25-7.33,9.9-17.9Zm-163.95,22.1,1.41-28.62,17.58-10.45-1.69,30.37,13.63-6.66-.63,18.72-14.1,6.65-.55,67.55-19.31,1.05,2.27-59.17-8.75,4.7.41-18.54Zm17.86,32.58,16.28-5.11,4.65-13.95,19.11-2.48-3.92,10.81c11.31-3.3,19.15-3.7,22.8-.9s5.66,8.59,5.66,17v8.88c0,12.69-2.94,21.21-8.4,25.74q-4.56,3.77-12.91,4.65a84.87,84.87,0,0,1-16.07-.1l-3.53-13.89-4.09,14.12-17.89-2.88,7.66-27.61-9.35,3.55Zm16.28-68.67,31.15-16.84,9.65-19.4,33.95-16.7-6.81,16.21,24-13a162.27,162.27,0,0,1,26.8-10.49c9.47-2.68,15.92-2.88,17.71.72,3.17,6.4,3.42,15.83,3.42,27.14v21.22c-1.16,7.19-7.93,14.43-19.6,21.55-7.09,4.33-16.18,8.25-27,11.62l-32.87,9.56-5.16-18.55,31.61-12.2,1.27-27.4-32.88,16.19-24.07,52.9-27.18,1.43,15.87-35.42-20.49,10.48Zm17.55,96.19.76-20.94-4.49,1.39-5.73,20.49Z" transform="translate(-6328.68 -6714.11)"/><path class="cls-2" d="M6511,7112.56l39.39,2.14,9.32-24.29,37.11,6.82-9.92,21.43c12.12.9,24.05,1.95,35.6,3.17,18.33,1.95,34.38,4.68,47,8.17,13.66,3.79,24,9.11,29.69,16.41,5,6.43,7.93,16.81,9.2,30.64l3.8,53.71,1.93,18.71c2.6,25.24-3.85,38.39-18.48,39.49-8,.61-22.06-3.9-40.66-12.88-11.62-5.65-28.35-15.46-48.49-28.28L6594,7214.72l43.86,20.58v-62.77l-1.24-19.73-60.58-10.51L6546,7214.46l-26.41-20,21.61-56.5-30.63-3.45Z" transform="translate(-6328.68 -6714.11)"/><path class="cls-2" d="M6681.47,6984.35l-9.52,17.32c15-3.9,26.62-6.45,33.95-7,12.82-1,21.57,2.34,25.92,9.43,2.77,4.51,4.31,11.15,4.31,20v17.16a33.79,33.79,0,0,1-4.31,16.55,33,33,0,0,1-14.39,13.9c-9,4.58-20.65,7.12-34.32,8.3-7.54.65-18.23,1.06-31.5.94l-6.69-22,30.15-3,1.57-31.08-18.05,3.41-27.46,54-33.08-4.13,19.36-41.4-15.5,3.54,1-20.7,28.24-7.32,9.91-17.91Zm-163.95,22.1,1.41-28.63,17.58-10.44-1.68,30.37,13.63-6.67-.63,18.72-14.11,6.65-.54,67.55-19.31,1.06,2.27-59.17-8.76,4.7.42-18.54Zm17.87,32.58,16.28-5.12,4.64-13.95,19.12-2.48-3.92,10.81c11.3-3.29,19.15-3.7,22.79-.89s5.67,8.59,5.67,17v8.88c0,12.68-2.94,21.21-8.41,25.73-3,2.51-7.34,4.06-12.9,4.66a85,85,0,0,1-16.07-.11l-3.53-13.89-4.09,14.12-17.89-2.87,7.65-27.61-9.34,3.54Zm16.28-68.68,31.14-16.83,9.66-19.4,33.94-16.7-6.8,16.21,24-13a163,163,0,0,1,26.8-10.48c9.47-2.68,15.93-2.88,17.71.72,3.17,6.39,3.42,15.83,3.42,27.14v21.22c-1.15,7.18-7.92,14.42-19.59,21.55-7.09,4.33-16.19,8.24-27,11.61l-32.87,9.56-5.16-18.54,31.61-12.2,1.26-27.4L6606.89,6960l-24.08,52.89-27.17,1.43,15.87-35.42L6551,6989.4Zm17.54,96.19.76-20.94-4.49,1.4-5.72,20.49Z" transform="translate(-6328.68 -6714.11)"/><path class="cls-2" d="M6510.35,7112.31l39.38,2.15,9.33-24.29,37.11,6.81-9.93,21.44c12.12.9,24.06,1.95,35.6,3.17,18.34,1.94,34.38,4.67,47.05,8.17,13.66,3.79,24,9.11,29.69,16.4,5,6.44,7.93,16.82,9.19,30.65l3.81,53.71,1.93,18.71c2.6,25.24-3.85,38.39-18.48,39.49-8.05.61-22.07-3.9-40.66-12.89-11.63-5.65-28.35-15.46-48.49-28.28l-12.5-33.07,43.87,20.57v-62.77l-1.25-19.73L6575.43,7142l-30.08,72.17-26.42-20,21.61-56.49-30.62-3.45Z" transform="translate(-6328.68 -6714.11)"/><path class="cls-2" d="M6680.84,6984.1l-9.53,17.33c15-3.9,26.62-6.45,33.95-7,12.83-1.05,21.57,2.33,25.92,9.42,2.77,4.52,4.31,11.16,4.31,20V7041a33.73,33.73,0,0,1-4.31,16.56,33,33,0,0,1-14.38,13.9c-9,4.57-20.66,7.12-34.32,8.3-7.54.65-18.23,1.06-31.51.93l-6.69-22,30.15-3,1.58-31.08L6658,7028l-27.46,54-33.08-4.13,19.35-41.39-15.5,3.53,1-20.69,28.25-7.33,9.9-17.9Zm-163.95,22.1,1.41-28.62,17.58-10.45-1.69,30.38,13.64-6.67-.63,18.72-14.11,6.65-.55,67.55-19.31,1.05,2.27-59.16-8.75,4.7.41-18.55Zm17.86,32.58,16.28-5.11,4.65-13.95,19.11-2.48-3.92,10.81c11.31-3.3,19.16-3.7,22.8-.89s5.66,8.58,5.66,17v8.87c0,12.69-2.94,21.22-8.4,25.74q-4.56,3.76-12.91,4.66a85,85,0,0,1-16.07-.11l-3.53-13.89-4.09,14.12-17.89-2.88,7.66-27.61-9.35,3.55Zm16.28-68.67,31.15-16.84,9.65-19.4,33.95-16.69-6.81,16.21,24-13a162.27,162.27,0,0,1,26.8-10.49c9.47-2.68,15.92-2.87,17.71.72,3.17,6.4,3.42,15.84,3.42,27.15V6959c-1.16,7.19-7.93,14.43-19.6,21.55-7.08,4.33-16.18,8.25-27,11.62l-32.87,9.56-5.16-18.55,31.61-12.2,1.27-27.4-32.88,16.19-24.07,52.9L6555,7014.1l15.87-35.42-20.49,10.48Zm17.55,96.19.76-20.94-4.49,1.39-5.73,20.5Z" transform="translate(-6328.68 -6714.11)"/><path class="cls-2" d="M6509.72,7112.07l39.38,2.15,9.32-24.29,37.11,6.81-9.92,21.43c12.12.9,24.06,1.95,35.6,3.18,18.33,1.94,34.38,4.67,47,8.17,13.66,3.78,24,9.1,29.69,16.4,5,6.43,7.94,16.81,9.2,30.65l3.8,53.7,1.94,18.71c2.59,25.25-3.86,38.39-18.49,39.5-8,.6-22.06-3.9-40.66-12.89-11.62-5.65-28.35-15.46-48.49-28.28l-12.49-33.08,43.86,20.58V7172l-1.24-19.73-60.58-10.51L6544.71,7214l-26.41-20,21.61-56.5-30.63-3.45Z" transform="translate(-6328.68 -6714.11)"/><path class="cls-2" d="M6680.2,6983.86l-9.52,17.32c15-3.9,26.62-6.44,33.95-7,12.82-1,21.57,2.34,25.92,9.43,2.77,4.51,4.31,11.15,4.31,20v17.16a33.79,33.79,0,0,1-4.31,16.55,33,33,0,0,1-14.39,13.9c-9,4.58-20.65,7.12-34.32,8.3-7.54.65-18.23,1.06-31.5.94l-6.69-22,30.15-3,1.58-31.08-18.06,3.41-27.46,54-33.08-4.13,19.36-41.39-15.5,3.53,1-20.69,28.24-7.33,9.91-17.91ZM6516.25,7006l1.41-28.62,17.58-10.45-1.68,30.37,13.63-6.66-.63,18.71-14.11,6.65-.54,67.56-19.31,1,2.27-59.17-8.76,4.7.42-18.54Zm17.87,32.58,16.28-5.11,4.65-14,19.11-2.49-3.92,10.81c11.31-3.29,19.15-3.69,22.8-.89s5.66,8.59,5.66,17v8.88c0,12.68-2.94,21.21-8.41,25.74-3,2.51-7.34,4.05-12.9,4.65a85.72,85.72,0,0,1-16.07-.1l-3.53-13.89-4.09,14.11-17.89-2.87,7.65-27.61-9.34,3.54Zm16.28-68.68,31.15-16.83,9.65-19.4,33.95-16.7-6.81,16.21,24-13a162.61,162.61,0,0,1,26.8-10.49c9.47-2.68,15.93-2.88,17.71.72,3.17,6.4,3.42,15.83,3.42,27.14v21.22c-1.15,7.19-7.92,14.42-19.59,21.55-7.09,4.33-16.19,8.24-27,11.62l-32.87,9.55-5.16-18.54,31.61-12.2,1.26-27.4-32.87,16.19-24.07,52.89-27.18,1.43,15.87-35.42-20.49,10.49Zm17.54,96.2.76-20.94-4.48,1.39-5.73,20.49Z" transform="translate(-6328.68 -6714.11)"/><path class="cls-2" d="M6509.08,7111.82l39.38,2.15,9.33-24.29,37.11,6.82-9.93,21.43c12.13.9,24.06,1.95,35.6,3.17,18.34,1.95,34.38,4.68,47.05,8.17,13.66,3.79,24,9.11,29.69,16.41,5,6.43,7.93,16.81,9.19,30.64l3.81,53.71,1.93,18.71c2.6,25.24-3.85,38.39-18.48,39.49-8.05.61-22.06-3.9-40.66-12.89-11.63-5.64-28.35-15.46-48.49-28.28l-12.5-33.07,43.87,20.57V7171.8l-1.24-19.74-60.58-10.51-30.08,72.17-26.42-20,21.61-56.49-30.62-3.45Z" transform="translate(-6328.68 -6714.11)"/><path class="cls-2" d="M6679.57,6983.62l-9.53,17.32c15-3.9,26.62-6.45,33.95-7,12.83-1,21.58,2.33,25.92,9.43,2.77,4.51,4.31,11.15,4.31,20v17.15a33.73,33.73,0,0,1-4.31,16.56,33,33,0,0,1-14.38,13.9c-9,4.57-20.66,7.12-34.32,8.3-7.54.65-18.23,1.06-31.5.94l-6.7-22,30.15-3,1.58-31.08-18.05,3.42-27.46,54-33.08-4.12,19.35-41.4-15.5,3.54,1-20.7,28.25-7.32,9.9-17.91Zm-163.95,22.09,1.41-28.62,17.58-10.45-1.68,30.38,13.63-6.67-.63,18.72-14.11,6.65-.55,67.55-19.31,1.06,2.27-59.17-8.75,4.7.41-18.55Zm17.86,32.58,16.28-5.11,4.65-14,19.11-2.48-3.92,10.81c11.31-3.3,19.16-3.7,22.8-.89s5.66,8.59,5.66,17v8.88c0,12.68-2.93,21.21-8.4,25.73q-4.56,3.77-12.91,4.66a85,85,0,0,1-16.07-.11l-3.52-13.89-4.1,14.12-17.89-2.87,7.66-27.62-9.35,3.55Zm16.28-68.67,31.15-16.84,9.66-19.4,33.94-16.69-6.81,16.21,24-13a162.27,162.27,0,0,1,26.8-10.49c9.47-2.67,15.92-2.87,17.71.73,3.17,6.39,3.42,15.83,3.42,27.14v21.21c-1.16,7.19-7.93,14.43-19.6,21.56-7.08,4.33-16.18,8.24-27,11.61l-32.87,9.56L6605,6982.7l31.62-12.2,1.26-27.4L6605,6959.28l-24.07,52.9-27.18,1.43,15.87-35.42-20.49,10.48Zm17.55,96.19.76-20.94-4.49,1.39-5.73,20.5Z" transform="translate(-6328.68 -6714.11)"/><path class="cls-2" d="M6508.45,7111.58l39.38,2.15,9.33-24.29,37.1,6.81-9.92,21.43c12.12.9,24.06,1.95,35.6,3.18,18.33,1.94,34.38,4.67,47,8.17,13.66,3.79,24,9.11,29.7,16.4,5,6.43,7.93,16.81,9.19,30.65l3.8,53.7,1.94,18.71c2.59,25.25-3.86,38.4-18.49,39.5-8,.6-22.06-3.9-40.66-12.89-11.62-5.65-28.35-15.46-48.49-28.28l-12.49-33.08,43.86,20.58v-62.77l-1.24-19.73-60.58-10.51-30.08,72.17-26.41-20,21.61-56.5-30.62-3.44Z" transform="translate(-6328.68 -6714.11)"/><path class="cls-2" d="M6678.93,6983.37l-9.52,17.32c15-3.9,26.62-6.44,33.95-7,12.82-1,21.57,2.34,25.92,9.43,2.77,4.52,4.31,11.15,4.31,20v17.16a33.79,33.79,0,0,1-4.31,16.55,32.9,32.9,0,0,1-14.39,13.9c-9,4.58-20.65,7.12-34.32,8.3-7.54.65-18.23,1.06-31.5.94l-6.69-22,30.15-3,1.58-31.08-18.06,3.41-27.46,54-33.08-4.13,19.36-41.39-15.5,3.53,1-20.69,28.24-7.33,9.91-17.9ZM6515,7005.47l1.4-28.62L6534,6966.4l-1.68,30.37,13.63-6.66-.63,18.72-14.1,6.64-.55,67.56-19.31,1.05,2.27-59.17-8.76,4.7.42-18.54Zm17.86,32.58,16.28-5.11,4.65-13.95,19.11-2.48-3.92,10.81c11.31-3.3,19.15-3.7,22.8-.9s5.66,8.59,5.66,17v8.88c0,12.69-2.94,21.21-8.41,25.74-3,2.51-7.34,4.06-12.9,4.65a85.72,85.72,0,0,1-16.07-.1l-3.53-13.89-4.09,14.12-17.89-2.88,7.65-27.61-9.34,3.55Zm16.28-68.68,31.15-16.83,9.65-19.4,33.95-16.7-6.81,16.21,24-13a162.61,162.61,0,0,1,26.8-10.49c9.47-2.68,15.93-2.88,17.71.72,3.17,6.4,3.42,15.83,3.42,27.14v21.22c-1.15,7.19-7.92,14.42-19.59,21.55-7.09,4.33-16.19,8.25-27,11.62l-32.87,9.56-5.16-18.55,31.61-12.2,1.26-27.4L6604.35,6959l-24.07,52.9-27.18,1.42L6569,6978l-20.49,10.48Zm17.54,96.2.76-20.94L6563,7046l-5.73,20.49Z" transform="translate(-6328.68 -6714.11)"/><path class="cls-2" d="M6507.81,7111.34l39.38,2.14,9.33-24.29,37.11,6.82-9.93,21.43c12.13.9,24.06,2,35.6,3.17,18.34,2,34.38,4.68,47.05,8.17,13.66,3.79,24,9.11,29.69,16.41,5,6.43,7.93,16.81,9.19,30.64l3.81,53.71,1.93,18.71c2.6,25.24-3.85,38.39-18.48,39.49-8.05.61-22.06-3.9-40.66-12.88-11.63-5.65-28.35-15.46-48.49-28.29l-12.49-33.07,43.86,20.58v-62.77l-1.24-19.73-60.58-10.52-30.08,72.18-26.42-20,21.61-56.49-30.62-3.45Z" transform="translate(-6328.68 -6714.11)"/><path class="cls-2" d="M6678.3,6983.13l-9.53,17.32c15-3.9,26.63-6.45,33.95-7,12.83-1,21.58,2.33,25.93,9.43,2.76,4.51,4.3,11.15,4.3,20V7040a33.82,33.82,0,0,1-4.3,16.55,33,33,0,0,1-14.39,13.9c-9,4.58-20.65,7.12-34.32,8.3-7.54.65-18.23,1.06-31.5.94l-6.7-22,30.15-3,1.58-31.08-18.05,3.41-27.46,54-33.08-4.13,19.35-41.4-15.5,3.54,1-20.7L6628,7011l9.9-17.91Zm-163.95,22.1,1.41-28.63,17.58-10.44-1.68,30.37,13.63-6.67-.63,18.72-14.11,6.65-.55,67.55-19.31,1.06,2.27-59.17-8.75,4.7.42-18.54Zm17.86,32.58,16.28-5.12,4.65-13.95,19.11-2.48-3.92,10.81c11.31-3.29,19.16-3.7,22.8-.89s5.66,8.59,5.66,17v8.88c0,12.68-2.93,21.21-8.4,25.73q-4.56,3.77-12.91,4.66a85,85,0,0,1-16.07-.11l-3.52-13.89-4.1,14.12-17.89-2.87,7.66-27.61-9.35,3.54Zm16.28-68.68,31.15-16.84,9.66-19.4,33.94-16.69-6.81,16.21,24-13a163.16,163.16,0,0,1,26.8-10.49c9.47-2.67,15.92-2.87,17.71.73,3.17,6.39,3.42,15.83,3.42,27.14V6958c-1.16,7.18-7.93,14.42-19.6,21.55-7.08,4.33-16.18,8.24-27,11.61l-32.87,9.56-5.16-18.54,31.62-12.2,1.26-27.4-32.88,16.19-24.07,52.89-27.17,1.43,15.86-35.42-20.49,10.48Zm17.55,96.19.76-20.94-4.49,1.39-5.73,20.5Z" transform="translate(-6328.68 -6714.11)"/><path class="cls-2" d="M6507.18,7111.09l39.38,2.15,9.33-24.29,37.1,6.81-9.92,21.44c12.12.9,24.06,1.95,35.6,3.17,18.34,1.94,34.38,4.67,47,8.17,13.66,3.79,24,9.11,29.7,16.4,5,6.44,7.93,16.82,9.19,30.65l3.8,53.71,1.94,18.71c2.59,25.24-3.86,38.39-18.49,39.49-8,.61-22.06-3.9-40.66-12.89-11.62-5.65-28.35-15.46-48.49-28.28l-12.49-33.08,43.86,20.58v-62.77l-1.24-19.73-60.58-10.51L6542.17,7213l-26.41-20,21.61-56.49-30.62-3.45Z" transform="translate(-6328.68 -6714.11)"/><path class="cls-2" d="M6677.66,6982.88l-9.52,17.33c15-3.9,26.63-6.33,33.95-7.05,12.84-.83,21.7,2.26,25.92,9.43,2.85,4.47,4.31,11.16,4.31,20.05v17.15a31.21,31.21,0,0,1-4.31,16.56c-2.84,5.84-7.68,10.48-14.39,13.9-9,4.57-20.63,7.31-34.32,8.29a309.42,309.42,0,0,1-31.5.94l-6.69-22,30.15-3,1.58-31.08-18.06,3.42-27.45,54-33.09-4.13,19.36-41.39-15.5,3.53,1-20.69,28.25-7.33,9.9-17.9ZM6513.72,7005l1.4-28.62,17.58-10.45-1.68,30.38,13.63-6.67-.63,18.72-14.1,6.65-.55,67.55-19.31,1.05,2.27-59.16-8.76,4.69.42-18.54Zm17.86,32.58,16.28-5.11,4.65-13.95,19.11-2.48-3.92,10.81c11.31-3.3,19.15-3.7,22.8-.9s5.66,8.59,5.66,17v8.87c0,12.69-2.86,21.31-8.41,25.74-3,2.56-7.33,4.1-12.9,4.65a81.64,81.64,0,0,1-16.07-.1l-3.53-13.89-4.09,14.12-17.89-2.88,7.65-27.61-9.34,3.55Zm16.28-68.67,31.15-16.84,9.65-19.4,33.95-16.7-6.81,16.21,24-13a153.16,153.16,0,0,1,26.79-10.49c9.44-2.8,15.45-2.6,17.71.72q3.4,10.15,3.42,27.15v21.21c-1.15,7.19-7.89,14.48-19.59,21.55-7.07,4.37-16.19,8.25-27,11.62l-32.87,9.56-5.16-18.55,31.61-12.2,1.26-27.4-32.87,16.19-24.07,52.9-27.18,1.43,15.87-35.42-20.49,10.48Zm17.54,96.19.76-20.94-4.48,1.39L6556,7066Z" transform="translate(-6328.68 -6714.11)"/><path class="cls-2" d="M6506.54,7110.85l39.38,2.15,9.33-24.3,37.11,6.82-9.93,21.43c12.13.9,24.06,1.95,35.6,3.17,18.34,1.95,34.38,4.68,47.05,8.18,13.66,3.78,23.79,9.27,29.69,16.4,4.83,6.57,7.93,16.81,9.19,30.64l3.81,53.71,1.93,18.71c2.6,25.24-3.84,38.52-18.48,39.5-8,.67-22.06-3.9-40.66-12.89-11.63-5.65-28.35-15.46-48.49-28.28L6589.58,7213l43.86,20.58v-62.77l-1.24-19.73-60.58-10.51-30.08,72.17-26.42-20,21.61-56.5-30.62-3.45Z" transform="translate(-6328.68 -6714.11)"/><path class="cls-3" d="M6513.72,7005l1.4-28.62,17.58-10.45-1.68,30.38,13.63-6.67-.63,18.72-14.1,6.65-.55,67.55-19.31,1.05,2.27-59.16-8.76,4.69.42-18.54Zm17.86,32.58,16.28-5.11,4.65-13.95,19.11-2.48-3.92,10.81c11.31-3.3,19.15-3.7,22.8-.9s5.66,8.59,5.66,17v8.87c0,12.69-2.86,21.31-8.41,25.74-3,2.56-7.33,4.1-12.9,4.65a81.64,81.64,0,0,1-16.07-.1l-3.53-13.89-4.09,14.12-17.89-2.88,7.65-27.61-9.34,3.55Zm16.28-68.67,31.15-16.84,9.65-19.4,33.95-16.7-6.81,16.21,24-13a153.16,153.16,0,0,1,26.79-10.49c9.44-2.8,15.45-2.6,17.71.72q3.4,10.15,3.42,27.15v21.21c-1.15,7.19-7.89,14.48-19.59,21.55-7.07,4.37-16.19,8.25-27,11.62l-32.87,9.56-5.16-18.55,31.61-12.2,1.26-27.4-32.87,16.19-24.07,52.9-27.18,1.43,15.87-35.42-20.49,10.48Zm17.54,96.19.76-20.94-4.48,1.39L6556,7066Zm112.26-82.2-9.52,17.33c15-3.9,26.63-6.33,33.95-7.05,12.84-.83,21.7,2.26,25.92,9.43,2.85,4.47,4.31,11.16,4.31,20.05v17.15a31.21,31.21,0,0,1-4.31,16.56c-2.84,5.84-7.68,10.48-14.39,13.9-9,4.57-20.63,7.31-34.32,8.29a309.42,309.42,0,0,1-31.5.94l-6.69-22,30.15-3,1.58-31.08-18.06,3.42-27.45,54-33.09-4.13,19.36-41.39-15.5,3.53,1-20.69,28.25-7.33,9.9-17.9Z" transform="translate(-6328.68 -6714.11)"/><path class="cls-4" d="M6513.72,7005l1.4-28.62,17.58-10.45-1.68,30.38,13.63-6.67-.63,18.72-14.1,6.65-.55,67.55-19.31,1.05,2.27-59.16-8.76,4.69.42-18.54Zm17.86,32.58,16.28-5.11,4.65-13.95,19.11-2.48-3.92,10.81c11.31-3.3,19.15-3.7,22.8-.9s5.66,8.59,5.66,17v8.87c0,12.69-2.86,21.31-8.41,25.74-3,2.56-7.33,4.1-12.9,4.65a81.64,81.64,0,0,1-16.07-.1l-3.53-13.89-4.09,14.12-17.89-2.88,7.65-27.61-9.34,3.55Zm16.28-68.67,31.15-16.84,9.65-19.4,33.95-16.7-6.81,16.21,24-13a153.16,153.16,0,0,1,26.79-10.49c9.44-2.8,15.45-2.6,17.71.72q3.4,10.15,3.42,27.15v21.21c-1.15,7.19-7.89,14.48-19.59,21.55-7.07,4.37-16.19,8.25-27,11.62l-32.87,9.56-5.16-18.55,31.61-12.2,1.26-27.4-32.87,16.19-24.07,52.9-27.18,1.43,15.87-35.42-20.49,10.48Zm17.54,96.19.76-20.94-4.48,1.39L6556,7066Zm112.26-82.2-9.52,17.33c15-3.9,26.63-6.33,33.95-7.05,12.84-.83,21.7,2.26,25.92,9.43,2.85,4.47,4.31,11.16,4.31,20.05v17.15a31.21,31.21,0,0,1-4.31,16.56c-2.84,5.84-7.68,10.48-14.39,13.9-9,4.57-20.63,7.31-34.32,8.29a309.42,309.42,0,0,1-31.5.94l-6.69-22,30.15-3,1.58-31.08-18.06,3.42-27.45,54-33.09-4.13,19.36-41.39-15.5,3.53,1-20.69,28.25-7.33,9.9-17.9Z" transform="translate(-6328.68 -6714.11)"/><path class="cls-3" d="M6506.54,7110.85l39.38,2.15,9.33-24.3,37.11,6.82-9.93,21.43c12.13.9,24.06,1.95,35.6,3.17,18.34,1.95,34.38,4.68,47.05,8.18,13.66,3.78,23.79,9.27,29.69,16.4,4.83,6.57,7.93,16.81,9.19,30.64l3.81,53.71,1.93,18.71c2.6,25.24-3.84,38.52-18.48,39.5-8,.67-22.06-3.9-40.66-12.89-11.63-5.65-28.35-15.46-48.49-28.28L6589.58,7213l43.86,20.58v-62.77l-1.24-19.73-60.58-10.51-30.08,72.17-26.42-20,21.61-56.5-30.62-3.45Z" transform="translate(-6328.68 -6714.11)"/><path class="cls-5" d="M6506.54,7110.85l39.38,2.15,9.33-24.3,37.11,6.82-9.93,21.43c12.13.9,24.06,1.95,35.6,3.17,18.34,1.95,34.38,4.68,47.05,8.18,13.66,3.78,23.79,9.27,29.69,16.4,4.83,6.57,7.93,16.81,9.19,30.64l3.81,53.71,1.93,18.71c2.6,25.24-3.84,38.52-18.48,39.5-8,.67-22.06-3.9-40.66-12.89-11.63-5.65-28.35-15.46-48.49-28.28L6589.58,7213l43.86,20.58v-62.77l-1.24-19.73-60.58-10.51-30.08,72.17-26.42-20,21.61-56.5-30.62-3.45Z" transform="translate(-6328.68 -6714.11)"/></g><g id="レイヤー_6" data-name="レイヤー 6"><rect class="cls-6" width="1735.96" height="972.95"/></g></svg>