<svg id="レイヤー_1" xmlns="http://www.w3.org/2000/svg" viewBox="0 0 1296 1728"><style>.st0{fill:#f9f7f7}</style><ellipse transform="rotate(-66.296 839.497 692.138)" class="st0" cx="839.4" cy="692.1" rx="16" ry="25.3"/><ellipse transform="matrix(.03563 -.9994 .9994 .03563 153.63 1499.899)" class="st0" cx="854" cy="670.3" rx="15.9" ry="28.2"/><ellipse transform="matrix(1 -.0039 .0039 1 -2.627 3.453)" class="st0" cx="884.1" cy="675.3" rx="24.4" ry="21.5"/><ellipse transform="scale(.99998) rotate(-88.22 904.242 683.654)" class="st0" cx="904.2" cy="683.6" rx="20.5" ry="30.6"/><ellipse transform="rotate(-88.243 872.942 692.293) scale(.99997)" class="st0" cx="872.9" cy="692.3" rx="18.6" ry="27.5"/><ellipse class="st0" cx="343.6" cy="679" rx="29.8" ry="18.5"/><ellipse class="st0" cx="375.8" cy="683.2" rx="25.8" ry="25"/><ellipse class="st0" cx="397.6" cy="692" rx="32.4" ry="23.8"/><ellipse class="st0" cx="329.5" cy="705" rx="27.6" ry="18.1"/><ellipse class="st0" cx="379.1" cy="705" rx="29.1" ry="21.6"/></svg>