<svg xmlns="http://www.w3.org/2000/svg" viewBox="0 0 1296 1728"><ellipse fill="#F9F7F7" cx="562.1" cy="788.3" rx="86.1" ry="76.8"/><ellipse fill="#F9F7F7" cx="741.7" cy="828.2" rx="93.5" ry="99"/><ellipse fill="#F9F7F7" cx="507.9" cy="892.9" rx="79.6" ry="73.9"/><ellipse fill="#F9F7F7" cx="640.4" cy="881.8" rx="84" ry="89.9"/><ellipse fill="#F9F7F7" cx="613.4" cy="984.1" rx="86.1" ry="76.8"/><ellipse fill="#F9F7F7" cx="775.3" cy="971.7" rx="91.2" ry="103.7"/><ellipse fill="#F9F7F7" cx="826.2" cy="1029" rx="93.5" ry="99"/><ellipse fill="#F9F7F7" cx="606.1" cy="1105.4" rx="79.6" ry="73.9"/><ellipse fill="#F9F7F7" cx="738.5" cy="1094.4" rx="84" ry="89.9"/><ellipse fill="#F9F7F7" cx="527.3" cy="1105.9" rx="86.1" ry="76.8"/><ellipse fill="#F9F7F7" cx="609.7" cy="1149" rx="74.4" ry="103.7"/><ellipse fill="#F9F7F7" cx="672.6" cy="1185.2" rx="93.5" ry="99"/><ellipse fill="#F9F7F7" cx="473.2" cy="1210.4" rx="79.6" ry="73.9"/><ellipse fill="#F9F7F7" cx="595.3" cy="1225" rx="84" ry="89.9"/><ellipse fill="#F9F7F7" cx="684.1" cy="1184.1" rx="86.1" ry="76.8"/><ellipse fill="#F9F7F7" cx="776.8" cy="1201.6" rx="74.4" ry="103.7"/><ellipse fill="#F9F7F7" cx="839.8" cy="1237.9" rx="93.5" ry="99"/><ellipse transform="rotate(-74.074 623.265 1353.691)" fill="#F9F7F7" cx="623.3" cy="1353.7" rx="73.9" ry="90.5"/><ellipse fill="#F9F7F7" cx="747.9" cy="1302.1" rx="84" ry="89.9"/><ellipse fill="#F9F7F7" cx="550.1" cy="1272.5" rx="90.5" ry="73.9"/></svg>