<svg xmlns="http://www.w3.org/2000/svg" viewBox="0 0 1735.96 980.45"><defs><style>.cls-1{fill:#ed3c24;}.cls-1,.cls-2{stroke:#fff;stroke-linejoin:round;stroke-width:3px;opacity:0.9;}.cls-2{fill:#f7931e;}.cls-3{fill:none;}</style></defs><title>fire</title><g id="レイヤー_1" data-name="レイヤー 1"><path class="cls-1" d="M6612.93,7615.73s-29-88.53,60.54-177.07c0,0,79,121.15,36.85,177.07S6612.93,7615.73,6612.93,7615.73Z" transform="translate(-6328.68 -6714.11)"/><path class="cls-2" d="M6624.12,7625.28s-17.82-54.5,37.27-109c0,0,48.62,74.59,22.69,109S6624.12,7625.28,6624.12,7625.28Z" transform="translate(-6328.68 -6714.11)"/><path class="cls-1" d="M6797.31,7663s-29-107.25,60.55-214.5c0,0,79,146.76,36.85,214.5S6797.31,7663,6797.31,7663Z" transform="translate(-6328.68 -6714.11)"/><path class="cls-2" d="M6808.51,7674.53s-17.83-66,37.27-132.05c0,0,48.62,90.35,22.69,132.05S6808.51,7674.53,6808.51,7674.53Z" transform="translate(-6328.68 -6714.11)"/><path class="cls-1" d="M7021,7657.7s-29-104.62,60.54-209.24c0,0,79,143.16,36.86,209.24S7021,7657.7,7021,7657.7Z" transform="translate(-6328.68 -6714.11)"/><path class="cls-2" d="M7032.24,7669s-17.83-64.41,37.27-128.82c0,0,48.62,88.14,22.69,128.82S7032.24,7669,7032.24,7669Z" transform="translate(-6328.68 -6714.11)"/><path class="cls-1" d="M7214.2,7652.5s-28.95-105.63,60.55-211.26c0,0,79,144.54,36.85,211.26S7214.2,7652.5,7214.2,7652.5Z" transform="translate(-6328.68 -6714.11)"/><path class="cls-2" d="M7225.4,7663.89s-17.83-65,37.27-130.05c0,0,48.62,89,22.69,130.05S7225.4,7663.89,7225.4,7663.89Z" transform="translate(-6328.68 -6714.11)"/><path class="cls-1" d="M7205.15,7633s20.75-63.46-43.4-126.92c0,0-56.6,86.84-26.42,126.92S7205.15,7633,7205.15,7633Z" transform="translate(-6328.68 -6714.11)"/><path class="cls-2" d="M7197.12,7639.83s12.78-39.07-26.72-78.14c0,0-34.84,53.46-16.26,78.14S7197.12,7639.83,7197.12,7639.83Z" transform="translate(-6328.68 -6714.11)"/><path class="cls-1" d="M6925.1,7633s-20.76-63.46,43.4-126.92c0,0,56.6,86.84,26.41,126.92S6925.1,7633,6925.1,7633Z" transform="translate(-6328.68 -6714.11)"/><path class="cls-2" d="M6933.12,7639.83s-12.77-39.07,26.72-78.14c0,0,34.85,53.46,16.26,78.14S6933.12,7639.83,6933.12,7639.83Z" transform="translate(-6328.68 -6714.11)"/><path class="cls-1" d="M6725.57,7626.86S6704.82,7563.4,6769,7500c0,0,56.6,86.83,26.42,126.91S6725.57,7626.86,6725.57,7626.86Z" transform="translate(-6328.68 -6714.11)"/><path class="cls-2" d="M6733.6,7633.71s-12.78-39.07,26.71-78.13c0,0,34.85,53.45,16.27,78.13S6733.6,7633.71,6733.6,7633.71Z" transform="translate(-6328.68 -6714.11)"/><path class="cls-1" d="M7412.82,7612.28s21.57-66-45.11-131.92c0,0-58.83,90.26-27.45,131.92S7412.82,7612.28,7412.82,7612.28Z" transform="translate(-6328.68 -6714.11)"/><path class="cls-2" d="M7404.48,7619.39s13.28-40.6-27.77-81.21c0,0-36.22,55.57-16.9,81.21S7404.48,7619.39,7404.48,7619.39Z" transform="translate(-6328.68 -6714.11)"/></g><g id="レイヤー_6" data-name="レイヤー 6"><rect class="cls-3" width="1735.96" height="972.95"/></g></svg>