<svg xmlns="http://www.w3.org/2000/svg" xmlns:xlink="http://www.w3.org/1999/xlink" viewBox="0 0 1735.96 972.95"><defs><style>.cls-1,.cls-2,.cls-3{stroke:#fff;stroke-linejoin:round;stroke-width:3px;}.cls-1{fill:url(#名称未設定グラデーション_191);}.cls-3{fill:#534741;}.cls-4{fill:none;}</style><linearGradient id="名称未設定グラデーション_191" x1="7012.2" y1="7334.86" x2="7012.2" y2="7534.87" gradientUnits="userSpaceOnUse"><stop offset="0" stop-color="#fff"/><stop offset="0.05" stop-color="#9f9f9f"/><stop offset="0.22" stop-color="#757575"/><stop offset="0.42" stop-color="#4d4d4d"/><stop offset="0.62" stop-color="#333"/><stop offset="0.83" stop-color="#1a1a1a"/><stop offset="1"/></linearGradient></defs><title>frypan</title><g id="レイヤー_1" data-name="レイヤー 1"><path class="cls-1" d="M6634.13,7334.86s15.84,124,94,162,200.75,38,242.49,38,246.5,2,320.18-38,99.47-162,99.47-162H6634.13Z" transform="translate(-6328.68 -6714.11)"/><path class="cls-2" d="M7364.54,7370.86s-18.76-8,0-22c14.35-10.71,322.09-13.23,465.9-13.82,13.36-.06,16.38,15.4,3.68,18.8-24.06,6.44-49.38,13-66.9,17-43.74,10-117,16-166.62,18S7411.39,7380.86,7364.54,7370.86Z" transform="translate(-6328.68 -6714.11)"/><path class="cls-3" d="M6634.13,7334.86s114.1,48,176.36,59.7c51.88,9.8,147,15.85,182.3,16,52.17.29,187.5-13,215.2-17.25,27.38-4.24,163.89-42,182.28-58.5C7390.27,7334.86,6648.61,7338.61,6634.13,7334.86Z" transform="translate(-6328.68 -6714.11)"/></g><g id="レイヤー_6" data-name="レイヤー 6"><rect class="cls-4" width="1735.96" height="972.95"/></g></svg>