<?xml version="1.0" encoding="utf-8"?>
<!-- Generator: Adobe Illustrator 22.0.0, SVG Export Plug-In . SVG Version: 6.00 Build 0)  -->
<svg version="1.1" id="レイヤー_1" xmlns="http://www.w3.org/2000/svg" xmlns:xlink="http://www.w3.org/1999/xlink" x="0px"
	 y="0px" viewBox="0 0 243 201" style="enable-background:new 0 0 243 201;" xml:space="preserve">
<style type="text/css">
	.st0{fill:#FFFFFF;}
	.st1{fill:none;}
</style>
<title>アセット 10</title>
<g>
	<path class="st0" d="M61.6,55.5l-0.4-0.4h-1.1l1.1,3.4c0.3,1.3-0.1,2.2-1.1,2.9c-1,0.6-1.9,1.2-2.7,1.7L57,65.1l-1.1,1.1l-5,2.3
		l2.3,7.3l1.1,0.4c2.3,0.3,4.5,0.1,6.5-0.6c2-0.6,4-1.7,5.7-3.3l0.8-1.1h1.1v0.4h-0.8l-0.8,2.3h-0.8l-5.4,5l-1.5,2.7h-0.8l-0.4,1.5
		h-0.8L56.6,85l-1.1,0.8c-2.6,1.5-5.2,2.7-7.8,3.6c-2.7,0.9-5.2,2.2-7.5,4l-3.8,10h-0.8c-0.5,1.3-1.3,2.2-2.3,2.9
		c-1,0.6-2,1.3-3.1,2.1h-0.8c0-1.8,0.4-3.5,1.3-5.2c0.9-1.7,1.6-3.4,2.1-5.2c0.3-3.1,0-5.9-0.8-8.4c-0.8-2.6-2.2-4.8-4.2-6.9
		l0.8-1.9c1.5,0.3,3,0.6,4.4,1c1.4,0.4,2.9,0.8,4.4,1.3h2.3l1.9-1.9l1.5-3.1L42.4,67c-2.3,0.8-4.6,1.4-6.9,1.9
		c-2.3,0.5-4.6,1.1-6.9,1.9v0.4l2.3-2.7c-0.3-2.8-0.8-5.6-1.7-8.4c-0.9-2.8-2-5.5-3.3-8v-0.8c2.6,0.8,5,1.9,7.3,3.3
		c2.3,1.4,4.8,2.4,7.7,2.9c3.8,0.3,7.5,0,10.9-0.8s6.7-1.9,9.8-3.4H62L61.6,55.5z M41.3,111v0.8l-1.9,1.1l0.4,1.5l1.1,0.4
		c1,2.3,2.1,4.6,3.3,6.9s2.1,4.7,2.9,7.3c0,1.3-0.1,2.4-0.2,3.4c-0.1,1-0.7,1.9-1.7,2.7l-4.6,8.8l-1.1,0.4l-0.8-1.5l-2.7-3.4
		l-1.1-0.8l-0.4-1.1l-6.9-1.1v-0.8h0.8l1.9-1.9l0.8-0.4c2.8-3.6,4.7-7.4,5.7-11.5c1-4.1,2.4-7.9,4.2-11.5L41.3,111z M49,104.1v-0.8
		l-2.3,0.8l1.1,1.9l8,4.2l2.7,6.5c0.8,1.5,1.7,2.9,2.7,4.2c1,1.3,2.2,2.4,3.4,3.4l3.4-1.5l0.8-0.4c4.8,0.8,9.5,2.2,14,4.4
		c4.5,2.2,9.1,3.8,14,4.8l4.2-0.8c1.3-2.3,2.4-4.7,3.4-7.3c1-2.6,2.3-5,3.8-7.3h0.8c1.8,4.1,2.6,8.4,2.5,13c-0.1,4.6,1,8.9,3.3,13
		v1.1c-1.3-0.3-2.4-0.3-3.4,0c-1,0.3-1.9,0.9-2.7,1.9c-4.6-1-9.1-2.1-13.4-3.3c-4.3-1.1-8.8-2.1-13.4-2.9l-7.7,0.4
		c-3.6-0.3-7-0.6-10.3-1.1c-3.3-0.5-6.5-1.5-9.6-3.1c-0.5-4.8-0.8-9.7-1-14.5c-0.1-4.8-2-9.1-5.6-12.6v-1.5L49,104.1z M102.2,53.6
		c1,0,2,0.1,3.1,0.2c1,0.1,1.8-0.2,2.3-1l1.1-0.8h0.8l-0.4,2.3h-0.8l-2.3,4.2c-0.3,1.3-0.2,2.6,0.2,3.8c0.4,1.3,0.8,2.4,1.3,3.4
		l-0.4,5.4c0.3,3.1,0.3,6.3,0,9.6c-0.3,3.3,0.4,6.3,1.9,8.8l1.1-1.9l1.1-0.4c1.5-2,2.9-4.1,4-6.3c1.1-2.2,2.1-4.5,2.9-7.1l-0.4-0.8
		l0.8,3.4c0.3,3.8,0.3,7.5,0,11.1c-0.3,3.6-0.8,7.1-1.5,10.7l-6.9,0.8l-5.4-0.4V98l-3.8-1.5v-0.8h-0.8l-1.1-3.1l0.4-3.4l-0.4-9.6
		c0-2.3,0.1-4.6,0.2-6.9c0.1-2.3,0.7-4.3,1.7-6.1l-6.5,3.4c-1.8,0.3-3.5,0.1-5.2-0.4c-1.7-0.5-3.3-1-4.8-1.5h-1.9
		c-0.3,1.5-0.2,3.1,0.2,4.6s1,2.9,1.7,4.2c0.3,2.8,0,5.6-0.8,8.2s-1.8,5.2-3.1,7.5l-1.1,1.1l-5,5.4v0.8l-1.5,0.4
		c-2.3-0.3-4.5-0.6-6.5-1c-2-0.4-4.1-0.8-6.1-1.3c-1.5,0-2.9,0.1-4.2,0.2c-1.3,0.1-2.4,0.7-3.4,1.7c1.8,0.3,3.4-0.1,4.8-1
		c1.4-0.9,2.9-1.7,4.4-2.5l0.8-1.9l1.1-0.4l1.5-3.4h0.8c2-3.3,3.8-6.8,5.4-10.5c1.5-3.7,2.7-7.5,3.4-11.3c0-2.3-0.3-4.5-0.8-6.5
		c-0.5-2-1.3-4.1-2.3-6.1l0.4-3.1c1.8,0.5,3.5,1.1,5.2,1.9c1.7,0.8,3.3,1.7,4.8,2.7c3.3-0.8,6.7-1.4,10.1-1.9
		c3.4-0.5,6.7-1.4,9.8-2.7V53.6z M80.3,110.3c1.5,0.8,3.1,1.7,4.8,2.7c1.7,1,2.9,2.4,3.6,4.2c-0.8,1.3-1.7,2.2-2.9,2.7
		c-1.1,0.5-2.4,1-3.6,1.5H80c0-1.3-0.4-2.3-1.1-3.1c-0.8-0.8-1.4-1.7-1.9-2.7l-7.3-5l-0.8-1.9v-0.4L80.3,110.3z M88.4,83.1l-1.1,1.1
		c0.8,0.5,1.6,0.8,2.5,0.8c0.9,0,1.7,0,2.5,0l2.7,5.7v2.7h-0.8v0.8l-3.8,1.5H88l1.1-2.3c0-1.5,0-3.1,0-4.8c0-1.7-0.4-3.1-1.1-4.4
		v-1.1H88.4z M99.5,106.8l0.8,0.4l0.4,1.5l2.3-0.8c2,0.3,4.2,0.4,6.5,0.6c2.3,0.1,4.2,1,5.7,2.5c0,1.3,0,2.5,0,3.6s-0.5,2.1-1.5,2.9
		l-0.4-1.9c-2.6-0.5-5.1-1.1-7.7-1.9c-2.6-0.8-4.8-1.9-6.9-3.4l0.4-1.9L99.5,106.8z"/>
	<path class="st0" d="M133.4,85l1.5,3.8c0,2.8,0,5.7,0,8.6c0,2.9-0.5,5.7-1.5,8.2l-5,1.9l-4.6-0.8c2.3-3.3,4-6.8,5.2-10.3
		c1.1-3.6,1.8-7.4,2.1-11.5l1.1,0.8l1.1-0.4h0.4L133.4,85z M147.9,55.1h2.3l-0.4-1.1h-0.4v0.4l1.9,1.1c1.3,1.3,2.2,2.7,2.7,4.2
		c0.5,1.5,0.8,3.1,0.8,4.6c-1.5,8.7-2.5,17.4-2.9,26c-0.4,8.7-2,17.1-4.8,25.3c1.8,3.6,2.7,7.4,2.9,11.5c0.1,4.1,1.1,7.9,2.9,11.5
		v0.4l-3.8-1.1l-3.1,0.4h-9.6c0-1.3,0.2-2.4,0.6-3.4c0.4-1,1-1.9,1.7-2.7c-0.3-1-0.3-2.2-0.2-3.4c0.1-1.3-0.2-2.4-1-3.4l0.4-1.9
		l-1.1-4.6c0-2.3,0.1-4.5,0.2-6.7c0.1-2.2,0.4-4.3,1-6.3l-0.4-3.1V85.4l0.8-2.3c0.5-5.4,0.3-10.5-0.6-15.3
		c-0.9-4.8-2.7-9.4-5.6-13.8v-1.1c1.8,0.8,3.8,1.2,6.1,1.3c2.3,0.1,4.5,0.3,6.5,0.6L147.9,55.1z M156.3,86.5H156v0.4h1.5l0.4,0.8
		l1.9,0.8c0.8,1.3,1.5,2.6,2.1,3.8c0.6,1.3,1.1,2.7,1.3,4.2l-0.8,3.1l-4.2,2.3l-2.3-0.4l-1.9-9.6v-3.4L156.3,86.5z M199.6,55.5h-0.8
		c0,1,0,2,0,2.9c0,0.9-0.4,1.7-1.1,2.5l0.8,1.1c0.8,0.5,1.6,1,2.5,1.3c0.9,0.4,1.8,0.7,2.9,1c1.8,0,3.4-0.3,5-0.8
		c1.5-0.5,3.1-1.1,4.6-1.9h1.1c0.3,2.6,0.6,5,1.1,7.5c0.5,2.4,1,4.8,1.5,7.1v1.9c-5.1,0.3-10.1-0.3-14.9-1.5
		c-4.8-1.3-9.7-2.6-14.5-3.8h-1.1c-0.3,4.3-1,8.7-2.3,13c-1.3,4.3-2.9,8.4-5,12.2h-0.8c-1.8,3.3-3.6,6.6-5.6,10
		c-1.9,3.3-3.8,6.6-5.6,10l-7.3,3.1h-0.8v-1.1l1.1-0.8v-0.8h1.1l4.6-4.2c3.6-7.1,5.9-14.7,6.9-22.6c1-7.9,3.2-15.4,6.5-22.6v-1.1
		c-3.1,1.8-6.5,2.6-10.3,2.5c-3.8-0.1-7.4,0.4-10.7,1.7h-0.4c1.3-2.3,2.4-4.7,3.3-7.1c0.9-2.4,1.5-4.9,1.7-7.5c2,1.3,4.3,2,6.9,2.1
		c2.6,0.1,5,0.7,7.3,1.7c1.3,0,2.6-0.2,3.8-0.6c1.3-0.4,2.4-0.8,3.4-1.3l1.5-8l13,0.8h0.4V55.5z M193.1,93.8l-0.4,0.4h0.4
		c0.8-2,1.1-4.2,1-6.5c-0.1-2.3-0.2-4.6-0.2-6.9c1.8,1,3.8,1.5,6.1,1.5s4.5,0.3,6.5,0.8c0,1.5,0,3,0,4.4c0,1.4-0.4,2.6-1.1,3.6
		c0,0.8,0.1,1.5,0.4,2.1c0.3,0.6,0.6,1.2,1.1,1.7l1.5-0.4l5,0.8l1.9,2.7v22.6c-0.5,3.1-0.8,6.3-0.8,9.8s-0.6,6.6-1.9,9.4h-0.4
		l0.8-3.4l-0.8-3.4l-5-4.6v-1.1l2.7-1.1l1.1-2.3c-0.5-1.8-1-3.6-1.3-5.6s-0.4-4-0.2-6.3l-3.1-0.8v-0.8l-1.9-0.8h-0.8l-0.4,2.7v15.3
		c-1,2.6-1.7,5.2-2.1,8s-0.6,5.6-0.6,8.4c-1.5,0.5-3.1,0.6-4.8,0.4c-1.7-0.3-3.1,0.1-4.4,1.1l0.8-5.7l-0.4-8.4V108h0.8
		c-1,1.8-2.5,2.7-4.4,2.7s-3.6,0.3-5.2,0.8c0,2.8,0.3,5.5,0.8,8c0.5,2.6,1.1,5,1.9,7.3c0,1.3,0,2.5,0,3.6s-0.3,2.2-0.8,3.3l-3.8,0.4
		v0.8l-6.1,1.9h-0.4l2.7-11.5l-0.4-4.6v-18.4l-0.4-0.4v-4.2c2,0.3,4,0.1,5.7-0.6c1.8-0.6,3.6-1.2,5.4-1.7h6.1L193.1,93.8z"/>
</g>
<rect class="st1" width="243" height="201"/>
</svg>
