<?xml version="1.0" encoding="utf-8"?>
<!-- Generator: Adobe Illustrator 22.0.0, SVG Export Plug-In . SVG Version: 6.00 Build 0)  -->
<svg version="1.1" id="レイヤー_1" xmlns="http://www.w3.org/2000/svg" xmlns:xlink="http://www.w3.org/1999/xlink" x="0px"
	 y="0px" viewBox="0 0 376.2 249" style="enable-background:new 0 0 376.2 249;" xml:space="preserve">
<style type="text/css">
	.st0{fill:#D41300;}
	.st1{fill:none;}
</style>
<title>アセット 15</title>
<g>
	<path class="st0" d="M45.8,239.5h0.5l0.6-1l0,0c0,0.2,0,0.5,0,0.8s0.1,0.5,0.3,0.7c0,0.1,0,0.2,0,0.4s-0.1,0.2-0.2,0.3l-0.4-0.1
		l-0.4,0.1l-0.3,1.8v0.3l0.2-0.3l0.2-0.1v-0.2l0.6-0.8l0,0c0,0.5-0.1,1-0.2,1.5s-0.3,1-0.6,1.4l-0.1,0.1l-0.4,0.3l-0.1,0.2l-1.1,0.7
		l-0.2,0.3h-0.1c-0.2,0.3-0.4,0.7-0.6,1s-0.3,0.7-0.4,1.1c-0.1-0.4-0.1-0.8,0-1.2s0-0.8-0.3-1.1h-0.1v-0.1l-0.2-0.1v-0.1l0.4-0.1
		l0.4-0.3v-0.1l0.2-0.2l0.8-0.6l-0.1-0.9v-0.3l-0.1-0.6l-0.2,0.1h-0.3c-0.1,0-0.1,0-0.2,0s-0.1,0.1-0.1,0.2h-0.1l-0.1,0.2H43
		l-0.1,0.2l0,0l0.1-0.8c0-0.3,0-0.6-0.1-0.8s-0.2-0.5-0.3-0.8c0-0.1,0-0.1,0-0.2s0-0.1,0.1-0.1l0,0l0.2,0.4l0.1-0.1l0.2-0.1l0.6,0.1
		c0.1,0,0.1,0,0.2,0s0.1,0,0.1-0.1v-2.4l-0.1-0.4v-0.4l0.9,0.4c0.1,0,0.2,0,0.4,0s0.2,0,0.3-0.1h0.1c0,0.3,0,0.6,0,1
		S45.7,239.3,45.8,239.5l0,0.6l0,0h0V239.5z M53.1,240.1h0.3v0.4c0,0.3,0,0.6,0,0.8s-0.1,0.5-0.2,0.8l0,0V242l-0.2-0.1
		c-0.3,0.2-0.6,0.3-1,0.3s-0.6,0.1-0.9,0.3h-0.4h-0.5c0.1,0.6,0,1.1-0.2,1.6s-0.5,0.9-0.8,1.4h-0.1c-0.1,0.1-0.2,0.2-0.4,0.3
		s-0.2,0.2-0.3,0.3l-0.3,0.2l-0.1,0.1l-0.2,0.1l-0.5,0.3h-0.7l0.5-0.5h0.1v-0.1l0.2-0.2l0.2-0.1l0.1-0.1h0.1
		c0.2-0.3,0.4-0.7,0.5-1.1s0.3-0.7,0.4-1.1l0.1-0.1h0.1c0.1-0.2,0.2-0.3,0.2-0.5s0.1-0.3,0.3-0.5h-0.6l-0.1,0.1
		c-0.2,0.1-0.3,0.2-0.5,0.3s-0.3,0.1-0.5,0.2l0,0l0.2-0.6c0-0.2,0-0.5-0.1-0.7s-0.2-0.4-0.3-0.6l0.1-0.5c0.5,0,1,0.1,1.6,0.2
		s1,0.2,1.5,0.4c0.5,0,0.9-0.1,1.4-0.2S52.8,240.4,53.1,240.1L53.1,240.1z M52.3,236.8L52.3,236.8l0.5,0.6c0,0.4-0.1,0.9-0.2,1.3
		s-0.2,0.9-0.2,1.3c-0.4,0-0.8,0-1.1-0.1s-0.7-0.2-1.1-0.3c-0.3,0-0.6,0-0.9,0.1s-0.5,0.2-0.8,0.3h-0.1l0.1-0.3c0.1-0.5,0-1-0.1-1.4
		s-0.2-0.9-0.4-1.3v-0.3c0.3,0.1,0.6,0.1,0.9,0.1s0.6,0,0.9,0.1c0.4,0,0.8,0,1.2,0s0.8-0.1,1.1-0.2L52.3,236.8L52.3,236.8z
		 M50.5,244.5L50.5,244.5l0.1,0.4h0.1c0,0.2,0,0.4,0,0.6s-0.1,0.4-0.2,0.5l-1.1,0.4H49v-0.1l0.5-0.6l0.3-0.4h0.1L50.5,244.5
		L50.5,244.5L50.5,244.5z M49.5,237.9L49.5,237.9L49.5,237.9v0.1l0.2,0.2c0.1,0.1,0.3,0.1,0.5,0.1s0.3,0,0.5,0.1c0.1,0,0.2,0,0.3,0
		s0.2,0,0.2-0.1l0.1-0.1v-0.6h-1.5L49.5,237.9z M49.7,238.9L49.7,238.9L49.7,238.9l0.9,0.3h0.2l0.1-0.2l-0.2-0.2c-0.1,0-0.3,0-0.5,0
		s-0.3,0.1-0.4,0.2L49.7,238.9z M49.6,243.3L49.6,243.3h0.3h1.2l0.3-0.3l0.8-0.1c0.3,0,0.6,0.1,0.9,0.2s0.6,0.2,0.9,0.2l0.2,0.1
		c0,0.8-0.2,1.6-0.6,2.2s-0.7,1.4-0.8,2.1c0,0.1,0,0.2,0,0.4s0,0.2-0.2,0.3c-0.1,0-0.2,0-0.4,0s-0.2,0-0.3-0.1v-0.1
		c-0.4-0.2-0.7-0.5-1.2-0.6s-0.8-0.3-1.2-0.4c0.2-0.1,0.5-0.1,0.7-0.3s0.4-0.2,0.7-0.3c0.2,0,0.5,0,0.7,0s0.4,0.1,0.6,0.2l0.3-0.2
		v-0.3c0-0.4,0-0.7,0.1-1s0.2-0.6,0.3-0.9h-0.8c-0.2,0-0.4,0-0.6,0.1s-0.4,0.1-0.6,0.2c-0.2,0-0.3,0-0.5,0s-0.3-0.1-0.4-0.2v-0.1
		V244L49.6,243.3z M51.7,244.2h0.2l0.2,0.5c0,0.2,0,0.5,0,0.7s-0.2,0.4-0.3,0.6l-0.8,0.3h-0.2l0.2-0.2l0.3-0.2l0.2-0.5h0.1v-0.1
		v-0.4L51.7,244.2L51.7,244.2z"/>
	<path class="st0" d="M58.7,239.6c0.2,0,0.4,0,0.6,0s0.4-0.1,0.5-0.2h0.1c0,0.5,0.1,1.1,0.2,1.6s0.2,1,0.4,1.5v0.1l-0.5-0.1
		c-0.4,0-0.9,0-1.3,0s-0.9,0.1-1.3,0.2c0,1-0.1,1.9-0.3,2.8s-0.4,1.8-0.6,2.7c-0.2-0.1-0.5-0.2-0.8-0.2s-0.6,0-0.9,0v-0.1l0.2-0.2
		c0.1-0.3,0.2-0.6,0.3-0.9s0.2-0.6,0.3-0.9c0.1-0.9,0-1.8-0.2-2.7s-0.4-1.8-0.4-2.7v-0.4l0.4-0.1h3L58.7,239.6l0.4,0.1L58.7,239.6z
		 M59,237.3c0.2,0,0.4,0,0.5-0.1s0.3-0.2,0.4-0.3H60c0,0.3,0,0.7,0,1s-0.2,0.6-0.3,0.9h-1.2c-0.5,0-1,0-1.5,0s-0.9,0.2-1.3,0.4v0.1
		v-1.4l-0.6-0.5v-0.1c0.3,0,0.7,0,0.9,0.1s0.6,0.2,0.9,0.2c0.4,0,0.8,0,1.1,0S58.6,237.3,59,237.3L59,237.3L59,237.3z M58.9,240.6
		l-0.4,0.2H57h-0.5c0,0.1,0.1,0.2,0.2,0.4s0.1,0.2,0.1,0.4l0.4-0.2c0.3,0,0.6,0,0.8,0s0.5,0.1,0.7,0.2l0,0c0-0.2,0-0.3,0-0.4
		s0.1-0.2,0.2-0.3V240.6z M63.7,237.2c0,0.1,0,0.2,0,0.4s-0.1,0.2-0.3,0.3h-0.1v0.2l-0.8,0.4v0.6l-0.5,0.6l0.2,0.9
		c0.3,0,0.5,0.1,0.8,0.2s0.5,0.2,0.8,0.2h0.5h1.8v1.7h-1.3v0.7c0,0.2,0,0.5,0,0.8s0,0.5-0.1,0.7v2.2v0.9l-0.6-0.1h-0.5l0,0l-0.1-0.7
		c0-0.8,0-1.5,0-2.2s0.1-1.4,0.3-2.1c-0.2,0-0.4,0-0.5,0s-0.3,0-0.5-0.1h-0.1v0.3h-0.1c-0.2,0.6-0.5,1.2-0.7,1.9s-0.4,1.2-0.5,1.9
		v0.5v0.2l-0.5,0.2l-0.3,0.2h-0.3l0,0l0,0v-0.1h0.1H60c-0.1-0.8,0-1.5,0.2-2.2s0.3-1.4,0.4-2.2v-0.3c0-0.2,0-0.5,0-0.7
		s0.1-0.4,0.1-0.7c0-0.4,0-0.7-0.1-1.1s-0.1-0.7-0.2-1v-0.2l0.4-0.3l0.6-0.9l-0.1-1l2.2-0.1L63.7,237.2L63.7,237.2z"/>
	<path class="st0" d="M67.9,243.4l0.4-0.3h0.4l0.2,0.2l0.1,0.1l0.4,0.8c0,0.2,0,0.3,0,0.4s-0.1,0.2-0.1,0.4h-0.1v0.1l-0.4,0.2h-0.3
		v-0.1l-0.2-0.1V245l-0.7-0.4v-0.1c0-0.1,0-0.2,0-0.4s0.1-0.2,0.2-0.3L67.9,243.4z M67.9,239.3l0.1-0.2L67.9,239.3L67.9,239.3
		l0.3-0.5l0.4,0.1l0.2,0.3l0.4,0.1l0.2,0.5v0.7l-0.1,0.1l-0.2,0.1l-0.4,0.2h-0.1v-0.1l-0.3-0.4v-0.1c-0.1,0-0.2,0-0.3-0.1
		s-0.2-0.1-0.2-0.2L67.9,239.3L67.9,239.3z M68.3,243L68.3,243h-0.2l0,0H68.3L68.3,243z"/>
	<path class="st0" d="M70.9,247.7v-0.9l-0.1-0.5c0.1-0.3,0.1-0.6,0.1-0.8s0.1-0.6,0.1-0.8c-0.1-0.2-0.1-0.3-0.1-0.5s0-0.4,0-0.5
		c0.1-0.7,0.3-1.2,0.8-1.8s0.7-1.1,0.8-1.8l0.3-0.2c0.1-0.3,0.2-0.6,0.3-0.8s0.1-0.6,0.1-0.9l-0.1-0.3c-0.1,0-0.1,0-0.1-0.1
		s0-0.1,0-0.2c0.1-0.2,0.1-0.4,0.2-0.5s0.2-0.4,0.2-0.6c0,0.1,0,0.2,0.1,0.3s0.2,0.1,0.2,0.1h0.6l0.1,0.2h0.1c0,0.2,0.1,0.5,0.2,0.6
		s0.3,0.4,0.4,0.5l0.6,0.6c0,0.8,0.2,1.6,0.4,2.3s0.3,1.5,0.2,2.4c-0.1,0.6-0.2,1.3-0.3,1.9s-0.2,1.3-0.4,1.9v0.7l0.1,0.5h-0.1
		l-0.1-0.2h-0.1l-0.3,0.5l-0.2-0.1v-0.1h-0.1v-0.1l0,0c0-0.3,0-0.7-0.1-0.9s-0.2-0.6-0.2-0.9v-0.4l-0.1-0.5H74
		c-0.1,0.1-0.1,0.1-0.2,0.3s-0.1,0.2-0.1,0.3h-0.2c-0.2-0.1-0.4-0.3-0.7-0.4s-0.4-0.2-0.7-0.3v0.3v0.8l-0.2,0.3H72l-0.1,0.8
		l-0.2,0.1v0.1l-0.2,0.2l-0.1,0.3H71v-0.1l0,0l-0.1,0.1v-0.1L71,248v-0.1h-0.1V247.7l0.2-0.4l0,0L70.9,247.7z M74,240.6h-0.4
		c-0.1,0.2-0.3,0.4-0.4,0.6s-0.3,0.4-0.4,0.6l-0.2,0.6h0.2l0.1,0.2l0.2,0.2l0.3-0.1l0.2,0.1l0.2,0.6H74l0.2-0.1l0.1-0.4h0.1v-0.3
		h0.1h0.1v-0.4c-0.1-0.2-0.1-0.3-0.1-0.4s-0.1-0.3-0.2-0.4h-0.1L74,240.6l-0.1-0.1L74,240.6z"/>
	<path class="st0" d="M80.3,237.5c0,0.3,0,0.5,0,0.8l0.6,0.6c0.2,0,0.3,0,0.4-0.1s0.2-0.1,0.4-0.2h0.2c0,0.3,0,0.6,0,0.8
		s0.2,0.5,0.3,0.7v0.4c-0.2,0-0.4,0-0.7,0s-0.4-0.1-0.6-0.2H80l0.1,0.2l0.4,0.8c0.3,0.7,0.6,1.3,0.8,2s0.4,1.4,0.7,2.1l-0.2-0.1
		l-0.1-0.1V245l-1.4-1.2l0,0c0,0.1,0,0.1,0,0.2s0.1,0.1,0.2,0.1c0.1,0.2,0.2,0.3,0.2,0.5s0,0.4,0,0.6h0.1l0.5,1.1
		c0,0.3,0,0.6-0.1,0.9s-0.1,0.6-0.1,0.9l-0.3-0.2c-0.2,0-0.4,0-0.7,0s-0.4,0-0.6,0.1h-0.2c0.1-0.4,0.1-0.7,0.3-1.1s0.1-0.7,0.1-1.1
		v-1.9c-0.1,0.2-0.1,0.4-0.3,0.7s-0.2,0.4-0.4,0.7c-0.2,0.2-0.3,0.4-0.5,0.6s-0.4,0.4-0.7,0.4c0.2-0.8,0.4-1.5,0.4-2.3
		s0.2-1.5,0.4-2.3v-1.3l-0.9,0.4l0,0c0-0.4,0-0.8-0.1-1.2s-0.2-0.8-0.4-1.1l0.1,0.1l0.4,0.2h1.7l-0.6-1.8v-0.2l0.6,0.2
		c0.2,0,0.4,0,0.5,0s0.3-0.1,0.4-0.2C80.3,237,80.3,237.2,80.3,237.5z M86.8,237.1v0.2l-0.2-0.2v0.3l-0.4,0.3c0,0.1,0,0.2,0,0.4
		s0,0.2,0.1,0.3c0.3,0,0.7,0,1,0s0.6-0.2,0.8-0.3l0,0v1.7l-0.8-0.1c-0.2,0-0.4,0-0.5,0s-0.3,0.1-0.5,0.2l0.2,0.7l0.3,0.3
		c0.2,0,0.4-0.1,0.5-0.1s0.3-0.1,0.5-0.2H88v1.7c0,0.4,0,0.7,0,1.1s0.1,0.7,0.2,1v0.5c-0.3,0-0.6-0.1-0.8-0.2s-0.5-0.2-0.8-0.3h-0.1
		c0.2,0.4,0.5,0.8,0.6,1.3s0.3,0.9,0.4,1.4c0.1,0.2,0.2,0.4,0.4,0.6s0.3,0.3,0.6,0.4l-1.1-0.7v-0.1l-0.2-0.1V247l-0.2-0.1
		c-0.1-0.2-0.2-0.3-0.4-0.5s-0.2-0.3-0.3-0.5l0,0l0.1,0.7c0,0.2,0,0.5-0.1,0.7s-0.1,0.5-0.2,0.7c-0.2,0-0.3,0-0.5,0
		s-0.3,0.1-0.4,0.2l-0.1-2.3l-0.8,0.5l-0.4,0.3l-0.2,0.4l-0.2,0.1l-2,0.8l0.6-0.5l0.1-0.1h0.1l1.2-1.2l0.1-0.1h0.1
		c0.1-0.2,0.2-0.3,0.3-0.4s0.3-0.2,0.4-0.3l0.1-0.1l0.2-0.1v-0.9l-0.4-0.1c-0.2,0-0.4,0-0.6,0.1s-0.4,0.2-0.6,0.4l0,0l0.1-0.3
		c0-0.4-0.1-0.9-0.2-1.3s-0.1-0.9-0.2-1.3V241c0.3-0.1,0.6-0.1,1-0.1s0.7,0,1,0v-1.2c-0.3,0-0.6,0-0.8,0.1s-0.5,0.2-0.8,0.3l0,0
		c0-0.3,0-0.6-0.1-0.9s-0.1-0.6-0.3-0.9v-0.2c0.4,0.1,0.8,0.2,1.2,0.2s0.8,0.1,1.2,0.3l-0.4-1.5V237h0.1c0.3,0,0.7,0,1-0.1
		s0.6-0.1,1-0.2H87L86.8,237.1z M84.5,243v0.1l-0.3-0.2h-0.3v0.1l-0.2,0.1l0.1,0.3l0.2,0.2l0.3-0.1L84.5,243z M84.3,242l-0.1-0.3
		l-0.1-0.1l-0.4,0.1c0,0.1,0,0.2,0,0.4s0.1,0.2,0.2,0.3h0.2v-0.1L84.3,242z M87.1,242v-0.3l-0.3-0.1c-0.1,0-0.2,0-0.3,0
		s-0.1,0.1-0.2,0.2c0,0.1,0,0.2,0,0.3s0,0.2,0.1,0.2l0.1,0.1l0.5-0.2L87.1,242z M86.9,244v0.1l0.3-0.5v-0.1l-0.5-0.4h-0.2l-0.1,0.2
		l0.1,0.6l0.2,0.1l0.1,0.2L86.9,244L86.9,244z"/>
	<path class="st0" d="M92.4,244.5v0.1v0.3l-0.1,0.5c-0.2,0-0.3,0-0.4-0.1s-0.2-0.2-0.4-0.3c-0.1-0.2-0.1-0.4-0.2-0.6
		s-0.1-0.4-0.2-0.6l-0.1-0.1c-0.5-0.8-0.8-1.6-1-2.5s-0.5-1.7-0.9-2.5H89v-0.1h-0.1v-0.4l0.4-0.1c0-0.1,0-0.2,0-0.3s0.1-0.2,0.2-0.3
		c0.2,0,0.4,0,0.5,0.1s0.3,0.2,0.5,0.2c0.2,0.5,0.3,1,0.4,1.5s0.1,1,0.4,1.5l0.2-0.3l0,0c0,0.1,0.1,0.3,0.1,0.4s0.1,0.3,0.1,0.4
		l0.4,0.8l0.2,0.1L93,242v-0.1h0.1l0.2-0.4l0.6-0.7H94c0,0.2,0,0.5,0,0.8s0,0.5-0.1,0.7h-0.1v0.2h-0.1l-0.2,0.3h-0.1v0.1h-0.1
		l-0.2,0.2v0.1H93v0.1h-0.1v0.1h-0.1l-0.2,0.5v0.6l0,0H92.4z M95.9,240.6L95.9,240.6l-0.4,0.4l0,0l0.2-0.2v-0.3l0.1-0.9v-0.7
		l0.1-0.7c0-0.1,0.1-0.2,0.2-0.3s0.2-0.1,0.3-0.1v-0.1h0.1l0.4-0.4c0.1,0,0.2,0,0.3,0s0.1,0.1,0.2,0.2h0.1l0.1-0.1l0.1-0.1l0.2-0.1
		H98v0.1l0.6,0.7h0.1l0.2,0.3v2.2c-0.2,0.7-0.3,1.4-0.5,2.1s-0.3,1.4-0.4,2.1v1.1l0,0v0.1l-0.3,0.2c-0.1,0.1-0.2,0.1-0.3,0.3
		s-0.1,0.2-0.2,0.3l-0.3,0.7l-0.3,0.2l-0.2,0.1h-0.1v-0.1l-0.4,0.3c-0.2,0-0.3,0-0.4,0s-0.3-0.1-0.4-0.2c-0.1,0-0.2,0-0.3,0
		s-0.1,0.1-0.2,0.2h-0.1c0.2,0,0.3,0,0.4-0.1s0.3-0.2,0.4-0.2c0.6-0.7,0.9-1.5,1-2.3s0.3-1.6,0.7-2.4c0-0.2,0-0.4,0-0.7
		s-0.1-0.4-0.1-0.6c0-0.1,0-0.2,0-0.3s0-0.2,0.1-0.3v-0.1l-0.2-0.1c-0.1-0.1-0.1-0.3-0.1-0.4s0-0.3-0.1-0.4l-0.2,0.4h-0.1v0.1
		l-0.2,0.2L95.9,240.6l-0.5,0.4l-0.1,0.1l0,0L95.9,240.6z M95.7,238.5c0,0.3,0,0.5-0.1,0.8s-0.1,0.5-0.1,0.8l-0.4,0.3v0.5H95
		l-0.2-0.4l0.8-1.7L95.7,238.5L95.7,238.5z"/>
	<path class="st0" d="M110.5,247.4l-0.3,0.5l-1.2,0.6c-0.6,0.1-1.2,0-1.7-0.1s-1.1-0.3-1.6-0.6v-0.1c-0.5-0.1-1-0.1-1.5-0.2
		s-0.9-0.3-1.3-0.7l-0.3-0.8v-0.3l0.4-0.2v-0.1c0.2-0.1,0.3-0.1,0.5-0.1s0.4-0.1,0.5-0.2l0.2-0.4h0.1l0.2-0.4l0.1-0.1h0.1l-0.1-0.7
		c0-0.2,0-0.4,0.1-0.6s0.1-0.4,0.1-0.6l0.5-0.3l0.1-0.1l0.3-0.1l0,0c-0.7,0.1-1.3,0.2-2,0.5s-1.3,0.5-1.9,0.7H101v-0.2l0.1-0.1h0.4
		l0.2-0.2l0.2-0.2c-0.1-0.2-0.1-0.3-0.1-0.5s-0.1-0.3-0.2-0.5h-0.5l0,0h1.2l0.2-0.2l0.6-0.1c0.1-0.1,0.2-0.1,0.3-0.3
		s0.2-0.2,0.2-0.4l0.8-0.3l0.2-0.4v-0.1c-0.1,0-0.3,0-0.4,0s-0.3,0-0.4,0.1c-0.3-0.2-0.7-0.3-1.1-0.3s-0.8-0.1-1.2-0.2V239l0,0h0.5
		l0.2-0.4l0.6-0.2v-0.3l-0.2-0.1c0.3,0,0.6,0,0.9,0s0.6,0.1,0.9,0.2c0.4-0.1,0.7-0.2,1.1-0.3s0.7-0.2,1.1-0.3
		c0.1-0.1,0.2-0.2,0.3-0.3s0.2-0.2,0.3-0.3l0.2-0.1l0.2,0.1l0.1,0.2v0.1v0.3l-0.2,0.2v0.7c-0.1,0.1-0.1,0.2-0.3,0.3
		s-0.2,0.1-0.3,0.2l-0.1,0.3h-0.1v0.1h-0.1v0.1h-0.1v0.1h-0.1l0.3,0.2c0.6-0.1,1.2-0.1,1.7-0.2s1.1-0.3,1.6-0.6l0.5,0.1l1-0.3
		l0.5-0.6l0,0v0.3v0.3l0.1-0.1l0,0c-0.1,0.1-0.1,0.2-0.2,0.3s-0.1,0.2-0.1,0.4l-0.5,0.2l-0.1,0.2c-0.2,0.1-0.5,0.1-0.7,0.2
		s-0.5,0.2-0.6,0.3h-0.1l-0.1,0.1l-0.6,0.6l-0.1,0.2l-0.2,0.1c-0.4,0.2-0.8,0.4-1.1,0.6s-0.8,0.3-1.2,0.4l-0.2,0.4v0.5l-0.1,1.3
		l-0.6,0.7l0.1,0.2l0.1,0.1l0.1,0.1v0.1l0.4,0.2v0.1c0.2,0.2,0.5,0.3,0.9,0.4s0.7,0.1,1,0.1h0.9c0.3-0.3,0.6-0.7,0.8-1
		s0.5-0.7,0.8-0.9c0.1,0,0.2,0,0.3,0s0.2,0,0.3,0.1l-0.2,0.5v0.2l0.4-0.1l0.2-0.2l0.2-0.3l0.1-0.1h0.1h0.1c0,0.2,0,0.4,0,0.6
		s-0.1,0.3-0.2,0.5h0v0.1l-0.3,0.2c-0.2,0.2-0.3,0.5-0.4,0.7s-0.2,0.5-0.2,0.8H111l-0.1,0.3v0.1L110.5,247.4z"/>
	<path class="st0" d="M113.2,240.3L113.2,240.3l0.2-0.1v-0.1c-0.1-0.1-0.1-0.1-0.2-0.1s-0.2-0.1-0.2-0.1c0.6-0.3,1.1-0.5,1.6-0.7
		s0.9-0.2,1.2-0.3c0.1-0.5,0.1-1,0.1-1.6l0.3-0.1c0.1,0,0.1,0,0.2,0s0.1,0,0.1,0.1l0.7-0.4h0.1c-0.1,0.2-0.1,0.3-0.1,0.5
		s0,0.3-0.1,0.5c0,0.2,0,0.4,0,0.6h0.1l0.7-0.3h1l-0.1,0.2v0.1l0.8-0.1l0,0h-0.1c0,0.1-0.1,0.2-0.2,0.2s-0.1,0.1-0.1,0.2l-0.8,0.2
		l-0.4,0.4l-0.1,0.1h-0.1v0.1l-0.1,0.1c-0.1,0-0.2,0-0.2,0.1c0.1,0.1,0.1,0.2,0.2,0.4v1l0,0v-0.1h-0.4l0.2,0.6c0,0.2,0,0.4-0.1,0.5
		s-0.1,0.3-0.2,0.5h-0.1v0.1c-0.1,0.1-0.2,0.1-0.2,0.2s-0.1,0.2-0.2,0.2c-0.2,0.2-0.3,0.5-0.3,0.7s-0.2,0.5-0.3,0.7H116l-0.3,0.7
		l-0.6,0.4l0.4-0.2l0,0c-0.2,0.1-0.3,0.2-0.5,0.2s-0.3,0.1-0.4,0.3c-0.1,0-0.2,0-0.3,0s-0.2-0.1-0.2-0.2l-0.1,0.1h-0.1l0,0v-0.3
		l-0.7,0.4l0,0l0.8-1.6c0.1-0.1,0.2-0.2,0.3-0.3s0.2-0.2,0.4-0.3h0.1c0.2-1.1,0.6-2.2,1-3.3l0,0l-0.6,0.3c-0.2,0-0.5,0-0.6-0.1
		s-0.3-0.1-0.4-0.1l-0.1,0.1l0,0v-0.2C113.4,240.4,113.3,240.4,113.2,240.3L113.2,240.3z M120.3,247.2L120.3,247.2h-0.2l-0.2-0.1
		l-0.1-0.1l-0.5-0.4v0.7h-0.1c-0.1,0.1-0.2,0.1-0.3,0.3s-0.1,0.2-0.2,0.3l-0.3,0.2h-1.9V248h-0.1v-0.1v-0.2v-0.2l-0.5-0.3v-0.3
		c0-0.4,0.1-0.8,0.3-1.1s0.4-0.6,0.6-1h0.1h0.2l0.1,0.2l0.6,0.3l0,0l0.1-0.3l0.3-0.1c0-0.3,0.1-0.6,0.1-0.8s0.1-0.5,0.3-0.7v-0.1
		h-0.1c0-0.2,0-0.4-0.1-0.5s-0.1-0.3-0.2-0.4l0.3-0.5l0,0l0.5,1.1l0.1-0.1l0.4,0.1v0.1v0.3h-0.1v0.2v0.6c0,0.2,0,0.5,0,0.8
		s0,0.5-0.1,0.7l0.2,0.2c0.1,0,0.2,0,0.2,0s0.1-0.1,0.1-0.2l0.2-0.1l0.4,0.5c0.2,0,0.3,0,0.4,0s0.3-0.1,0.4-0.2l0.6,0.3
		c0.1,0.2,0.1,0.4,0.3,0.5s0.2,0.3,0.4,0.5v0.5l-0.4,0.5c-0.4,0.1-0.7,0-1-0.2S120.7,247.3,120.3,247.2z M117.8,246.5l-0.1,0.1v-0.4
		h-0.6l-0.2-0.2c0,0.1,0,0.2,0,0.4s0,0.3,0.2,0.4h0.1h0.3L117.8,246.5z M119.7,239.6L119.7,239.6l-0.1,0.1L119.7,239.6l0.2-0.1h0.7
		l0.1-0.2h0.1c0.4,0.1,0.8,0.3,1.2,0.4s0.8,0.3,1.2,0.4c0.1,0,0.2,0.1,0.3,0.2s0.2,0.2,0.2,0.3v0.1c0,0.3,0.1,0.7,0.2,0.9
		s0.3,0.5,0.5,0.8l-0.2,0.3H124l-0.1-0.1v-0.1l-0.5,0.3l-0.5-0.1h-0.3l-0.1,0.2c-0.1-0.3-0.2-0.7-0.3-1s-0.3-0.7-0.5-0.9
		c-0.2-0.1-0.4-0.1-0.5-0.2s-0.3-0.1-0.5-0.2L119.7,239.6z M120.5,247.1L120.5,247.1L120.5,247.1L120.5,247.1L120.5,247.1z"/>
	<path class="st0" d="M124.9,247.7v-0.9l-0.1-0.5c0.1-0.3,0.1-0.6,0.1-0.8s0.1-0.6,0.1-0.8c-0.1-0.2-0.1-0.3-0.1-0.5s0-0.4,0-0.5
		c0.1-0.7,0.3-1.2,0.8-1.8s0.7-1.1,0.8-1.8l0.3-0.2c0.1-0.3,0.2-0.6,0.3-0.8s0.1-0.6,0.1-0.9l-0.1-0.3c-0.1,0-0.1,0-0.1-0.1
		s0-0.1,0-0.2c0.1-0.2,0.1-0.4,0.2-0.5s0.2-0.4,0.2-0.6c0,0.1,0,0.2,0.1,0.3s0.2,0.1,0.2,0.1h0.6l0.1,0.2h0.1c0,0.2,0.1,0.5,0.2,0.6
		s0.3,0.4,0.4,0.5l0.6,0.6c0,0.8,0.2,1.6,0.4,2.3s0.3,1.5,0.2,2.4c-0.1,0.6-0.2,1.3-0.3,1.9s-0.2,1.3-0.4,1.9v0.7l0.1,0.5h-0.1
		l-0.1-0.2h-0.1l-0.3,0.5l-0.2-0.1v-0.1h-0.1v-0.1l0,0c0-0.3,0-0.7-0.1-0.9s-0.2-0.6-0.2-0.9v-0.4l-0.1-0.5H128
		c-0.1,0.1-0.1,0.1-0.2,0.3s-0.1,0.2-0.1,0.3h-0.2c-0.2-0.1-0.4-0.3-0.7-0.4s-0.4-0.2-0.7-0.3v0.3v0.8l-0.2,0.3h0.1l-0.1,0.8
		l-0.2,0.1v0.1l-0.2,0.2l-0.1,0.3H125v-0.1l0,0l-0.1,0.1v-0.1l0.2-0.2v-0.1H125L124.9,247.7l0.2-0.4l0,0L124.9,247.7z M128,240.6
		h-0.4c-0.1,0.2-0.3,0.4-0.4,0.6s-0.3,0.4-0.4,0.6l-0.2,0.6h0.2l0.1,0.2l0.2,0.2l0.3-0.1l0.2,0.1l0.2,0.6h0.3l0.2-0.1l0.1-0.4h0.1
		v-0.3h0.1h0.1v-0.4c-0.1-0.2-0.1-0.3-0.1-0.4s-0.1-0.3-0.2-0.4h-0.1L128,240.6l-0.1-0.1L128,240.6z"/>
	<path class="st0" d="M136,237.3l-0.3,0.1l0,0L136,237.3L136,237.3v-0.1l0.2-0.4l0.1-0.1c-0.1,0.4-0.1,0.8,0,1.2s-0.1,0.8-0.3,1.1
		l-0.2,0.1l-0.1,0.1h-0.3l-0.3-0.2l0,0c-0.1,0.4-0.1,0.8-0.3,1.1s-0.2,0.8-0.3,1.1v1.2v2.6l-0.3,0.7c0,0.4,0.1,0.8,0.1,1.2
		s0,0.8,0.1,1.2c0,0.1,0,0.1,0,0.2s0,0.2-0.1,0.2l-0.3-0.3l-0.2-0.2v0.1l-0.4,0.4c-0.1-0.1-0.1-0.2-0.1-0.4s0-0.3-0.2-0.4
		c-0.1,0-0.2,0-0.2,0.1s-0.1,0.1-0.1,0.2l0,0v-0.4c0-0.3,0.1-0.7,0.1-1.1s0.1-0.7,0.2-1c0-0.3,0-0.6,0-0.8s-0.1-0.5-0.3-0.8
		c0-0.2,0-0.5,0.1-0.7s0.1-0.4,0.2-0.6c0-0.4,0-0.7,0-1.1s-0.1-0.7-0.1-1.1l0.3-0.9l-0.3,0.2l-0.4-0.1v-0.1l0,0l-0.2,0.8l-0.1,0.1
		h-0.1v-0.5l-0.6-0.7c-0.1-0.1-0.1-0.1-0.2-0.1s-0.2,0-0.2-0.1s0-0.2,0-0.3s0.1-0.2,0.1-0.3c0-0.2-0.1-0.5-0.2-0.7s-0.2-0.4-0.2-0.6
		l0,0l0,0h0.1v0.1l0.2-0.1l0.6,0.3v0.1l0.2,0.1c0.2-0.1,0.5-0.1,0.8-0.2s0.6-0.1,0.8-0.2c0.2,0,0.4,0,0.5,0s0.3,0.1,0.5,0.2h0.9
		v-0.1l0.3-0.2h0.1L136,237.3z"/>
	<path class="st0" d="M137.9,236.6l-0.2,0.5c0.1,0.3,0.1,0.7,0.2,1s0.1,0.7,0,1l0.2-0.7l0.1-0.1l0,0l0.1,0.6l0.3,0.2v0.1h0.1
		c0.2,0.5,0.4,1.1,0.5,1.7s0.2,1.2,0.3,1.8l0.4-0.3c0-0.3,0.1-0.6,0.2-0.9s0.2-0.5,0.4-0.8l0.1-0.1l0.2-0.2l0.1-0.1h0.1
		c0.2-0.5,0.3-1,0.3-1.5s0.1-1,0.1-1.5l0.2-0.2l0.2,0.1v0.1l0.2-0.2h0.1v-0.2h0.1v-0.1h0.1v-0.1h0.1l-0.1,0.6c0,0.4,0,0.7,0.1,1.1
		s0.2,0.7,0.2,1v3.8l0,0v1.4v0.6h-0.1l-0.3,0.9c0,0.2,0,0.4,0,0.7s0.1,0.4,0.2,0.6l-0.1,1l-0.3-0.1c-0.1-0.1-0.2-0.2-0.3-0.4
		s-0.2-0.2-0.3-0.3l-0.2,0.1h-0.1H141v-1.9l-0.1-0.2v-2c0-0.1,0-0.1,0-0.2s0-0.1,0.1-0.2c0,0.4-0.1,0.7-0.3,1s-0.4,0.7-0.5,1h-0.1
		l-0.1,1l-0.4,0.4l-0.1,0.4c-0.1-0.8-0.3-1.6-0.5-2.4s-0.3-1.6-0.4-2.4l-0.1,0.4l0.1,0.3c-0.2,0.9-0.3,1.8-0.4,2.7s-0.3,1.8-0.8,2.5
		l0,0l-0.1-0.7h-0.2v0.1l0,0v-0.2l-0.5,0.2l0.3-0.6v-3.5l0,0V243l-0.1-0.8c0-0.4,0-0.8,0.1-1.2s0.2-0.8,0.2-1.2s0-0.7-0.1-1.1
		s-0.2-0.7-0.2-1c0-0.2,0-0.4,0-0.7s0.1-0.4,0.2-0.5h0.5L137.9,236.6L137.9,236.6z"/>
	<path class="st0" d="M146.4,239.6L146.4,239.6v0.1c0.2-0.1,0.3-0.2,0.4-0.3s0.2-0.2,0.4-0.3h0.1c0,0.3,0,0.5,0,0.8s0.1,0.5,0.2,0.8
		v0.2l0,0l-0.7,0.4l0.4,0.9h0.1c0.1,0.3,0.2,0.6,0.4,1s0.2,0.7,0.3,1v0.4l-0.2-0.1l-0.2-0.3l-0.1-0.1l-0.1-0.2l-0.7-0.2h-0.1
		c0.2,0.6,0.4,1.3,0.5,1.9s0.2,1.3,0.2,2v0.6h-1.7l0.1-1.6c0-0.3,0-0.6-0.1-0.9s-0.1-0.5-0.2-0.8h-0.1l-0.2-0.8
		c-0.1,0.1-0.2,0.2-0.2,0.3s0,0.3-0.1,0.4l-0.3,0.5h-0.1v0.1h-0.1v0.1H144l-0.8,0.8c0.1-0.7,0.2-1.4,0.5-2s0.5-1.3,0.9-1.9V242v0.1
		c-0.2,0.1-0.3,0.2-0.5,0.3s-0.4,0.1-0.5,0.1h-0.2c-0.1-0.2-0.1-0.5-0.1-0.8s-0.1-0.5-0.4-0.7l0,0l1.3-0.1v-0.4v-0.3
		c0-0.4,0-0.8-0.2-1.2s-0.4-0.7-0.6-1.1l0.1-0.2l0.8,0.2c0.2,0,0.3,0,0.4,0s0.3-0.1,0.4-0.2l0.1-0.1h0.1l0.2-0.4h0.1
		c0,0.5,0.1,1,0.1,1.5s0.2,1,0.5,1.4l0,0L146.4,239.6z M152.5,238.4l0.4-0.1l0.3-0.4h0.1l0.3-0.3h0.1l0.1,0.8v0.4
		c-0.2,0-0.3,0-0.4,0s-0.3,0.1-0.4,0.2c0,0.2,0,0.3,0,0.4s-0.1,0.3-0.1,0.4l0.1,0.7l1.1-0.5h0.1l-0.1,0.2l0.3,1.2v0.4
		c-0.4-0.1-0.8-0.1-1.1-0.1s-0.8,0-1.1-0.2c-0.3,0-0.6,0-0.9,0s-0.6,0.1-0.8,0.1L150,242l-1.5,0.5H148h0.1l0.1-0.1v-0.7l0,0l0,0
		c0.1-0.1,0.3-0.1,0.4-0.2s0.4,0,0.5,0v-0.1c0-0.3,0-0.6,0-0.9s-0.1-0.5,0-0.8c-0.3,0-0.6,0-0.9,0s-0.6-0.1-0.8-0.2l-0.4-0.7v-0.3
		h1.1h0.4c0-0.2,0-0.4,0-0.6s0-0.4-0.1-0.5l-0.2-0.2V237l0.6,0.1c0.2,0,0.3,0,0.5,0s0.3-0.1,0.4-0.1h0.2c0,0.3,0.1,0.6,0.2,0.9
		s0.1,0.6,0.1,0.9l0.3-0.4c0.2,0,0.4,0,0.5,0s0.3,0.1,0.4,0.2c0.1-0.1,0.1-0.1,0-0.2s0-0.2,0.1-0.2V238v-1l0.4,0.1l0.8-0.4l0,0
		c0,0.2,0,0.4,0.1,0.5s0.1,0.3,0.2,0.5v0.6L152.5,238.4L152.5,238.4z M151.5,242.4l0.4,0.1h1.9h0.1c0.1,0.2,0.2,0.5,0.2,0.8
		s0.1,0.5,0.2,0.8c0,0.3,0,0.7-0.1,1s-0.2,0.6-0.4,0.8c-0.3,0-0.6-0.1-0.8-0.2s-0.5-0.3-0.8-0.4c-0.6-0.1-1.2,0-1.8,0.1
		s-1.1,0.4-1.6,0.7c0-0.2,0-0.5,0-0.7s0.1-0.4,0.1-0.7l-0.4-0.8h-0.1v-0.1h-0.1v-0.1v-0.5c0.2-0.2,0.5-0.3,0.8-0.2s0.6,0,0.8-0.2
		v-0.2v-1l0.8,0.2c0.1,0,0.2,0,0.3,0s0.2-0.1,0.2-0.1h0.2l0.1,0.4L151.5,242.4L151.5,242.4z M150.4,245.6l-0.1-0.1L150.4,245.6
		l0.1,0.1c0.2,0.1,0.3,0.2,0.4,0.3s0.2,0.3,0.3,0.4c0,0.2,0,0.4,0,0.5s-0.1,0.3-0.2,0.4l-0.2,0.1l-0.4-0.1c-0.3,0-0.7,0-1,0.1
		s-0.6,0.2-0.9,0.3h-0.1l0.2-0.5l0.6-0.2v0h0.1c0.2-0.2,0.3-0.4,0.4-0.6s0.2-0.5,0.4-0.7h0.1L150.4,245.6z M150.2,243.6L150.2,243.6
		L150.2,243.6h-0.3l-0.1,0.2l-0.1,0.1l0.1,0.2h0.6v-0.2v-0.3H150.2z M150.4,244.6h0.1l0,0H150.4c-0.1,0-0.2,0-0.3,0
		s-0.2,0.1-0.2,0.2l0.2,0.2c0.1,0,0.2,0,0.3,0s0.1-0.1,0.2-0.2v-0.1L150.4,244.6L150.4,244.6z M151.4,239.4L151.4,239.4
		c-0.1,0-0.3,0-0.4,0s-0.3,0-0.4,0.1l-0.1,0.6v0.2l0.1-0.1l0.6,0.1h0.2l0.1-0.5v-0.4L151.4,239.4z M152.3,245.6L152.3,245.6l0.3,0.1
		l0.4,0.6c0.2,0.2,0.4,0.3,0.6,0.3s0.4,0.2,0.6,0.3c0,0.2-0.1,0.4-0.3,0.5s-0.4,0.2-0.6,0.4l0,0v-0.3l-0.4-0.5h-0.1v0
		c-0.2-0.1-0.3-0.2-0.4-0.3s-0.3-0.2-0.5-0.2L152.3,245.6L152.3,245.6L152.3,245.6z M152.8,243.5L152.8,243.5v-0.2h-0.6l-0.2,0.3
		l0.3,0.4h0.4L152.8,243.5l0.1-0.1L152.8,243.5z M152.4,244.6h0.2v-0.1l-0.4,0.1v0.1l0.2,0.1l0.2-0.1l0,0L152.4,244.6z"/>
	<path class="st0" d="M164,236.6l-0.2,0.6h-0.1l-0.5,1h-0.1l-0.1,0.1c-0.3,0.2-0.7,0.2-1,0.3s-0.7,0.1-1.1,0.1c0,0.1,0,0.2,0,0.3
		s-0.1,0.2-0.1,0.3c-0.1,0.1-0.3,0.1-0.4,0.2l0.2,0.1l-0.1,0.5c0,0.2,0,0.4,0.1,0.5v-0.1v-0.1h0.1v0.4c0,0.1,0.1,0.1,0.1,0.2v0.4
		v-0.1c0,0.1,0,0.1,0,0.2c0.2,0,0.4,0,0.6,0s0.5,0,0.7,0.1c0.6-0.1,1.2-0.2,1.8-0.5s1.1-0.6,1.6-1V240l0.2-0.1l0,0v-0.1h0.2v0.1
		l0.1,0.3v0.6h-0.1c0,0.1,0,0.2,0,0.4s-0.1,0.2-0.2,0.3l-0.1,0.1c-0.1,0.2-0.3,0.3-0.4,0.3s-0.3,0.1-0.5,0.2c0,0.2,0,0.4-0.1,0.5
		s-0.2,0.3-0.3,0.5l-0.8,0.3c-0.2,0-0.5,0-0.7-0.1s-0.4-0.2-0.6-0.3c-0.2,0-0.5,0.1-0.6,0.2s-0.4,0.2-0.6,0.3c-0.2,0-0.3,0-0.4,0
		l0.1,1.1l1,0.8c0.1,0.1,0.1,0.1,0.2,0.2s0.1,0.2,0.1,0.3c0.3-0.1,0.6-0.1,0.9-0.1s0.6-0.1,0.9-0.2h0.8c0.3,0,0.7,0,1.1,0
		s0.7-0.1,1-0.3h0.2c0.1,0.2,0.1,0.4,0.1,0.6s0,0.4,0.1,0.6l-0.1,0.4c0,0.1,0,0.1,0,0.1h-0.1l-0.2,0.8c-0.2,0.2-0.5,0.2-0.8,0.2
		s-0.6,0.1-0.8,0.3c-0.9,0-1.7-0.2-2.5-0.6s-1.6-0.5-2.5-0.4c-0.1,0-0.1-0.1-0.2-0.1s-0.1-0.1-0.2-0.2v-1.3l-0.1-2.1
		c-0.2,0-0.3,0.1-0.6,0.1s-0.4,0.1-0.6,0.2H158l-0.2-0.4c-0.1,0-0.2-0.1-0.3-0.2s-0.2-0.1-0.3-0.1v-0.1l-0.8-0.3
		c-0.1-0.1-0.1-0.2-0.2-0.3s-0.1-0.2,0-0.3c-0.2-0.1-0.4-0.2-0.6-0.3s-0.4-0.1-0.6-0.2c0.5,0,1,0,1.5,0s1-0.1,1.5-0.2h1.3
		c0-0.2,0.1-0.5,0.1-0.8s0.1-0.8,0.2-1.3h-0.1v-0.1l-0.2-0.2l-0.2-0.1v-0.1c-0.2,0-0.4,0-0.6-0.1s-0.4-0.1-0.5-0.3v-0.2V238
		l-1.2-0.3l0.6-0.2h0.1l0,0l0.5-0.2h2.3c0.2-0.1,0.4-0.2,0.7-0.3s0.4-0.2,0.7-0.3h2.2L164,236.6L164,236.6z M160,239.3L160,239.3
		L160,239.3L160,239.3z M160.5,240.8L160.5,240.8L160.5,240.8L160.5,240.8z"/>
	<path class="st0" d="M167,243.2L167,243.2L167,243.2L167,243.2z M167.3,243.4L167.3,243.4h0.2h0.1l0,0l0.1-0.1
		c0.8,0.1,1.6,0.3,2.4,0.5s1.6,0.5,2.4,0.9c0.3-0.1,0.6-0.1,0.8-0.2s0.6-0.1,0.9-0.1l2,0.1l1.2-1.1c0.1,0,0.3-0.1,0.4-0.1
		s0.3-0.1,0.4,0c-0.4,0.3-0.6,0.7-0.7,1.2s-0.3,0.9-0.5,1.3l-0.8,0.4l-0.3,0.6h-0.1c-0.1-0.1-0.3-0.2-0.4-0.3s-0.3-0.1-0.5-0.1
		l-0.2,0.1v0.1h-0.2c-0.2-0.1-0.4-0.2-0.6-0.2s-0.5-0.1-0.7,0s-0.3,0.1-0.5,0.1s-0.3,0.1-0.4,0.2c-0.1,0.1-0.2,0.2-0.4,0.2
		s-0.3,0.1-0.4,0c-0.1,0.1-0.2,0.2-0.3,0.3s-0.2,0.1-0.4,0.1c-0.2-0.2-0.3-0.2-0.5-0.3s-0.4-0.1-0.5-0.2v-0.1l-0.9-0.6l-0.2-0.3
		v-0.4l0.1-0.4l-0.3-0.1v0.1l-0.6-0.2c-0.1-0.1-0.2-0.3-0.2-0.5s-0.1-0.4-0.1-0.5h-0.1l-0.2-0.2v-0.1V243.4L167.3,243.4L167.3,243.4
		z M167.7,243.4L167.7,243.4l-0.2,0.1l-0.1-0.1l0.4-0.3l0,0L167.7,243.4z M172.6,238.6c0.6-0.1,1.2-0.2,1.7-0.3s1.1-0.3,1.6-0.6
		l-0.5,0.3l0.4-0.2h0.1c0,0.2,0,0.4,0,0.7s-0.1,0.4-0.2,0.6l-0.4,0.2c-0.1,0.1-0.2,0.2-0.4,0.3s-0.2,0.2-0.3,0.4
		c-0.2,0.2-0.4,0.3-0.6,0.4s-0.4,0.2-0.7,0.2c-0.2,0-0.3,0-0.5,0s-0.3,0-0.5-0.1c-0.2,0-0.4,0-0.6,0s-0.4,0.1-0.6,0.2
		c-0.4-0.2-0.9-0.4-1.4-0.5s-1-0.3-1.4-0.4l-0.2-0.2v-0.4c0-0.2,0-0.4-0.1-0.6s-0.2-0.3-0.3-0.5h-0.1l0,0l0,0l0.2,0.1h2.5
		c0.3,0.1,0.6,0.2,1,0.2S172.3,238.6,172.6,238.6z"/>
	<path class="st0" d="M185.1,237.1L185.1,237.1L185.1,237.1h0.1H185.1v0.3l-0.8,0.7c-0.3,0.9-0.7,1.8-1,2.7s-0.6,1.8-0.9,2.7h-0.1
		v0.1h-0.1v0.1H181l-0.1,0.1l-0.3,0.1l-0.3,0.3h-0.1l-0.1-0.2c-0.3,0-0.5,0-0.8,0.1s-0.5,0.2-0.7,0.3l0.1-0.1l0.1-0.1l1-0.7
		c0.2-1,0.5-2,0.9-2.9s0.8-1.9,1.1-2.8v-0.6v-0.6l0.2-0.1c0.1,0,0.2,0,0.3,0s0.2,0.1,0.3,0.1v0.1l1,0.4l0.6-0.1L185.1,237.1
		L185.1,237.1z M185.2,237.8L185.2,237.8c0.8,0.2,1.5,0.3,2.2,0.5s1.5,0.3,2.2,0.3l0.4-0.2l0.1-0.4l0,0l0.2,0.3
		c-0.1,0.2-0.2,0.5-0.3,0.7s-0.1,0.5-0.1,0.8c0.2,0.4,0.3,0.9,0.3,1.3s0.1,0.9,0.1,1.4l-0.1,0.3l-0.6,0.4l-0.2,0.1
		c-0.3,0.4-0.6,0.9-0.8,1.3c-0.2,0.5-0.4,0.9-0.7,1.3l-0.6,0.4l-0.6,0.6c-0.7,0.2-1.4,0.4-2.1,0.6s-1.3,0.5-2,0.7h-0.7
		c0.3-0.3,0.6-0.5,1-0.5s0.7-0.2,1.1-0.5l0.1-0.1V247c0.3-0.2,0.7-0.4,1.1-0.6s0.7-0.3,1.1-0.6l0.3-0.4c0.1-0.2,0.2-0.4,0.1-0.6
		s0-0.4,0.1-0.6l0.7-0.4c0.4-0.4,0.7-0.9,0.8-1.5s0.1-1.1,0.1-1.7l-0.5-0.4c-0.3,0-0.7-0.1-0.9-0.2s-0.6-0.2-1-0.1h-0.2l-0.3-0.1
		v-0.1l-0.8-0.5v-0.1l-0.4-0.1h-0.1v0h-0.1v-0.4l0.7-0.6L185.2,237.8L185.2,237.8z M183.9,241.4L183.9,241.4v0.1
		c0.5,0.3,1,0.6,1.5,0.7s1,0.3,1.6,0.3v0.1l0.4,0.4v0.1h0.1v0.1l0.4,0.2c-0.1,0.1-0.2,0.1-0.4,0.2s-0.2,0.1-0.4,0.1l-0.2,0.1
		l-0.1,0.1c-0.2,0.2-0.3,0.5-0.4,0.7s-0.2,0.5-0.1,0.8l-0.3-0.2v-0.1l-0.1-0.1l-0.2-0.2h-0.1v-0.1l-0.8-0.9c-0.1-0.3-0.2-0.7-0.4-1
		s-0.3-0.6-0.5-0.9l-0.2-0.2v-0.4L183.9,241.4L183.9,241.4L183.9,241.4z M184.7,238.7L184.7,238.7l-0.5,0.1
		c-0.1-0.1-0.1-0.1-0.1-0.2s0-0.2,0-0.3l0.2-0.3h0.1l0.2-0.3l0.5-0.1l0.2,0.1l0.1,0.7l-0.5,0.4L184.7,238.7z M187.1,245.6h-0.2
		c-0.1-0.1-0.2-0.2-0.3-0.2s-0.2-0.1-0.3-0.1v-0.6l0.5-1.2c0.2-0.1,0.4-0.1,0.6-0.1s0.4,0,0.6,0l0.3,0.2v0.3L187.1,245.6z"/>
	<path class="st0" d="M191.8,241.3L191.8,241.3c0.1,0.2,0.3,0.3,0.5,0.3s0.4,0.1,0.6,0.1h2h0.2l0.6-0.2l0.2-0.2h0.1
		c0.3,0.1,0.6,0.2,0.9,0.2s0.6,0,1,0l0.3-0.1v-0.1c0.2,0,0.4-0.1,0.6-0.1s0.4-0.1,0.6-0.2l0.5,0.2v0.2h0.3c0.1-0.1,0.2-0.1,0.3-0.2
		s0.2-0.1,0.4,0l0.4,0.1l0.6-0.2v-0.2v0.1l0.1,0.3l0.1,0.3v0.1H202l-0.1,0.1h-0.1v0.1l-0.3,0.3l0.3,0.3v0.3h0.3h-0.8v0.4h-0.2
		c-0.2-0.1-0.3-0.2-0.5-0.2s-0.4-0.1-0.6-0.1l-0.3,0.1c-0.1-0.1-0.2-0.2-0.4-0.2s-0.3-0.1-0.4-0.1l-0.2,0.1
		c-0.1,0.1-0.3,0.1-0.4,0.1s-0.3,0-0.5,0l-1.6-0.1c-0.2,0.1-0.5,0.2-0.7,0.3s-0.5,0.2-0.8,0.1h-0.9l-0.5,0.2l-0.5,0.4h-0.2v0.1
		l-0.4-0.2l-0.3-0.3l-0.1-0.4c-0.1,0-0.1-0.1-0.1-0.1s0-0.1,0-0.2v-0.4V242l-0.1-0.3L191.8,241.3l-0.2,0c0-0.1-0.1-0.2-0.1-0.2
		s-0.1-0.1-0.2-0.2h0.1l0.8,0.3v0.4l0,0l0.1-0.1L191.8,241.3z"/>
	<path class="st0" d="M210.1,241.5L210.1,241.5L210.1,241.5l-0.2,0.2h-0.1v0.1l0.2,0.2c0,0.3,0,0.6,0,0.8s-0.1,0.5-0.1,0.8l-0.1,0.2
		h-1l-0.6,0.1h-0.3l-0.4-0.6h-0.1l-0.2-0.4c0-0.3,0-0.7,0-1s0.2-0.6,0.4-0.8c0.2,0,0.5,0,0.7-0.1s0.4-0.1,0.6-0.2
		c0.2,0,0.3,0,0.4,0.1s0.2,0.2,0.4,0.2l0.1,0.7h0.1L210.1,241.5z"/>
	<path class="st0" d="M220.4,237.3c0,0.1,0,0.2,0,0.3h-0.1L220,238l-0.1,0.1c-0.2,0.1-0.4,0.2-0.6,0.4s-0.4,0.3-0.6,0.4
		c-0.1,0-0.1,0-0.2,0s-0.1-0.1-0.2-0.2c-0.2,0-0.4,0-0.5,0s-0.3,0.1-0.4,0.3c0,0.2,0,0.5,0.1,0.7s0.2,0.4,0.3,0.6l0.6,0.8
		c0.2,0,0.4,0,0.6,0.1s0.3,0.2,0.5,0.3c0.2,0,0.3,0,0.4,0s0.3-0.1,0.4-0.2l0.1,0.2c0,0.2-0.1,0.4-0.2,0.5s-0.2,0.3-0.3,0.5l-0.3,0.2
		l-0.5-0.2l-0.2-0.2h-0.2l-0.2,0.2l-0.7-0.1l0,0l-0.1,0.4v0.2v0.5l-0.7,0.8v0.2l0.3,0.3l0,0v-0.2l0,0l-0.1,0.2c0,0.1,0,0.2,0,0.4
		s0,0.2,0.1,0.3c0.1,0.2,0.3,0.3,0.4,0.3s0.3,0.1,0.5,0.2l0.6-0.1c0.2,0,0.5,0,0.7,0.1s0.4,0.2,0.6,0.3h0.5l0.1-0.3
		c0,0.2,0,0.3,0,0.5s0,0.3-0.1,0.4l0.1,0.8v0.2L220,248c-0.7-0.1-1.3-0.1-2-0.1s-1.3-0.1-1.9-0.4c-0.2,0-0.5,0-0.7,0.1
		s-0.4,0.2-0.5,0.4l-0.2-0.1c0.2-0.5,0.5-1.1,0.7-1.7s0.4-1.2,0.4-1.8v-1.9c0.2-0.2,0.2-0.5,0.2-0.9s0-0.6,0-1
		c0-0.6-0.1-1.1-0.3-1.6s-0.2-1.1-0.2-1.6v-0.2c0.2,0.2,0.3,0.2,0.6,0.2s0.4,0,0.6,0c0.3,0,0.6,0,0.8,0s0.5-0.1,0.7-0.3h1.1h0.9V237
		h0.1C220.4,237,220.4,237.2,220.4,237.3z"/>
	<path class="st0" d="M224.3,237.5c0,0.3,0,0.5,0,0.8l0.6,0.6c0.2,0,0.3,0,0.4-0.1s0.2-0.1,0.4-0.2h0.2c0,0.3,0,0.6,0,0.8
		s0.2,0.5,0.3,0.7v0.4c-0.2,0-0.4,0-0.7,0s-0.4-0.1-0.6-0.2H224l0.1,0.2l0.4,0.8c0.3,0.7,0.6,1.3,0.8,2s0.4,1.4,0.7,2.1l-0.2-0.1
		l-0.1-0.1V245l-1.4-1.2l0,0c0,0.1,0,0.1,0,0.2s0.1,0.1,0.2,0.1c0.1,0.2,0.2,0.3,0.2,0.5s0,0.4,0,0.6h0.1l0.5,1.1
		c0,0.3,0,0.6-0.1,0.9s-0.1,0.6-0.1,0.9l-0.3-0.2c-0.2,0-0.4,0-0.7,0s-0.4,0-0.6,0.1h-0.2c0.1-0.4,0.1-0.7,0.3-1.1s0.1-0.7,0.1-1.1
		v-1.9c-0.1,0.2-0.1,0.4-0.3,0.7s-0.2,0.4-0.4,0.7c-0.2,0.2-0.3,0.4-0.5,0.6s-0.4,0.4-0.7,0.4c0.2-0.8,0.4-1.5,0.4-2.3
		s0.2-1.5,0.4-2.3v-1.3l-0.9,0.4l0,0c0-0.4,0-0.8-0.1-1.2s-0.2-0.8-0.4-1.1l0.1,0.1l0.4,0.2h1.7l-0.6-1.8v-0.2l0.6,0.2
		c0.2,0,0.4,0,0.5,0s0.3-0.1,0.4-0.2C224.3,237,224.3,237.2,224.3,237.5z M230.8,237.1v0.2l-0.2-0.2v0.3l-0.4,0.3c0,0.1,0,0.2,0,0.4
		s0,0.2,0.1,0.3c0.3,0,0.7,0,1,0s0.6-0.2,0.8-0.3l0,0v1.7l-0.8-0.1c-0.2,0-0.4,0-0.5,0s-0.3,0.1-0.5,0.2l0.2,0.7l0.3,0.3
		c0.2,0,0.4-0.1,0.5-0.1s0.3-0.1,0.5-0.2h0.1v1.7c0,0.4,0,0.7,0,1.1s0.1,0.7,0.2,1v0.5c-0.3,0-0.6-0.1-0.8-0.2s-0.5-0.2-0.8-0.3
		h-0.1c0.2,0.4,0.5,0.8,0.6,1.3s0.3,0.9,0.4,1.4c0.1,0.2,0.2,0.4,0.4,0.6s0.3,0.3,0.6,0.4l-1.1-0.7v-0.1l-0.2-0.1V247l-0.2-0.1
		c-0.1-0.2-0.2-0.3-0.4-0.5s-0.2-0.3-0.3-0.5l0,0l0.1,0.7c0,0.2,0,0.5-0.1,0.7s-0.1,0.5-0.2,0.7c-0.2,0-0.3,0-0.5,0
		s-0.3,0.1-0.4,0.2l-0.1-2.3l-0.8,0.5l-0.4,0.3l-0.2,0.4l-0.2,0.1l-2,0.8l0.6-0.5l0.1-0.1h0.1l1.2-1.2l0.1-0.1h0.1
		c0.1-0.2,0.2-0.3,0.3-0.4s0.3-0.2,0.4-0.3l0.1-0.1l0.2-0.1v-0.9l-0.4-0.1c-0.2,0-0.4,0-0.6,0.1s-0.4,0.2-0.6,0.4l0,0l0.1-0.3
		c0-0.4-0.1-0.9-0.2-1.3s-0.1-0.9-0.2-1.3V241c0.3-0.1,0.6-0.1,1-0.1s0.7,0,1,0v-1.2c-0.3,0-0.6,0-0.8,0.1s-0.5,0.2-0.8,0.3l0,0
		c0-0.3,0-0.6-0.1-0.9s-0.1-0.6-0.3-0.9v-0.2c0.4,0.1,0.8,0.2,1.2,0.2s0.8,0.1,1.2,0.3l-0.4-1.5V237h0.1c0.3,0,0.7,0,1-0.1
		s0.6-0.1,1-0.2h0.1L230.8,237.1z M228.5,243v0.1l-0.3-0.2h-0.3v0.1l-0.2,0.1l0.1,0.3l0.2,0.2l0.3-0.1L228.5,243z M228.3,242
		l-0.1-0.3l-0.1-0.1l-0.4,0.1c0,0.1,0,0.2,0,0.4s0.1,0.2,0.2,0.3h0.2v-0.1L228.3,242z M231.1,242v-0.3l-0.3-0.1c-0.1,0-0.2,0-0.3,0
		s-0.1,0.1-0.2,0.2c0,0.1,0,0.2,0,0.3s0,0.2,0.1,0.2l0.1,0.1l0.5-0.2L231.1,242z M230.8,244v0.1l0.3-0.5v-0.1l-0.5-0.4h-0.2
		l-0.1,0.2l0.1,0.6l0.2,0.1l0.1,0.2L230.8,244L230.8,244z"/>
	<path class="st0" d="M241.9,237.5l0.6-0.3l0,0c0.2-0.1,0.3-0.1,0.5-0.1s0.4-0.1,0.5-0.2v-0.1l0.3-0.1h0.1h0.1c0,0.4,0,0.7,0,1.1
		s0.1,0.7,0.2,1c0,1.6-0.3,3.1-0.8,4.5s-0.8,3-0.9,4.5l-0.2,0.2v0.2h-0.1l-0.3,0.4c-0.1,0-0.2,0-0.4,0s-0.2,0-0.3-0.1l-0.1-0.9
		c-0.2,0.1-0.4,0.1-0.6,0.2s-0.4,0.1-0.6,0.1l-1.9-0.1h-0.7l-0.9-0.1c-0.1,0-0.3,0-0.4,0s-0.3,0-0.4,0.1l-0.3,0.1h-0.1l-0.4,0.3
		l-0.4-0.1l-0.1-0.3l-0.2,0.1h-0.2l-0.1-0.1c-0.2-0.4-0.3-0.8-0.3-1.2s-0.1-0.8-0.4-1.1l-0.2-0.2v-0.1v-0.4c0.8,0.3,1.6,0.6,2.4,0.8
		s1.7,0.3,2.5,0.4c0.4,0,0.7,0,1.1,0s0.7-0.1,1-0.2c0.3-0.2,0.5-0.5,0.6-0.9s0.2-0.7,0.3-1l-0.1-1c0-0.4,0.1-0.8,0.3-1.1
		s0.4-0.7,0.5-1h0.1c0.1-0.2,0.2-0.4,0.3-0.7s0.2-0.4,0.2-0.7v-0.2c-0.2,0-0.3,0-0.5,0s-0.3,0.1-0.4,0.2v0.1
		c-0.3,0.2-0.7,0.4-1.1,0.5s-0.7,0.4-1.1,0.5c-0.1,0-0.2,0-0.3,0s-0.2,0-0.3-0.1c-0.2,0-0.3,0-0.5,0s-0.2,0.1-0.4,0.2l-0.4,0.9
		l-0.4,0.3c-0.1,0-0.3,0-0.4,0s-0.3,0-0.3-0.2s0-0.3-0.1-0.4s-0.1-0.3-0.2-0.4l-0.6-0.7c-0.2,0-0.3,0.1-0.4,0.3s-0.2,0.3-0.4,0.5
		l-0.3-0.1c-0.1-0.6-0.2-1.2-0.5-1.9s-0.5-1.2-0.9-1.8V237c0.5,0.2,1,0.5,1.5,0.7s1.1,0.4,1.6,0.5c0.6-0.1,1.2-0.2,1.9-0.4
		s1.2-0.3,1.9-0.4h1.9L241.9,237.5L241.9,237.5z"/>
	<path class="st0" d="M251.8,241.8L251.8,241.8c0.1,0.2,0.2,0.4,0.4,0.6s0.3,0.4,0.4,0.7c0,0.1,0,0.2,0,0.3s-0.1,0.2-0.2,0.2
		c-0.6-0.2-1.1-0.3-1.7-0.5s-1.2-0.2-1.9-0.2l-0.4-0.2h-0.1c0-0.2,0-0.4,0-0.7s-0.1-0.4-0.3-0.6h-0.1v-0.1l-0.8-0.2V241H247l0,0h0.8
		c0.3,0,0.7,0,1.1,0s0.7-0.1,0.9-0.3h0.6l0.1,0.1l0.3,0.1l0.1,0.1c0.2,0.1,0.3,0.1,0.5,0.2s0.3,0.2,0.5,0.2L251.8,241.8z
		 M253.1,237.8l-0.6-0.1L253.1,237.8c0.1,0.2,0.2,0.4,0.3,0.7s0.3,0.5,0.4,0.7l-0.1,1.1c-0.5,0-0.9-0.1-1.3-0.1s-0.8-0.1-1.2-0.3
		v-0.1h-0.1c-0.1-0.2-0.2-0.3-0.3-0.5s-0.1-0.4-0.3-0.5l-1.2-0.6v-0.1c-0.3-0.1-0.5-0.2-0.8-0.3s-0.5-0.3-0.7-0.4v-0.1l-0.7-0.2
		c1-0.1,2,0.1,2.9,0.4s1.9,0.5,2.9,0.5h0.2V237.8z M249.9,244.9c0.3,0,0.6,0,0.9,0.1s0.5,0.2,0.7,0.3l0.4,0.1l0.1,0.1l0.6,0.2
		l0.3,0.5c-0.2,0.3-0.4,0.6-0.3,1s0,0.7-0.2,1h-0.7l-0.2-0.3c-0.2-0.1-0.4-0.1-0.6-0.1s-0.4,0-0.6-0.1l-1-1.2
		c-0.2-0.2-0.5-0.3-0.8-0.4s-0.5-0.3-0.8-0.4v-0.1l-0.4-0.2l0,0c0.4-0.1,0.8-0.1,1.3-0.1S249.5,245.1,249.9,244.9z"/>
	<path class="st0" d="M263.1,239.9l0.1-0.1v0.3c0,0.2,0,0.4,0,0.6s0.1,0.4,0.2,0.5c0,0.1,0,0.2,0,0.3s0,0.2-0.1,0.3
		c0,0.1,0,0.3,0,0.4s0,0.3,0.1,0.4c0,0.4,0,0.8-0.1,1.1s-0.2,0.7-0.4,1h-0.1l-0.2,0.4h-0.1c-0.1,0.2-0.1,0.3-0.2,0.5
		s-0.1,0.3-0.1,0.5c0.4,0.2,0.7,0.3,1.1,0.4s0.8,0.1,1.2,0.1l0,0l-0.1,0.2h-0.1l-0.2,0.4l-0.1,0.2h0l-0.2,0.3h-0.1v0.1l-0.6,0.1
		c-0.5-0.2-1-0.3-1.6-0.3s-1.1-0.1-1.6-0.1l-0.6,0.2v0.1h-0.4h-1.3h-0.1l-0.1-0.2l-0.3-0.1c-0.1-0.1-0.1-0.2-0.2-0.4
		s-0.1-0.2-0.1-0.4l-0.2-0.3v-0.2l0,0l0,0h0.1h0.1c0.4,0.2,0.8,0.3,1.2,0.5s0.8,0.2,1.3,0.1c0.2,0,0.4,0,0.6-0.1s0.4-0.1,0.5-0.3
		l0.1-0.1c0.1-0.1,0.2-0.2,0.3-0.1s0.2,0,0.3,0v0.1h0.1c0.1,0,0.1-0.1,0.2-0.1h0.2c0.1-0.1,0.1-0.1,0.2-0.1c0,0,0.1,0,0.2,0l0.3,0.1
		v-0.1c-0.1,0-0.2,0-0.3,0s-0.1,0-0.2,0.1c-0.1,0-0.1,0-0.2,0s-0.1,0.1-0.2,0.1h-0.1h-0.1l0.1-0.2h0.1l0.6-1.8l0.3-0.6l-0.2-1.2
		c0-0.1,0-0.2,0-0.4s0-0.2,0.1-0.3v-0.2l-0.3-0.1c-0.2,0-0.3,0-0.4,0.1s-0.2,0.2-0.4,0.2h-0.3c-0.3,0-0.6,0-0.9,0s-0.6,0.1-0.9,0.2
		l0,0v-0.6h-0.1l-0.3-0.8h-0.1h0.1l0,0l0.7,0.2c0.2,0,0.5-0.1,0.7-0.3s0.4-0.3,0.7-0.3h2L263.1,239.9L263.1,239.9z M256.8,246.3
		L256.8,246.3L256.8,246.3L256.8,246.3z M261.1,246.7L261.1,246.7l0.1-0.2l0.2-0.2l0.1-0.1l0.2-0.2h0.1c0.1,0.1,0.2,0.2,0.3,0.4
		s0.2,0.3,0.2,0.4h-0.7L261.1,246.7z"/>
	<path class="st0" d="M265.8,243.2L265.8,243.2L265.8,243.2L265.8,243.2z M266.1,243.4L266.1,243.4h0.2h0.1l0,0l0.1-0.1
		c0.8,0.1,1.6,0.3,2.4,0.5s1.6,0.5,2.4,0.9c0.3-0.1,0.6-0.1,0.8-0.2s0.6-0.1,0.9-0.1l2,0.1l1.2-1.1c0.1,0,0.3-0.1,0.4-0.1
		s0.3-0.1,0.4,0c-0.4,0.3-0.6,0.7-0.7,1.2s-0.3,0.9-0.5,1.3l-0.8,0.4l-0.3,0.6h-0.1c-0.1-0.1-0.3-0.2-0.4-0.3s-0.3-0.1-0.5-0.1
		l-0.2,0.1v0.1h-0.2c-0.2-0.1-0.4-0.2-0.6-0.2s-0.5-0.1-0.7,0s-0.3,0.1-0.5,0.1s-0.3,0.1-0.4,0.2c-0.1,0.1-0.2,0.2-0.4,0.2
		s-0.3,0.1-0.4,0c-0.1,0.1-0.2,0.2-0.3,0.3s-0.2,0.1-0.4,0.1c-0.2-0.2-0.3-0.2-0.5-0.3s-0.4-0.1-0.5-0.2v-0.1l-0.9-0.6l-0.2-0.3
		v-0.4l0.1-0.4l-0.3-0.1v0.1l-0.6-0.2c-0.1-0.1-0.2-0.3-0.2-0.5s-0.1-0.4-0.1-0.5H266l-0.2-0.2v-0.1v-0.2L266.1,243.4L266.1,243.4z
		 M266.5,243.4L266.5,243.4l-0.2,0.1l-0.1-0.1l0.4-0.3l0,0L266.5,243.4z M271.4,238.6c0.6-0.1,1.2-0.2,1.7-0.3s1.1-0.3,1.6-0.6
		l-0.5,0.3l0.4-0.2h0.1c0,0.2,0,0.4,0,0.7s-0.1,0.4-0.2,0.6l-0.4,0.2c-0.1,0.1-0.2,0.2-0.4,0.3s-0.2,0.2-0.3,0.4
		c-0.2,0.2-0.4,0.3-0.6,0.4s-0.4,0.2-0.7,0.2c-0.2,0-0.3,0-0.5,0s-0.3,0-0.5-0.1c-0.2,0-0.4,0-0.6,0s-0.4,0.1-0.6,0.2
		c-0.4-0.2-0.9-0.4-1.4-0.5s-1-0.3-1.4-0.4l-0.2-0.2v-0.4c0-0.2,0-0.4-0.1-0.6s-0.2-0.3-0.3-0.5h-0.1l0,0l0,0l0.2,0.1h2.5
		c0.3,0.1,0.6,0.2,1,0.2S271,238.6,271.4,238.6z"/>
	<path class="st0" d="M289,239.4l-0.1,0.1l0,0c0,0.3,0,0.7,0,1s-0.2,0.6-0.4,0.8l-0.3,0.3L288,242l-0.3,0.3l-0.1,0.1v-0.2
		c-0.3,0-0.6,0.1-0.8,0.2s-0.5,0.2-0.8,0.3h-0.3c0,0.3,0,0.6,0,0.9s0,0.6-0.2,0.9l-0.1,0.1l-0.2,0.1v0.1h-0.1L285,245h-0.1v0.1
		c-0.2,0.2-0.3,0.5-0.4,0.8s-0.1,0.6-0.2,0.9h-0.1l-0.6,0.8h-0.1l-0.1,0.3h-0.1l-0.4,0.4l0,0v-0.1l0.1-0.1l-0.3-0.4h-0.1v0.2h-0.1
		v0.1l-0.5,0.3c-0.3-0.1-0.7-0.2-1.1-0.2s-0.8,0-1.1,0l1-0.2l0.2-0.4h0.1v-0.1l0.3-0.3l0.2-0.2l0.6-0.7l0.2-0.2
		c0.4-0.5,0.6-1,0.8-1.6s0.4-1.1,0.7-1.5l0,0l0.1-0.1l0.1-0.1l0,0l0.5-0.4c0.1,0,0.2,0,0.3,0c0,0,0,0-0.1,0s-0.2,0-0.3,0
		s-0.2,0.1-0.2,0.2l-0.1,0.1l-0.3,0.2l-1.5,0.6h-0.2l-0.1-0.1H282l-0.1-0.1v-0.1l-0.4-0.2c-0.1,0-0.2,0-0.4,0s-0.2,0.1-0.2,0.2
		l-0.4,0.2l-0.3-0.2V243H280l-0.2-0.2c-0.2-0.2-0.3-0.4-0.3-0.6s-0.1-0.4-0.2-0.6l-0.7-0.3c-0.1-0.2-0.1-0.3-0.1-0.5s0-0.3,0-0.5
		L278,240l0,0h-0.1l-0.1-0.1l0,0h0.1l0.1,0.1h0.2v-0.2l0.4,0.1l0.1,0.3l0.1,0.1v0.1c0.2,0.1,0.5,0.2,0.8,0.3s0.6,0.1,0.9,0.2h0.7
		h4.5c0.5-0.2,1-0.3,1.5-0.5s1-0.4,1.4-0.7l0.1-0.1h0.3V239.4z M280.7,237.4L280.7,237.4c0.5,0,0.9-0.1,1.3-0.1s0.8-0.1,1.3-0.1
		l1.1,0.2h0.1v-0.1c0.2-0.2,0.5-0.3,0.8-0.3s0.6-0.1,0.9,0h0.6h0.1l-0.3,0.6h-0.1c-0.1,0.2-0.2,0.4-0.3,0.6s-0.2,0.4-0.3,0.6
		c-0.2,0-0.4,0-0.7,0s-0.4,0-0.6,0.1l-0.4,0.5l-0.2,0.3l-0.4-0.8h-0.2h-0.1l-0.1,0.2c-0.2-0.2-0.5-0.4-0.9-0.4s-0.7-0.1-1-0.1
		l-0.3,0.3l-0.5-0.3l-0.1-0.1l-0.2-0.2c-0.1-0.1-0.1-0.2-0.1-0.3s0-0.2,0-0.4h0.5L280.7,237.4l0.5,0.3L280.7,237.4z M284.2,243.1
		L284.2,243.1l-0.2-0.7c0.2-0.1,0.3-0.2,0.6-0.3s0.4-0.1,0.7-0.1l0.3,0.5h0.1v0.2l-0.1,0.1v0.1h-0.1v0.1h-0.1l-0.3,0.2L284.2,243.1z
		 M285.4,242.5c-0.1-0.1-0.2-0.1-0.3-0.1s-0.1,0-0.1,0C285.2,242.5,285.3,242.5,285.4,242.5L285.4,242.5z M287,236.7l-0.1,0.1
		L287,236.7L287,236.7L287,236.7z"/>
	<path class="st0" d="M294.5,240.9c0.3-0.2,0.6-0.3,0.8-0.5s0.5-0.3,0.8-0.4l0,0l0.3,0.1l0.3-0.1h0.2c0,0.4-0.1,0.8-0.3,1.2
		s-0.4,0.7-0.6,1.1l-0.3,0.2l-0.3-0.5l-0.4,0.2l0.1,0.1c0.1,0.3,0.1,0.5,0.2,0.8s0.1,0.6,0.2,0.8c0,0.2,0,0.4-0.1,0.6
		s-0.2,0.3-0.2,0.5l0.1,0.7c0,0.2,0,0.5,0,0.7s-0.1,0.4-0.1,0.7h-0.1l-0.3,0.3c-0.1,0.2-0.2,0.4-0.2,0.6s-0.1,0.4-0.1,0.6l-0.1,0.1
		l0,0l-0.1-0.3v0.2l-0.1,0.1h-0.1v-0.2l-0.2-0.1l-0.1-0.2v-1.8c0-0.1,0-0.3-0.1-0.4s-0.1-0.2-0.1-0.3c0-0.2,0.1-0.4,0.2-0.6
		s0.2-0.4,0.3-0.6l-0.2-0.8c0-0.1,0-0.3,0-0.4s0.1-0.2,0.1-0.3h0.1l0.3-0.2c-0.2,0-0.3,0.1-0.4,0.2h-0.1l-0.2,0.4
		c-0.1,0.1-0.2,0.2-0.3,0.3s-0.2,0.2-0.3,0.2l-0.2,0.3l-0.7,0.9l-0.2,0.1l-0.4-0.1h-0.3v0.4l-0.2,0.1v0.1l-0.2,0.1l0,0v-1.1
		c0-0.1-0.1-0.2-0.2-0.2s-0.2-0.1-0.3-0.2l0.1-0.4c0-0.1,0-0.2,0-0.3s0-0.2-0.1-0.2v-0.1h-0.1v-0.1l-0.2-0.1l0,0
		c0.4-0.2,0.8-0.2,1.2-0.3s0.8-0.1,1.2-0.2l0.2-0.2l0.2-0.2l1.2-0.8v-0.1L294.5,240.9L294.5,240.9z M294.9,241.9L294.9,241.9
		L294.9,241.9L294.9,241.9z"/>
	<path class="st0" d="M302.4,238.1h-0.2l0.1,0.2h0.1c0.1,0.2,0.3,0.5,0.4,0.8s0.3,0.5,0.3,0.8c0,0.9-0.2,1.9-0.4,2.8
		s-0.6,1.8-1.1,2.6l-0.5,0.6l-0.6,0.4l-0.2,0.1l0.2,0.6l-0.1,0.3c-0.4,0-0.8,0.1-1.1,0.2s-0.7,0.2-1,0.4l0.2-0.2l0.4-0.5l0.1-0.1
		h0.1V247h0.1c0.3-0.8,0.7-1.5,1.1-2.2s0.7-1.5,0.9-2.3c-0.1-0.8-0.1-1.5-0.1-2.2s-0.2-1.4-0.5-2.1c0.3,0.1,0.6,0.1,0.8,0.1
		s0.5,0,0.7,0.1l0,0l0,0C302.3,238,302.3,238,302.4,238.1z M305.5,237.4h0.3h-0.1c0,0.2,0,0.3,0,0.5s0.1,0.3,0.2,0.4v3.5
		c0.1,0.3,0.1,0.6,0.2,0.8s0.1,0.5,0.2,0.8c0,0.3,0,0.7,0,1.1s-0.1,0.7-0.2,1h0.1v-0.1l0.3-0.4l1.5-0.9l0.4-0.9c0-0.2,0-0.5,0-0.7
		s-0.1-0.4-0.1-0.7v-0.2h0.1c0.1,0.1,0.2,0.2,0.3,0.3s0.2,0.2,0.3,0.4l0.2-0.3l0,0c0,0.2,0,0.5-0.1,0.7s-0.2,0.4-0.3,0.6l0.3,0.8
		c0,0.2,0,0.4,0,0.6s0,0.4-0.1,0.5l-1.1,0.7v0.1h-0.1l-0.1,0.3l-0.1,0.1c-0.2,0.2-0.4,0.3-0.6,0.5s-0.4,0.3-0.7,0.3h-1
		c-0.1,0-0.3,0-0.4,0.1s-0.2,0.1-0.3,0.2l-0.2-0.2v-0.1c0-0.2,0.1-0.5,0.2-0.7s0.1-0.4,0.2-0.6v-2.4l0.2-1c0.1-0.5,0-1-0.3-1.4
		s-0.4-0.9-0.5-1.4H304l0.1-1.6l-0.3-0.8v-0.1l0,0h0.3c0.1,0,0.3,0,0.5,0s0.3,0.1,0.4,0.3L305.5,237.4z M306,237.4h-0.2h0.1H306z"/>
	<path class="st0" d="M311,241.3L311,241.3c0.1,0.2,0.3,0.3,0.5,0.3s0.4,0.1,0.6,0.1h2h0.2l0.6-0.2l0.2-0.2h0.1
		c0.3,0.1,0.6,0.2,0.9,0.2s0.6,0,1,0l0.3-0.1v-0.1c0.2,0,0.4-0.1,0.6-0.1s0.4-0.1,0.6-0.2l0.5,0.2v0.2h0.3c0.1-0.1,0.2-0.1,0.3-0.2
		s0.2-0.1,0.4,0l0.4,0.1l0.6-0.2v-0.2v0.1l0.1,0.3l0.1,0.3v0.1h-0.1l-0.1,0.1H321v0.1l-0.3,0.3l0.3,0.3v0.3h0.3h-0.8v0.4h-0.2
		c-0.2-0.1-0.3-0.2-0.5-0.2s-0.4-0.1-0.6-0.1l-0.3,0.1c-0.1-0.1-0.2-0.2-0.4-0.2s-0.3-0.1-0.4-0.1l-0.2,0.1
		c-0.1,0.1-0.3,0.1-0.4,0.1s-0.3,0-0.5,0l-1.6-0.1c-0.2,0.1-0.5,0.2-0.7,0.3s-0.5,0.2-0.8,0.1H313l-0.5,0.2l-0.5,0.4h-0.2v0.1
		l-0.4-0.2l-0.3-0.3L311,243c-0.1,0-0.1-0.1-0.1-0.1s0-0.1,0-0.2v-0.4V242l-0.1-0.3l0.1-0.4h-0.1c0-0.1-0.1-0.2-0.1-0.2
		s-0.1-0.1-0.2-0.2h0.1l0.8,0.3v0.4l0,0l0.1-0.1L311,241.3z"/>
	<path class="st0" d="M327.6,238.1L327.6,238.1l0.1,0.4l0.3,0.2c0,0.3-0.1,0.7-0.1,1s-0.2,0.6-0.5,0.9h-0.1l-0.7,0.6l-0.1,0.1h-0.1
		c-0.2,0.3-0.3,0.6-0.4,1s-0.1,0.7-0.3,1c-0.2,0.1-0.3,0.2-0.5,0.3s-0.4,0.2-0.6,0.3c-0.2,0.3-0.3,0.6-0.4,1s-0.2,0.6-0.4,0.9
		l-0.4,0.3c0.2-0.1,0.4-0.1,0.7-0.1c0.1-0.1,0.3-0.1,0.4-0.2l-0.4,0.2c0.5-0.1,0.9-0.3,1.4-0.6l-0.8,0.4c0.3-0.1,0.5-0.3,0.8-0.5h2
		c0.2,0.1,0.5,0.2,0.7,0.2s0.5,0.1,0.8,0s0.6-0.2,0.9-0.3s0.6-0.2,0.9-0.4l0.1-0.2c-0.3,0-0.6,0-0.8-0.1s-0.5-0.3-0.7-0.5
		s-0.3-0.4-0.3-0.7s0-0.5,0-0.8v-0.4c0.2,0.2,0.5,0.4,0.7,0.6s0.6,0.4,0.9,0.5h0.2v0.1l0.5,0.2v0.1l0.2,0.1l0.8,1.5l0.2,0.2
		c0.1,0.2,0.2,0.4,0.3,0.6s0.2,0.4,0.3,0.7l-0.5,0.5h0.3v0.1l-0.2,0.2h-0.1l-0.2,0.2l-0.1-0.3h-0.1v0.1h-0.1l-0.3,0.3h-0.1l-0.2-0.6
		l-0.3-0.3v-0.1c-0.5-0.1-1.1-0.2-1.6-0.3s-1.1-0.2-1.6-0.2c-0.3,0.1-0.6,0.1-0.9,0.2s-0.6,0.1-0.9,0.2c-0.2-0.1-0.4-0.1-0.6-0.1
		s-0.4,0-0.6,0l-0.2,0.1v0.1h-0.7c-0.2-0.2-0.4-0.3-0.6-0.3s-0.4-0.1-0.6,0l0.4-0.2l0.4-0.3c-0.4,0.1-0.7,0.3-1,0.5
		c0.1,0,0.1,0,0.2,0l-0.6,0.2H322h0.1v-0.1h0.1l0.6-0.6c0.2-0.4,0.4-0.8,0.5-1.1s0.3-0.8,0.6-1.1h0.1v-0.3h0.1
		c0.1-0.2,0.1-0.4,0.2-0.6s0.1-0.4,0.1-0.6V240l0.2-1.5l-0.1-0.8c0-0.1,0-0.3,0-0.4s0-0.2,0.1-0.3c0.5,0.1,1,0.3,1.5,0.5
		s0.9,0.4,1.3,0.6l0,0l0,0H327.6z M324.9,245.8c-0.1,0-0.1,0.1-0.2,0.1L324.9,245.8z M329.4,242.1L329.4,242.1c0,0-0.1,0-0.1-0.1
		v-0.1l0,0L329.4,242.1z"/>
	<g>
		<path class="st0" d="M51.6,222.6l0.4-0.3v-0.1h0.2l0.1-0.2h0.1l-0.2,0.4c0,0.2,0.1,0.5,0.2,0.7s0.2,0.4,0.3,0.6l0,0.8l0,1.8
			l-0.2,1.5c0,0.3,0,0.7,0,1s0.2,0.6,0.3,0.9c0,0.3,0,0.6-0.1,0.9s-0.2,0.5-0.3,0.8l0,0.5l0.4,0.5l0.4,0.8l-0.7-0.3l-0.9,0l-0.3,0.3
			c-0.5,0-1,0-1.5-0.1s-1-0.2-1.5-0.3c-0.2,0-0.4,0-0.7,0s-0.5,0.1-0.7,0.1l-0.7,0l-0.1-0.1l-0.8-0.2l-0.4,0.2c-0.1,0-0.2,0-0.4,0
			s-0.2-0.1-0.3-0.2l-0.8,0.6l-0.2,0.4h0c0.2-0.8,0.5-1.5,0.7-2.2s0.4-1.5,0.4-2.3l-0.1-1l0.1-1v-2.1c0-0.4-0.1-0.8-0.3-1.1
			s-0.4-0.6-0.5-1v-0.4c0.2,0,0.4,0,0.6,0.1s0.4,0.1,0.6,0.2c0.6,0,1.2,0,1.7-0.1s1.1-0.1,1.7-0.2l1.5,0h1.7L51.6,222.6z M47.1,229
			v0.3H47l-0.2,0.2l0.1,0.6l-0.1,1l-0.2,0.2c0.2,0,0.4,0,0.7,0s0.4,0,0.6-0.2V231l0.3-0.2c0.3,0,0.6,0,0.8,0s0.5,0.1,0.7,0.2l1-0.1
			c0-0.3,0-0.6-0.1-0.9s-0.2-0.5-0.3-0.8l0.1-0.6v-0.1c-0.4,0-0.8,0.1-1.2,0.2s-0.8,0.2-1.1,0.3H47L47,229v0L47.1,229z M46.6,225
			c0,0.2,0.1,0.5,0.2,0.7s0.1,0.4,0.2,0.7l-0.1,0.5h-0.1v0.1c0.3,0,0.6,0,0.9,0s0.6,0,0.9-0.1c0.3,0,0.6,0,0.8,0.1s0.5,0.3,0.7,0.4
			h0.3l0.1-1.3c0-0.1,0-0.3,0-0.4s-0.1-0.3-0.2-0.4c0-0.2,0-0.3,0.1-0.4s0.1-0.2,0.2-0.3l-0.4,0.2l-0.7-0.1c-0.4,0-0.7,0-1,0.1
			s-0.6,0.2-0.9,0.2l-0.5-0.1h-0.3L46.6,225z"/>
		<path class="st0" d="M58,223.5c0.1,0,0.2,0,0.4,0s0.2,0,0.3,0.1c0,0.4,0,0.8,0.1,1.1s0.2,0.7,0.3,1.1l0,0.8v1.9l-0.1,0.5v2.2l0,0
			v0.1c-0.5-0.1-0.9-0.2-1.4-0.4s-0.9-0.3-1.4-0.4l-0.3,0l-0.1,0.2h-0.1l-0.5,0.7c0.1-0.2,0.1-0.3,0.1-0.5s0-0.4,0.1-0.5
			c0-0.3,0-0.7,0-1.1s-0.1-0.7-0.2-1v-2.4c-0.1-0.3-0.1-0.6-0.2-1s-0.1-0.7-0.2-1l0-0.4c0.2,0,0.3,0,0.4,0s0.2,0.1,0.3,0.2
			c0.3,0,0.7,0,1.1,0s0.7-0.1,1-0.3h0.1L58,223.5z M56.6,225.3L56.6,225.3c0,0.1,0,0.3,0.1,0.4s0.1,0.3,0,0.5c0.2,0,0.4,0,0.6-0.1
			s0.4-0.1,0.5-0.1l0.1-0.8V225c-0.2,0.1-0.3,0.1-0.5,0s-0.4,0-0.5,0.1L56.6,225.3z M56.9,227.9c0,0.3,0,0.5-0.1,0.8
			s-0.2,0.4-0.3,0.7l0.2-0.1l0.7,0.1h0c0-0.2,0-0.5,0-0.7s0-0.5,0.1-0.7v-0.3c-0.1,0-0.2,0-0.4,0S57,227.8,56.9,227.9L56.9,227.9
			L56.9,227.9z M63.2,226.8L63.2,226.8L63.2,226.8l0.5,0.2c0.3,0,0.6-0.1,0.9-0.2s0.6-0.3,0.8-0.4l0.5,0l0.2,0.4
			c0,0.4,0,0.7-0.1,1.1s-0.2,0.7-0.2,1.1c-0.2,0-0.3,0-0.4-0.1s-0.2-0.2-0.3-0.3l-0.5-0.5c-0.8,0.3-1.7,0.4-2.6,0.4
			s-1.7,0.2-2.6,0.5c0.1-0.3,0.1-0.6,0.1-0.9s0.1-0.6,0.1-0.9c0.3-0.1,0.7-0.1,1.1-0.1s0.7-0.1,1-0.2l-0.1-0.8c0-0.3,0-0.7,0.1-1
			s0.2-0.6,0.3-0.9c0-0.3,0-0.6-0.1-0.8s-0.1-0.5-0.1-0.8l0-0.6l0.7-0.1h0.7l0,0.2l-0.1,2.3c0,0.4,0,0.8,0,1.2
			S63.1,226.5,63.2,226.8L63.2,226.8L63.2,226.8z M65.1,223.7c0,0.3-0.1,0.7-0.1,1s-0.1,0.6-0.2,1l-0.6-0.1c-0.7,0-1.3,0-1.9,0.1
			s-1.2,0.3-1.8,0.6h-0.2l0.5-0.8l0-0.6c0-0.1-0.1-0.1-0.1-0.2s-0.1-0.1-0.2-0.2v-0.1l0.3-0.1c0.2,0,0.4,0,0.5,0s0.3,0.1,0.5,0.1
			c0.5-0.2,1.1-0.3,1.6-0.3s1.1-0.1,1.6-0.3H65.1L65.1,223.7z M63.1,228.3L63.1,228.3L63.1,228.3l0.9,0.1l0.1,0.3h0.1l0.3,0.5l0,0.3
			l0,0.4l-0.1,0.8c0,0.2,0,0.3,0.1,0.4s0.1,0.2,0.2,0.4l-0.1,0.5l0,0.4l0,1.3c-0.2,0-0.3,0-0.5,0s-0.3,0.1-0.4,0.2
			c-0.6,0-1.1-0.2-1.6-0.4s-1-0.5-1.5-0.7c0.3,0,0.6,0,0.8,0s0.5,0.1,0.8,0.3l0.8-0.3l0.2-0.5v-3.4l-0.1-0.3c0-0.1,0-0.1,0-0.2
			s0-0.1,0.1-0.2h0L63.1,228.3z M60.7,231.4l0.1-0.2c0.2,0,0.5,0,0.7,0s0.4,0.2,0.6,0.3v0.8l-0.6-0.2l-0.1-0.2l-0.5-0.3l0-0.1
			L60.7,231.4z M65.5,229.8l0.4,0.8v0.3h-0.1v-0.1l-0.4-0.1c-0.1,0-0.2,0-0.3,0s-0.2,0-0.3,0.1c-0.2,0-0.4,0-0.6,0s-0.4-0.1-0.6-0.1
			c-0.5,0-0.9,0-1.3,0.1s-0.8,0.2-1.2,0.4l0.3-0.7l0-0.5l-0.2-0.1l-0.1-0.3v-0.1c0.3,0,0.7,0.1,1,0.2s0.6,0.2,0.9,0.4
			c0.2,0,0.4,0,0.6,0s0.4-0.1,0.6-0.1l0.8,0l0.3,0h0.4L65.5,229.8z"/>
		<path class="st0" d="M70.6,224L70.6,224L70.6,224L70.6,224L70.6,224l0.5,0.3c0,0.2,0,0.4,0,0.5s-0.1,0.3-0.2,0.5l-0.3,0.3
			c-0.2,0-0.5-0.1-0.8-0.2s-0.5-0.2-0.7-0.3c-0.1-0.1-0.1-0.1-0.1-0.2s0-0.2,0-0.3h-0.1l-0.1-0.1l0.1-0.5H69V224l0.6-0.6
			c0.2,0.1,0.4,0.1,0.5,0.2S70.4,223.9,70.6,224L70.6,224L70.6,224z M70.9,228.5l-0.4,0.2l0.4,0.3c0,0.2,0.1,0.4,0.1,0.6
			s0.1,0.4,0.1,0.6v0.4l-0.3,0.3l-1.5-0.1l-0.1-0.1l-0.1,0l0-0.1l-0.1-0.4c0-0.2,0-0.5,0-0.8s0.1-0.5,0.3-0.7l0.1,0
			c0.2,0,0.4,0,0.6,0s0.4,0.1,0.5,0.2h0L70.9,228.5z"/>
		<path class="st0" d="M77.5,225.1l-0.2,0.2l-0.3,0.4l0,0.3l0,0.6c0,0.3,0,0.7,0.1,1s0.2,0.6,0.4,0.9l-0.2,1c0,0.3,0,0.5,0.1,0.8
			s0.2,0.5,0.4,0.7l0,0.4v0.3l0.6,0.8l0.1,0l0.2,0.5l0,0.3c-0.1,0-0.1,0-0.2-0.1s-0.1-0.1-0.1-0.2l-0.1,0c-0.2,0-0.3,0-0.5,0
			s-0.3,0-0.4,0.2c-0.1,0-0.3,0-0.4,0s-0.3,0-0.4-0.1l-0.8,0.2v0.1h-0.1v0.1l-0.1,0H75l-0.2-0.3h-0.1l0-0.1v-0.2l0.6-0.2l0.3-0.3
			v-0.1l0.1-0.1v-0.1l0.2-0.1h0.1c0.1-0.2,0.2-0.3,0.2-0.5s0.1-0.3,0.3-0.4c0-0.3,0-0.7,0-1s0-0.7-0.2-0.9c-0.1-0.6-0.1-1.1-0.2-1.7
			s-0.2-1.1-0.5-1.5l-0.1-0.1l-0.1-0.2h-0.1l0,0.3c-0.2-0.1-0.4-0.1-0.5-0.2s-0.3-0.1-0.4-0.2l0.1-0.3l0.3-0.2
			c0.2-0.3,0.3-0.6,0.4-0.9s0.3-0.6,0.4-0.9h0.1v-0.1h0.1l0.3-0.3l0.1-0.1l0.4-0.2l0.5-0.4h0.2c0.2,0.2,0.3,0.4,0.3,0.7
			s0,0.5,0.2,0.7L77.5,225.1z"/>
		<path class="st0" d="M84.9,230.9L84.9,230.9l0,0.2l0,0.7l-0.5,0.2l-0.1,0.6l-0.5,0.4h-0.1l-0.2,0.2l-0.1,0l-0.2-0.4
			c-0.4,0-0.7,0-1.1-0.1s-0.7-0.2-1-0.3c-0.3,0-0.5,0-0.8,0.2s-0.4,0.3-0.7,0.4l0.2-0.7l0-0.4c0.1-0.4,0.2-0.9,0.5-1.2
			s0.4-0.8,0.6-1.2c0.1,0,0.2,0,0.2-0.1s0.1-0.1,0.2-0.1c0.2-0.4,0.4-0.7,0.6-1.1s0.4-0.7,0.7-1l-0.1-0.8c0-0.3,0.1-0.5,0.2-0.8
			s0.2-0.5,0.3-0.7h0c-0.2,0.2-0.4,0.4-0.7,0.4s-0.6,0.1-0.8,0.2l-0.2,0l0-0.1v0l0,0.1l-0.2,0.2l0.1,0.4l0,0.5l-0.4,0l-0.1-0.8
			c-0.1-0.1-0.1-0.2-0.2-0.3s-0.2-0.2-0.3-0.2c0-0.1,0-0.2,0-0.3s0-0.2-0.1-0.3l0-0.7H80c0.3-0.2,0.5-0.4,0.7-0.6s0.4-0.5,0.6-0.7
			l0.3-0.1c0.4,0.1,0.8,0.2,1.1,0.3s0.8,0.2,1.1,0.4l0,0.2h0.1l0.1,0.2c0.1,0.4,0.2,0.9,0.1,1.4s0,0.9,0.2,1.4c0,0.2,0,0.3,0,0.4
			s-0.1,0.3-0.2,0.4l-0.1,0v0.1l-0.5,0.2c-0.1,0.2-0.1,0.3-0.2,0.5s-0.1,0.4-0.1,0.6h-0.1c0,0.3-0.1,0.7-0.3,0.9s-0.3,0.6-0.4,0.9
			l-0.1,0l1.1,0.5l0.8-0.1L84.9,230.9L84.9,230.9z"/>
		<path class="st0" d="M90.1,222.6l0.1,0h0L90.1,222.6L90.1,222.6l0.1,0.4h0.1v0.1l0.3,0.1l0.2,0.8h0.4c-0.1,0.7-0.3,1.4-0.5,2.1
			s-0.6,1.3-1,1.9l-0.1,0l-0.1,0.2l-0.5,0.5c-0.1,0.6-0.3,1.1-0.6,1.6s-0.6,1-0.8,1.5l0,0.1l-0.1,0.2l-0.9,0.5l-0.1,0.2h-0.1
			l-0.2,0.3h0l-0.1-0.8l0,0l-0.1-0.2v-0.7h0.1l0-0.1v-0.1l-0.2-0.1l-0.4,0.2h0l0.2-0.5l0.6-0.3c0.1-0.1,0.3-0.2,0.4-0.3
			s0.2-0.2,0.3-0.3l0.1,0l0.1-0.2l0.1,0c0.7-1.1,1.2-2.2,1.7-3.3S89.8,223.9,90.1,222.6L90.1,222.6L90.1,222.6z"/>
		<path class="st0" d="M95.5,225.1l-0.2,0.2l-0.3,0.4l0,0.3l0,0.6c0,0.3,0,0.7,0.1,1s0.2,0.6,0.4,0.9l-0.2,1c0,0.3,0,0.5,0.1,0.8
			s0.2,0.5,0.4,0.7l0,0.4v0.3l0.6,0.8l0.1,0l0.2,0.5l0,0.3c-0.1,0-0.1,0-0.2-0.1s-0.1-0.1-0.1-0.2l-0.1,0c-0.2,0-0.3,0-0.5,0
			s-0.3,0-0.4,0.2c-0.1,0-0.3,0-0.4,0s-0.3,0-0.4-0.1l-0.8,0.2v0.1h-0.1v0.1l-0.1,0H93l-0.2-0.3h-0.1l0-0.1v-0.2l0.6-0.2l0.3-0.3
			v-0.1l0.1-0.1v-0.1l0.2-0.1h0.1c0.1-0.2,0.2-0.3,0.2-0.5s0.1-0.3,0.3-0.4c0-0.3,0-0.7,0-1s0-0.7-0.2-0.9c-0.1-0.6-0.1-1.1-0.2-1.7
			s-0.2-1.1-0.5-1.5l-0.1-0.1l-0.1-0.2h-0.1l0,0.3c-0.2-0.1-0.4-0.1-0.5-0.2s-0.3-0.1-0.4-0.2l0.1-0.3l0.3-0.2
			c0.2-0.3,0.3-0.6,0.4-0.9s0.3-0.6,0.4-0.9h0.1v-0.1h0.1l0.3-0.3l0.1-0.1l0.4-0.2l0.5-0.4h0.2c0.2,0.2,0.3,0.4,0.3,0.7
			s0,0.5,0.2,0.7L95.5,225.1z"/>
		<path class="st0" d="M102.3,224.8L102.3,224.8c0.1,0,0.1,0.1,0.1,0.2s0,0.2,0,0.3l0.4,0.5v1.9l-0.1,0.2l0.1,2.1l-0.2,0.8l-0.1,0
			c-0.2,0.3-0.3,0.6-0.4,0.9s-0.2,0.7-0.2,1h-0.1l0,0.1c-0.2,0.1-0.4,0.1-0.7,0.3s-0.4,0.2-0.6,0.4l-0.4,0l-0.2-0.3l-0.1,0v-0.1
			l-0.8-0.2l-0.3-0.6v-0.1l0.3,0c0.3-0.1,0.6-0.3,0.8-0.4s0.6-0.3,0.9-0.4c0.2-0.2,0.3-0.5,0.3-0.7s0.1-0.5,0.2-0.8l0-0.7
			c0-0.2,0-0.4,0-0.5s0.1-0.3,0.3-0.4l-0.1,0.1l-0.2,0.1l-0.4,0.2l-0.7,0.4h0l-0.2-0.4h-0.1v-0.1l-0.2,0v-0.1l-1.2-0.3v-0.1h-0.1
			c-0.1-0.3-0.1-0.6-0.1-0.9s0-0.6-0.1-0.9l0-1.4l-0.1-0.8c0-0.3,0.1-0.6,0.3-0.9s0.3-0.5,0.4-0.8c0.2-0.1,0.3-0.1,0.4-0.2
			s0.3-0.1,0.5-0.1l0.3-0.2c0.4,0,0.7,0,1.1,0.1s0.6,0.3,0.9,0.5l0.1,0.1l0.1,0.1c0.1,0.2,0.2,0.4,0.2,0.6s0.1,0.4,0.1,0.6v0.8h0
			L102.3,224.8z M100.2,223.9c-0.1,0.1-0.2,0.1-0.3,0.2s-0.2,0.2-0.3,0.3l-0.2,0.1c0,0.3,0,0.6,0,1s0,0.6,0.2,0.9l0.3,0.1l0.2,0.2
			l0.1,0l0.1-0.1v-0.1h0.1l0.3-0.3l0.3-0.5l-0.1-1.5L100.2,223.9H100H100.2z"/>
		<path class="st0" d="M108.2,232.6l-0.2,0v0l0.4,0.8c-0.1,0-0.2,0-0.3,0s-0.2,0.1-0.3,0.2c-0.3,0-0.7-0.1-1-0.2s-0.6-0.2-0.9-0.4
			c-0.4-0.9-0.7-1.9-1-2.9s-0.5-2-0.6-3.1c0-0.8,0.2-1.5,0.8-2.1s0.8-1.3,0.9-2.1l0.2-0.3h0.2l0.3,0.3c0.2,0,0.4,0,0.5-0.1
			s0.3-0.2,0.4-0.3h0.5l-0.1,0.3l-0.3,0.3h-0.1l-0.1,0.3h-0.1c-0.2,0.3-0.3,0.7-0.4,1.1s-0.2,0.7-0.4,1.1c0,0.6,0,1.1,0.2,1.7
			s0.3,1,0.5,1.6l0,0.8c0,0.5,0,0.9,0,1.4s0.1,0.9,0.2,1.4l0.5,0.6L108.2,232.6z"/>
		<path class="st0" d="M116.2,226.8l0.3,0.1v0.1l-0.1,0.1l0,0.1l0,0.4v0.4l0.2,0.3c0.1,0.3,0.2,0.7,0.3,1s0.2,0.6,0.4,1
			c0.2,0.1,0.3,0.2,0.5,0.2s0.4,0.1,0.5,0.1c0.1,0.1,0.2,0.2,0.3,0.2s0.2,0.1,0.3,0.2c0.2,0.2,0.5,0.3,0.7,0.5s0.5,0.2,0.8,0.3
			l0.2,0.2l-0.4,0.6h-0.3l0.2,0.2l0.1,0v0.1L120,233c-0.2,0-0.4-0.1-0.5-0.1s-0.3-0.1-0.5-0.2l-0.1-0.2l-0.1,0l0-0.1l-0.8-0.4v-0.1
			l-0.2-0.1l-0.4,0c-0.2,0-0.3,0-0.5-0.1s-0.3-0.1-0.4-0.2l-0.1-0.1v-0.1l-0.3-0.3l-0.3-0.5h-0.1v-0.1l-0.2-0.2l0-0.1
			c0,0.2-0.1,0.4-0.1,0.5s-0.1,0.3-0.3,0.5h-0.1v0.1h-0.1c0,0.1,0,0.2,0,0.3s-0.1,0.2-0.1,0.2l-0.1-0.2l-0.2,0.1v0.1l-0.1,0
			l-0.1,0.3l-0.2,0l-1.1,0.8c-0.2,0.1-0.4,0.2-0.7,0.2s-0.5,0.1-0.7,0.3l-0.4-0.1c-0.2,0-0.5,0-0.6,0.1s-0.4,0.2-0.6,0.3h-0.1
			c0.1-0.1,0.1-0.2,0.3-0.3s0.2-0.2,0.3-0.3l-0.1-0.2l-0.4,0.1c0.4-0.5,0.9-0.9,1.5-1.2s1.1-0.7,1.6-1.2c0.1-0.2,0.2-0.5,0.4-0.8
			s0.2-0.5,0.2-0.8h0.1c0.3-0.3,0.5-0.6,0.6-1s0.2-0.7,0.3-1.1l0-0.8c0-0.2,0-0.5,0-0.8s0.1-0.5,0.2-0.7V224l-0.4-0.4
			c-0.1-0.1-0.2-0.3-0.2-0.4s-0.1-0.3-0.1-0.4h-0.1v-0.1l-0.3-0.2l0-0.1v-0.2l0.1,0c0.3,0.2,0.6,0.3,0.9,0.4s0.7,0.2,0.9,0.4
			c0.2,0,0.4-0.1,0.6-0.2s0.4-0.2,0.5-0.3h0l-0.2,0.8c0,0.4,0.1,0.9,0.1,1.3s0.1,0.8,0.2,1.2l-0.1,1.3h-0.1L116.2,226.8z
			 M112.3,224.4L112.3,224.4L112.3,224.4l0.1,0.3l-0.1,0.5l-0.6,0.5l0,0.3c0,0.2,0,0.3,0,0.4s-0.1,0.2-0.1,0.4
			c-0.2,0.2-0.4,0.3-0.6,0.4s-0.5,0.1-0.7,0.1l0,0.1h-0.1l-0.5,0.4c0.2-0.4,0.4-0.8,0.5-1.2s0.2-0.9,0.3-1.3l0,0v-0.9l0.3-0.4
			c0.3,0,0.6,0,0.9,0s0.6,0,0.9,0.1L112.3,224.4L112.3,224.4z M117.7,226.9h0.2l0.4,0.5c0.3,0,0.7,0,1.1,0s0.7-0.1,1-0.2l0-0.2h0.1
			c0.1-0.2,0.2-0.5,0.4-0.8s0.2-0.5,0.2-0.8c0-0.2,0-0.4,0-0.6s0-0.4-0.1-0.6l-0.1,0V224h-0.1l0-0.1l-0.3-0.1c-0.2,0-0.3,0-0.4,0
			s-0.3,0-0.4,0.1l0,0.5h-0.1c-0.2,0.2-0.2,0.5-0.2,0.8s0,0.6-0.2,0.8H119l-0.1,0.2c-0.1,0.2-0.3,0.3-0.4,0.4s-0.3,0.2-0.4,0.4
			L117.7,226.9z"/>
		<path class="st0" d="M126.4,224.3l-0.4-0.1h0c0.3,0.3,0.5,0.7,0.7,1.1s0.2,0.9,0.3,1.3c0,0.8,0,1.6-0.1,2.4s-0.4,1.5-0.8,2.2
			l-0.9,0.5l-0.1,0l-0.3,0.8l-0.6,0.3c-0.3,0-0.6,0-0.8,0s-0.5-0.1-0.7-0.2l0-0.2l0.1-0.2v0l-0.8,0v0c0.2-0.1,0.5-0.2,0.8-0.3
			s0.6-0.2,0.9-0.2c0.4-0.4,0.7-0.9,1-1.4s0.5-1,0.8-1.5c-0.2-0.4-0.4-0.8-0.5-1.1s-0.3-0.8-0.4-1.2l-0.8-0.9l-0.1-0.2h-0.1
			c-0.1-0.1-0.1-0.2-0.2-0.4s-0.1-0.3-0.1-0.4H123v-0.1h-0.1l0-0.1l-0.3-0.2l-0.1-0.3l0.2-0.5l0.5-0.1c0.3,0,0.6,0,1,0
			s0.7,0,0.9,0.1l0.1,0.2c0.1,0.2,0.2,0.3,0.3,0.4s0.2,0.2,0.4,0.3l0,0.1v0.1H126.4z"/>
		<path class="st0" d="M131.5,225.1l-0.2,0.2l-0.3,0.4l0,0.3l0,0.6c0,0.3,0,0.7,0.1,1s0.2,0.6,0.4,0.9l-0.2,1c0,0.3,0,0.5,0.1,0.8
			s0.2,0.5,0.4,0.7l0,0.4v0.3l0.6,0.8l0.1,0l0.2,0.5l0,0.3c-0.1,0-0.1,0-0.2-0.1s-0.1-0.1-0.1-0.2l-0.1,0c-0.2,0-0.3,0-0.5,0
			s-0.3,0-0.4,0.2c-0.1,0-0.3,0-0.4,0s-0.3,0-0.4-0.1l-0.8,0.2v0.1h-0.1v0.1l-0.1,0H129l-0.2-0.3h-0.1l0-0.1v-0.2l0.6-0.2l0.3-0.3
			v-0.1l0.1-0.1v-0.1l0.2-0.1h0.1c0.1-0.2,0.2-0.3,0.2-0.5s0.1-0.3,0.3-0.4c0-0.3,0-0.7,0-1s0-0.7-0.2-0.9c-0.1-0.6-0.1-1.1-0.2-1.7
			s-0.2-1.1-0.5-1.5l-0.1-0.1l-0.1-0.2h-0.1l0,0.3c-0.2-0.1-0.4-0.1-0.5-0.2s-0.3-0.1-0.4-0.2l0.1-0.3l0.3-0.2
			c0.2-0.3,0.3-0.6,0.4-0.9s0.3-0.6,0.4-0.9h0.1v-0.1h0.1l0.3-0.3l0.1-0.1l0.4-0.2l0.5-0.4h0.2c0.2,0.2,0.3,0.4,0.3,0.7
			s0,0.5,0.2,0.7L131.5,225.1z"/>
		<path class="st0" d="M138.9,230.9L138.9,230.9l0,0.2l0,0.7l-0.5,0.2l-0.1,0.6l-0.5,0.4h-0.1l-0.2,0.2l-0.1,0l-0.2-0.4
			c-0.4,0-0.7,0-1.1-0.1s-0.7-0.2-1-0.3c-0.3,0-0.5,0-0.8,0.2s-0.4,0.3-0.7,0.4l0.2-0.7l0-0.4c0.1-0.4,0.2-0.9,0.5-1.2
			s0.4-0.8,0.6-1.2c0.1,0,0.2,0,0.2-0.1s0.1-0.1,0.2-0.1c0.2-0.4,0.4-0.7,0.6-1.1s0.4-0.7,0.7-1l-0.1-0.8c0-0.3,0.1-0.5,0.2-0.8
			s0.2-0.5,0.3-0.7h0c-0.2,0.2-0.4,0.4-0.7,0.4s-0.6,0.1-0.8,0.2l-0.2,0l0-0.1v0l0,0.1l-0.2,0.2l0.1,0.4l0,0.5l-0.4,0l-0.1-0.8
			c-0.1-0.1-0.1-0.2-0.2-0.3s-0.2-0.2-0.3-0.2c0-0.1,0-0.2,0-0.3s0-0.2-0.1-0.3l0-0.7h0.1c0.3-0.2,0.5-0.4,0.7-0.6s0.4-0.5,0.6-0.7
			l0.3-0.1c0.4,0.1,0.8,0.2,1.1,0.3s0.8,0.2,1.1,0.4l0,0.2h0.1l0.1,0.2c0.1,0.4,0.2,0.9,0.1,1.4s0,0.9,0.2,1.4c0,0.2,0,0.3,0,0.4
			s-0.1,0.3-0.2,0.4l-0.1,0v0.1l-0.5,0.2c-0.1,0.2-0.1,0.3-0.2,0.5s-0.1,0.4-0.1,0.6h-0.1c0,0.3-0.1,0.7-0.3,0.9s-0.3,0.6-0.4,0.9
			l-0.1,0l1.1,0.5l0.8-0.1L138.9,230.9L138.9,230.9z"/>
		<path class="st0" d="M141,228.8l0.4-0.3h0.4l0.2,0.2l0.1,0.1l0.4,0.8c0,0.2,0,0.3,0,0.4s-0.1,0.2-0.1,0.4h-0.1v0.1l-0.4,0.2h-0.3
			l0-0.1l-0.2-0.1v-0.1l-0.7-0.4l0-0.1c0-0.1,0-0.2,0-0.4s0.1-0.2,0.2-0.3L141,228.8z M141,224.7l0.1-0.2L141,224.7L141,224.7
			l0.3-0.5l0.4,0.1l0.2,0.3l0.4,0.1l0.2,0.5l0,0.7l-0.1,0.1l-0.2,0.1l-0.4,0.2h-0.1v-0.1l-0.3-0.4l0-0.1c-0.1,0-0.2,0-0.3-0.1
			s-0.2-0.1-0.2-0.2L141,224.7L141,224.7z M141.3,228.4L141.3,228.4l-0.2,0v0l0.1,0L141.3,228.4z"/>
		<path class="st0" d="M149.2,230.9L149.2,230.9l0,0.2l0,0.7l-0.5,0.2l-0.1,0.6l-0.5,0.4h-0.1l-0.2,0.2l-0.1,0l-0.2-0.4
			c-0.4,0-0.7,0-1.1-0.1s-0.7-0.2-1-0.3c-0.3,0-0.5,0-0.8,0.2s-0.4,0.3-0.7,0.4l0.2-0.7l0-0.4c0.1-0.4,0.2-0.9,0.5-1.2
			s0.4-0.8,0.6-1.2c0.1,0,0.2,0,0.2-0.1s0.1-0.1,0.2-0.1c0.2-0.4,0.4-0.7,0.6-1.1s0.4-0.7,0.7-1l-0.1-0.8c0-0.3,0.1-0.5,0.2-0.8
			s0.2-0.5,0.3-0.7h0c-0.2,0.2-0.4,0.4-0.7,0.4s-0.6,0.1-0.8,0.2l-0.2,0l0-0.1v0l0,0.1l-0.2,0.2l0.1,0.4l0,0.5l-0.4,0l-0.1-0.8
			c-0.1-0.1-0.1-0.2-0.2-0.3s-0.2-0.2-0.3-0.2c0-0.1,0-0.2,0-0.3s0-0.2-0.1-0.3l0-0.7h0.1c0.3-0.2,0.5-0.4,0.7-0.6s0.4-0.5,0.6-0.7
			l0.3-0.1c0.4,0.1,0.8,0.2,1.1,0.3s0.8,0.2,1.1,0.4l0,0.2h0.1l0.1,0.2c0.1,0.4,0.2,0.9,0.1,1.4s0,0.9,0.2,1.4c0,0.2,0,0.3,0,0.4
			s-0.1,0.3-0.2,0.4l-0.1,0v0.1l-0.5,0.2c-0.1,0.2-0.1,0.3-0.2,0.5s-0.1,0.4-0.1,0.6h-0.1c0,0.3-0.1,0.7-0.3,0.9s-0.3,0.6-0.4,0.9
			l-0.1,0l1.1,0.5l0.8-0.1L149.2,230.9L149.2,230.9z"/>
		<path class="st0" d="M154.2,223.2l0.5,0.8l0.2,0.2c0.1,0.2,0.2,0.3,0.3,0.4s0.2,0.3,0.2,0.5c0,0.3,0,0.7-0.2,0.9s-0.3,0.6-0.4,0.9
			c0,0.3,0.1,0.6,0.1,0.9s0.1,0.6,0.2,0.9c0,0.2,0,0.3,0,0.5s0,0.3-0.1,0.5H155c-0.2,0.4-0.3,0.9-0.4,1.3s-0.2,0.9-0.1,1.4
			c-0.2,0.2-0.5,0.4-0.8,0.4s-0.6,0.1-0.9,0.2h-0.4l-0.4-0.4l-0.1-0.1v-0.1l-0.3-0.3v-0.1h-0.1c-0.1-0.3-0.2-0.6-0.4-0.9
			s-0.3-0.6-0.4-0.9l-0.3-0.4l-0.7-1c0.1-0.4,0.2-0.8,0.3-1.1s0.1-0.8,0.2-1.1l0-0.6c0-0.2,0.1-0.5,0.2-0.7s0.2-0.4,0.3-0.6h0.1
			l0-0.2h0.1c0.1-0.1,0.2-0.2,0.2-0.3s0.1-0.2,0.1-0.4h0.1l0.5-0.8l0.2-0.2l0.2-0.1l0.2-0.1c0.2,0,0.5,0,0.8,0.1s0.5,0.2,0.7,0.3
			v0.1L154.2,223.2z M152.7,225.5L152.7,225.5l0.1-0.1l-0.3,0.1c0,0.2-0.1,0.5-0.2,0.7s-0.2,0.4-0.3,0.6h-0.1l-0.1,1.6
			c0,0.3,0.1,0.5,0.4,0.8s0.3,0.5,0.4,0.8l0.3,0.2l0.4,0l0.3-0.6c0-0.2,0-0.4,0-0.5s0-0.3-0.1-0.5l0-0.7c0-0.3,0-0.6,0-0.8
			s-0.1-0.5-0.1-0.8L152.7,225.5L152.7,225.5z"/>
		<path class="st0" d="M160.6,226.2l-0.3,0.1l0,0.1c0,0.2,0,0.4,0,0.7s-0.1,0.4-0.3,0.6l-0.1,0v0.1h0.1l0.2,0.6v0
			c-0.2,0-0.4,0-0.5,0s-0.3-0.1-0.5-0.2c-0.2,0.1-0.5,0.1-0.8,0.1s-0.5,0-0.8,0.1l-0.4,0c-0.2,0-0.3,0-0.4,0s-0.3,0.1-0.4,0.3h0
			c0-0.1,0-0.2,0-0.4s0-0.2,0.1-0.3l-0.1-1.4l0-0.3l0.3,0.1c0.5-0.1,0.9-0.2,1.4-0.2s0.9-0.1,1.4-0.2h0.5H160.6z"/>
	</g>
</g>
<rect class="st1" width="376.2" height="249"/>
</svg>
