<?xml version="1.0" encoding="utf-8"?>
<!-- Generator: Adobe Illustrator 22.0.0, SVG Export Plug-In . SVG Version: 6.00 Build 0)  -->
<svg version="1.1" id="レイヤー_1" xmlns="http://www.w3.org/2000/svg" xmlns:xlink="http://www.w3.org/1999/xlink" x="0px"
	 y="0px" viewBox="0 0 376.2 249" style="enable-background:new 0 0 376.2 249;" xml:space="preserve">
<style type="text/css">
	.st0{fill:#D41300;}
	.st1{fill:none;}
</style>
<title>アセット 15</title>
<g>
	<path class="st0" d="M51.4,222.8l0.4-0.3v-0.1H52l0.1-0.2h0.1l-0.2,0.4c0,0.2,0.1,0.5,0.2,0.7s0.2,0.4,0.3,0.6l0,0.8l0,1.8
		l-0.2,1.5c0,0.3,0,0.7,0,1s0.2,0.6,0.3,0.9c0,0.3,0,0.6-0.1,0.9s-0.2,0.5-0.3,0.8l0,0.5l0.4,0.5l0.4,0.8l-0.7-0.3l-0.9,0l-0.3,0.3
		c-0.5,0-1,0-1.5-0.1s-1-0.2-1.5-0.3c-0.2,0-0.4,0-0.7,0s-0.5,0.1-0.7,0.1l-0.7,0l-0.1-0.1l-0.8-0.2l-0.4,0.2c-0.1,0-0.2,0-0.4,0
		s-0.2-0.1-0.3-0.2l-0.8,0.6l-0.2,0.4h0c0.2-0.8,0.5-1.5,0.7-2.2s0.4-1.5,0.4-2.3l-0.1-1l0.1-1V225c0-0.4-0.1-0.8-0.3-1.1
		s-0.4-0.6-0.5-1v-0.4c0.2,0,0.4,0,0.6,0.1s0.4,0.1,0.6,0.2c0.6,0,1.2,0,1.7-0.1s1.1-0.1,1.7-0.2l1.5,0h1.7L51.4,222.8z M47,229.2
		v0.3h-0.1l-0.2,0.2l0.1,0.6l-0.1,1l-0.2,0.2c0.2,0,0.4,0,0.7,0s0.4,0,0.6-0.2v-0.1l0.3-0.2c0.3,0,0.6,0,0.8,0s0.5,0.1,0.7,0.2
		l1-0.1c0-0.3,0-0.6-0.1-0.9s-0.2-0.5-0.3-0.8l0.1-0.6v-0.1c-0.4,0-0.8,0.1-1.2,0.2s-0.8,0.2-1.1,0.3h-0.9l0.1-0.1v0L47,229.2z
		 M46.5,225.2c0,0.2,0.1,0.5,0.2,0.7s0.1,0.4,0.2,0.7l-0.1,0.5h-0.1v0.1c0.3,0,0.6,0,0.9,0s0.6,0,0.9-0.1c0.3,0,0.6,0,0.8,0.1
		s0.5,0.3,0.7,0.4h0.3l0.1-1.3c0-0.1,0-0.3,0-0.4s-0.1-0.3-0.2-0.4c0-0.2,0-0.3,0.1-0.4s0.1-0.2,0.2-0.3l-0.4,0.2l-0.7-0.1
		c-0.4,0-0.7,0-1,0.1s-0.6,0.2-0.9,0.2l-0.5-0.1h-0.3L46.5,225.2z"/>
	<path class="st0" d="M57.8,223.7c0.1,0,0.2,0,0.4,0s0.2,0,0.3,0.1c0,0.4,0,0.8,0.1,1.1s0.2,0.7,0.3,1.1l0,0.8v1.9l-0.1,0.5v2.2l0,0
		v0.1c-0.5-0.1-0.9-0.2-1.4-0.4s-0.9-0.3-1.4-0.4l-0.3,0l-0.1,0.2h-0.1l-0.5,0.7c0.1-0.2,0.1-0.3,0.1-0.5s0-0.4,0.1-0.5
		c0-0.3,0-0.7,0-1.1s-0.1-0.7-0.2-1v-2.4c-0.1-0.3-0.1-0.6-0.2-1s-0.1-0.7-0.2-1l0-0.4c0.2,0,0.3,0,0.4,0s0.2,0.1,0.3,0.2
		c0.3,0,0.7,0,1.1,0s0.7-0.1,1-0.3h0.1L57.8,223.7z M56.4,225.5L56.4,225.5c0,0.1,0,0.3,0.1,0.4s0.1,0.3,0,0.5c0.2,0,0.4,0,0.6-0.1
		s0.4-0.1,0.5-0.1l0.1-0.8v-0.2c-0.2,0.1-0.3,0.1-0.5,0s-0.4,0-0.5,0.1L56.4,225.5z M56.8,228.1c0,0.3,0,0.5-0.1,0.8
		s-0.2,0.4-0.3,0.7l0.2-0.1l0.7,0.1h0c0-0.2,0-0.5,0-0.7s0-0.5,0.1-0.7v-0.3c-0.1,0-0.2,0-0.4,0S56.9,228,56.8,228.1L56.8,228.1
		L56.8,228.1z M63,227L63,227L63,227l0.5,0.2c0.3,0,0.6-0.1,0.9-0.2s0.6-0.3,0.8-0.4l0.5,0l0.2,0.4c0,0.4,0,0.7-0.1,1.1
		s-0.2,0.7-0.2,1.1c-0.2,0-0.3,0-0.4-0.1s-0.2-0.2-0.3-0.3l-0.5-0.5c-0.8,0.3-1.7,0.4-2.6,0.4s-1.7,0.2-2.6,0.5
		c0.1-0.3,0.1-0.6,0.1-0.9s0.1-0.6,0.1-0.9c0.3-0.1,0.7-0.1,1.1-0.1s0.7-0.1,1-0.2l-0.1-0.8c0-0.3,0-0.7,0.1-1s0.2-0.6,0.3-0.9
		c0-0.3,0-0.6-0.1-0.8s-0.1-0.5-0.1-0.8l0-0.6l0.7-0.1H63l0,0.2l-0.1,2.3c0,0.4,0,0.8,0,1.2S63,226.7,63,227L63,227L63,227z
		 M65,223.9c0,0.3-0.1,0.7-0.1,1s-0.1,0.6-0.2,1l-0.6-0.1c-0.7,0-1.3,0-1.9,0.1s-1.2,0.3-1.8,0.6h-0.2l0.5-0.8l0-0.6
		c0-0.1-0.1-0.1-0.1-0.2s-0.1-0.1-0.2-0.2v-0.1l0.3-0.1c0.2,0,0.4,0,0.5,0s0.3,0.1,0.5,0.1c0.5-0.2,1.1-0.3,1.6-0.3s1.1-0.1,1.6-0.3
		H65L65,223.9z M63,228.5L63,228.5L63,228.5l0.9,0.1l0.1,0.3h0.1l0.3,0.5l0,0.3l0,0.4l-0.1,0.8c0,0.2,0,0.3,0.1,0.4s0.1,0.2,0.2,0.4
		l-0.1,0.5l0,0.4l0,1.3c-0.2,0-0.3,0-0.5,0s-0.3,0.1-0.4,0.2c-0.6,0-1.1-0.2-1.6-0.4s-1-0.5-1.5-0.7c0.3,0,0.6,0,0.8,0
		s0.5,0.1,0.8,0.3l0.8-0.3l0.2-0.5V229l-0.1-0.3c0-0.1,0-0.1,0-0.2s0-0.1,0.1-0.2h0L63,228.5z M60.6,231.6l0.1-0.2
		c0.2,0,0.5,0,0.7,0s0.4,0.2,0.6,0.3v0.8l-0.6-0.2l-0.1-0.2l-0.5-0.3l0-0.1L60.6,231.6z M65.3,230l0.4,0.8v0.3h-0.1v-0.1l-0.4-0.1
		c-0.1,0-0.2,0-0.3,0s-0.2,0-0.3,0.1c-0.2,0-0.4,0-0.6,0s-0.4-0.1-0.6-0.1c-0.5,0-0.9,0-1.3,0.1s-0.8,0.2-1.2,0.4l0.3-0.7l0-0.5
		l-0.2-0.1l-0.1-0.3v-0.1c0.3,0,0.7,0.1,1,0.2s0.6,0.2,0.9,0.4c0.2,0,0.4,0,0.6,0s0.4-0.1,0.6-0.1l0.8,0l0.3,0h0.4L65.3,230z"/>
	<path class="st0" d="M67.9,229l0.4-0.3h0.4l0.2,0.2l0.1,0.1l0.4,0.8c0,0.2,0,0.3,0,0.4s-0.1,0.2-0.1,0.4h-0.1v0.1l-0.4,0.2h-0.3
		l0-0.1l-0.2-0.1v-0.1l-0.7-0.4l0-0.1c0-0.1,0-0.2,0-0.4s0.1-0.2,0.2-0.3L67.9,229z M67.9,224.9l0.1-0.2L67.9,224.9L67.9,224.9
		l0.3-0.5l0.4,0.1l0.2,0.3l0.4,0.1l0.2,0.5l0,0.7l-0.1,0.1l-0.2,0.1l-0.4,0.2h-0.1v-0.1l-0.3-0.4l0-0.1c-0.1,0-0.2,0-0.3-0.1
		s-0.2-0.1-0.2-0.2L67.9,224.9L67.9,224.9z M68.3,228.6L68.3,228.6l-0.2,0v0l0.1,0L68.3,228.6z"/>
	<path class="st0" d="M74.7,225.3l-0.2,0.2l-0.3,0.4l0,0.3l0,0.6c0,0.3,0,0.7,0.1,1s0.2,0.6,0.4,0.9l-0.2,1c0,0.3,0,0.5,0.1,0.8
		s0.2,0.5,0.4,0.7l0,0.4v0.3l0.6,0.8l0.1,0l0.2,0.5l0,0.3c-0.1,0-0.1,0-0.2-0.1s-0.1-0.1-0.1-0.2l-0.1,0c-0.2,0-0.3,0-0.5,0
		s-0.3,0-0.4,0.2c-0.1,0-0.3,0-0.4,0s-0.3,0-0.4-0.1l-0.8,0.2v0.1H73v0.1l-0.1,0h-0.6l-0.2-0.3h-0.1l0-0.1v-0.2l0.6-0.2l0.3-0.3
		v-0.1l0.1-0.1v-0.1l0.2-0.1h0.1c0.1-0.2,0.2-0.3,0.2-0.5s0.1-0.3,0.3-0.4c0-0.3,0-0.7,0-1s0-0.7-0.2-0.9c-0.1-0.6-0.1-1.1-0.2-1.7
		s-0.2-1.1-0.5-1.5l-0.1-0.1l-0.1-0.2h-0.1l0,0.3c-0.2-0.1-0.4-0.1-0.5-0.2s-0.3-0.1-0.4-0.2l0.1-0.3l0.3-0.2
		c0.2-0.3,0.3-0.6,0.4-0.9s0.3-0.6,0.4-0.9h0.1v-0.1h0.1l0.3-0.3l0.1-0.1l0.4-0.2l0.5-0.4h0.2c0.2,0.2,0.3,0.4,0.3,0.7
		s0,0.5,0.2,0.7L74.7,225.3z"/>
	<path class="st0" d="M80.7,225.3l-0.2,0.2l-0.3,0.4l0,0.3l0,0.6c0,0.3,0,0.7,0.1,1s0.2,0.6,0.4,0.9l-0.2,1c0,0.3,0,0.5,0.1,0.8
		s0.2,0.5,0.4,0.7l0,0.4v0.3l0.6,0.8l0.1,0l0.2,0.5l0,0.3c-0.1,0-0.1,0-0.2-0.1s-0.1-0.1-0.1-0.2l-0.1,0c-0.2,0-0.3,0-0.5,0
		s-0.3,0-0.4,0.2c-0.1,0-0.3,0-0.4,0s-0.3,0-0.4-0.1l-0.8,0.2v0.1H79v0.1l-0.1,0h-0.6l-0.2-0.3h-0.1l0-0.1v-0.2l0.6-0.2l0.3-0.3
		v-0.1l0.1-0.1v-0.1l0.2-0.1h0.1c0.1-0.2,0.2-0.3,0.2-0.5s0.1-0.3,0.3-0.4c0-0.3,0-0.7,0-1s0-0.7-0.2-0.9c-0.1-0.6-0.1-1.1-0.2-1.7
		s-0.2-1.1-0.5-1.5l-0.1-0.1l-0.1-0.2h-0.1l0,0.3c-0.2-0.1-0.4-0.1-0.5-0.2s-0.3-0.1-0.4-0.2l0.1-0.3l0.3-0.2
		c0.2-0.3,0.3-0.6,0.4-0.9s0.3-0.6,0.4-0.9h0.1v-0.1h0.1l0.3-0.3l0.1-0.1l0.4-0.2l0.5-0.4h0.2c0.2,0.2,0.3,0.4,0.3,0.7
		s0,0.5,0.2,0.7L80.7,225.3z"/>
	<path class="st0" d="M87.4,222.8l0.1,0h0L87.4,222.8L87.4,222.8l0.1,0.4h0.1v0.1l0.3,0.1l0.2,0.8h0.4c-0.1,0.7-0.3,1.4-0.5,2.1
		s-0.6,1.3-1,1.9l-0.1,0l-0.1,0.2l-0.5,0.5c-0.1,0.6-0.3,1.1-0.6,1.6s-0.6,1-0.8,1.5l0,0.1l-0.1,0.2l-0.9,0.5l-0.1,0.2h-0.1
		l-0.2,0.3h0l-0.1-0.8l0,0l-0.1-0.2v-0.7h0.1l0-0.1v-0.1l-0.2-0.1l-0.4,0.2h0l0.2-0.5l0.6-0.3c0.1-0.1,0.3-0.2,0.4-0.3
		s0.2-0.2,0.3-0.3l0.1,0l0.1-0.2l0.1,0c0.7-1.1,1.2-2.2,1.7-3.3S87,224.1,87.4,222.8L87.4,222.8L87.4,222.8z"/>
	<path class="st0" d="M92.7,225.3l-0.2,0.2l-0.3,0.4l0,0.3l0,0.6c0,0.3,0,0.7,0.1,1s0.2,0.6,0.4,0.9l-0.2,1c0,0.3,0,0.5,0.1,0.8
		s0.2,0.5,0.4,0.7l0,0.4v0.3l0.6,0.8l0.1,0l0.2,0.5l0,0.3c-0.1,0-0.1,0-0.2-0.1s-0.1-0.1-0.1-0.2l-0.1,0c-0.2,0-0.3,0-0.5,0
		s-0.3,0-0.4,0.2c-0.1,0-0.3,0-0.4,0s-0.3,0-0.4-0.1l-0.8,0.2v0.1H91v0.1l-0.1,0h-0.6l-0.2-0.3h-0.1l0-0.1v-0.2l0.6-0.2l0.3-0.3
		v-0.1l0.1-0.1v-0.1l0.2-0.1h0.1c0.1-0.2,0.2-0.3,0.2-0.5s0.1-0.3,0.3-0.4c0-0.3,0-0.7,0-1s0-0.7-0.2-0.9c-0.1-0.6-0.1-1.1-0.2-1.7
		s-0.2-1.1-0.5-1.5l-0.1-0.1l-0.1-0.2h-0.1l0,0.3c-0.2-0.1-0.4-0.1-0.5-0.2s-0.3-0.1-0.4-0.2l0.1-0.3l0.3-0.2
		c0.2-0.3,0.3-0.6,0.4-0.9s0.3-0.6,0.4-0.9h0.1v-0.1h0.1l0.3-0.3l0.1-0.1l0.4-0.2l0.5-0.4h0.2c0.2,0.2,0.3,0.4,0.3,0.7
		s0,0.5,0.2,0.7L92.7,225.3z"/>
	<path class="st0" d="M100.1,227.6L100.1,227.6c0.1,0.2,0.2,0.4,0.2,0.5s0.1,0.3,0.1,0.5l-0.9,0.1c-0.1,0.1-0.1,0.2-0.2,0.3
		s-0.2,0.2-0.3,0.2h-0.1l-0.1,0.3l0.1,0.6c0,0.2-0.1,0.4-0.2,0.6s-0.2,0.3-0.2,0.6l0,0.1h0.1l0.2,0.4c-0.1,0.2-0.1,0.3-0.1,0.5
		s0,0.3,0,0.5l0,0.4l-0.1,0.2l-0.5,0.2l-0.1,0.1c-0.2-0.3-0.3-0.6-0.6-0.8s-0.3-0.6-0.2-1l0.1-0.1l0.1-0.6c-0.1-0.2-0.2-0.3-0.2-0.5
		s-0.1-0.4,0-0.6l0.1-0.3l-0.4-0.4l-0.5-0.1l-0.1,0.2h-0.3v0.1l-0.2,0.2h-0.2c-0.2-0.1-0.3-0.3-0.3-0.5s-0.1-0.4-0.1-0.6h-0.2
		l-0.1,0v-0.7l0.2-0.7l0.2-0.4h0.1c0.1-0.2,0.1-0.5,0.2-0.7s0.1-0.5,0.3-0.7l0.1,0l0-0.2h0.1l0.1-0.3h0.1c0.1-0.2,0.2-0.5,0.2-0.8
		s0-0.5,0.1-0.8l0.1,0l0-0.2c0.1-0.1,0.2-0.2,0.3-0.3s0.2-0.2,0.3-0.4l0.1-0.5c0.2,0.6,0.3,1.3,0.4,1.9s0.3,1.3,0.6,1.9l0.2,0.1v0.8
		h0.1l0,0l1,0.1v0.1l0.5,0v0.7v0L100.1,227.6z M96.7,226.6L96.7,226.6l-0.2,0.1l-0.2,0.4l-0.3,0.3l-0.3,0.7l0.4,0.3
		c0.1-0.1,0.1-0.1,0.2-0.2s0.2,0,0.3,0l0.4,0l0.2-0.1l0-0.5c-0.2-0.1-0.2-0.2-0.2-0.4s0-0.3-0.1-0.5L96.7,226.6L96.7,226.6
		L96.7,226.6L96.7,226.6z"/>
	<path class="st0" d="M105.4,232.8l-0.2,0v0l0.4,0.8c-0.1,0-0.2,0-0.3,0s-0.2,0.1-0.3,0.2c-0.3,0-0.7-0.1-1-0.2s-0.6-0.2-0.9-0.4
		c-0.4-0.9-0.7-1.9-1-2.9s-0.5-2-0.6-3.1c0-0.8,0.2-1.5,0.8-2.1s0.8-1.3,0.9-2.1l0.2-0.3h0.2l0.3,0.3c0.2,0,0.4,0,0.5-0.1
		s0.3-0.2,0.4-0.3h0.5l-0.1,0.3l-0.3,0.3H105l-0.1,0.3h-0.1c-0.2,0.3-0.3,0.7-0.4,1.1s-0.2,0.7-0.4,1.1c0,0.6,0,1.1,0.2,1.7
		s0.3,1,0.5,1.6l0,0.8c0,0.5,0,0.9,0,1.4s0.1,0.9,0.2,1.4l0.5,0.6L105.4,232.8z"/>
	<path class="st0" d="M113.4,227l0.3,0.1v0.1l-0.1,0.1l0,0.1l0,0.4v0.4l0.2,0.3c0.1,0.3,0.2,0.7,0.3,1s0.2,0.6,0.4,1
		c0.2,0.1,0.3,0.2,0.5,0.2s0.4,0.1,0.5,0.1c0.1,0.1,0.2,0.2,0.3,0.2s0.2,0.1,0.3,0.2c0.2,0.2,0.5,0.3,0.7,0.5s0.5,0.2,0.8,0.3
		l0.2,0.2l-0.4,0.6h-0.3l0.2,0.2l0.1,0v0.1l-0.3,0.1c-0.2,0-0.4-0.1-0.5-0.1s-0.3-0.1-0.5-0.2l-0.1-0.2l-0.1,0l0-0.1l-0.8-0.4v-0.1
		l-0.2-0.1l-0.4,0c-0.2,0-0.3,0-0.5-0.1s-0.3-0.1-0.4-0.2l-0.1-0.1v-0.1l-0.3-0.3l-0.3-0.5h-0.1v-0.1l-0.2-0.2l0-0.1
		c0,0.2-0.1,0.4-0.1,0.5s-0.1,0.3-0.3,0.5h-0.1v0.1h-0.1c0,0.1,0,0.2,0,0.3s-0.1,0.2-0.1,0.2l-0.1-0.2l-0.2,0.1v0.1l-0.1,0l-0.1,0.3
		l-0.2,0L110,233c-0.2,0.1-0.4,0.2-0.7,0.2s-0.5,0.1-0.7,0.3l-0.4-0.1c-0.2,0-0.5,0-0.6,0.1s-0.4,0.2-0.6,0.3h-0.1
		c0.1-0.1,0.1-0.2,0.3-0.3s0.2-0.2,0.3-0.3l-0.1-0.2L107,233c0.4-0.5,0.9-0.9,1.5-1.2s1.1-0.7,1.6-1.2c0.1-0.2,0.2-0.5,0.4-0.8
		s0.2-0.5,0.2-0.8h0.1c0.3-0.3,0.5-0.6,0.6-1s0.2-0.7,0.3-1.1l0-0.8c0-0.2,0-0.5,0-0.8s0.1-0.5,0.2-0.7v-0.2l-0.4-0.4
		c-0.1-0.1-0.2-0.3-0.2-0.4s-0.1-0.3-0.1-0.4H111v-0.1l-0.3-0.2l0-0.1v-0.2l0.1,0c0.3,0.2,0.6,0.3,0.9,0.4s0.7,0.2,0.9,0.4
		c0.2,0,0.4-0.1,0.6-0.2s0.4-0.2,0.5-0.3h0l-0.2,0.8c0,0.4,0.1,0.9,0.1,1.3s0.1,0.8,0.2,1.2l-0.1,1.3h-0.1L113.4,227z M109.5,224.6
		L109.5,224.6L109.5,224.6l0.1,0.3l-0.1,0.5l-0.6,0.5l0,0.3c0,0.2,0,0.3,0,0.4s-0.1,0.2-0.1,0.4c-0.2,0.2-0.4,0.3-0.6,0.4
		s-0.5,0.1-0.7,0.1l0,0.1h-0.1l-0.5,0.4c0.2-0.4,0.4-0.8,0.5-1.2s0.2-0.9,0.3-1.3l0,0v-0.9l0.3-0.4c0.3,0,0.6,0,0.9,0s0.6,0,0.9,0.1
		L109.5,224.6L109.5,224.6z M115,227.1h0.2l0.4,0.5c0.3,0,0.7,0,1.1,0s0.7-0.1,1-0.2l0-0.2h0.1c0.1-0.2,0.2-0.5,0.4-0.8
		s0.2-0.5,0.2-0.8c0-0.2,0-0.4,0-0.6s0-0.4-0.1-0.6l-0.1,0v-0.1H118l0-0.1l-0.3-0.1c-0.2,0-0.3,0-0.4,0s-0.3,0-0.4,0.1l0,0.5h-0.1
		c-0.2,0.2-0.2,0.5-0.2,0.8s0,0.6-0.2,0.8h-0.1l-0.1,0.2c-0.1,0.2-0.3,0.3-0.4,0.4s-0.3,0.2-0.4,0.4L115,227.1z"/>
	<path class="st0" d="M123.6,224.5l-0.4-0.1h0c0.3,0.3,0.5,0.7,0.7,1.1s0.2,0.9,0.3,1.3c0,0.8,0,1.6-0.1,2.4s-0.4,1.5-0.8,2.2
		l-0.9,0.5l-0.1,0l-0.3,0.8l-0.6,0.3c-0.3,0-0.6,0-0.8,0s-0.5-0.1-0.7-0.2l0-0.2l0.1-0.2v0l-0.8,0v0c0.2-0.1,0.5-0.2,0.8-0.3
		s0.6-0.2,0.9-0.2c0.4-0.4,0.7-0.9,1-1.4s0.5-1,0.8-1.5c-0.2-0.4-0.4-0.8-0.5-1.1s-0.3-0.8-0.4-1.2l-0.8-0.9l-0.1-0.2h-0.1
		c-0.1-0.1-0.1-0.2-0.2-0.4s-0.1-0.3-0.1-0.4h-0.1v-0.1h-0.1l0-0.1l-0.3-0.2l-0.1-0.3l0.2-0.5l0.5-0.1c0.3,0,0.6,0,1,0
		s0.7,0,0.9,0.1l0.1,0.2c0.1,0.2,0.2,0.3,0.3,0.4s0.2,0.2,0.4,0.3l0,0.1v0.1H123.6z"/>
	<path class="st0" d="M128.7,225.3l-0.2,0.2l-0.3,0.4l0,0.3l0,0.6c0,0.3,0,0.7,0.1,1s0.2,0.6,0.4,0.9l-0.2,1c0,0.3,0,0.5,0.1,0.8
		s0.2,0.5,0.4,0.7l0,0.4v0.3l0.6,0.8l0.1,0l0.2,0.5l0,0.3c-0.1,0-0.1,0-0.2-0.1s-0.1-0.1-0.1-0.2l-0.1,0c-0.2,0-0.3,0-0.5,0
		s-0.3,0-0.4,0.2c-0.1,0-0.3,0-0.4,0s-0.3,0-0.4-0.1l-0.8,0.2v0.1H127v0.1l-0.1,0h-0.6l-0.2-0.3h-0.1l0-0.1v-0.2l0.6-0.2l0.3-0.3
		v-0.1l0.1-0.1v-0.1l0.2-0.1h0.1c0.1-0.2,0.2-0.3,0.2-0.5s0.1-0.3,0.3-0.4c0-0.3,0-0.7,0-1s0-0.7-0.2-0.9c-0.1-0.6-0.1-1.1-0.2-1.7
		s-0.2-1.1-0.5-1.5l-0.1-0.1l-0.1-0.2h-0.1l0,0.3c-0.2-0.1-0.4-0.1-0.5-0.2s-0.3-0.1-0.4-0.2l0.1-0.3l0.3-0.2
		c0.2-0.3,0.3-0.6,0.4-0.9s0.3-0.6,0.4-0.9h0.1v-0.1h0.1l0.3-0.3l0.1-0.1l0.4-0.2l0.5-0.4h0.2c0.2,0.2,0.3,0.4,0.3,0.7
		s0,0.5,0.2,0.7L128.7,225.3z"/>
	<path class="st0" d="M136.2,231.1L136.2,231.1l0,0.2l0,0.7l-0.5,0.2l-0.1,0.6l-0.5,0.4H135l-0.2,0.2l-0.1,0l-0.2-0.4
		c-0.4,0-0.7,0-1.1-0.1s-0.7-0.2-1-0.3c-0.3,0-0.5,0-0.8,0.2s-0.4,0.3-0.7,0.4l0.2-0.7l0-0.4c0.1-0.4,0.2-0.9,0.5-1.2
		s0.4-0.8,0.6-1.2c0.1,0,0.2,0,0.2-0.1s0.1-0.1,0.2-0.1c0.2-0.4,0.4-0.7,0.6-1.1s0.4-0.7,0.7-1l-0.1-0.8c0-0.3,0.1-0.5,0.2-0.8
		s0.2-0.5,0.3-0.7h0c-0.2,0.2-0.4,0.4-0.7,0.4s-0.6,0.1-0.8,0.2l-0.2,0l0-0.1v0l0,0.1l-0.2,0.2l0.1,0.4l0,0.5l-0.4,0l-0.1-0.8
		c-0.1-0.1-0.1-0.2-0.2-0.3s-0.2-0.2-0.3-0.2c0-0.1,0-0.2,0-0.3s0-0.2-0.1-0.3l0-0.7h0.1c0.3-0.2,0.5-0.4,0.7-0.6s0.4-0.5,0.6-0.7
		l0.3-0.1c0.4,0.1,0.8,0.2,1.1,0.3s0.8,0.2,1.1,0.4l0,0.2h0.1l0.1,0.2c0.1,0.4,0.2,0.9,0.1,1.4s0,0.9,0.2,1.4c0,0.2,0,0.3,0,0.4
		s-0.1,0.3-0.2,0.4l-0.1,0v0.1l-0.5,0.2c-0.1,0.2-0.1,0.3-0.2,0.5s-0.1,0.4-0.1,0.6h-0.1c0,0.3-0.1,0.7-0.3,0.9s-0.3,0.6-0.4,0.9
		l-0.1,0l1.1,0.5l0.8-0.1L136.2,231.1L136.2,231.1z"/>
	<path class="st0" d="M138.2,229l0.4-0.3h0.4l0.2,0.2l0.1,0.1l0.4,0.8c0,0.2,0,0.3,0,0.4s-0.1,0.2-0.1,0.4h-0.1v0.1l-0.4,0.2h-0.3
		l0-0.1l-0.2-0.1v-0.1l-0.7-0.4l0-0.1c0-0.1,0-0.2,0-0.4s0.1-0.2,0.2-0.3L138.2,229z M138.2,224.9l0.1-0.2L138.2,224.9L138.2,224.9
		l0.3-0.5l0.4,0.1l0.2,0.3l0.4,0.1l0.2,0.5l0,0.7l-0.1,0.1l-0.2,0.1l-0.4,0.2h-0.1v-0.1l-0.3-0.4l0-0.1c-0.1,0-0.2,0-0.3-0.1
		s-0.2-0.1-0.2-0.2L138.2,224.9L138.2,224.9z M138.6,228.6L138.6,228.6l-0.2,0v0l0.1,0L138.6,228.6z"/>
	<path class="st0" d="M146.4,231.1L146.4,231.1l0,0.2l0,0.7l-0.5,0.2l-0.1,0.6l-0.5,0.4h-0.1l-0.2,0.2l-0.1,0l-0.2-0.4
		c-0.4,0-0.7,0-1.1-0.1s-0.7-0.2-1-0.3c-0.3,0-0.5,0-0.8,0.2s-0.4,0.3-0.7,0.4l0.2-0.7l0-0.4c0.1-0.4,0.2-0.9,0.5-1.2
		s0.4-0.8,0.6-1.2c0.1,0,0.2,0,0.2-0.1s0.1-0.1,0.2-0.1c0.2-0.4,0.4-0.7,0.6-1.1s0.4-0.7,0.7-1l-0.1-0.8c0-0.3,0.1-0.5,0.2-0.8
		s0.2-0.5,0.3-0.7h0c-0.2,0.2-0.4,0.4-0.7,0.4s-0.6,0.1-0.8,0.2l-0.2,0l0-0.1v0l0,0.1l-0.2,0.2l0.1,0.4l0,0.5l-0.4,0l-0.1-0.8
		c-0.1-0.1-0.1-0.2-0.2-0.3s-0.2-0.2-0.3-0.2c0-0.1,0-0.2,0-0.3s0-0.2-0.1-0.3l0-0.7h0.1c0.3-0.2,0.5-0.4,0.7-0.6s0.4-0.5,0.6-0.7
		l0.3-0.1c0.4,0.1,0.8,0.2,1.1,0.3s0.8,0.2,1.1,0.4l0,0.2h0.1l0.1,0.2c0.1,0.4,0.2,0.9,0.1,1.4s0,0.9,0.2,1.4c0,0.2,0,0.3,0,0.4
		s-0.1,0.3-0.2,0.4l-0.1,0v0.1l-0.5,0.2c-0.1,0.2-0.1,0.3-0.2,0.5s-0.1,0.4-0.1,0.6h-0.1c0,0.3-0.1,0.7-0.3,0.9s-0.3,0.6-0.4,0.9
		l-0.1,0l1.1,0.5l0.8-0.1L146.4,231.1L146.4,231.1z"/>
	<path class="st0" d="M151.4,223.4l0.5,0.8l0.2,0.2c0.1,0.2,0.2,0.3,0.3,0.4s0.2,0.3,0.2,0.5c0,0.3,0,0.7-0.2,0.9s-0.3,0.6-0.4,0.9
		c0,0.3,0.1,0.6,0.1,0.9s0.1,0.6,0.2,0.9c0,0.2,0,0.3,0,0.5s0,0.3-0.1,0.5h-0.1c-0.2,0.4-0.3,0.9-0.4,1.3s-0.2,0.9-0.1,1.4
		c-0.2,0.2-0.5,0.4-0.8,0.4s-0.6,0.1-0.9,0.2h-0.4l-0.4-0.4l-0.1-0.1v-0.1l-0.3-0.3v-0.1h-0.1c-0.1-0.3-0.2-0.6-0.4-0.9
		s-0.3-0.6-0.4-0.9l-0.3-0.4l-0.7-1c0.1-0.4,0.2-0.8,0.3-1.1s0.1-0.8,0.2-1.1l0-0.6c0-0.2,0.1-0.5,0.2-0.7s0.2-0.4,0.3-0.6h0.1
		l0-0.2h0.1c0.1-0.1,0.2-0.2,0.2-0.3s0.1-0.2,0.1-0.4h0.1l0.5-0.8l0.2-0.2l0.2-0.1l0.2-0.1c0.2,0,0.5,0,0.8,0.1s0.5,0.2,0.7,0.3v0.1
		L151.4,223.4z M150,225.7L150,225.7l0.1-0.1l-0.3,0.1c0,0.2-0.1,0.5-0.2,0.7s-0.2,0.4-0.3,0.6h-0.1l-0.1,1.6c0,0.3,0.1,0.5,0.4,0.8
		s0.3,0.5,0.4,0.8l0.3,0.2l0.4,0l0.3-0.6c0-0.2,0-0.4,0-0.5s0-0.3-0.1-0.5l0-0.7c0-0.3,0-0.6,0-0.8s-0.1-0.5-0.1-0.8L150,225.7
		L150,225.7z"/>
	<path class="st0" d="M157.9,226.4l-0.3,0.1l0,0.1c0,0.2,0,0.4,0,0.7s-0.1,0.4-0.3,0.6l-0.1,0v0.1h0.1l0.2,0.6v0c-0.2,0-0.4,0-0.5,0
		s-0.3-0.1-0.5-0.2c-0.2,0.1-0.5,0.1-0.8,0.1s-0.5,0-0.8,0.1l-0.4,0c-0.2,0-0.3,0-0.4,0s-0.3,0.1-0.4,0.3h0c0-0.1,0-0.2,0-0.4
		s0-0.2,0.1-0.3l-0.1-1.4l0-0.3l0.3,0.1c0.5-0.1,0.9-0.2,1.4-0.2s0.9-0.1,1.4-0.2h0.5H157.9z"/>
	<path class="st0" d="M45.8,239.5h0.5l0.6-1h0c0,0.2,0,0.5,0,0.8s0.1,0.5,0.3,0.7c0,0.1,0,0.2,0,0.4s-0.1,0.2-0.2,0.3l-0.4-0.1
		l-0.4,0.1l-0.3,1.8v0.3l0.2-0.3l0.2-0.1l0-0.2l0.6-0.8h0c0,0.5-0.1,1-0.2,1.5s-0.3,1-0.6,1.4l-0.1,0.1l-0.4,0.3l-0.1,0.2l-1.1,0.7
		l-0.2,0.3l-0.1,0c-0.2,0.3-0.4,0.7-0.6,1s-0.3,0.7-0.4,1.1c-0.1-0.4-0.1-0.8,0-1.2s0-0.8-0.3-1.1h-0.1l0-0.1l-0.2-0.1v-0.1l0.4-0.1
		l0.4-0.3v-0.1l0.2-0.2l0.8-0.6l-0.1-0.9l0-0.3l-0.1-0.6l-0.2,0.1l-0.3,0c-0.1,0-0.1,0-0.2,0s-0.1,0.1-0.1,0.2l-0.1,0l-0.1,0.2h-0.1
		l-0.1,0.2h0l0.1-0.8c0-0.3,0-0.6-0.1-0.8s-0.2-0.5-0.3-0.8c0-0.1,0-0.1,0-0.2s0-0.1,0.1-0.1h0l0.2,0.4l0.1-0.1l0.2-0.1l0.6,0.1
		c0.1,0,0.1,0,0.2,0s0.1,0,0.1-0.1v-2.4l-0.1-0.4v-0.4l0.9,0.4c0.1,0,0.2,0,0.4,0s0.2,0,0.3-0.1h0.1c0,0.3,0,0.6,0,1s0,0.7,0.1,0.9
		v0.6h0H45.8z M53.1,240.1h0.3l0,0.4c0,0.3,0,0.6,0,0.8s-0.1,0.5-0.2,0.8h0l0-0.1l-0.2-0.1c-0.3,0.2-0.6,0.3-1,0.3s-0.6,0.1-0.9,0.3
		l-0.4,0h-0.5c0.1,0.6,0,1.1-0.2,1.6s-0.5,0.9-0.8,1.4h-0.1c-0.1,0.1-0.2,0.2-0.4,0.3s-0.2,0.2-0.3,0.3l-0.3,0.2l-0.1,0.1l-0.2,0.1
		l-0.5,0.3l-0.7,0l0.5-0.5l0.1,0l0-0.1l0.2-0.2l0.2-0.1l0.1-0.1h0.1c0.2-0.3,0.4-0.7,0.5-1.1s0.3-0.7,0.4-1.1l0.1-0.1l0.1,0
		c0.1-0.2,0.2-0.3,0.2-0.5s0.1-0.3,0.3-0.5h-0.6l-0.1,0.1c-0.2,0.1-0.3,0.2-0.5,0.3s-0.3,0.1-0.5,0.2h0l0.2-0.6c0-0.2,0-0.5-0.1-0.7
		s-0.2-0.4-0.3-0.6l0.1-0.5c0.5,0,1,0.1,1.6,0.2s1,0.2,1.5,0.4c0.5,0,0.9-0.1,1.4-0.2S52.8,240.4,53.1,240.1L53.1,240.1z
		 M52.3,236.8L52.3,236.8l0.5,0.6c0,0.4-0.1,0.9-0.2,1.3s-0.2,0.9-0.2,1.3c-0.4,0-0.8,0-1.1-0.1s-0.7-0.2-1.1-0.3
		c-0.3,0-0.6,0-0.9,0.1s-0.5,0.2-0.8,0.3h-0.1l0.1-0.3c0.1-0.5,0-1-0.1-1.4s-0.2-0.9-0.4-1.3v-0.3c0.3,0.1,0.6,0.1,0.9,0.1
		s0.6,0,0.9,0.1c0.4,0,0.8,0,1.2,0s0.8-0.1,1.1-0.2L52.3,236.8L52.3,236.8z M50.5,244.5L50.5,244.5l0.1,0.4h0.1c0,0.2,0,0.4,0,0.6
		s-0.1,0.4-0.2,0.5l-1.1,0.4h-0.4l0-0.1l0.5-0.6l0.3-0.4h0.1L50.5,244.5L50.5,244.5L50.5,244.5z M49.5,237.9L49.5,237.9L49.5,237.9
		l0,0.1l0.2,0.2c0.1,0.1,0.3,0.1,0.5,0.1s0.3,0,0.5,0.1c0.1,0,0.2,0,0.3,0s0.2,0,0.2-0.1l0.1-0.1v-0.6h-1.5L49.5,237.9z M49.7,238.9
		L49.7,238.9L49.7,238.9l0.9,0.3h0.2l0.1-0.2l-0.2-0.2c-0.1,0-0.3,0-0.5,0s-0.3,0.1-0.4,0.2L49.7,238.9z M49.6,243.3L49.6,243.3h0.3
		l1.2,0l0.3-0.3l0.8-0.1c0.3,0,0.6,0.1,0.9,0.2s0.6,0.2,0.9,0.2l0.2,0.1c0,0.8-0.2,1.6-0.6,2.2s-0.7,1.4-0.8,2.1c0,0.1,0,0.2,0,0.4
		s0,0.2-0.2,0.3c-0.1,0-0.2,0-0.4,0s-0.2,0-0.3-0.1l0-0.1c-0.4-0.2-0.7-0.5-1.2-0.6s-0.8-0.3-1.2-0.4c0.2-0.1,0.5-0.1,0.7-0.3
		s0.4-0.2,0.7-0.3c0.2,0,0.5,0,0.7,0s0.4,0.1,0.6,0.2l0.3-0.2l0-0.3c0-0.4,0-0.7,0.1-1s0.2-0.6,0.3-0.9l-0.8,0c-0.2,0-0.4,0-0.6,0.1
		s-0.4,0.1-0.6,0.2c-0.2,0-0.3,0-0.5,0s-0.3-0.1-0.4-0.2l0-0.1v-0.4L49.6,243.3z M51.7,244.2l0.2,0l0.2,0.5c0,0.2,0,0.5,0,0.7
		s-0.2,0.4-0.3,0.6l-0.8,0.3h-0.2l0.2-0.2l0.3-0.2l0.2-0.5h0.1l0-0.1l0-0.4v-0.8L51.7,244.2z"/>
	<path class="st0" d="M58.7,239.6c0.2,0,0.4,0,0.6,0s0.4-0.1,0.5-0.2h0.1c0,0.5,0.1,1.1,0.2,1.6s0.2,1,0.4,1.5v0.1l-0.5-0.1
		c-0.4,0-0.9,0-1.3,0s-0.9,0.1-1.3,0.2c0,1-0.1,1.9-0.3,2.8s-0.4,1.8-0.6,2.7c-0.2-0.1-0.5-0.2-0.8-0.2s-0.6,0-0.9,0l0-0.1l0.2-0.2
		c0.1-0.3,0.2-0.6,0.3-0.9s0.2-0.6,0.3-0.9c0.1-0.9,0-1.8-0.2-2.7s-0.4-1.8-0.4-2.7v-0.4l0.4-0.1h3L58.7,239.6l0.4,0.1L58.7,239.6z
		 M59,237.3c0.2,0,0.4,0,0.5-0.1s0.3-0.2,0.4-0.3H60c0,0.3,0,0.7,0,1s-0.2,0.6-0.3,0.9l-1.2,0c-0.5,0-1,0-1.5,0s-0.9,0.2-1.3,0.4
		l0,0.1l0-1.4l-0.6-0.5l0-0.1c0.3,0,0.7,0,0.9,0.1s0.6,0.2,0.9,0.2c0.4,0,0.8,0,1.1,0S58.6,237.3,59,237.3L59,237.3L59,237.3z
		 M58.9,240.6l-0.4,0.2l-1.5,0h-0.5c0,0.1,0.1,0.2,0.2,0.4s0.1,0.2,0.1,0.4l0.4-0.2c0.3,0,0.6,0,0.8,0s0.5,0.1,0.7,0.2h0
		c0-0.2,0-0.3,0-0.4s0.1-0.2,0.2-0.3L58.9,240.6z M63.7,237.2c0,0.1,0,0.2,0,0.4s-0.1,0.2-0.3,0.3l-0.1,0l0,0.2l-0.8,0.4v0.6
		l-0.5,0.6l0.2,0.9c0.3,0,0.5,0.1,0.8,0.2s0.5,0.2,0.8,0.2l0.5,0h1.8l0,1.7l-1.3,0l0,0.7c0,0.2,0,0.5,0,0.8s0,0.5-0.1,0.7v2.2l0,0.9
		l-0.6-0.1l-0.5,0h0l-0.1-0.7c0-0.8,0-1.5,0-2.2s0.1-1.4,0.3-2.1c-0.2,0-0.4,0-0.5,0s-0.3,0-0.5-0.1h-0.1v0.3l-0.1,0
		c-0.2,0.6-0.5,1.2-0.7,1.9s-0.4,1.2-0.5,1.9l0,0.5l0,0.2l-0.5,0.2l-0.3,0.2h-0.3v0h0v-0.1l0.1,0l-0.4,0c-0.1-0.8,0-1.5,0.2-2.2
		s0.3-1.4,0.4-2.2l0-0.3c0-0.2,0-0.5,0-0.7s0.1-0.4,0.1-0.7c0-0.4,0-0.7-0.1-1.1s-0.1-0.7-0.2-1v-0.2l0.4-0.3l0.6-0.9l-0.1-1
		l2.2-0.1h0.1L63.7,237.2z"/>
	<path class="st0" d="M67.9,243.4l0.4-0.3h0.4l0.2,0.2l0.1,0.1l0.4,0.8c0,0.2,0,0.3,0,0.4s-0.1,0.2-0.1,0.4h-0.1v0.1l-0.4,0.2h-0.3
		l0-0.1l-0.2-0.1v-0.1l-0.7-0.4l0-0.1c0-0.1,0-0.2,0-0.4s0.1-0.2,0.2-0.3L67.9,243.4z M67.9,239.3l0.1-0.2L67.9,239.3L67.9,239.3
		l0.3-0.5l0.4,0.1l0.2,0.3l0.4,0.1l0.2,0.5l0,0.7l-0.1,0.1l-0.2,0.1l-0.4,0.2h-0.1v-0.1l-0.3-0.4l0-0.1c-0.1,0-0.2,0-0.3-0.1
		s-0.2-0.1-0.2-0.2L67.9,239.3L67.9,239.3z M68.3,243L68.3,243l-0.2,0v0l0.1,0L68.3,243z"/>
	<path class="st0" d="M70.9,247.7v-0.9l-0.1-0.5c0.1-0.3,0.1-0.6,0.1-0.8s0.1-0.6,0.1-0.8c-0.1-0.2-0.1-0.3-0.1-0.5s0-0.4,0-0.5
		c0.1-0.7,0.3-1.2,0.8-1.8s0.7-1.1,0.8-1.8l0.3-0.2c0.1-0.3,0.2-0.6,0.3-0.8s0.1-0.6,0.1-0.9l-0.1-0.3c-0.1,0-0.1,0-0.1-0.1
		s0-0.1,0-0.2c0.1-0.2,0.1-0.4,0.2-0.5s0.2-0.4,0.2-0.6c0,0.1,0,0.2,0.1,0.3s0.2,0.1,0.2,0.1l0.6,0l0.1,0.2h0.1
		c0,0.2,0.1,0.5,0.2,0.6s0.3,0.4,0.4,0.5l0.6,0.6c0,0.8,0.2,1.6,0.4,2.3s0.3,1.5,0.2,2.4c-0.1,0.6-0.2,1.3-0.3,1.9s-0.2,1.3-0.4,1.9
		v0.7l0.1,0.5h-0.1l-0.1-0.2h-0.1l-0.3,0.5l-0.2-0.1v-0.1h-0.1v-0.1l0,0c0-0.3,0-0.7-0.1-0.9s-0.2-0.6-0.2-0.9l0-0.4l-0.1-0.5
		l-0.4,0c-0.1,0.1-0.1,0.1-0.2,0.3s-0.1,0.2-0.1,0.3l-0.2,0c-0.2-0.1-0.4-0.3-0.7-0.4s-0.4-0.2-0.7-0.3v0.3l0,0.8l-0.2,0.3H72
		l-0.1,0.8l-0.2,0.1v0.1l-0.2,0.2l-0.1,0.3l-0.4,0l0-0.1h0l-0.1,0.1v-0.1L71,248l0-0.1h-0.1L70.9,247.7l0.2-0.4v0L70.9,247.7z
		 M74,240.6h-0.4c-0.1,0.2-0.3,0.4-0.4,0.6s-0.3,0.4-0.4,0.6l-0.2,0.6h0.2l0.1,0.2l0.2,0.2l0.3-0.1l0.2,0.1l0.2,0.6H74l0.2-0.1
		l0.1-0.4l0.1,0v-0.3h0.1l0.1,0v-0.4c-0.1-0.2-0.1-0.3-0.1-0.4s-0.1-0.3-0.2-0.4l-0.1,0L74,240.6l-0.1-0.1L74,240.6z"/>
	<path class="st0" d="M80.3,237.5c0,0.3,0,0.5,0,0.8l0.6,0.6c0.2,0,0.3,0,0.4-0.1s0.2-0.1,0.4-0.2h0.2c0,0.3,0,0.6,0,0.8
		s0.2,0.5,0.3,0.7v0.4c-0.2,0-0.4,0-0.7,0s-0.4-0.1-0.6-0.2l-0.9,0l0.1,0.2l0.4,0.8c0.3,0.7,0.6,1.3,0.8,2s0.4,1.4,0.7,2.1l-0.2-0.1
		l-0.1-0.1l0-0.2l-1.4-1.2h0c0,0.1,0,0.1,0,0.2s0.1,0.1,0.2,0.1c0.1,0.2,0.2,0.3,0.2,0.5s0,0.4,0,0.6h0.1l0.5,1.1
		c0,0.3,0,0.6-0.1,0.9s-0.1,0.6-0.1,0.9l-0.3-0.2c-0.2,0-0.4,0-0.7,0s-0.4,0-0.6,0.1h-0.2c0.1-0.4,0.1-0.7,0.3-1.1s0.1-0.7,0.1-1.1
		l0-1.9c-0.1,0.2-0.1,0.4-0.3,0.7s-0.2,0.4-0.4,0.7c-0.2,0.2-0.3,0.4-0.5,0.6s-0.4,0.4-0.7,0.4c0.2-0.8,0.4-1.5,0.4-2.3
		s0.2-1.5,0.4-2.3v-1.3l-0.9,0.4h0c0-0.4,0-0.8-0.1-1.2s-0.2-0.8-0.4-1.1l0.1,0.1l0.4,0.2h1.7l-0.6-1.8v-0.2l0.6,0.2
		c0.2,0,0.4,0,0.5,0s0.3-0.1,0.4-0.2C80.3,237,80.3,237.2,80.3,237.5z M86.8,237.1v0.2l-0.2-0.2v0.3l-0.4,0.3c0,0.1,0,0.2,0,0.4
		s0,0.2,0.1,0.3c0.3,0,0.7,0,1,0s0.6-0.2,0.8-0.3h0l0,1.7l-0.8-0.1c-0.2,0-0.4,0-0.5,0s-0.3,0.1-0.5,0.2l0.2,0.7l0.3,0.3
		c0.2,0,0.4-0.1,0.5-0.1s0.3-0.1,0.5-0.2H88l0,1.7c0,0.4,0,0.7,0,1.1s0.1,0.7,0.2,1v0.5c-0.3,0-0.6-0.1-0.8-0.2s-0.5-0.2-0.8-0.3
		h-0.1c0.2,0.4,0.5,0.8,0.6,1.3s0.3,0.9,0.4,1.4c0.1,0.2,0.2,0.4,0.4,0.6s0.3,0.3,0.6,0.4l-1.1-0.7v-0.1l-0.2-0.1V247l-0.2-0.1
		c-0.1-0.2-0.2-0.3-0.4-0.5s-0.2-0.3-0.3-0.5v0l0.1,0.7c0,0.2,0,0.5-0.1,0.7s-0.1,0.5-0.2,0.7c-0.2,0-0.3,0-0.5,0s-0.3,0.1-0.4,0.2
		l-0.1-2.3l-0.8,0.5l-0.4,0.3l-0.2,0.4l-0.2,0.1l-2,0.8l0.6-0.5l0.1-0.1h0.1l1.2-1.2l0.1-0.1h0.1c0.1-0.2,0.2-0.3,0.3-0.4
		s0.3-0.2,0.4-0.3l0.1-0.1l0.2-0.1l0-0.9l-0.4-0.1c-0.2,0-0.4,0-0.6,0.1s-0.4,0.2-0.6,0.4h0l0.1-0.3c0-0.4-0.1-0.9-0.2-1.3
		s-0.1-0.9-0.2-1.3V241c0.3-0.1,0.6-0.1,1-0.1s0.7,0,1,0l0-1.2c-0.3,0-0.6,0-0.8,0.1s-0.5,0.2-0.8,0.3h0c0-0.3,0-0.6-0.1-0.9
		s-0.1-0.6-0.3-0.9v-0.2c0.4,0.1,0.8,0.2,1.2,0.2s0.8,0.1,1.2,0.3l-0.4-1.5v-0.1l0.1,0c0.3,0,0.7,0,1-0.1s0.6-0.1,1-0.2h0.1
		L86.8,237.1z M84.5,243v0.1l-0.3-0.2l-0.3,0v0.1l-0.2,0.1l0.1,0.3l0.2,0.2l0.3-0.1L84.5,243z M84.3,242l-0.1-0.3l-0.1-0.1l-0.4,0.1
		c0,0.1,0,0.2,0,0.4s0.1,0.2,0.2,0.3h0.2l0-0.1L84.3,242z M87.1,242l0-0.3l-0.3-0.1c-0.1,0-0.2,0-0.3,0s-0.1,0.1-0.2,0.2
		c0,0.1,0,0.2,0,0.3s0,0.2,0.1,0.2l0.1,0.1l0.5-0.2L87.1,242z M86.9,244v0.1l0.3-0.5v-0.1l-0.5-0.4l-0.2,0l-0.1,0.2l0.1,0.6l0.2,0.1
		l0.1,0.2V244z"/>
	<path class="st0" d="M92.4,244.5l0,0.1l0,0.3l-0.1,0.5c-0.2,0-0.3,0-0.4-0.1s-0.2-0.2-0.4-0.3c-0.1-0.2-0.1-0.4-0.2-0.6
		s-0.1-0.4-0.2-0.6l-0.1-0.1c-0.5-0.8-0.8-1.6-1-2.5s-0.5-1.7-0.9-2.5H89v-0.1h-0.1v-0.4l0.4-0.1c0-0.1,0-0.2,0-0.3s0.1-0.2,0.2-0.3
		c0.2,0,0.4,0,0.5,0.1s0.3,0.2,0.5,0.2c0.2,0.5,0.3,1,0.4,1.5s0.1,1,0.4,1.5l0.2-0.3h0c0,0.1,0.1,0.3,0.1,0.4s0.1,0.3,0.1,0.4
		l0.4,0.8l0.2,0.1l0.7-0.2v-0.1h0.1l0.2-0.4l0.6-0.7H94c0,0.2,0,0.5,0,0.8s0,0.5-0.1,0.7h-0.1l0,0.2h-0.1l-0.2,0.3h-0.1v0.1h-0.1
		l-0.2,0.2v0.1h-0.1l0,0.1h-0.1l0,0.1l-0.1,0l-0.2,0.5l0,0.6v0L92.4,244.5z M95.9,240.6L95.9,240.6l-0.4,0.4h0l0.2-0.2l0-0.3
		l0.1-0.9l0-0.7l0.1-0.7c0-0.1,0.1-0.2,0.2-0.3s0.2-0.1,0.3-0.1v-0.1h0.1l0.4-0.4c0.1,0,0.2,0,0.3,0s0.1,0.1,0.2,0.2h0.1l0.1-0.1
		l0.1-0.1l0.2-0.1l0.1,0l0,0.1l0.6,0.7h0.1l0.2,0.3v2.2c-0.2,0.7-0.3,1.4-0.5,2.1s-0.3,1.4-0.4,2.1l0,1.1h0v0.1l-0.3,0.2
		c-0.1,0.1-0.2,0.1-0.3,0.3s-0.1,0.2-0.2,0.3l-0.3,0.7l-0.3,0.2l-0.2,0.1l-0.1,0v-0.1l-0.4,0.3c-0.2,0-0.3,0-0.4,0s-0.3-0.1-0.4-0.2
		c-0.1,0-0.2,0-0.3,0s-0.1,0.1-0.2,0.2h-0.1c0.2,0,0.3,0,0.4-0.1s0.3-0.2,0.4-0.2c0.6-0.7,0.9-1.5,1-2.3s0.3-1.6,0.7-2.4
		c0-0.2,0-0.4,0-0.7s-0.1-0.4-0.1-0.6c0-0.1,0-0.2,0-0.3s0-0.2,0.1-0.3l0-0.1l-0.2-0.1c-0.1-0.1-0.1-0.3-0.1-0.4s0-0.3-0.1-0.4
		l-0.2,0.4h-0.1v0.1l-0.2,0.2L95.9,240.6l-0.5,0.4l-0.1,0.1h0L95.9,240.6z M95.7,238.5c0,0.3,0,0.5-0.1,0.8s-0.1,0.5-0.1,0.8
		l-0.4,0.3l0,0.5h-0.1l-0.2-0.4l0.8-1.7L95.7,238.5L95.7,238.5z"/>
	<path class="st0" d="M110.5,247.4l-0.3,0.5l-1.2,0.6c-0.6,0.1-1.2,0-1.7-0.1s-1.1-0.3-1.6-0.6l0-0.1c-0.5-0.1-1-0.1-1.5-0.2
		s-0.9-0.3-1.3-0.7l-0.3-0.8v-0.3l0.4-0.2v-0.1c0.2-0.1,0.3-0.1,0.5-0.1s0.4-0.1,0.5-0.2l0.2-0.4h0.1l0.2-0.4l0.1-0.1h0.1l-0.1-0.7
		c0-0.2,0-0.4,0.1-0.6s0.1-0.4,0.1-0.6l0.5-0.3l0.1-0.1l0.3-0.1h0c-0.7,0.1-1.3,0.2-2,0.5s-1.3,0.5-1.9,0.7l-0.8,0v-0.2l0.1-0.1
		l0.4,0l0.2-0.2l0.2-0.2c-0.1-0.2-0.1-0.3-0.1-0.5s-0.1-0.3-0.2-0.5l-0.5,0v0h1.2l0.2-0.2l0.6-0.1c0.1-0.1,0.2-0.1,0.3-0.3
		s0.2-0.2,0.2-0.4l0.8-0.3l0.2-0.4v-0.1c-0.1,0-0.3,0-0.4,0s-0.3,0-0.4,0.1c-0.3-0.2-0.7-0.3-1.1-0.3s-0.8-0.1-1.2-0.2l0-0.1v0
		l0.5,0l0.2-0.4l0.6-0.2l0-0.3l-0.2-0.1c0.3,0,0.6,0,0.9,0s0.6,0.1,0.9,0.2c0.4-0.1,0.7-0.2,1.1-0.3s0.7-0.2,1.1-0.3
		c0.1-0.1,0.2-0.2,0.3-0.3s0.2-0.2,0.3-0.3l0.2-0.1l0.2,0.1l0.1,0.2l0,0.1v0.3l-0.2,0.2v0.7c-0.1,0.1-0.1,0.2-0.3,0.3
		s-0.2,0.1-0.3,0.2l-0.1,0.3h-0.1v0.1h-0.1l0,0.1h-0.1v0.1l-0.1,0l0.3,0.2c0.6-0.1,1.2-0.1,1.7-0.2s1.1-0.3,1.6-0.6l0.5,0.1l1-0.3
		l0.5-0.6h0l0,0.3v0.3l0.1-0.1h0c-0.1,0.1-0.1,0.2-0.2,0.3s-0.1,0.2-0.1,0.4l-0.5,0.2l-0.1,0.2c-0.2,0.1-0.5,0.1-0.7,0.2
		s-0.5,0.2-0.6,0.3h-0.1l-0.1,0.1l-0.6,0.6l-0.1,0.2l-0.2,0.1c-0.4,0.2-0.8,0.4-1.1,0.6s-0.8,0.3-1.2,0.4l-0.2,0.4l0,0.5l-0.1,1.3
		l-0.6,0.7l0.1,0.2l0.1,0.1l0.1,0.1v0.1l0.4,0.2l0,0.1c0.2,0.2,0.5,0.3,0.9,0.4s0.7,0.1,1,0.1h0.9c0.3-0.3,0.6-0.7,0.8-1
		s0.5-0.7,0.8-0.9c0.1,0,0.2,0,0.3,0s0.2,0,0.3,0.1l-0.2,0.5v0.2l0.4-0.1l0.2-0.2l0.2-0.3l0.1-0.1l0.1,0h0.1c0,0.2,0,0.4,0,0.6
		s-0.1,0.3-0.2,0.5H112l0,0.1l-0.3,0.2c-0.2,0.2-0.3,0.5-0.4,0.7s-0.2,0.5-0.2,0.8H111l-0.1,0.3v0.1L110.5,247.4z"/>
	<path class="st0" d="M113.2,240.3L113.2,240.3l0.2-0.1l0-0.1c-0.1-0.1-0.1-0.1-0.2-0.1s-0.2-0.1-0.2-0.1c0.6-0.3,1.1-0.5,1.6-0.7
		s0.9-0.2,1.2-0.3c0.1-0.5,0.1-1,0.1-1.6l0.3-0.1c0.1,0,0.1,0,0.2,0s0.1,0,0.1,0.1l0.7-0.4h0.1c-0.1,0.2-0.1,0.3-0.1,0.5
		s0,0.3-0.1,0.5c0,0.2,0,0.4,0,0.6l0.1,0l0.7-0.3h1l-0.1,0.2v0.1l0.8-0.1h0l-0.1,0c0,0.1-0.1,0.2-0.2,0.2s-0.1,0.1-0.1,0.2l-0.8,0.2
		l-0.4,0.4l-0.1,0.1h-0.1v0.1l-0.1,0.1c-0.1,0-0.2,0-0.2,0.1c0.1,0.1,0.1,0.2,0.2,0.4v1h0l0-0.1l-0.4,0l0.2,0.6c0,0.2,0,0.4-0.1,0.5
		s-0.1,0.3-0.2,0.5h-0.1v0.1c-0.1,0.1-0.2,0.1-0.2,0.2s-0.1,0.2-0.2,0.2c-0.2,0.2-0.3,0.5-0.3,0.7s-0.2,0.5-0.3,0.7l-0.1,0l-0.3,0.7
		l-0.6,0.4l0.4-0.2h0c-0.2,0.1-0.3,0.2-0.5,0.2s-0.3,0.1-0.4,0.3c-0.1,0-0.2,0-0.3,0s-0.2-0.1-0.2-0.2l-0.1,0.1l-0.1,0h0v-0.3
		l-0.7,0.4h0l0.8-1.6c0.1-0.1,0.2-0.2,0.3-0.3s0.2-0.2,0.4-0.3h0.1c0.2-1.1,0.6-2.2,1-3.3l0,0l-0.6,0.3c-0.2,0-0.5,0-0.6-0.1
		s-0.3-0.1-0.4-0.1l-0.1,0.1h0l0-0.2C113.4,240.4,113.3,240.4,113.2,240.3L113.2,240.3z M120.3,247.2L120.3,247.2h-0.2l-0.2-0.1
		l-0.1-0.1l-0.5-0.4v0.7h-0.1c-0.1,0.1-0.2,0.1-0.3,0.3s-0.1,0.2-0.2,0.3l-0.3,0.2l-1.9,0v-0.1h-0.1l0-0.1l0-0.2v-0.2l-0.5-0.3
		l0-0.3c0-0.4,0.1-0.8,0.3-1.1s0.4-0.6,0.6-1l0.1,0h0.2l0.1,0.2l0.6,0.3h0l0.1-0.3l0.3-0.1c0-0.3,0.1-0.6,0.1-0.8s0.1-0.5,0.3-0.7
		l0-0.1h-0.1c0-0.2,0-0.4-0.1-0.5s-0.1-0.3-0.2-0.4l0.3-0.5h0l0.5,1.1l0.1-0.1l0.4,0.1l0,0.1v0.3h-0.1l0,0.2l0,0.6
		c0,0.2,0,0.5,0,0.8s0,0.5-0.1,0.7l0.2,0.2c0.1,0,0.2,0,0.2,0s0.1-0.1,0.1-0.2l0.2-0.1l0.4,0.5c0.2,0,0.3,0,0.4,0s0.3-0.1,0.4-0.2
		l0.6,0.3c0.1,0.2,0.1,0.4,0.3,0.5s0.2,0.3,0.4,0.5v0.5l-0.4,0.5c-0.4,0.1-0.7,0-1-0.2S120.7,247.3,120.3,247.2z M117.8,246.5
		l-0.1,0.1v-0.4h-0.6l-0.2-0.2c0,0.1,0,0.2,0,0.4s0,0.3,0.2,0.4l0.1,0h0.3L117.8,246.5z M119.7,239.6L119.7,239.6l-0.1,0.1l0.2-0.2
		l0.1,0l0.7,0l0.1-0.2l0.1,0c0.4,0.1,0.8,0.3,1.2,0.4s0.8,0.3,1.2,0.4c0.1,0,0.2,0.1,0.3,0.2s0.2,0.2,0.2,0.3l0,0.1
		c0,0.3,0.1,0.7,0.2,0.9s0.3,0.5,0.5,0.8l-0.2,0.3l-0.2,0l-0.1-0.1l0-0.1l-0.5,0.3l-0.5-0.1h-0.3l-0.1,0.2c-0.1-0.3-0.2-0.7-0.3-1
		s-0.3-0.7-0.5-0.9c-0.2-0.1-0.4-0.1-0.5-0.2s-0.3-0.1-0.5-0.2L119.7,239.6z M120.5,247.1L120.5,247.1L120.5,247.1L120.5,247.1
		L120.5,247.1z"/>
	<path class="st0" d="M124.9,247.7v-0.9l-0.1-0.5c0.1-0.3,0.1-0.6,0.1-0.8s0.1-0.6,0.1-0.8c-0.1-0.2-0.1-0.3-0.1-0.5s0-0.4,0-0.5
		c0.1-0.7,0.3-1.2,0.8-1.8s0.7-1.1,0.8-1.8l0.3-0.2c0.1-0.3,0.2-0.6,0.3-0.8s0.1-0.6,0.1-0.9l-0.1-0.3c-0.1,0-0.1,0-0.1-0.1
		s0-0.1,0-0.2c0.1-0.2,0.1-0.4,0.2-0.5s0.2-0.4,0.2-0.6c0,0.1,0,0.2,0.1,0.3s0.2,0.1,0.2,0.1l0.6,0l0.1,0.2h0.1
		c0,0.2,0.1,0.5,0.2,0.6s0.3,0.4,0.4,0.5l0.6,0.6c0,0.8,0.2,1.6,0.4,2.3s0.3,1.5,0.2,2.4c-0.1,0.6-0.2,1.3-0.3,1.9s-0.2,1.3-0.4,1.9
		v0.7l0.1,0.5h-0.1l-0.1-0.2h-0.1l-0.3,0.5l-0.2-0.1v-0.1h-0.1v-0.1l0,0c0-0.3,0-0.7-0.1-0.9s-0.2-0.6-0.2-0.9l0-0.4l-0.1-0.5
		l-0.4,0c-0.1,0.1-0.1,0.1-0.2,0.3s-0.1,0.2-0.1,0.3l-0.2,0c-0.2-0.1-0.4-0.3-0.7-0.4s-0.4-0.2-0.7-0.3v0.3l0,0.8l-0.2,0.3H126
		l-0.1,0.8l-0.2,0.1v0.1l-0.2,0.2l-0.1,0.3l-0.4,0l0-0.1h0l-0.1,0.1v-0.1l0.2-0.2l0-0.1h-0.1L124.9,247.7l0.2-0.4v0L124.9,247.7z
		 M128,240.6h-0.4c-0.1,0.2-0.3,0.4-0.4,0.6s-0.3,0.4-0.4,0.6l-0.2,0.6h0.2l0.1,0.2l0.2,0.2l0.3-0.1l0.2,0.1l0.2,0.6h0.3l0.2-0.1
		l0.1-0.4l0.1,0v-0.3h0.1l0.1,0v-0.4c-0.1-0.2-0.1-0.3-0.1-0.4s-0.1-0.3-0.2-0.4l-0.1,0L128,240.6l-0.1-0.1L128,240.6z"/>
	<path class="st0" d="M136,237.3l-0.3,0.1v0L136,237.3L136,237.3l0-0.1l0.2-0.4l0.1-0.1c-0.1,0.4-0.1,0.8,0,1.2s-0.1,0.8-0.3,1.1
		l-0.2,0.1l-0.1,0.1l-0.3,0l-0.3-0.2h0c-0.1,0.4-0.1,0.8-0.3,1.1s-0.2,0.8-0.3,1.1l0,1.2v2.6l-0.3,0.7c0,0.4,0.1,0.8,0.1,1.2
		s0,0.8,0.1,1.2c0,0.1,0,0.1,0,0.2s0,0.2-0.1,0.2l-0.3-0.3l-0.2-0.2v0.1l-0.4,0.4c-0.1-0.1-0.1-0.2-0.1-0.4s0-0.3-0.2-0.4
		c-0.1,0-0.2,0-0.2,0.1s-0.1,0.1-0.1,0.2h0l0-0.4c0-0.3,0.1-0.7,0.1-1.1s0.1-0.7,0.2-1c0-0.3,0-0.6,0-0.8s-0.1-0.5-0.3-0.8
		c0-0.2,0-0.5,0.1-0.7s0.1-0.4,0.2-0.6c0-0.4,0-0.7,0-1.1s-0.1-0.7-0.1-1.1l0.3-0.9l-0.3,0.2l-0.4-0.1v-0.1h0l-0.2,0.8l-0.1,0.1
		h-0.1v-0.5l-0.6-0.7c-0.1-0.1-0.1-0.1-0.2-0.1s-0.2,0-0.2-0.1c0-0.1,0-0.2,0-0.3s0.1-0.2,0.1-0.3c0-0.2-0.1-0.5-0.2-0.7
		s-0.2-0.4-0.2-0.6h0v0h0.1v0.1l0.2-0.1l0.6,0.3v0.1l0.2,0.1c0.2-0.1,0.5-0.1,0.8-0.2s0.6-0.1,0.8-0.2c0.2,0,0.4,0,0.5,0
		s0.3,0.1,0.5,0.2h0.9v-0.1l0.3-0.2h0.1L136,237.3z"/>
	<path class="st0" d="M137.9,236.6l-0.2,0.5c0.1,0.3,0.1,0.7,0.2,1s0.1,0.7,0,1l0.2-0.7l0.1-0.1h0l0.1,0.6l0.3,0.2v0.1h0.1
		c0.2,0.5,0.4,1.1,0.5,1.7s0.2,1.2,0.3,1.8l0.4-0.3c0-0.3,0.1-0.6,0.2-0.9s0.2-0.5,0.4-0.8l0.1-0.1l0.2-0.2l0.1-0.1h0.1
		c0.2-0.5,0.3-1,0.3-1.5s0.1-1,0.1-1.5l0.2-0.2l0.2,0.1v0.1l0.2-0.2h0.1l0-0.2h0.1v-0.1h0.1v-0.1h0.1l-0.1,0.6c0,0.4,0,0.7,0.1,1.1
		s0.2,0.7,0.2,1v3.8l0,0l0,1.4l0,0.6h-0.1l-0.3,0.9c0,0.2,0,0.4,0,0.7s0.1,0.4,0.2,0.6l-0.1,1l-0.3-0.1c-0.1-0.1-0.2-0.2-0.3-0.4
		s-0.2-0.2-0.3-0.3l-0.2,0.1l-0.1,0H141v-1.9l-0.1-0.2v-2c0-0.1,0-0.1,0-0.2s0-0.1,0.1-0.2c0,0.4-0.1,0.7-0.3,1s-0.4,0.7-0.5,1h-0.1
		l-0.1,1l-0.4,0.4l-0.1,0.4c-0.1-0.8-0.3-1.6-0.5-2.4s-0.3-1.6-0.4-2.4l-0.1,0.4l0.1,0.3c-0.2,0.9-0.3,1.8-0.4,2.7s-0.3,1.8-0.8,2.5
		h0l-0.1-0.7h-0.2v0.1h0v-0.2l-0.5,0.2l0.3-0.6v-3.5l0,0l0-0.4l-0.1-0.8c0-0.4,0-0.8,0.1-1.2s0.2-0.8,0.2-1.2c0-0.4,0-0.7-0.1-1.1
		s-0.2-0.7-0.2-1c0-0.2,0-0.4,0-0.7s0.1-0.4,0.2-0.5l0.5,0L137.9,236.6L137.9,236.6z"/>
	<path class="st0" d="M146.4,239.6L146.4,239.6l0,0.1c0.2-0.1,0.3-0.2,0.4-0.3s0.2-0.2,0.4-0.3h0.1c0,0.3,0,0.5,0,0.8
		s0.1,0.5,0.2,0.8v0.2v0l-0.7,0.4l0.4,0.9l0.1,0c0.1,0.3,0.2,0.6,0.4,1s0.2,0.7,0.3,1v0.4l-0.2-0.1l-0.2-0.3l-0.1-0.1l-0.1-0.2
		l-0.7-0.2h-0.1c0.2,0.6,0.4,1.3,0.5,1.9s0.2,1.3,0.2,2v0.6l-1.7,0l0.1-1.6c0-0.3,0-0.6-0.1-0.9s-0.1-0.5-0.2-0.8h-0.1l-0.2-0.8
		c-0.1,0.1-0.2,0.2-0.2,0.3s0,0.3-0.1,0.4l-0.3,0.5h-0.1v0.1h-0.1v0.1H144l-0.8,0.8c0.1-0.7,0.2-1.4,0.5-2s0.5-1.3,0.9-1.9v-0.4
		l0,0.1c-0.2,0.1-0.3,0.2-0.5,0.3s-0.4,0.1-0.5,0.1h-0.2c-0.1-0.2-0.1-0.5-0.1-0.8s-0.1-0.5-0.4-0.7v0l1.3-0.1l0-0.4l0-0.3
		c0-0.4,0-0.8-0.2-1.2s-0.4-0.7-0.6-1.1l0.1-0.2l0.8,0.2c0.2,0,0.3,0,0.4,0s0.3-0.1,0.4-0.2l0.1-0.1h0.1l0.2-0.4h0.1
		c0,0.5,0.1,1,0.1,1.5s0.2,1,0.5,1.4v0L146.4,239.6z M152.5,238.4l0.4-0.1l0.3-0.4h0.1l0.3-0.3h0.1l0.1,0.8v0.4c-0.2,0-0.3,0-0.4,0
		s-0.3,0.1-0.4,0.2c0,0.2,0,0.3,0,0.4s-0.1,0.3-0.1,0.4l0.1,0.7l1.1-0.5h0.1l-0.1,0.2l0.3,1.2v0.4c-0.4-0.1-0.8-0.1-1.1-0.1
		s-0.8,0-1.1-0.2c-0.3,0-0.6,0-0.9,0s-0.6,0.1-0.8,0.1L150,242l-1.5,0.5H148l0.1,0l0.1-0.1v-0.7l0,0h0c0.1-0.1,0.3-0.1,0.4-0.2
		s0.4,0,0.5,0l0-0.1c0-0.3,0-0.6,0-0.9s-0.1-0.5,0-0.8c-0.3,0-0.6,0-0.9,0s-0.6-0.1-0.8-0.2l-0.4-0.7l0-0.3l1.1,0h0.4
		c0-0.2,0-0.4,0-0.6s0-0.4-0.1-0.5l-0.2-0.2V237l0.6,0.1c0.2,0,0.3,0,0.5,0s0.3-0.1,0.4-0.1h0.2c0,0.3,0.1,0.6,0.2,0.9
		s0.1,0.6,0.1,0.9l0.3-0.4c0.2,0,0.4,0,0.5,0s0.3,0.1,0.4,0.2c0.1-0.1,0.1-0.1,0-0.2s0-0.2,0.1-0.2l0-0.2V237l0.4,0.1l0.8-0.4h0
		c0,0.2,0,0.4,0.1,0.5s0.1,0.3,0.2,0.5v0.6H152.5z M151.5,242.4l0.4,0.1h1.9l0.1,0c0.1,0.2,0.2,0.5,0.2,0.8s0.1,0.5,0.2,0.8
		c0,0.3,0,0.7-0.1,1s-0.2,0.6-0.4,0.8c-0.3,0-0.6-0.1-0.8-0.2s-0.5-0.3-0.8-0.4c-0.6-0.1-1.2,0-1.8,0.1s-1.1,0.4-1.6,0.7
		c0-0.2,0-0.5,0-0.7s0.1-0.4,0.1-0.7l-0.4-0.8h-0.1v-0.1h-0.1l0-0.1v-0.5c0.2-0.2,0.5-0.3,0.8-0.2s0.6,0,0.8-0.2l0-0.2v-1l0.8,0.2
		c0.1,0,0.2,0,0.3,0s0.2-0.1,0.2-0.1h0.2l0.1,0.4L151.5,242.4L151.5,242.4z M150.4,245.6l-0.1-0.1L150.4,245.6l0.1,0.1
		c0.2,0.1,0.3,0.2,0.4,0.3s0.2,0.3,0.3,0.4c0,0.2,0,0.4,0,0.5s-0.1,0.3-0.2,0.4l-0.2,0.1l-0.4-0.1c-0.3,0-0.7,0-1,0.1
		s-0.6,0.2-0.9,0.3h-0.1l0.2-0.5l0.6-0.2V247h0.1c0.2-0.2,0.3-0.4,0.4-0.6s0.2-0.5,0.4-0.7h0.1L150.4,245.6z M150.2,243.6
		L150.2,243.6L150.2,243.6l-0.3,0l-0.1,0.2l-0.1,0.1l0.1,0.2h0.6l0-0.2v-0.3L150.2,243.6z M150.4,244.6l0.1,0v0l-0.1,0
		c-0.1,0-0.2,0-0.3,0s-0.2,0.1-0.2,0.2l0.2,0.2c0.1,0,0.2,0,0.3,0s0.1-0.1,0.2-0.2v-0.1H150.4z M151.4,239.4L151.4,239.4
		c-0.1,0-0.3,0-0.4,0s-0.3,0-0.4,0.1l-0.1,0.6v0.2l0.1-0.1l0.6,0.1h0.2l0.1-0.5v-0.4L151.4,239.4z M152.3,245.6L152.3,245.6l0.3,0.1
		l0.4,0.6c0.2,0.2,0.4,0.3,0.6,0.3s0.4,0.2,0.6,0.3c0,0.2-0.1,0.4-0.3,0.5s-0.4,0.2-0.6,0.4h0v-0.3l-0.4-0.5h-0.1V247
		c-0.2-0.1-0.3-0.2-0.4-0.3s-0.3-0.2-0.5-0.2L152.3,245.6L152.3,245.6L152.3,245.6z M152.8,243.5L152.8,243.5l0-0.2h-0.6l-0.2,0.3
		l0.3,0.4l0.4,0l0.2-0.5v-0.1L152.8,243.5z M152.4,244.6l0.2,0l0-0.1l-0.4,0.1v0.1l0.2,0.1l0.2-0.1v0L152.4,244.6z"/>
	<path class="st0" d="M164,236.6l-0.2,0.6h-0.1l-0.5,1h-0.1l-0.1,0.1c-0.3,0.2-0.7,0.2-1,0.3s-0.7,0.1-1.1,0.1c0,0.1,0,0.2,0,0.3
		s-0.1,0.2-0.1,0.3c-0.1,0.1-0.3,0.1-0.4,0.2l0.2,0.1l-0.1,0.5c0,0.2,0,0.4,0.1,0.5l0-0.1v-0.1h0.1l0,0.4c0,0.1,0.1,0.1,0.1,0.2v0.4
		l0-0.1c0,0.1,0,0.1,0,0.2c0.2,0,0.4,0,0.6,0s0.5,0,0.7,0.1c0.6-0.1,1.2-0.2,1.8-0.5s1.1-0.6,1.6-1v-0.1l0.2-0.1h0v-0.1h0.2l0,0.1
		l0.1,0.3v0.6h-0.1c0,0.1,0,0.2,0,0.4s-0.1,0.2-0.2,0.3l-0.1,0.1c-0.1,0.2-0.3,0.3-0.4,0.3s-0.3,0.1-0.5,0.2c0,0.2,0,0.4-0.1,0.5
		s-0.2,0.3-0.3,0.5l-0.8,0.3c-0.2,0-0.5,0-0.7-0.1s-0.4-0.2-0.6-0.3c-0.2,0-0.5,0.1-0.6,0.2s-0.4,0.2-0.6,0.3c-0.2,0-0.3,0-0.4,0
		l0.1,1.1l1,0.8c0.1,0.1,0.1,0.1,0.2,0.2s0.1,0.2,0.1,0.3c0.3-0.1,0.6-0.1,0.9-0.1s0.6-0.1,0.9-0.2l0.8,0c0.3,0,0.7,0,1.1,0
		s0.7-0.1,1-0.3h0.2c0.1,0.2,0.1,0.4,0.1,0.6s0,0.4,0.1,0.6l-0.1,0.4c0,0.1,0,0.1,0,0.1s-0.1,0-0.1,0l-0.2,0.8
		c-0.2,0.2-0.5,0.2-0.8,0.2s-0.6,0.1-0.8,0.3c-0.9,0-1.7-0.2-2.5-0.6s-1.6-0.5-2.5-0.4c-0.1,0-0.1-0.1-0.2-0.1s-0.1-0.1-0.2-0.2
		l0-1.3l-0.1-2.1c-0.2,0-0.3,0.1-0.6,0.1s-0.4,0.1-0.6,0.2h-0.4l-0.2-0.4c-0.1,0-0.2-0.1-0.3-0.2s-0.2-0.1-0.3-0.1l0-0.1l-0.8-0.3
		c-0.1-0.1-0.1-0.2-0.2-0.3s-0.1-0.2,0-0.3c-0.2-0.1-0.4-0.2-0.6-0.3s-0.4-0.1-0.6-0.2c0.5,0,1,0,1.5,0s1-0.1,1.5-0.2h1.3
		c0-0.2,0.1-0.5,0.1-0.8s0.1-0.8,0.2-1.3h-0.1v-0.1l-0.2-0.2l-0.2-0.1v-0.1c-0.2,0-0.4,0-0.6-0.1s-0.4-0.1-0.5-0.3l0-0.2l0-0.3
		l-1.2-0.3l0.6-0.2h0.1l0,0l0.5-0.2h2.3c0.2-0.1,0.4-0.2,0.7-0.3s0.4-0.2,0.7-0.3h2.2L164,236.6L164,236.6z M160,239.3L160,239.3
		L160,239.3L160,239.3z M160.5,240.8L160.5,240.8L160.5,240.8L160.5,240.8z"/>
	<path class="st0" d="M167,243.2L167,243.2L167,243.2L167,243.2z M167.3,243.4L167.3,243.4l0.2,0l0.1,0v0l0.1-0.1
		c0.8,0.1,1.6,0.3,2.4,0.5s1.6,0.5,2.4,0.9c0.3-0.1,0.6-0.1,0.8-0.2s0.6-0.1,0.9-0.1l2,0.1l1.2-1.1c0.1,0,0.3-0.1,0.4-0.1
		s0.3-0.1,0.4,0c-0.4,0.3-0.6,0.7-0.7,1.2s-0.3,0.9-0.5,1.3l-0.8,0.4l-0.3,0.6l-0.1,0c-0.1-0.1-0.3-0.2-0.4-0.3s-0.3-0.1-0.5-0.1
		l-0.2,0.1v0.1h-0.2c-0.2-0.1-0.4-0.2-0.6-0.2s-0.5-0.1-0.7,0c-0.2,0.1-0.3,0.1-0.5,0.1s-0.3,0.1-0.4,0.2c-0.1,0.1-0.2,0.2-0.4,0.2
		s-0.3,0.1-0.4,0c-0.1,0.1-0.2,0.2-0.3,0.3s-0.2,0.1-0.4,0.1c-0.2-0.2-0.3-0.2-0.5-0.3s-0.4-0.1-0.5-0.2v-0.1l-0.9-0.6l-0.2-0.3
		v-0.4l0.1-0.4l-0.3-0.1V245l-0.6-0.2c-0.1-0.1-0.2-0.3-0.2-0.5s-0.1-0.4-0.1-0.5h-0.1l-0.2-0.2v-0.1l0-0.2L167.3,243.4L167.3,243.4
		z M167.7,243.4L167.7,243.4l-0.2,0.1l-0.1-0.1l0.4-0.3h0L167.7,243.4z M172.6,238.6c0.6-0.1,1.2-0.2,1.7-0.3s1.1-0.3,1.6-0.6
		l-0.5,0.3l0.4-0.2h0.1c0,0.2,0,0.4,0,0.7s-0.1,0.4-0.2,0.6l-0.4,0.2c-0.1,0.1-0.2,0.2-0.4,0.3s-0.2,0.2-0.3,0.4
		c-0.2,0.2-0.4,0.3-0.6,0.4s-0.4,0.2-0.7,0.2c-0.2,0-0.3,0-0.5,0s-0.3,0-0.5-0.1c-0.2,0-0.4,0-0.6,0s-0.4,0.1-0.6,0.2
		c-0.4-0.2-0.9-0.4-1.4-0.5s-1-0.3-1.4-0.4l-0.2-0.2l0-0.4c0-0.2,0-0.4-0.1-0.6s-0.2-0.3-0.3-0.5l-0.1,0h0l0,0l0.2,0.1h2.5
		c0.3,0.1,0.6,0.2,1,0.2S172.3,238.6,172.6,238.6z"/>
	<path class="st0" d="M185.1,237.1L185.1,237.1L185.1,237.1h0.1H185.1l0,0.3l-0.8,0.7c-0.3,0.9-0.7,1.8-1,2.7s-0.6,1.8-0.9,2.7h-0.1
		v0.1h-0.1v0.1l-1.2,0l-0.1,0.1l-0.3,0.1l-0.3,0.3h-0.1l-0.1-0.2c-0.3,0-0.5,0-0.8,0.1s-0.5,0.2-0.7,0.3l0.1-0.1l0.1-0.1l1-0.7
		c0.2-1,0.5-2,0.9-2.9s0.8-1.9,1.1-2.8l0-0.6l0-0.6l0.2-0.1c0.1,0,0.2,0,0.3,0s0.2,0.1,0.3,0.1v0.1l1,0.4l0.6-0.1H185.1z
		 M185.2,237.8L185.2,237.8c0.8,0.2,1.5,0.3,2.2,0.5s1.5,0.3,2.2,0.3l0.4-0.2l0.1-0.4h0l0.2,0.3c-0.1,0.2-0.2,0.5-0.3,0.7
		s-0.1,0.5-0.1,0.8c0.2,0.4,0.3,0.9,0.3,1.3s0.1,0.9,0.1,1.4l-0.1,0.3l-0.6,0.4l-0.2,0.1c-0.3,0.4-0.6,0.9-0.8,1.3
		c-0.2,0.5-0.4,0.9-0.7,1.3l-0.6,0.4l-0.6,0.6c-0.7,0.2-1.4,0.4-2.1,0.6s-1.3,0.5-2,0.7l-0.7,0c0.3-0.3,0.6-0.5,1-0.5
		s0.7-0.2,1.1-0.5l0.1-0.1l0-0.1c0.3-0.2,0.7-0.4,1.1-0.6s0.7-0.3,1.1-0.6l0.3-0.4c0.1-0.2,0.2-0.4,0.1-0.6s0-0.4,0.1-0.6l0.7-0.4
		c0.4-0.4,0.7-0.9,0.8-1.5s0.1-1.1,0.1-1.7l-0.5-0.4c-0.3,0-0.7-0.1-0.9-0.2s-0.6-0.2-1-0.1l-0.2,0l-0.3-0.1v-0.1l-0.8-0.5l0-0.1
		l-0.4-0.1l-0.1,0V239h-0.1l0-0.4l0.7-0.6L185.2,237.8L185.2,237.8z M183.9,241.4L183.9,241.4l0,0.1c0.5,0.3,1,0.6,1.5,0.7
		s1,0.3,1.6,0.3l0,0.1l0.4,0.4v0.1h0.1l0,0.1l0.4,0.2c-0.1,0.1-0.2,0.1-0.4,0.2s-0.2,0.1-0.4,0.1l-0.2,0.1l-0.1,0.1
		c-0.2,0.2-0.3,0.5-0.4,0.7s-0.2,0.5-0.1,0.8l-0.3-0.2v-0.1l-0.1-0.1l-0.2-0.2h-0.1v-0.1l-0.8-0.9c-0.1-0.3-0.2-0.7-0.4-1
		s-0.3-0.6-0.5-0.9l-0.2-0.2v-0.4l0.2,0L183.9,241.4L183.9,241.4z M184.7,238.7L184.7,238.7l-0.5,0.1c-0.1-0.1-0.1-0.1-0.1-0.2
		s0-0.2,0-0.3l0.2-0.3l0.1,0l0.2-0.3l0.5-0.1l0.2,0.1l0.1,0.7l-0.5,0.4L184.7,238.7z M187.1,245.6l-0.2,0c-0.1-0.1-0.2-0.2-0.3-0.2
		s-0.2-0.1-0.3-0.1l0-0.6l0.5-1.2c0.2-0.1,0.4-0.1,0.6-0.1s0.4,0,0.6,0l0.3,0.2v0.3L187.1,245.6z"/>
	<path class="st0" d="M191.8,241.3L191.8,241.3c0.1,0.2,0.3,0.3,0.5,0.3s0.4,0.1,0.6,0.1h2l0.2,0l0.6-0.2l0.2-0.2h0.1
		c0.3,0.1,0.6,0.2,0.9,0.2s0.6,0,1,0l0.3-0.1l0-0.1c0.2,0,0.4-0.1,0.6-0.1s0.4-0.1,0.6-0.2l0.5,0.2v0.2h0.3c0.1-0.1,0.2-0.1,0.3-0.2
		s0.2-0.1,0.4,0l0.4,0.1l0.6-0.2v-0.2l0,0.1l0.1,0.3l0.1,0.3l0,0.1l-0.1,0l-0.1,0.1h-0.1v0.1l-0.3,0.3l0.3,0.3l0,0.3h0.3h-0.8v0.4
		l-0.2,0c-0.2-0.1-0.3-0.2-0.5-0.2s-0.4-0.1-0.6-0.1l-0.3,0.1c-0.1-0.1-0.2-0.2-0.4-0.2s-0.3-0.1-0.4-0.1l-0.2,0.1
		c-0.1,0.1-0.3,0.1-0.4,0.1s-0.3,0-0.5,0l-1.6-0.1c-0.2,0.1-0.5,0.2-0.7,0.3s-0.5,0.2-0.8,0.1l-0.9,0l-0.5,0.2l-0.5,0.4l-0.2,0
		l0,0.1l-0.4-0.2l-0.3-0.3l-0.1-0.4c-0.1,0-0.1-0.1-0.1-0.1s0-0.1,0-0.2l0-0.4l0-0.3l-0.1-0.3l0.1-0.4h-0.1c0-0.1-0.1-0.2-0.1-0.2
		s-0.1-0.1-0.2-0.2h0.1l0.8,0.3v0.4v0l0.1-0.1L191.8,241.3z"/>
	<path class="st0" d="M210.1,241.5L210.1,241.5L210.1,241.5l-0.2,0.2h-0.1v0.1l0.2,0.2c0,0.3,0,0.6,0,0.8s-0.1,0.5-0.1,0.8l-0.1,0.2
		l-1,0l-0.6,0.1h-0.3l-0.4-0.6l-0.1,0l-0.2-0.4c0-0.3,0-0.7,0-1s0.2-0.6,0.4-0.8c0.2,0,0.5,0,0.7-0.1s0.4-0.1,0.6-0.2
		c0.2,0,0.3,0,0.4,0.1s0.2,0.2,0.4,0.2l0.1,0.7h0.1L210.1,241.5z"/>
	<path class="st0" d="M220.4,237.3c0,0.1,0,0.2,0,0.3h-0.1L220,238l-0.1,0.1c-0.2,0.1-0.4,0.2-0.6,0.4s-0.4,0.3-0.6,0.4
		c-0.1,0-0.1,0-0.2,0s-0.1-0.1-0.2-0.2c-0.2,0-0.4,0-0.5,0s-0.3,0.1-0.4,0.3c0,0.2,0,0.5,0.1,0.7s0.2,0.4,0.3,0.6l0.6,0.8
		c0.2,0,0.4,0,0.6,0.1s0.3,0.2,0.5,0.3c0.2,0,0.3,0,0.4,0s0.3-0.1,0.4-0.2l0.1,0.2c0,0.2-0.1,0.4-0.2,0.5s-0.2,0.3-0.3,0.5l-0.3,0.2
		l-0.5-0.2l-0.2-0.2h-0.2l-0.2,0.2l-0.7-0.1v0l-0.1,0.4l0,0.2v0.5l-0.7,0.8l0,0.2l0.3,0.3l0,0v-0.2l0,0l-0.1,0.2c0,0.1,0,0.2,0,0.4
		s0,0.2,0.1,0.3c0.1,0.2,0.3,0.3,0.4,0.3s0.3,0.1,0.5,0.2l0.6-0.1c0.2,0,0.5,0,0.7,0.1s0.4,0.2,0.6,0.3l0.5,0l0.1-0.3
		c0,0.2,0,0.3,0,0.5s0,0.3-0.1,0.4l0.1,0.8v0.2L220,248c-0.7-0.1-1.3-0.1-2-0.1s-1.3-0.1-1.9-0.4c-0.2,0-0.5,0-0.7,0.1
		s-0.4,0.2-0.5,0.4l-0.2-0.1c0.2-0.5,0.5-1.1,0.7-1.7s0.4-1.2,0.4-1.8v-1.9c0.2-0.2,0.2-0.5,0.2-0.9s0-0.6,0-1
		c0-0.6-0.1-1.1-0.3-1.6s-0.2-1.1-0.2-1.6v-0.2c0.2,0.2,0.3,0.2,0.6,0.2s0.4,0,0.6,0c0.3,0,0.6,0,0.8,0s0.5-0.1,0.7-0.3l1.1,0l0.9,0
		V237l0.1,0C220.4,237,220.4,237.2,220.4,237.3z"/>
	<path class="st0" d="M224.3,237.5c0,0.3,0,0.5,0,0.8l0.6,0.6c0.2,0,0.3,0,0.4-0.1s0.2-0.1,0.4-0.2h0.2c0,0.3,0,0.6,0,0.8
		s0.2,0.5,0.3,0.7v0.4c-0.2,0-0.4,0-0.7,0s-0.4-0.1-0.6-0.2l-0.9,0l0.1,0.2l0.4,0.8c0.3,0.7,0.6,1.3,0.8,2s0.4,1.4,0.7,2.1l-0.2-0.1
		l-0.1-0.1l0-0.2l-1.4-1.2h0c0,0.1,0,0.1,0,0.2s0.1,0.1,0.2,0.1c0.1,0.2,0.2,0.3,0.2,0.5s0,0.4,0,0.6h0.1l0.5,1.1
		c0,0.3,0,0.6-0.1,0.9s-0.1,0.6-0.1,0.9l-0.3-0.2c-0.2,0-0.4,0-0.7,0s-0.4,0-0.6,0.1h-0.2c0.1-0.4,0.1-0.7,0.3-1.1s0.1-0.7,0.1-1.1
		l0-1.9c-0.1,0.2-0.1,0.4-0.3,0.7s-0.2,0.4-0.4,0.7c-0.2,0.2-0.3,0.4-0.5,0.6s-0.4,0.4-0.7,0.4c0.2-0.8,0.4-1.5,0.4-2.3
		s0.2-1.5,0.4-2.3v-1.3l-0.9,0.4h0c0-0.4,0-0.8-0.1-1.2s-0.2-0.8-0.4-1.1l0.1,0.1l0.4,0.2h1.7l-0.6-1.8v-0.2l0.6,0.2
		c0.2,0,0.4,0,0.5,0s0.3-0.1,0.4-0.2C224.3,237,224.3,237.2,224.3,237.5z M230.8,237.1v0.2l-0.2-0.2v0.3l-0.4,0.3c0,0.1,0,0.2,0,0.4
		s0,0.2,0.1,0.3c0.3,0,0.7,0,1,0s0.6-0.2,0.8-0.3h0l0,1.7l-0.8-0.1c-0.2,0-0.4,0-0.5,0s-0.3,0.1-0.5,0.2l0.2,0.7l0.3,0.3
		c0.2,0,0.4-0.1,0.5-0.1s0.3-0.1,0.5-0.2h0.1l0,1.7c0,0.4,0,0.7,0,1.1s0.1,0.7,0.2,1v0.5c-0.3,0-0.6-0.1-0.8-0.2s-0.5-0.2-0.8-0.3
		h-0.1c0.2,0.4,0.5,0.8,0.6,1.3s0.3,0.9,0.4,1.4c0.1,0.2,0.2,0.4,0.4,0.6s0.3,0.3,0.6,0.4l-1.1-0.7v-0.1l-0.2-0.1V247l-0.2-0.1
		c-0.1-0.2-0.2-0.3-0.4-0.5s-0.2-0.3-0.3-0.5v0l0.1,0.7c0,0.2,0,0.5-0.1,0.7s-0.1,0.5-0.2,0.7c-0.2,0-0.3,0-0.5,0s-0.3,0.1-0.4,0.2
		l-0.1-2.3l-0.8,0.5l-0.4,0.3l-0.2,0.4l-0.2,0.1l-2,0.8l0.6-0.5l0.1-0.1h0.1l1.2-1.2l0.1-0.1h0.1c0.1-0.2,0.2-0.3,0.3-0.4
		s0.3-0.2,0.4-0.3l0.1-0.1l0.2-0.1l0-0.9l-0.4-0.1c-0.2,0-0.4,0-0.6,0.1s-0.4,0.2-0.6,0.4h0l0.1-0.3c0-0.4-0.1-0.9-0.2-1.3
		s-0.1-0.9-0.2-1.3V241c0.3-0.1,0.6-0.1,1-0.1s0.7,0,1,0l0-1.2c-0.3,0-0.6,0-0.8,0.1s-0.5,0.2-0.8,0.3h0c0-0.3,0-0.6-0.1-0.9
		s-0.1-0.6-0.3-0.9v-0.2c0.4,0.1,0.8,0.2,1.2,0.2s0.8,0.1,1.2,0.3l-0.4-1.5v-0.1l0.1,0c0.3,0,0.7,0,1-0.1s0.6-0.1,1-0.2h0.1
		L230.8,237.1z M228.5,243v0.1l-0.3-0.2l-0.3,0v0.1l-0.2,0.1l0.1,0.3l0.2,0.2l0.3-0.1L228.5,243z M228.3,242l-0.1-0.3l-0.1-0.1
		l-0.4,0.1c0,0.1,0,0.2,0,0.4s0.1,0.2,0.2,0.3h0.2l0-0.1L228.3,242z M231.1,242l0-0.3l-0.3-0.1c-0.1,0-0.2,0-0.3,0s-0.1,0.1-0.2,0.2
		c0,0.1,0,0.2,0,0.3s0,0.2,0.1,0.2l0.1,0.1l0.5-0.2L231.1,242z M230.8,244v0.1l0.3-0.5v-0.1l-0.5-0.4l-0.2,0l-0.1,0.2l0.1,0.6
		l0.2,0.1l0.1,0.2V244z"/>
	<path class="st0" d="M241.9,237.5l0.6-0.3v0c0.2-0.1,0.3-0.1,0.5-0.1s0.4-0.1,0.5-0.2v-0.1l0.3-0.1l0.1,0h0.1c0,0.4,0,0.7,0,1.1
		s0.1,0.7,0.2,1c0,1.6-0.3,3.1-0.8,4.5s-0.8,3-0.9,4.5l-0.2,0.2l0,0.2h-0.1l-0.3,0.4c-0.1,0-0.2,0-0.4,0s-0.2,0-0.3-0.1l-0.1-0.9
		c-0.2,0.1-0.4,0.1-0.6,0.2s-0.4,0.1-0.6,0.1l-1.9-0.1l-0.7,0l-0.9-0.1c-0.1,0-0.3,0-0.4,0s-0.3,0-0.4,0.1l-0.3,0.1h-0.1l-0.4,0.3
		l-0.4-0.1l-0.1-0.3l-0.2,0.1h-0.2l-0.1-0.1c-0.2-0.4-0.3-0.8-0.3-1.2s-0.1-0.8-0.4-1.1l-0.2-0.2l0-0.1v-0.4
		c0.8,0.3,1.6,0.6,2.4,0.8s1.7,0.3,2.5,0.4c0.4,0,0.7,0,1.1,0s0.7-0.1,1-0.2c0.3-0.2,0.5-0.5,0.6-0.9s0.2-0.7,0.3-1l-0.1-1
		c0-0.4,0.1-0.8,0.3-1.1s0.4-0.7,0.5-1h0.1c0.1-0.2,0.2-0.4,0.3-0.7s0.2-0.4,0.2-0.7v-0.2c-0.2,0-0.3,0-0.5,0s-0.3,0.1-0.4,0.2v0.1
		c-0.3,0.2-0.7,0.4-1.1,0.5s-0.7,0.4-1.1,0.5c-0.1,0-0.2,0-0.3,0s-0.2,0-0.3-0.1c-0.2,0-0.3,0-0.5,0s-0.2,0.1-0.4,0.2l-0.4,0.9
		l-0.4,0.3c-0.1,0-0.3,0-0.4,0s-0.3,0-0.3-0.2c0-0.2,0-0.3-0.1-0.4s-0.1-0.3-0.2-0.4l-0.6-0.7c-0.2,0-0.3,0.1-0.4,0.3
		s-0.2,0.3-0.4,0.5l-0.3-0.1c-0.1-0.6-0.2-1.2-0.5-1.9s-0.5-1.2-0.9-1.8v-0.1c0.5,0.2,1,0.5,1.5,0.7s1.1,0.4,1.6,0.5
		c0.6-0.1,1.2-0.2,1.9-0.4s1.2-0.3,1.9-0.4h1.9L241.9,237.5L241.9,237.5z"/>
	<path class="st0" d="M251.8,241.8L251.8,241.8c0.1,0.2,0.2,0.4,0.4,0.6s0.3,0.4,0.4,0.7c0,0.1,0,0.2,0,0.3s-0.1,0.2-0.2,0.2
		c-0.6-0.2-1.1-0.3-1.7-0.5s-1.2-0.2-1.9-0.2l-0.4-0.2h-0.1c0-0.2,0-0.4,0-0.7s-0.1-0.4-0.3-0.6h-0.1v-0.1l-0.8-0.2V241H247v0l0.8,0
		c0.3,0,0.7,0,1.1,0s0.7-0.1,0.9-0.3l0.6,0l0.1,0.1l0.3,0.1l0.1,0.1c0.2,0.1,0.3,0.1,0.5,0.2s0.3,0.2,0.5,0.2L251.8,241.8z
		 M253.1,237.8l-0.6-0.1L253.1,237.8c0.1,0.2,0.2,0.4,0.3,0.7s0.3,0.5,0.4,0.7l-0.1,1.1c-0.5,0-0.9-0.1-1.3-0.1s-0.8-0.1-1.2-0.3
		v-0.1l-0.1,0c-0.1-0.2-0.2-0.3-0.3-0.5s-0.1-0.4-0.3-0.5l-1.2-0.6v-0.1c-0.3-0.1-0.5-0.2-0.8-0.3s-0.5-0.3-0.7-0.4v-0.1l-0.7-0.2
		c1-0.1,2,0.1,2.9,0.4s1.9,0.5,2.9,0.5H253.1z M249.9,244.9c0.3,0,0.6,0,0.9,0.1s0.5,0.2,0.7,0.3l0.4,0.1l0.1,0.1l0.6,0.2l0.3,0.5
		c-0.2,0.3-0.4,0.6-0.3,1s0,0.7-0.2,1l-0.7,0l-0.2-0.3c-0.2-0.1-0.4-0.1-0.6-0.1s-0.4,0-0.6-0.1l-1-1.2c-0.2-0.2-0.5-0.3-0.8-0.4
		s-0.5-0.3-0.8-0.4v-0.1l-0.4-0.2v0c0.4-0.1,0.8-0.1,1.3-0.1S249.5,245.1,249.9,244.9z"/>
	<path class="st0" d="M263.1,239.9l0.1-0.1l0,0.3c0,0.2,0,0.4,0,0.6s0.1,0.4,0.2,0.5c0,0.1,0,0.2,0,0.3s0,0.2-0.1,0.3
		c0,0.1,0,0.3,0,0.4s0,0.3,0.1,0.4c0,0.4,0,0.8-0.1,1.1s-0.2,0.7-0.4,1l-0.1,0l-0.2,0.4l-0.1,0c-0.1,0.2-0.1,0.3-0.2,0.5
		s-0.1,0.3-0.1,0.5c0.4,0.2,0.7,0.3,1.1,0.4s0.8,0.1,1.2,0.1v0l-0.1,0.2h-0.1l-0.2,0.4l-0.1,0.2H264l-0.2,0.3h-0.1v0.1l-0.6,0.1
		c-0.5-0.2-1-0.3-1.6-0.3s-1.1-0.1-1.6-0.1l-0.6,0.2v0.1l-0.4,0h-1.3l-0.1,0l-0.1-0.2l-0.3-0.1c-0.1-0.1-0.1-0.2-0.2-0.4
		s-0.1-0.2-0.1-0.4l-0.2-0.3l0-0.2l0,0l0,0h0.1h0.1c0.4,0.2,0.8,0.3,1.2,0.5s0.8,0.2,1.3,0.1c0.2,0,0.4,0,0.6-0.1s0.4-0.1,0.5-0.3
		l0.1-0.1c0.1-0.1,0.2-0.2,0.3-0.1s0.2,0,0.3,0l0,0.1h0.1c0.1,0,0.1-0.1,0.2-0.1l0.2,0c0.1-0.1,0.1-0.1,0.2-0.1c0,0,0.1,0,0.2,0
		l0.3,0.1c0,0,0-0.1,0-0.1c-0.1,0-0.2,0-0.3,0s-0.1,0-0.2,0.1c-0.1,0-0.1,0-0.2,0s-0.1,0.1-0.2,0.1l-0.1,0c0,0-0.1,0-0.1,0l0.1-0.2
		h0.1l0.6-1.8l0.3-0.6l-0.2-1.2c0-0.1,0-0.2,0-0.4s0-0.2,0.1-0.3v-0.2l-0.3-0.1c-0.2,0-0.3,0-0.4,0.1s-0.2,0.2-0.4,0.2l-0.3,0
		c-0.3,0-0.6,0-0.9,0s-0.6,0.1-0.9,0.2h0l0-0.6l-0.1,0l-0.3-0.8l-0.1,0h0.1v0l0.7,0.2c0.2,0,0.5-0.1,0.7-0.3s0.4-0.3,0.7-0.3h2
		L263.1,239.9L263.1,239.9z M256.8,246.3L256.8,246.3L256.8,246.3L256.8,246.3z M261.1,246.7L261.1,246.7l0.1-0.2l0.2-0.2l0.1-0.1
		l0.2-0.2h0.1c0.1,0.1,0.2,0.2,0.3,0.4s0.2,0.3,0.2,0.4l-0.7,0L261.1,246.7z"/>
	<path class="st0" d="M265.8,243.2L265.8,243.2L265.8,243.2L265.8,243.2z M266.1,243.4L266.1,243.4l0.2,0l0.1,0v0l0.1-0.1
		c0.8,0.1,1.6,0.3,2.4,0.5s1.6,0.5,2.4,0.9c0.3-0.1,0.6-0.1,0.8-0.2s0.6-0.1,0.9-0.1l2,0.1l1.2-1.1c0.1,0,0.3-0.1,0.4-0.1
		s0.3-0.1,0.4,0c-0.4,0.3-0.6,0.7-0.7,1.2s-0.3,0.9-0.5,1.3l-0.8,0.4l-0.3,0.6l-0.1,0c-0.1-0.1-0.3-0.2-0.4-0.3s-0.3-0.1-0.5-0.1
		l-0.2,0.1v0.1h-0.2c-0.2-0.1-0.4-0.2-0.6-0.2s-0.5-0.1-0.7,0c-0.2,0.1-0.3,0.1-0.5,0.1s-0.3,0.1-0.4,0.2c-0.1,0.1-0.2,0.2-0.4,0.2
		s-0.3,0.1-0.4,0c-0.1,0.1-0.2,0.2-0.3,0.3s-0.2,0.1-0.4,0.1c-0.2-0.2-0.3-0.2-0.5-0.3s-0.4-0.1-0.5-0.2v-0.1l-0.9-0.6l-0.2-0.3
		v-0.4l0.1-0.4l-0.3-0.1V245l-0.6-0.2c-0.1-0.1-0.2-0.3-0.2-0.5s-0.1-0.4-0.1-0.5H266l-0.2-0.2v-0.1l0-0.2L266.1,243.4L266.1,243.4z
		 M266.5,243.4L266.5,243.4l-0.2,0.1l-0.1-0.1l0.4-0.3h0L266.5,243.4z M271.4,238.6c0.6-0.1,1.2-0.2,1.7-0.3s1.1-0.3,1.6-0.6
		l-0.5,0.3l0.4-0.2h0.1c0,0.2,0,0.4,0,0.7s-0.1,0.4-0.2,0.6l-0.4,0.2c-0.1,0.1-0.2,0.2-0.4,0.3s-0.2,0.2-0.3,0.4
		c-0.2,0.2-0.4,0.3-0.6,0.4s-0.4,0.2-0.7,0.2c-0.2,0-0.3,0-0.5,0s-0.3,0-0.5-0.1c-0.2,0-0.4,0-0.6,0s-0.4,0.1-0.6,0.2
		c-0.4-0.2-0.9-0.4-1.4-0.5s-1-0.3-1.4-0.4l-0.2-0.2l0-0.4c0-0.2,0-0.4-0.1-0.6s-0.2-0.3-0.3-0.5l-0.1,0h0l0,0l0.2,0.1h2.5
		c0.3,0.1,0.6,0.2,1,0.2S271,238.6,271.4,238.6z"/>
	<path class="st0" d="M289,239.4l-0.1,0.1h0c0,0.3,0,0.7,0,1s-0.2,0.6-0.4,0.8l-0.3,0.3L288,242l-0.3,0.3l-0.1,0.1v-0.2
		c-0.3,0-0.6,0.1-0.8,0.2s-0.5,0.2-0.8,0.3l-0.3,0c0,0.3,0,0.6,0,0.9s0,0.6-0.2,0.9l-0.1,0.1l-0.2,0.1v0.1h-0.1l-0.1,0.2h-0.1v0.1
		c-0.2,0.2-0.3,0.5-0.4,0.8s-0.1,0.6-0.2,0.9l-0.1,0l-0.6,0.8l-0.1,0l-0.1,0.3h-0.1l-0.4,0.4h0v-0.1l0.1-0.1l-0.3-0.4h-0.1l0,0.2
		h-0.1v0.1l-0.5,0.3c-0.3-0.1-0.7-0.2-1.1-0.2s-0.8,0-1.1,0l1-0.2l0.2-0.4h0.1v-0.1l0.3-0.3l0.2-0.2l0.6-0.7l0.2-0.2
		c0.4-0.5,0.6-1,0.8-1.6s0.4-1.1,0.7-1.5h0l0.1-0.1l0.1-0.1h0l0.5-0.4c0.1,0,0.2,0,0.3,0c0,0,0,0-0.1,0c-0.1,0-0.2,0-0.3,0
		s-0.2,0.1-0.2,0.2l-0.1,0.1l-0.3,0.2l-1.5,0.6l-0.2,0l-0.1-0.1h-0.1l-0.1-0.1v-0.1l-0.4-0.2c-0.1,0-0.2,0-0.4,0s-0.2,0.1-0.2,0.2
		l-0.4,0.2l-0.3-0.2V243L280,243l-0.2-0.2c-0.2-0.2-0.3-0.4-0.3-0.6s-0.1-0.4-0.2-0.6l-0.7-0.3c-0.1-0.2-0.1-0.3-0.1-0.5
		s0-0.3,0-0.5L278,240l0,0l-0.1,0l-0.1-0.1v0h0.1l0.1,0.1l0.2,0v-0.2l0.4,0.1l0.1,0.3l0.1,0.1l0,0.1c0.2,0.1,0.5,0.2,0.8,0.3
		s0.6,0.1,0.9,0.2l0.7,0h4.5c0.5-0.2,1-0.3,1.5-0.5s1-0.4,1.4-0.7l0.1-0.1H289z M280.7,237.4L280.7,237.4c0.5,0,0.9-0.1,1.3-0.1
		s0.8-0.1,1.3-0.1l1.1,0.2l0.1,0v-0.1c0.2-0.2,0.5-0.3,0.8-0.3s0.6-0.1,0.9,0l0.6,0l0.1,0l-0.3,0.6h-0.1c-0.1,0.2-0.2,0.4-0.3,0.6
		s-0.2,0.4-0.3,0.6c-0.2,0-0.4,0-0.7,0s-0.4,0-0.6,0.1l-0.4,0.5l-0.2,0.3l-0.4-0.8l-0.2,0l-0.1,0l-0.1,0.2c-0.2-0.2-0.5-0.4-0.9-0.4
		s-0.7-0.1-1-0.1l-0.3,0.3l-0.5-0.3l-0.1-0.1l-0.2-0.2c-0.1-0.1-0.1-0.2-0.1-0.3s0-0.2,0-0.4h0.5L280.7,237.4l0.5,0.3L280.7,237.4z
		 M284.2,243.1L284.2,243.1l-0.2-0.7c0.2-0.1,0.3-0.2,0.6-0.3s0.4-0.1,0.7-0.1l0.3,0.5h0.1v0.2l-0.1,0.1v0.1h-0.1l0,0.1l-0.1,0
		l-0.3,0.2L284.2,243.1z M285.4,242.5c-0.1-0.1-0.2-0.1-0.3-0.1s-0.1,0-0.1,0C285.2,242.5,285.3,242.5,285.4,242.5L285.4,242.5z
		 M287,236.7l-0.1,0.1L287,236.7L287,236.7L287,236.7z"/>
	<path class="st0" d="M294.5,240.9c0.3-0.2,0.6-0.3,0.8-0.5s0.5-0.3,0.8-0.4l0,0l0.3,0.1l0.3-0.1h0.2c0,0.4-0.1,0.8-0.3,1.2
		s-0.4,0.7-0.6,1.1l-0.3,0.2l-0.3-0.5l-0.4,0.2l0.1,0.1c0.1,0.3,0.1,0.5,0.2,0.8s0.1,0.6,0.2,0.8c0,0.2,0,0.4-0.1,0.6
		s-0.2,0.3-0.2,0.5l0.1,0.7c0,0.2,0,0.5,0,0.7s-0.1,0.4-0.1,0.7h-0.1l-0.3,0.3c-0.1,0.2-0.2,0.4-0.2,0.6s-0.1,0.4-0.1,0.6l-0.1,0.1
		h0l-0.1-0.3l0,0.2l-0.1,0.1h-0.1v-0.2l-0.2-0.1l-0.1-0.2v-1.8c0-0.1,0-0.3-0.1-0.4s-0.1-0.2-0.1-0.3c0-0.2,0.1-0.4,0.2-0.6
		s0.2-0.4,0.3-0.6l-0.2-0.8c0-0.1,0-0.3,0-0.4s0.1-0.2,0.1-0.3h0.1l0.3-0.2c-0.2,0-0.3,0.1-0.4,0.2l-0.1,0l-0.2,0.4
		c-0.1,0.1-0.2,0.2-0.3,0.3s-0.2,0.2-0.3,0.2l-0.2,0.3l-0.7,0.9l-0.2,0.1l-0.4-0.1l-0.3,0l0,0.4l-0.2,0.1v0.1l-0.2,0.1h0l0-1.1
		c0-0.1-0.1-0.2-0.2-0.2s-0.2-0.1-0.3-0.2l0.1-0.4c0-0.1,0-0.2,0-0.3s0-0.2-0.1-0.2v-0.1h-0.1v-0.1l-0.2-0.1v0
		c0.4-0.2,0.8-0.2,1.2-0.3s0.8-0.1,1.2-0.2l0.2-0.2l0.2-0.2l1.2-0.8v-0.1L294.5,240.9L294.5,240.9z M294.9,241.9L294.9,241.9
		L294.9,241.9L294.9,241.9z"/>
	<path class="st0" d="M302.4,238.1l-0.2,0l0.1,0.2l0.1,0c0.1,0.2,0.3,0.5,0.4,0.8s0.3,0.5,0.3,0.8c0,0.9-0.2,1.9-0.4,2.8
		s-0.6,1.8-1.1,2.6l-0.5,0.6l-0.6,0.4l-0.2,0.1l0.2,0.6l-0.1,0.3c-0.4,0-0.8,0.1-1.1,0.2s-0.7,0.2-1,0.4l0.2-0.2l0.4-0.5l0.1-0.1
		l0.1,0l0-0.1l0.1,0c0.3-0.8,0.7-1.5,1.1-2.2s0.7-1.5,0.9-2.3c-0.1-0.8-0.1-1.5-0.1-2.2s-0.2-1.4-0.5-2.1c0.3,0.1,0.6,0.1,0.8,0.1
		s0.5,0,0.7,0.1l0,0l0,0C302.3,238,302.3,238,302.4,238.1z M305.5,237.4h0.3l-0.1,0c0,0.2,0,0.3,0,0.5s0.1,0.3,0.2,0.4v3.5
		c0.1,0.3,0.1,0.6,0.2,0.8s0.1,0.5,0.2,0.8c0,0.3,0,0.7,0,1.1s-0.1,0.7-0.2,1l0.1,0v-0.1l0.3-0.4l1.5-0.9l0.4-0.9c0-0.2,0-0.5,0-0.7
		s-0.1-0.4-0.1-0.7v-0.2l0.1,0c0.1,0.1,0.2,0.2,0.3,0.3s0.2,0.2,0.3,0.4l0.2-0.3v0c0,0.2,0,0.5-0.1,0.7s-0.2,0.4-0.3,0.6l0.3,0.8
		c0,0.2,0,0.4,0,0.6s0,0.4-0.1,0.5l-1.1,0.7v0.1h-0.1l-0.1,0.3l-0.1,0.1c-0.2,0.2-0.4,0.3-0.6,0.5s-0.4,0.3-0.7,0.3l-1,0
		c-0.1,0-0.3,0-0.4,0.1s-0.2,0.1-0.3,0.2l-0.2-0.2l0-0.1c0-0.2,0.1-0.5,0.2-0.7s0.1-0.4,0.2-0.6v-2.4l0.2-1c0.1-0.5,0-1-0.3-1.4
		s-0.4-0.9-0.5-1.4H304l0.1-1.6l-0.3-0.8v-0.1l0,0l0.3,0c0.1,0,0.3,0,0.5,0s0.3,0.1,0.4,0.3L305.5,237.4z M306,237.4h-0.2l0.1,0
		L306,237.4z"/>
	<path class="st0" d="M311,241.3L311,241.3c0.1,0.2,0.3,0.3,0.5,0.3s0.4,0.1,0.6,0.1h2l0.2,0l0.6-0.2l0.2-0.2h0.1
		c0.3,0.1,0.6,0.2,0.9,0.2s0.6,0,1,0l0.3-0.1l0-0.1c0.2,0,0.4-0.1,0.6-0.1s0.4-0.1,0.6-0.2l0.5,0.2v0.2h0.3c0.1-0.1,0.2-0.1,0.3-0.2
		s0.2-0.1,0.4,0l0.4,0.1l0.6-0.2v-0.2l0,0.1l0.1,0.3l0.1,0.3l0,0.1l-0.1,0l-0.1,0.1H321v0.1l-0.3,0.3l0.3,0.3l0,0.3h0.3h-0.8v0.4
		l-0.2,0c-0.2-0.1-0.3-0.2-0.5-0.2s-0.4-0.1-0.6-0.1l-0.3,0.1c-0.1-0.1-0.2-0.2-0.4-0.2s-0.3-0.1-0.4-0.1l-0.2,0.1
		c-0.1,0.1-0.3,0.1-0.4,0.1s-0.3,0-0.5,0l-1.6-0.1c-0.2,0.1-0.5,0.2-0.7,0.3s-0.5,0.2-0.8,0.1l-0.9,0l-0.5,0.2l-0.5,0.4l-0.2,0
		l0,0.1l-0.4-0.2l-0.3-0.3l-0.1-0.4c-0.1,0-0.1-0.1-0.1-0.1s0-0.1,0-0.2l0-0.4l0-0.3l-0.1-0.3l0.1-0.4h-0.1c0-0.1-0.1-0.2-0.1-0.2
		s-0.1-0.1-0.2-0.2h0.1l0.8,0.3v0.4v0l0.1-0.1L311,241.3z"/>
	<path class="st0" d="M327.6,238.1L327.6,238.1l0.1,0.4l0.3,0.2c0,0.3-0.1,0.7-0.1,1s-0.2,0.6-0.5,0.9h-0.1l-0.7,0.6l-0.1,0.1h-0.1
		c-0.2,0.3-0.3,0.6-0.4,1s-0.1,0.7-0.3,1c-0.2,0.1-0.3,0.2-0.5,0.3s-0.4,0.2-0.6,0.3c-0.2,0.3-0.3,0.6-0.4,1s-0.2,0.6-0.4,0.9
		l-0.4,0.3c0.2-0.1,0.4-0.1,0.7-0.1c0.1-0.1,0.3-0.1,0.4-0.2l-0.4,0.2c0.5-0.1,0.9-0.3,1.4-0.6l-0.8,0.4c0.3-0.1,0.5-0.3,0.8-0.5h2
		c0.2,0.1,0.5,0.2,0.7,0.2s0.5,0.1,0.8,0c0.3-0.1,0.6-0.2,0.9-0.3s0.6-0.2,0.9-0.4l0.1-0.2c-0.3,0-0.6,0-0.8-0.1s-0.5-0.3-0.7-0.5
		c-0.2-0.2-0.3-0.4-0.3-0.7s0-0.5,0-0.8l0-0.4c0.2,0.2,0.5,0.4,0.7,0.6s0.6,0.4,0.9,0.5l0.2,0v0.1l0.5,0.2v0.1l0.2,0.1l0.8,1.5
		l0.2,0.2c0.1,0.2,0.2,0.4,0.3,0.6s0.2,0.4,0.3,0.7l-0.5,0.5H333v0.1l-0.2,0.2h-0.1l-0.2,0.2l-0.1-0.3l-0.1,0v0.1h-0.1l-0.3,0.3
		h-0.1l-0.2-0.6l-0.3-0.3v-0.1c-0.5-0.1-1.1-0.2-1.6-0.3s-1.1-0.2-1.6-0.2c-0.3,0.1-0.6,0.1-0.9,0.2s-0.6,0.1-0.9,0.2
		c-0.2-0.1-0.4-0.1-0.6-0.1s-0.4,0-0.6,0l-0.2,0.1v0.1l-0.7,0c-0.2-0.2-0.4-0.3-0.6-0.3s-0.4-0.1-0.6,0l0.4-0.2l0.4-0.3
		c-0.4,0.1-0.7,0.3-1,0.5c0.1,0,0.1,0,0.2,0l-0.6,0.2H322l0.1,0v-0.1h0.1l0.6-0.6c0.2-0.4,0.4-0.8,0.5-1.1s0.3-0.8,0.6-1.1h0.1
		l0-0.3h0.1c0.1-0.2,0.1-0.4,0.2-0.6s0.1-0.4,0.1-0.6V240l0.2-1.5l-0.1-0.8c0-0.1,0-0.3,0-0.4s0-0.2,0.1-0.3c0.5,0.1,1,0.3,1.5,0.5
		s0.9,0.4,1.3,0.6h0l0,0L327.6,238.1z M324.9,245.8c-0.1,0-0.1,0.1-0.2,0.1L324.9,245.8z M329.4,242.1L329.4,242.1
		c0,0-0.1,0-0.1-0.1v-0.1h0L329.4,242.1z"/>
</g>
<rect class="st1" width="376.2" height="249"/>
</svg>
