<?xml version="1.0" encoding="utf-8"?>
<!-- Generator: Adobe Illustrator 22.0.0, SVG Export Plug-In . SVG Version: 6.00 Build 0)  -->
<svg version="1.1" id="レイヤー_1" xmlns="http://www.w3.org/2000/svg" xmlns:xlink="http://www.w3.org/1999/xlink" x="0px"
	 y="0px" viewBox="0 0 376.2 249" style="enable-background:new 0 0 376.2 249;" xml:space="preserve">
<style type="text/css">
	.st0{enable-background:new    ;}
	.st1{fill:#CB0000;}
	.st2{fill:none;}
</style>
<title>アセット 15</title>
<g id="レイヤー_2_1_">
	<g id="レイヤー_1-2">
		<g class="st0">
			<path class="st1" d="M64.6,221.5l0.3-0.2v-0.1h0.1l0.1-0.1h0.1l-0.1,0.3c0,0.2,0.1,0.4,0.2,0.6c0.1,0.2,0.2,0.3,0.2,0.5l0,0.7
				l0,1.5l-0.2,1.2c0,0.3,0,0.6,0,0.8s0.1,0.5,0.3,0.8c0,0.3,0,0.5,0,0.7c-0.1,0.2-0.1,0.4-0.2,0.6l0,0.4l0.3,0.4l0.4,0.7l-0.6-0.2
				l-0.7,0l-0.2,0.2c-0.4,0-0.9,0-1.3-0.1c-0.4-0.1-0.8-0.2-1.2-0.3c-0.2,0-0.4,0-0.6,0s-0.4,0.1-0.6,0.1l-0.6,0l0-0.1l-0.6-0.1
				l-0.3,0.1c-0.1,0-0.2,0-0.3,0c-0.1,0-0.2-0.1-0.2-0.2l-0.7,0.5l-0.1,0.3h0c0.2-0.6,0.4-1.3,0.6-1.9c0.2-0.6,0.3-1.3,0.3-2l0-0.9
				l0-0.9v-1.8c0-0.3-0.1-0.6-0.3-0.9c-0.2-0.3-0.3-0.5-0.4-0.8v-0.3c0.2,0,0.4,0,0.5,0.1c0.2,0.1,0.3,0.1,0.5,0.2
				c0.5,0,1,0,1.4-0.1s0.9-0.1,1.4-0.1l1.3,0h1.5L64.6,221.5z M60.8,226.9v0.3h-0.1l-0.1,0.2l0,0.5l-0.1,0.8l-0.2,0.2
				c0.2,0,0.4,0,0.6,0c0.2,0,0.3,0,0.5-0.1v-0.1l0.2-0.1c0.2,0,0.5,0,0.7,0s0.4,0.1,0.6,0.2l0.8-0.1c0-0.3,0-0.5-0.1-0.7
				c-0.1-0.2-0.2-0.5-0.3-0.7l0-0.5v-0.1c-0.3,0-0.7,0.1-1,0.1c-0.3,0.1-0.6,0.2-0.9,0.2h-0.8L60.8,226.9L60.8,226.9L60.8,226.9z
				 M60.4,223.4c0,0.2,0.1,0.4,0.1,0.6c0.1,0.2,0.1,0.4,0.1,0.6l-0.1,0.4h-0.1v0.1c0.2,0,0.5,0,0.8,0c0.3,0,0.5,0,0.8-0.1
				c0.2,0,0.5,0,0.7,0.1c0.2,0.1,0.4,0.2,0.6,0.3h0.2l0-1.1c0-0.1,0-0.2,0-0.3c0-0.1,0-0.2-0.1-0.3c0-0.1,0-0.3,0-0.4
				c0.1-0.1,0.1-0.2,0.2-0.3l-0.4,0.2l-0.6-0.1c-0.3,0-0.6,0-0.8,0.1s-0.5,0.1-0.8,0.1l-0.4,0h-0.2L60.4,223.4z"/>
		</g>
		<g class="st0">
			<path class="st1" d="M70,222.2c0.1,0,0.2,0,0.3,0s0.2,0,0.3,0.1c0,0.3,0,0.7,0.1,0.9c0.1,0.3,0.2,0.6,0.2,0.9l0,0.6v1.6l-0.1,0.4
				v1.9l0,0v0.1c-0.4-0.1-0.8-0.2-1.1-0.3c-0.4-0.1-0.7-0.2-1.1-0.3l-0.2,0l-0.1,0.2h-0.1l-0.4,0.6c0.1-0.1,0.1-0.3,0.1-0.5
				c0-0.2,0-0.3,0.1-0.5c0-0.3,0-0.6,0-0.9s-0.1-0.6-0.1-0.8v-2c-0.1-0.3-0.1-0.5-0.1-0.8c0-0.3-0.1-0.6-0.1-0.8l0-0.3
				c0.1,0,0.2,0,0.4,0c0.1,0,0.2,0.1,0.3,0.2c0.3,0,0.6,0,0.9,0c0.3,0,0.6-0.1,0.8-0.2h0.1L70,222.2z M68.8,223.7L68.8,223.7
				c0,0.1,0,0.2,0.1,0.4c0,0.1,0,0.3,0,0.4c0.2,0,0.3,0,0.5-0.1c0.1-0.1,0.3-0.1,0.5-0.1l0.1-0.6v-0.2c-0.1,0.1-0.3,0.1-0.5,0
				c-0.2,0-0.3,0-0.4,0.1L68.8,223.7z M69.1,225.9c0,0.2,0,0.4-0.1,0.6c-0.1,0.2-0.2,0.4-0.3,0.6l0.2-0.1l0.6,0.1h0
				c0-0.2,0-0.4,0-0.6s0-0.4,0.1-0.6v-0.2c-0.1,0-0.2,0-0.3,0S69.2,225.8,69.1,225.9L69.1,225.9L69.1,225.9z M74.3,225L74.3,225
				L74.3,225l0.4,0.2c0.3,0,0.5-0.1,0.7-0.2c0.2-0.1,0.5-0.2,0.7-0.4l0.4,0l0.2,0.4c0,0.3,0,0.6-0.1,0.9c-0.1,0.3-0.1,0.6-0.2,0.9
				c-0.1,0-0.2,0-0.3-0.1c-0.1-0.1-0.2-0.1-0.3-0.2l-0.4-0.4c-0.7,0.2-1.4,0.4-2.2,0.4s-1.5,0.1-2.1,0.4c0.1-0.2,0.1-0.5,0.1-0.7
				s0.1-0.5,0.1-0.7c0.3-0.1,0.6-0.1,0.9-0.1s0.6-0.1,0.8-0.2l-0.1-0.6c0-0.3,0-0.6,0.1-0.8c0.1-0.3,0.2-0.5,0.2-0.8
				c0-0.2,0-0.5-0.1-0.7c-0.1-0.2-0.1-0.5-0.1-0.7l0-0.5l0.6-0.1h0.6l0,0.2l-0.1,2c0,0.3,0,0.7,0,1S74.3,224.7,74.3,225L74.3,225
				L74.3,225z M76,222.3c0,0.3,0,0.6-0.1,0.8c0,0.3-0.1,0.5-0.1,0.8l-0.5-0.1c-0.6,0-1.1,0-1.6,0.1c-0.5,0.1-1,0.2-1.5,0.5H72
				l0.4-0.7l0-0.5c0-0.1-0.1-0.1-0.1-0.2c0-0.1-0.1-0.1-0.2-0.1v-0.1l0.2-0.1c0.2,0,0.3,0,0.4,0c0.1,0,0.3,0,0.4,0.1
				c0.4-0.2,0.9-0.2,1.4-0.3c0.5,0,0.9-0.1,1.3-0.3H76L76,222.3z M74.3,226.2L74.3,226.2L74.3,226.2l0.7,0.1l0.1,0.2h0.1l0.2,0.4
				l0,0.3l0,0.4l-0.1,0.7c0,0.1,0,0.2,0.1,0.3s0.1,0.2,0.1,0.3l-0.1,0.4l0,0.4l0,1.1c-0.1,0-0.3,0-0.4,0s-0.2,0.1-0.4,0.2
				c-0.5,0-0.9-0.1-1.3-0.4c-0.4-0.2-0.8-0.4-1.3-0.6c0.2,0,0.5,0,0.7,0c0.2,0,0.4,0.1,0.6,0.2l0.7-0.3l0.2-0.4v-2.8l-0.1-0.3
				c0-0.1,0-0.1,0-0.2c0-0.1,0-0.1,0.1-0.1h0L74.3,226.2z M72.3,228.8l0.1-0.2c0.2,0,0.4,0,0.6,0c0.2,0.1,0.3,0.1,0.5,0.3v0.7
				l-0.5-0.2l-0.1-0.2l-0.4-0.3l0-0.1L72.3,228.8z M76.3,227.5l0.3,0.6v0.3h-0.1v-0.1l-0.4-0.1c-0.1,0-0.2,0-0.3,0
				c-0.1,0-0.2,0-0.2,0.1c-0.2,0-0.4,0-0.5,0c-0.2,0-0.3,0-0.5-0.1c-0.4,0-0.8,0-1.1,0.1c-0.4,0.1-0.7,0.2-1,0.3l0.2-0.6l0-0.4
				l-0.2-0.1l-0.1-0.3V227c0.3,0,0.6,0.1,0.8,0.2c0.2,0.1,0.5,0.2,0.7,0.3c0.2,0,0.4,0,0.5,0c0.2,0,0.3,0,0.5-0.1l0.7,0l0.2,0h0.3
				L76.3,227.5z"/>
			<path class="st1" d="M83.1,222.6L83.1,222.6L83.1,222.6L83.1,222.6L83.1,222.6l0.4,0.3c0,0.2,0,0.3,0,0.5c0,0.1-0.1,0.3-0.1,0.4
				l-0.2,0.2c-0.2,0-0.4-0.1-0.6-0.1s-0.4-0.1-0.6-0.2c-0.1-0.1-0.1-0.1-0.1-0.2s0-0.1,0-0.2h-0.1l-0.1-0.1l0.1-0.4h0.1v-0.1
				l0.5-0.5c0.2,0.1,0.3,0.1,0.4,0.2S83,222.5,83.1,222.6L83.1,222.6L83.1,222.6z M83.3,226.4l-0.4,0.2l0.4,0.2c0,0.2,0,0.4,0.1,0.5
				s0,0.3,0.1,0.5v0.4l-0.2,0.3l-1.2-0.1l-0.1-0.1l-0.1,0l0-0.1l-0.1-0.3c0-0.2,0-0.4,0-0.7s0.1-0.4,0.3-0.6l0.1,0
				c0.2,0,0.3,0,0.5,0c0.2,0,0.3,0.1,0.4,0.2h0L83.3,226.4z"/>
		</g>
		<g class="st0">
			<path class="st1" d="M91.4,223.6l-0.2,0.2l-0.2,0.3l0,0.3l0,0.5c0,0.3,0,0.6,0.1,0.8s0.2,0.5,0.3,0.8l-0.2,0.9
				c0,0.2,0,0.5,0.1,0.7c0.1,0.2,0.2,0.4,0.3,0.6l0,0.3v0.2l0.5,0.6l0.1,0l0.2,0.4l0,0.2c-0.1,0-0.1,0-0.1-0.1c0,0-0.1-0.1-0.1-0.1
				l-0.1,0c-0.1,0-0.3,0-0.4,0c-0.1,0-0.2,0-0.4,0.1c-0.1,0-0.2,0-0.3,0s-0.2,0-0.3-0.1l-0.6,0.2v0.1h-0.1v0.1l-0.1,0h-0.5l-0.2-0.2
				H89l0-0.1v-0.2l0.5-0.2l0.3-0.2v-0.1l0.1-0.1v-0.1l0.2-0.1h0.1c0.1-0.1,0.1-0.3,0.2-0.4c0-0.1,0.1-0.2,0.2-0.4c0-0.3,0-0.6,0-0.9
				c0-0.3,0-0.6-0.1-0.8c-0.1-0.5-0.1-0.9-0.1-1.4c0-0.5-0.2-0.9-0.5-1.3l-0.1-0.1l-0.1-0.2h-0.1l0,0.3c-0.2-0.1-0.3-0.1-0.5-0.2
				c-0.1-0.1-0.3-0.1-0.4-0.2l0.1-0.2l0.3-0.2c0.1-0.2,0.2-0.5,0.4-0.7c0.1-0.3,0.2-0.5,0.4-0.7h0.1V222h0.1l0.3-0.2l0.1-0.1
				l0.4-0.2l0.4-0.3h0.2c0.2,0.2,0.3,0.4,0.2,0.6c0,0.2,0,0.5,0.1,0.6L91.4,223.6z"/>
		</g>
		<g class="st0">
			<path class="st1" d="M97.7,228.4L97.7,228.4l0,0.2l0,0.6l-0.4,0.2l-0.1,0.5l-0.4,0.4h-0.1l-0.2,0.2l-0.1,0l-0.2-0.4
				c-0.3,0-0.6,0-0.9-0.1c-0.3-0.1-0.6-0.1-0.8-0.2c-0.2,0-0.4,0-0.6,0.1c-0.2,0.1-0.4,0.2-0.6,0.3l0.2-0.6l0-0.4
				c0.1-0.4,0.2-0.7,0.4-1c0.2-0.3,0.3-0.7,0.5-1c0.1,0,0.1,0,0.2-0.1s0.1-0.1,0.2-0.1c0.2-0.3,0.3-0.6,0.5-0.9
				c0.2-0.3,0.3-0.6,0.6-0.9l-0.1-0.6c0-0.2,0-0.4,0.1-0.6s0.2-0.4,0.3-0.6h0c-0.2,0.2-0.4,0.3-0.6,0.4s-0.5,0.1-0.7,0.2l-0.2,0
				l0-0.1v0l0,0.1l-0.2,0.2l0.1,0.4l0,0.4l-0.3,0l-0.1-0.6c-0.1-0.1-0.1-0.2-0.2-0.3c-0.1-0.1-0.2-0.1-0.3-0.2c0-0.1,0-0.2,0-0.3
				c0-0.1,0-0.2-0.1-0.3l0-0.6h0.1c0.2-0.2,0.4-0.3,0.6-0.5c0.2-0.2,0.3-0.4,0.5-0.6l0.3-0.1c0.3,0.1,0.6,0.2,1,0.2s0.6,0.2,0.9,0.3
				l0,0.2H97l0.1,0.2c0.1,0.4,0.1,0.7,0.1,1.1c0,0.4,0,0.8,0.2,1.1c0,0.1,0,0.3,0,0.4c-0.1,0.1-0.1,0.2-0.2,0.3l-0.1,0v0.1l-0.4,0.2
				c-0.1,0.1-0.1,0.3-0.1,0.4c0,0.2-0.1,0.3-0.1,0.5h-0.1c0,0.3-0.1,0.6-0.3,0.8s-0.3,0.5-0.3,0.8l-0.1,0l0.9,0.4l0.7-0.1
				L97.7,228.4L97.7,228.4z"/>
			<path class="st1" d="M107.6,221.4L107.6,221.4L107.6,221.4l0.1-0.2c0.1,0,0.3,0,0.4,0s0.2,0,0.3,0.1h0.4l0.4-0.3l0.1-0.1l0.1,0
				c0,0.2,0,0.4,0,0.6s0.1,0.4,0.2,0.6c0,0.4,0,0.9-0.1,1.3c-0.1,0.4-0.2,0.8-0.4,1.2c0,0.6,0.1,1.2,0.3,1.8
				c0.2,0.6,0.3,1.2,0.4,1.8l-0.1,0.8c0,0.3,0,0.6,0,0.8s0.1,0.5,0.2,0.8l-0.1,0.2c-0.3,0-0.5-0.1-0.7-0.2c-0.2-0.1-0.5-0.2-0.8-0.2
				l0-0.2l-0.2-0.2c-0.1-0.1-0.2-0.1-0.3-0.2c-0.1-0.1-0.2-0.1-0.4-0.1l-0.1-0.2c-0.1-0.1-0.3-0.2-0.4-0.2c-0.1-0.1-0.3-0.1-0.4-0.2
				h0l0.3,0.1l0.3,0l0-0.1l0.6-0.1l-0.1-0.3c0-0.1,0-0.2,0-0.4c0-0.1,0-0.2,0.1-0.3l0-1l-0.3,0.2l-0.1,0.1l-0.6-0.1h-1.7l-0.1,0
				l0-0.3l-0.2,0.2c0,0.2,0,0.5,0,0.6c0,0.2,0.1,0.4,0.1,0.6c0,0.2,0,0.3,0,0.5c0,0.2-0.1,0.3-0.2,0.4l-0.1,0.2l-0.5,0.4l-0.2,0.4
				c-0.1,0.1-0.3,0.1-0.4,0.2c-0.1,0.1-0.3,0.1-0.4,0.2H103v-0.1l-0.7-0.1l0-0.2c-0.2-0.1-0.3-0.2-0.5-0.3c-0.2,0-0.4,0-0.6,0
				c0.2-0.1,0.4-0.2,0.6-0.1c0.2,0,0.4,0,0.6-0.1l0.1-0.1c0.2-0.2,0.3-0.5,0.4-0.7s0.2-0.5,0.3-0.7l0,0l0.1-2.4
				c0-0.7-0.1-1.3-0.4-1.9c-0.3-0.6-0.4-1.2-0.4-1.9l-0.3-0.3c0.3,0,0.6,0,0.9,0c0.3,0,0.5,0.1,0.8,0.2v0.1c0.7-0.1,1.3-0.2,2-0.2
				c0.7,0,1.4-0.1,2-0.3v-0.1h0.1L107.6,221.4z M107.1,223.5c0-0.1,0-0.2,0-0.3c0-0.1,0-0.2-0.1-0.2c-0.3,0.1-0.5,0.2-0.8,0.2
				s-0.6,0.1-0.9,0.1h-0.7l-0.1-0.1c0,0.1,0,0.2,0,0.2c0,0.1,0,0.1,0.1,0.2l0.1,0.1l0.2,0.3l0.6-0.3l0.7,0l0.9-0.1L107.1,223.5z
				 M107.1,225.5l0.1-0.4c0-0.1,0-0.2,0-0.3s0-0.2-0.1-0.2h-2l-0.3,0l0.2,0.5l0,0.4v0.2h0.2v-0.1l0.5-0.3c0.3,0,0.5,0,0.8,0
				c0.3,0,0.5,0.1,0.7,0.2L107.1,225.5z"/>
		</g>
		<g class="st0">
			<path class="st1" d="M116.6,223.6l-0.2,0.2l-0.2,0.3l0,0.3l0,0.5c0,0.3,0,0.6,0.1,0.8s0.2,0.5,0.3,0.8l-0.2,0.9
				c0,0.2,0,0.5,0.1,0.7c0.1,0.2,0.2,0.4,0.3,0.6l0,0.3v0.2l0.5,0.6l0.1,0l0.2,0.4l0,0.2c-0.1,0-0.1,0-0.1-0.1c0,0-0.1-0.1-0.1-0.1
				l-0.1,0c-0.1,0-0.3,0-0.4,0c-0.1,0-0.2,0-0.4,0.1c-0.1,0-0.2,0-0.3,0s-0.2,0-0.3-0.1l-0.6,0.2v0.1h-0.1v0.1l-0.1,0h-0.5l-0.2-0.2
				h-0.1l0-0.1v-0.2l0.5-0.2l0.3-0.2v-0.1l0.1-0.1v-0.1l0.2-0.1h0.1c0.1-0.1,0.1-0.3,0.2-0.4c0-0.1,0.1-0.2,0.2-0.4
				c0-0.3,0-0.6,0-0.9c0-0.3,0-0.6-0.1-0.8c-0.1-0.5-0.1-0.9-0.1-1.4c0-0.5-0.2-0.9-0.5-1.3l-0.1-0.1l-0.1-0.2h-0.1l0,0.3
				c-0.2-0.1-0.3-0.1-0.5-0.2c-0.1-0.1-0.3-0.1-0.4-0.2l0.1-0.2l0.3-0.2c0.1-0.2,0.2-0.5,0.4-0.7c0.1-0.3,0.2-0.5,0.4-0.7h0.1V222
				h0.1l0.3-0.2l0.1-0.1l0.4-0.2l0.4-0.3h0.2c0.2,0.2,0.3,0.4,0.2,0.6c0,0.2,0,0.5,0.1,0.6L116.6,223.6z"/>
		</g>
		<g class="st0">
			<path class="st1" d="M122.9,228.4L122.9,228.4l0,0.2l0,0.6l-0.4,0.2l-0.1,0.5l-0.4,0.4h-0.1l-0.2,0.2l-0.1,0l-0.2-0.4
				c-0.3,0-0.6,0-0.9-0.1c-0.3-0.1-0.6-0.1-0.8-0.2c-0.2,0-0.4,0-0.6,0.1c-0.2,0.1-0.4,0.2-0.6,0.3l0.2-0.6l0-0.4
				c0.1-0.4,0.2-0.7,0.4-1c0.2-0.3,0.3-0.7,0.5-1c0.1,0,0.1,0,0.2-0.1c0.1-0.1,0.1-0.1,0.2-0.1c0.2-0.3,0.3-0.6,0.5-0.9
				c0.2-0.3,0.3-0.6,0.6-0.9l-0.1-0.6c0-0.2,0-0.4,0.1-0.6c0.1-0.2,0.2-0.4,0.3-0.6h0c-0.2,0.2-0.4,0.3-0.6,0.4s-0.5,0.1-0.7,0.2
				l-0.2,0l0-0.1v0l0,0.1l-0.2,0.2l0.1,0.4l0,0.4l-0.3,0l-0.1-0.6c-0.1-0.1-0.1-0.2-0.2-0.3c-0.1-0.1-0.2-0.1-0.3-0.2
				c0-0.1,0-0.2,0-0.3c0-0.1,0-0.2-0.1-0.3l0-0.6h0.1c0.2-0.2,0.4-0.3,0.6-0.5c0.2-0.2,0.3-0.4,0.5-0.6l0.3-0.1
				c0.3,0.1,0.6,0.2,1,0.2c0.3,0.1,0.6,0.2,0.9,0.3l0,0.2h0.1l0.1,0.2c0.1,0.4,0.1,0.7,0.1,1.1c0,0.4,0,0.8,0.2,1.1
				c0,0.1,0,0.3,0,0.4c-0.1,0.1-0.1,0.2-0.2,0.3l-0.1,0v0.1l-0.4,0.2c-0.1,0.1-0.1,0.3-0.1,0.4c0,0.2-0.1,0.3-0.1,0.5h-0.1
				c0,0.3-0.1,0.6-0.3,0.8c-0.2,0.2-0.3,0.5-0.3,0.8l-0.1,0l0.9,0.4l0.7-0.1L122.9,228.4L122.9,228.4z"/>
			<path class="st1" d="M133.4,221.5l0.3-0.2v-0.1h0.1l0.1-0.1h0.1l-0.1,0.3c0,0.2,0.1,0.4,0.2,0.6c0.1,0.2,0.2,0.3,0.2,0.5l0,0.7
				l0,1.5l-0.2,1.2c0,0.3,0,0.6,0,0.8s0.1,0.5,0.3,0.8c0,0.3,0,0.5,0,0.7c-0.1,0.2-0.1,0.4-0.2,0.6l0,0.4l0.3,0.4l0.4,0.7l-0.6-0.2
				l-0.7,0l-0.2,0.2c-0.4,0-0.9,0-1.3-0.1c-0.4-0.1-0.8-0.2-1.2-0.3c-0.2,0-0.4,0-0.6,0s-0.4,0.1-0.6,0.1l-0.6,0l0-0.1l-0.6-0.1
				l-0.3,0.1c-0.1,0-0.2,0-0.3,0c-0.1,0-0.2-0.1-0.2-0.2l-0.7,0.5l-0.1,0.3h0c0.2-0.6,0.4-1.3,0.6-1.9c0.2-0.6,0.3-1.3,0.3-2l0-0.9
				l0-0.9v-1.8c0-0.3-0.1-0.6-0.3-0.9c-0.2-0.3-0.3-0.5-0.4-0.8v-0.3c0.2,0,0.4,0,0.5,0.1c0.2,0.1,0.3,0.1,0.5,0.2
				c0.5,0,1,0,1.4-0.1s0.9-0.1,1.4-0.1l1.3,0h1.5L133.4,221.5z M129.7,226.9v0.3h-0.1l-0.1,0.2l0,0.5l-0.1,0.8l-0.2,0.2
				c0.2,0,0.4,0,0.6,0c0.2,0,0.3,0,0.5-0.1v-0.1l0.2-0.1c0.2,0,0.5,0,0.7,0s0.4,0.1,0.6,0.2l0.8-0.1c0-0.3,0-0.5-0.1-0.7
				c-0.1-0.2-0.2-0.5-0.3-0.7l0-0.5v-0.1c-0.3,0-0.7,0.1-1,0.1c-0.3,0.1-0.6,0.2-0.9,0.2h-0.8L129.7,226.9L129.7,226.9L129.7,226.9z
				 M129.2,223.4c0,0.2,0.1,0.4,0.1,0.6c0.1,0.2,0.1,0.4,0.1,0.6l-0.1,0.4h-0.1v0.1c0.2,0,0.5,0,0.8,0c0.3,0,0.5,0,0.8-0.1
				c0.2,0,0.5,0,0.7,0.1c0.2,0.1,0.4,0.2,0.6,0.3h0.2l0-1.1c0-0.1,0-0.2,0-0.3c0-0.1,0-0.2-0.1-0.3c0-0.1,0-0.3,0-0.4
				c0.1-0.1,0.1-0.2,0.2-0.3l-0.4,0.2l-0.6-0.1c-0.3,0-0.6,0-0.8,0.1s-0.5,0.1-0.8,0.1l-0.4,0h-0.2L129.2,223.4z"/>
			<path class="st1" d="M142.4,229.8l-0.2,0v0l0.4,0.6c-0.1,0-0.2,0-0.3,0c-0.1,0.1-0.1,0.1-0.2,0.2c-0.3,0-0.6-0.1-0.8-0.1
				c-0.3-0.1-0.5-0.2-0.7-0.3c-0.3-0.8-0.6-1.6-0.8-2.5c-0.2-0.9-0.4-1.7-0.5-2.6c0-0.7,0.2-1.3,0.6-1.8s0.7-1.1,0.8-1.8l0.2-0.2
				h0.2l0.2,0.2c0.2,0,0.3,0,0.4-0.1s0.2-0.1,0.4-0.2h0.4l-0.1,0.2l-0.3,0.3H142l-0.1,0.2h-0.1c-0.1,0.3-0.2,0.6-0.3,0.9
				s-0.2,0.6-0.4,0.9c0,0.5,0,1,0.1,1.4c0.1,0.4,0.3,0.9,0.4,1.3l0,0.7c0,0.4,0,0.8,0,1.2s0,0.8,0.2,1.1l0.4,0.5L142.4,229.8z"/>
			<path class="st1" d="M151.6,224.9l0.3,0.1v0.1l-0.1,0.1l0,0.1l0,0.3v0.3l0.2,0.2c0.1,0.3,0.2,0.6,0.2,0.8
				c0.1,0.3,0.2,0.5,0.3,0.8c0.1,0.1,0.3,0.1,0.4,0.2c0.1,0,0.3,0.1,0.5,0.1c0.1,0.1,0.2,0.1,0.3,0.2c0.1,0,0.2,0.1,0.2,0.2
				c0.2,0.2,0.4,0.3,0.6,0.4c0.2,0.1,0.5,0.2,0.7,0.2l0.2,0.2l-0.3,0.5h-0.2l0.2,0.2l0.1,0v0.1l-0.2,0.1c-0.2,0-0.3-0.1-0.5-0.1
				c-0.1-0.1-0.3-0.1-0.4-0.2l-0.1-0.2l-0.1,0l0-0.1l-0.6-0.4v-0.1l-0.2-0.1l-0.4,0c-0.2,0-0.3,0-0.4-0.1s-0.2-0.1-0.4-0.1l-0.1-0.1
				v-0.1l-0.2-0.3l-0.2-0.4h-0.1v-0.1l-0.2-0.2l0-0.1c0,0.2-0.1,0.3-0.1,0.5c0,0.1-0.1,0.3-0.2,0.4h-0.1v0.1h-0.1c0,0.1,0,0.2,0,0.2
				c0,0.1-0.1,0.1-0.1,0.2l-0.1-0.2l-0.2,0.1v0.1l-0.1,0l-0.1,0.2l-0.2,0l-0.9,0.7c-0.2,0.1-0.4,0.1-0.6,0.2c-0.2,0-0.4,0.1-0.6,0.2
				l-0.3-0.1c-0.2,0-0.4,0-0.5,0.1c-0.1,0.1-0.3,0.2-0.5,0.2h-0.1c0.1-0.1,0.1-0.2,0.2-0.2c0.1-0.1,0.2-0.2,0.2-0.3l-0.1-0.2
				l-0.3,0.1c0.3-0.4,0.8-0.8,1.3-1c0.5-0.3,0.9-0.6,1.3-1c0.1-0.2,0.2-0.4,0.3-0.6s0.2-0.4,0.2-0.7h0.1c0.2-0.3,0.4-0.5,0.5-0.8
				c0.1-0.3,0.2-0.6,0.2-1l0-0.7c0-0.2,0-0.4,0-0.6s0.1-0.4,0.2-0.6v-0.2l-0.4-0.3c-0.1-0.1-0.1-0.2-0.2-0.3c0-0.1-0.1-0.2-0.1-0.4
				h-0.1v-0.1l-0.2-0.2l0-0.1v-0.2l0.1,0c0.2,0.2,0.5,0.3,0.8,0.3c0.3,0.1,0.6,0.2,0.8,0.3c0.2,0,0.3-0.1,0.5-0.2
				c0.1-0.1,0.3-0.2,0.5-0.3h0l-0.2,0.6c0,0.4,0,0.7,0.1,1.1s0.1,0.7,0.1,1l-0.1,1.1h-0.1L151.6,224.9z M148.4,223L148.4,223
				L148.4,223l0.1,0.2l-0.1,0.4l-0.5,0.4l0,0.2c0,0.1,0,0.2,0,0.4c0,0.1,0,0.2-0.1,0.3c-0.2,0.2-0.3,0.3-0.5,0.3
				c-0.2,0.1-0.4,0.1-0.6,0.1l0,0.1h-0.1l-0.4,0.3c0.2-0.3,0.3-0.7,0.4-1c0.1-0.4,0.2-0.7,0.2-1.1l0,0v-0.8l0.3-0.4
				c0.3,0,0.5,0,0.8,0s0.5,0,0.7,0.1L148.4,223L148.4,223z M152.9,225h0.2l0.3,0.4c0.3,0,0.6,0,0.9,0c0.3,0,0.6,0,0.9-0.2l0-0.2h0.1
				c0.1-0.2,0.2-0.4,0.3-0.6c0.1-0.2,0.2-0.5,0.2-0.7c0-0.2,0-0.3,0-0.5c0-0.2,0-0.3-0.1-0.5l-0.1,0v-0.1h-0.1l0-0.1l-0.2-0.1
				c-0.1,0-0.3,0-0.4,0s-0.2,0-0.3,0.1l0,0.4h-0.1c-0.1,0.2-0.2,0.4-0.2,0.7s0,0.5-0.2,0.7H154l-0.1,0.2c-0.1,0.1-0.2,0.2-0.3,0.4
				s-0.2,0.2-0.4,0.3L152.9,225z"/>
		</g>
		<g class="st0">
			<path class="st1" d="M162.7,222.8l-0.3-0.1h0c0.3,0.3,0.5,0.6,0.6,1s0.2,0.7,0.2,1.1c0,0.7,0,1.4-0.1,2c-0.1,0.7-0.3,1.3-0.7,1.8
				l-0.8,0.4l-0.1,0l-0.2,0.6l-0.5,0.2c-0.2,0-0.5,0-0.7,0c-0.2,0-0.4,0-0.6-0.2l0-0.2l0.1-0.2v0l-0.6,0v0c0.2-0.1,0.4-0.2,0.6-0.3
				c0.2-0.1,0.5-0.2,0.7-0.2c0.3-0.4,0.6-0.8,0.8-1.2c0.2-0.4,0.5-0.8,0.7-1.2c-0.2-0.3-0.3-0.6-0.5-1c-0.1-0.3-0.2-0.7-0.3-1
				l-0.7-0.8l-0.1-0.2h-0.1c-0.1-0.1-0.1-0.2-0.1-0.3c0-0.1-0.1-0.2-0.1-0.4h-0.1v-0.1h-0.1l0-0.1l-0.3-0.2l-0.1-0.2l0.2-0.4
				l0.4-0.1c0.3,0,0.5,0,0.8,0c0.3,0,0.6,0,0.8,0.1l0.1,0.2c0.1,0.1,0.2,0.2,0.3,0.3c0.1,0.1,0.2,0.2,0.3,0.3l0,0.1v0.1H162.7z"/>
			<path class="st1" d="M167,223.6l-0.2,0.2l-0.2,0.3l0,0.3l0,0.5c0,0.3,0,0.6,0.1,0.8s0.2,0.5,0.3,0.8l-0.2,0.9
				c0,0.2,0,0.5,0.1,0.7c0.1,0.2,0.2,0.4,0.3,0.6l0,0.3v0.2l0.5,0.6l0.1,0l0.2,0.4l0,0.2c-0.1,0-0.1,0-0.1-0.1c0,0-0.1-0.1-0.1-0.1
				l-0.1,0c-0.1,0-0.3,0-0.4,0c-0.1,0-0.2,0-0.4,0.1c-0.1,0-0.2,0-0.3,0s-0.2,0-0.3-0.1l-0.6,0.2v0.1h-0.1v0.1l-0.1,0h-0.5l-0.2-0.2
				h-0.1l0-0.1v-0.2l0.5-0.2l0.3-0.2v-0.1l0.1-0.1v-0.1l0.2-0.1h0.1c0.1-0.1,0.1-0.3,0.2-0.4c0-0.1,0.1-0.2,0.2-0.4
				c0-0.3,0-0.6,0-0.9c0-0.3,0-0.6-0.1-0.8c-0.1-0.5-0.1-0.9-0.1-1.4c0-0.5-0.2-0.9-0.5-1.3l-0.1-0.1l-0.1-0.2h-0.1l0,0.3
				c-0.2-0.1-0.3-0.1-0.5-0.2c-0.1-0.1-0.3-0.1-0.4-0.2l0.1-0.2l0.3-0.2c0.1-0.2,0.2-0.5,0.4-0.7c0.1-0.3,0.2-0.5,0.4-0.7h0.1V222
				h0.1l0.3-0.2l0.1-0.1l0.4-0.2l0.4-0.3h0.2c0.2,0.2,0.3,0.4,0.2,0.6c0,0.2,0,0.5,0.1,0.6L167,223.6z"/>
			<path class="st1" d="M173.3,228.4L173.3,228.4l0,0.2l0,0.6l-0.4,0.2l-0.1,0.5l-0.4,0.4h-0.1l-0.2,0.2l-0.1,0l-0.2-0.4
				c-0.3,0-0.6,0-0.9-0.1c-0.3-0.1-0.6-0.1-0.8-0.2c-0.2,0-0.4,0-0.6,0.1c-0.2,0.1-0.4,0.2-0.6,0.3l0.2-0.6l0-0.4
				c0.1-0.4,0.2-0.7,0.4-1c0.2-0.3,0.3-0.7,0.5-1c0.1,0,0.1,0,0.2-0.1c0.1-0.1,0.1-0.1,0.2-0.1c0.2-0.3,0.3-0.6,0.5-0.9
				c0.2-0.3,0.3-0.6,0.6-0.9l-0.1-0.6c0-0.2,0-0.4,0.1-0.6c0.1-0.2,0.2-0.4,0.3-0.6h0c-0.2,0.2-0.4,0.3-0.6,0.4s-0.5,0.1-0.7,0.2
				l-0.2,0l0-0.1v0l0,0.1l-0.2,0.2l0.1,0.4l0,0.4l-0.3,0l-0.1-0.6c-0.1-0.1-0.1-0.2-0.2-0.3c-0.1-0.1-0.2-0.1-0.3-0.2
				c0-0.1,0-0.2,0-0.3c0-0.1,0-0.2-0.1-0.3l0-0.6h0.1c0.2-0.2,0.4-0.3,0.6-0.5c0.2-0.2,0.3-0.4,0.5-0.6l0.3-0.1
				c0.3,0.1,0.6,0.2,1,0.2c0.3,0.1,0.6,0.2,0.9,0.3l0,0.2h0.1l0.1,0.2c0.1,0.4,0.1,0.7,0.1,1.1c0,0.4,0,0.8,0.2,1.1
				c0,0.1,0,0.3,0,0.4c-0.1,0.1-0.1,0.2-0.2,0.3l-0.1,0v0.1l-0.4,0.2c-0.1,0.1-0.1,0.3-0.1,0.4c0,0.2-0.1,0.3-0.1,0.5h-0.1
				c0,0.3-0.1,0.6-0.3,0.8c-0.2,0.2-0.3,0.5-0.3,0.8l-0.1,0l0.9,0.4l0.7-0.1L173.3,228.4L173.3,228.4z"/>
			<path class="st1" d="M175,226.7l0.3-0.3h0.3l0.2,0.2l0.1,0.1l0.3,0.6c0,0.1,0,0.2,0,0.3c0,0.1-0.1,0.2-0.1,0.3h-0.1v0.1l-0.3,0.2
				h-0.2l0-0.1l-0.2-0.1v-0.1l-0.6-0.3l0-0.1c0-0.1,0-0.2,0-0.3c0-0.1,0.1-0.2,0.2-0.2L175,226.7z M175,223.2l0.1-0.1L175,223.2
				L175,223.2l0.3-0.4l0.3,0.1l0.2,0.3l0.3,0.1l0.2,0.4l0,0.6l-0.1,0.1l-0.2,0.1l-0.3,0.2h-0.1v-0.1l-0.3-0.3l0-0.1
				c-0.1,0-0.2,0-0.3-0.1c-0.1-0.1-0.1-0.1-0.2-0.2L175,223.2L175,223.2z M175.3,226.3L175.3,226.3l-0.2,0v0l0.1,0L175.3,226.3z"/>
			<path class="st1" d="M181.9,228.4L181.9,228.4l0,0.2l0,0.6l-0.4,0.2l-0.1,0.5l-0.4,0.4H181l-0.2,0.2l-0.1,0l-0.2-0.4
				c-0.3,0-0.6,0-0.9-0.1c-0.3-0.1-0.6-0.1-0.8-0.2c-0.2,0-0.4,0-0.6,0.1c-0.2,0.1-0.4,0.2-0.6,0.3l0.2-0.6l0-0.4
				c0.1-0.4,0.2-0.7,0.4-1c0.2-0.3,0.3-0.7,0.5-1c0.1,0,0.1,0,0.2-0.1c0.1-0.1,0.1-0.1,0.2-0.1c0.2-0.3,0.3-0.6,0.5-0.9
				c0.2-0.3,0.3-0.6,0.6-0.9l-0.1-0.6c0-0.2,0-0.4,0.1-0.6c0.1-0.2,0.2-0.4,0.3-0.6h0c-0.2,0.2-0.4,0.3-0.6,0.4s-0.5,0.1-0.7,0.2
				l-0.2,0l0-0.1v0l0,0.1l-0.2,0.2l0.1,0.4l0,0.4l-0.3,0l-0.1-0.6c-0.1-0.1-0.1-0.2-0.2-0.3c-0.1-0.1-0.2-0.1-0.3-0.2
				c0-0.1,0-0.2,0-0.3c0-0.1,0-0.2-0.1-0.3l0-0.6h0.1c0.2-0.2,0.4-0.3,0.6-0.5c0.2-0.2,0.3-0.4,0.5-0.6l0.3-0.1
				c0.3,0.1,0.6,0.2,1,0.2c0.3,0.1,0.6,0.2,0.9,0.3l0,0.2h0.1l0.1,0.2c0.1,0.4,0.1,0.7,0.1,1.1c0,0.4,0,0.8,0.2,1.1
				c0,0.1,0,0.3,0,0.4c-0.1,0.1-0.1,0.2-0.2,0.3l-0.1,0v0.1l-0.4,0.2c-0.1,0.1-0.1,0.3-0.1,0.4c0,0.2-0.1,0.3-0.1,0.5h-0.1
				c0,0.3-0.1,0.6-0.3,0.8c-0.2,0.2-0.3,0.5-0.3,0.8l-0.1,0l0.9,0.4l0.7-0.1L181.9,228.4L181.9,228.4z"/>
			<path class="st1" d="M186.1,222l0.4,0.6l0.2,0.2c0.1,0.1,0.2,0.3,0.3,0.4c0.1,0.1,0.1,0.3,0.2,0.4c0,0.3,0,0.6-0.2,0.8
				s-0.2,0.5-0.3,0.7c0,0.3,0.1,0.5,0.1,0.8c0.1,0.2,0.1,0.5,0.2,0.7c0,0.1,0,0.3,0,0.4s0,0.3-0.1,0.4h-0.1
				c-0.1,0.4-0.2,0.7-0.4,1.1c-0.1,0.4-0.1,0.7-0.1,1.1c-0.2,0.2-0.4,0.3-0.6,0.4s-0.5,0.1-0.7,0.2h-0.4l-0.3-0.3l-0.1-0.1v-0.1
				l-0.2-0.2v-0.1h-0.1c-0.1-0.3-0.2-0.5-0.3-0.7c-0.1-0.2-0.2-0.5-0.3-0.7l-0.2-0.3l-0.6-0.9c0.1-0.3,0.2-0.6,0.2-0.9
				c0-0.3,0.1-0.6,0.2-0.9l0-0.5c0-0.2,0-0.4,0.1-0.6s0.2-0.3,0.3-0.5h0.1l0-0.2h0.1c0.1-0.1,0.1-0.2,0.2-0.3
				c0.1-0.1,0.1-0.2,0.1-0.3h0.1l0.4-0.7l0.2-0.2l0.2-0.1l0.2-0.1c0.2,0,0.4,0,0.6,0.1s0.4,0.1,0.6,0.2v0.1L186.1,222z M184.9,223.9
				L184.9,223.9L184.9,223.9l-0.2,0c0,0.2,0,0.4-0.1,0.6c-0.1,0.2-0.2,0.3-0.3,0.5h-0.1l-0.1,1.3c0,0.2,0.1,0.5,0.3,0.7
				c0.2,0.2,0.3,0.4,0.3,0.6l0.3,0.2l0.4,0l0.3-0.5c0-0.2,0-0.3,0-0.5c0-0.1,0-0.3-0.1-0.4l0-0.6c0-0.2,0-0.5,0-0.7
				c0-0.2,0-0.4-0.1-0.7L184.9,223.9L184.9,223.9z"/>
			<path class="st1" d="M191.5,224.5l-0.3,0.1l0,0.1c0,0.2,0,0.4,0,0.6c0,0.2-0.1,0.4-0.2,0.5l-0.1,0v0.1h0.1l0.2,0.5v0
				c-0.2,0-0.3,0-0.4,0c-0.1,0-0.3-0.1-0.4-0.1c-0.2,0.1-0.4,0.1-0.6,0.1s-0.4,0-0.6,0.1l-0.3,0c-0.1,0-0.3,0-0.4,0
				c-0.1,0-0.2,0.1-0.3,0.2h0c0-0.1,0-0.2,0-0.3s0-0.2,0.1-0.3l-0.1-1.2l0-0.2l0.3,0.1c0.4-0.1,0.8-0.1,1.2-0.2
				c0.4,0,0.8-0.1,1.2-0.1h0.4H191.5z"/>
		</g>
		<g class="st0">
			<path class="st1" d="M59.8,241h0.4l0.5-0.9h0c0,0.2,0,0.4,0,0.6c0,0.2,0.1,0.4,0.2,0.6c0,0.1,0,0.2,0,0.3s-0.1,0.2-0.2,0.2
				l-0.3-0.1l-0.3,0.1l-0.2,1.5v0.2l0.1-0.3l0.2-0.1l0-0.2l0.5-0.6h0c0,0.4-0.1,0.8-0.1,1.3c-0.1,0.4-0.2,0.8-0.5,1.1l-0.1,0.1
				l-0.3,0.2l-0.1,0.2l-0.9,0.6l-0.2,0.3l-0.1,0c-0.2,0.3-0.3,0.6-0.5,0.9c-0.2,0.3-0.3,0.6-0.4,0.9c0-0.3-0.1-0.7,0-1
				c0-0.4,0-0.7-0.2-0.9h-0.1l0-0.1l-0.2-0.1v-0.1l0.3-0.1l0.3-0.3v-0.1l0.2-0.2l0.6-0.5l-0.1-0.7l0-0.3l-0.1-0.5l-0.2,0.1l-0.3,0
				c0,0-0.1,0-0.2,0c-0.1,0-0.1,0.1-0.1,0.2l-0.1,0l-0.1,0.2h-0.1l-0.1,0.2h0l0.1-0.7c0-0.3,0-0.5-0.1-0.7c-0.1-0.2-0.2-0.4-0.3-0.6
				c0-0.1,0-0.1,0-0.2s0-0.1,0.1-0.1h0l0.2,0.3l0.1-0.1l0.2-0.1l0.5,0.1c0,0,0.1,0,0.1,0c0.1,0,0.1,0,0.1-0.1v-2l-0.1-0.3v-0.4
				l0.8,0.3c0.1,0,0.2,0,0.3,0s0.2,0,0.3-0.1h0.1c0,0.3,0,0.5,0,0.8c0,0.3,0,0.6,0.1,0.8v0.5h0H59.8z M66,241.5h0.3l0,0.4
				c0,0.2,0,0.5,0,0.7c0,0.2-0.1,0.4-0.2,0.6h0l0-0.1l-0.2-0.1c-0.3,0.1-0.5,0.2-0.8,0.3c-0.3,0-0.5,0.1-0.8,0.2l-0.3,0h-0.4
				c0.1,0.5,0,0.9-0.2,1.3c-0.2,0.4-0.4,0.8-0.6,1.2h-0.1c-0.1,0.1-0.2,0.2-0.3,0.2c-0.1,0.1-0.2,0.2-0.3,0.3l-0.2,0.2l-0.1,0.1
				l-0.2,0.1l-0.5,0.2l-0.6,0l0.5-0.4l0.1,0l0-0.1l0.1-0.2l0.2-0.1l0.1-0.1h0.1c0.2-0.3,0.3-0.6,0.4-0.9c0.1-0.3,0.3-0.6,0.4-0.9
				l0.1-0.1l0.1,0c0.1-0.1,0.1-0.3,0.2-0.4c0-0.1,0.1-0.3,0.2-0.4h-0.5l-0.1,0.1c-0.1,0.1-0.3,0.2-0.4,0.3c-0.1,0.1-0.3,0.1-0.4,0.1
				h0l0.2-0.5c0-0.2,0-0.4-0.1-0.6c-0.1-0.2-0.2-0.3-0.3-0.5l0.1-0.4c0.4,0,0.9,0.1,1.3,0.1c0.4,0.1,0.9,0.2,1.3,0.3
				c0.4,0,0.8-0.1,1.1-0.2C65.4,242,65.8,241.8,66,241.5L66,241.5z M65.3,238.7L65.3,238.7l0.4,0.5c0,0.4-0.1,0.7-0.2,1.1
				c-0.1,0.4-0.1,0.7-0.2,1.1c-0.3,0-0.6,0-0.9-0.1s-0.6-0.1-0.9-0.2c-0.2,0-0.5,0-0.7,0.1c-0.2,0.1-0.4,0.2-0.6,0.3H62l0.1-0.3
				c0.1-0.4,0-0.8-0.1-1.2c-0.1-0.4-0.2-0.8-0.4-1.1v-0.2c0.2,0.1,0.5,0.1,0.7,0.1c0.3,0,0.5,0,0.8,0.1c0.3,0,0.7,0,1,0
				s0.6-0.1,1-0.2L65.3,238.7L65.3,238.7z M63.8,245.2L63.8,245.2l0.1,0.3h0.1c0,0.2,0,0.4,0,0.5c-0.1,0.2-0.1,0.3-0.2,0.4l-1,0.4
				h-0.3l0-0.1l0.5-0.5l0.3-0.4h0.1L63.8,245.2L63.8,245.2L63.8,245.2z M63,239.6L63,239.6L63,239.6l0,0.1l0.2,0.2
				c0.1,0.1,0.3,0.1,0.4,0.1s0.3,0,0.4,0.1c0.1,0,0.1,0,0.2,0c0.1,0,0.1,0,0.2-0.1l0.1-0.1v-0.5h-1.2L63,239.6z M63.1,240.6
				L63.1,240.6L63.1,240.6l0.7,0.3H64l0.1-0.2l-0.2-0.2c-0.1,0-0.3,0-0.4,0c-0.1,0-0.2,0.1-0.3,0.1L63.1,240.6z M63.1,244.2
				L63.1,244.2h0.3l1,0l0.3-0.2l0.7-0.1c0.3,0,0.5,0.1,0.8,0.2c0.3,0.1,0.5,0.1,0.8,0.2l0.2,0.1c0,0.7-0.2,1.3-0.5,1.9
				c-0.4,0.6-0.6,1.2-0.7,1.8c0,0.1,0,0.2,0,0.3c0,0.1,0,0.2-0.1,0.2c-0.1,0-0.2,0-0.3,0c-0.1,0-0.2,0-0.3-0.1l0-0.1
				c-0.3-0.2-0.6-0.4-1-0.5c-0.3-0.1-0.7-0.2-1-0.4c0.2-0.1,0.4-0.1,0.6-0.2s0.3-0.2,0.6-0.2c0.2,0,0.4,0,0.6,0
				c0.2,0,0.3,0.1,0.5,0.2l0.2-0.2l0-0.3c0-0.3,0-0.6,0.1-0.9c0.1-0.3,0.2-0.5,0.3-0.7l-0.7,0c-0.2,0-0.3,0-0.5,0.1
				s-0.3,0.1-0.5,0.2c-0.2,0-0.3,0-0.4,0c-0.1,0-0.2-0.1-0.3-0.2l0-0.1v-0.4L63.1,244.2z M64.8,245l0.1,0l0.2,0.4c0,0.2,0,0.4,0,0.6
				c0,0.2-0.1,0.4-0.3,0.5l-0.7,0.3H64l0.2-0.2l0.3-0.2l0.2-0.4h0.1l0-0.1l0-0.3V245L64.8,245z"/>
		</g>
		<g class="st0">
			<path class="st1" d="M70.7,241.1c0.2,0,0.3,0,0.5,0c0.2,0,0.3-0.1,0.4-0.2h0.1c0,0.4,0.1,0.9,0.1,1.3c0.1,0.4,0.2,0.9,0.3,1.3
				v0.1l-0.4-0.1c-0.4,0-0.7,0-1.1,0s-0.7,0.1-1.1,0.2c0,0.8-0.1,1.6-0.3,2.3s-0.4,1.5-0.5,2.3c-0.2-0.1-0.4-0.1-0.7-0.2
				s-0.5,0-0.7,0l0-0.1l0.2-0.2c0.1-0.3,0.2-0.5,0.3-0.8s0.2-0.5,0.3-0.8c0.1-0.8,0-1.5-0.2-2.3c-0.2-0.7-0.3-1.5-0.4-2.2v-0.4
				l0.3-0.1h2.6L70.7,241.1l0.3,0.1L70.7,241.1z M70.9,239.1c0.2,0,0.3,0,0.4-0.1s0.2-0.2,0.3-0.3h0.1c0,0.3,0,0.6,0,0.8
				c-0.1,0.2-0.1,0.5-0.3,0.7l-1,0c-0.4,0-0.8,0-1.2,0c-0.4,0-0.8,0.1-1.1,0.3l0,0.1l0-1.2l-0.5-0.4l0-0.1c0.3,0,0.6,0,0.8,0.1
				s0.5,0.1,0.7,0.1c0.3,0,0.6,0,1,0S70.6,239.2,70.9,239.1L70.9,239.1L70.9,239.1z M70.8,242l-0.3,0.2l-1.3,0h-0.4
				c0,0.1,0.1,0.2,0.2,0.3c0.1,0.1,0.1,0.2,0.1,0.3l0.4-0.2c0.2,0,0.5,0,0.7,0c0.2,0,0.4,0.1,0.6,0.1h0c0-0.1,0-0.2,0-0.4
				c0-0.1,0.1-0.2,0.1-0.3L70.8,242z M74.9,239.1c0,0.1,0,0.2,0,0.3c0,0.1-0.1,0.2-0.2,0.2l-0.1,0l0,0.2l-0.6,0.3v0.5l-0.4,0.5
				l0.2,0.8c0.2,0,0.5,0.1,0.7,0.2s0.4,0.2,0.7,0.2l0.4,0h1.5l0,1.4l-1.1,0l0,0.6c0,0.2,0,0.4,0,0.6c0,0.2,0,0.4-0.1,0.6v1.9l0,0.7
				l-0.5-0.1l-0.4,0h0l-0.1-0.6c0-0.6,0-1.3,0-1.9c0-0.6,0.1-1.2,0.3-1.8c-0.2,0-0.3,0-0.5,0c-0.1,0-0.3,0-0.4-0.1h-0.1v0.2l-0.1,0
				c-0.2,0.5-0.4,1-0.6,1.6c-0.2,0.5-0.3,1-0.4,1.6l0,0.4l0,0.2l-0.4,0.2l-0.2,0.2H72v0h0v-0.1l0.1,0l-0.3,0c-0.1-0.7,0-1.3,0.1-1.9
				c0.1-0.6,0.3-1.2,0.4-1.8l0-0.3c0-0.2,0-0.4,0-0.6s0-0.4,0.1-0.6c0-0.3,0-0.6-0.1-0.9c0-0.3-0.1-0.6-0.2-0.9v-0.2l0.3-0.2
				l0.5-0.8l-0.1-0.9l1.8-0.1h0.1L74.9,239.1z"/>
			<path class="st1" d="M83.1,240.3L83.1,240.3L83.1,240.3L83.1,240.3L83.1,240.3l0.4,0.3c0,0.2,0,0.3,0,0.5c0,0.1-0.1,0.3-0.1,0.4
				l-0.2,0.2c-0.2,0-0.4-0.1-0.6-0.1s-0.4-0.1-0.6-0.2c-0.1-0.1-0.1-0.1-0.1-0.2s0-0.1,0-0.2h-0.1l-0.1-0.1l0.1-0.4h0.1v-0.1
				l0.5-0.5c0.2,0.1,0.3,0.1,0.4,0.2S83,240.2,83.1,240.3L83.1,240.3L83.1,240.3z M83.3,244.1l-0.4,0.2l0.4,0.2c0,0.2,0,0.4,0.1,0.5
				s0,0.3,0.1,0.5v0.4l-0.2,0.3l-1.2-0.1l-0.1-0.1l-0.1,0l0-0.1l-0.1-0.3c0-0.2,0-0.4,0-0.7s0.1-0.4,0.3-0.6l0.1,0
				c0.2,0,0.3,0,0.5,0c0.2,0,0.3,0.1,0.4,0.2h0L83.3,244.1z"/>
			<path class="st1" d="M88.2,247.9v-0.8l-0.1-0.4c0-0.2,0.1-0.5,0.1-0.7c0-0.2,0.1-0.5,0.1-0.7c-0.1-0.1-0.1-0.3-0.1-0.4
				c0-0.1,0-0.3,0-0.5c0.1-0.6,0.3-1,0.6-1.5c0.4-0.4,0.6-0.9,0.7-1.5l0.2-0.2c0.1-0.2,0.1-0.5,0.2-0.7s0.1-0.5,0.1-0.7l-0.1-0.3
				c0,0-0.1,0-0.1-0.1c0-0.1,0-0.1,0-0.2c0-0.2,0.1-0.3,0.2-0.5c0.1-0.1,0.1-0.3,0.1-0.5c0,0.1,0,0.2,0.1,0.2c0.1,0,0.1,0.1,0.2,0.1
				l0.5,0l0.1,0.2h0.1c0,0.2,0.1,0.4,0.2,0.5s0.2,0.3,0.4,0.5l0.5,0.5c0,0.7,0.1,1.3,0.3,2c0.2,0.6,0.2,1.3,0.1,2
				c-0.1,0.5-0.2,1.1-0.2,1.6c0,0.6-0.2,1.1-0.3,1.6v0.6l0.1,0.4h-0.1l-0.1-0.2h-0.1l-0.2,0.4l-0.1-0.1v-0.1h-0.1v-0.1l0,0
				c0-0.3,0-0.6-0.1-0.8s-0.1-0.5-0.2-0.7l0-0.3l-0.1-0.4l-0.3,0c-0.1,0.1-0.1,0.1-0.1,0.2s0,0.2-0.1,0.3l-0.1,0
				c-0.2-0.1-0.4-0.2-0.6-0.3c-0.2-0.1-0.4-0.2-0.6-0.3v0.3l0,0.7l-0.1,0.3h-0.1l-0.1,0.6l-0.2,0.1v0.1l-0.2,0.2l-0.1,0.2l-0.3,0
				l0-0.1h0l-0.1,0.1v-0.1l0.1-0.2l0-0.1h-0.1L88.2,247.9l0.1-0.3v0L88.2,247.9z M90.8,241.9h-0.3c-0.1,0.2-0.2,0.3-0.4,0.5
				c-0.1,0.2-0.2,0.3-0.4,0.5l-0.1,0.5h0.2l0.1,0.2l0.1,0.2l0.2-0.1l0.1,0.1l0.1,0.5h0.2l0.1-0.1l0.1-0.3l0.1,0v-0.3h0.1l0.1,0v-0.3
				c-0.1-0.1-0.1-0.3-0.1-0.4s-0.1-0.2-0.2-0.3l-0.1,0L90.8,241.9l-0.1-0.1L90.8,241.9z"/>
		</g>
		<g class="st0">
			<path class="st1" d="M98.6,239.3c0,0.2,0,0.5,0,0.7l0.5,0.5c0.1,0,0.2,0,0.4-0.1s0.2-0.1,0.3-0.2h0.2c0,0.2,0,0.5,0,0.7
				c0.1,0.2,0.1,0.4,0.2,0.6v0.3c-0.2,0-0.4,0-0.6,0c-0.2,0-0.4-0.1-0.5-0.1l-0.7,0l0.1,0.2l0.3,0.6c0.3,0.6,0.5,1.1,0.6,1.7
				c0.2,0.6,0.3,1.2,0.6,1.8l-0.2-0.1l-0.1-0.1l0-0.2l-1.2-1h0c0,0.1,0,0.1,0,0.2c0,0.1,0.1,0.1,0.2,0.1c0.1,0.1,0.1,0.3,0.2,0.4
				c0,0.2,0,0.3,0,0.5H99l0.4,0.9c0,0.3,0,0.5-0.1,0.7c-0.1,0.2-0.1,0.5-0.1,0.7l-0.3-0.2c-0.2,0-0.4,0-0.6,0c-0.2,0-0.4,0-0.5,0.1
				h-0.2c0.1-0.3,0.1-0.6,0.2-0.9c0.1-0.3,0.1-0.6,0.1-0.9l0-1.6c-0.1,0.2-0.1,0.4-0.2,0.6c-0.1,0.2-0.2,0.4-0.3,0.6
				c-0.1,0.2-0.3,0.4-0.4,0.5c-0.2,0.2-0.3,0.3-0.6,0.4c0.2-0.6,0.3-1.3,0.4-1.9c0.1-0.6,0.2-1.3,0.3-1.9v-1.1l-0.8,0.4h0
				c0-0.3,0-0.7-0.1-1c-0.1-0.3-0.2-0.6-0.4-0.9l0.1,0.1l0.4,0.2h1.5l-0.5-1.5v-0.2l0.5,0.2c0.2,0,0.3,0,0.4,0
				c0.1-0.1,0.2-0.1,0.3-0.2C98.6,238.9,98.6,239.1,98.6,239.3z M104,239v0.2l-0.2-0.2v0.3l-0.3,0.3c0,0.1,0,0.2,0,0.3
				c0,0.1,0,0.2,0.1,0.3c0.3,0,0.6,0,0.8,0c0.2-0.1,0.5-0.1,0.7-0.3h0l0,1.4l-0.7-0.1c-0.2,0-0.3,0-0.5,0c-0.1,0-0.3,0.1-0.4,0.1
				l0.2,0.6l0.3,0.3c0.2,0,0.3-0.1,0.5-0.1c0.1,0,0.3-0.1,0.4-0.2h0.1l0,1.4c0,0.3,0,0.6,0,0.9c0.1,0.3,0.1,0.6,0.2,0.8v0.4
				c-0.3,0-0.5-0.1-0.7-0.2s-0.4-0.2-0.7-0.3h-0.1c0.2,0.3,0.4,0.7,0.5,1.1c0.1,0.4,0.3,0.7,0.3,1.1c0.1,0.2,0.2,0.4,0.3,0.5
				s0.3,0.3,0.5,0.4l-0.9-0.6v-0.1l-0.2-0.1v-0.1l-0.2-0.1c-0.1-0.1-0.2-0.3-0.3-0.4c-0.1-0.1-0.2-0.3-0.2-0.4v0l0.1,0.6
				c0,0.2,0,0.4-0.1,0.6c-0.1,0.2-0.1,0.4-0.2,0.6c-0.1,0-0.3,0-0.4,0s-0.2,0.1-0.4,0.2l-0.1-1.9l-0.6,0.4l-0.4,0.2l-0.2,0.3
				l-0.2,0.1l-1.7,0.7l0.5-0.4l0.1-0.1h0.1l1-1l0.1-0.1h0.1c0.1-0.1,0.1-0.2,0.3-0.3c0.1-0.1,0.2-0.2,0.3-0.3l0.1-0.1l0.2-0.1l0-0.8
				l-0.3-0.1c-0.2,0-0.4,0-0.5,0.1c-0.2,0.1-0.3,0.2-0.5,0.3h0l0.1-0.2c0-0.4-0.1-0.7-0.1-1.1c-0.1-0.4-0.1-0.7-0.2-1.1v-0.5
				c0.3-0.1,0.5-0.1,0.8-0.1c0.3,0,0.6,0,0.9,0l0-1c-0.3,0-0.5,0-0.7,0.1c-0.2,0.1-0.4,0.1-0.7,0.2h0c0-0.3,0-0.5-0.1-0.8
				c0-0.3-0.1-0.5-0.2-0.7v-0.2c0.3,0.1,0.7,0.2,1,0.2s0.7,0.1,1,0.3l-0.4-1.2V239l0.1,0c0.3,0,0.6,0,0.8-0.1
				c0.3-0.1,0.5-0.1,0.8-0.2h0.1L104,239z M102.1,244v0.1l-0.3-0.2l-0.3,0v0.1l-0.2,0.1l0.1,0.3l0.2,0.2l0.2-0.1L102.1,244z
				 M102,243.1l-0.1-0.3l-0.1-0.1l-0.3,0.1c0,0.1,0,0.2,0,0.3c0,0.1,0.1,0.2,0.2,0.3h0.2l0-0.1L102,243.1z M104.3,243.2l0-0.3
				l-0.2-0.1c-0.1,0-0.2,0-0.2,0c-0.1,0-0.1,0.1-0.2,0.2c0,0.1,0,0.2,0,0.2c0,0.1,0,0.1,0.1,0.2l0.1,0.1l0.4-0.2L104.3,243.2z
				 M104.1,244.8v0.1l0.3-0.4v-0.1L104,244l-0.2,0l-0.1,0.2l0.1,0.5l0.2,0.1l0.1,0.2V244.8z"/>
			<path class="st1" d="M108.8,245.3l0,0.1l0,0.3l-0.1,0.4c-0.1,0-0.2,0-0.4-0.1s-0.2-0.1-0.3-0.2c-0.1-0.2-0.1-0.3-0.2-0.5
				s-0.1-0.3-0.1-0.5l-0.1-0.1c-0.4-0.7-0.7-1.4-0.8-2.1c-0.1-0.7-0.4-1.4-0.7-2.1h-0.1v-0.1h-0.1v-0.3l0.3-0.1c0-0.1,0-0.2,0-0.3
				c0-0.1,0.1-0.2,0.2-0.2c0.2,0,0.3,0,0.5,0.1c0.1,0.1,0.3,0.2,0.5,0.2c0.2,0.4,0.3,0.8,0.3,1.2c0,0.4,0.1,0.8,0.3,1.2l0.2-0.2h0
				c0,0.1,0,0.2,0.1,0.3s0,0.2,0.1,0.3l0.3,0.7l0.2,0.1l0.6-0.2v-0.1h0.1l0.2-0.4l0.5-0.6h0.1c0,0.2,0,0.4,0,0.6
				c0,0.2,0,0.4-0.1,0.6h-0.1l0,0.2h-0.1l-0.2,0.3h-0.1v0.1h-0.1l-0.2,0.2v0.1h-0.1l0,0.1h-0.1l0,0.1l-0.1,0l-0.2,0.4l0,0.5v0
				L108.8,245.3z M111.7,241.9L111.7,241.9l-0.4,0.4h0l0.2-0.2l0-0.3l0.1-0.7l0-0.6l0.1-0.6c0-0.1,0.1-0.2,0.2-0.2s0.2-0.1,0.3-0.1
				v-0.1h0.1l0.3-0.4c0.1,0,0.2,0,0.2,0c0.1,0,0.1,0.1,0.2,0.1h0.1l0.1-0.1l0.1-0.1l0.2-0.1l0.1,0l0,0.1l0.5,0.6h0.1l0.2,0.2v1.9
				c-0.1,0.6-0.3,1.2-0.4,1.7c-0.1,0.6-0.3,1.2-0.3,1.8l0,0.9h0v0.1l-0.3,0.2c-0.1,0.1-0.2,0.1-0.3,0.2s-0.1,0.2-0.2,0.3l-0.3,0.6
				l-0.2,0.2l-0.2,0.1l-0.1,0v-0.1l-0.4,0.3c-0.1,0-0.3,0-0.4,0c-0.1,0-0.2-0.1-0.3-0.1c-0.1,0-0.2,0-0.2,0s-0.1,0.1-0.2,0.1h-0.1
				c0.1,0,0.2,0,0.4-0.1s0.2-0.1,0.4-0.2c0.5-0.6,0.7-1.3,0.8-1.9s0.3-1.4,0.6-2c0-0.2,0-0.4,0-0.6s0-0.4-0.1-0.5c0-0.1,0-0.2,0-0.3
				s0-0.2,0.1-0.2l0-0.1l-0.2-0.1c-0.1-0.1-0.1-0.2-0.1-0.4c0-0.1,0-0.3-0.1-0.4l-0.2,0.4h-0.1v0.1l-0.2,0.2L111.7,241.9l-0.4,0.3
				l-0.1,0.1h0L111.7,241.9z M111.6,240.1c0,0.2,0,0.5-0.1,0.6c-0.1,0.2-0.1,0.4-0.1,0.7l-0.4,0.2l0,0.4h-0.1l-0.2-0.4l0.7-1.5
				L111.6,240.1L111.6,240.1z"/>
			<path class="st1" d="M124,247.6l-0.3,0.4l-1,0.5c-0.5,0.1-1,0-1.5-0.1c-0.5-0.1-0.9-0.3-1.4-0.5l0-0.1c-0.4-0.1-0.8-0.1-1.2-0.2
				c-0.4-0.1-0.8-0.3-1.1-0.6l-0.2-0.7v-0.2l0.3-0.2v-0.1c0.1-0.1,0.3-0.1,0.5-0.1c0.2,0,0.3-0.1,0.5-0.1l0.2-0.4h0.1l0.2-0.4
				l0.1-0.1h0.1l-0.1-0.6c0-0.2,0-0.4,0.1-0.5c0.1-0.2,0.1-0.3,0.1-0.5l0.4-0.3l0.1-0.1l0.3-0.1h0c-0.6,0.1-1.1,0.2-1.7,0.4
				c-0.5,0.2-1.1,0.4-1.6,0.6l-0.7,0v-0.2l0.1-0.1l0.4,0l0.2-0.2l0.2-0.2c-0.1-0.1-0.1-0.3-0.1-0.4c0-0.2-0.1-0.3-0.2-0.4l-0.4,0v0
				h1l0.2-0.2l0.5-0.1c0.1-0.1,0.2-0.1,0.3-0.2s0.1-0.2,0.2-0.3l0.6-0.3l0.2-0.4v-0.1c-0.1,0-0.2,0-0.4,0c-0.1,0-0.2,0-0.3,0.1
				c-0.3-0.2-0.6-0.2-1-0.3c-0.4,0-0.7-0.1-1-0.2l0-0.1v0l0.4,0l0.2-0.3l0.5-0.2l0-0.2l-0.2-0.1c0.3,0,0.5,0,0.8,0
				c0.2,0.1,0.5,0.1,0.7,0.2c0.3-0.1,0.6-0.2,0.9-0.3c0.3-0.1,0.6-0.2,1-0.2c0.1-0.1,0.2-0.2,0.3-0.2c0.1-0.1,0.2-0.2,0.2-0.3
				l0.2-0.1l0.2,0.1l0.1,0.2l0,0.1v0.3l-0.2,0.2v0.6c-0.1,0.1-0.1,0.2-0.2,0.2s-0.2,0.1-0.3,0.2l-0.1,0.2h-0.1v0.1h-0.1l0,0.1h-0.1
				v0.1l-0.1,0l0.2,0.2c0.5-0.1,1-0.1,1.4-0.2c0.5-0.1,0.9-0.2,1.4-0.5l0.4,0.1l0.8-0.2l0.4-0.5h0l0,0.3v0.2l0.1-0.1h0
				c-0.1,0.1-0.1,0.2-0.2,0.3c-0.1,0.1-0.1,0.2-0.1,0.3l-0.4,0.2l-0.1,0.2c-0.2,0.1-0.4,0.1-0.6,0.2c-0.2,0.1-0.4,0.1-0.5,0.3h-0.1
				l-0.1,0.1l-0.5,0.5l-0.1,0.2l-0.2,0.1c-0.3,0.2-0.6,0.4-1,0.5s-0.7,0.2-1,0.3l-0.2,0.3l0,0.4l-0.1,1.1l-0.5,0.6l0.1,0.2l0.1,0.1
				l0.1,0.1v0.1l0.4,0.2l0,0.1c0.2,0.2,0.5,0.3,0.7,0.3c0.3,0,0.6,0.1,0.8,0.1h0.8c0.3-0.3,0.5-0.6,0.6-0.9c0.2-0.3,0.4-0.6,0.7-0.8
				c0.1,0,0.2,0,0.3,0c0.1,0,0.2,0,0.2,0.1l-0.2,0.4v0.2l0.3-0.1l0.2-0.2l0.2-0.2l0.1-0.1l0.1,0h0.1c0,0.2,0,0.3,0,0.5
				c-0.1,0.1-0.1,0.3-0.2,0.4h-0.1l0,0.1l-0.2,0.2c-0.1,0.2-0.2,0.4-0.3,0.6c-0.1,0.2-0.1,0.4-0.2,0.6h-0.1l-0.1,0.2v0.1L124,247.6z
				"/>
		</g>
		<g class="st0">
			<path class="st1" d="M126.3,241.7L126.3,241.7l0.2-0.1l0,0c-0.1-0.1-0.1-0.1-0.2-0.1c-0.1,0-0.1,0-0.2-0.1
				c0.5-0.3,0.9-0.4,1.3-0.6s0.7-0.2,1-0.3c0.1-0.4,0.1-0.9,0.1-1.3l0.3-0.1c0.1,0,0.1,0,0.1,0s0.1,0,0.1,0.1l0.6-0.4h0.1
				c-0.1,0.1-0.1,0.3-0.1,0.4s0,0.3-0.1,0.4c0,0.2,0,0.3,0,0.5l0,0l0.6-0.3h0.8l-0.1,0.2v0.1l0.7-0.1h0l-0.1,0
				c0,0.1-0.1,0.1-0.2,0.2c-0.1,0-0.1,0.1-0.1,0.2l-0.7,0.2l-0.3,0.3L130,241h-0.1v0.1l-0.1,0.1c-0.1,0-0.1,0-0.2,0
				c0,0.1,0.1,0.2,0.2,0.3v0.8h0l0-0.1l-0.3,0l0.2,0.5c0,0.2,0,0.3-0.1,0.4c-0.1,0.1-0.1,0.3-0.2,0.4h-0.1v0.1
				c-0.1,0.1-0.1,0.1-0.2,0.2c0,0.1-0.1,0.1-0.2,0.2c-0.1,0.2-0.2,0.4-0.3,0.6c-0.1,0.2-0.1,0.4-0.2,0.6l-0.1,0l-0.2,0.6l-0.5,0.3
				l0.4-0.2h0c-0.1,0.1-0.3,0.1-0.4,0.2c-0.1,0-0.3,0.1-0.4,0.2c-0.1,0-0.2,0-0.3,0c-0.1,0-0.1-0.1-0.1-0.2l-0.1,0.1l-0.1,0h0v-0.2
				l-0.6,0.3h0l0.6-1.4c0.1-0.1,0.2-0.2,0.3-0.3c0.1-0.1,0.2-0.2,0.3-0.2h0.1c0.2-0.9,0.5-1.8,0.8-2.8l0,0l-0.5,0.2
				c-0.2,0-0.4,0-0.5-0.1c-0.1,0-0.3-0.1-0.3-0.1l-0.1,0.1h0l0-0.1C126.4,241.8,126.4,241.7,126.3,241.7L126.3,241.7z M132.3,247.5
				L132.3,247.5h-0.2l-0.2-0.1l-0.1-0.1l-0.4-0.4v0.6h-0.1c-0.1,0.1-0.2,0.1-0.2,0.2c-0.1,0.1-0.1,0.2-0.2,0.3l-0.3,0.2l-1.6,0v-0.1
				h-0.1l0-0.1l0-0.2v-0.2l-0.4-0.3l0-0.2c0-0.3,0.1-0.6,0.3-0.9c0.1-0.3,0.3-0.5,0.5-0.8l0.1,0h0.2l0.1,0.2l0.5,0.3h0l0.1-0.2
				l0.3-0.1c0-0.2,0-0.5,0.1-0.7c0-0.2,0.1-0.4,0.3-0.6l0-0.1h-0.1c0-0.2,0-0.3-0.1-0.4c-0.1-0.1-0.1-0.2-0.1-0.4l0.3-0.4h0l0.4,0.9
				l0.1-0.1l0.4,0.1l0,0.1v0.2h-0.1l0,0.2l0,0.5c0,0.2,0,0.4,0,0.6c0,0.2,0,0.4-0.1,0.6l0.2,0.2c0.1,0,0.1,0,0.2,0s0.1-0.1,0.1-0.2
				l0.2-0.1l0.3,0.4c0.1,0,0.3,0,0.4,0s0.2-0.1,0.3-0.2l0.5,0.2c0.1,0.2,0.1,0.3,0.2,0.5c0.1,0.1,0.2,0.3,0.3,0.4v0.4l-0.4,0.4
				c-0.3,0.1-0.6,0-0.8-0.1C132.8,247.7,132.5,247.6,132.3,247.5z M130.1,246.9L130,247v-0.4h-0.5l-0.2-0.2c0,0.1,0,0.2,0,0.3
				c0,0.1,0,0.2,0.1,0.3l0.1,0h0.3L130.1,246.9z M131.7,241.1L131.7,241.1l-0.1,0.1l0.2-0.2l0.1,0l0.6,0l0.1-0.2l0.1,0
				c0.3,0.1,0.7,0.2,1,0.3s0.7,0.2,1,0.3c0.1,0,0.2,0.1,0.2,0.1c0.1,0.1,0.1,0.1,0.2,0.2l0,0.1c0,0.3,0.1,0.6,0.2,0.8
				c0.1,0.2,0.3,0.5,0.5,0.7l-0.2,0.3l-0.2,0l-0.1-0.1l0-0.1l-0.4,0.2l-0.4-0.1H134l-0.1,0.2c-0.1-0.3-0.1-0.6-0.2-0.9
				c-0.1-0.3-0.2-0.6-0.4-0.8c-0.2-0.1-0.3-0.1-0.4-0.2c-0.1-0.1-0.3-0.1-0.4-0.1L131.7,241.1z M132.4,247.4L132.4,247.4
				L132.4,247.4L132.4,247.4L132.4,247.4z"/>
		</g>
		<g class="st0">
			<path class="st1" d="M138.6,247.9v-0.8l-0.1-0.4c0-0.2,0.1-0.5,0.1-0.7c0-0.2,0.1-0.5,0.1-0.7c-0.1-0.1-0.1-0.3-0.1-0.4
				c0-0.1,0-0.3,0-0.5c0.1-0.6,0.3-1,0.6-1.5c0.4-0.4,0.6-0.9,0.7-1.5l0.2-0.2c0.1-0.2,0.1-0.5,0.2-0.7s0.1-0.5,0.1-0.7l-0.1-0.3
				c0,0-0.1,0-0.1-0.1c0-0.1,0-0.1,0-0.2c0-0.2,0.1-0.3,0.2-0.5c0.1-0.1,0.1-0.3,0.1-0.5c0,0.1,0,0.2,0.1,0.2c0.1,0,0.1,0.1,0.2,0.1
				l0.5,0l0.1,0.2h0.1c0,0.2,0.1,0.4,0.2,0.5s0.2,0.3,0.4,0.5l0.5,0.5c0,0.7,0.1,1.3,0.3,2c0.2,0.6,0.2,1.3,0.1,2
				c-0.1,0.5-0.2,1.1-0.2,1.6c0,0.6-0.2,1.1-0.3,1.6v0.6l0.1,0.4h-0.1l-0.1-0.2h-0.1l-0.2,0.4l-0.1-0.1v-0.1h-0.1v-0.1l0,0
				c0-0.3,0-0.6-0.1-0.8s-0.1-0.5-0.2-0.7l0-0.3l-0.1-0.4l-0.3,0c-0.1,0.1-0.1,0.1-0.1,0.2s0,0.2-0.1,0.3l-0.1,0
				c-0.2-0.1-0.4-0.2-0.6-0.3c-0.2-0.1-0.4-0.2-0.6-0.3v0.3l0,0.7l-0.1,0.3h-0.1l-0.1,0.6l-0.2,0.1v0.1l-0.2,0.2l-0.1,0.2l-0.3,0
				l0-0.1h0l-0.1,0.1v-0.1l0.1-0.2l0-0.1h-0.1L138.6,247.9l0.1-0.3v0L138.6,247.9z M141.2,241.9h-0.3c-0.1,0.2-0.2,0.3-0.4,0.5
				c-0.1,0.2-0.2,0.3-0.4,0.5l-0.1,0.5h0.2l0.1,0.2l0.1,0.2l0.2-0.1l0.1,0.1l0.1,0.5h0.2l0.1-0.1l0.1-0.3l0.1,0v-0.3h0.1l0.1,0v-0.3
				c-0.1-0.1-0.1-0.3-0.1-0.4s-0.1-0.2-0.2-0.3l-0.1,0L141.2,241.9l-0.1-0.1L141.2,241.9z"/>
			<path class="st1" d="M147.9,239.2l-0.3,0.1v0L147.9,239.2L147.9,239.2l0-0.1l0.2-0.4l0.1-0.1c-0.1,0.3-0.1,0.6,0,1
				c0,0.3,0,0.6-0.2,0.9l-0.2,0.1l-0.1,0.1l-0.2,0l-0.2-0.2h0c0,0.3-0.1,0.6-0.2,0.9s-0.2,0.6-0.3,0.9l0,1v2.2l-0.2,0.6
				c0,0.3,0,0.6,0.1,1s0,0.7,0,1c0,0.1,0,0.1,0,0.2c0,0.1,0,0.1-0.1,0.2l-0.2-0.2l-0.1-0.2v0.1l-0.3,0.4c-0.1-0.1-0.1-0.2-0.1-0.3
				s0-0.2-0.1-0.3c-0.1,0-0.1,0-0.2,0.1c-0.1,0-0.1,0.1-0.1,0.2h0l0-0.4c0-0.3,0.1-0.6,0.1-0.9s0.1-0.6,0.1-0.8c0-0.3,0-0.5,0-0.7
				s-0.1-0.4-0.2-0.6c0-0.2,0-0.4,0.1-0.6c0-0.2,0.1-0.4,0.2-0.5c0-0.3,0-0.6,0-0.9s0-0.6-0.1-0.9l0.2-0.7l-0.2,0.2l-0.4-0.1V241h0
				l-0.1,0.7l-0.1,0.1h-0.1v-0.4l-0.5-0.6c0-0.1-0.1-0.1-0.2-0.1c-0.1,0-0.2,0-0.2-0.1c0-0.1,0-0.2,0-0.3s0.1-0.1,0.1-0.2
				c0-0.2-0.1-0.4-0.2-0.6c-0.1-0.2-0.2-0.3-0.2-0.5h0v0h0.1v0.1l0.1-0.1l0.5,0.2v0.1l0.1,0.1c0.2-0.1,0.4-0.1,0.7-0.1
				c0.2,0,0.5-0.1,0.7-0.2c0.2,0,0.3,0,0.4,0c0.1,0.1,0.3,0.1,0.4,0.2h0.7v-0.1l0.2-0.2h0.1L147.9,239.2z"/>
		</g>
		<g class="st0">
			<path class="st1" d="M149.5,238.6l-0.1,0.4c0.1,0.3,0.1,0.6,0.2,0.8c0.1,0.3,0.1,0.6,0,0.9l0.1-0.6l0.1-0.1h0l0.1,0.5l0.2,0.2
				v0.1h0.1c0.2,0.4,0.3,0.9,0.4,1.4s0.2,1,0.2,1.5l0.4-0.2c0-0.3,0.1-0.5,0.2-0.7c0.1-0.2,0.2-0.4,0.3-0.6l0.1-0.1l0.2-0.2l0.1-0.1
				h0.1c0.1-0.4,0.2-0.8,0.2-1.2s0.1-0.8,0.1-1.3l0.1-0.2l0.2,0.1v0.1l0.1-0.2h0.1l0-0.2h0.1v-0.1h0.1v-0.1h0.1l-0.1,0.5
				c0,0.3,0,0.6,0.1,0.9c0.1,0.3,0.1,0.6,0.2,0.9v3.2l0,0l0,1.1l0,0.5h-0.1l-0.3,0.7c0,0.2,0,0.4,0,0.6s0.1,0.4,0.1,0.5l-0.1,0.9
				l-0.2-0.1c-0.1-0.1-0.1-0.2-0.2-0.3s-0.2-0.2-0.3-0.3l-0.2,0.1l-0.1,0h-0.1v-1.6l-0.1-0.2v-1.7c0-0.1,0-0.1,0-0.2
				c0-0.1,0-0.1,0.1-0.1c0,0.3-0.1,0.6-0.3,0.9c-0.2,0.3-0.3,0.6-0.4,0.9h-0.1l-0.1,0.8l-0.3,0.3l-0.1,0.4c-0.1-0.7-0.2-1.4-0.4-2
				s-0.3-1.3-0.3-2l-0.1,0.3l0.1,0.3c-0.2,0.7-0.3,1.5-0.3,2.2c-0.1,0.8-0.3,1.5-0.7,2.1h0l-0.1-0.6H149v0.1h0v-0.2l-0.4,0.2
				l0.3-0.5v-3l0,0l0-0.4l-0.1-0.7c0-0.3,0-0.7,0.1-1s0.1-0.7,0.2-1c0-0.3,0-0.6-0.1-0.9c-0.1-0.3-0.1-0.6-0.2-0.9
				c0-0.2,0-0.4,0-0.6c0-0.2,0-0.3,0.2-0.4l0.4,0L149.5,238.6L149.5,238.6z"/>
		</g>
		<g class="st0">
			<path class="st1" d="M159.2,241.1L159.2,241.1l0,0.1c0.1-0.1,0.2-0.1,0.4-0.2c0.1-0.1,0.2-0.2,0.3-0.3h0.1c0,0.2,0,0.5,0,0.7
				c0.1,0.2,0.1,0.4,0.2,0.6v0.2v0l-0.6,0.3l0.4,0.7l0.1,0c0.1,0.3,0.2,0.5,0.3,0.8c0.1,0.3,0.2,0.6,0.2,0.9v0.4l-0.2-0.1L160,245
				l-0.1-0.1l-0.1-0.2l-0.6-0.2h-0.1c0.2,0.5,0.3,1.1,0.4,1.6c0.1,0.6,0.2,1.1,0.2,1.7v0.5l-1.5,0l0.1-1.4c0-0.3,0-0.5-0.1-0.7
				c0-0.2-0.1-0.5-0.2-0.7h-0.1l-0.2-0.7c-0.1,0.1-0.2,0.1-0.2,0.3s0,0.2-0.1,0.3l-0.2,0.4h-0.1v0.1h-0.1v0.1h-0.1l-0.6,0.6
				c0.1-0.6,0.2-1.2,0.4-1.7c0.2-0.5,0.5-1.1,0.7-1.6v-0.4l0,0.1c-0.1,0.1-0.3,0.2-0.4,0.2s-0.3,0.1-0.5,0.1h-0.2
				c-0.1-0.2-0.1-0.4-0.1-0.6c0-0.2-0.1-0.4-0.3-0.6v0l1.1-0.1l0-0.4l0-0.2c0-0.4,0-0.7-0.2-1c-0.2-0.3-0.3-0.6-0.5-0.9l0.1-0.2
				l0.6,0.2c0.1,0,0.3,0,0.4,0c0.1,0,0.2-0.1,0.3-0.2l0.1-0.1h0.1l0.2-0.4h0.1c0,0.4,0.1,0.8,0.1,1.3c0.1,0.4,0.2,0.8,0.4,1.2v0
				L159.2,241.1z M164.3,240.1l0.3-0.1l0.2-0.4h0.1l0.3-0.3h0.1l0.1,0.7v0.3c-0.1,0-0.3,0-0.4,0c-0.1,0-0.2,0.1-0.3,0.1
				c0,0.1,0,0.3,0,0.4s0,0.2-0.1,0.3l0.1,0.6l0.9-0.4h0.1l-0.1,0.2l0.2,1v0.3c-0.3-0.1-0.6-0.1-1-0.1s-0.6,0-0.9-0.2
				c-0.3,0-0.5,0-0.7,0c-0.2,0-0.5,0-0.7,0.1l-0.3,0.3l-1.3,0.4h-0.4l0.1,0l0.1-0.1v-0.6l0,0h0c0.1-0.1,0.2-0.1,0.4-0.1
				c0.1,0,0.3,0,0.5,0l0-0.1c0-0.3,0-0.5,0-0.7c-0.1-0.2-0.1-0.5,0-0.7c-0.3,0-0.5,0-0.8,0s-0.5-0.1-0.7-0.2l-0.3-0.6l0-0.2l0.9,0
				h0.3c0-0.2,0-0.3,0-0.5c0-0.2,0-0.3-0.1-0.4l-0.2-0.2v-0.4l0.5,0.1c0.1,0,0.3,0,0.4,0c0.1,0,0.2,0,0.4-0.1h0.2
				c0,0.3,0,0.5,0.1,0.7c0.1,0.2,0.1,0.5,0.1,0.7l0.2-0.3c0.2,0,0.3,0,0.4,0c0.1,0,0.2,0.1,0.4,0.1c0.1-0.1,0.1-0.1,0-0.2
				c0-0.1,0-0.1,0.1-0.2l0-0.2v-0.6l0.3,0.1l0.7-0.3h0c0,0.2,0,0.3,0.1,0.4c0.1,0.1,0.1,0.3,0.1,0.4v0.5H164.3z M163.5,243.4
				l0.3,0.1h1.6l0.1,0c0.1,0.2,0.1,0.4,0.2,0.6c0.1,0.2,0.1,0.4,0.2,0.6c0,0.3,0,0.6-0.1,0.8c0,0.2-0.2,0.5-0.3,0.7
				c-0.3,0-0.5-0.1-0.7-0.2s-0.4-0.2-0.7-0.3c-0.5-0.1-1,0-1.5,0.1c-0.5,0.2-0.9,0.4-1.4,0.6c0-0.2,0-0.4,0-0.6s0.1-0.4,0.1-0.6
				l-0.3-0.7H161v-0.1h-0.1l0-0.1v-0.4c0.2-0.2,0.4-0.2,0.7-0.2s0.5,0,0.7-0.2l0-0.2v-0.8l0.6,0.2c0.1,0,0.2,0,0.2,0
				c0.1,0,0.1,0,0.2-0.1h0.2l0.1,0.3L163.5,243.4L163.5,243.4z M162.5,246.1l-0.1-0.1L162.5,246.1l0.1,0.1c0.1,0.1,0.2,0.2,0.4,0.3
				c0.1,0.1,0.2,0.2,0.2,0.4c0,0.2,0,0.3,0,0.4c0,0.1-0.1,0.2-0.1,0.4l-0.2,0.1l-0.4-0.1c-0.3,0-0.6,0-0.8,0.1
				c-0.2,0.1-0.5,0.1-0.8,0.2h-0.1l0.2-0.4l0.5-0.2v-0.1h0.1c0.1-0.2,0.2-0.3,0.3-0.5c0.1-0.2,0.2-0.4,0.3-0.6h0.1L162.5,246.1z
				 M162.4,244.5L162.4,244.5L162.4,244.5l-0.2,0l-0.1,0.2l-0.1,0.1l0.1,0.2h0.5l0-0.2v-0.2L162.4,244.5z M162.6,245.3l0.1,0v0
				l-0.1,0c-0.1,0-0.2,0-0.3,0c-0.1,0-0.1,0.1-0.2,0.1l0.2,0.2c0.1,0,0.2,0,0.2,0c0.1,0,0.1-0.1,0.1-0.2v-0.1H162.6z M163.4,240.9
				L163.4,240.9c-0.1,0-0.2,0-0.3,0s-0.2,0-0.3,0.1l-0.1,0.5v0.2l0.1-0.1l0.5,0.1h0.2l0.1-0.4v-0.4L163.4,240.9z M164.1,246.1
				L164.1,246.1l0.2,0.1l0.3,0.5c0.2,0.1,0.3,0.2,0.5,0.3c0.2,0.1,0.3,0.1,0.5,0.3c0,0.2-0.1,0.4-0.3,0.5s-0.3,0.2-0.5,0.3h0v-0.2
				l-0.3-0.4h-0.1v-0.1c-0.1-0.1-0.2-0.2-0.4-0.3s-0.2-0.1-0.4-0.1L164.1,246.1L164.1,246.1L164.1,246.1z M164.6,244.4L164.6,244.4
				l0-0.2h-0.5l-0.2,0.2l0.2,0.4l0.3,0l0.2-0.4v-0.1L164.6,244.4z M164.2,245.3l0.2,0l0-0.1l-0.4,0.1v0.1l0.2,0.1l0.2-0.1v0
				L164.2,245.3z"/>
			<path class="st1" d="M173.9,238.6l-0.2,0.5h-0.1l-0.4,0.8h-0.1l-0.1,0.1c-0.3,0.1-0.6,0.2-0.9,0.2c-0.3,0-0.6,0-0.9,0.1
				c0,0.1,0,0.2,0,0.2c-0.1,0.1-0.1,0.1-0.1,0.2c-0.1,0.1-0.2,0.1-0.4,0.1l0.2,0.1l-0.1,0.4c0,0.2,0,0.3,0.1,0.4l0-0.1v-0.1h0.1
				l0,0.3c0,0.1,0,0.1,0.1,0.2v0.4l0-0.1c0,0,0,0.1,0,0.2c0.1,0,0.3,0,0.5,0s0.4,0,0.6,0.1c0.5-0.1,1-0.2,1.5-0.4s0.9-0.5,1.4-0.8
				v-0.1l0.2-0.1h0v-0.1h0.2l0,0.1l0.1,0.3v0.5h-0.1c0,0.1,0,0.2,0,0.3c0,0.1-0.1,0.2-0.2,0.3l-0.1,0.1c-0.1,0.1-0.2,0.2-0.4,0.3
				c-0.1,0.1-0.3,0.1-0.4,0.2c0,0.2,0,0.3-0.1,0.5c-0.1,0.1-0.1,0.3-0.2,0.4l-0.6,0.3c-0.2,0-0.4,0-0.6-0.1
				c-0.2-0.1-0.3-0.1-0.5-0.2c-0.2,0-0.4,0-0.5,0.1c-0.1,0.1-0.3,0.2-0.5,0.2c-0.1,0-0.3,0-0.4,0l0.1,0.9l0.9,0.7
				c0.1,0.1,0.1,0.1,0.2,0.2c0.1,0.1,0.1,0.1,0.1,0.2c0.2-0.1,0.5-0.1,0.7-0.1c0.2,0,0.5-0.1,0.7-0.1l0.6,0c0.3,0,0.6,0,0.9,0
				s0.6-0.1,0.8-0.2h0.2c0.1,0.2,0.1,0.3,0.1,0.5c0,0.2,0,0.4,0.1,0.5l-0.1,0.3c0,0.1,0,0.1,0,0.1c0,0,0,0-0.1,0l-0.2,0.7
				c-0.2,0.1-0.4,0.2-0.7,0.2c-0.3,0-0.5,0.1-0.7,0.2c-0.7,0-1.4-0.2-2.1-0.5s-1.4-0.4-2.1-0.4c-0.1,0-0.1-0.1-0.2-0.1
				c-0.1,0-0.1-0.1-0.1-0.2l0-1.1l-0.1-1.8c-0.1,0-0.3,0.1-0.5,0.1c-0.2,0-0.3,0.1-0.5,0.1h-0.3l-0.2-0.4c-0.1,0-0.2-0.1-0.2-0.1
				c-0.1-0.1-0.1-0.1-0.2-0.1l0-0.1l-0.6-0.2c-0.1-0.1-0.1-0.2-0.1-0.2s0-0.2,0-0.3c-0.2-0.1-0.3-0.2-0.5-0.2s-0.3-0.1-0.5-0.1
				c0.4,0,0.9,0,1.3,0s0.9-0.1,1.3-0.2h1.1c0-0.2,0.1-0.4,0.1-0.7c0-0.3,0.1-0.7,0.1-1.1h-0.1v-0.1l-0.2-0.2l-0.2-0.1v-0.1
				c-0.2,0-0.4,0-0.5-0.1c-0.2,0-0.3-0.1-0.4-0.3l0-0.2l0-0.2l-1-0.3l0.5-0.2h0.1l0,0l0.4-0.2h1.9c0.2-0.1,0.4-0.1,0.6-0.3
				c0.2-0.1,0.4-0.2,0.6-0.3h1.9L173.9,238.6L173.9,238.6z M170.6,240.9L170.6,240.9L170.6,240.9L170.6,240.9z M171,242.1L171,242.1
				L171,242.1L171,242.1z"/>
			<path class="st1" d="M176.5,244.1L176.5,244.1L176.5,244.1L176.5,244.1z M176.8,244.3L176.8,244.3l0.2,0l0.1,0v0l0.1-0.1
				c0.7,0.1,1.4,0.2,2,0.4c0.7,0.2,1.3,0.5,2.1,0.8c0.2-0.1,0.5-0.1,0.7-0.2c0.2-0.1,0.5-0.1,0.7-0.1l1.7,0.1l1-0.9
				c0.1,0,0.2-0.1,0.3-0.1c0.1-0.1,0.2-0.1,0.4,0c-0.3,0.3-0.5,0.6-0.6,1c-0.1,0.4-0.2,0.7-0.4,1.1l-0.7,0.3l-0.3,0.5l-0.1,0
				c-0.1-0.1-0.2-0.2-0.4-0.3c-0.1-0.1-0.3-0.1-0.4-0.1l-0.2,0.1v0.1h-0.2c-0.2-0.1-0.3-0.1-0.5-0.2c-0.2,0-0.4,0-0.6,0
				c-0.1,0.1-0.3,0.1-0.4,0.1s-0.3,0.1-0.4,0.2c-0.1,0.1-0.2,0.1-0.3,0.2c-0.1,0-0.2,0-0.4,0c-0.1,0.1-0.2,0.2-0.3,0.2
				s-0.2,0.1-0.3,0.1c-0.1-0.1-0.3-0.2-0.5-0.2c-0.2,0-0.3-0.1-0.5-0.2v-0.1l-0.8-0.5l-0.2-0.3v-0.3l0.1-0.3l-0.2-0.1v-0.1l-0.5-0.2
				c-0.1-0.1-0.2-0.2-0.2-0.4c0-0.2,0-0.3-0.1-0.4h-0.1l-0.2-0.2v-0.1l0-0.1L176.8,244.3L176.8,244.3z M177.1,244.3L177.1,244.3
				l-0.2,0l-0.1,0l0.4-0.2h0L177.1,244.3z M181.2,240.3c0.5-0.1,1-0.2,1.5-0.3c0.5-0.1,0.9-0.3,1.3-0.5l-0.4,0.3l0.4-0.2h0.1
				c0,0.2,0,0.4,0,0.6c0,0.2-0.1,0.3-0.2,0.5l-0.3,0.2c-0.1,0.1-0.2,0.2-0.3,0.3c-0.1,0.1-0.2,0.2-0.3,0.3c-0.2,0.2-0.3,0.3-0.5,0.4
				c-0.2,0.1-0.4,0.1-0.6,0.2c-0.1,0-0.3,0-0.4,0c-0.2,0-0.3,0-0.4-0.1c-0.2,0-0.4,0-0.5,0c-0.2,0.1-0.3,0.1-0.5,0.2
				c-0.4-0.2-0.8-0.3-1.2-0.4c-0.4-0.1-0.8-0.2-1.2-0.3l-0.2-0.2l0-0.3c0-0.2,0-0.3-0.1-0.5c-0.1-0.1-0.2-0.3-0.3-0.4l0,0h0l0,0
				l0.1,0.1h2.1c0.3,0.1,0.5,0.2,0.8,0.2S180.9,240.2,181.2,240.3z"/>
			<path class="st1" d="M191.7,239L191.7,239L191.7,239h0.1H191.7l0,0.3l-0.7,0.6c-0.3,0.7-0.6,1.5-0.8,2.2
				c-0.2,0.8-0.5,1.5-0.8,2.2h-0.1v0.1h-0.1v0.1l-1,0l-0.1,0.1l-0.2,0.1l-0.3,0.2h-0.1l-0.1-0.2c-0.2,0-0.5,0-0.7,0.1
				s-0.4,0.2-0.6,0.3l0.1-0.1l0.1-0.1l0.8-0.6c0.2-0.8,0.4-1.6,0.7-2.4s0.6-1.6,0.9-2.4l0-0.5l0-0.5l0.2-0.1c0.1,0,0.2,0,0.3,0
				c0.1,0,0.2,0.1,0.2,0.1v0.1l0.9,0.4l0.5-0.1H191.7z M191.8,239.6L191.8,239.6c0.6,0.1,1.2,0.3,1.9,0.4c0.6,0.2,1.2,0.2,1.9,0.2
				l0.4-0.2l0.1-0.3h0l0.2,0.3c-0.1,0.2-0.2,0.4-0.2,0.6c0,0.2-0.1,0.5-0.1,0.7c0.1,0.4,0.2,0.7,0.3,1.1c0.1,0.4,0.1,0.8,0.1,1.2
				l-0.1,0.3l-0.5,0.4l-0.2,0.1c-0.3,0.3-0.5,0.7-0.7,1.1c-0.2,0.4-0.4,0.8-0.6,1.1l-0.5,0.4l-0.5,0.5c-0.6,0.1-1.2,0.3-1.8,0.5
				c-0.6,0.2-1.1,0.4-1.7,0.6l-0.6,0c0.2-0.2,0.5-0.4,0.8-0.5s0.6-0.2,0.9-0.4l0.1-0.1l0-0.1c0.3-0.2,0.6-0.4,0.9-0.5
				c0.3-0.1,0.6-0.3,0.9-0.5l0.3-0.4c0.1-0.2,0.1-0.3,0.1-0.5s0-0.4,0.1-0.5l0.6-0.4c0.4-0.3,0.6-0.7,0.7-1.2s0.1-1,0.1-1.5
				l-0.4-0.4c-0.3,0-0.6-0.1-0.8-0.2s-0.5-0.1-0.8-0.1l-0.2,0l-0.3-0.1v-0.1l-0.6-0.4l0-0.1l-0.3-0.1l-0.1,0v-0.1h-0.1l0-0.4
				l0.6-0.5L191.8,239.6L191.8,239.6z M190.7,242.6L190.7,242.6L190.7,242.6c0.4,0.3,0.8,0.6,1.2,0.7c0.4,0.2,0.9,0.2,1.4,0.2l0,0.1
				l0.4,0.4v0.1h0.1l0,0.1l0.3,0.2c-0.1,0.1-0.2,0.1-0.3,0.2c-0.1,0.1-0.2,0.1-0.3,0.1l-0.2,0.1l-0.1,0.1c-0.1,0.2-0.2,0.4-0.4,0.6
				c-0.1,0.2-0.1,0.4-0.1,0.7l-0.2-0.2v-0.1l-0.1-0.1l-0.2-0.2h-0.1v-0.1l-0.7-0.7c-0.1-0.3-0.2-0.6-0.3-0.8
				c-0.1-0.2-0.3-0.5-0.4-0.8l-0.2-0.2v-0.3L190.7,242.6L190.7,242.6L190.7,242.6z M191.3,240.3L191.3,240.3l-0.4,0.1
				c-0.1-0.1-0.1-0.1-0.1-0.2s0-0.2,0-0.2l0.2-0.2l0.1,0l0.2-0.2l0.4-0.1l0.2,0.1l0.1,0.6l-0.4,0.4L191.3,240.3z M193.4,246.2
				l-0.2,0c-0.1-0.1-0.2-0.1-0.2-0.2c-0.1,0-0.2-0.1-0.3-0.1l0-0.5l0.4-1c0.2-0.1,0.3-0.1,0.5-0.1s0.3,0,0.5,0l0.2,0.2v0.2
				L193.4,246.2z"/>
			<path class="st1" d="M197.4,242.6L197.4,242.6c0.1,0.1,0.2,0.2,0.4,0.3c0.2,0.1,0.3,0.1,0.5,0.1h1.7l0.2,0l0.5-0.2l0.2-0.2h0.1
				c0.2,0.1,0.5,0.2,0.8,0.2c0.3,0,0.5,0,0.8,0l0.3-0.1l0-0.1c0.2,0,0.4-0.1,0.5-0.1c0.2-0.1,0.3-0.1,0.5-0.2l0.4,0.2v0.2h0.2
				c0.1-0.1,0.2-0.1,0.3-0.1c0.1,0,0.2,0,0.3,0l0.4,0.1l0.5-0.2v-0.2l0,0.1l0.1,0.3l0.1,0.2l0,0.1l-0.1,0l-0.1,0.1h-0.1v0.1
				l-0.2,0.3l0.3,0.2l0,0.2h0.2h-0.7v0.4l-0.2,0c-0.1-0.1-0.3-0.1-0.4-0.2c-0.2-0.1-0.3-0.1-0.5-0.1l-0.3,0.1
				c-0.1-0.1-0.2-0.1-0.3-0.2c-0.1-0.1-0.2-0.1-0.4-0.1l-0.2,0.1c-0.1,0.1-0.2,0.1-0.4,0.1c-0.1,0-0.3,0-0.4,0l-1.4-0.1
				c-0.2,0.1-0.4,0.1-0.6,0.2c-0.2,0.1-0.4,0.1-0.7,0.1l-0.7,0l-0.4,0.2l-0.4,0.4l-0.2,0l0,0.1l-0.3-0.2l-0.2-0.3l-0.1-0.4
				c-0.1,0-0.1-0.1-0.1-0.1c0-0.1,0-0.1,0-0.2l0-0.3l0-0.2l-0.1-0.3l0.1-0.3H197c0-0.1-0.1-0.1-0.1-0.2c-0.1,0-0.1-0.1-0.2-0.1h0.1
				l0.7,0.2v0.3v0l0.1-0.1L197.4,242.6z"/>
			<path class="st1" d="M212.7,242.7L212.7,242.7L212.7,242.7l-0.2,0.2h-0.1v0.1l0.2,0.2c0,0.2,0,0.5,0,0.7c0,0.2-0.1,0.5-0.1,0.7
				l-0.1,0.2l-0.8,0l-0.5,0.1h-0.3l-0.3-0.5l-0.1,0l-0.2-0.3c0-0.3,0-0.6,0-0.8c0.1-0.3,0.2-0.5,0.4-0.7c0.2,0,0.4,0,0.6-0.1
				c0.2,0,0.4-0.1,0.5-0.2c0.1,0,0.2,0,0.4,0.1c0.1,0.1,0.2,0.1,0.3,0.2l0.1,0.6h0.1L212.7,242.7z"/>
		</g>
		<g class="st0">
			<path class="st1" d="M221.4,239.2c0,0.1,0,0.2,0,0.3h-0.1l-0.3,0.3l-0.1,0.1c-0.2,0.1-0.4,0.2-0.5,0.3c-0.2,0.1-0.3,0.2-0.5,0.3
				c-0.1,0-0.1,0-0.2,0s-0.1-0.1-0.1-0.2c-0.2,0-0.3,0-0.4,0c-0.1,0-0.2,0.1-0.3,0.2c0,0.2,0,0.4,0.1,0.6s0.2,0.3,0.3,0.5l0.5,0.7
				c0.2,0,0.3,0,0.5,0.1c0.1,0.1,0.3,0.2,0.4,0.3c0.1,0,0.3,0,0.4,0s0.2-0.1,0.3-0.2l0.1,0.2c0,0.2,0,0.3-0.1,0.4
				c-0.1,0.1-0.2,0.3-0.2,0.4l-0.3,0.2l-0.4-0.2l-0.2-0.2h-0.2l-0.2,0.2l-0.6-0.1v0l-0.1,0.3l0,0.2v0.4l-0.6,0.7l0,0.2l0.3,0.2l0,0
				v-0.2l0,0l-0.1,0.2c0,0.1,0,0.2,0,0.3c0,0.1,0,0.2,0.1,0.3c0.1,0.1,0.2,0.2,0.4,0.3c0.1,0,0.3,0.1,0.4,0.1l0.5-0.1
				c0.2,0,0.4,0,0.6,0.1c0.2,0.1,0.3,0.1,0.5,0.2l0.4,0l0.1-0.2c0,0.1,0,0.3,0,0.4c0,0.1,0,0.2-0.1,0.4l0.1,0.6v0.2l-0.6,0.3
				c-0.6-0.1-1.1-0.1-1.7-0.1c-0.6,0-1.1-0.1-1.6-0.3c-0.2,0-0.4,0-0.6,0.1c-0.2,0.1-0.3,0.2-0.5,0.3l-0.2-0.1
				c0.2-0.4,0.4-0.9,0.6-1.4c0.2-0.5,0.3-1,0.4-1.5v-1.6c0.1-0.2,0.2-0.5,0.2-0.7c0-0.3,0-0.5,0-0.8c0-0.5-0.1-0.9-0.2-1.4
				s-0.2-0.9-0.2-1.4V239c0.1,0.1,0.3,0.2,0.5,0.2c0.2,0,0.4,0,0.5,0c0.2,0,0.5,0,0.7,0c0.2,0,0.4-0.1,0.6-0.2l0.9,0l0.8,0v-0.1
				l0.1,0C221.4,239,221.4,239.1,221.4,239.2z"/>
		</g>
		<g class="st0">
			<path class="st1" d="M227.2,239.3c0,0.2,0,0.5,0,0.7l0.5,0.5c0.1,0,0.2,0,0.4-0.1c0.1-0.1,0.2-0.1,0.3-0.2h0.2c0,0.2,0,0.5,0,0.7
				c0.1,0.2,0.1,0.4,0.2,0.6v0.3c-0.2,0-0.4,0-0.6,0c-0.2,0-0.4-0.1-0.5-0.1l-0.7,0l0.1,0.2l0.3,0.6c0.3,0.6,0.5,1.1,0.6,1.7
				c0.2,0.6,0.3,1.2,0.6,1.8l-0.2-0.1l-0.1-0.1l0-0.2l-1.2-1h0c0,0.1,0,0.1,0,0.2c0,0.1,0.1,0.1,0.2,0.1c0.1,0.1,0.1,0.3,0.2,0.4
				c0,0.2,0,0.3,0,0.5h0.1l0.4,0.9c0,0.3,0,0.5-0.1,0.7c-0.1,0.2-0.1,0.5-0.1,0.7l-0.3-0.2c-0.2,0-0.4,0-0.6,0s-0.4,0-0.5,0.1h-0.2
				c0.1-0.3,0.1-0.6,0.2-0.9c0.1-0.3,0.1-0.6,0.1-0.9l0-1.6c-0.1,0.2-0.1,0.4-0.2,0.6c-0.1,0.2-0.2,0.4-0.3,0.6
				c-0.1,0.2-0.3,0.4-0.4,0.5c-0.2,0.2-0.3,0.3-0.6,0.4c0.2-0.6,0.3-1.3,0.4-1.9c0.1-0.6,0.2-1.3,0.3-1.9v-1.1l-0.8,0.4h0
				c0-0.3,0-0.7-0.1-1s-0.2-0.6-0.4-0.9l0.1,0.1l0.4,0.2h1.5l-0.5-1.5v-0.2l0.5,0.2c0.2,0,0.3,0,0.4,0c0.1-0.1,0.2-0.1,0.3-0.2
				C227.1,238.9,227.2,239.1,227.2,239.3z M232.6,239v0.2l-0.2-0.2v0.3l-0.3,0.3c0,0.1,0,0.2,0,0.3c0,0.1,0,0.2,0.1,0.3
				c0.3,0,0.6,0,0.8,0c0.2-0.1,0.5-0.1,0.7-0.3h0l0,1.4l-0.7-0.1c-0.2,0-0.3,0-0.5,0c-0.1,0-0.3,0.1-0.4,0.1l0.2,0.6l0.3,0.3
				c0.2,0,0.3-0.1,0.5-0.1c0.1,0,0.3-0.1,0.4-0.2h0.1l0,1.4c0,0.3,0,0.6,0,0.9c0.1,0.3,0.1,0.6,0.2,0.8v0.4c-0.3,0-0.5-0.1-0.7-0.2
				s-0.4-0.2-0.7-0.3h-0.1c0.2,0.3,0.4,0.7,0.5,1.1c0.1,0.4,0.3,0.7,0.3,1.1c0.1,0.2,0.2,0.4,0.3,0.5c0.1,0.2,0.3,0.3,0.5,0.4
				l-0.9-0.6v-0.1l-0.2-0.1v-0.1l-0.2-0.1c-0.1-0.1-0.2-0.3-0.3-0.4c-0.1-0.1-0.2-0.3-0.2-0.4v0l0.1,0.6c0,0.2,0,0.4-0.1,0.6
				c-0.1,0.2-0.1,0.4-0.2,0.6c-0.1,0-0.3,0-0.4,0c-0.1,0-0.2,0.1-0.4,0.2l-0.1-1.9l-0.6,0.4l-0.4,0.2l-0.2,0.3l-0.2,0.1l-1.7,0.7
				l0.5-0.4l0.1-0.1h0.1l1-1l0.1-0.1h0.1c0.1-0.1,0.1-0.2,0.3-0.3c0.1-0.1,0.2-0.2,0.3-0.3l0.1-0.1l0.2-0.1l0-0.8l-0.3-0.1
				c-0.2,0-0.4,0-0.5,0.1c-0.2,0.1-0.3,0.2-0.5,0.3h0l0.1-0.2c0-0.4-0.1-0.7-0.1-1.1c-0.1-0.4-0.1-0.7-0.2-1.1v-0.5
				c0.3-0.1,0.5-0.1,0.8-0.1c0.3,0,0.6,0,0.9,0l0-1c-0.3,0-0.5,0-0.7,0.1c-0.2,0.1-0.4,0.1-0.7,0.2h0c0-0.3,0-0.5-0.1-0.8
				c0-0.3-0.1-0.5-0.2-0.7v-0.2c0.3,0.1,0.7,0.2,1,0.2c0.3,0,0.7,0.1,1,0.3l-0.4-1.2V239l0.1,0c0.3,0,0.6,0,0.8-0.1
				c0.3-0.1,0.5-0.1,0.8-0.2h0.1L232.6,239z M230.7,244v0.1l-0.3-0.2l-0.3,0v0.1l-0.2,0.1l0.1,0.3l0.2,0.2l0.2-0.1L230.7,244z
				 M230.6,243.1l-0.1-0.3l-0.1-0.1l-0.3,0.1c0,0.1,0,0.2,0,0.3c0,0.1,0.1,0.2,0.2,0.3h0.2l0-0.1L230.6,243.1z M232.9,243.2l0-0.3
				l-0.2-0.1c-0.1,0-0.2,0-0.2,0c-0.1,0-0.1,0.1-0.2,0.2c0,0.1,0,0.2,0,0.2c0,0.1,0,0.1,0.1,0.2l0.1,0.1l0.4-0.2L232.9,243.2z
				 M232.7,244.8v0.1l0.3-0.4v-0.1l-0.4-0.3l-0.2,0l-0.1,0.2l0.1,0.5l0.2,0.1l0.1,0.2V244.8z"/>
			<path class="st1" d="M242,239.3l0.5-0.3v0c0.1-0.1,0.3-0.1,0.5-0.1c0.2,0,0.3-0.1,0.5-0.2v-0.1l0.2-0.1l0.1,0h0.1
				c0,0.3,0,0.6,0,0.9c0.1,0.3,0.1,0.6,0.2,0.8c0,1.3-0.2,2.6-0.7,3.8c-0.4,1.2-0.7,2.5-0.8,3.8l-0.2,0.2l0,0.2h-0.1l-0.2,0.3
				c-0.1,0-0.2,0-0.3,0c-0.1,0-0.2,0-0.3-0.1l-0.1-0.7c-0.2,0.1-0.4,0.1-0.5,0.2c-0.2,0.1-0.3,0.1-0.5,0.1l-1.6-0.1l-0.6,0l-0.7-0.1
				c-0.1,0-0.2,0-0.3,0s-0.2,0-0.3,0.1l-0.2,0.1h-0.1l-0.3,0.3l-0.4-0.1l-0.1-0.3l-0.2,0.1h-0.2l-0.1-0.1c-0.2-0.3-0.3-0.7-0.3-1
				c0-0.4-0.1-0.7-0.3-1l-0.2-0.2l0-0.1v-0.4c0.7,0.3,1.3,0.5,2,0.6c0.7,0.1,1.4,0.3,2.1,0.3c0.3,0,0.6,0,0.9,0
				c0.3-0.1,0.6-0.1,0.9-0.2c0.2-0.2,0.4-0.5,0.5-0.7c0.1-0.3,0.2-0.6,0.3-0.8l-0.1-0.8c0-0.3,0-0.6,0.2-0.9
				c0.2-0.3,0.3-0.6,0.5-0.8h0.1c0.1-0.2,0.2-0.4,0.3-0.6s0.1-0.4,0.2-0.6v-0.2c-0.1,0-0.3,0-0.4,0c-0.1,0-0.2,0.1-0.4,0.2v0.1
				c-0.3,0.2-0.6,0.3-0.9,0.5c-0.3,0.1-0.6,0.3-0.9,0.5c-0.1,0-0.2,0-0.3,0c-0.1,0-0.2,0-0.2-0.1c-0.2,0-0.3,0-0.4,0
				c-0.1,0.1-0.2,0.1-0.3,0.2l-0.4,0.7l-0.4,0.2c-0.1,0-0.2,0-0.4,0c-0.1,0-0.2,0-0.3-0.1c0-0.1,0-0.3-0.1-0.4
				c-0.1-0.1-0.1-0.2-0.2-0.3l-0.5-0.6c-0.2,0-0.3,0.1-0.3,0.3c-0.1,0.2-0.2,0.3-0.3,0.4l-0.2-0.1c-0.1-0.5-0.2-1-0.4-1.6
				c-0.2-0.5-0.4-1-0.7-1.5v-0.1c0.4,0.2,0.9,0.4,1.3,0.6c0.4,0.2,0.9,0.3,1.4,0.5c0.5-0.1,1-0.2,1.6-0.4c0.5-0.2,1-0.3,1.6-0.3h1.6
				L242,239.3L242,239.3z"/>
			<path class="st1" d="M250.3,243L250.3,243c0,0.1,0.2,0.3,0.3,0.5s0.3,0.3,0.3,0.6c0,0.1,0,0.2,0,0.3c0,0.1-0.1,0.1-0.2,0.2
				c-0.5-0.2-1-0.3-1.4-0.4c-0.5-0.1-1-0.2-1.6-0.2l-0.3-0.2h-0.1c0-0.2,0-0.4,0-0.6c0-0.2-0.1-0.4-0.3-0.5h-0.1v-0.1l-0.6-0.2v-0.1
				h-0.1v0l0.7,0c0.3,0,0.6,0,0.9,0c0.3,0,0.6-0.1,0.8-0.2l0.5,0l0.1,0.1l0.3,0.1l0,0.1c0.1,0.1,0.3,0.1,0.4,0.2
				c0.1,0.1,0.3,0.1,0.4,0.2L250.3,243z M251.3,239.6l-0.5-0.1L251.3,239.6c0.1,0.1,0.2,0.3,0.3,0.6c0.1,0.2,0.2,0.4,0.4,0.6
				l-0.1,0.9c-0.4,0-0.8-0.1-1.1-0.1c-0.4,0-0.7-0.1-1-0.3v-0.1l-0.1,0c-0.1-0.1-0.2-0.3-0.2-0.4c0-0.2-0.1-0.3-0.2-0.4l-1-0.5v-0.1
				c-0.2-0.1-0.5-0.1-0.6-0.3c-0.2-0.1-0.4-0.2-0.6-0.4V239l-0.6-0.2c0.9-0.1,1.7,0,2.5,0.3c0.8,0.2,1.6,0.4,2.4,0.4H251.3z
				 M248.7,245.6c0.3,0,0.5,0,0.7,0.1s0.4,0.1,0.6,0.2l0.3,0.1l0.1,0.1l0.5,0.2l0.3,0.4c-0.2,0.2-0.3,0.5-0.3,0.8
				c0,0.3,0,0.6-0.2,0.9l-0.6,0L250,248c-0.2-0.1-0.4-0.1-0.5-0.1c-0.2,0-0.4,0-0.5-0.1l-0.8-1c-0.2-0.1-0.4-0.3-0.7-0.4
				c-0.2-0.1-0.5-0.2-0.7-0.3V246l-0.3-0.2v0c0.3-0.1,0.7-0.1,1.1-0.1C248,245.8,248.3,245.7,248.7,245.6z"/>
			<path class="st1" d="M259.8,241.4L259.8,241.4l0.1,0.2c0,0.2,0,0.3,0,0.5c0,0.2,0.1,0.3,0.1,0.4c0,0.1,0,0.2,0,0.3
				c0,0.1,0,0.2,0,0.2c0,0.1,0,0.2,0,0.3s0,0.2,0,0.3c0,0.3,0,0.6-0.1,0.9s-0.2,0.6-0.3,0.8l-0.1,0l-0.2,0.3l-0.1,0
				c-0.1,0.1-0.1,0.3-0.2,0.4c0,0.1-0.1,0.3-0.1,0.4c0.3,0.2,0.6,0.3,0.9,0.3c0.3,0,0.7,0.1,1,0.1v0l-0.1,0.1h0l-0.2,0.3l-0.1,0.2h0
				l-0.1,0.2h0v0.1l-0.5,0.1c-0.4-0.1-0.9-0.2-1.3-0.3c-0.5,0-0.9-0.1-1.4-0.1l-0.5,0.1v0.1l-0.3,0h-1.1l0,0l-0.1-0.1l-0.2-0.1
				c-0.1-0.1-0.1-0.2-0.1-0.3c0-0.1-0.1-0.2-0.1-0.3l-0.2-0.2l0-0.1l0,0l0,0h0.1h0.1c0.3,0.2,0.7,0.3,1,0.4c0.3,0.1,0.7,0.1,1.1,0.1
				c0.2,0,0.3,0,0.5,0s0.3-0.1,0.4-0.2l0.1-0.1c0.1-0.1,0.2-0.1,0.3-0.1c0.1,0,0.2,0,0.3,0l0,0.1h0.1c0.1,0,0.1,0,0.2-0.1l0.1,0
				c0.1-0.1,0.1-0.1,0.2-0.1c0,0,0.1,0,0.1,0l0.2,0.1c0,0,0-0.1,0-0.1c-0.1,0-0.2,0-0.2,0c-0.1,0-0.1,0-0.1,0.1c-0.1,0-0.1,0-0.2,0
				c0,0-0.1,0-0.1,0.1l-0.1,0c0,0-0.1,0-0.1,0l0.1-0.2h0l0.5-1.5l0.2-0.5l-0.1-1c0-0.1,0-0.2,0-0.3s0-0.2,0-0.3v-0.1l-0.3-0.1
				c-0.1,0-0.2,0-0.3,0.1c-0.1,0.1-0.2,0.1-0.3,0.2l-0.2,0c-0.3,0-0.5,0-0.8,0c-0.3,0-0.5,0.1-0.8,0.2h0l0-0.5l0,0l-0.2-0.7l-0.1,0
				h0.1v0l0.6,0.1c0.2,0,0.4-0.1,0.5-0.2c0.2-0.1,0.4-0.2,0.6-0.3h1.7L259.8,241.4L259.8,241.4z M254.5,246.7L254.5,246.7
				L254.5,246.7L254.5,246.7z M258.1,247L258.1,247l0.1-0.2l0.2-0.2l0.1-0.1l0.2-0.2h0.1c0.1,0.1,0.2,0.2,0.2,0.3
				c0.1,0.1,0.1,0.2,0.2,0.4l-0.6,0L258.1,247z"/>
			<path class="st1" d="M262,244.1L262,244.1L262,244.1L262,244.1z M262.3,244.3L262.3,244.3l0.2,0l0.1,0v0l0.1-0.1
				c0.7,0.1,1.4,0.2,2,0.4s1.3,0.5,2.1,0.8c0.2-0.1,0.5-0.1,0.7-0.2c0.2-0.1,0.5-0.1,0.7-0.1l1.7,0.1l1-0.9c0.1,0,0.2-0.1,0.3-0.1
				c0.1-0.1,0.2-0.1,0.4,0c-0.3,0.3-0.5,0.6-0.6,1c-0.1,0.4-0.2,0.7-0.4,1.1l-0.7,0.3l-0.3,0.5l-0.1,0c-0.1-0.1-0.2-0.2-0.4-0.3
				c-0.1-0.1-0.3-0.1-0.4-0.1l-0.2,0.1v0.1h-0.2c-0.2-0.1-0.3-0.1-0.5-0.2c-0.2,0-0.4,0-0.6,0c-0.1,0.1-0.3,0.1-0.4,0.1
				s-0.3,0.1-0.4,0.2c-0.1,0.1-0.2,0.1-0.3,0.2c-0.1,0-0.2,0-0.4,0c-0.1,0.1-0.2,0.2-0.3,0.2s-0.2,0.1-0.3,0.1
				c-0.1-0.1-0.3-0.2-0.5-0.2c-0.2,0-0.3-0.1-0.5-0.2v-0.1l-0.8-0.5l-0.2-0.3v-0.3l0.1-0.3l-0.2-0.1v-0.1l-0.5-0.2
				c-0.1-0.1-0.2-0.2-0.2-0.4c0-0.2,0-0.3-0.1-0.4h-0.1l-0.2-0.2v-0.1l0-0.1L262.3,244.3L262.3,244.3z M262.6,244.3L262.6,244.3
				l-0.2,0l-0.1,0l0.4-0.2h0L262.6,244.3z M266.7,240.3c0.5-0.1,1-0.2,1.5-0.3c0.5-0.1,0.9-0.3,1.3-0.5l-0.4,0.3l0.4-0.2h0.1
				c0,0.2,0,0.4,0,0.6c0,0.2-0.1,0.3-0.2,0.5l-0.3,0.2c-0.1,0.1-0.2,0.2-0.3,0.3c-0.1,0.1-0.2,0.2-0.3,0.3c-0.2,0.2-0.3,0.3-0.5,0.4
				c-0.2,0.1-0.4,0.1-0.6,0.2c-0.1,0-0.3,0-0.4,0c-0.2,0-0.3,0-0.4-0.1c-0.2,0-0.4,0-0.5,0s-0.3,0.1-0.5,0.2
				c-0.4-0.2-0.8-0.3-1.2-0.4c-0.4-0.1-0.8-0.2-1.2-0.3l-0.2-0.2l0-0.3c0-0.2,0-0.3-0.1-0.5c-0.1-0.1-0.2-0.3-0.3-0.4l0,0h0l0,0
				l0.1,0.1h2.1c0.3,0.1,0.5,0.2,0.8,0.2S266.4,240.2,266.7,240.3z"/>
			<path class="st1" d="M281.6,241l-0.1,0.1h0c0,0.3,0,0.6,0,0.8c0,0.3-0.1,0.5-0.3,0.7l-0.2,0.2l-0.3,0.2l-0.3,0.2l-0.1,0.1v-0.2
				c-0.2,0-0.5,0.1-0.7,0.1c-0.2,0.1-0.5,0.2-0.7,0.3l-0.2,0c0,0.2,0,0.5,0,0.8c0,0.3,0,0.5-0.1,0.8l-0.1,0.1l-0.2,0.1v0.1h-0.1
				l-0.1,0.2h-0.1v0.1c-0.2,0.2-0.3,0.4-0.3,0.7c0,0.3-0.1,0.5-0.2,0.7l-0.1,0l-0.5,0.7l-0.1,0l-0.1,0.2h-0.1l-0.3,0.3h0v-0.1
				l0.1-0.1l-0.3-0.4h-0.1l0,0.2H276v0.1l-0.4,0.3c-0.3-0.1-0.6-0.1-0.9-0.2s-0.6,0-0.9,0l0.9-0.2l0.2-0.3h0.1v-0.1l0.2-0.2l0.2-0.2
				l0.5-0.6l0.2-0.2c0.3-0.4,0.5-0.9,0.7-1.3c0.1-0.5,0.3-0.9,0.6-1.3h0l0.1-0.1l0.1-0.1h0l0.4-0.4c0.1,0,0.2,0,0.3,0c0,0,0,0,0,0
				c-0.1,0-0.2,0-0.2,0c-0.1,0-0.1,0.1-0.2,0.1l-0.1,0.1l-0.3,0.2l-1.3,0.5l-0.2,0l-0.1-0.1h-0.1l-0.1-0.1V244l-0.3-0.2
				c-0.1,0-0.2,0-0.3,0s-0.2,0.1-0.2,0.2l-0.4,0.2l-0.2-0.2V244l-0.1-0.1l-0.2-0.2c-0.2-0.1-0.2-0.3-0.2-0.5c0-0.2,0-0.4-0.2-0.5
				l-0.6-0.3c-0.1-0.1-0.1-0.3-0.1-0.4c0-0.1,0-0.3,0-0.4l-0.4-0.2l0,0l-0.1,0l-0.1-0.1v0h0.1l0.1,0.1l0.2,0v-0.2l0.3,0.1l0.1,0.2
				l0.1,0.1l0,0.1c0.2,0.1,0.4,0.2,0.7,0.2c0.2,0,0.5,0.1,0.7,0.1l0.6,0h3.8c0.4-0.1,0.8-0.3,1.3-0.5c0.4-0.2,0.8-0.4,1.2-0.6
				l0.1-0.1H281.6z M274.5,239.2L274.5,239.2c0.4,0,0.8-0.1,1.1-0.1c0.3-0.1,0.7-0.1,1.1-0.1l0.9,0.2l0.1,0V239
				c0.2-0.1,0.4-0.2,0.7-0.3s0.5-0.1,0.8,0l0.5,0l0.1,0l-0.2,0.5h-0.1c-0.1,0.2-0.2,0.3-0.3,0.5c-0.1,0.2-0.1,0.3-0.2,0.5
				c-0.2,0-0.4,0-0.6,0c-0.2,0-0.3,0-0.5,0.1l-0.4,0.4l-0.2,0.2l-0.4-0.6l-0.2,0l-0.1,0l-0.1,0.2c-0.2-0.2-0.5-0.3-0.7-0.4
				c-0.3,0-0.6-0.1-0.8-0.1l-0.2,0.2l-0.4-0.3l-0.1-0.1l-0.2-0.2c-0.1-0.1-0.1-0.2-0.1-0.3c0-0.1,0-0.2,0-0.3h0.4L274.5,239.2
				l0.4,0.2L274.5,239.2z M277.5,244.1L277.5,244.1l-0.2-0.6c0.1-0.1,0.3-0.2,0.5-0.3c0.2-0.1,0.4-0.1,0.6-0.1l0.3,0.4h0.1v0.2
				l-0.1,0.1v0.1h-0.1l0,0.1l-0.1,0l-0.2,0.2L277.5,244.1z M278.5,243.5c-0.1-0.1-0.1-0.1-0.2-0.1s-0.1,0-0.1,0
				C278.3,243.6,278.4,243.6,278.5,243.5L278.5,243.5z M279.8,238.7L279.8,238.7L279.8,238.7L279.8,238.7L279.8,238.7z"/>
			<path class="st1" d="M286.1,242.2c0.2-0.1,0.5-0.3,0.7-0.4c0.2-0.1,0.5-0.3,0.7-0.4l0,0l0.3,0.1l0.3-0.1h0.1c0,0.4-0.1,0.7-0.2,1
				c-0.2,0.3-0.3,0.6-0.5,0.9l-0.3,0.2l-0.2-0.4l-0.3,0.2l0.1,0c0.1,0.2,0.1,0.5,0.1,0.7c0,0.2,0.1,0.5,0.2,0.7c0,0.2,0,0.3-0.1,0.5
				s-0.1,0.3-0.2,0.4l0,0.6c0,0.2,0,0.4,0,0.6c0,0.2-0.1,0.4-0.1,0.6h-0.1l-0.2,0.2c-0.1,0.2-0.1,0.3-0.2,0.5c0,0.2-0.1,0.3-0.1,0.5
				l-0.1,0.1h0l-0.1-0.2l0,0.1l-0.1,0.1h-0.1v-0.2l-0.2,0l-0.1-0.2v-1.5c0-0.1,0-0.2-0.1-0.3s-0.1-0.2-0.1-0.3
				c0-0.2,0.1-0.4,0.2-0.5c0.1-0.2,0.2-0.3,0.3-0.5l-0.2-0.7c0-0.1,0-0.2,0-0.3c0-0.1,0.1-0.2,0.1-0.3h0l0.2-0.2
				c-0.1,0-0.3,0.1-0.3,0.1l-0.1,0l-0.1,0.3c-0.1,0.1-0.1,0.2-0.2,0.3c-0.1,0.1-0.2,0.2-0.3,0.2l-0.2,0.3l-0.6,0.7l-0.1,0.1
				l-0.3-0.1l-0.2,0l0,0.4l-0.1,0.1v0l-0.2,0.1h0l0-1c0-0.1-0.1-0.2-0.2-0.2s-0.1-0.1-0.2-0.1l0.1-0.3c0-0.1,0-0.2,0-0.2
				c0-0.1,0-0.1-0.1-0.2v-0.1h0v-0.1l-0.1-0.1v0c0.3-0.1,0.7-0.2,1-0.2c0.3,0,0.7-0.1,1-0.2l0.2-0.2l0.2-0.1l1-0.6v-0.1L286.1,242.2
				L286.1,242.2z M286.5,243.1L286.5,243.1L286.5,243.1L286.5,243.1z"/>
			<path class="st1" d="M292.8,239.8l-0.1,0l0.1,0.1l0.1,0c0.1,0.2,0.2,0.4,0.4,0.6s0.2,0.4,0.3,0.7c0,0.8-0.1,1.6-0.3,2.3
				c-0.2,0.8-0.5,1.5-0.9,2.2l-0.4,0.5l-0.5,0.3l-0.1,0.1l0.1,0.5l-0.1,0.3c-0.3,0-0.7,0.1-0.9,0.2c-0.3,0.1-0.6,0.2-0.9,0.3
				l0.1-0.2l0.3-0.4l0.1-0.1l0.1,0l0-0.1l0.1,0c0.3-0.6,0.6-1.3,0.9-1.9c0.3-0.6,0.6-1.3,0.8-2c0-0.6-0.1-1.3-0.1-1.9
				c0-0.6-0.2-1.2-0.4-1.8c0.2,0.1,0.5,0.1,0.7,0c0.2,0,0.4,0,0.6,0l0,0l0,0C292.7,239.7,292.7,239.8,292.8,239.8z M295.4,239.3h0.2
				l0,0c0,0.2,0,0.3,0,0.4c0,0.1,0.1,0.2,0.1,0.4v2.9c0.1,0.2,0.1,0.5,0.1,0.7c0,0.2,0.1,0.5,0.2,0.7c0,0.3,0,0.6,0,0.9
				c0,0.3,0,0.6-0.1,0.9l0.1,0V246l0.3-0.3l1.3-0.7l0.4-0.8c0-0.2,0-0.4,0-0.6c0-0.2-0.1-0.4-0.1-0.5v-0.2l0.1,0
				c0.1,0.1,0.2,0.2,0.3,0.2c0.1,0.1,0.2,0.2,0.3,0.3l0.2-0.2v0c0,0.2,0,0.4-0.1,0.5s-0.2,0.3-0.3,0.5l0.2,0.7c0,0.2,0,0.4,0,0.5
				s0,0.3-0.1,0.4l-0.9,0.6v0.1h-0.1l-0.1,0.2l-0.1,0.1c-0.2,0.1-0.4,0.3-0.5,0.4c-0.2,0.1-0.4,0.2-0.6,0.3l-0.8,0
				c-0.1,0-0.2,0-0.3,0.1c-0.1,0.1-0.2,0.1-0.3,0.2l-0.2-0.2l0-0.1c0-0.2,0.1-0.4,0.1-0.6s0.1-0.3,0.1-0.5v-2l0.1-0.9
				c0.1-0.4,0-0.8-0.3-1.2c-0.2-0.4-0.4-0.7-0.4-1.2h-0.1l0.1-1.3l-0.2-0.6v-0.1l0,0l0.3,0c0.1,0,0.2,0,0.4,0c0.1,0,0.2,0.1,0.3,0.2
				L295.4,239.3z M295.8,239.3h-0.2l0.1,0L295.8,239.3z"/>
			<path class="st1" d="M300,242.6L300,242.6c0.1,0.1,0.2,0.2,0.4,0.3c0.2,0.1,0.3,0.1,0.5,0.1h1.7l0.2,0l0.5-0.2l0.2-0.2h0.1
				c0.2,0.1,0.5,0.2,0.8,0.2c0.3,0,0.5,0,0.8,0l0.3-0.1l0-0.1c0.2,0,0.4-0.1,0.5-0.1c0.2-0.1,0.3-0.1,0.5-0.2l0.4,0.2v0.2h0.2
				c0.1-0.1,0.2-0.1,0.3-0.1c0.1,0,0.2,0,0.3,0l0.4,0.1l0.5-0.2v-0.2l0,0.1l0.1,0.3l0.1,0.2l0,0.1l-0.1,0l-0.1,0.1h-0.1v0.1
				l-0.2,0.3l0.3,0.2l0,0.2h0.2H308v0.4l-0.2,0c-0.1-0.1-0.3-0.1-0.4-0.2c-0.2-0.1-0.3-0.1-0.5-0.1l-0.3,0.1
				c-0.1-0.1-0.2-0.1-0.3-0.2c-0.1-0.1-0.2-0.1-0.4-0.1l-0.2,0.1c-0.1,0.1-0.2,0.1-0.4,0.1c-0.1,0-0.3,0-0.4,0l-1.4-0.1
				c-0.2,0.1-0.4,0.1-0.6,0.2c-0.2,0.1-0.4,0.1-0.7,0.1l-0.7,0l-0.4,0.2l-0.4,0.4l-0.2,0l0,0.1l-0.3-0.2l-0.2-0.3L300,244
				c-0.1,0-0.1-0.1-0.1-0.1c0-0.1,0-0.1,0-0.2l0-0.3l0-0.2l-0.1-0.3l0.1-0.3h-0.1c0-0.1-0.1-0.1-0.1-0.2c-0.1,0-0.1-0.1-0.2-0.1h0.1
				l0.7,0.2v0.3v0l0.1-0.1L300,242.6z"/>
			<path class="st1" d="M313.9,239.8L313.9,239.8l0.1,0.3l0.2,0.2c0,0.3-0.1,0.6-0.1,0.9s-0.2,0.5-0.4,0.7h-0.1l-0.6,0.5l-0.1,0.1
				h-0.1c-0.2,0.2-0.3,0.5-0.3,0.8s-0.1,0.6-0.2,0.8c-0.1,0.1-0.3,0.2-0.4,0.3c-0.2,0.1-0.3,0.2-0.5,0.2c-0.1,0.3-0.2,0.5-0.3,0.8
				c-0.1,0.3-0.2,0.5-0.3,0.8l-0.3,0.3c0.2,0,0.4-0.1,0.6-0.1c0.1-0.1,0.2-0.1,0.3-0.2l-0.3,0.1c0.4-0.1,0.8-0.3,1.1-0.5l-0.7,0.3
				c0.2-0.1,0.5-0.2,0.6-0.4h1.7c0.2,0.1,0.4,0.1,0.6,0.2c0.2,0,0.5,0,0.7,0c0.3-0.1,0.5-0.2,0.8-0.2c0.3-0.1,0.5-0.2,0.7-0.3
				l0.1-0.2c-0.3,0-0.5,0-0.7-0.1c-0.2-0.1-0.4-0.2-0.6-0.4c-0.2-0.2-0.2-0.3-0.2-0.6c0-0.2,0-0.4,0-0.6l0-0.3
				c0.2,0.2,0.4,0.4,0.6,0.5c0.2,0.2,0.5,0.3,0.8,0.4l0.2,0v0.1l0.4,0.2v0.1l0.2,0.1l0.7,1.3l0.2,0.2c0.1,0.2,0.1,0.4,0.3,0.5
				c0.1,0.2,0.2,0.3,0.2,0.6l-0.4,0.4h-0.1v0.1l-0.2,0.2h-0.1l-0.2,0.2l-0.1-0.2l-0.1,0v0.1h-0.1l-0.3,0.3h-0.1l-0.2-0.5l-0.2-0.3
				v-0.1c-0.4-0.1-0.9-0.1-1.3-0.3s-0.9-0.2-1.4-0.2c-0.2,0.1-0.5,0.1-0.7,0.1c-0.2,0-0.5,0.1-0.7,0.1c-0.2-0.1-0.3-0.1-0.5-0.1
				s-0.3,0-0.5,0l-0.2,0.1v0.1l-0.6,0c-0.2-0.1-0.4-0.2-0.5-0.2c-0.2,0-0.3,0-0.5,0l0.3-0.1l0.3-0.3c-0.3,0.1-0.6,0.2-0.8,0.4
				c0.1,0,0.1,0,0.2,0l-0.5,0.2h-0.2l0.1,0v-0.1h0.1l0.5-0.5c0.2-0.3,0.3-0.6,0.4-1c0.1-0.3,0.3-0.6,0.5-1h0.1l0-0.2h0.1
				c0.1-0.2,0.1-0.3,0.1-0.5c0-0.2,0.1-0.3,0.1-0.5v-2.1l0.2-1.3l-0.1-0.7c0-0.1,0-0.2,0-0.3s0-0.2,0.1-0.3c0.4,0.1,0.9,0.2,1.2,0.4
				c0.4,0.2,0.7,0.4,1.1,0.5h0l0,0L313.9,239.8z M311.7,246.3c0,0-0.1,0-0.1,0.1L311.7,246.3z M315.4,243.2L315.4,243.2
				c0,0-0.1,0-0.1-0.1v-0.1h0L315.4,243.2z"/>
		</g>
		<rect class="st2" width="376.2" height="249"/>
	</g>
</g>
</svg>
