<?xml version="1.0"?>
<svg xmlns:rdf="http://www.w3.org/1999/02/22-rdf-syntax-ns#" xmlns="http://www.w3.org/2000/svg" xmlns:cc="http://creativecommons.org/ns#" xmlns:xlink="http://www.w3.org/1999/xlink" xmlns:dc="http://purl.org/dc/elements/1.1/" xmlns:svg="http://www.w3.org/2000/svg" id="svg2" viewBox="0 0 191.4 505.41" version="1.1">
  <defs id="defs4">
    <linearGradient id="linearGradient4027">
      <stop id="stop4029" offset="0"/>
      <stop id="stop4031" stop-color="#1a1a1a" stop-opacity="0" offset="1"/>
    </linearGradient>
    <linearGradient id="linearGradient3810">
      <stop id="stop3812" stop-color="#1a1a1a" offset="0"/>
      <stop id="stop3814" stop-color="#808080" offset="1"/>
    </linearGradient>
    <linearGradient id="linearGradient3794">
      <stop id="stop3796" stop-color="#808080" offset="0"/>
      <stop id="stop3798" stop-color="#333" offset="1"/>
    </linearGradient>
    <linearGradient id="linearGradient3800" x1="489.69" xlink:href="#linearGradient3794" gradientUnits="userSpaceOnUse" x2="482.51" y1="320.14" y2="189.56"/>
    <linearGradient id="linearGradient3808" x1="430" xlink:href="#linearGradient3794" gradientUnits="userSpaceOnUse" x2="441.42" y1="207.5" y2="209.69"/>
    <linearGradient id="linearGradient3816" x1="545.18" xlink:href="#linearGradient3810" gradientUnits="userSpaceOnUse" x2="546.91" y1="489.81" y2="502.58"/>
    <linearGradient id="linearGradient3824" x1="535.09" xlink:href="#linearGradient3810" gradientUnits="userSpaceOnUse" x2="536.21" y1="493.8" y2="500.19"/>
    <linearGradient id="linearGradient3832" y2="507.93" gradientUnits="userSpaceOnUse" y1="495.65" x2="419.83" x1="417.01">
      <stop id="stop3836" stop-color="#1a1a1a" offset="0"/>
      <stop id="stop3838" stop-color="#808080" offset="1"/>
    </linearGradient>
    <linearGradient id="linearGradient3846" y2="220.14" gradientUnits="userSpaceOnUse" y1="170.65" x2="544.83" x1="517.39">
      <stop id="stop3842" stop-color="#333" offset="0"/>
      <stop id="stop3844" stop-color="#808080" offset="1"/>
    </linearGradient>
    <linearGradient id="linearGradient3885" y2="414.96" gradientUnits="userSpaceOnUse" y1="411.77" x2="453.15" x1="432.39">
      <stop id="stop3881" stop-color="#1a1a1a" offset="0"/>
      <stop id="stop3883" stop-color="#4d4d4d" offset="1"/>
    </linearGradient>
    <linearGradient id="linearGradient3893" y2="338.16" gradientUnits="userSpaceOnUse" y1="343.24" x2="532.88" x1="476.43">
      <stop id="stop3889" stop-color="#808080" stop-opacity=".7457" offset="0"/>
      <stop id="stop3891" stop-color="#808080" stop-opacity="0" offset="1"/>
    </linearGradient>
    <linearGradient id="linearGradient3939" y2="480.38" gradientUnits="userSpaceOnUse" y1="251.25" x2="504.66" x1="483.2">
      <stop id="stop3943" stop-color="#4d4d4d" offset="0"/>
      <stop id="stop3945" stop-color="#808080" stop-opacity="0" offset="1"/>
    </linearGradient>
    <filter id="filter3967" color-interpolation-filters="sRGB">
      <feGaussianBlur id="feGaussianBlur3969" stdDeviation="0.3725"/>
    </filter>
    <linearGradient id="linearGradient4033" x1="462.48" xlink:href="#linearGradient4027" gradientUnits="userSpaceOnUse" x2="462.48" y1="506.77" y2="542.36"/>
    <linearGradient id="linearGradient4041" x1="525.35" xlink:href="#linearGradient4027" gradientUnits="userSpaceOnUse" x2="531.81" y1="504.94" y2="552.09"/>
    <linearGradient id="linearGradient4049" y2="275.3" gradientUnits="userSpaceOnUse" y1="266.5" x2="425.41" x1="425.76">
      <stop id="stop4071" offset="0"/>
      <stop id="stop4073" stop-color="#4d4d4d" offset=".81449"/>
      <stop id="stop4075" offset="1"/>
    </linearGradient>
    <linearGradient id="linearGradient4065" y2="266.21" gradientUnits="userSpaceOnUse" y1="257.95" x2="539.11" x1="538.99">
      <stop id="stop4079" offset="0"/>
      <stop id="stop4081" stop-color="#4d4d4d" offset=".84305"/>
      <stop id="stop4083" offset="1"/>
    </linearGradient>
    <linearGradient id="linearGradient4122" y2="333.58" gradientUnits="userSpaceOnUse" y1="310.7" x2="512.25" x1="514.85">
      <stop id="stop4118" offset="0"/>
      <stop id="stop4146" stop-color="#2e2e2e" offset=".38718"/>
      <stop id="stop4150" stop-color="#2f2f2f" offset=".46996"/>
      <stop id="stop4148" offset=".79989"/>
      <stop id="stop4120" stop-color="#2b2b2b" offset="1"/>
    </linearGradient>
    <filter id="filter4304" width="1.9502" y="-.81399" x="-.4751" height="2.628" color-interpolation-filters="sRGB">
      <feGaussianBlur id="feGaussianBlur4306" stdDeviation="1.0655688"/>
    </filter>
    <filter id="filter4373" width="1.6083" y="-1.0936" x="-.30415" height="3.1871" color-interpolation-filters="sRGB">
      <feGaussianBlur id="feGaussianBlur4375" stdDeviation="2.2052438"/>
    </filter>
    <linearGradient id="linearGradient4415" y2="299.39" gradientUnits="userSpaceOnUse" y1="310.95" x2="458.76" x1="434.17">
      <stop id="stop4419" stop-color="#5c4e50" offset="0"/>
      <stop id="stop4421" stop-color="#5c4e50" offset=".52542"/>
      <stop id="stop4423" offset="1"/>
    </linearGradient>
    <linearGradient id="linearGradient4431" y2="306.7" gradientUnits="userSpaceOnUse" y1="306.92" x2="461.59" x1="430.88">
      <stop id="stop4427" stop-color="#353535" offset="0"/>
      <stop id="stop4429" offset="1"/>
    </linearGradient>
    <filter id="filter4445" color-interpolation-filters="sRGB">
      <feGaussianBlur id="feGaussianBlur4447" stdDeviation="0.52543202"/>
    </filter>
    <filter id="filter4451" width="2.0725" y="-.68094" x="-.53626" height="2.3619" color-interpolation-filters="sRGB">
      <feGaussianBlur id="feGaussianBlur4453" stdDeviation="1.3369838"/>
    </filter>
    <filter id="filter4457" width="2.055" y="-.69558" x="-.52752" height="2.3912" color-interpolation-filters="sRGB">
      <feGaussianBlur id="feGaussianBlur4459" stdDeviation="1.1358305"/>
    </filter>
    <linearGradient id="linearGradient4475" y2="260.42" gradientUnits="userSpaceOnUse" y1="312.04" x2="528.9" x1="516.17">
      <stop id="stop4154" stop-color="#232020" offset="0"/>
      <stop id="stop4160" stop-color="#5c4e50" offset=".62645"/>
      <stop id="stop4156" offset="1"/>
    </linearGradient>
    <filter id="filter4536" width="2.872" y="-.078" x="-.936" height="1.156" color-interpolation-filters="sRGB">
      <feGaussianBlur id="feGaussianBlur4538" stdDeviation="0.78067766"/>
    </filter>
    <filter id="filter4554" color-interpolation-filters="sRGB">
      <feGaussianBlur id="feGaussianBlur4556" stdDeviation="0.38108136"/>
    </filter>
    <filter id="filter4577" width="1.0267" y="-.11952" x="-.013339" height="1.239" color-interpolation-filters="sRGB">
      <feGaussianBlur id="feGaussianBlur4579" stdDeviation="0.93375"/>
    </filter>
    <linearGradient id="linearGradient4595" y2="538.49" gradientUnits="userSpaceOnUse" y1="542.93" x2="456.1" x1="456.32">
      <stop id="stop4591" offset="0"/>
      <stop id="stop4593" stop-opacity="0" offset="1"/>
    </linearGradient>
    <filter id="filter4601" color-interpolation-filters="sRGB">
      <feGaussianBlur id="feGaussianBlur4603" stdDeviation="0.36236289"/>
    </filter>
    <filter id="filter4609" width="1.0267" y="-.11935" x="-.013341" height="1.2387" color-interpolation-filters="sRGB">
      <feGaussianBlur id="feGaussianBlur4611" stdDeviation="0.17250373"/>
    </filter>
    <filter id="filter4681" width="1.1533" y="-.276" x="-.076667" height="1.552" color-interpolation-filters="sRGB">
      <feGaussianBlur id="feGaussianBlur4683" stdDeviation="0.54258625"/>
    </filter>
    <filter id="filter4689" color-interpolation-filters="sRGB">
      <feGaussianBlur id="feGaussianBlur4691" stdDeviation="0.45522443"/>
    </filter>
    <filter id="filter4902" color-interpolation-filters="sRGB">
      <feGaussianBlur id="feGaussianBlur4904" stdDeviation="4.8750799"/>
    </filter>
    <filter id="filter4908" width="1.3808" y="-.0061952" x="-.19042" height="1.0124" color-interpolation-filters="sRGB">
      <feGaussianBlur id="feGaussianBlur4910" stdDeviation="0.41152702"/>
    </filter>
    <filter id="filter4912" width="1.2825" y="-.0062662" x="-.14124" height="1.0125" color-interpolation-filters="sRGB">
      <feGaussianBlur id="feGaussianBlur4914" stdDeviation="0.42342765"/>
    </filter>
    <filter id="filter4920" color-interpolation-filters="sRGB">
      <feGaussianBlur id="feGaussianBlur4922" stdDeviation="0.4170226"/>
    </filter>
    <filter id="filter4924" color-interpolation-filters="sRGB">
      <feGaussianBlur id="feGaussianBlur4926" stdDeviation="0.24242985"/>
    </filter>
    <filter id="filter4940" width="1.423" y="-.012722" x="-.21148" height="1.0254" color-interpolation-filters="sRGB">
      <feGaussianBlur id="feGaussianBlur4942" stdDeviation="0.49015625"/>
    </filter>
    <filter id="filter4944" color-interpolation-filters="sRGB">
      <feGaussianBlur id="feGaussianBlur4946" stdDeviation="0.99117188"/>
    </filter>
    <filter id="filter5096" width="2.3571" y="-.64245" x="-.67854" height="2.2849" color-interpolation-filters="sRGB">
      <feGaussianBlur id="feGaussianBlur5098" stdDeviation="1.4758543"/>
    </filter>
    <filter id="filter5124" width="2.6643" y="-.55395" x="-.83215" height="2.1079" color-interpolation-filters="sRGB">
      <feGaussianBlur id="feGaussianBlur5126" stdDeviation="2.6411489"/>
    </filter>
    <filter id="filter5148" width="1.9488" y="-1.0843" x="-.47438" height="3.1686" color-interpolation-filters="sRGB">
      <feGaussianBlur id="feGaussianBlur5150" stdDeviation="1.9894827"/>
    </filter>
    <filter id="filter5172" width="2.0043" y="-.9625" x="-.50217" height="2.925" color-interpolation-filters="sRGB">
      <feGaussianBlur id="feGaussianBlur5174" stdDeviation="1.5137369"/>
    </filter>
    <filter id="filter5200" width="1.87" y="-1.3671" x="-.435" height="3.7343" color-interpolation-filters="sRGB">
      <feGaussianBlur id="feGaussianBlur5202" stdDeviation="1.2542391"/>
    </filter>
    <filter id="filter5260" width="1.8858" y="-1.2946" x="-.44289" height="3.5892" color-interpolation-filters="sRGB">
      <feGaussianBlur id="feGaussianBlur5262" stdDeviation="1.1028654"/>
    </filter>
    <filter id="filter5294" width="1.2814" y="-.038131" x="-.14068" height="1.0763" color-interpolation-filters="sRGB">
      <feGaussianBlur id="feGaussianBlur5296" stdDeviation="0.70387926"/>
    </filter>
    <filter id="filter5306" width="1.2407" y="-.03996" x="-.12037" height="1.0799" color-interpolation-filters="sRGB">
      <feGaussianBlur id="feGaussianBlur5308" stdDeviation="0.82057675"/>
    </filter>
    <filter id="filter5322" width="1.5807" y="-.033457" x="-.29035" height="1.0669" color-interpolation-filters="sRGB">
      <feGaussianBlur id="feGaussianBlur5324" stdDeviation="0.67591806"/>
    </filter>
    <filter id="filter5338" color-interpolation-filters="sRGB">
      <feGaussianBlur id="feGaussianBlur5340" stdDeviation="0.72263635"/>
    </filter>
    <filter id="filter5342" color-interpolation-filters="sRGB">
      <feGaussianBlur id="feGaussianBlur5344" stdDeviation="0.79276695"/>
    </filter>
    <filter id="filter5358" width="1.5807" y="-.033457" x="-.29033" height="1.0669" color-interpolation-filters="sRGB">
      <feGaussianBlur id="feGaussianBlur5360" stdDeviation="0.31043953"/>
    </filter>
    <filter id="filter5378" width="1.34" y="-.036429" x="-.17" height="1.0729" color-interpolation-filters="sRGB">
      <feGaussianBlur id="feGaussianBlur5380" stdDeviation="0.33084275"/>
    </filter>
    <filter id="filter5406" width="1.2904" y="-.020547" x="-.14519" height="1.0411" color-interpolation-filters="sRGB">
      <feGaussianBlur id="feGaussianBlur5408" stdDeviation="1.8108452"/>
    </filter>
    <filter id="filter5418" width="1.259" y="-.020905" x="-.12952" height="1.0418" color-interpolation-filters="sRGB">
      <feGaussianBlur id="feGaussianBlur5420" stdDeviation="1.4651645"/>
    </filter>
    <filter id="filter5426" color-interpolation-filters="sRGB">
      <feGaussianBlur id="feGaussianBlur5428" stdDeviation="2.9735156"/>
    </filter>
    <filter id="filter5430" color-interpolation-filters="sRGB">
      <feGaussianBlur id="feGaussianBlur5432" stdDeviation="1.4625"/>
    </filter>
    <filter id="filter4236" color-interpolation-filters="sRGB">
      <feGaussianBlur id="feGaussianBlur4238" stdDeviation="1.1814966"/>
    </filter>
  </defs>
  <g id="layer6" transform="translate(-389.3 -50.297)">
    <path id="path4741" filter="url(#filter4902)" d="m467 62c-12.96 2.7395-10.586 6.9553-15 10-6.7198 2.9182-8.239 9.1797-12 14 0.0213 2.1047 0.0969 4.2635 0.1875 6.4375-0.61235 1.2916-1.1272 2.4819-1.3125 3.1875-0.72282 2.7533 0.17239 7.7199 1.4375 12.562-0.078 0.96371-0.17391 1.9094-0.3125 2.8125-0.4934 6.5109-2.2342 13.562-2.2812 19.875-1.4638 3.7903-1.9967 7.4713-2 11.062-7.0749 1.743-9.2489 5.6048-12.719 9.0625-0.64661 7.5519-1.0881 14.611-5 30l-8 45-6 41c7.7426 7.2489 16.995 10.538 28 9.1875 0.39051 0.84092 0.75041 1.6865 1.1562 2.5938l-0.16 1.22c-8.1332 35.496-17.621 71.143-20 106l-12 102h0.78125l-0.78125 6.5938h3.1875l-0.19 1.41h0.8125l-0.8125 6.5938h21l-2.7812-2.0938 4.0938-0.90625h2.6875l2 2h21l3-3 0.3125 0.4375c0.0869 0.9294 0.15818 1.8544 0.21875 2.8125 0.009 0.13641 0.0231 0.26932 0.0312 0.40625 0.0698 1.1703 0.11485 2.3612 0.15625 3.5625 0.006 0.16673-0.005 0.3328 0 0.5 0.0801 2.5194 0.12397 5.0843 0.15625 7.6562 0.0123 1.0042 0.0161 1.9989 0.0312 3 0.006 0.3651 0.0248 0.7296 0.0312 1.0938 0.0474 2.6913 0.1221 5.3683 0.28125 7.9375-0.0291 0.0884-0.0641 0.16386-0.0937 0.25-0.62769 0.61433-1.2416 1.5137-1.6875 2.625-0.21085 0.52556-0.35709 1.0489-0.46875 1.5625-2.1474 2.8399-4.5859 3.6046-5.7188 6.875-0.7406 0.2598-2.2639 0.9598-2.625 1.7812-0.61764 1.405-0.64165 2.8704 0.53125 3.6875 0.161 0.11728 0.3404 0.22313 0.5625 0.3125l22.69-0.09c0.34873-0.004 0.65308-0.0425 0.9375-0.0937 1.9909-0.35883 2.525-1.7622 3.4375-2.9062 0.003-0.01 0.34103 0.0865 0-0.0312 0.85107-3.2233 0.987-6.2472 0-8.9688l-2.1875-10s-1.9547-5.2594-2.1875-8c-0.26058-3.0673 0.0774-7.3873 0.5625-11.406h5.0312l3-5h11l1 3h15v-2l-5-1h15.125c-0.0854 6.5225 0.73154 13.464 1.3438 20.312 0.12244 1.3698 0.21437 2.7353 0.3125 4.0938-0.3921 1.8412-0.61503 4.0385 0 8v6c-0.25171 0.6709-0.39973 1.2868-0.46875 1.8438-0.0345 0.27847-0.0369 0.52781-0.0312 0.78125 0.073 3.2948 3.3643 4.5814 5.8438 6.375h22.438c0.35018 0.007 0.69621 0.0126 1 0s0.58234-0.0323 0.84375-0.0625c3.6597-0.42253 3.3693-2.5023 4.5938-3.9375 0.0668-0.25 0.0987-0.47461 0.125-0.6875 0.0178-0.14346 0.0308-0.27819 0.0312-0.40625 0.00012-0.15353-0.008-0.3042-0.0312-0.4375-0.006-0.0357-0.0236-0.0594-0.0312-0.0937-0.036-0.15931-0.0868-0.30486-0.15625-0.4375-0.0218-0.0418-0.0375-0.0856-0.0625-0.125-0.0715-0.11262-0.15407-0.21747-0.25-0.3125-0.01-0.01-0.0212-0.0217-0.0312-0.0312-0.257-0.24334-0.60134-0.43297-1-0.59375-0.1058-0.0423-0.22952-0.0861-0.34375-0.125-0.10337-0.0352-0.23401-0.0607-0.34375-0.0937-0.10968-0.0327-0.22822-0.0624-0.34375-0.0937-1.4129-0.38622-3.2257-0.70318-5.0625-1.5625-2.1375-1-3.5363-2.6263-5.3438-2-0.009-0.0116-0.0224-0.0197-0.0312-0.0312-0.11288-0.14714-0.23095-0.29032-0.34375-0.4375-0.38788-0.50585-0.75417-1.0343-1.1562-1.5312-0.25075-0.31033-0.5178-0.60384-0.78125-0.90625-0.009-0.0108-0.0218-0.0204-0.0312-0.0312-0.0192-0.0219-0.0433-0.0406-0.0625-0.0625-0.24816-0.28108-0.51669-0.57289-0.78125-0.84375-0.28862-0.29615-0.59242-0.59458-0.90625-0.875-0.0106-0.009-0.0206-0.0218-0.0312-0.0312-0.31995-0.28436-0.64763-0.54836-1-0.8125-0.70786-0.53067-1.4681-1.0115-2.3438-1.4375-1.0501-2.6104-1.2824-5.6766-1.0625-9-0.0804-6.3364 0.21548-12.078 0.78125-17.406h9.5938v-1l8.5625-1.7188 20.438 0.71875c-0.29902-2.1882-0.57931-4.412-0.875-6.625l0.88 0.02c-1.5829-11.583-3.1131-23.292-4.6875-35.062-4.72-35.32-9.77-71.19-17.31-105.94l-2-4-5-35c-1.8188-12.939-4.5787-25.874-7.7812-38.812 0.71109-1.9373 1.4453-3.8356 2.1875-5.6562 7.927 0.35638 13.418-0.64024 17.469-2.4375 1.827-0.70462 3.3838-1.6313 4.6562-2.8125 0.90034-0.72141 1.7182-1.4766 2.4688-2.2812-0.0408-0.26208-0.0848-0.51936-0.125-0.78125 0.0387-0.074 0.0877-0.14353 0.125-0.21875-0.0506-0.0155-0.10553-0.016-0.15625-0.0312-6.15-40.28-5.07-78.4-18.84-120.97-1.5224-3.8337-2.7332-7.7584-20-7-4.8183-1.1941-10.384-0.66256-14.531-1.2188-0.16-1.25-0.33-2.5-0.47-3.78l-2-8c-0.60111-2.0815-0.94897-4.585-1.125-7.375-0.0587-0.92998-0.1006-1.8879-0.125-2.875-0.0976-3.9485 0.0582-8.3192 0.25-12.75-1.6138-3.3196-2.648-6.7144-5.8125-9.8125-1.75-7.885-4.76-15.311-16.19-20.188-5.0272-2.2856-8.9431-1.9784-13-2zm-26.75 32.094c0.18322 4.2904 0.35278 8.5581 0.15625 12.469-0.83324-4.1704-1.0944-8.2368-0.15625-12.469zm-2.3438 40.25c0.27607 2.4094 0.90325 4.6533 2.0938 6.6562 0.0817 0.0736 0.14398 0.14635 0.21875 0.21875-1.1362 0.1093-2.165 0.25291-3.125 0.4375-0.00039-0.0737 0-0.14531 0-0.21875-0.00014-2.5191 0.22769-4.9133 0.8125-7.0938zm75.09 61.85c0.0959-0.0519 0.22037-0.011 0.375 0.125 0.65316 1.0279 1.3013 2.0705 1.9375 3.125 1.8397 3.5176 4.2632 8.9779 6.0938 12.719 0.004 0.008-0.004 0.0229 0 0.0312 0.008 0.0222 0.0237 0.0403 0.0312 0.0625 0.19386 0.57369 0.38248 1.1526 0.5625 1.75l-0.125 5.5938c-0.78165-1.2468-1.7254-2.6735-2.7188-4.25-0.25197-4.6996-1.8301-8.9862-6.0625-12.469-0.2016-0.74948-0.39435-1.5005-0.59375-2.25-0.008-0.0318-0.0228-0.062-0.0312-0.0937-0.18985-1.5267-0.0947-2.9514 0.40625-4.1875 0.0316-0.078 0.0771-0.13033 0.125-0.15625zm0.1875 6.9688c2.8071 2.6473 4.2172 5.7393 4.7812 9.0938 0.0831 0.49406 0.13811 0.99548 0.1875 1.5-1.6476-2.6991-3.3206-5.6496-4.4375-8.5-0.0139-0.0513-0.0173-0.105-0.0312-0.15625-0.17507-0.64442-0.32643-1.2931-0.5-1.9375zm-72.375 8.875c0.57388 0.65135 1.1048 1.3401 1.5938 2.0625l-0.71875 4.9375c-0.0269-0.49681-0.0511-0.99684-0.0937-1.5-0.15203-1.7935-0.41192-3.619-0.78125-5.5zm75.77 3.46c0.49351 0.65822 1.0397 1.3495 1.6562 2.0938-0.0256 0.69389-0.0636 1.3891-0.125 2.0938-0.0262 0.30002-0.0622 0.60463-0.0937 0.90625-0.48289-1.6992-0.95956-3.3945-1.4375-5.0938zm2.5312 3.125c0.83987 0.956 1.7686 1.8874 2.7188 2.75 0.005 0.005-0.005 0.0265 0 0.0312l-0.25 10.688c-0.1518-0.19265-0.31849-0.3689-0.46875-0.5625-0.821-2.866-1.6516-5.7278-2.4688-8.5938-0.003-0.01 0.003-0.0216 0-0.0312 0.21876-1.4529 0.38603-2.8749 0.46875-4.2812z"/>
  </g>
  <g id="layer5" transform="translate(-389.3 -50.297)">
    <path id="path3302" fill="#5b4945" d="m454.02 491c1.3873 5.4622 1.6187 11.147 1.7571 16.781 0.14922 6.0735 0.0649 12.155 0.4405 18.219-0.83037 2.5261-2.3111 4.82-4.2721 6.6159-1.4919 1.3662-3.042 2.794-3.7041 4.7055v0.00001c-0.50278 0.17637-0.99061 0.39741-1.4496 0.66799-0.46475 0.27397-0.94788 0.59534-1.165 1.0892-0.32247 0.73357-0.5306 1.5528-0.37133 2.3382v0.00001c0.15371 0.75786 0.75275 1.3732 1.4701 1.6618l22.67-0.08c1.0358-0.0132 2.0978-0.31384 2.8528-1.023 0.61019-0.57317 1.0205-1.3225 1.5425-1.977 0.78141-2.9455 1.039-6.1352 0-9v-0.00001l-2.1976-10-0.00005-0.00014-1.0161-2.987c-0.5146-1.6407-1.0359-3.2995-1.1815-5.0129-0.18435-2.17-0.0797-4.3547 0.0797-6.5267 0.17692-2.4117 0.45537-4.8152 0.78316-7.2111v-0.00001c0.2671-1.9523 0.569-3.8998 0.90116-5.8422 0.10077-0.58926 0.20435-1.178 0.31185-1.7661v-0.00001c0.0294-0.16074 0.0591-0.32142 0.0892-0.48202 0.008-0.0422 0.0159-0.0845 0.0239-0.12671 0.003-0.0149 0.006-0.0302 0.009-0.0452z"/>
    <path id="path3306" fill="#5b4945" d="m522.13 544h22.443c1.7065 0.0328 3.6405-0.076 4.7825-1.3445 0.69715-0.77436 0.95366-1.8628 1.6299-2.6555 0.19401-0.72615 0.28582-1.5529-0.11689-2.1875-0.00001 0-0.00001 0-0.00001-0.00001-0.35272-0.55585-0.99656-0.85044-1.6198-1.0625-1.898-0.64581-3.9285-0.9004-5.7444-1.75-0.97451-0.45592-1.848-1.1003-2.7956-1.6099-0.78138-0.42026-1.7098-0.68062-2.5481-0.39012-2.1012-2.7379-4.3776-5.4902-7.4811-7-1.1369-2.8262-1.2698-5.9603-1.0687-9-0.11474-9.0408 0.57604-18.094 2.1375-27l-16.031-1c-1.6845 10.566 0.2978 21.328 1.0687 32-0.55879 2.6239-0.41157 5.349 0 8v6c-0.40171 1.0707-0.64872 2.2351-0.44371 3.3601 0.15898 0.8725 0.61362 1.6739 1.216 2.3248 1.2816 1.3847 3.0426 2.2093 4.5713 3.3151z"/>
    <path id="path8082" filter="url(#filter4601)" fill="url(#linearGradient4033)" d="m454.02 491c2.2102 8.7018 1.6604 20.409 2.0259 31.125 2.9648-2.3482 6.4627-3.4836 10.164-4.1562l-0.75544 3.2188c-1.4837 3.8021-4.7809 7.6042-8.0694 11.406 3.3483-2.3168 6.656-4.1166 9.8207-4.0938 3.1378 1.7837 4.952 4.3706 5.8718 7.5-1.0473 1.5521 0.50817 3.1042-4.876 4.6562-2.8188 0.26111-5.3552 0.458-8.8592 0.875l2.7814 1.4688h7.2797c2.7899-0.0355 3.3525-1.6926 4.3953-3 0.85801-3.2342 0.98998-6.2703 0-9l-2.1976-10s-1.9648-5.2594-2.1976-8c-0.6237-7.3417 2.1976-22 2.1976-22z"/>
    <path id="path8089" filter="url(#filter4689)" fill="url(#linearGradient4041)" d="m515.72 489c-1.5578 9.7712 0.28366 21.133 1.0687 32-0.3921 1.8412-0.61503 4.0385 0 8v6c-2.0137 5.3672 2.292 6.7925 5.3437 9h12.624c-0.95434-1.5405-1.7581-3.2104-1.8369-5.4062 1.871-1.6258 5.2382-0.96453 7.8485-1.4375-3.4625-0.28265-6.6631-1.4163-10.587-0.1875-1.3917 1.9904-0.54734 2.9324 0.56776 3.75l-9.2512 0.1875 3.3398-3.3125c-1.8448 0.24187-3.6992 1.1447-5.544-0.15625-0.9731-2.0359-0.5893-5.3459 0.46757-9.2812 2.7145-1.3482 5.8209-1.4491 9.5518 0.53125l7.7149 5.0938 1.1021-0.8125c-2.0088-2.6184-3.9608-5.2724-7.4477-6.9688-1.0501-2.6104-1.2886-5.6766-1.0687-9-0.13091-10.315 0.74534-19.06 2.1375-27l-16.031-1zm32.429 47.438c0.7993 1.4591 1.4862 2.9159 1.1021 4.375-3.2246 0.87116-7.2276 0.69937-11.723-0.0937-1.6664 0.75224-1.802 2.0097-1.8035 3.2812l8.8504-0.00005c5.6028 0.10776 5.013-2.3597 6.4124-4 0.65673-2.458-0.69985-3.0243-2.8388-3.5625z"/>
    <path id="path4581" filter="url(#filter4609)" fill="url(#linearGradient4595)" d="m470.62 539.53c-1.668 1.3347-3.127 3.338-6 0.65625l-2.2188 2c-2.1431-0.0856-5.1704 0.39987-6.4688-1.0938-2.454 0.73031-4.6377 1.8353-8.2188 0.875l-2.3738-0.70261c0.0723 0.77942 0.42762 1.4313 1.375 1.8125l22.69-0.08c2.7899-0.0355 3.3322-1.6926 4.375-3 0.003-0.01 0.34103 0.0866 0-0.0312z"/>
    <path id="path4613" opacity=".5" filter="url(#filter4681)" fill-rule="evenodd" d="m467.56 535.52c-1.5709 0.92439-2.4413 2.6507-3.1487 4.3306l-5.1788-1.5918-5.9763 0.62909h-3.46l2.8309-3.46 5.0327 0.62908 2.5163-0.62908 2.5163 1.8873 1.5727-2.5164z"/>
    <path id="path4693" opacity=".45" d="m469.74 537.19c0 1.7811-0.89621 3.225-2.0017 3.225s-2.0017-1.4439-2.0017-3.225 0.89621-3.225 2.0017-3.225 2.0017 1.4439 2.0017 3.225z" transform="matrix(.74926 .66227 -.66227 .74926 473.04 -175.08)" filter="url(#filter5096)" fill="#fff"/>
    <path id="path4699" opacity=".45" d="m458.92 529.53c0 3.2572-1.4787 5.8977-3.3027 5.8977s-3.3027-2.6405-3.3027-5.8977 1.4787-5.8977 3.3027-5.8977 3.3027 2.6405 3.3027 5.8977z" transform="matrix(.64866 .36991 -.31026 .77335 325.34 -47.945)" filter="url(#filter5124)" fill="#fff"/>
    <path id="path4709" opacity=".45" d="m454.83 541.71c0 0.60801-1.5491 1.1009-3.46 1.1009s-3.46-0.49289-3.46-1.1009 1.5491-1.1009 3.46-1.1009 3.46 0.49289 3.46 1.1009z" transform="translate(-1.5727 -.62909)" filter="url(#filter5200)" fill="#fff"/>
    <path id="path4711" opacity=".45" filter="url(#filter5260)" fill="#fff" d="m463.01 541.32c0 0.56458-1.3378 1.0223-2.9882 1.0223-1.6503 0-2.9882-0.45768-2.9882-1.0223 0-0.56459 1.3378-1.0223 2.9882-1.0223 1.6503 0 2.9882 0.45768 2.9882 1.0223z"/>
    <path id="path4725" opacity=".45" filter="url(#filter5172)" fill="#fff" d="m529.38 540.46c0 1.0423-1.6195 1.8872-3.6172 1.8872-1.9978 0-3.6172-0.84495-3.6172-1.8872 0-1.0423 1.6195-1.8873 3.6172-1.8873 1.9978 0 3.6172 0.84495 3.6172 1.8873z"/>
    <path id="path4727" opacity=".45" d="m546.68 543.29c0 1.216-2.2532 2.2018-5.0327 2.2018s-5.0327-0.98578-5.0327-2.2018 2.2532-2.2018 5.0327-2.2018 5.0327 0.98578 5.0327 2.2018z" transform="translate(-2.2018 -2.5163)" filter="url(#filter5148)" fill="#fff"/>
  </g>
  <g id="layer3" transform="translate(-389.3 -50.297)">
    <path id="path4558" filter="url(#filter4577)" d="m402.25 483.86-1.25 10.75h4l-1 8h21l-4-3h8l2 2h21l3-3 2 3h18l3-5h11l1 3h15v-2l-5-1h23l-1 3h18v-3l29 1c-0.62077-4.5427-1.2318-9.1726-1.8438-13.75h-164.91z"/>
    <path id="path3180" fill="url(#linearGradient3832)" d="m406 498 4 3h10l9-2v-7h-23z"/>
    <path id="path3176" fill="url(#linearGradient3824)" d="m540 497h-9l-1-6h10z"/>
    <path id="path3172" fill="url(#linearGradient3816)" d="m553 489v7l-15 3v-11z"/>
    <path id="path3075" fill="#e6e6e6" d="m500 126c0.67769 1.1526 1.9027 1.8888 3.1781 2.2904 1.5915 0.50126 3.2753 0.62757 4.9418 0.7123 3.9764 0.20219 8.0155 0.0395 11.88 0.99725 5.379-0.23625 11.118-0.68738 15.904 1.778 0.00003 0.00001 0.00005 0.00002 0.00007 0.00004 1.0962 0.56462 2.0722 1.3786 2.7567 2.4042 0.57844 0.86679 0.95453 1.8492 1.3391 2.8178 6.4813 20.038 10.012 40.918 12.332 61.85v0.00003c2.2228 20.053 3.563 40.215 6.6676 60.15-3.2333 3.4665-7.6119 5.7539-12.246 6.7523-8.44 1.82-17.24 0.71-25.75-0.75v-8l1-43c-2.5045-8.3114-7.3988-15.639-12-23 5.0508 20.133 11.111 39.997 16.654 60 5.476 19.759 10.491 39.696 13.346 60l0.00001 0.00007 5 35 2 4c10.083 46.502 15.558 93.856 22 141l-29-1v3h-18l0.99999-3 0.00001-0.00003h-23l5 1v2h-15l-1-3h-11l-0.00004 0.00006-2.9999 4.9999-0.00004 0.00006h-18l-2-3-3 3h-21l-2-2h-8l4 3h-21l1-8v-0.00004h-4l12-102v-0.00007c2.45-35.91 11.96-70.91 20-106l12-84c-1.1429 4.1878-2.5421 8.3028-3.6607 12.497 0 0.00002-0.00001 0.00005-0.00001 0.00007-0.91378 3.4264-1.5956 6.9658-1.3393 10.503v0.00004l9 52-0.00006 0.00003c-7.8953 3.6908-16.607 6.2067-25.277 5.3213-7.37-0.75-14.31-4.26-19.72-9.32l6-41 8-45c0.00001-0.00002 0.00001-0.00005 0.00002-0.00007 1.5053-5.9215 2.8369-11.894 3.7245-17.939 0.58743-4.0007 0.93056-8.0324 1.2755-12.061 2.3231-2.3149 4.3495-4.9921 7.1232-6.742 4.35-2.75 9.74-3.26 14.88-3.26z"/>
    <path id="path3386" filter="url(#filter4944)" fill-rule="evenodd" fill="url(#linearGradient3893)" d="m442 226 4.9375 33.125l2.06 11.88c-0.0949 0.0444-0.18656 0.0812-0.28125 0.125l3.28 21.88 3-7 10 2 8 18v43h-6l7 7-12.018 139.47 13.263-0.0223 2.8884-4.9554 10.554 0.0446 1.0446 2.9554 15.67-0.0446 0.0446-2.8482-5.45-0.6h23l-1 3h18v-3l29 1c-6.3316-46.333-11.953-94.667-22-141l-2-4-5-35c-1.9653-13.98-6.4606-30.02-10-44l-10-2 1-32z"/>
    <path id="path3323" filter="url(#filter5418)" fill="url(#linearGradient3885)" d="m445 327.27c-5.26 43.42-6.37 116.5-17 158.73l1 6-0.12754 1.4722 1.9224 2.0013 21.473-0.005 2.6652-2.6875 0.07-1.78c-0.0325-45 2.2544-118.73-10-163.73z"/>
    <path id="path3330" filter="url(#filter4908)" fill="#4d4d4d" d="m480 336c-2.2314 53.202-6.0445 107.62-5.0134 159.42h0.28125l3-4.9554 1.2857 0.0223c-3.31-47.3 0.44-103.33 0.44-154.49z"/>
    <path id="path3337" filter="url(#filter4912)" fill="#4d4d4d" d="m525 341-5 30c2.7126 40.98 1.1537 79.828 0.25 119h2.75l-1 3h3.0938c0.37838-32.743 1.3441-66.073-0.0937-97l2.1949-65.176z"/>
    <path id="path3348" filter="url(#filter5406)" fill="#4d4d4d" d="m435 285c-10.374 70.333-12.558 141.13-29.933 211.46l21.468 0.0487-4.0202-3.0079 2.016 0.008c-0.15-68.42 6.59-139.08 10.47-208.51z"/>
    <path id="path3355" fill="url(#linearGradient4049)" d="m405 266c6.636-0.87354 13.346 0.2713 20 1 7.7452 2.3029 15.958 2.2179 24 3-7.5105 2.9288-15.348 5.5278-23.409 5.486-3.7217-0.0193-7.4611-0.68197-10.874-2.1655-3.75-1.63-7.04-4.23-9.72-7.32z"/>
    <path id="path3359" fill="url(#linearGradient4065)" d="m559 258c-1.0768 2.1728-2.8848 3.9439-5.0034 5.1236-2.4898 1.3864-5.3178 2.0654-8.1448 2.4254-7.93 1.01-15.98-0.15-23.85-1.55v-9c6.2855 0.50964 12.603 0.39046 18.906 0.58574 6.0998 0.18898 12.257 0.63064 18.094 2.4143z"/>
    <path id="path3369" filter="url(#filter5338)" fill-rule="evenodd" fill="url(#linearGradient3808)" d="m445 146h-10l0.42327 37.822c-0.90562-0.0838-1.6059-0.81986-2.198-1.5103-0.87868-1.0247-1.5888-2.1817-2.2773-3.3428l-0.00001-0.00001c-1.4745-2.4863-2.7106-5.1322-4.4753-7.4218l-0.00001-0.00001c2.1134 13.292 5.326 26.38 8.5273 39.453-3.4922-2.8094-5.6505-6.8835-7.9629-10.723v-0.00001l7.97 25.72c-1.1452 0.0466-2.2003-0.61394-3.0589-1.3732-1.0234-0.90503-1.881-1.9786-2.7877-3.0006l0.85 19.37 5 15-1 12v0.00001l14 1-9-51c0.39259-8.5901 3.5176-16.767 6-25z"/>
    <path id="path3373" filter="url(#filter3967)" fill-rule="evenodd" fill="url(#linearGradient3846)" d="m556 245c-11.216-1.9946-22.743-2.7506-34-1l1-30v-0.00001c-2.82-8.2-7.32-15.7-12-23l14 15v-40c1.3427-5.5214 3.0142-11.024 5.8088-15.971 2.1516-3.8094 5.1549-7.3406 9.1912-9.0285 10.652 33.492 13.137 68.972 16 104z"/>
    <path id="path3848" filter="url(#filter4920)" fill="#4d4d4d" d="m529.96 334.57 15.564 151.25-4.3897-81.409v-0.00002z"/>
    <path id="path3344" filter="url(#filter4924)" fill-rule="evenodd" fill="#4d4d4d" d="m500 491v-45l6.1972-45.775-3.2 89.78z"/>
    <path id="path3861" filter="url(#filter4940)" fill-rule="evenodd" fill="#efefef" d="m506.38 397.53-4.07 92.47h5.5625l-1.5-92.469z"/>
    <path id="path3863" filter="url(#filter5342)" fill="#c5c5c5" d="m427 267.27c-3.1065-0.48414-6.1382-1.3716-9.2408-1.8804-4.1298-0.67716-8.357-0.59529-12.508-0.0651h-0.00001l14.566-82.008c0.38136 7.6987-0.6242 15.396-1.769 23.019-1.1917 7.9354-2.6476 15.838-3.4164 23.826v0.00001c-0.68756 7.1431-0.90623 14.466 0.97206 21.392v0.00001c0.84597 3.1194 2.159 6.1263 4.018 8.7704 1.9556 2.7816 4.5064 5.1266 7.3786 6.9465z"/>
    <path id="path3867" filter="url(#filter5294)" fill-rule="evenodd" fill="#1a1a1a" d="m537.98 251.49c3.7251-6.9172 6.1363-14.477 7.8168-22.151 1.6073-7.3404 2.633-14.797 4.1759-22.151 0.0547 4.0847-0.0227 8.1778-0.49686 12.235-0.65546 5.6087-1.793 11.149-2.8893 16.688-1.8834 5.5914-5.0766 10.651-8.6065 15.379z"/>
    <path id="path3871" filter="url(#filter5306)" fill-rule="evenodd" fill="#1a1a1a" d="m527.96 219.83c4.7792-5.4413 8.4283-11.847 10.745-18.708 3.322-9.8384 4.6045-20.242 5.6165-30.576-0.43593 5.5132-0.19297 11.056-0.35769 16.584-0.17124 5.7471-0.88678 11.528-2.8348 16.938-1.1831 3.1988-3.315 5.962-5.6662 8.4325-2.4107 2.5331-5.0682 4.8204-7.5029 7.3305z"/>
    <path id="path3875" filter="url(#filter5322)" fill="#1a1a1a" d="m525.77 214.45c2.444-8.2033 3.9725-16.666 4.8897-25.176 0.46185-4.2852 0.74787-8.5944 0.68992-12.904v-0.00001c-0.0471-3.4997-0.27102-7.0288-1.19-10.406 0.32061 16.246-2.0894 32.401-4.3897 48.486z"/>
    <path id="path3937" filter="url(#filter5426)" fill-rule="evenodd" fill="url(#linearGradient3939)" d="m442 226 4.9375 33.125l2.06 11.88c-0.0949 0.0444-0.18656 0.0812-0.28125 0.125l3.28 21.88 3-7 10 2 8 18v43h-6l7 7-12.018 139.47 13.263-0.0223 2.8884-4.9554 10.554 0.0446 1.0446 2.9554 15.67-0.0446 0.0446-2.8482-5.45-0.6h23l-1 3h18v-3l29 1c-6.3316-46.333-11.953-94.667-22-141l-2-4-5-35c-1.9653-13.98-6.4606-30.02-10-44l-10-2 1-32z"/>
    <path id="path3377" filter="url(#filter5430)" fill-rule="evenodd" fill="url(#linearGradient3800)" d="m455 151c-6.6081 23.775-11.278 48.594-13 75l8 25v-5l10 5 5-5 20 10v-10h9.4688l9.53 21-0.94-22.53 5.06-2.53 1.88 16.06 11-25c-7.6318-27.333-15.21-54.667-21-82z"/>
    <path id="path4540" filter="url(#filter5378)" fill-rule="evenodd" fill="#1a1a1a" d="m520.01 131.17c-0.71289 7.4322-1.5727 15.003-4.6707 21.797 2.1356-2.8504 3.0678-6.423 3.6086-9.9434 0.60243-3.922 0.73864-7.8985 1.0621-11.853z"/>
    <path id="path4546" filter="url(#filter5358)" fill-rule="evenodd" fill="#1a1a1a" d="m519.73 130.93c0.66378 7.4603 1.408 15.178-1.0031 22.269 2.1202-2.9994 2.7018-6.8379 2.5411-10.507-0.17307-3.952-1.0158-7.8403-1.538-11.761z"/>
  </g>
  <g id="layer4" transform="translate(-389.3 -50.297)">
    <path id="path3099" fill="url(#linearGradient4475)" d="m524 256-7 18s-1.5886 1.8707-2 3c-1.0331 2.8362 0 5-1 9-1.4479 5.7917-4.3771 7.4591-7 17-0.15815 0.57528-0.30204 1.1285-0.4375 1.6875l-0.10798 1.603-0.23577 13.366s0.48078 1.8438 0.4375 2.7812c-0.0352 0.76217-0.5625 2.2188-0.5625 2.2188 0.62055 1.4151 1.5627 1.0614 2.4688 0.90625l0.59375 6 0.40625 1.4062c0.25734 0.90772 1.3055 0.6804 2.1562 0.375 0.40044-0.14376 0.65145-0.76445 0.71875-0.5625l0.6875 2.0938c0.57334 1.7209 2.5433 1.3224 2.6562-0.0937l0.21-2.79c0.0556-0.69632 0.51693 1.3708 1.4062 1.7188 0.99887 0.39083 1.879-0.5908 1.9062-1.4062 0.27-8.01 2.4-14.98 5.69-21.31l1 17c0.0932 1.5848 1.76 1.3983 2 0 0.9604-5.5956 1-11.371 1-19 0 0-1.529-17.469 0-26 1.6932-9.4469 10-27 10-27z"/>
    <path id="path4109" filter="url(#filter4554)" fill="url(#linearGradient4122)" d="m506.6 307.6c1.2753 7.9862 2.0221 15.972 2.5593 23.959l0.40625 1.4062c0.25734 0.90772 1.3055 0.6804 2.1562 0.375 0.40044-0.14376 0.65145-0.76445 0.71875-0.5625l0.6875 2.0938c0.57334 1.7209 2.5433 1.3223 2.6562-0.0937l0.21-2.78c0.0556-0.69632 0.51693 1.3708 1.4062 1.7188 0.99887 0.39083 1.879-0.5908 1.9062-1.4062 0.27-8.01 2.4-14.98 5.69-21.31l1 17c0.0932 1.5848 1.76 1.3983 2 0 0.94791-5.5228 0.99884-11.236 1-18.719-0.0613 0.0145-0.12653 0.0168-0.1875 0.0312-1.1866 0.36569-1.512 1.426-3.75 0.9375-2.0197-0.0747-2.827 2.2393-7.0625-0.125-1.3955-0.0292-1.9753 0.8882-4.5625-0.53125-1.1494 0.0192-2.09 0.90439-3.7188-1.0625-0.77795 0.10052-2.2993-0.0956-3.1218-0.92737z"/>
    <path id="path4296" opacity=".8" d="m513.24 311.79c-2.3528 6.5222-1.462 13.691-0.7929 20.593 0.27273-6.8803-0.77082-13.887 0.7929-20.593z"/>
    <path id="path4300" opacity=".8" d="m518.46 312.17c-2.001 6.301-2.8396 12.964-2.461 19.564 0.50203-6.56 1.1367-13.119 2.461-19.564z"/>
    <path id="path3103" fill="url(#linearGradient4415)" d="m447 270 1.0047 9.3822c0.35171 2.741 0.75306 5.4762 1.2498 8.1947 0.45722 2.502 0.97405 4.9994 1.7455 7.4231v0.00001c0.60178 1.8907 1.4135 3.7079 2.2611 5.5019 0.93994 1.9894 1.9504 3.9448 2.9945 5.8815l3.7444 6.6166 0.00003 0.00005 2 12c0.009 0.83789-0.0126 1.6863 0.18755 2.5 0.25265 1.0273 0.90975 1.9483 1.8124 2.5 0 0.70218-0.18825 1.4537-0.74999 1.875 0 0 0 0.00001-0.00001 0.00001-0.67179 0.50384-1.4989 0.74946-2.25 1.125 0.0917 3.4979 1.912 6.6744 3 10 0.18776 0.57393-0.14933 1.2356-0.63918 1.5888-0.71 0.52-1.72 0.04-2.35-0.59l-3-3v3c0 0.67709-0.34235 1.4408-1.0056 1.577 0 0 0 0.00001-0.00001 0.00001-1.14 0.23-2.16-0.75-2.99-1.58-0.32472-0.32472-0.51162-0.76098-0.69162-1.1835v-0.00002c-0.0791-0.18569-0.15252-0.3738-0.22103-0.56365-0.0214-0.0594-0.0424-0.119-0.0627-0.17881-0.008-0.0237-0.0168-0.0497-0.0245-0.0735v2c0 0.78539-0.35486 1.721-1.125 1.875-0.94142 0.18828-1.5714-0.96421-1.875-1.875l-2-6c-0.0336-0.10083-0.11496-0.20269-0.22031-0.18861h-0.00001c-0.1358 0.0181-0.24491 0.11888-0.34855 0.20848-0.34034 0.29425-0.63573 0.63853-0.98521 0.92186-0.34483 0.27956-0.77229 0.53505-1.2082 0.451-0.64-0.12-0.99-0.8-1.24-1.39l-0.00007-0.00015-1.2388-2.6005c-0.65691-1.4377-1.3167-2.8824-1.7612-4.3994v-0.00001c-1.1422-3.8983-1.665-7.9516-2-12-0.33165-4.0073 0.0553-8.0341 0.32926-12.046 0.27-3.99 0.44-8.04-0.33-11.96-0.5521-2.8185-1.4943-5.546-2.504-8.2346-1.1215-2.9862-2.3746-5.9217-3.6901-8.8276l-0.00001-0.00001c-1.0722-2.3685-2.1886-4.717-3.343-7.0465-0.35009-0.70646-0.70371-1.4112-1.0622-2.1134v-0.00001c-0.0979-0.19169-0.19611-0.3832-0.29496-0.57439-0.0259-0.0502-0.0519-0.1003-0.078-0.1504-0.007-0.013-0.0135-0.026-0.0203-0.039-0.002-0.005-0.005-0.009-0.007-0.014l19 2"/>
    <path id="path4280" opacity=".8" d="m453.16 323.14c0.8415 6.165 1.8618 12.442 4.8473 17.901-1.0026-2.61-1.8338-5.2844-2.5079-7.9978-0.81779-3.2918-1.5315-6.6087-2.3394-9.903z"/>
    <path id="path4288" opacity=".8" d="m442.96 321.59c0.32238 2.8478 0.48553 5.7262 1.1357 8.5175 0.62115 2.6667 1.8724 5.1549 3.4402 7.3997-1.1611-2.2364-2.1877-4.5572-2.7942-7.003-0.72942-2.9413-1.1718-5.9458-1.7816-8.9142z"/>
    <path id="path4093" fill="#333" d="m511.9 333.16c-0.35861 0.32784-0.83987 0.62286-1.3026 0.47472-0.32518-0.10411-0.58262-0.36453-0.90841-0.46672 0.11934-0.52473 0.0463-1.0736 0.0975-1.6093v-0.00001c0.0431-0.45172 0.2915-0.94275 0.74348-0.9831 0.45799-0.061 0.77116 0.43317 0.91051 0.87369 0.17819 0.56326 0.24348 1.1607 0.45958 1.7105z"/>
    <path id="path4097" fill="#333" d="m515.64 335.29c-0.35861 0.32784-0.83987 0.62286-1.3026 0.47472-0.32518-0.10411-0.58262-0.36453-0.90841-0.46672 0.11934-0.52473 0.0463-1.0736 0.0975-1.6093v-0.00001c0.0431-0.45172 0.2915-0.94275 0.74348-0.9831 0.45799-0.061 0.77115 0.43317 0.91051 0.87369 0.17819 0.56326 0.24348 1.1607 0.45958 1.7105z"/>
    <path id="path4101" fill="#333" d="m518.98 333.09c-0.35861 0.32784-0.83987 0.62286-1.3026 0.47471-0.32518-0.1041-0.58262-0.36452-0.90841-0.46671 0.11934-0.52473 0.0463-1.0736 0.0975-1.6093 0.0431-0.45172 0.2915-0.94275 0.74348-0.9831 0.45799-0.061 0.77115 0.43317 0.91051 0.87369 0.17819 0.56326 0.24348 1.1607 0.45958 1.7105z"/>
    <path id="path4105" fill="#333" d="m527.69 328.71c-0.28428 0.18514-0.64932 0.33372-0.95132 0.17917-0.21218-0.10857-0.36001-0.31713-0.5729-0.42429 0.14179-0.34795 0.15379-0.73436 0.24986-1.0976 0.081-0.3063 0.30787-0.61639 0.62383-0.59287 0.32244 0.01 0.48208 0.38599 0.52807 0.70529 0.0588 0.40827 0.036 0.82726 0.12241 1.2306z"/>
    <path id="path4162" opacity=".2" d="m528.36 281.02c0 0.82915-1.2224 1.5013-2.7303 1.5013s-2.7303-0.67215-2.7303-1.5013 1.2224-1.5013 2.7303-1.5013 2.7303 0.67215 2.7303 1.5013z" transform="matrix(.97937 .20209 -.20209 .97937 67.525 -100.76)" filter="url(#filter4304)" fill="#fff"/>
    <path id="path4308" opacity=".43643" filter="url(#filter4373)" fill="#fff" d="m507.94 306.28c-0.73843 0.0516-1.2968 0.37797-1.375 0.84375-0.10425 0.62103 0.68909 1.2854 1.7812 1.4688 0.60069 0.10084 1.1595 0.0233 1.5625-0.15625 0.12745 0.51346 0.78606 1.0211 1.6562 1.25 1.0264 0.27001 1.9683 0.0558 2.1875-0.5 0.1282 0.53447 0.95475 1.0185 2.0312 1.1875 0.85626 0.13442 1.6676 0.0363 2.125-0.25 0.41431 0.42184 1.3794 0.79932 2.5938 0.9375 1.7271 0.19652 3.2604-0.16152 3.4375-0.78125 0.17708-0.61973-1.0542-1.2722-2.7812-1.4688-1.2154-0.1383-2.3474-0.0233-2.9688 0.28125-0.28668-0.43494-1.0354-0.79589-1.9375-0.9375-1.1871-0.18635-2.252 0.0964-2.4688 0.65625-0.0924-0.53119-0.75456-1.0753-1.6562-1.3125-0.62475-0.16435-1.2017-0.13633-1.625 0.0312-0.11757-0.53334-0.84167-1.0298-1.7812-1.1875-0.27304-0.0458-0.53511-0.0797-0.78125-0.0625z"/>
    <path id="path4393" filter="url(#filter4445)" fill="url(#linearGradient4431)" d="m436 268.84 11.906 24.062 10.25 21.188c0.36019 2.2286 0.78402 4.3935 0.57219 7.1942-1.2277 3.2397-3.4847 3.1787-5.7909 0.32802l-1.5569 3.3474c-0.84683 0.96684-2.0152-0.51238-4.5864-2.9944l0.3 13.53c-2.6451-2.1919-3.7564-9.456-3.4485-14.601l-2.6875-3.2812-1.6875 4.625c0.28014 1.5307 1.293 7.2666 1.7298 8.7571 0.71379 2.4362 3 7 3 7 1.5841 3.6963 3.605-1.185 4 0l2 6c1 3 3 2 3 0v-2l1 2c1.6771 3.3542 4 1.5537 4 0v-3l3 3c2 2 3.3281-0.10806 3-1-1.2371-3.3628-3.2289-6.8204-3-10 2-1 3-1 3-3-2.1815-1.3333-1.985-3.6667-2-5l-2-12s-6.9654-11.608-9-18c-2.6595-8.3556-4-25-4-25zm18.625 60.719c1.2538 0.93104 2.3551 1.2074 3.3125 0.65625 0.76782 3.5978 0.79476 7.3584 2.9062 10.688-0.24602 0.61921-0.79299 0.85547-2.2188 0-1.5124-3.6624-3.318-7.1277-4-11.344z"/>
    <path id="path4284" opacity=".8" d="m449.02 325.29c0.38999 2.8572 0.57086 5.7434 1.0701 8.5835h0.00001c0.46455 2.6428 1.3974 5.1928 2.6849 7.547-0.88366-2.3003-1.5395-4.685-1.9618-7.1127-0.52537-3.0204-1.0631-6.0403-1.7932-9.0178z"/>
    <path id="path4449" opacity=".2" d="m453.31 322.45c0 1.1055-1.4501 2.0017-3.2389 2.0017s-3.2389-0.89621-3.2389-2.0017 1.4501-2.0017 3.2389-2.0017 3.2389 0.8962 3.2389 2.0017z" transform="matrix(.87282 -.48805 .48805 .87282 -100.13 260.67)" filter="url(#filter4451)" fill="#fff"/>
    <path id="path4455" opacity=".5" filter="url(#filter4457)" transform="matrix(.88675 -.46224 .46224 .88675 -86.576 238.36)" d="m445.94 295.87c0 0.92127-1.2447 1.6681-2.7802 1.6681s-2.7802-0.74685-2.7802-1.6681c0-0.92127 1.2447-1.6681 2.7802-1.6681 1.5354 0 2.7802 0.74684 2.7802 1.6681z"/>
    <path id="path4486" opacity=".8" filter="url(#filter4536)" d="m528.35 295.42c0 6.6332-0.44811 12.01-1.0009 12.01-0.55276 0-1.0009-5.3772-1.0009-12.01 0-6.6332 0.44811-12.01 1.0009-12.01 0.55276 0 1.0009 5.3772 1.0009 12.01z"/>
    <path id="path5264" fill-rule="evenodd" fill="#333" d="m462.14 344.56c0.69039 0.0605 1.1747-0.64652 1.4874-1.265-0.54303-0.93407-1.534-1.524-2.6134-1.5708-0.0468 0.69075-0.14152 1.4612 0.25895 2.026h0.00001c0.22946 0.32358 0.61341 0.50481 0.86702 0.80983z"/>
    <path id="path5268" fill-rule="evenodd" fill="#333" d="m462.14 344.56c0.69039 0.0605 1.1747-0.64652 1.4874-1.265-0.54303-0.93407-1.534-1.524-2.6134-1.5708-0.0468 0.69075-0.14152 1.4612 0.25895 2.026h0.00001c0.22946 0.32358 0.61341 0.50481 0.86702 0.80983z"/>
    <path id="path5270" fill-rule="evenodd" fill="#333" d="m455.46 345.5c0.65011 0.24011 1.3034-0.31452 1.7679-0.82887-0.27802-1.0441-1.0787-1.874-2.1078-2.2033-0.22694 0.65408-0.52115 1.3724-0.28346 2.0227 0.13619 0.37257 0.45891 0.64847 0.6233 1.0095z"/>
    <path id="path5274" fill-rule="evenodd" fill="#333" d="m450.93 345.36c0.65011 0.24011 1.3034-0.31452 1.7679-0.82887-0.27802-1.0441-1.0787-1.874-2.1078-2.2033-0.22694 0.65408-0.52115 1.3724-0.28346 2.0227 0.13619 0.37257 0.45891 0.64847 0.6233 1.0095z"/>
    <path id="path5278" fill-rule="evenodd" fill="#333" d="m444.87 339.04c0.65011 0.24011 1.3034-0.31452 1.7679-0.82887-0.27802-1.0441-1.0787-1.874-2.1078-2.2033-0.22694 0.65408-0.52115 1.3724-0.28346 2.0227 0.13619 0.37257 0.45891 0.64847 0.6233 1.0095z"/>
  </g>
  <g id="layer2" transform="translate(-389.3 -50.297)">
    <path id="path4001" filter="url(#filter4236)" d="m467.89 64.669c-12.96 2.7395-10.586 6.9553-15 10-6.7198 2.9182-8.239 9.1797-12 14 0.0213 2.1047 0.0969 4.2635 0.1875 6.4375-0.61235 1.2916-1.1272 2.4819-1.3125 3.1875-0.72282 2.7533 0.17239 7.7199 1.4375 12.562-0.078 0.96371-0.17391 1.9094-0.3125 2.8125-0.4934 6.5109-2.2342 13.562-2.2812 19.875-2.2942 5.9404-2.3406 11.59-1.5625 17.094-2.5159 4.9872-2.5477 12.955-1.5 22.219-0.24796 2.9221-0.50898 5.8633-0.75 8.7812-1.3678 6.6355-3.1462 13.238-6.2188 19.719 3.0618-4.7693 4.7548-9.9409 5.875-15.281-0.2383 3.5733-0.38347 7.0689-0.3125 10.375-1.7012 10.698-4.1349 21.42-8.25 32.219 3.9949-8.4013 6.6119-17.801 8.5-27.719 0.2631 2.7722 0.73365 5.3782 1.5 7.7188l0.21875 0.21875c-3.4184 11.346-0.75006 22.45 2.7188 33.531-1.0756 4.276-2.5219 8.524-4.2188 12.75 1.6344-3.8169 3.2258-7.6562 4.5625-11.594 0.7434 2.34 1.4987 4.6915 2.25 7.0312-0.516 3.983-0.67466 8.6786-1.25 14.844 0.35771-1.9026 1.1703-6.2469 2.5625-10.75 1.0308 3.3982 1.9541 6.8068 2.625 10.219-0.47448-3.8411-1.3173-7.6046-2.2812-11.344 1.3456-4.0772 3.1857-8.1223 5.5938-10.438 1.1363 3.8653 1.1131 8.9752 0.84375 14.312-0.53949 0.59136-1.0786 1.1566-1.6562 1.75 0.54816-0.46555 1.0939-0.93254 1.625-1.4062-0.22163 4.2487-0.57763 8.6243-0.59375 12.656 0.50057-4.5654 1.2302-9.1481 1.75-13.719 0.83386-0.7768 1.6356-1.568 2.4062-2.375-0.93483 6.879-2.8014 14.356-2.1562 19.312 1.4294-7.1473 2.8599-14.17 3.9062-21.219 0.01-0.0112 0.0217-0.02 0.0312-0.0312 0.88702-1.0446 1.6934-2.1371 2.4375-3.25-0.58087 4.648-1.46 9.3369-1.9375 13.969 1.021-6.0438 3.2741-11.819 4.125-17.906 1.8737-4.1234 2.6656-8.7614 1.75-14.219 4.5888 9.0476 0.87663 16.443-0.3125 27.656 2.4368-4.8737 4.7138-9.4019 6.5-14.25 0.85467 5.1087 2.5234 9.9158 4.5 14.625-0.095 0.81814-0.17153 1.6072-0.25 2.4062 0.083-0.78208 0.17423-1.5824 0.28125-2.375 0.92394 2.1992 1.9039 4.3919 2.9062 6.5625-1.0538-2.5941-1.9437-5.1853-2.7188-7.7812 0.4153-2.8531 0.92937-5.7411 1.3438-8.5938 1.1157 2.427 2.2946 4.812 3.5 7.1875-1.1772-2.8197-2.2711-5.6626-3.3125-8.5312 0.95246-7.1433 1.0717-13.928-2.7812-18.969 0.008-0.0952 0.0236-0.18551 0.0312-0.28125-0.15329-0.61315-0.28965-1.1508-0.4375-1.75 9.7767-3.0031 11.183-7.0723 12.062-11.188l0.3751 6.9374 0.6875 3.25c-1.0986 6.8305-3.4163 14.61-8.0312 24.188 3.2622-6.3563 6.5323-12.689 8.6562-21.094l0.125 0.59375c-0.25982 10.922-0.90295 21.955-5.75 34.406 4.3545-8.9761 6.4298-17.745 7.375-26.438l5.3438 25.969c1.1168-5.1044-2.9603-29.104-0.1875-36.625 0.48185 8.0315 2.2597 15.606 4.3438 22.781-0.30565 4.9926-0.68716 10.001-1.0312 15 0.52827-4.2873 1.1482-8.5589 1.6875-12.844 1.5232 5.0618 3.1349 9.9268 4.5 14.594-1.4212-5.417-2.9782-10.803-4.2812-16.312 0.65143-5.3539 1.1646-10.729 1.3438-16.188 2.3537 9.8412 1.4031 21.102 8.2188 34.719-2.1265-15.595-4.0386-28.349 0-44 0.52623 1.3061 0.95159 2.705 1.3125 4.1562-3.5911 11.299-0.67698 23.879 0.6875 36.031-0.77947-10.697-1.1042-23.312 0.3125-30.906 1.5216 10.413 1.0532 22.731 5.3125 31.781-0.52273-2.096-2.3985-17.661-0.1875-22.156l2.9062 21.25-1.625-22.438c0.17734-0.0325 0.36002-0.0441 0.5625 0 2.3948 4.483 6.3438 17.188 6.3438 17.188s-2.3204-11.311-4.2188-22.5c0.35989-1.8316 0.73821-3.6638 1.125-5.5 3.4215 4.6028 7.5458 8.6223 12.031 12.344-4.2665-4.4849-8.2391-9.1295-11.656-14.125 0.58246-2.8855 1.0569-5.7487 1.2188-8.5 1.3865 1.5782 2.9792 3.1624 4.5938 4.3125-0.50361-1.3777-2.4323-4.2131-4.5625-7.5938-0.25579-4.7709-1.871-9.1144-6.25-12.625-0.6338-2.3602-0.76523-4.5638-0.0312-6.375 1.0108-2.4948 10.667 22.523 11.031 19.469-2.9946-5.6132-6.2748-14.562-6.4688-19.781 5.4048 6.9654 9.0848 15.759 13.281 24-3.5873-8.8729-6.9783-17.762-13.031-26.438 0.0497-0.17115 0.0896-0.35223 0.15625-0.5 0.37126-0.82333 8.8215 13.711 9.1562 12.906l-7-15c-0.46289-1.7032-0.93983-3.3957-1.4062-5.0938 2.4004 2.673 5.5759 4.4386 9.1875 4.4375-3.2-0.31451-7.0849-2.9068-9.875-6.9688-0.11556-0.41574-0.22746-0.83472-0.34375-1.25 0.44357-1.5839 0.75167-3.1204 0.96875-4.625 3.724 5.8821 7.8279 11.009 12.531 14.938-4.9689-5.4179-8.9357-10.965-12.312-16.594 0.61682-6.8026-1.2078-12.734-5.375-17.719 0.91976-5.5619 1.2101-10.904-3.1562-14.75-0.66219-2.4036-1.8581-4.605-3.5625-6.2812-0.29168-1.744-0.55987-3.5297-0.8125-5.3125 2.8942 3.5877 6.8326 5.6318 11.844 5.4375-2.6446-0.45202-7.8945-1.6895-12.094-7.3125-0.2143-1.6218-0.41774-3.247-0.59375-4.9062l-2-8c-1.603-5.5506-1.3837-14.138-1-23-1.6138-3.3196-2.648-6.7144-5.8125-9.8125-1.743-7.8844-4.7551-15.31-16.188-20.188-5.0272-2.2856-8.9431-1.9784-13-2zm45.625 201.06c0.0505 0.20238 0.10474 0.32161 0.125 0.25-0.0406-0.084-0.0852-0.16547-0.125-0.25zm-72.375-168.97c0.18322 4.2904 0.35278 8.5581 0.15625 12.469-0.83324-4.1704-1.0944-8.2368-0.15625-12.469zm-2.3438 40.25c0.27607 2.4094 0.90325 4.6533 2.0938 6.6562 0.83999 0.75663 1.313 1.4512 1.4688 2.0938-1.7209 0.60459-3.0846 1.6164-4.1562 3-0.36461-4.2574-0.34194-8.2613 0.59375-11.75zm68.969 4.0625c0.72844 1.1124 1.3435 2.3993 1.8438 3.8125-0.39615-0.25899-0.82834-0.50926-1.2812-0.75-0.18971-1.0174-0.38425-2.0335-0.5625-3.0625zm0.6875 3.8438c0.60878 0.47012 1.164 0.94078 1.6562 1.4375 0.70411 2.6126 0.92184 5.5577 0.46875 8.5625-0.756-3.2836-1.4807-6.6067-2.125-10zm-66.062 1.2812c0.0273 0.91061-0.54519 1.7218-1.5 2.4688-0.43117 3.4473-0.69291 6.9403-1.3438 10.344-0.46254-2.9146-0.88826-5.7999-1.1875-8.5938 0.98674-1.6857 2.3239-3.105 4.0312-4.2188zm69.125 1.8438c2.6633 3.6982 2.8522 7.9683 2.4375 12.375-0.8339-0.96041-1.7373-1.8944-2.75-2.7812-0.11085-0.46489-0.20312-0.93957-0.3125-1.4062 0.83722-2.611 1.0376-5.4703 0.625-8.1875zm-74.156 4.5312c0.48682 2.7873 1.1303 5.541 1.7812 8.2812-0.65618 2.6905-1.6173 5.3173-3.25 7.8125-0.0624 0.86759-0.14778 1.7501-0.21875 2.625-0.34274-6.9468-0.32925-13.645 1.6875-18.719zm38.531 1.0938c0 5.4596-0.89401 10.904-0.84375 15.906-3.0519 8.3347-0.1175 16.086 3.4062 23.781 0.46161 6.3876 1.5856 13.008 3.4375 19.844-1.3909 4.9374-2.4244 9.9363-11.469 13.5-0.47738-1.9383-0.96213-3.8745-1.375-5.6875 1.8542-7.6999 2.9478-15.333 0.8125-22.625 1.0933-7.3612 0.97922-14.193-1.75-19.906 0.7318-3.0928 1.6472-6.3268 2.7812-9.8125l5-15zm35.625 5.2812c0.84906 0.99913 1.5952 1.9837 2.2812 2.9688-0.0857 0.72669-0.18065 1.4581-0.28125 2.1875-0.28894-0.33466-0.6131-0.63737-0.9375-0.9375-0.35493-1.4036-0.71835-2.8004-1.0625-4.2188zm2.5 3.25c3.5668 5.2316 4.9273 10.289 4.9688 15.219-0.68909-1.1781-1.3564-2.3464-2-3.5312-0.10005-3.5474-1.205-7.0232-3.3438-9.5938 0.12179-0.69805 0.2501-1.3923 0.375-2.0938zm-1.0938 2.2812c0.14696 0.21663 0.29795 0.45716 0.4375 0.6875-0.0338 0.24991-0.0616 0.50033-0.0937 0.75-0.1236-0.47483-0.22179-0.96175-0.34375-1.4375zm0.5625 0.875c1.031 1.7561 1.8421 3.8604 2.2812 6.1875-0.74169-1.4321-1.4715-2.8736-2.1562-4.3125-0.093-0.35219-0.18913-0.70958-0.28125-1.0625 0.0438-0.27128 0.11061-0.54125 0.15625-0.8125zm-38.344 6.5938c0.27698 3.3395 1.1493 6.4274 3.2188 9.125-0.21701 3.719-0.21124 7.5061 0.0312 11.375-2.6851-6.4741-4.732-13.085-3.25-20.5zm39.906 0.6875c0.34721 0.64648 0.70899 1.272 1.0625 1.9062 0.0271 0.61954 0.0293 1.2414 0 1.875-0.35039-1.2616-0.71566-2.5152-1.0625-3.7812zm1.875 3.4062c0.66188 1.1518 1.346 2.2715 2.0312 3.375-0.0991 1.6097-0.35973 3.1912-0.6875 4.7812-0.5569-1.9876-1.1018-3.981-1.6562-5.9688 0.15594-0.72358 0.24659-1.4469 0.3125-2.1875zm-49.031 3.4375c1.3417 4.5221 1.3912 9.9722 0.84375 15.844-0.69563-1.6117-1.5398-3.2094-2.625-4.7812 0.31204-3.5283 0.90359-7.1775 1.7812-11.062zm11.156 2.4062c0.54617 0.61471 1.1501 1.2136 1.8438 1.7812l0.84375 16.5c-0.35702-0.85772-0.72327-1.7078-1.0938-2.5625-0.79816-5.2772-1.3648-10.52-1.5938-15.719zm-13.062 9.9688c0.98991 2.0936 1.7983 4.3337 2.4062 6.7188-0.42689 3.4289-1.0006 6.9613-1.625 10.531-0.86332-5.9005-1.1899-11.445-0.78125-17.25zm14.75 6.4688c0.34983 0.7618 0.69752 1.5179 1.0312 2.2812l0.25 5.0312c-0.4677-2.4439-0.90368-4.8794-1.2812-7.3125zm-11.562 4.0312c0.83756 5.2943 0.77935 11.258-0.28125 18-0.71901-3.1962-1.2978-6.2063-1.7812-9.125 0.76855-2.9954 1.493-5.9654 2.0625-8.875zm44.656 3.2188c3.4122 3.0861 4.8237 6.8076 5.2188 10.844-2.1053-3.4488-4.2334-7.3064-5.2188-10.844zm-76.125 4.9062 1.125 1.125c2.7878 9.6833 2.5624 19.133 0.53125 28.438-2.4869-9.4479-4.1945-19.068-1.6562-29.562zm4 4.2188c1.1361 1.2895 2.1084 2.7232 2.9062 4.2812 0.62654 4.2097 0.79161 8.1357-0.71875 15.688 1.936-2.3232 2.828-4.6456 3.1875-6.9688 0.31531 3.4801-0.0515 7.2002-1.1875 10.969-2.3709 3.1069-3.5 6.1988-4.1562 9.9062-0.6496-2.3159-1.3069-4.6176-1.9375-6.9375 2.5653-8.1936 3.876-16.905 1.9062-26.938zm73.781 0.625c0.40254 0.61317 1.7884 2.6829 3.6562 4.9375-0.10246 2.7756-0.52487 5.6479-1 8.5312-0.96098-1.4496-1.8925-2.9261-2.75-4.4375-0.63103-5.2465-0.77163-8.9902 0.0937-9.0312zm-59.594 8.3438c1.6461 1.7691 2.9582 3.4467 4 5.0625 0.94014 3.7673 0.87113 7.5995-0.125 11.469-0.0745-4.0528-1.0055-8.3048-3.5625-12.906-0.075-1.2027-0.18779-2.4114-0.3125-3.625zm37.906 1c0.0312 0.004 0.0621-0.005 0.0937 0 0.87801 1.3791 1.5961 2.7845 2.1875 4.2188 0.0922 6.0104-0.12927 12.074-0.46875 18.156-1.5086-7.0964-2.4264-14.439-1.8125-22.375zm22.031 3.0625c0.63055 1.0293 1.3046 2.0257 2 3-0.27544 1.6412-0.5321 3.2881-0.75 4.9062-0.45347-2.7249-0.90146-5.4219-1.25-7.9062zm-45.062 2.1562c3.2264 3.4675 3.2729 10.042 2.5625 17.281-1.3253-3.7142-2.4971-7.4926-3.4375-11.344 0.38615-1.8872 0.66782-3.8534 0.875-5.9375zm-14.406 1.9062c1.5385 4.5352 1.6831 9.28 1.2812 14.094-0.72249 1.4861-1.5764 2.9688-2.5625 4.4688 0.8377-6.1306 1.3744-12.287 1.2812-18.562zm12.938 6.5938c1.03 3.5901 2.3995 6.9892 3.9062 10.312-0.32871 2.9851-0.75886 6.0398-1.125 9.0312-1.7966-6.052-2.8597-12.109-3.0938-18.156 0.10757-0.3871 0.21232-0.7937 0.3125-1.1875zm-17.188 2.8438c1.6548 2.8773 1.6584 7.1175 1.125 11.719-0.7741 1.0272-1.6068 2.0915-2.5 3.125 0.53147-4.8707 0.78-9.7274 0.25-14.531 0.36044-0.14576 0.74359-0.24675 1.125-0.3125z"/>
    <path id="path3068" d="m467 62c-12.96 2.7395-10.586 6.9553-15 10-6.7198 2.9182-8.239 9.1797-12 14 0.0213 2.1047 0.0969 4.2635 0.1875 6.4375-0.61235 1.2916-1.1272 2.4819-1.3125 3.1875-0.72282 2.7533 0.17239 7.7199 1.4375 12.562-0.078 0.96371-0.17391 1.9094-0.3125 2.8125-0.4934 6.5109-2.2342 13.562-2.2812 19.875-2.2942 5.9404-2.3406 11.59-1.5625 17.094-2.5159 4.9872-2.5477 12.955-1.5 22.219-0.24796 2.9221-0.50898 5.8633-0.75 8.7812-1.3678 6.6355-3.1462 13.238-6.2188 19.719 3.0618-4.7693 4.7548-9.9409 5.875-15.281-0.2383 3.5733-0.38347 7.0689-0.3125 10.375-1.7012 10.698-4.1349 21.42-8.25 32.219 3.9949-8.4013 6.6119-17.801 8.5-27.719 0.2631 2.7722 0.73365 5.3782 1.5 7.7188l0.21875 0.21875c-3.4184 11.346-0.75006 22.45 2.7188 33.531-1.0756 4.276-2.5219 8.524-4.2188 12.75 1.6344-3.8169 3.2258-7.6562 4.5625-11.594 0.7434 2.34 1.4987 4.6915 2.25 7.0312-0.516 3.983-0.67466 8.6786-1.25 14.844 0.35771-1.9026 1.1703-6.2469 2.5625-10.75 1.0308 3.3982 1.9541 6.8068 2.625 10.219-0.47448-3.8411-1.3173-7.6046-2.2812-11.344 1.3456-4.0772 3.1857-8.1223 5.5938-10.438 1.1363 3.8653 1.1131 8.9752 0.84375 14.312-0.53949 0.59136-1.0786 1.1566-1.6562 1.75 0.54816-0.46555 1.0939-0.93254 1.625-1.4062-0.22163 4.2487-0.57763 8.6243-0.59375 12.656 0.50057-4.5654 1.2302-9.1481 1.75-13.719 0.83386-0.7768 1.6356-1.568 2.4062-2.375-0.93483 6.879-2.8014 14.356-2.1562 19.312 1.4294-7.1473 2.8599-14.17 3.9062-21.219 0.01-0.0112 0.0217-0.02 0.0312-0.0312 0.88702-1.0446 1.6934-2.1371 2.4375-3.25-0.58087 4.648-1.46 9.3369-1.9375 13.969 1.021-6.0438 3.2741-11.819 4.125-17.906 1.8737-4.1234 2.6656-8.7614 1.75-14.219 4.5888 9.0476 0.87663 16.443-0.3125 27.656 2.4368-4.8737 4.7138-9.4019 6.5-14.25 0.85467 5.1087 2.5234 9.9158 4.5 14.625-0.095 0.81814-0.17153 1.6072-0.25 2.4062 0.083-0.78208 0.17423-1.5824 0.28125-2.375 0.92394 2.1992 1.9039 4.3919 2.9062 6.5625-1.0538-2.5941-1.9437-5.1853-2.7188-7.7812 0.4153-2.8531 0.92937-5.7411 1.3438-8.5938 1.1157 2.427 2.2946 4.812 3.5 7.1875-1.1772-2.8197-2.2711-5.6626-3.3125-8.5312 0.95246-7.1433 1.0717-13.928-2.7812-18.969 0.008-0.0952 0.0236-0.18551 0.0312-0.28125-0.15329-0.61315-0.28965-1.1508-0.4375-1.75 9.7767-3.0031 11.183-7.0723 12.062-11.188l0.38 6.94 0.6875 3.25c-1.0986 6.8305-3.4163 14.61-8.0312 24.188 3.2622-6.3563 6.5323-12.689 8.6562-21.094l0.125 0.59375c-0.25982 10.922-0.90295 21.955-5.75 34.406 4.3545-8.9761 6.4298-17.745 7.375-26.438l5.3438 25.969c1.1168-5.1044-2.9603-29.104-0.1875-36.625 0.48185 8.0315 2.2597 15.606 4.3438 22.781-0.30565 4.9926-0.68716 10.001-1.0312 15 0.52827-4.2873 1.1482-8.5589 1.6875-12.844 1.5232 5.0618 3.1349 9.9268 4.5 14.594-1.4212-5.417-2.9782-10.803-4.2812-16.312 0.65143-5.3539 1.1646-10.729 1.3438-16.188 2.3537 9.8412 1.4031 21.102 8.2188 34.719-2.1265-15.595-4.0386-28.349 0-44 0.52623 1.3061 0.95159 2.705 1.3125 4.1562-3.5911 11.299-0.67698 23.879 0.6875 36.031-0.77947-10.697-1.1042-23.312 0.3125-30.906 1.5216 10.413 1.0532 22.731 5.3125 31.781-0.52273-2.096-2.3985-17.661-0.1875-22.156l2.9062 21.25-1.625-22.438c0.17734-0.0325 0.36002-0.0441 0.5625 0 2.3948 4.483 6.3438 17.188 6.3438 17.188s-2.3204-11.311-4.2188-22.5c0.35989-1.8316 0.73821-3.6638 1.125-5.5 3.4215 4.6028 7.5458 8.6223 12.031 12.344-4.2665-4.4849-8.2391-9.1295-11.656-14.125 0.58246-2.8855 1.0569-5.7487 1.2188-8.5 1.3865 1.5782 2.9792 3.1624 4.5938 4.3125-0.50361-1.3777-2.4323-4.2131-4.5625-7.5938-0.25579-4.7709-1.871-9.1144-6.25-12.625-0.6338-2.3602-0.76523-4.5638-0.0312-6.375 1.0108-2.4948 10.667 22.523 11.031 19.469-2.9946-5.6132-6.2748-14.562-6.4688-19.781 5.4048 6.9654 9.0848 15.759 13.281 24-3.5873-8.8729-6.9783-17.762-13.031-26.438 0.0497-0.17115 0.0896-0.35223 0.15625-0.5 0.37126-0.82333 8.8215 13.711 9.1562 12.906l-7-15c-0.46289-1.7032-0.93983-3.3957-1.4062-5.0938 2.4004 2.673 5.5759 4.4386 9.1875 4.4375-3.2-0.31451-7.0849-2.9068-9.875-6.9688-0.11556-0.41574-0.22746-0.83472-0.34375-1.25 0.44357-1.5839 0.75167-3.1204 0.96875-4.625 3.724 5.8821 7.8279 11.009 12.531 14.938-4.9689-5.4179-8.9357-10.965-12.312-16.594 0.61682-6.8026-1.2078-12.734-5.375-17.719 0.91976-5.5619 1.2101-10.904-3.1562-14.75-0.66219-2.4036-1.8581-4.605-3.5625-6.2812-0.29168-1.744-0.55987-3.5297-0.8125-5.3125 2.8942 3.5877 6.8326 5.6318 11.844 5.4375-2.6446-0.45202-7.8945-1.6895-12.094-7.3125-0.2-1.62-0.4-3.24-0.58-4.9l-2-8c-1.603-5.5506-1.3837-14.138-1-23-1.6138-3.3196-2.648-6.7144-5.8125-9.8125-1.75-7.885-4.76-15.311-16.19-20.188-5.0272-2.2856-8.9431-1.9784-13-2zm45.625 201.06c0.0505 0.20238 0.10474 0.32161 0.125 0.25-0.0406-0.084-0.0852-0.16547-0.125-0.25zm-72.37-168.97c0.18322 4.2904 0.35278 8.5581 0.15625 12.469-0.83324-4.1704-1.0944-8.2368-0.15625-12.469zm-2.3438 40.25c0.27607 2.4094 0.90325 4.6533 2.0938 6.6562 0.83999 0.75663 1.313 1.4512 1.4688 2.0938-1.7209 0.60459-3.0846 1.6164-4.1562 3-0.36461-4.2574-0.34194-8.2613 0.59375-11.75zm68.969 4.0625c0.72844 1.1124 1.3435 2.3993 1.8438 3.8125-0.39615-0.25899-0.82834-0.50926-1.2812-0.75-0.18971-1.0174-0.38425-2.0335-0.5625-3.0625zm0.6875 3.8438c0.60878 0.47012 1.164 0.94078 1.6562 1.4375 0.70411 2.6126 0.92184 5.5577 0.46875 8.5625-0.756-3.2836-1.4807-6.6067-2.125-10zm-66.07 1.29c0.0273 0.91061-0.54519 1.7218-1.5 2.4688-0.43117 3.4473-0.69291 6.9403-1.3438 10.344-0.46254-2.9146-0.88826-5.7999-1.1875-8.5938 0.98674-1.6857 2.3239-3.105 4.0312-4.2188zm69.125 1.8438c2.6633 3.6982 2.8522 7.9683 2.4375 12.375-0.8339-0.96041-1.7373-1.8944-2.75-2.7812-0.11085-0.46489-0.20312-0.93957-0.3125-1.4062 0.83722-2.611 1.0376-5.4703 0.625-8.1875zm-74.156 4.5312c0.48682 2.7873 1.1303 5.541 1.7812 8.2812-0.65618 2.6905-1.6173 5.3173-3.25 7.8125-0.0624 0.86759-0.14778 1.7501-0.21875 2.625-0.34274-6.9468-0.32925-13.645 1.6875-18.719zm38.54 1.1c0 5.4596-0.89401 10.904-0.84375 15.906-3.0519 8.3347-0.1175 16.086 3.4062 23.781 0.46161 6.3876 1.5856 13.008 3.4375 19.844-1.3909 4.9374-2.4244 9.9363-11.469 13.5-0.47738-1.9383-0.96213-3.8745-1.375-5.6875 1.8542-7.6999 2.9478-15.333 0.8125-22.625 1.0933-7.3612 0.97922-14.193-1.75-19.906 0.7318-3.0928 1.6472-6.3268 2.7812-9.8125l5-15zm35.625 5.2812c0.84906 0.99913 1.5952 1.9837 2.2812 2.9688-0.0857 0.72669-0.18065 1.4581-0.28125 2.1875-0.28894-0.33466-0.6131-0.63737-0.9375-0.9375-0.35493-1.4036-0.71835-2.8004-1.0625-4.2188zm2.5 3.25c3.5668 5.2316 4.9273 10.289 4.9688 15.219-0.68909-1.1781-1.3564-2.3464-2-3.5312-0.10005-3.5474-1.205-7.0232-3.3438-9.5938 0.12179-0.69805 0.2501-1.3923 0.375-2.0938zm-1.0938 2.2812c0.14696 0.21663 0.29795 0.45716 0.4375 0.6875-0.0338 0.24991-0.0616 0.50033-0.0937 0.75-0.1236-0.47483-0.22179-0.96175-0.34375-1.4375zm0.5625 0.875c1.031 1.7561 1.8421 3.8604 2.2812 6.1875-0.74169-1.4321-1.4715-2.8736-2.1562-4.3125-0.093-0.35219-0.18913-0.70958-0.28125-1.0625 0.0438-0.27128 0.11061-0.54125 0.15625-0.8125zm-38.34 6.6c0.27698 3.3395 1.1493 6.4274 3.2188 9.125-0.21701 3.719-0.21124 7.5061 0.0312 11.375-2.6851-6.4741-4.732-13.085-3.25-20.5zm39.906 0.6875c0.34721 0.64648 0.70899 1.272 1.0625 1.9062 0.0271 0.61954 0.0293 1.2414 0 1.875-0.35039-1.2616-0.71566-2.5152-1.0625-3.7812zm1.875 3.4062c0.66188 1.1518 1.346 2.2715 2.0312 3.375-0.0991 1.6097-0.35973 3.1912-0.6875 4.7812-0.5569-1.9876-1.1018-3.981-1.6562-5.9688 0.15594-0.72358 0.24659-1.4469 0.3125-2.1875zm-49.04 3.43c1.3417 4.5221 1.3912 9.9722 0.84375 15.844-0.69563-1.6117-1.5398-3.2094-2.625-4.7812 0.31204-3.5283 0.90359-7.1775 1.7812-11.062zm11.156 2.4062c0.54617 0.61471 1.1501 1.2136 1.8438 1.7812l0.84375 16.5c-0.35702-0.85772-0.72327-1.7078-1.0938-2.5625-0.79816-5.2772-1.3648-10.52-1.5938-15.719zm-13.062 9.9688c0.98991 2.0936 1.7983 4.3337 2.4062 6.7188-0.42689 3.4289-1.0006 6.9613-1.625 10.531-0.86332-5.9005-1.1899-11.445-0.78125-17.25zm14.75 6.4688c0.34983 0.7618 0.69752 1.5179 1.0312 2.2812l0.25 5.0312c-0.4677-2.4439-0.90368-4.8794-1.2812-7.3125zm-11.562 4.0312c0.83756 5.2943 0.77935 11.258-0.28125 18-0.71901-3.1962-1.2978-6.2063-1.7812-9.125 0.76855-2.9954 1.493-5.9654 2.0625-8.875zm44.656 3.2188c3.4122 3.0861 4.8237 6.8076 5.2188 10.844-2.1053-3.4488-4.2334-7.3064-5.2188-10.844zm-76.125 4.9062 1.125 1.125c2.7878 9.6833 2.5624 19.133 0.53125 28.438-2.4869-9.4479-4.1945-19.068-1.6562-29.562zm4 4.2188c1.1361 1.2895 2.1084 2.7232 2.9062 4.2812 0.62654 4.2097 0.79161 8.1357-0.71875 15.688 1.936-2.3232 2.828-4.6456 3.1875-6.9688 0.31531 3.4801-0.0515 7.2002-1.1875 10.969-2.3709 3.1069-3.5 6.1988-4.1562 9.9062-0.6496-2.3159-1.3069-4.6176-1.9375-6.9375 2.5653-8.1936 3.876-16.905 1.9062-26.938zm73.781 0.625c0.40254 0.61317 1.7884 2.6829 3.6562 4.9375-0.10246 2.7756-0.52487 5.6479-1 8.5312-0.96098-1.4496-1.8925-2.9261-2.75-4.4375-0.63103-5.2465-0.77163-8.9902 0.0937-9.0312zm-59.6 8.34c1.6461 1.7691 2.9582 3.4467 4 5.0625 0.94014 3.7673 0.87113 7.5995-0.125 11.469-0.0745-4.0528-1.0055-8.3048-3.5625-12.906-0.075-1.2027-0.18779-2.4114-0.3125-3.625zm37.906 1c0.0312 0.004 0.0621-0.005 0.0937 0 0.87801 1.3791 1.5961 2.7845 2.1875 4.2188 0.0922 6.0104-0.12927 12.074-0.46875 18.156-1.5086-7.0964-2.4264-14.439-1.8125-22.375zm22.031 3.0625c0.63055 1.0293 1.3046 2.0257 2 3-0.27544 1.6412-0.5321 3.2881-0.75 4.9062-0.45347-2.7249-0.90146-5.4219-1.25-7.9062zm-45.062 2.1562c3.2264 3.4675 3.2729 10.042 2.5625 17.281-1.3253-3.7142-2.4971-7.4926-3.4375-11.344 0.38615-1.8872 0.66782-3.8534 0.875-5.9375zm-14.406 1.9062c1.5385 4.5352 1.6831 9.28 1.2812 14.094-0.72249 1.4861-1.5764 2.9688-2.5625 4.4688 0.8377-6.1306 1.3744-12.287 1.2812-18.562zm12.938 6.5938c1.03 3.5901 2.3995 6.9892 3.9062 10.312-0.32871 2.9851-0.75886 6.0398-1.125 9.0312-1.7966-6.052-2.8597-12.109-3.0938-18.156 0.10757-0.3871 0.21232-0.7937 0.3125-1.1875zm-17.188 2.8438c1.6548 2.8773 1.6584 7.1175 1.125 11.719-0.7741 1.0272-1.6068 2.0915-2.5 3.125 0.53147-4.8707 0.78-9.7274 0.25-14.531 0.36044-0.14576 0.74359-0.24675 1.125-0.3125z"/>
  </g>
  <metadata>
    <rdf:RDF>
      <cc:Work>
        <dc:format>image/svg+xml</dc:format>
        <dc:type rdf:resource="http://purl.org/dc/dcmitype/StillImage"/>
        <cc:license rdf:resource="http://creativecommons.org/licenses/publicdomain/"/>
        <dc:publisher>
          <cc:Agent rdf:about="http://openclipart.org/">
            <dc:title>Openclipart</dc:title>
          </cc:Agent>
        </dc:publisher>
        <dc:title>Onryo</dc:title>
        <dc:date>2012-04-07T08:30:32</dc:date>
        <dc:description>Mythological spirit from Japanese folklore</dc:description>
        <dc:source>http://openclipart.org/detail/169387/onryo-by-conte-magnus</dc:source>
        <dc:creator>
          <cc:Agent>
            <dc:title>conte magnus</dc:title>
          </cc:Agent>
        </dc:creator>
        <dc:subject>
          <rdf:Bag>
            <rdf:li>Giappone</rdf:li>
            <rdf:li>clip art</rdf:li>
            <rdf:li>clipart</rdf:li>
            <rdf:li>fantasma</rdf:li>
            <rdf:li>folklore</rdf:li>
            <rdf:li>ghost</rdf:li>
            <rdf:li>horror</rdf:li>
            <rdf:li>orrore</rdf:li>
            <rdf:li>spettro</rdf:li>
            <rdf:li>spirit</rdf:li>
            <rdf:li>spirito</rdf:li>
            <rdf:li>vendetta</rdf:li>
            <rdf:li>vengeance</rdf:li>
          </rdf:Bag>
        </dc:subject>
      </cc:Work>
      <cc:License rdf:about="http://creativecommons.org/licenses/publicdomain/">
        <cc:permits rdf:resource="http://creativecommons.org/ns#Reproduction"/>
        <cc:permits rdf:resource="http://creativecommons.org/ns#Distribution"/>
        <cc:permits rdf:resource="http://creativecommons.org/ns#DerivativeWorks"/>
      </cc:License>
    </rdf:RDF>
  </metadata>
</svg>
