<svg xmlns="http://www.w3.org/2000/svg" viewBox="0 0 1296 1728"><path fill="#060404" d="M1148.6 876.2c3.5-2.6 3.5-14.9 3.5-18.4 0-3.5 35.1-93 36-96.5.9-3.5.9-21.1-2.6-31.6s-15.8-23.7-20.2-26.3c-4.4-2.6-52.7-24.6-52.7-24.6s-4.4-4.4-7.2-8.6c-9.2 17.4-32.5 61.6-50.6 96.7l3.1-53.9s-1.8-2.9-1.2-5.9c.6-2.9 2.9-1.2 4.7-3.5 1.8-2.3 7.6-4.7 8.2-6.4.6-1.8-8.2-12.3-8.2-12.3l-4.9-.9c.4-.2.9-.5 1.4-.9 5.1-3.7 28.2-15.9 39.6-22.2l-.7-11.1s21.9-20.2 23.7-24.6c1.8-4.4 6.1-39.5.9-50.9-5.3-11.4-14.9-12.3-14.9-12.3-6.1-5.3-6.1-17.6-19.3-21.9-13.2-4.4-23.7-1.8-36.9-2.6-13.2-.9-19.3-4.4-19.3-4.4l1.8 10.5-7.9-1.8s-1.8 11.4.9 14.9c-2.6 0-1.8 13.2-1.8 13.2l-3.5 21.1s-5.3 21.9-4.4 31.6c.2 2.5.8 6.1 1.5 10.2l-8.6 3.9s-3.9 3.7-4.4 6.9c-.9 5.8-4.2 11.9-4.2 11.9s-10.1 23.6-11.8 25.2c-1.8 1.6-3.2 6-3.2 6l-8.7 13.3c3.7 5.8 12.9 16.7 28.5 14.1 1.2-3.5 5.9-3.5 5.9 0s-12.9 31.6-12.9 31.6-17.6 9.4-24.6 3.5c-7-5.8-11.7-26.9-11.7-26.9l9.4-18.8-.9.6c-5.3 4.4-14 11.4-18.4 26.3-7 9.7-5.3 14.9-5.3 17.6 0 2.6-15.8 40.4-21.9 49.1-6.1 8.8-13.2 44.8-10.5 50 2.6 5.3 12.3 17.5 20.2 17.5 7.9 0 14.9-1.8 14.9-1.8s0 6.1.9 7.9c0 2.6 1.8 7 1.8 8.8-.9 1.8-.9 7 4.4 11.4 2.6 4.4 11.4 3.5 11.4 3.5l-9.6 59.7s-14 77.2-14.9 84.3c-.4 3.3 8.4 6.1 18.6 8 2.4 43.6 7.7 134.8 7.7 134.8s-3.5 128-7 140.4c-3.5 12.4 6.1 61.8 6.1 64.5 0 2.7-5.3 15.9-7.9 19.4-2.6 3.5-1.8 38.9-1.8 38.9s-10.5 20.3-14.9 21.2c-4.4.9-12.3 11.5-12.3 20.3s6.1 7.9 22.8 7.9c16.7 0 29.8-14.1 31.6-17.7 1.8-3.5 7-3.5 13.2-5.3 6.1.9 13.2-2.7 13.2-7.9 0-5.3.9-23 .9-25.6 0-2.7 7.9-58.3 7.9-58.3s5.3-28.3 5.3-32.7c0-4.4 7-32.7 5.3-37.1-1.8-4.4 3.5-79.5 2.6-86.5-.9-7.1 11.4-132.4 15.8-141.3 4.4-8.8 11.4 5.3 11.4 7.9 0 2.7 19.3 160.7 19.3 160.7s10.5 84.8 12.3 91.8c1.8 7.1 20.2 51.2 23.7 59.2 3.5 7.9-6.1 16.8-8.8 22.1-2.6 5.3 12.3 28.3 12.3 28.3l.9 22.1 5.3 5.3s2.6 5.3 6.1 13.3c3.5 7.9 15.8 9.7 24.6 16.8 8.8 7.1 21.1 11.1 26.3-4.7 5.3-15.9-10.5-42.4-10.5-42.4s-7.9-21.2-5.3-29.1c2.6-8-2.6-26.5-2.6-26.5s-7.9-10.6-7.9-18.5 5.3-63.6 2.6-71.5c-2.6-8-10.5-87.4-10.5-87.4s2.6-53 0-63.6c-1.9-7.7-1-87.1-.4-129.7 12.7-2.8 21-5.9 20-8.9-3.5-11.4-28.4-134.6-28.4-134.6s4.2-13.2 7.7-15.8zm-142.2 14.6h-17s-7-22.2-2.3-46.8h24l-4.7 46.8zm5.7-248.5l6.6-4c1.2 5.8 2.6 11.7 3.8 16-3.1-3.4-5.5-5-5.5-5l-6.7.1 1.8-7.1zm-6.2 56.2c1.4-4.8 3.2-9.4 5.2-10.4 10.9-4.9 5.6-9.6 15-12.5 1.9-1.3 2.4-9.1 1.6-13.3 4.8 1.6 11.1-.3 11.1-.3l-.5 9.8 13 9.5s0 .9.3 1.8l-3.3-.6-6.4 10.5 3.5 6.4s2.3 2.3 2.9 5.3c.6 2.9-4.1 6.4-4.1 6.4s-4.7 15.8-5.3 17.6c-.3.8-4.3 18.1-8.5 35.8 2-36.9 5.9-80.6 5.5-82-.1-.2-.1-.5-.1-.8-4.4 3-17.5 11.2-29.9 16.8z"/><path fill="#231815" d="M303.2 775.2c-3.7-3.7-16-12.3-16-12.3s-13.6-28.3-16-35.7c-2.5-7.4 0-18.5-4.9-27.1-3.2-5.7-7.5-10.8-12.6-13.3 1.1-.5 2.5-.9 4.3-1.3 5.3-1.1 8.6-4.7 6.1-7.3-2.5-2.6-9.2-17.8-6.1-24.3.1-.2.2-.4.2-.5 1.6.1 3 .1 3.9-.1-1-.1-2.1-.6-3.3-1.2 1.9-4.6 4-11.8 4.5-18.1 3.2-5.9 5.4-14.7 1.9-24.5-5.5-15.4-45-45.6-77.7-25.9-38.2 10.5-44.4 51.1-43.1 82.6 1.2 31.4-45 78.9-27.7 106.6.5.8 1 1.4 1.5 2-1.1 4.9-1.9 9.3-2.1 12.8-1.2 18.5 30.8 81.3 30.8 104.8 0 23.4 6.2 38.2 1.2 55.5-4.9 17.3-22.2 59.2-17.3 61.6 4.9 2.5 11.1 2.5 11.1 2.5s-3.7 46.8 7.4 81.3c11.1 34.5 6.2 104.8 6.2 104.8l6.5.6c0 7.7-.4 15.9-1.5 21.6-2.5 12.3-9.9 66.6-3.7 107.2 6.2 40.7 25.9 81.4 23.4 93.7-2.5 12.3-8.6 16-2.5 70.3 1.2 3.3 12.3 8.6 12.3 1.2s7.4-35.7 7.4-35.7-.2 9.2 7.5 18.4c0 .2 0 .4-.1.7-4.7 8.9 4.3 10.5 9.1 7.3 5.1 3.3 11.7 6.2 20.5 8.1 9.2 2 20.3 4.8 30.5 6.8 14.6 6.5 31 9.5 37.3 8.2 9.2-2 13-2.5-.8-15.2-13.8-12.8-33.6-40.5-33.6-40.5s-36.7-54.7-35.8-59.6c.9-4.8 33.1-139.3 36.7-144.9 1.6-2.5 4.6-18.9 7.5-37.3l11.2 1s18.4-95.7 4.8-146.2c-7.7-28.6-9.9-66.6-9.9-66.6V880.1l-1.2-18.5s32 8.6 35.7-7.4c3.6-16.2-9.9-75.3-13.6-79zm-39.5-6.2s-17.3-29.6-25.9-32c-8.6-2.5-33.3-11.1-33.3-11.1l-.1-.1c.8-6.8 2.4-14.1 5.5-19.2 1.8-3 9.1.2 15.8 3.7-.2 1.3-.2 2.1-.2 2.1s-3.7-4.9-7.4-1.2 1.2 8.6 6.2 11.1c4.9 2.5 19.7 11.1 19.7 11.1l19.7 35.6z"/></svg>