<svg xmlns="http://www.w3.org/2000/svg" viewBox="0 0 1296 1728"><path stroke="#FCFCFA" stroke-miterlimit="10" d="M749.1 845.8h-52.3v-7h52.3v7zm-6.1-31.9h-39.8v-7H743v7zm.9 52.2c3 3 4.5 6.4 4.5 10.3 0 6.4-1.6 11.2-4.9 14.5-5.5 5.5-14.6 8.4-27.4 8.7l-1.6-7c12-.5 19.8-2.5 23.4-6.1 2.2-2.2 3.3-5 3.3-8.4.2-5.9-3-9.2-9.6-9.8-5.9-.5-16.3 2.2-31.2 8l-2.6-7.3c3.1-.8 6.8-1.9 11-3.3 8.9-3 16.2-4.5 22-4.5 5.4 0 9.8 1.6 13.1 4.9zm-2.3 48.1c4.4 3.8 6.6 9.2 6.6 16.4 0 5.6-1.7 10.5-5.2 14.8-3.4 4.2-8.1 7.6-14.1 10.1l-5.4-5.9c11.9-4.5 17.8-10.8 17.8-18.8 0-5-1.4-8.9-4.2-11.7-3-3-7.4-4.5-13.4-4.5 2.5.6 3.8 1.3 3.8 1.9-.2.6-.6 1-1.4 1.2-.5 3.6-1.6 9-3.5 16.2-1.7 6.7-3.5 11.2-5.4 13.6-2.3 3-4.8 4.5-7.5 4.5-2.8 0-5.3-1.1-7.5-3.3-3.3-3.3-4.9-8.3-4.9-15 0-6.7 2.5-12.6 7.5-17.6 5-5 11.2-7.5 18.8-7.5s13.4 1.8 18 5.6zm-32.2 30.2c1.7 0 3.1-1.2 4.2-3.5 2.8-7.7 4.8-16.2 5.9-25.8-5.3.8-9.2 3.2-11.7 7.3-2.3 3.8-3.5 7.6-3.5 11.5 0 4.4.9 7.4 2.6 9.1.9.9 1.8 1.4 2.5 1.4zm9.9 17.6c.2.6-.2 1.1-.9 1.4v8.7c2.5-.2 5.5-1 9.1-2.6l1.9 6.3c-3.8 1.7-7.4 2.7-11 3v6.8c3.3-.8 6.2-1.2 8.9-1.2 7.2 0 12.3 1.6 15.5 4.7 3 3 4.5 6.7 4.5 11.2 0 3.8-1.2 6.9-3.5 9.4-2 2-4.7 3.1-8 3.3-5.8.2-10.2-2.7-13.1-8.4l5.2-4c2 3.9 4.5 5.9 7.5 5.9 3.3 0 4.9-2.2 4.9-6.6 0-2.2-.9-4.1-2.6-5.9-2.2-2.2-5.6-3.3-10.3-3.3-3.1 0-6.1.5-8.9 1.4v11c0 3.6-1.1 6.5-3.3 8.7-1.9 1.9-4.2 2.8-7 2.8-2 0-3.8-.8-5.4-2.3-2.2-2.2-3.3-4.8-3.3-8 0-4.1 1.5-7.6 4.5-10.5 2.8-2.8 5.5-4.8 8-5.9v-8.4c-1.7.3-3.4.5-4.9.5-2 .2-4 .2-5.9.2l-.7-6.8c3.4.2 7.3 0 11.5-.5v-11.7h5.4c1 .1 1.7.3 1.9.8zm-10.8 46.9c2.2 0 3.3-1.7 3.3-5.2v-8.4c-4.1 2.7-6.1 5.9-6.1 9.6 0 2.6.9 4 2.8 4zm34.5-36.8c2.5 1.9 4.7 3.8 6.6 5.9l-4.7 4.7c-3.6-3.8-7.8-7.3-12.7-10.5l4.2-4.7c1.9 1.1 4.1 2.7 6.6 4.6zm6.3 55.3H739l-1.2 3h9.8v30.2h-3.3c1.9.9 4.1 1.6 6.8 2.1l-3.5 5.6h3.3l-1.2 6.1h-30c-1.3 0-2.5-.2-3.8-.5-4.5-1.3-8.4-3.8-11.7-7.5-.6 1.7-1.4 3.8-2.3 6.1-.6 1.1-1.3 2-1.9 2.8l-4.9-4.7c.9-1.2 1.7-2.7 2.3-4.2 1.9-5 2.7-10.5 2.3-16.4l5.6.9c.6.2 1.1.3 1.4.5.2.3.2.5.2.7 0 .3-.4.6-1.2.9 0 2.7-.2 4.9-.5 6.8l2.6 2.6v-13.8h-12.2v-5.6h27.7v5.6h-8.9v4.7h7v6.1h-7v7.3c2.2 1.3 4.5 1.7 7 1.4l-2.8-4.7c.8 0 1.6-.2 2.6-.5 2.3-.6 4.3-1.4 5.9-2.3h-2.6v-30.2h6.8l.7-3h-9.6v-6.1h26.7v6.1zm-28.6 14h-21.1v-20.2h21.1v20.2zm-15-14.5v1.9h8.9v-1.9h-8.9zm0 7v1.9h8.9v-1.9h-8.9zm26.7 26.8l2.1 2.6c-3 2.2-6.6 3.9-10.8 5.2h23c-3.9-1.6-7.2-3.4-9.8-5.6l2.8-2.1h-7.3zm-1.6-24.6v2.6h10.8v-2.6h-10.8zm0 8.2v2.6h10.8v-2.6h-10.8zm0 8.2v2.6h10.8v-2.6h-10.8zm-3.1 30.9c0 .6-.4.9-1.2.9-.5 1.6-1 3.2-1.6 4.9l15.7-1.6.7 6.8-19 1.4c-.6 1.4-1.7 3.2-3.3 5.4 2.8-.6 5.4-.3 7.7.9 2.3 1.3 3.5 3 3.5 5.4 5.3-2 10.2-3.8 14.8-5.2l2.3 6.6c-6.3 1.7-11.8 3.4-16.6 4.9v10.5H724v-8c-2.7 1.3-4.9 2.5-6.8 3.8-2 1.4-3.1 3-3.3 4.7-.3 2.8 1.7 4.2 6.1 4.2h21.8v6.3h-21.6c-3.9 0-7-.8-9.4-2.3-2.7-1.7-3.9-4.2-3.8-7.5.2-3.3 1.6-6.1 4.5-8.4 2.8-2.5 6.9-4.8 12.2-7 0-2.3-.9-3.5-2.8-3.5-1.9-.2-4 .5-6.3 1.9-3.4 1.9-6.5 4.1-9.1 6.6l-4.7-4.7c2.8-1.9 5.5-4 8.2-6.3 2.7-2.5 4.7-5.1 6.1-7.7l-12.7.9-.9-6.8 16.4-.7c.8-2 1.6-5.2 2.6-9.4l5.4 1.6c1.2.3 1.8.8 1.8 1.4zm6.1 57.2c.5.3.7.6.7.9 0 .3-.3.6-.9.9-.3 3.3-.7 6.3-1.2 9.1h5.6l-3.8-1.9c.6-.9 1.3-2 2.1-3 1.1-1.7 2-3.5 2.6-5.4l4.7 2.6c.6.3 1 .6 1.2.9.2.3.2.6 0 .9-.2.2-.5.3-1.2.5-1.1 1.6-2.3 3.4-3.5 5.4h7v6.1H738c.5.9.9 1.9 1.4 2.8h10.8v6.1h-6.8c2.8 2.8 5.7 5.1 8.7 6.8l-3.8 5.4c-1.3-.9-2.5-1.8-3.8-2.6l-1.2 14.1c-.2 1.6-.8 2.8-1.9 3.8-.6.5-1.3.7-1.9.7h-6.8l-1.2-7h4c.8 0 1.2-.5 1.4-1.4.3-1.9.5-4.3.7-7.3h-4.7c-.5 7.5-5 13.2-13.6 17.1l-3.8-6.1c1.6-.6 2.9-1.2 4-1.9 4.4-2.5 6.6-5.5 6.8-9.1h-7v-2.8c-.9.9-2.1 1.9-3.5 2.8l-1.6-3.8v15.2c0 .6-.1 1.2-.2 1.9-.6 2-2.1 3-4.5 3h-5.2l-.7-6.6h2.6c.6 0 1-.2 1.2-.5.2-.3.2-.7.2-1.2v-11h-3.5v1.6c0 1.4-.1 2.7-.2 4-.5 5.3-2.1 9.8-4.9 13.6l-4.9-4.7c.8-.9 1.5-2 2.1-3 1.2-2.7 1.9-6.3 1.9-11v-33.8h16.2v29.5c.3-.2.6-.3.9-.5 1.1-.6 2.2-1.5 3.3-2.6.9-.9 1.6-1.9 2.1-2.8H715v-6.1h8.7c.3-.9.7-1.9 1.2-2.8h-7.7v-6.1h4c-1.1-1.7-2.7-3.5-4.9-5.4l5.2-3.8c2.3 2.3 4.1 4.4 5.4 6.1.3-2.3.5-5.2.5-8.4l5.4.2c.3.3.7.4 1 .6zm-29.5 8.4v7.5h3.5v-7.5h-3.5zm0 13.6v7.5h3.5v-7.5h-3.5zm23.4 4c-1.7 2.7-3.4 4.9-5.2 6.8h4.5v-5.2h5.6c1.9.2 2.2.8.9 1.9v3.3h8.2c-1.9-1.9-3.8-4.1-5.9-6.8h-8.1zm-4.4-15h3c.2-.8.3-1.6.5-2.3l-3.5 2.3zm6.8 8.9h3c-.5-1.1-.9-2-1.2-2.8h-.9c-.3.9-.6 1.9-.9 2.8zm12.9 45.9c.5.6.5 1.2.2 1.6-.2.3-.5.5-.9.5s-.9-.2-1.4-.5c-4.5 1.3-9.3 2.2-14.3 2.8v6.3h18.3v6.1h-18.3v6.6h23.2v6.1h-23.2v13.4c0 .6-.1 1.2-.2 1.9-.6 2-2.1 3-4.5 3h-8l-.7-6.6h5.4c.6 0 1-.2 1.2-.5.2-.3.2-.7.2-1.2v-9.9h-23.7v-6.1H720v-6.6h-18.8v-6.1H720v-5.6c-5.9.8-12.3 1-19.2.7l-1.2-6.3c13.9 0 26.9-1.6 38.9-4.9l4.5 5.3zm-33.1 57.7c.2.5-.3.8-1.4.9-2.5 14.7-3 29.3-1.4 43.8l-7.3.5c-1.6-17.2-.9-33.2 1.9-48l5.9 1.4c1.4.3 2.2.8 2.3 1.4zm38.5 33.7v7H731c-3 0-5.7-.7-8.2-2.1-2.7-1.4-5.2-3.3-7.5-5.6l4.2-4.9c1.9 1.9 3.7 3.3 5.4 4.2 1.7.9 4.1 1.4 7 1.4h16.5zm-3.3-22.7c-9.7-.3-19.1.2-28.1 1.4v-6.8c9.4-1.1 18.8-1.6 28.1-1.4v6.8zm-99.2-490.8h-8.8v-16.6h-48.4v-8.1h57.2v24.7zm-67.2 82.5l-.9-8.8h7.5c.6 0 1.1-.1 1.6-.3.6-.2 1-.8 1.2-1.9.8-5.4 1-10.9.6-16.6-3.3 4.6-7.9 9.2-13.8 13.8l-5-7.8c1.2-.8 2.5-1.8 3.8-2.8 5-4.6 9.5-9.9 13.4-15.9 0-1-.2-2.4-.6-4.1-.2-1-.5-1.9-.9-2.5-3.1 3.5-6.7 6.7-10.6 9.4l-4.7-7.8c2.9-1.9 5.7-3.9 8.4-5.9 1.2-1 2.2-2.1 2.8-3.1-2.5-4.2-5.4-7.8-8.8-10.9l5.6-5.6c3.5 3.3 6.6 6.7 9.1 10 2.1-3.3 4.1-6.7 5.9-10l5.9 3.4c1.7 1 2.2 1.9 1.6 2.5-.2.2-.7.3-1.6.3-2.3 4.2-4.8 7.9-7.5 11.2 1 2.3 1.9 4.6 2.5 6.9 1 4.4 1.8 8.6 2.2 12.8.6 8.5.7 15.6.3 21.2-.2 2.7-.7 4.9-1.6 6.6-1 2.3-2.3 3.9-3.8 4.7-1.5.8-2.8 1.2-4.1 1.2h-8.5zm45.3-69v13.1h16.6v29.4h-8.8V839H624v14.4l6.9-.6c-1-2.1-2.5-4.6-4.4-7.5l6.9-4.4c5 6.7 9.3 13.8 12.8 21.2l-8.4 5.3c-1-1.9-2.1-4.1-3.1-6.6l-33.1 3.1c-.2.8-.5 1.4-.9 1.6-.2.2-.4.2-.6 0-.6-.2-1-1-1.2-2.5l-1.6-8.1 18.1-.9v-15h-7.5v2.5H599v-30.6h16.2v-15.6h7.5c2.5.2 2.9 1 1.3 2.5zM607.7 819v11.9h7.5V819h-7.5zm16.3 0v11.9h7.8V819H624zm-2.8 62.2c4.2-.6 8.1-1.8 11.9-3.4 1.5-.6 2.6-1.2 3.4-1.9l5.3 6.6c1 1.7 1 2.7 0 3.1-.4 0-.8-.1-1.2-.3-6.9 2.3-13.9 3.5-20.9 3.8v11.2H645v8.1h-8.8v39.1h-8.8v-39.1h-7.8V920c.2 11.5-3.9 20.7-12.2 27.8l-5.9-6.2 1.9-1.9h-21.2v4.7h-8.8v-67.2h7.5c2.5.2 2.9 1 1.2 2.5v5l6.2-2.8c1 3.3 2.1 7.6 3.1 12.8v-17.8h6.2c2.5.2 2.9 1 1.2 2.5v21.2h10.6v7.5H599v.9c3.8 2.3 7.4 4.8 10.9 7.5l-4.4 7.2c-2.1-2.3-4.3-4.2-6.6-5.6v12.5h-7.5v-10.3c-1.5 2.7-3.6 5.3-6.6 7.8l-2.8-5.6v9.1h25v4.1c2.5-4.2 3.8-9.3 3.8-15.3v-40.6c1 .4 2.3.8 3.8 1.2 1.5.4 2.7.6 3.8.6.8-.1 1.7-.2 2.8-.4zm-39.1 19.4h9.4v-3.8l-6.9 3.4c-.6-2.9-1.5-6.5-2.5-10.6v11zm0 7.5V919c.4-.2.8-.5 1.2-.9 1.9-1.9 3.8-4.2 5.6-6.9.8-1.2 1.4-2.3 1.6-3.1h-8.4zm20-20.7c.6-2.7.9-4.9.9-6.6l5.9 2.5c1.5.6 2 1.4 1.6 2.2-.2.2-.5.4-.9.6-.6 4.6-1.7 9.3-3.1 14.1l-7.2-4.4c1-1.8 2-4.6 2.8-8.4zm-31.2 69.7h8.8v16.6H628v8.1h-57.2v-24.7zm23.9 50.1c.2.5-.2.9-.9 1.4v32.6c0 2.2.6 4 1.9 5.4 1.1 1.3 3.5 1.9 7.3 1.9 5.6 0 11.6-3.4 18-10.3l4.9 5.4c-6.9 7.5-14.3 11.5-22.3 12-4.8.3-8.8-.7-12-3-3.3-2.5-4.9-5.9-4.9-10.3v-35.6h6.1c1.2-.2 1.8 0 1.9.5zm6.1 57.4c.2.5-.2.8-.9.9-.5 2.8-.9 5.4-1.4 7.7 4.8-.3 9.7-.9 14.5-1.9l.9 6.8c-5.5.6-11 1.3-16.6 1.9-.9 4.1-1.9 7.8-2.8 11.2 4.5-2.3 8.9-3.5 13.1-3.5 5.8 0 10.1 1.4 12.9 4.2 2.3 2.3 3.5 5.3 3.5 8.9 0 3.6-1.3 6.6-3.8 9.1-3.8 3.8-11.6 5.5-23.7 5.2l-1.6-6.6c11.1.3 17.8-.7 20.2-3 1.4-1.4 2.1-3 2.1-4.9s-.7-3.5-2.1-4.9-4-2.1-7.7-2.1c-1.9 0-4.5.5-7.7 1.4-3.8 1.1-7.3 3.8-10.8 8.2l-5.4-4.2c.9-.8 1.9-1.8 2.8-3 1.6-5 2.9-10.2 4-15.5-3.4.3-7.2.6-11.2.9l-.7-6.8c2.2 0 4.4-.1 6.6-.2 2.2-.2 4.5-.3 6.8-.5.8-3.4 1.3-7.1 1.6-11l5.6.5c1.1.2 1.7.6 1.8 1.2zm14.6 58.1c0 .3-.3.7-.9 1.2-.2 1.7-.2 3.5-.2 5.4 2.2-.2 4.1 0 5.6.5 2.3.8 4.2 1.9 5.6 3.3 2.2 2.7 3.3 5.2 3.3 7.5 0 2.2-.4 4.1-1.2 5.6-.9 1.9-2.3 3.3-4 4.2-1.7.9-3.4 1.4-5.2 1.4-1.3 0-3-.4-5.4-1.2-2-.8-4-1.8-5.9-3l2.6-4.7c.6.5 1.2.9 1.9 1.2 1.6.8 3 1.3 4.2 1.4 1.1.2 1.9.2 2.3.2.6-.2 1.3-.3 2.1-.5.3-.2.5-.3.7-.5.8-.6 1.2-2 1.4-4 0-.6-.1-1.2-.2-1.6-.2-.8-.5-1.4-.9-1.9-1.6-1.6-3.2-2.3-4.9-2.1-.8 0-1.6.1-2.6.2-3.3.5-7.4 1.8-12.4 4 1.4 7.2 4.2 14.7 8.4 22.5l-6.1 2.8c-3.8-7.7-6.6-15.2-8.4-22.7-2.8 1.3-5.5 2.5-8.2 3.8l-3.3-5.9c3.8-1.7 7.1-3 10.1-4-.6-4.5-1.1-8.4-1.4-11.7l5.9-.5c1.2 0 1.7.4 1.4 1.2-.2.3-.4.6-.7.9-.2 2.3.2 4.9.9 7.7 2.7-1.1 5.3-2 8-2.8l.2-8.9h5.2c1.4.1 2.1.4 2.1 1zm-28.9 50.7c.2.5-.2.9-1.2 1.4-.6 4.4-1 9.5-1.2 15.2-.2 5.3.2 9.9 1.2 13.8.5 2.2 1.3 3.4 2.6 3.5 1.2 0 2.6-1.3 4-4l2.8-5.9 5.9 4.5c-1.1 2.8-2.3 5.4-3.5 7.7-2.3 3.9-5.2 5.8-8.7 5.6-7.3-.8-11-8.5-11-23.2 0-8 .3-15.2.9-21.8l6.3 1.6c1 .3 1.6.8 1.9 1.6zm32.8 30.2c-.5-4.2-1.5-8.4-3-12.7-1.7-4.4-4.5-8.8-8.2-13.4l5.2-3.8c4.1 4.1 7.3 8.6 9.6 13.6 2.3 5.2 3.8 9.9 4.2 14.3l-7.8 2zm-13.3 18.5c.2.5-.2.9-.9 1.4v6.6l19-.7v6.6l-19 .7v6.6l15-.5v6.6l-15 .5v6.6c6.7 1.7 12.9 4.1 18.5 7.3l-3 6.3c-5.3-3-10.5-5.2-15.7-6.8-.8 7.7-5.1 11.5-12.9 11.5-3.8 0-6.6-1-8.7-3-1.7-1.7-2.6-3.8-2.6-6.3 0-2.7.9-4.9 2.8-6.8 2.3-2.3 5.6-3.5 9.8-3.5 1.1 0 2.7.1 4.7.2v-5.2l-17.6.5-.5-6.6 18-.5v-6.3l-21.8.7-.5-6.6 22.3-.7v-9.1h6.1c1.2-.2 1.8.1 2 .5zm-17.4 39.9c-1.3.8-1.9 1.9-1.9 3.3.2 2.5 2.1 3.6 5.9 3.3 1.4-.2 2.7-.6 3.8-1.4 1.1-.8 1.6-2.6 1.6-5.4-2-.5-3.8-.7-5.4-.7-1.7-.1-3 .3-4 .9zm17.9 19.4c.2.5-.2.9-.9 1.4v8.4l20.6-1.2v6.8l-20.6.7v7.3c.9 2.7 1.4 6 1.4 10.1 0 6.3-2 11.4-6.1 15.5-2.2 2.2-4.5 4.1-7 5.6l-6.1-4.2c3.3-2.3 6.1-4.5 8.4-6.6 2.2-2.3 3.4-4.4 3.5-6.1-1.4.8-3.4 1.2-6.1 1.2-2.3 0-4.4-.9-6.1-2.6-1.9-1.9-2.8-3.9-2.8-6.1 0-3.3.9-5.8 2.6-7.5 1.4-1.4 3.1-2.4 5.2-3 1.6-.5 3.7-.5 6.3-.2v-2.8l-24.8 1.6-.9-6.8 25.5-1.2v-11h6.1c1 0 1.6.2 1.8.7zm-14.3 25.8c-.9.8-1.4 1.9-1.4 3.3 0 1.1.4 2.1 1.2 3 .6.8 1.7 1.2 3.3 1.2 1.4 0 2.5-.4 3.3-1.2.9-.9 1.4-2 1.4-3 0-1.1-.5-2.1-1.4-3-.8-.8-1.9-1.2-3.3-1.2-1.3-.1-2.4.2-3.1.9zm2.3 87.1V1384H605v10.3h-10.4zm1.4-15.2l-1.2-36.6h9.8l-1.2 36.6H596z"/></svg>