<svg xmlns="http://www.w3.org/2000/svg" viewBox="0 0 1296 1728"><path fill="#A41B1B" d="M146.4 1694.8c3.6-3.8 4.1-16.8 5.6-22.5.3-2.2.7-3.8 1.1-5.1.4-1.1-.1 1.4-1.1 5.1-.3 1.7-.5 3.6-.8 5.9 1.6-2.9 3.1-5.6 4.4-7.6.1-1.5.2-2.9.3-4.4.6-6.6.7-12.9 1.6-19.4.4-2.4.5-7.5 1.2-9.8l-1.2 28.6c.1-.3.2-.5.3-.8l1.7-15c0-.9.1-1.7.3-2.6l-.3 2.6c-.1 2.2.3 4.4.4 6.8-.1 1.5-.7 3.2-.8 4.7-.1 1.2-.8 2.3-1.3 3.5l-.3 2.2c.1.2.1.5.1.7 3.1-1.9 7.4-20.8 6.8-23.9-.4-2.5-2.9-4.8-3.2-7.6-.1-.9.6-1.7 0-2.4-.4-.1-.7-.4-1-.8-.2-1.9 1.3-3.7.1-5.1-.5-1 5.8-3.8 4.6-4-4.2-.8-1.2-.2-.8-2.6.1-.3-1.6-1.2-1.5-1.8 1.1-1.9-.4-2.5-.9-4.7-1.4-3.3 1.3-4-1.4-6.9-.3-.4-2-4.9-2-4.9.4-3.6-1.7-5.8 1.2-8.6-2.6-3.2.5-7.5 0-10.9-.5-3.4 1.6-4.9 3.5-7.8.3-.9.1-1.5.7-2s-1.1-1.7-.8-2.6c.4.1.8.1 1.2.2.1-.3.3-.9.4-1.1.1-.3.5-.2.9-.1.8.1 1.5.3 2.1-.2.7-1.2 1.2-2.4 1.5-3.7-.6-1.2-1.2-2.5-2-3.7-.5-.1-1.1-.2-1.5-.3-.3-.4-.6-.7-.9-1.1-1.2-.2-2.4-.1-3.2-.3-3.3 0-6.5-1.5-9.5-1.1-.9.1-1.2 2.2-2.7 3.1-.5.2-1.5-.3-2.7-.5 0 1.2-1.3 1.3-2.3.8l-.2.6c-.4-.1-1.5-.3-1.5-.3-1.4 3.1-4.2 6.5-2.8 9.5.2.6 1.1 1.7 1.6 2.4.3.4-.4 1.1-.5 1.4 1.1.5 2.3.4 3.5.6-1.2 2.2-3.2 7 1 6.8-.2 1.8 1.7 2.1 1.9 4 .3 2.5.6 5.6.7 8.6.3 1.7.2 3.3.2 4.9v1.8c.4 12.2-2.8 21.2.3 33.1 6.4 24-3.2 50.4-4.1 56.3l2.1 2zm65.3-20.8c26.8 3.9 117.8 5.1 157.4 7 15.3.5 26.9.9 35.6 1.4 7.4.4-9.7-.2-35.6-1.4-11.6-.4-25.3-.7-41.5-1.2 20.1 1.7 39.4 3.4 53.2 4.8 10.2.2 20.4.4 30.9.6 45.9 1 90.4 1.4 135.8 2.8 16.5.5 52.4.9 68.4 1.8l-200.2-2.9 5.4.3 105.2 2.6c6 .1 12 .2 18.2.4l-18.2-.4c-15.6-.2-30.7.1-47.7 0-10.5-.2-22.5-.9-33-1.1-8.6-.2-16.4-1-24.6-1.5l-15.7-.4c-1.5.1-3.2.1-4.8.1h.2c13 3.2 145.2 8.7 167.2 8.3 17.5-.2 33.5-2.6 52.9-2.7 6.5 0 12 .7 17 .1.5-.4 3-.7 5.5-.9 13-.1 25.9 1.5 35.9.4 7-.4 26.4 6 27.9 4.9 5.5-4.2 1.5-1.1 18-.6 2 .1 8.5-1.6 12.5-1.3 13.5 1.2 17.5-.2 32.9-.6 23-1.2 28 1.6 48.4-.9 2.5-.3 34.4-1.7 34.4-1.7 25 .6 40.4-1.4 59.9 1.8 22.5-2.4 52.4.9 76.4.6 24-.3 34 1.9 54.9 3.9 6 .3 10.5.2 14 .8 3.5.6 12-1 18-.6-.5.4-1 .8-1.5 1.1l8 .4c2 .1 1.5.5 1 .9-1 .8-2 1.5 1.5 2.1 8.3.7 16.9 1.3 25.6 1.7 8.6-.5 17.2-1.1 25.6-1.7.5-.5 1.1-1.1 2.2-1.5 2.5-.3 5-.5 7.5-.8 1.5-1.1 1-2.4 2-3.2 0-3.3 10.5-6.4 8-9.4-1-.9-15.5-1.3-21.9-2.9-1.5-.5 2-1.5 3.5-2.7-8.5-.1-9-1.3-5.5-2.4l-4-.2c.5-.4 2-1.5 2-1.5-21.5-1.6-45.4-4.6-66.4-3.4-4.5.2-12 1-17 1.5-2.5.3-8-.5-10-.6-3.5 1-3 2.3-4.5 3.4-15.5-1.3-48.9-3.6-47.9.6-12.5-.3-15 1.6-28 1.7-17.2.2-39 .2-60.5.2-11.8.2-23.1 0-34.5-.1-4.3 0-8.4 0-12.3-.1-85.4-.3-148.3-4.1-231.6-1.7-168 4.9-352.8-6.2-394.2-7.5l-11.9 1.7zm959.7-116.1c-3.6 3.4-3.9 14.6-5.5 19.6-.3 1.9-.7 3.3-1.1 4.4-.3.9.1-1.2 1.1-4.4.2-1.4.5-3.1.8-5.1-1.5 2.5-3 4.9-4.3 6.6-.1 1.3-.2 2.5-.3 3.8-.5 5.7-.6 11.2-1.5 16.8-.4 2-.4 6.5-1.2 8.5l.9-24.8c-.1.2-.2.4-.3.7l-1.5 13c0 .7-.1 1.5-.3 2.3l.3-2.3c0-1.9-.4-3.8-.5-5.9.1-1.3.6-2.8.7-4.1.1-1.1.8-2 1.3-3.1l.2-1.9c-.1-.2-.1-.4-.2-.6-3.1 1.6-7.2 18.1-6.6 20.8.4 2.2 2.9 4.1 3.3 6.5.1.8-.6 1.5 0 2.1.4.1.7.4 1 .7.2 1.6-1.2 3.2 0 4.4.5.9-5.8 3.3-4.6 3.5 4.3.6 1.2.2.8 2.2-.1.2 1.7 1 1.5 1.5-1 1.7.4 2.2.9 4.1 1.4 2.8-1.3 3.5 1.4 6 .3.3 2.1 4.2 2.1 4.2-.4 3.1 1.8 5-1.2 7.4 2.6 2.8-.4 6.5.1 9.5s-1.6 4.2-3.4 6.8c-.3.7-.1 1.3-.7 1.7-.6.4 1.1 1.5.8 2.2-.4-.1-.8-.1-1.2-.2-.1.2-.3.7-.4 1-.1.2-.5.2-.9.1-.8-.1-1.5-.2-2.1.2-.6 1-1.1 2.1-1.5 3.2.6 1.1 1.3 2.1 2 3.1.5.1 1.1.1 1.5.3l.9.9c1.2.2 2.4.1 3.2.2 3.3 0 6.5 1.2 9.5.9.9-.1 1.1-1.9 2.7-2.7.5-.2 1.5.2 2.7.4 0-1.1 1.2-1.1 2.3-.7.1-.2.2-.5.2-.5.4.1 1.5.2 1.5.2 1.4-2.7 4.2-5.7 2.7-8.3-.2-.6-1.1-1.5-1.7-2.1-.3-.3.4-1 .5-1.2-1.1-.4-2.3-.3-3.5-.5 1.1-1.9 3.1-6.1-1-5.9.2-1.5-1.8-1.8-2-3.4-.3-2.1-.6-4.8-.8-7.5-.3-1.5-.2-2.9-.2-4.3 0-.5 0-1-.1-1.5-.5-10.6 2.7-18.4-.6-28.7-6.6-20.7 2.8-43.7 3.6-48.8l-1.3-1.3zm-17.5 6.3c-28.1-3.6-123.7-4.1-165.3-5.6-16-.3-28.3-.7-37.4-1.1-7.7-.4 10.2.1 37.4 1.1 12.2.3 26.6.5 43.5.8-21.1-1.6-41.4-3.1-55.9-4.4-10.7-.1-21.4-.2-32.4-.3-48.2-.6-94.9-.7-142.6-1.6-17.3-.4-55-.5-71.8-1.2l210.2 1.2-5.7-.3-110.5-1.7c-6.3 0-12.6-.1-19.1-.3l19.1.3c16.4.1 32.3-.3 50.1-.4 11 .1 23.6.7 34.6.8 9 .1 17.3.8 25.8 1.3l16.5.3c1.6-.1 3.3-.1 5.1-.1h-.2c-13.7-3.1-152.5-7.4-175.6-6.8-18.4.4-35.1 2.9-55.6 3.2-6.8.1-12.6-.6-17.8 0-.5.4-3.1.7-5.8 1-13.6.2-27.2-1.3-37.7-.1-7.3.5-27.8-5.8-29.4-4.6-5.7 4.2-1.6 1.2-18.9.8-2.1-.1-8.9 1.6-13.1 1.5-14.1-1.1-18.3.4-34.6.9-24.1 1.4-29.4-1.3-50.8 1.4-2.6.3-36.1 2-36.1 2-26.2-.4-42.4 1.7-62.9-1.2-23.6 2.6-55-.5-80.2 0-25.2.5-35.7-1.6-57.7-3.5-6.3-.3-11-.1-14.7-.7-3.7-.6-12.6 1.1-18.9.8.5-.4 1-.8 1.6-1.2l-8.4-.4c-2.1-.1-1.6-.5-1-.9 1-.8 2.1-1.5-1.6-2.1-8.8-.7-17.7-1.2-26.9-1.5-9.1.6-18 1.2-26.8 2-.5.5-1.1 1.1-2.3 1.5-2.6.3-5.2.6-7.9.9-1.6 1.2-1 2.4-2.1 3.2 0 3.3-11 6.5-8.4 9.5 1 .9 16.2 1.2 23.1 2.7 1.6.5-2.1 1.5-3.7 2.7 8.9 0 9.4 1.3 5.8 2.3l4.2.2c-.5.4-2.1 1.5-2.1 1.5 22.5 1.4 47.7 4.2 69.7 2.8 4.7-.2 12.6-1.1 17.8-1.6 2.6-.3 8.4.4 10.5.5 3.7-1.1 3.1-2.3 4.7-3.5 16.3 1.2 51.4 3.2 50.3-1 13.1.2 15.7-1.7 29.3-1.9 18-.3 40.9-.6 63.5-.7 12.3-.3 24.2-.2 36.2-.2h12.9c89.6-.4 155.7 2.8 243.2-.3 176.3-6.4 370.4 3.2 413.8 4.1l13-2.1z" opacity=".8"/><path stroke="#FFFAFA" stroke-width=".25" stroke-miterlimit="10" d="M172 1605.4v-30.9h24.5v30.9h-5.1v-1.8H177v1.8h-5zm5-18.7h14.3v-7.7H177v7.7zm0 12.4h14.3v-8.2H177v8.2zm28 4.9v-29.1h10.8v27.3h-6.5v1.8H205zm4.4-17.8h2.1v-6.8h-2.1v6.8zm0 11.5h2.1v-7h-2.1v7zm15.5 8l-1.5-4.6-1.1.8c-.5-1-1.9-2.8-4.2-5.2l3.4-2.1h-4.9v-4.5h12v-1.8h-12.1v-4.6h7.5v-2.7h-6.5v-4.4h6.5v-3.7h4.8v3.7h6.9v4.4h-6.9v2.7h8.3v4.6h-3.5v1.8h3.4v4.5h-3.4v7.3c0 2.5-1.2 3.8-3.5 3.8h-5.2zm3.5-11.1h-5.9c1.7 1.4 3 2.8 3.8 4.2l-2.2 1.7h3c1.1.2 1.6-.3 1.4-1.4v-4.5zm50.9-11.7v-3.5c2-.2 3.3-.6 4.1-1.1 1.1-.7 1.9-1.9 2.2-3.8h3.9v29h-4.8V1583h-5.4zm22.6 0v-3.5c2-.2 3.3-.6 4.1-1.1 1.1-.7 1.9-1.9 2.2-3.8h3.9v29h-4.8V1583h-5.4zm20.3 21.4l15.5-32.8 1.8 3-15.6 32.5-1.7-2.7zm25-21.4v-3.5c2-.2 3.3-.6 4.1-1.1 1.1-.7 1.9-1.9 2.2-3.8h3.9v29h-4.8V1583h-5.4zm20.1 14.2v-6l10.5-16.6h4.8v18.1h3.2v4.5h-3.2v6.3h-4.5v-6.3h-10.8zm3.5-4.6h7.3V1581l-7.3 11.5zm44.9-20.1l2.1 2.7c-2.4 1.6-4.3 3.5-5.6 5.8-1.7 3-2.4 6.2-2.2 9.6.2 2.4.8 4.7 2 6.9 1.4 2.5 3.4 4.6 5.9 6.3l-2.1 2.5c-3-1.9-5.3-4.4-7-7.5-1.4-2.7-2.2-5.6-2.2-8.7-.1-3.7.7-7.1 2.5-10.4 1.4-2.9 3.7-5.3 6.6-7.2zm23.2 5.7v-4.9h5.1v9.4c0 2.8.4 5.2 1.3 7 1.2 2.6 2.7 4.8 4.5 6.5 2.1 2.1 4.8 3.8 8.3 5.2l-3 4.6c-2.2-.8-4.4-2.1-6.6-3.7-2.8-2.1-5.2-4.9-7-8.4-1 2.2-2.9 4.6-5.6 7-2.3 2.2-5 3.8-8 5.1l-3-4.9c3.7-1.3 6.6-3.1 8.9-5.3 2.4-2.4 3.9-5.4 4.5-8.9.4-2.7.6-5.6.6-8.7zm-11.7 11.2c.7-1.1 1.3-2.8 1.8-4.9.5-2 .7-3.7.8-5.2l5.3 1.4c-.2 1.5-.6 3.4-1.1 5.6s-1.2 4-1.8 5.2l-5-2.1zm18.6-1.7c2.7-2.4 4.6-5.2 5.6-8.4l4.9 3c-1.5 3.2-3.6 6-6.3 8.4l-4.2-3zm19.5 16c2.5-1.6 4.5-3.6 5.8-6 1.3-2.3 2-4.7 2.1-7.2.2-2.9-.4-5.7-1.7-8.4-1.4-2.8-3.5-5.1-6.2-6.9l2.1-2.7c3 2 5.3 4.5 6.9 7.5 1.6 3 2.4 6 2.4 9.1 0 3.6-.9 7-2.7 10.3-1.6 2.7-3.8 5-6.6 6.9l-2.1-2.6zm35.2-20.7v-3.5c2-.2 3.3-.6 4.1-1.1 1.1-.7 1.9-1.9 2.2-3.8h3.9v29H506V1583h-5.5zm20.7 1.7c0-3.2.8-5.8 2.5-7.7 1.7-1.8 3.7-2.7 6-2.7 4 0 6.6 2.2 7.7 6.5 1.2 4.6-.1 8.5-4.1 11.7l-3.4 3c-1.7 1.5-2.8 2.7-3.4 3.5H538v4.6h-16.9c-.1-4.3 1.6-8 5.2-11.1l3.9-3.4c2.2-2 3.1-4.3 2.7-6.9-.4-1.4-1.1-2.4-2.1-3-.9-.6-2-.5-3.1.1-1.4.8-2.2 2.6-2.4 5.3h-4.1zm25.5-2.2c.5.5.7 1 .7 1.7s-.2 1.2-.7 1.7c-.6.6-1.2.8-1.8.8-.7 0-1.3-.3-1.8-.8s-.7-1-.7-1.7.2-1.2.7-1.7c.6-.6 1.2-.8 1.8-.8.7-.1 1.3.2 1.8.8zm0 14c.5.5.7 1 .7 1.7s-.2 1.2-.7 1.7c-.6.6-1.2.8-1.8.8-.7 0-1.3-.3-1.8-.8s-.7-1-.7-1.7.2-1.2.7-1.7c.6-.6 1.2-.8 1.8-.8.7 0 1.3.3 1.8.8zm5.4-11.8c0-3.2.8-5.8 2.5-7.7 1.7-1.8 3.7-2.7 6-2.7 4 0 6.6 2.2 7.7 6.5 1.2 4.6-.1 8.5-4.1 11.7l-3.4 3c-1.7 1.5-2.8 2.7-3.4 3.5H569v4.6h-16.9c-.1-4.3 1.6-8 5.2-11.1l3.9-3.4c2.2-2 3.1-4.3 2.7-6.9-.4-1.4-1.1-2.4-2.1-3-.9-.6-2-.5-3.1.1-1.4.8-2.2 2.6-2.4 5.3h-4.2zm21.4 5.8c-.1-4.8.8-8.7 2.8-11.8 1.8-2.9 4.1-4.4 7-4.4 2.7 0 4.9 1.2 6.5 3.7 1.8 2.4 2.7 5.7 2.8 9.8.3 4.8-.5 8.7-2.4 11.7-1.8 2.9-4.1 4.4-6.9 4.4-2.7 0-5-1.2-6.8-3.5-1.8-2.5-2.8-5.8-3-9.9zm9.2 8.8c1.7.3 3-.5 4.1-2.4.7-1.5 1.2-3.6 1.4-6.2.2-3.1-.1-5.8-.8-8-.8-2.4-2-3.7-3.5-3.9-1.8-.3-3.1.4-4.1 2-.9 1.7-1.5 3.9-1.7 6.6-.2 3.2.1 5.9 1 8.2s2 3.5 3.6 3.7zm23.4-8.8c1.9-2.4 3.9-4.1 6-4.9 2.6-.9 5.4-.6 8.4 1l3.2 1.8c1.9 1.1 3.7 1.2 5.6.3 1.1-.5 2.6-1.7 4.5-3.7l2.8 3.5c-4.4 5.3-8.9 6.7-13.4 4.4l-3.5-1.8c-4.3-2.2-8-1.3-11.1 2.8l-2.5-3.4zm-428.6 59.3h23.2v3.8h-13.9l-1.4 1.3h14.5l-.6 8.7c-.1 1.9-.4 3-.8 3.5-.7.9-1.8 1.4-3.4 1.4H191l-1.7-3.4c-2 1.8-4.6 3.2-7.9 4.2l-3.1-3.2c2.4-.7 4.8-1.8 7.2-3.4 2.1-1.4 3.4-2.7 3.9-3.8h-1.3c-.8 1.2-2.3 2.6-4.6 4.2-1.8 1.2-4.4 2.3-7.7 3.2l-2.8-3.8c1.7-.2 3.4-.6 5.2-1.3 2.1-.7 3.5-1.5 4.2-2.4h-2.1c-.3.3-.8.7-1.7 1.1-.8.5-1.5.8-1.8.8l-1-1.3c-2.1 1-4.3 1.9-6.8 2.7l-1.5-4.8 3.5-1.1v-8h-3v-4.4h3v-7.7h4.9v7.7h2.2v4.4h-2.2v6.2l1.3-.7.8 2c.3-.1.7-.4 1.4-.8.8-.7 1.4-1.1 1.5-1.4h-3.5v-3.7zm2.4-.8v-12.2h18.3v12.2h-18.3zm4.9-7.5h8.6v-1.1h-8.6v1.1zm0 3.8h8.6v-1.1h-8.6v1.1zm5.6 18.7h2.2c1 0 1.6-.7 1.7-2l.3-3.1h-.4c-.8 1.9-2.1 3.6-3.8 5.1zm15.5-10.2v-10h13.6v12.9h-4.9v-.7h-3.9c0 2.2-.3 4.5-.8 6.9-.5 1.9-1.4 3.8-2.8 5.8l-3.5-4.6c.9-1.2 1.6-2.9 2-4.9.1-1.6.3-3.4.3-5.4zm14.3-12h-15.6v-4.6h15.6v4.6zm-9.5 9.7h3.9v-3.5h-3.9v3.5zm9.9-2.8v-11.2l2.7.7c1.2 0 2.9-.2 5.1-.7 2.3-.6 4.1-1.1 5.3-1.7l2.8 4.5c-2.1 1-5.7 1.8-11 2.2v4.1h11v4.8h-3.2v17.3h-5.1v-17.3h-2.7l-.1 2.4c-.2 3.2-.8 6-1.7 8.4-.9 2.3-2.6 4.5-5.1 6.6l-3.9-4.5c2.5-2.2 4.2-4.3 4.9-6.3.7-1.1 1-4.2 1-9.3zm54.6 17.9l7.3-29h5.1l7.2 29h-4.6l-1.3-6.2h-7.6l-1.3 6.2h-4.8zm7-10.6h5.6l-2.8-12.1-2.8 12.1zm24.5-8.8v-4.5h3.8v-6.6h5.1v6.6h1.8v-3.8h8v-2.8h5.2v2.8h7.7v4.1h-7.7v1.5h6.6v12.8h-3.8c1.1 2 3.1 4 5.9 6l-3 4.8c-2.2-1.7-4.2-3.8-5.8-6.5v6.9h-5.2v-7.5c-.4 1-1.2 2.2-2.4 3.7s-2.5 2.6-3.8 3.2l-2.8-4.5c3-1.8 5.1-3.8 6.2-6.2h-3.9v-3.8l-1.5 3.7-1.5-2.2v13.8h-5.1v-10.8c-.5 1.2-1.2 2.3-2.1 3.2l-2.7-5.1c.8-.8 1.7-2.2 2.7-4.1 1.1-2.2 1.8-3.7 2.1-4.8h-3.8zm12 4.2v-6.9h6.8v-1.5h-7.7v4.2h-2c.8 1.5 1.8 3 2.9 4.2zm5-2h1.7v-1.4h-1.7v1.4zm0 4.4h1.7v-1.4h-1.7v1.4zm6.9-4.4h1.7v-1.4h-1.7v1.4zm0 4.4h1.7v-1.4h-1.7v1.4zm18.8-16.6l4.9 1c-1.6 5.5-2.2 10.2-2 14.1.7-1.7 1.3-3.2 2-4.6l3.4 2.1c-1.8 3.6-3 6.5-3.8 8.7l-4.6 1c-1.3-3.9-1.8-8-1.5-12.2.1-2.9.7-6.2 1.6-10.1zm6.1 26.4c5.2-1.7 8.1-5.1 8.9-10.1.7-4.9.5-10.3-.4-16.3h5.3c.7 6.3.8 11.4.4 15.3-.4 3.7-1.4 6.8-3.1 9.4-2 2.9-4.5 4.9-7.7 6l-3.4-4.3zm24.3-14.3c2.8-.3 5.6-.6 8.4-1l6.8-5.8c-3.1.4-6.1.7-9.1 1l-.7-4.9c5.2-.3 10.9-.8 17-1.5l1.7 4.2-7.3 6.2 12-1.8.7 4.8-4.8.6c-2.1.3-3.9 1-5.6 2.2-1.7 1.3-2.8 2.9-3.4 4.6-.8 2.5.1 4.1 2.5 4.8 1.4.4 3.7.4 6.8.1l-.7 4.8c-3.8.2-6.3.2-7.6 0-2.5-.4-4.4-1.5-5.6-3.5-1-1.6-1.3-3.6-.8-5.9.5-2.2 1.5-4.1 3.1-5.6l-12.4 1.8-1-5.1zm36.6 11.2c2.7-4.2 4.8-8.5 6.2-12.9-2.2.3-3.8.4-4.8.4l-.4-4.9c2.1 0 4.2-.1 6.5-.4.4-1 .8-2.8 1.3-5.3l5.2 1c-.3 1.3-.7 2.6-1.1 3.8 1.1-.1 2.5-.3 4.1-.7l.6 4.8c-2 .4-3.9.7-5.8.8-1.8 5.7-4.2 11.1-7.2 16l-4.6-2.6zm16.3-3.2c-.1-3.2.5-5.8 1.7-7.7l4.2 2.1c-1.1 1.9-1.5 4-1 6.5 2.7.9 5.1 2.1 7.2 3.5l-2.5 3.7c-2.1-1.5-3.7-2.4-4.8-2.8.3 2.8-1 4.5-3.9 5.1-1.9.4-3.6.4-5.2 0-2.1-.5-3.5-1.4-4.2-2.8-1.2-2.3-.9-4.3.8-5.9 1.7-1.8 4.3-2.3 7.7-1.7zm.3 3.9c-.9-.2-1.8-.3-2.5-.3-1.1-.1-1.8.1-2.1.6-.6.8-.3 1.5.8 1.8 1 .4 2 .4 2.8.1s1.2-1 1-2.2zm1.5-13.9l2.5-4.1c3.8 1.7 6.6 3 8.3 4.1l-2.7 4.4c-3.5-2.1-6.2-3.6-8.1-4.4zm24.1 19.3l7.3-29h5.1l7.2 29h-4.6l-1.3-6.2h-7.6l-1.3 6.2h-4.8zm7-10.6h5.6l-2.8-12.1-2.8 12.1zm14.3-13.8v-4.6h17.9v4.6h-6.6v24.3h-4.5v-24.3h-6.8zm20.9-4.6h6.3l4.8 21.2 4.6-21.2h6.5v29h-4.4v-20.7l-4.4 20.7h-4.9l-4.4-20.7v20.7h-4.2v-29zm42.7-1.3v6.6h2.5v1.8h4.2v-2.2h-3.7v-3.9h3.7v-2.1h4.9v2.1h2.8v-2.1h4.9v2.1h3.4v3.9h-3.4v2.1h5.2v3.9h-9v1.3h7v12.9h-3.4c1.5.8 3.5 1.5 5.9 2l-2.2 4.1c-2.9-.7-5.6-1.9-8.2-3.8l2.1-2.2h-7l2.4 2c-2.1 2.2-4.8 3.5-8.2 4.1l-2.5-3.9c1-.2 2.2-.5 3.4-1 1.2-.5 1.9-.8 2.1-1.1h-3.1v-12.9h6.9v-1.3h-8.6v-1.3h-2c1 1.6 2.1 3.1 3.1 4.5l-2 5.2-1.3-2.4v14.1h-4.6v-10.8l-1.5 3.7-2.1-5.6c.6-.9 1.2-2.4 2-4.5.7-2.1 1.2-3.4 1.3-4.1h-2.8v-4.4h3.2v-6.6h4.6zm8.7 18.3h2v-1.3h-2v1.3zm0 4.6h2v-1.5h-2v1.5zm3-14.4h2.8v-2.2h-2.8v2.2zm3.8 9.8h2.1v-1.3H559v1.3zm0 4.6h2.1v-1.5H559v1.5zm14.6-5.3v-5.1h10v-4.8h-6.9v-4.9h22.5v4.9h-10v4.8h12.9v5.1h-12.9v5.8c0 .9.4 1.4 1.1 1.4h9.6l-.3 4.9h-10c-4 0-6-1.7-6-5.2v-6.9h-10zm36 9.1v-4.6h28.7v4.6h-28.7zm3.2-16.1v-4.8H635v4.8h-22.2zm33.6 4c2.6-2 4.8-4.1 6.6-6.3 1.4-1.9 2.9-4.4 4.5-7.6l4.9 2.1c-.4.7-1 1.8-2 3.4h8.3l.4-.7 3.9 2.4c-1.8 4.4-3.8 8.2-6 11.2 1.3 1 2.3 1.9 3.1 2.7l-3.2 4.1-1.5-1.5c-.6-.6-1.1-1-1.5-1.3-3.2 3.7-7.4 6.5-12.5 8.6l-3.1-4.6c5.4-2.1 9.3-4.4 11.7-6.9-1.8-1.3-3.5-2.4-5.1-3.2l3.2-3.8c1.1.6 2.8 1.6 5.1 3.1 1.4-1.8 2.3-3.5 2.8-5.1h-8.7c-2.4 3.1-4.9 5.6-7.5 7.5l-3.4-4.1zm36-.8h27.3v4.8h-27.3v-4.8zm49.7 6.8c-1.1 0-2.2-.5-3.1-1.4-.8-.8-1.3-1.8-1.3-3s.4-2.1 1.3-3c.9-.9 2-1.4 3.1-1.4s2.2.5 3.1 1.4c.8.8 1.3 1.8 1.3 3s-.4 2.1-1.3 3c-1 .9-2 1.4-3.1 1.4zm20 9.7v-29h15.8v4.4h-11.2v7.2h10v4.5h-10v8.6h11.5v4.4h-16.1zm28.4-19.4v-4.5h3.8v-6.6h5.1v6.6h1.8v-3.8h8v-2.8h5.2v2.8h7.7v4.1h-7.7v1.5h6.6v12.8h-3.8c1.1 2 3.1 4 5.9 6l-3 4.8c-2.2-1.7-4.2-3.8-5.8-6.5v6.9h-5.2v-7.5c-.4 1-1.2 2.2-2.4 3.7s-2.5 2.6-3.8 3.2l-2.8-4.5c3-1.8 5.1-3.8 6.2-6.2h-3.9v-3.8l-1.5 3.7-1.5-2.2v13.8h-5.1v-10.8c-.5 1.2-1.2 2.3-2.1 3.2l-2.7-5.1c.8-.8 1.7-2.2 2.7-4.1 1.1-2.2 1.8-3.7 2.1-4.8h-3.8zm11.9 4.2v-6.9h6.8v-1.5h-7.7v4.2h-2c.9 1.5 1.9 3 2.9 4.2zm5.1-2h1.7v-1.4h-1.7v1.4zm0 4.4h1.7v-1.4h-1.7v1.4zm6.9-4.4h1.7v-1.4h-1.7v1.4zm0 4.4h1.7v-1.4h-1.7v1.4zm15.4 9.7v-4.9h19.5v-12h-19.1v-4.9h24.3v23.2h-5.2v-1.4h-19.5zm36.5-3.6l1.5-4.6c5.9 1.2 13.3 3.4 22.1 6.6l-1.8 4.8c-8.5-3.3-15.7-5.5-21.8-6.8zm2.5-18l1.5-4.8c5.9 1.1 11.9 2.7 18 4.8l-1.8 4.9c-6.6-2.5-12.5-4.1-17.7-4.9zm1 8.8l1.4-4.6c4.9 1.3 10 3 15.5 4.9l-1.7 4.8c-5.7-2.4-10.7-4.1-15.2-5.1zm33.7 9.2h11.8l1.4-9.7h-9.8v-3.9h15.3l-2.2 13.6h5.2v4.1h-21.7v-4.1zm32.5 3.1v-4.6h28.7v4.6H926zm3.2-16.1v-4.8h22.2v4.8h-22.2zm33.4.3h27.7v5.2h-10.4c-.1 3.6-1.1 6.7-3 9.3-2 2.8-4.7 4.9-8.3 6.3l-3.5-4.2c3-1.1 5.2-2.5 6.6-4.1 1.7-2 2.6-4.5 2.7-7.5h-11.8v-5zm3.6-8.3h20.4v4.9h-20.4v-4.9zm35.7 16.7c7.8-3.4 13.5-7.3 17.3-11.8l3.4 2.7c-2.4 2.9-4.5 4.9-6.2 5.9v14.9h-4.5v-11.7c-2.3 1.4-4.7 2.7-7.2 3.9l-2.8-3.9zm31 6c4.6-3.2 6.9-7.4 6.9-12.5v-9.8h5.2v8.3c0 3.8-.7 7.2-2 10.4-1.5 3.5-3.7 6.1-6.5 8l-3.6-4.4zm14.6 1.3l.4-.6V1638h5.3v19.8c2.2-2.1 4.8-5.2 7.7-9.3l3.4 4.6c-3.7 4.9-8 9.3-13.1 13.4l-3.7-3.7zm23.4-12.8h27.3v4.8h-27.3v-4.8zm34.7 10.1l3.5-.1c3-6.5 5.8-13.9 8.3-22.2l5.6 1.5c-2.4 6.8-5.1 13.5-8 20.1 4.4-.3 8.3-.7 11.8-1.4-1.2-2.1-2.5-4-3.8-5.9l4.2-3c2.3 3.3 5.2 7.9 8.6 13.8l-4.6 3-1.7-3c-6.3.9-13.9 1.7-22.8 2.4l-1.1-5.2z"/></svg>