<svg xmlns="http://www.w3.org/2000/svg" viewBox="0 0 1735.96 972.95"><defs><style>.cls-1{fill:#fbd075;}.cls-2{fill:#fdfdfd;}.cls-3{fill:#fefefe;}.cls-4{fill:none;}</style></defs><title>smoke</title><g id="レイヤー_1" data-name="レイヤー 1"><path class="cls-1" d="M7838.15,7241.88c-1.18,7.68-3.74,14.39-8.51,20.11-6.93,8.33-16.3,13-26.94,15.57-14.38,3.53-29.08,3.25-43.87.81-17.82-2.94-34.81-8.42-50.28-18.21-8.88-5.62-16.38-12.4-21.13-21.85-1.89-3.77-5.73-6.5-7.72-10.51a61.72,61.72,0,0,1-28.51,10.71c-13.07,1.5-25.91-.44-38.36-4.92a150.92,150.92,0,0,1-72.2-53.93c-6.44-8.8-13.25-17.46-17.94-27.33-3.11-6.53-5.45-13.21-5.88-20.33-.06-1.08-.15-1.7-1.6-1.87-18.2-2.08-32.78-11.3-45.81-23.46a78.41,78.41,0,0,1-11.13-12.29c-7.34-10.49-15.55-20.49-21.16-32-5.92-12.12-9.42-24.64-8-37.88a41.45,41.45,0,0,1,11.46-25c1.11-1.17,1.37-1.71-.13-3a71.52,71.52,0,0,1-15.67-19,64,64,0,0,0-4.38-5.84c-11.91-16.19-15.33-33.95-11.92-52.53,5.5-30,21.12-53.59,47.67-69.67,9.51-5.76,20.1-8.74,31.89-6.76a33.58,33.58,0,0,1,14.55,6.11c.51.37,1.08.64,1.91,1.13a102.78,102.78,0,0,1,2.48-15.52c6.56-24.9,23.51-39,49.4-43.55,18.34-3.21,36.56-.8,54.52,4.89,14.37,4.56,27.74,11.1,39.45,20.74a67.29,67.29,0,0,1,16.08,18.95c2.33,4.11,6,7.44,8.34,11.65.79,1.46,1.48.05,2-.37a61.58,61.58,0,0,1,14.57-8.86c15.61-6.7,32.18-7.36,49.08-4.22,31.39,5.84,58.59,19.85,80.87,42.86a67.91,67.91,0,0,1,10.06,13.42c1.53,2.67,3.67,4.93,5.46,7.41a50.6,50.6,0,0,1,7.71,14.44c.52,1.67,1.17,1.93,2.84,1.71,17.31-2.32,34.43-1.06,51.24,5.12,22.63,8.31,40.15,22.73,53.18,42.43,4.82,7.29,10.48,14.08,14.36,21.93,6.3,12.73,10.51,25.78,8.93,39.8a30.27,30.27,0,0,1-2.28,9c-.55,1.25-.21,1.81.8,2.54,9.67,7,16.88,15.88,23.23,25.68,4.21,6.49,9.18,12.55,12.4,19.6,9.71,21.27,11.76,42.79,4.73,64.34-4.72,14.49-13.49,26-28.18,32.45a45.49,45.49,0,0,1-16.37,3.83c-2,.09-2.3.56-1.78,2.45,4.37,15.89,2.66,30.79-6.19,44.36-6.71,10.28-16.08,17.86-27.15,23.5-18.73,9.52-38.84,13.53-60.51,10.55-10.26-1.41-19.91-4.64-28.18-11.33A41.72,41.72,0,0,1,7838.15,7241.88Z" transform="translate(-6328.68 -6714.11)"/><path class="cls-2" d="M7715.86,7251.12c-8.52-4.4-17.77-10.12-24.27-19.13-3.89-5.39-6-11.18-4.9-17.57.37-2.17,0-4.06-2.25-5.28s-4.16-.5-5.79.88a58.09,58.09,0,0,1-14.44,9.16c-13.91,6-28.62,6.26-43.78,2.73-14.77-3.43-28.23-10-41-18.09a148.17,148.17,0,0,1-44.1-42.34c-4.89-7.25-8.68-15-10.35-23.38-1.23-6.16-1-12.08,2.14-17.53,1-1.71,1.47-3.6-.12-5.42a5.52,5.52,0,0,0-5.57-1.65c-11.93,2.38-23.23-.5-34-6.18-23.65-12.51-39.59-31.34-48.89-55.13-4.37-11.16-6-22.62-2.51-33.93a37.65,37.65,0,0,1,13.36-19.38c3.69-2.84,3.31-6.2-.89-8.64-28.07-16.4-40.85-40.88-35.54-70.76,5-28.24,19.89-50.6,45-65.81,8.52-5.15,18-8,28.74-6.76a31.67,31.67,0,0,1,14.39,5.75c1.87,1.29,3.74,2.7,6.09,1.69s2.66-3,2.8-5.19c.88-13.29,4.73-25.45,13.48-35.57,8.07-9.32,18.85-14.71,31.32-17.19,22.25-4.43,44.09-1,65.57,7.54,13,5.19,25.19,11.84,35.2,21.75,8.14,8.06,14,17.09,13.63,28.5a4,4,0,0,0,2.76,4,4.91,4.91,0,0,0,5.65-1.39,56.05,56.05,0,0,1,17.67-12.62c13.93-6.31,29-7.42,44.43-5,33,5.23,61.53,19.55,84.79,43.68,6.74,7,11.85,15,13.83,24.36a24,24,0,0,1,.17,8.9c-.76,4.73,2,7.26,6.9,6.21a103.27,103.27,0,0,1,29.4-2.27c38.34,2.88,66.56,21.51,85.47,53.95,6.69,11.48,10.6,23.73,10,36.73a28.83,28.83,0,0,1-5.7,16.44c-2,2.71-1.18,5.59,2.22,7.18,16.45,7.72,28.84,19.45,37,35,10.95,21,13.78,42.49,7,64.15-4.12,13.1-11.67,23.86-24.93,30a45.88,45.88,0,0,1-16.72,4.1c-5.28.32-6.82,2.39-5.35,7.39,2.48,8.46,3.18,16.92,1.29,25.28-3.38,14.87-12.5,25.84-25.42,33.88-19.22,11.94-40.7,16.89-64.37,14.13-10.47-1.22-20.28-4.58-28.66-11.43a30,30,0,0,1-5.25-5.68c-1.36-1.88-3.08-3.07-5.41-2.64s-3,2.12-3.3,4.18c-2.34,15.2-11.78,24.59-26.4,29.58-12.82,4.37-26.31,4.83-40.05,3.43A144.34,144.34,0,0,1,7715.86,7251.12Z" transform="translate(-6328.68 -6714.11)"/><path class="cls-1" d="M7294.05,6868.94c-4.12-1.45-8.07-3.14-10.14-7.49-.41-.87-1.18-.6-1.86-.68a15.92,15.92,0,0,1-8.15-3,8.2,8.2,0,0,0-2.95-1.13,12.9,12.9,0,0,1-7.59-6,2.43,2.43,0,0,0-2.23-1.49c-11.82-.48-16.59-12.35-12-22.45,1.07-2.33,3.48-4.1,3.82-6.37.32-2.12-1.73-4.35-2.15-6.79-1.45-8.33,3.86-15.56,12.17-16.5,6.37-.72,11.51,1.43,15.27,6.76,1,1.36,1.64,1.7,2.76.17,5.85-8.05,15.57-7.56,22.65-.47a11.87,11.87,0,0,0,5.72,3.35c8.54,2.19,15.28,11.18,13.31,18.84-1.1,4.27,0,5.65,3.26,7.68,5,3.12,6.22,9,3.76,14.32-2.63,5.67-8.36,8.69-13.95,7.33-.43-.1-.85-.22-1.29-.33-.45,7.88-3.22,11.3-10.77,13.49-.73.21-1.63,0-2.2.72Z" transform="translate(-6328.68 -6714.11)"/><path class="cls-3" d="M7290.65,6864.08c-7.93.05-11.7-2.8-13.73-10-.95-3.38-3.34-4.74-6.87-4-1.11.24-2.25.34-3.37.53-10.84,1.79-17-7.16-13.2-17.45a17.5,17.5,0,0,1,3.56-5.79c2.4-2.63,2.61-5.28,1-8.48-3.6-7-2.44-12.41,3.16-16.1,6.16-4.08,14.52-2,18.88,4.82,1.4,2.2,3,3.75,5.72,3.42a4.41,4.41,0,0,0,3.61-2.13c6-10.72,17.22-7.23,22.95,1,2.61,3.77,3.48,7.82,1.13,12.27-1.84,3.49-.7,5.93,3,7.79s7.49,3.83,7.45,8.92a9.78,9.78,0,0,1-11.92,9.35c-5.65-1.37-8.15.61-7.35,6.17.49,3.44-1.4,5.26-3.82,6.8A16.94,16.94,0,0,1,7290.65,6864.08Z" transform="translate(-6328.68 -6714.11)"/><path class="cls-1" d="M6833.19,6833.3c-6.38,2.91-12.84,5.35-20.06,2.62-1.44-.55-2,.63-2.9,1.28-3.8,2.84-7.86,5.18-12.71,5.66-1.83.18-3.17,1.22-4.68,2a20.65,20.65,0,0,1-15.44,1.51,3.89,3.89,0,0,0-4.24.76c-14.2,12.58-32.91,4.18-38.82-12.64-1.36-3.87-.55-8.6-2.67-11.6-2-2.81-6.84-3.11-10-5.46-10.94-8-12.84-22.28-4.28-32.61,6.55-7.92,14.89-11.16,25.16-9.18,2.64.51,3.79.14,3.38-2.87-2.18-15.81,9.6-26.06,25.66-25.74a19,19,0,0,0,10.34-2.49c12.3-7,30.09-4.07,36.34,7,3.48,6.15,6.29,6.52,12.31,5.24,9.27-2,17.21,3.49,20.28,12.37,3.27,9.48,0,19.34-8,24l-1.86,1c8.24,9.62,8.85,16.65,2.55,27.58-.61,1.06-1.93,1.77-1.73,3.28Z" transform="translate(-6328.68 -6714.11)"/><path class="cls-3" d="M6823.85,6831.46c-9.12,8.88-16.65,9.77-27,3.7-4.85-2.85-9.13-1.77-12.37,3-1,1.51-2.23,2.89-3.32,4.36-10.53,14.13-27.58,10.6-34.67-5.49a28.3,28.3,0,0,1-2.31-10.65c-.16-5.71-2.86-9-8.33-10.87-11.95-4.08-16.62-11.64-14.27-22.13,2.6-11.57,14.56-18.47,27.2-15.43,4.06,1,7.59,1,10.41-2.4,1.52-1.85,2.46-4,1.81-6.49-5-19,11.85-27.5,27.67-24.32,7.23,1.45,12.73,5.17,15,12.92,1.76,6.08,5.79,7.64,12.1,5.7s12.93-3.9,18.54,2a15.69,15.69,0,0,1-3.38,24.07c-8.06,4.7-8.74,9.79-1.64,15.31,4.4,3.43,4.24,7.64,3.16,12.12A27.22,27.22,0,0,1,6823.85,6831.46Z" transform="translate(-6328.68 -6714.11)"/><path class="cls-1" d="M8026.46,7310.79c-6.38,2.91-12.83,5.35-20.06,2.62-1.44-.55-2,.63-2.9,1.28-3.8,2.84-7.85,5.18-12.71,5.66-1.83.18-3.16,1.22-4.67,2a20.68,20.68,0,0,1-15.45,1.51,3.89,3.89,0,0,0-4.24.76c-14.2,12.58-32.91,4.18-38.81-12.64-1.36-3.87-.55-8.6-2.68-11.6-2-2.81-6.84-3.11-10-5.45-10.94-8-12.84-22.29-4.28-32.62,6.55-7.92,14.89-11.16,25.16-9.18,2.64.51,3.79.14,3.38-2.87-2.18-15.81,9.6-26.06,25.66-25.74a19,19,0,0,0,10.34-2.49c12.31-7,30.09-4.07,36.34,7,3.48,6.16,6.29,6.52,12.32,5.24,9.26-2,17.2,3.5,20.27,12.37,3.27,9.48,0,19.35-8,24-.6.35-1.23.69-1.86,1,8.24,9.62,8.85,16.65,2.56,27.58-.62,1.06-1.94,1.77-1.74,3.28Z" transform="translate(-6328.68 -6714.11)"/><path class="cls-3" d="M8017.12,7309c-9.12,8.89-16.64,9.78-27,3.7-4.85-2.84-9.13-1.77-12.37,3-1,1.51-2.23,2.89-3.32,4.36-10.53,14.13-27.57,10.6-34.67-5.49a28.25,28.25,0,0,1-2.31-10.65c-.15-5.71-2.86-9-8.32-10.87-12-4.08-16.63-11.64-14.27-22.13,2.6-11.57,14.55-18.47,27.19-15.43,4.06,1,7.59,1,10.41-2.4,1.52-1.85,2.46-4,1.81-6.49-5-19,11.86-27.5,27.67-24.32,7.23,1.45,12.73,5.17,15,12.92,1.76,6.08,5.78,7.64,12.09,5.7s12.93-3.9,18.54,2a15.69,15.69,0,0,1-3.38,24.07c-8.06,4.7-8.74,9.79-1.63,15.31,4.39,3.43,4.23,7.64,3.15,12.12A27.16,27.16,0,0,1,8017.12,7309Z" transform="translate(-6328.68 -6714.11)"/><path class="cls-1" d="M6807.8,7254.14a87.08,87.08,0,0,1,.25,27.8,76,76,0,0,1-13.42,32.76,78.47,78.47,0,0,1-29.09,25.14c-12.77,6.46-25.74,9.54-39,6.84-7.6-1.55-14.61-5.21-20.57-13.44-2.38-3.29-5.75-4.3-8.26-7.82-4,11.53-9.23,20.88-15.9,28.05-8.29,8.94-17.45,13.79-27.08,15.53-23,4.14-44.47-3.41-64.16-22.11-6.9-6.55-14-12.75-20-21.49a70.38,70.38,0,0,1-9.92-20.12c-.36-1.2-.61-1.86-1.62-1.25-12.78,7.65-25.24,5.1-37.54-1.67a47.61,47.61,0,0,1-11.06-8c-8-8-16.43-15-23.58-25.07a97,97,0,0,1-16.53-39.09,90.59,90.59,0,0,1,.28-35.07c.4-2,.41-2.72-1-3.36-5.86-2.74-11.21-7.17-16.07-13.15-1.41-1.74-3.11-2.83-4.65-4.29-12.73-12-20.26-30.54-23.46-53.77-5.16-37.48-1.68-73.22,11.33-106.34,4.65-11.87,10.85-21.14,19.31-25.38a14.63,14.63,0,0,1,11.53-1,12.86,12.86,0,0,0,1.61.25c-1.21-6.5-2.32-12.73-2.92-19.2-3-32.23,4.22-57.8,20.18-77.3,11.31-13.81,24.2-21.11,37.88-24.48,10.95-2.69,21.81-2.55,32.47,2.05a42.67,42.67,0,0,1,16.35,12.89c2.76,3.44,6.22,5.21,9,8.78,1,1.24,1-.76,1.23-1.53a100.1,100.1,0,0,1,7.12-18.22c8.46-16.31,19.34-26.22,31.57-31.94,22.7-10.61,45-9.54,66.68,4.6a47.28,47.28,0,0,1,10.68,9.87c1.81,2.22,3.9,3.64,5.83,5.5a46.15,46.15,0,0,1,9.41,12.33c.84,1.63,1.36,1.57,2.41.39,10.88-12.21,22.69-20.21,35.75-22.4,17.57-2.95,33.53,3.95,48.05,19.39,5.37,5.71,11.16,10.39,16.06,17.26,8,11.16,14.63,23.82,17.71,40.81a63.86,63.86,0,0,1,1.14,11.63c0,1.74.39,2.2,1.29,2.48,8.51,2.67,16,8.92,23.09,16.67,4.73,5.14,9.83,9.36,14.06,15.68,12.77,19.07,20.48,42.67,22.14,71.3,1.11,19.25-1.36,37.31-9.27,52.84a47.38,47.38,0,0,1-9.81,13.44c-1.3,1.2-1.37,1.9-.47,3.79,7.6,15.84,10.86,33.91,8.94,54.38a129.47,129.47,0,0,1-11.21,42c-9.71,21.28-22,37-37.33,45.53-7.28,4-14.68,5.65-22.18,2.53A24.52,24.52,0,0,1,6807.8,7254.14Z" transform="translate(-6328.68 -6714.11)"/><path class="cls-2" d="M6728.79,7332.25c-7-.35-14.85-1.81-21.86-8.57-4.19-4.05-7.29-9.55-8.45-17.48-.4-2.7-1.21-4.66-3.07-4.82s-2.92,1.72-3.6,4.2a96.32,96.32,0,0,1-7,18.5c-7.53,14.59-17.29,23-28.46,27.3-10.88,4.21-21.81,4.13-32.75,1.86-15.17-3.16-29.21-11-41.95-24.29a66.72,66.72,0,0,1-13.82-21.15,47.38,47.38,0,0,1-3.74-21.32c.15-2.51-.07-4.95-1.67-6.16s-2.94-.45-4.21,1.18c-7.28,9.31-15.68,12.25-24.53,11.65-19.5-1.31-35.7-14.15-48.94-36.34a83.33,83.33,0,0,1-11.68-37.59,80.82,80.82,0,0,1,3.22-29.64c1.63-5.31.38-8.95-3.14-9.45-23.6-3.34-39.36-24.4-44.62-61.66-5-35.21-1.62-69.1,10.7-100.46,4.18-10.63,9.69-19.19,17.22-23.64a13.93,13.93,0,0,1,11.3-1.34c1.64.46,3.31,1,4.58-1.41s.88-4.94.34-7.51c-3.33-15.75-4.35-31.84-1.48-48.3,2.64-15.16,8.26-27.31,15.86-37,13.57-17.38,29.17-25.48,46.05-27.53,10.25-1.25,20.33-.31,29.93,5.55,7.82,4.76,14.39,11.92,17.52,25.21.51,2.15,1.59,3.33,3,3.09,1.75-.27,2.82-2,3.37-4.71a98.33,98.33,0,0,1,8.09-24.25c7.45-14.95,17.18-24.52,28.23-30.24,23.6-12.21,46.89-11.51,69.55,3.38,6.57,4.32,12.34,10.68,16.43,20.35a42.49,42.49,0,0,1,2.73,10.12c.89,5.86,3.47,7.25,6.45,3.33,5.82-7.66,12.08-14.19,19-18.84,26.47-17.85,50.82-12,73,14.81,7.86,9.49,14.09,21.4,17.53,36.66a62,62,0,0,1,1,22c-.56,4.23.87,7.07,3.61,7,13.27-.22,25,6.42,35,19.82,13.5,18,21.74,41.21,23.57,69.84,1.11,17.33-.76,33.86-7.8,48.25a48.5,48.5,0,0,1-10,13.94c-3.43,3.29-3.85,6.51-1.39,11.45a83.8,83.8,0,0,1,8.31,28.32,111.28,111.28,0,0,1-7,52.95c-9.32,24.33-22.21,41.88-38.85,51.78-7.36,4.38-14.9,5.93-22.52,2.68a17.39,17.39,0,0,1-5.18-3.62c-1.47-1.42-3-1.83-4.4-.05s-1.37,4.08-1,6.63c2.91,18.75-.63,34.75-8.93,48.55a76.11,76.11,0,0,1-25.75,26.05C6754.83,7328.79,6742.52,7332.53,6728.79,7332.25Z" transform="translate(-6328.68 -6714.11)"/><path class="cls-1" d="M7667,7183.65c4.22,6.82,6.8,13.81,7.13,21.52.47,11.2-3.25,21.15-9.23,30.36-8.09,12.46-18.93,22.14-31.26,30.18-14.85,9.69-30.79,16.84-48.46,19.57-10.15,1.57-20.07,1.3-29.76-2.92-3.86-1.68-8.45-1.24-12.55-3a62.53,62.53,0,0,1-13.57,27.61,79.2,79.2,0,0,1-31,22c-28.59,11.63-58.05,13.62-88,6.29-10.48-2.57-21.14-4.79-31.06-9.37-6.57-3-12.68-6.71-17.7-12-.76-.81-1.24-1.23-2.4-.39-14.56,10.63-31.22,13.2-48.7,12.44a74.64,74.64,0,0,1-16.18-2.15c-12.26-3.3-24.82-5.61-36.49-10.86-12.3-5.53-23.1-13-30.85-24.33a45.62,45.62,0,0,1-8.24-27.35c0-1.67-.14-2.27-2.06-2.27a67.43,67.43,0,0,1-23.9-4.34,63.15,63.15,0,0,0-7-1.63c-19.33-4.68-33.55-16.33-43.36-33.2-15.84-27.24-20.12-56.29-11.51-86.79,3.08-10.93,8.78-20.4,18.64-26.79a31,31,0,0,1,14.58-5c.61,0,1.21-.22,2.13-.39a111.8,111.8,0,0,1-8.46-13.86c-11.7-24-8.75-46.45,7-67.45,11.16-14.87,26-25.25,42.73-32.88,13.43-6.1,27.44-10,42.29-10.29a63.67,63.67,0,0,1,24.18,4c4.41,1.66,9.29,1.77,13.74,3.53,1.55.61,1.11-1,1.21-1.64a64.73,64.73,0,0,1,4.7-16.76c6.88-15.78,18.45-27.45,32.78-36.37,26.6-16.56,55.56-23.88,86.92-20.82a64.27,64.27,0,0,1,16.16,3.76c2.88,1.06,5.91,1.4,8.86,2.14a49.52,49.52,0,0,1,15.13,6.14c1.48,1,2.12.73,3.19-.57,11-13.48,24.24-24,40.51-30.5,21.88-8.72,44.11-9.19,66.57-2.5,8.31,2.47,16.9,4,24.9,7.54,13,5.75,24.66,13.16,32.79,25.23a33.33,33.33,0,0,1,4.32,8.62c.42,1.36,1,1.57,2.26,1.46,11.61-1,22.72,1.09,33.8,4.51,7.35,2.27,15,3.67,21.94,7,21.1,10.15,36.81,25.67,46,47.32,6.16,14.55,7.41,29.48,1,44.45a45.41,45.41,0,0,1-9.33,14c-1.38,1.41-1.3,2,.32,3.12,13.67,9.53,22.29,22.38,24.84,39,1.93,12.59.16,24.85-4.14,36.73-7.27,20.09-19.19,36.78-36.86,49-8.37,5.81-17.5,9.77-27.91,10.09A39.53,39.53,0,0,1,7667,7183.65Z" transform="translate(-6328.68 -6714.11)"/><path class="cls-2" d="M7584.48,7273.26c-9.08,2.29-19.55,4-30.22,1.33-6.39-1.61-11.73-4.75-15.17-10.49-1.17-2-2.7-3.18-5.12-2.62s-3.35,2.41-3.62,4.58A60.93,60.93,0,0,1,7526,7283c-6.11,14.09-16.6,24.19-29.91,31.63-13,7.25-27.05,11.19-41.69,13.42a138.59,138.59,0,0,1-59.93-3.53c-8.35-2.4-16.19-5.9-23-11.38-5-4-8.69-8.82-10-15.2-.42-2-1.31-3.82-3.66-4.18a5.17,5.17,0,0,0-5.13,2.46c-7.07,9.9-17.16,15.26-28.7,18-25.4,6.1-49.4,2.06-71.87-10.35-10.54-5.82-19.27-13.74-24.25-24.94a41.39,41.39,0,0,1-3.13-24.21c.8-4.72-1.7-7.1-6.35-6.19-31.18,6-56.62-4.57-72.53-31.6-15-25.55-19-53.11-10.86-82,2.76-9.78,7.75-18.45,16.35-24.66a29.26,29.26,0,0,1,14.22-5.18c2.21-.24,4.5-.4,5.54-2.77s-.08-4.16-1.41-6c-8.14-11-13.39-23.16-13.74-37-.32-12.75,3.94-24.24,11.33-34.59,13.19-18.46,31.28-30.47,52.49-38.24,12.88-4.71,26.08-7.67,39.88-6.64,11.23.85,21.43,4,28.72,13.19a3.84,3.84,0,0,0,4.65,1.3,4.88,4.88,0,0,0,3.17-4.9,60,60,0,0,1,4.46-21.81c5.93-14.34,16.09-25.34,28.91-33.82,27.38-18.13,57.51-26.1,90.31-22.82,9.52,1,18.5,3.79,26.13,9.81a25.51,25.51,0,0,1,6,6.86c2.58,4.23,6.24,4.37,9.11.23a99.78,99.78,0,0,1,19.8-21.58c29.69-23.56,62.44-27.94,97.59-15.21,12.44,4.5,23.37,11.48,31.54,22.08a31.61,31.61,0,0,1,6.73,16.74c.32,3.5,2.85,5.18,6.37,4.14a72.9,72.9,0,0,1,49.93,2.59c21.79,9.09,38.07,24.08,47.45,45.66,5.67,13.06,7.32,26.59,1.79,40.36a45.94,45.94,0,0,1-9.41,14.48c-3.61,3.8-3.36,6.47,1,9.4a52.52,52.52,0,0,1,17.65,19c7.38,13.95,8,28.71,4,43.72-6,22.31-18.32,40.67-37.3,54.45-8.39,6.09-17.72,10.06-28.32,10.32a27.87,27.87,0,0,1-7.56-.92c-2.23-.56-4.27-.34-5.66,1.57s-.76,3.67.37,5.51c8.35,13.5,7.72,27.23.42,41-6.4,12.06-15.87,21.51-26.75,29.66A133.39,133.39,0,0,1,7584.48,7273.26Z" transform="translate(-6328.68 -6714.11)"/><path class="cls-1" d="M7226,7238.42c2.35,8.7,3.15,17.13,1.71,25.72-2.09,12.49-7.76,22.44-15.34,30.94-10.24,11.5-22.4,19.18-35.56,24.63-15.85,6.57-32.12,10-49,8.15-9.7-1.08-18.76-4.14-26.72-11.48-3.18-2.93-7.5-3.7-10.86-6.84-4.47,10.85-10.63,19.74-18.71,26.7a67.76,67.76,0,0,1-33.52,15.63c-28.92,4.91-56.48-1.07-82.36-17.46-9.06-5.74-18.37-11.14-26.47-18.95a62.1,62.1,0,0,1-13.57-18.15c-.52-1.1-.87-1.7-2.13-1.09-15.79,7.68-31.7,5.91-47.6.22a64.78,64.78,0,0,1-14.42-6.87c-10.53-7-21.56-13.07-31.12-22.1-10.07-9.52-18.33-20.75-22.9-35.4a61.82,61.82,0,0,1-1.42-32.47c.41-1.83.38-2.54-1.39-3.07a59.9,59.9,0,0,1-21-11.42c-1.87-1.54-4.08-2.47-6.11-3.75-16.73-10.53-27.19-27.32-32.41-48.66-8.44-34.45-5.83-67.69,9-98.95,5.3-11.2,12.68-20.07,23.18-24.39a24.82,24.82,0,0,1,14.55-1.48,16.43,16.43,0,0,0,2.05.16,145.75,145.75,0,0,1-4.66-17.63c-5.37-29.69,2.41-53.69,21.64-72.48,13.63-13.32,29.58-20.67,46.73-24.43,13.73-3,27.49-3.38,41.23.38a56.2,56.2,0,0,1,21.34,11.16c3.68,3.06,8.15,4.54,11.85,7.71,1.28,1.1,1.23-.75,1.48-1.47a77.75,77.75,0,0,1,8.1-17.2c9.88-15.49,23.16-25.17,38.35-31,28.21-10.89,56.5-10.94,84.67,1.13a58.89,58.89,0,0,1,14,8.64c2.4,2,5.12,3.18,7.66,4.81a49.11,49.11,0,0,1,12.54,11c1.14,1.47,1.79,1.39,3.06.25,13.16-11.81,27.72-19.77,44.15-22.41,22.1-3.55,42.65,2.09,61.82,15.7,7.08,5,14.65,9.1,21.21,15.23,10.65,9.95,19.72,21.36,24.48,36.93a44.65,44.65,0,0,1,2,10.72c.09,1.61.61,2,1.76,2.23,10.91,2.07,20.66,7.51,30.08,14.35,6.25,4.54,12.92,8.2,18.6,13.86,17.13,17.05,28.08,38.53,31.63,64.95,2.38,17.76.17,34.59-9.06,49.33a46.63,46.63,0,0,1-11.75,12.9c-1.59,1.17-1.64,1.83-.4,3.53,10.42,14.31,15.46,30.87,14.06,49.9a94.24,94.24,0,0,1-12.08,39.38c-11.22,20.16-25.95,35.27-45,43.88-9,4.08-18.3,5.93-27.95,3.39A34,34,0,0,1,7226,7238.42Z" transform="translate(-6328.68 -6714.11)"/><path class="cls-2" d="M7129.88,7314.41c-8.87,0-18.9-1-28.11-6.91a25.81,25.81,0,0,1-11.59-15.79c-.63-2.48-1.76-4.26-4.12-4.32s-3.62,1.74-4.36,4.06a74.66,74.66,0,0,1-7.86,17.45c-8.8,13.85-20.73,22.08-34.65,26.59-13.58,4.41-27.41,4.85-41.39,3.25a116.93,116.93,0,0,1-54.35-20.52,65.81,65.81,0,0,1-18.56-18.92c-3.66-5.81-6-12.15-5.81-19.56.06-2.33-.35-4.58-2.43-5.62s-3.74-.28-5.27,1.29c-8.74,9-19.23,12.07-30.48,11.93-24.75-.31-45.91-11.43-63.8-31.35-8.38-9.34-14.63-20.5-16.69-34.25a55.84,55.84,0,0,1,2.58-27.58c1.8-5,0-8.29-4.45-8.59-30.05-2-51.07-20.74-59.61-55-8.08-32.36-5.55-63.88,8.47-93.48,4.76-10,11.3-18.21,20.61-22.67a23.31,23.31,0,0,1,14.25-1.78c2.09.35,4.23.81,5.72-1.52s.87-4.61.05-7c-5-14.41-7.11-29.26-4.31-44.63a66.2,66.2,0,0,1,18.22-35c16.29-16.71,35.65-24.94,56.92-27.63,12.91-1.63,25.72-1.24,38.18,3.74,10.14,4,18.82,10.36,23.45,22.51.75,2,2.18,3,4,2.72,2.19-.34,3.46-2,4-4.52a74.42,74.42,0,0,1,9-22.82,72,72,0,0,1,34.22-29.3c29.27-12.41,58.8-12.85,88.24-.13a47.66,47.66,0,0,1,21.83,18.07,31.51,31.51,0,0,1,4,9.24c1.42,5.38,4.76,6.54,8.33,2.78a94.53,94.53,0,0,1,23.09-18.33c32.62-17.75,63.74-13.5,93.22,10.29a75.46,75.46,0,0,1,24,33.12,42.5,42.5,0,0,1,2.42,20.34c-.49,3.94,1.46,6.5,4.93,6.33,16.78-.82,32,4.77,45.36,16.71,18,16.06,29.6,37.12,33.37,63.54,2.27,16,.74,31.36-7.45,45a47.47,47.47,0,0,1-11.92,13.37c-4.18,3.2-4.55,6.21-1.19,10.66a64.36,64.36,0,0,1,12,25.83c3.65,17.43.92,33.9-6.19,49.33-10.58,22.95-26,39.79-46.59,49.73-9.09,4.4-18.56,6.18-28.38,3.54a24.16,24.16,0,0,1-6.75-3.12c-1.93-1.24-3.85-1.55-5.56.16s-1.53,3.84-.9,6.19c4.64,17.21,1,32.19-8.85,45.35-8.61,11.54-19.45,19.33-31.3,25.31A108.32,108.32,0,0,1,7129.88,7314.41Z" transform="translate(-6328.68 -6714.11)"/></g><g id="レイヤー_6" data-name="レイヤー 6"><rect class="cls-4" width="1735.96" height="972.95"/></g></svg>