<svg viewBox="0 0 228.73 50.74" xmlns="http://www.w3.org/2000/svg"><g fill="#fff"><path d="M18.08 1.3h7.35l17.43 48h-7.13l-5-14.39h-18.85l-5.21 14.42h-6.7zm10.79 28.35l-7.39-21.22-7.68 21.22z"/><path d="M49.59 9.46h20.77q8.49 0 12.08 5a11.59 11.59 0 0 1 2.1 6.86 10.83 10.83 0 0 1-2.54 7.5 12.76 12.76 0 0 1-3.86 2.81 16.37 16.37 0 0 1 5.53 3.17q3.23 3.14 3.23 8.66a13.36 13.36 0 0 1-2.92 8.41q-4.42 5.63-13.98 5.62h-20.41zm18.34 20.31a14.75 14.75 0 0 0 6.47-1.15c2.42-1.2 3.64-3.35 3.64-6.47s-1.29-5.25-3.87-6.34a17.5 17.5 0 0 0-6.47-.92h-11.7v14.88zm2.2 22.16q6 0 8.61-3.46a8.67 8.67 0 0 0 1.62-5.3 7.06 7.06 0 0 0-4.72-7.17 18.18 18.18 0 0 0-6.64-1h-13v16.9zM134 16.33q4.77 6.38 4.77 16.31 0 10.76-5.45 17.89-6.45 8.37-18.32 8.36-11.08 0-17.42-7.32-5.67-7.07-5.66-17.85a28.36 28.36 0 0 1 4.84-16.67q6.21-8.9 18.37-8.89 12.73 0 18.87 8.17zm-5.74 30.61a26.27 26.27 0 0 0 3.85-14.18q0-8.47-4.43-13.65t-12.12-5.17a15.78 15.78 0 0 0-12.16 5.12q-4.71 5.13-4.71 15.1a22.1 22.1 0 0 0 4 13.47q4 5.48 13.09 5.48 8.62 0 12.45-6.17zM153.52 9.46v29.69a17.27 17.27 0 0 0 2 8.69q2.92 5.23 9.88 5.24 8.34 0 11.34-5.66a17.86 17.86 0 0 0 1.61-8.27v-29.69h6.58v27q0 8.85-2.4 13.63-4.39 8.7-16.6 8.69t-16.56-8.69q-2.37-4.79-2.37-13.65v-27z" transform="translate(-1.03 -8.16)"/><path d="M228.73 1.3v5.73h-16.18v42.3h-6.58v-42.3h-16.18v-5.73z"/></g></svg>