<svg viewBox="0 0 317.3 51.56" xmlns="http://www.w3.org/2000/svg"><g fill="#fff"><path d="M22.3 49.28a14.45 14.45 0 0 1-1.14-4.15 32.54 32.54 0 0 1-.27-4.49 41.16 41.16 0 0 1 1.41-8c.73-2.68 1.4-5.35 1.94-8-.47-2-.81-4.09-1.27-6.1a43.39 43.39 0 0 1-.97-6.16h.47a9.38 9.38 0 0 1 2.07 3.95 29.28 29.28 0 0 0 1.34 4.22l2.21.41v-.27l2.08-.14a1 1 0 0 0 .6.94 8.16 8.16 0 0 0 1 .54l.54 3.41-.2 1.74.2 1.21a8.72 8.72 0 0 1-.67 2.68c-.34.8-.74 1.67-1.21 2.54h-.43c-.61-.13-1.08-.27-1.54-.34a2.35 2.35 0 0 1-1.46-.73v-.27h-.4c-.67 2-1.34 4.15-1.81 6.16a26 26 0 0 0-.8 6.49l1.54 1.28h1.47a15.86 15.86 0 0 0 3.75-1.88 37.26 37.26 0 0 0 3.42-2.74l.8-1.07c-.4 1.4-.87 2.74-1.34 4.15a23.71 23.71 0 0 1-2 4 15 15 0 0 1-2.63 1.62 6.48 6.48 0 0 1-3.08.47zm18.07-28.28a9.35 9.35 0 0 1-1.07-2.28 11.23 11.23 0 0 0-1.14-2.21l-.4-.2v-.71l1.48-.47c.6.13 1.2.27 1.67.33a1.76 1.76 0 0 1 1.21 1l.6 3-.47.81-1.88.93zm5.43-4.09l-.67-1.54h-.47l-1.74-3.48h.27c.8.2 1.74.33 2.67.47a5 5 0 0 1 2.48 1.34 1.8 1.8 0 0 1 .54 1.13 13.71 13.71 0 0 1 .12 1.44l-1.14 1.2h-.66zM59.42 30.46l-.67-.06-.26-2.55a10.15 10.15 0 0 0 1.8-4.35c.2-1.47.4-3.08.61-4.69a28.9 28.9 0 0 1-4.42-.27 13.82 13.82 0 0 1-4-1.13 33.79 33.79 0 0 0 4.42-.34c1.4-.13 2.88-.33 4.28-.6v-1.94l-2.18-7.44 2.63 1.91v.4l.87.47a7.38 7.38 0 0 1 1.94 2.21 4.13 4.13 0 0 1 .34 2.68h.53a4.73 4.73 0 0 1 2.62-.94c.93-.07 1.87-.07 2.88-.07l1.27.47v.78a4.48 4.48 0 0 1-1.94 1.13 19.61 19.61 0 0 0-2.41.74l-4 2.14-2.57 11.85-1.74.21zm8.71 23.44l-.94-.61a36.48 36.48 0 0 1-2.28-3.75 8.11 8.11 0 0 1-1.14-4.15l1.95-3.88a17.07 17.07 0 0 1 2.41-1 21.37 21.37 0 0 1 2.68-.67c.26-2.88.53-5.76.73-8.71a10.33 10.33 0 0 1 3.95-7.43 16.44 16.44 0 0 1 4.82-2.08 17 17 0 0 0 4.82-2.14l.27-.67-3-1.81h.53a15.79 15.79 0 0 1 4.89 1.08 16.92 16.92 0 0 1 4.18 2.54l.34 1.07-2.81.4c-.47-.26-1-.53-1.61-.8a4 4 0 0 0-2.12-.29 18.42 18.42 0 0 0-5 1.27 31.68 31.68 0 0 0-4.55 2.28 9.18 9.18 0 0 0-2.25 3.17 11.35 11.35 0 0 0-.67 3.75l.47 3.75-.2.53.2 1.21-.47 2.47a12.53 12.53 0 0 1 4 .21 10.94 10.94 0 0 1 3.28 1.47l.27.67h.47l.27 1.74-2 .4-6.23-1.07c-.6 1.94-1.34 3.82-2.07 5.62s-1.41 3.75-2.15 5.63l-.93.13zm.47-5a6.52 6.52 0 0 0 1.33-2.62c.21-.87.41-1.74.61-2.74h-1.21l-2.94 2.21v.6l1.34 2.55.6.33.27-.2zM107.35 44.52l-1.35-1.94c-1.08-3.48-2.21-7-3.42-10.38a65.12 65.12 0 0 1-3-10.51h.2a26.46 26.46 0 0 0 4.22 4.76 19.29 19.29 0 0 1 3.89 4.68 35.33 35.33 0 0 1 .8 6.43 12.21 12.21 0 0 0 1.67 6l1.61.93.27.87-.27.47h-2.34zm36.49-8.52a1.38 1.38 0 0 0-1.14-.73 5.26 5.26 0 0 1-1.4-.2l-2.08-3.89.2-1.67a21.41 21.41 0 0 0-2.07-5c-.94-1.6-1.88-3.14-2.81-4.68l-.67-.54h.2a9 9 0 0 1 3.08 1.54c.93.74 1.87 1.41 2.67 2l1.18 1.94.74.27a11.5 11.5 0 0 1 2.47 4.82 25.8 25.8 0 0 1 .61 5.62l-1 .74zM159.19 55.71a9.2 9.2 0 0 1-2-2.48 37.45 37.45 0 0 1-1.8-9.18 68.48 68.48 0 0 1-.14-9.84l.2-8.57-.45-5.35.27-7.57-1.77-6.83v.27a26.13 26.13 0 0 0 2.88 4.42 8 8 0 0 1 1.62 4.95l-1.74 5.56c.33 1.81.67 3.75 1.13 5.62a29.66 29.66 0 0 1 .61 6 31.27 31.27 0 0 0-.67 5.36c-.07 1.94-.14 3.88-.14 5.75.34 2 .74 4 1.07 6.16a9.86 9.86 0 0 0 2.74 5.46l2.28.73v.27l-1.48.27-.8-.27v.56l.8.47a9.66 9.66 0 0 1-2.61-1.76zM189.31 49.14c-.27-.53-.61-1.14-.87-1.67a13.2 13.2 0 0 1-1-5.22v-5.56a91.9 91.9 0 0 1 2.56-10.85 53 53 0 0 1 4.49-10h-.49a30 30 0 0 1-9.5 2.21c-3.35.2-6.63.46-9.91.8l-3.59-1.64v-.14c4.22-.33 8.43-.8 12.79-1.4a56.17 56.17 0 0 0 12.32-2.82v-1.27h1.2l.2-.6 1.41-.27 4.75.87v1.67a8.92 8.92 0 0 1-1.54.88l-1.81.6a57.24 57.24 0 0 0-8.23 13.46 37 37 0 0 0-2.81 15.53l1.72 6.56-.27.2a3.29 3.29 0 0 1-1.42-1.34zM248.3 51.42a36.69 36.69 0 0 1-8.16-4.55l-.27-.61-2.41-2.26c-1.74-2.15-3.69-4.42-5.56-6.7a25.57 25.57 0 0 1-4.42-7.23h-.33a68.15 68.15 0 0 1-3.69 6.56 37.77 37.77 0 0 1-4.62 6.1 23.84 23.84 0 0 0-3.48 3.41 12 12 0 0 1-3.48 3v-.26a28.8 28.8 0 0 0 4.35-5.43c1.21-1.94 2.35-4 3.35-6 .54-1.34 1.07-2.75 1.67-4.09a12.43 12.43 0 0 0 .94-4.55l-.13-1.41a12.64 12.64 0 0 0 .53-1.74 11.38 11.38 0 0 1 .61-1.74h.33v-.92a10 10 0 0 1-1.81-3 11 11 0 0 0-2.14-2.88 3 3 0 0 1-1.47-.33c-.54-.27-1.07-.54-1.54-.81l-1.34-3.08.4-.87 2.28-.8v-.4h.09a5.76 5.76 0 0 1 3 1.27c.81.8 1.61 1.67 2.48 2.61 2.28 4.55 4.62 8.91 7.16 13.33a63.78 63.78 0 0 0 9.18 12.31 57.33 57.33 0 0 0 7.83 6 58.33 58.33 0 0 0 8.37 4.35l1.54 1.54v.2h-.2l-.94-.2v.4l1.74 1h-.16l-.8-.2v.2l.4.13h-.4a33.14 33.14 0 0 1-8.9-2.35zM276.54 51.82h-1.28l-.46-1.34.46-4.89-.46-1.07 1.2-.73v-.67h.8a14.37 14.37 0 0 0 3.42 1 9.14 9.14 0 0 1 3.28 1.47l1 .74 1.95-1.14a8.84 8.84 0 0 0 2.14-4 21.38 21.38 0 0 0 .47-4.69l-1.61-2.55a7.49 7.49 0 0 0-2.68-.73c-1-.07-2-.14-2.94-.14a22.43 22.43 0 0 0-5.9 2.62c-1.87 1.07-3.81 2.34-5.69 3.61v.34l-4.55 3.68-1 3.48-1.54.27v-.54h-.41l-.67-4.35a2.86 2.86 0 0 0 1.41-1.27l.94-1.61a134.2 134.2 0 0 1 6.63-13.66 60.36 60.36 0 0 0 5.49-13.65h-.54l-3.15.4-1.2-.4-1.14-3.41h.49l.47 1.54h1.2a4.92 4.92 0 0 0 2.53-1.13 4.67 4.67 0 0 1 2.54-.74l3.62 1.07.27 1-1 .67a70.13 70.13 0 0 1-7.3 13.86 54.83 54.83 0 0 0-7 14.12h.54c2.54-1.87 5.22-3.55 8-5.22a23.3 23.3 0 0 1 9-3.08c1.27.27 2.61.6 4 .8a6.89 6.89 0 0 1 3.68 1.81l1 2.08a5 5 0 0 1 .54 2.21 26 26 0 0 0-2 5 11.42 11.42 0 0 1-2.68 4.89h-.4l-.27.6-6.76 3-.27.67a2.26 2.26 0 0 1-1.74.67h-2.34zm.67-6v.67l1.2 1.81h.74l2.68-.8zM302 56l-.2-.73h-.27v-.27h-.2l-.87-2.21-.47-.27v-.52l2.47-1.87a199.51 199.51 0 0 0 7-19.55 166 166 0 0 0 4.54-20.2l-.47-1.28h.27a4 4 0 0 1 1.41 2.28 8.13 8.13 0 0 1 .13 2.88l-.2.67.2 1.47-.85 2.6v-.47h-.49l-2.88 10.18h-.53l-4 13.79h.4l-.67 2.34h.27a53.68 53.68 0 0 1 4.49-5.84 16.69 16.69 0 0 0 3.41-6.3l.67-.27v-.73l1.81-.4 2.74.4v1.74a13.24 13.24 0 0 0-.6 3.28c-.07 1.2-.13 2.48-.13 3.68a26 26 0 0 0 1.67 6.16 12.77 12.77 0 0 0 3.48 5.22 4.49 4.49 0 0 0 2.14.87 22.32 22.32 0 0 0 2.28.14 14.38 14.38 0 0 0 3.45-2.11 14.52 14.52 0 0 0 3.08-2.94l1.6-2.28h.47v.47l1.07.74v.66l-.67 1.41-1.14 2.55-.67.2-.26 1a12.47 12.47 0 0 1-4.56 2.95 25.41 25.41 0 0 1-5.55 1.14 8.37 8.37 0 0 1-2.64-1.58c-.87-.74-1.68-1.54-2.35-2.21a15 15 0 0 1-3.75-6.5 39.38 39.38 0 0 1-1.47-7.56l-.67-.2a109.45 109.45 0 0 0-6.29 9.24 102.19 102.19 0 0 1-6.2 8.81z" transform="translate(-20.89 -5.89)"/></g></svg>