<svg xmlns="http://www.w3.org/2000/svg" viewBox="0 0 241.36 90.59"><defs><style>.cls-1{fill:#d70034;}.cls-2{fill:#44318f;}.cls-3{fill:#008cb4;}.cls-4{fill:#4c4948;}</style></defs><title>logo2</title><g id="レイヤー_2" data-name="レイヤー 2"><g id="_1.パターン" data-name="1.パターン"><polygon class="cls-1" points="40.41 0 0 70 19.02 70 23.77 61.77 14.26 61.77 40.41 16.47 45.17 24.71 49.92 16.47 40.41 0"/><polygon class="cls-2" points="54.67 16.47 59.43 24.71 64.18 16.47 90.34 61.77 80.83 61.77 85.59 70 104.61 70 64.18 0 54.67 16.47"/><polygon class="cls-3" points="21.4 74.12 11.89 90.59 92.72 90.59 76.08 61.77 66.57 61.77 78.45 82.36 26.15 82.36 30.91 74.12 21.4 74.12"/><polygon class="cls-4" points="52.3 20.59 23.77 70 66.57 70 61.81 61.77 38.04 61.77 52.3 37.06 61.81 53.53 71.32 53.53 52.3 20.59"/><path class="cls-4" d="M135.81,12.17V29.63H132.5V20.11q0-1.14.06-2.58l.06-1.31.07-1.29h-.1l-.4,1.22-.38,1.21c-.36,1.09-.64,1.9-.84,2.42l-3.84,9.85h-3l-3.87-9.77c-.22-.54-.5-1.35-.85-2.42L119,16.22l-.4-1.2h-.1l.06,1.27.07,1.28c.05,1,.07,1.83.07,2.54v9.52h-3.31V12.17h5.4l3.12,8.08c.21.57.49,1.37.84,2.42l.39,1.22.4,1.2h.11l.37-1.2.39-1.21q.47-1.51.81-2.4l3.08-8.11Z"/><path class="cls-4" d="M147.77,25.72h2.94v.47q0,3.58-5.37,3.58-3.66,0-4.78-1.24c-.75-.82-1.12-2.58-1.12-5.26q0-3.57,1.17-4.8c.79-.81,2.32-1.22,4.6-1.22s3.64.4,4.39,1.19,1.11,2.37,1.11,4.71V24h-8.28c0,.27,0,.45,0,.54A3.69,3.69,0,0,0,143,27a3,3,0,0,0,2.22.61,4,4,0,0,0,2.1-.36A1.81,1.81,0,0,0,147.77,25.72Zm0-3.47v-.49a2.51,2.51,0,0,0-.51-1.89,3.63,3.63,0,0,0-2.19-.44A3,3,0,0,0,143,20a3.58,3.58,0,0,0-.49,2.29Z"/><path class="cls-4" d="M165.4,12.17V29.63h-2.85l.1-2h-.05c-.57,1.42-1.82,2.14-3.74,2.14s-3.22-.44-3.85-1.33-.94-2.67-.94-5.38c0-2.18.34-3.7,1-4.55s1.87-1.27,3.59-1.27c2,0,3.24.63,3.74,1.89h.05v-7Zm-5.75,7.41c-1.09,0-1.8.23-2.12.69a6.05,6.05,0,0,0-.49,3,7.61,7.61,0,0,0,.49,3.43c.32.51,1.05.77,2.17.77s1.93-.25,2.26-.75a7.6,7.6,0,0,0,.5-3.48,5.35,5.35,0,0,0-.55-3A2.77,2.77,0,0,0,159.65,19.58Z"/><path class="cls-4" d="M172.36,12.17v2.44h-2.93V12.17Zm0,5.23V29.63h-2.93V17.4Z"/><path class="cls-4" d="M179.43,20.94h-3c0-1.46.34-2.44,1-2.94s2-.74,4-.74c2.2,0,3.69.3,4.47.91s1.16,1.76,1.16,3.47v8h-2.93l.14-1.67-.07,0c-.57,1.22-1.87,1.83-3.91,1.83-3,0-4.44-1.25-4.44-3.77s1.52-3.81,4.55-3.81c2,0,3.25.46,3.68,1.39h.05v-2a2.59,2.59,0,0,0-.5-1.9,3.12,3.12,0,0,0-2-.47C180.17,19.23,179.43,19.8,179.43,20.94Zm1.95,3.22c-1.65,0-2.48.57-2.48,1.71a1.85,1.85,0,0,0,.51,1.56,4.08,4.08,0,0,0,2.15.37c1.79,0,2.68-.6,2.68-1.8S183.29,24.16,181.38,24.16Z"/><path class="cls-4" d="M126.17,49h3.33v.6q0,3.65-1.33,4.72t-5.89,1.06q-5.16,0-6.35-1.68c-.8-1.13-1.19-4.14-1.19-9,0-2.88.53-4.78,1.61-5.69s3.32-1.36,6.74-1.36c2.49,0,4.16.37,5,1.12s1.26,2.23,1.26,4.45v.39H126V43.1c0-1.15-.21-1.88-.65-2.2a5.7,5.7,0,0,0-2.94-.48c-2.06,0-3.3.25-3.71.76s-.62,2-.62,4.47q0,5,.56,5.94c.37.62,1.57.92,3.6.92a6.43,6.43,0,0,0,3.2-.51c.5-.34.74-1.09.74-2.25Z"/><path class="cls-4" d="M132.75,43h2.93l-.18,1.71.06,0a3.51,3.51,0,0,1,3.31-1.92q3.23,0,3.22,4.06v.86h-2.76c0-.33,0-.55,0-.65,0-1.31-.51-2-1.53-2-1.45,0-2.17,1-2.17,2.91v7.2h-2.93Z"/><path class="cls-4" d="M153.38,51.29h2.94v.47q0,3.59-5.37,3.58-3.66,0-4.78-1.24t-1.12-5.26q0-3.57,1.17-4.8c.79-.82,2.32-1.23,4.6-1.23s3.64.4,4.39,1.2,1.11,2.37,1.11,4.7v.9H148c0,.27,0,.45,0,.54a3.69,3.69,0,0,0,.55,2.4,3,3,0,0,0,2.22.6,4,4,0,0,0,2.1-.35C153.22,52.57,153.38,52.06,153.38,51.29Zm0-3.47v-.49a2.51,2.51,0,0,0-.51-1.89,3.63,3.63,0,0,0-2.19-.44,3,3,0,0,0-2.13.53,3.58,3.58,0,0,0-.49,2.29Z"/><path class="cls-4" d="M163.16,46.51h-3q0-2.2,1-2.94c.69-.5,2-.74,4.06-.74,2.2,0,3.69.3,4.47.91s1.16,1.76,1.16,3.46v8H168l.14-1.68H168q-.84,1.83-3.9,1.83-4.44,0-4.44-3.77c0-2.55,1.52-3.82,4.54-3.82,2,0,3.25.47,3.69,1.4h0v-2a2.67,2.67,0,0,0-.5-1.9,3.15,3.15,0,0,0-2-.46C163.91,44.8,163.16,45.37,163.16,46.51Zm2,3.21c-1.65,0-2.48.58-2.48,1.72a1.86,1.86,0,0,0,.51,1.56,4.08,4.08,0,0,0,2.15.37c1.78,0,2.68-.6,2.68-1.8S167,49.72,165.12,49.72Z"/><path class="cls-4" d="M183.18,43v2.22h-4.71v6.15c0,1.13.43,1.7,1.29,1.7s1.42-.69,1.42-2.06v-.49h2.5v.62c0,.56,0,1-.05,1.44q-.25,2.81-4.18,2.8c-2.61,0-3.91-1.19-3.91-3.59V45.19H174V43h1.59V40.23h2.93V43Z"/><path class="cls-4" d="M189.77,37.73v2.45h-2.93V37.73Zm0,5.24V55.2h-2.93V43Z"/><path class="cls-4" d="M204.55,43l-3.5,12.23h-4.58L192.78,43h3.11l1.61,5.64c.23.79.43,1.55.62,2.28l.29,1.14.3,1.14h.06L199,52l.27-1.13q.3-1.27.57-2.28L201.39,43Z"/><path class="cls-4" d="M215.2,51.29h3v.47c0,2.39-1.8,3.58-5.38,3.58q-3.65,0-4.77-1.24t-1.13-5.26c0-2.38.39-4,1.18-4.8s2.32-1.23,4.59-1.23,3.65.4,4.39,1.2,1.12,2.37,1.12,4.7v.9h-8.28q0,.41,0,.54a3.68,3.68,0,0,0,.56,2.4,3,3,0,0,0,2.22.6,4,4,0,0,0,2.1-.35A1.81,1.81,0,0,0,215.2,51.29Zm0-3.47,0-.49a2.52,2.52,0,0,0-.5-1.89,3.69,3.69,0,0,0-2.2-.44,3,3,0,0,0-2.13.53,3.65,3.65,0,0,0-.49,2.29Z"/><path class="cls-4" d="M128.35,68.39h-3.24c0-.16,0-.28,0-.35-.08-1-.3-1.6-.66-1.85a5.23,5.23,0,0,0-2.53-.38,7,7,0,0,0-3.08.43,2,2,0,0,0-.72,1.83c0,1.11.2,1.77.59,2a13.64,13.64,0,0,0,3.89.51c2.6.14,4.28.52,5,1.11s1.14,1.84,1.14,3.73c0,2.32-.45,3.82-1.34,4.49s-2.87,1-5.93,1c-2.74,0-4.57-.33-5.47-1s-1.35-2-1.35-4v-.64h3.23v.37c0,1.22.21,2,.64,2.24a8.56,8.56,0,0,0,3.49.41,5.43,5.43,0,0,0,2.84-.47c.41-.32.62-1.05.62-2.19a2.23,2.23,0,0,0-.47-1.68,3.57,3.57,0,0,0-2-.51l-1.83-.11c-2.76-.17-4.53-.55-5.29-1.16s-1.15-1.9-1.15-3.9.46-3.4,1.38-4.07,2.78-1,5.55-1,4.4.31,5.31.93,1.37,1.84,1.37,3.65Z"/><path class="cls-4" d="M143,68.54V80.77h-2.93l.16-2.1h-.05q-.85,2.25-3.94,2.25-4.16,0-4.16-4.16V68.54H135v7.51a3.3,3.3,0,0,0,.44,2,2.41,2.41,0,0,0,1.8.49c1.88,0,2.82-1.12,2.82-3.38V68.54Z"/><path class="cls-4" d="M147.05,68.54h3l-.12,1.81.06,0c.71-1.33,2-2,4-2,1.78,0,3,.44,3.68,1.33s1,2.49,1,4.83-.33,4.11-1,5-1.89,1.36-3.69,1.36-3.18-.64-3.77-1.92h0v7h-3.06Zm5.78,2.16q-1.68,0-2.19.75a6.54,6.54,0,0,0-.51,3.2,6,6,0,0,0,.55,3.16,2.59,2.59,0,0,0,2.24.78c1.14,0,1.88-.24,2.22-.74a6.44,6.44,0,0,0,.51-3.19,6.49,6.49,0,0,0-.51-3.23C154.79,70.94,154,70.7,152.83,70.7Z"/><path class="cls-4" d="M162.31,68.54h3l-.12,1.81.06,0c.71-1.33,2-2,4-2s3,.44,3.68,1.33,1,2.49,1,4.83-.33,4.11-1,5-1.89,1.36-3.69,1.36S166,80.27,165.42,79h0v7h-3.06Zm5.77,2.16a2.51,2.51,0,0,0-2.18.75,6.51,6.51,0,0,0-.52,3.2,6,6,0,0,0,.56,3.16,2.58,2.58,0,0,0,2.23.78c1.15,0,1.89-.24,2.23-.74a6.44,6.44,0,0,0,.51-3.19,6.35,6.35,0,0,0-.52-3.23C170.05,70.94,169.28,70.7,168.08,70.7Z"/><path class="cls-4" d="M183.05,68.39q3.54,0,4.65,1.14c.73.75,1.1,2.34,1.1,4.78q0,4.06-1.08,5.33c-.72.85-2.23,1.27-4.53,1.27q-3.75,0-4.86-1.18t-1.1-5.18q0-3.85,1.09-5C179,68.78,180.62,68.39,183.05,68.39Zm0,2.32c-1.22,0-2,.22-2.32.66a5.86,5.86,0,0,0-.5,3.08,7.49,7.49,0,0,0,.47,3.45c.32.46,1.1.69,2.37.69s2-.24,2.31-.73a7.73,7.73,0,0,0,.48-3.5,5.75,5.75,0,0,0-.5-3C185,70.93,184.23,70.71,183,70.71Z"/><path class="cls-4" d="M192.52,68.54h2.93l-.17,1.71h.06a3.5,3.5,0,0,1,3.3-1.92q3.23,0,3.23,4.07v.86H199.1a5.92,5.92,0,0,0,.05-.65c0-1.31-.5-2-1.52-2-1.45,0-2.18,1-2.18,2.9v7.21h-2.93Z"/><path class="cls-4" d="M213.58,68.54v2.22h-4.71V76.9q0,1.71,1.29,1.71c1,0,1.42-.69,1.42-2.06v-.49h2.5v.61c0,.57,0,1-.06,1.45q-.24,2.8-4.17,2.8t-3.91-3.59V70.76h-1.59V68.54h1.59V65.8h2.93v2.74Z"/><path class="cls-4" d="M225.34,76.85h2.95v.48c0,2.38-1.79,3.58-5.38,3.58q-3.65,0-4.77-1.24T217,74.41c0-2.38.4-4,1.18-4.8s2.32-1.23,4.6-1.23,3.64.4,4.39,1.2,1.11,2.36,1.11,4.7v.9H220c0,.27,0,.45,0,.53a3.69,3.69,0,0,0,.56,2.41,3,3,0,0,0,2.22.6,4.12,4.12,0,0,0,2.1-.35A1.83,1.83,0,0,0,225.34,76.85Zm0-3.46V72.9a2.54,2.54,0,0,0-.51-1.9,3.67,3.67,0,0,0-2.19-.43,3,3,0,0,0-2.13.52,3.6,3.6,0,0,0-.5,2.3Z"/><path class="cls-4" d="M232,68.54H235l-.18,1.71h.07a3.48,3.48,0,0,1,3.3-1.92q3.23,0,3.22,4.07v.86H238.6c0-.33.05-.55.05-.65,0-1.31-.51-2-1.52-2-1.46,0-2.18,1-2.18,2.9v7.21H232Z"/></g></g></svg>