<svg xmlns="http://www.w3.org/2000/svg" viewBox="0 0 169.24 154.09"><defs><style>.cls-1{fill:#d70034;}.cls-2{fill:#44318f;}.cls-3{fill:#008cb4;}.cls-4{fill:#4c4948;}</style></defs><title>logon</title><g id="レイヤー_2" data-name="レイヤー 2"><g id="_1.パターン" data-name="1.パターン"><polygon class="cls-1" points="68.07 0 13.32 94.85 39.09 94.85 45.53 83.69 32.65 83.69 68.07 22.32 74.52 33.48 80.96 22.32 68.07 0"/><polygon class="cls-2" points="87.4 22.32 93.84 33.48 100.28 22.32 135.72 83.69 122.84 83.69 129.28 94.85 155.05 94.85 100.28 0 87.4 22.32"/><polygon class="cls-3" points="42.31 100.43 29.43 122.75 138.95 122.75 116.39 83.69 103.51 83.69 119.62 111.59 48.75 111.59 55.2 100.43 42.31 100.43"/><polygon class="cls-4" points="84.18 27.9 45.53 94.85 103.51 94.85 97.07 83.69 64.86 83.69 84.18 50.22 97.07 72.53 109.95 72.53 84.18 27.9"/><path class="cls-4" d="M11.8,141v10.09H9.89v-5.5c0-.43,0-.93,0-1.49l0-.75,0-.75H9.94l-.23.7-.22.7c-.21.63-.37,1.1-.48,1.4l-2.22,5.69H5L2.8,145.41c-.12-.32-.28-.78-.49-1.4l-.22-.7-.23-.7H1.8l0,.73,0,.74c0,.57,0,1.06,0,1.47v5.5H0V141H3.12l1.8,4.67c.13.33.29.8.49,1.4l.22.7.23.7h.07l.21-.7.23-.69c.18-.59.34-1,.47-1.39L8.61,141Z"/><path class="cls-4" d="M17.91,148.79h1.7v.28c0,1.38-1,2.07-3.1,2.07q-2.12,0-2.76-.72a4.87,4.87,0,0,1-.65-3,4.11,4.11,0,0,1,.68-2.77,3.66,3.66,0,0,1,2.65-.71,3.48,3.48,0,0,1,2.54.69,4.13,4.13,0,0,1,.64,2.72v.51H14.83c0,.16,0,.27,0,.31a2.08,2.08,0,0,0,.33,1.39,1.7,1.7,0,0,0,1.28.35,2.42,2.42,0,0,0,1.21-.2C17.82,149.53,17.91,149.24,17.91,148.79Zm0-2v-.28a1.51,1.51,0,0,0-.29-1.1,2.21,2.21,0,0,0-1.27-.25,1.76,1.76,0,0,0-1.23.3,2.11,2.11,0,0,0-.29,1.33Z"/><path class="cls-4" d="M27.3,141v10.09H25.65l.06-1.13h0a2.06,2.06,0,0,1-2.15,1.23,2.62,2.62,0,0,1-2.23-.76,6,6,0,0,1-.54-3.11,4.38,4.38,0,0,1,.58-2.63,2.53,2.53,0,0,1,2.08-.74c1.16,0,1.87.37,2.16,1.1h0v-4ZM24,145.24c-.63,0-1,.14-1.22.41a3.41,3.41,0,0,0-.28,1.73,4.31,4.31,0,0,0,.28,2c.18.3.6.44,1.25.44s1.12-.14,1.31-.43a4.41,4.41,0,0,0,.28-2,3.09,3.09,0,0,0-.31-1.71A1.62,1.62,0,0,0,24,145.24Z"/><path class="cls-4" d="M30.54,141v1.41h-1.7V141Zm0,3v7.06h-1.7V144Z"/><path class="cls-4" d="M33.83,146H32.1a2,2,0,0,1,.59-1.7A4.41,4.41,0,0,1,35,143.9a4.42,4.42,0,0,1,2.58.53,2.43,2.43,0,0,1,.68,2v4.62h-1.7l.08-1h0c-.32.7-1.08,1.06-2.25,1.06-1.71,0-2.57-.73-2.57-2.18s.87-2.21,2.62-2.21q1.76,0,2.13.81h0v-1.15a1.55,1.55,0,0,0-.28-1.1,1.85,1.85,0,0,0-1.19-.27Q33.83,145,33.83,146ZM35,147.89q-1.44,0-1.44,1a1.05,1.05,0,0,0,.3.9,2.29,2.29,0,0,0,1.24.22c1,0,1.55-.35,1.55-1S36.06,147.89,35,147.89Z"/><path class="cls-4" d="M50,147.45H52v.35c0,1.41-.26,2.31-.77,2.73s-1.65.61-3.4.61c-2,0-3.22-.32-3.68-1s-.69-2.39-.69-5.22c0-1.67.31-2.76.93-3.29s1.92-.79,3.9-.79a4.58,4.58,0,0,1,2.89.65,3.44,3.44,0,0,1,.72,2.57v.23H50v-.26c0-.66-.12-1.08-.37-1.27a3.36,3.36,0,0,0-1.7-.28c-1.19,0-1.9.15-2.14.44a5.27,5.27,0,0,0-.36,2.59A9.7,9.7,0,0,0,45.7,149c.21.35.91.53,2.08.53a3.81,3.81,0,0,0,1.85-.29c.29-.2.43-.63.43-1.3Z"/><path class="cls-4" d="M53,144h1.7l-.11,1h0a2,2,0,0,1,1.91-1.1c1.24,0,1.86.78,1.86,2.35v.49h-1.6c0-.19,0-.32,0-.38,0-.75-.29-1.13-.88-1.13-.84,0-1.25.56-1.25,1.68v4.16H53Z"/><path class="cls-4" d="M64.15,148.79h1.71v.28c0,1.38-1,2.07-3.11,2.07a3.81,3.81,0,0,1-2.76-.72,4.87,4.87,0,0,1-.65-3,4.11,4.11,0,0,1,.68-2.77,3.69,3.69,0,0,1,2.66-.71,3.46,3.46,0,0,1,2.53.69,4.12,4.12,0,0,1,.65,2.72v.51H61.07c0,.16,0,.27,0,.31a2.09,2.09,0,0,0,.32,1.39,1.7,1.7,0,0,0,1.28.35,2.39,2.39,0,0,0,1.21-.2C64.06,149.53,64.15,149.24,64.15,148.79Zm0-2v-.28a1.51,1.51,0,0,0-.29-1.1,2.19,2.19,0,0,0-1.27-.25,1.76,1.76,0,0,0-1.23.3,2.12,2.12,0,0,0-.28,1.33Z"/><path class="cls-4" d="M69,146H67.28a2,2,0,0,1,.6-1.7,4.39,4.39,0,0,1,2.34-.43,4.46,4.46,0,0,1,2.58.53,2.43,2.43,0,0,1,.67,2v4.62H71.78l.08-1h0c-.33.7-1.08,1.06-2.26,1.06-1.71,0-2.56-.73-2.56-2.18s.87-2.21,2.62-2.21q1.75,0,2.13.81h0v-1.15a1.54,1.54,0,0,0-.29-1.1,1.81,1.81,0,0,0-1.18-.27C69.44,145,69,145.37,69,146Zm1.14,1.86q-1.44,0-1.44,1a1.05,1.05,0,0,0,.3.9,2.26,2.26,0,0,0,1.24.22c1,0,1.54-.35,1.54-1S71.24,147.89,70.15,147.89Z"/><path class="cls-4" d="M79.78,144v1.28H77.06v3.55c0,.66.25,1,.74,1s.82-.39.82-1.19v-.28h1.45v.36c0,.32,0,.6,0,.83-.1,1.08-.9,1.62-2.41,1.62s-2.27-.69-2.27-2.07v-3.8h-.91V144h.91V142.4h1.7V144Z"/><path class="cls-4" d="M82.79,141v1.41h-1.7V141Zm0,3v7.06h-1.7V144Z"/><path class="cls-4" d="M90.53,144l-2,7.06H85.85L83.72,144h1.8l.93,3.26c.13.45.25.89.36,1.31l.17.66.17.66h0l.16-.66.15-.65c.12-.49.23-.93.34-1.32L88.7,144Z"/><path class="cls-4" d="M95.88,148.79h1.7v.28c0,1.38-1,2.07-3.11,2.07a3.76,3.76,0,0,1-2.75-.72c-.44-.48-.65-1.49-.65-3a4.05,4.05,0,0,1,.68-2.77,3.64,3.64,0,0,1,2.65-.71,3.49,3.49,0,0,1,2.54.69,4.13,4.13,0,0,1,.64,2.72v.51H92.79c0,.16,0,.27,0,.31a2.15,2.15,0,0,0,.32,1.39,1.72,1.72,0,0,0,1.28.35,2.44,2.44,0,0,0,1.22-.2C95.79,149.53,95.88,149.24,95.88,148.79Zm0-2v-.28a1.46,1.46,0,0,0-.3-1.1,2.15,2.15,0,0,0-1.26-.25,1.77,1.77,0,0,0-1.24.3,2.19,2.19,0,0,0-.28,1.33Z"/><path class="cls-4" d="M110.32,143.9h-1.87c0-.09,0-.16,0-.2,0-.57-.17-.93-.37-1.07a3,3,0,0,0-1.47-.22,4.1,4.1,0,0,0-1.77.25,1.14,1.14,0,0,0-.42,1.06c0,.64.11,1,.34,1.15a8.21,8.21,0,0,0,2.25.29,6,6,0,0,1,2.91.64,2.7,2.7,0,0,1,.66,2.16c0,1.34-.26,2.2-.77,2.6a6.5,6.5,0,0,1-3.43.58,5.91,5.91,0,0,1-3.16-.57,2.8,2.8,0,0,1-.78-2.34v-.37h1.86v.22c0,.7.12,1.13.37,1.29a4.83,4.83,0,0,0,2,.24,3.16,3.16,0,0,0,1.65-.28c.23-.18.35-.6.35-1.26a1.34,1.34,0,0,0-.27-1,2.13,2.13,0,0,0-1.16-.29l-1.06-.06a6.31,6.31,0,0,1-3.06-.67,4,4,0,0,1,.13-4.61,6,6,0,0,1,3.21-.59,6,6,0,0,1,3.07.54,2.39,2.39,0,0,1,.79,2.11Z"/><path class="cls-4" d="M118,144v7.06h-1.69l.1-1.21h0a2.16,2.16,0,0,1-2.28,1.3,2.12,2.12,0,0,1-2.4-2.41V144h1.69v4.34a1.88,1.88,0,0,0,.25,1.18,1.4,1.4,0,0,0,1,.29c1.09,0,1.63-.65,1.63-2V144Z"/><path class="cls-4" d="M119.54,144h1.73l-.07,1h0a2.35,2.35,0,0,1,2.28-1.14,2.54,2.54,0,0,1,2.13.76,4.9,4.9,0,0,1,.58,2.79,5.22,5.22,0,0,1-.58,2.9,2.48,2.48,0,0,1-2.14.79,2.13,2.13,0,0,1-2.17-1.11h0v4.06h-1.77Zm3.34,1.25c-.65,0-1.07.14-1.27.43a3.87,3.87,0,0,0-.29,1.85,3.56,3.56,0,0,0,.31,1.83,2.13,2.13,0,0,0,2.59,0,3.82,3.82,0,0,0,.29-1.84,3.71,3.71,0,0,0-.3-1.87C124,145.38,123.57,145.24,122.88,145.24Z"/><path class="cls-4" d="M127.57,144h1.72l-.07,1h0a2.35,2.35,0,0,1,2.28-1.14,2.52,2.52,0,0,1,2.13.76,4.82,4.82,0,0,1,.58,2.79,5.13,5.13,0,0,1-.58,2.9,2.46,2.46,0,0,1-2.13.79,2.15,2.15,0,0,1-2.18-1.11h0v4.06h-1.76Zm3.33,1.25c-.64,0-1.07.14-1.26.43a3.72,3.72,0,0,0-.3,1.85,3.54,3.54,0,0,0,.32,1.83,1.49,1.49,0,0,0,1.29.45,1.53,1.53,0,0,0,1.29-.43,5.88,5.88,0,0,0,0-3.71C132,145.38,131.59,145.24,130.9,145.24Z"/><path class="cls-4" d="M138.75,143.9a3.87,3.87,0,0,1,2.69.66,4.2,4.2,0,0,1,.63,2.76,5.09,5.09,0,0,1-.62,3.08,3.41,3.41,0,0,1-2.62.74c-1.44,0-2.38-.23-2.8-.68s-.64-1.46-.64-3a4.49,4.49,0,0,1,.63-2.89A3.92,3.92,0,0,1,138.75,143.9Zm0,1.34c-.71,0-1.16.13-1.35.38a3.48,3.48,0,0,0-.29,1.78,4.38,4.38,0,0,0,.28,2c.18.27.64.4,1.37.4s1.14-.14,1.33-.42a4.58,4.58,0,0,0,.28-2,3.31,3.31,0,0,0-.29-1.73C139.88,145.37,139.43,145.24,138.74,145.24Z"/><path class="cls-4" d="M143.43,144h1.7l-.11,1h0a2,2,0,0,1,1.91-1.1c1.24,0,1.86.78,1.86,2.35v.49h-1.6c0-.19,0-.32,0-.38,0-.75-.29-1.13-.88-1.13-.83,0-1.25.56-1.25,1.68v4.16h-1.7Z"/><path class="cls-4" d="M154.78,144v1.28h-2.72v3.55c0,.66.25,1,.75,1s.82-.39.82-1.19v-.28h1.44v.36c0,.32,0,.6,0,.83-.09,1.08-.9,1.62-2.41,1.62s-2.26-.69-2.26-2.07v-3.8h-.92V144h.92V142.4h1.69V144Z"/><path class="cls-4" d="M160.78,148.79h1.7v.28c0,1.38-1,2.07-3.11,2.07a3.79,3.79,0,0,1-2.76-.72,4.87,4.87,0,0,1-.65-3,4.11,4.11,0,0,1,.68-2.77,3.69,3.69,0,0,1,2.66-.71,3.46,3.46,0,0,1,2.53.69,4.12,4.12,0,0,1,.65,2.72v.51h-4.79c0,.16,0,.27,0,.31a2.09,2.09,0,0,0,.32,1.39,1.7,1.7,0,0,0,1.28.35,2.39,2.39,0,0,0,1.21-.2A1,1,0,0,0,160.78,148.79Zm0-2v-.28a1.51,1.51,0,0,0-.29-1.1,2.19,2.19,0,0,0-1.27-.25,1.76,1.76,0,0,0-1.23.3,2.12,2.12,0,0,0-.28,1.33Z"/><path class="cls-4" d="M163.84,144h1.69l-.1,1h0a2,2,0,0,1,1.9-1.1c1.25,0,1.87.78,1.87,2.35v.49h-1.6c0-.19,0-.32,0-.38,0-.75-.29-1.13-.88-1.13q-1.26,0-1.26,1.68v4.16h-1.69Z"/></g></g></svg>