<svg viewBox="0 0 159.83 49.48" xmlns="http://www.w3.org/2000/svg"><g fill="#fff"><path d="M20.62 30.46l-.62-.06-.26-2.55a10.2 10.2 0 0 0 1.8-4.35c.2-1.47.4-3.08.61-4.69a30.23 30.23 0 0 1-4.42-.27 13.82 13.82 0 0 1-4-1.13 33.79 33.79 0 0 0 4.42-.34c1.4-.13 2.88-.33 4.28-.6v-1.94l-2.21-7.44 2.61 1.91v.4l.87.47a7.38 7.38 0 0 1 1.94 2.21 4.13 4.13 0 0 1 .36 2.65h.53a4.73 4.73 0 0 1 2.62-.94c.93-.07 1.87-.07 2.87-.07l1.28.47v.81a4.46 4.46 0 0 1-2 1.13 20.16 20.16 0 0 0-2.41.74l-3.89 2.13-2.64 11.86-1.74.2zm8.71 23.44l-.94-.61a36.48 36.48 0 0 1-2.28-3.75 8.11 8.11 0 0 1-1.11-4.15l2-3.88a17.07 17.07 0 0 1 2.41-1 21.64 21.64 0 0 1 2.59-.67c.27-2.88.54-5.76.74-8.71a10.33 10.33 0 0 1 3.95-7.43 16.44 16.44 0 0 1 4.82-2.08 17 17 0 0 0 4.82-2.14l.27-.67-3-1.81h.53a15.79 15.79 0 0 1 4.87 1.08 16.92 16.92 0 0 1 4.15 2.54l.34 1.07-2.81.4c-.47-.27-1-.53-1.61-.8a3.9 3.9 0 0 0-2.07-.29 18.42 18.42 0 0 0-5 1.27 31.68 31.68 0 0 0-4.55 2.28 9.18 9.18 0 0 0-2.28 3.15 11.3 11.3 0 0 0-.67 3.75l.5 3.77-.2.53.2 1.25-.47 2.47a12.53 12.53 0 0 1 4 .21 10.94 10.94 0 0 1 3.28 1.47l.27.67h.47l.27 1.74-2 .4-6.23-1.07c-.6 1.94-1.34 3.82-2.07 5.62s-1.52 3.71-2.26 5.59l-.93.13zm.47-5a6.55 6.55 0 0 0 1.33-2.61c.2-.87.41-1.74.61-2.74h-1.21l-2.94 2.21v.6l1.33 2.54.61.34.27-.2zM57.54 56l-.2-.73h-.27v-.27h-.2l-.87-2.24-.47-.27v-.49l2.47-1.85a199.51 199.51 0 0 0 7-19.55 166 166 0 0 0 4.48-20.22l-.43-1.28h.27a4 4 0 0 1 1.41 2.28 8.13 8.13 0 0 1 .13 2.88l-.2.67.2 1.47-.86 2.6v-.47h-.47l-2.89 10.12h-.53l-4 13.8h.4l-.67 2.34h.27a53.68 53.68 0 0 1 4.47-5.79 16.69 16.69 0 0 0 3.42-6.33l.67-.27v-.73l1.81-.4 2.74.4v1.74a13.24 13.24 0 0 0-.6 3.28c-.07 1.2-.13 2.48-.13 3.68a26 26 0 0 0 1.67 6.16 12.77 12.77 0 0 0 3.48 5.22 4.49 4.49 0 0 0 2.14.87 22.32 22.32 0 0 0 2.28.14 14.38 14.38 0 0 0 3.42-2.08 14.77 14.77 0 0 0 3.08-2.94l1.6-2.28h.47v.47l1.07.74v.66l-.7 1.41-1.14 2.55-.67.2-.26 1a12.47 12.47 0 0 1-4.56 2.95 24.84 24.84 0 0 1-5.55 1.13 8.33 8.33 0 0 1-2.59-1.57c-.88-.74-1.68-1.54-2.35-2.21a15 15 0 0 1-3.75-6.5 39.38 39.38 0 0 1-1.47-7.56l-.66-.23a109.45 109.45 0 0 0-6.29 9.24 100.49 100.49 0 0 1-6.16 8.83zM100.42 30.46l-.67-.06-.27-2.55a10.22 10.22 0 0 0 1.81-4.35c.2-1.47.4-3.08.61-4.69a30.23 30.23 0 0 1-4.42-.27 13.82 13.82 0 0 1-4-1.13 33.79 33.79 0 0 0 4.42-.34c1.4-.13 2.88-.33 4.28-.6v-1.94l-2.18-7.44 2.63 1.91v.4l.87.47a7.38 7.38 0 0 1 1.94 2.21 4.13 4.13 0 0 1 .34 2.68h.53a4.73 4.73 0 0 1 2.62-.94c.93-.07 1.87-.07 2.87-.07l1.28.47v.78a4.46 4.46 0 0 1-2 1.13 20.16 20.16 0 0 0-2.41.74l-4 2.14-2.61 11.85-1.74.2zm8.71 23.44l-.94-.61a36.48 36.48 0 0 1-2.28-3.75 8.11 8.11 0 0 1-1.14-4.15l2-3.88a17.07 17.07 0 0 1 2.41-1 21.64 21.64 0 0 1 2.67-.67c.27-2.88.54-5.76.74-8.71a10.33 10.33 0 0 1 3.95-7.43 16.44 16.44 0 0 1 4.82-2.08 17 17 0 0 0 4.82-2.14l.27-.67-3-1.81h.53a15.79 15.79 0 0 1 4.89 1.08 16.92 16.92 0 0 1 4.13 2.54l.34 1.07-2.81.4c-.47-.27-1-.53-1.61-.8a3.9 3.9 0 0 0-2.12-.29 18.42 18.42 0 0 0-5 1.27 31.68 31.68 0 0 0-4.55 2.28 9.18 9.18 0 0 0-2.25 3.17 11.3 11.3 0 0 0-.67 3.75l.47 3.75-.2.53.2 1.21-.47 2.47a12.54 12.54 0 0 1 4 .21 10.94 10.94 0 0 1 3.28 1.47l.27.67h.47l.27 1.74-2 .4-6.23-1.07c-.6 1.94-1.34 3.82-2.07 5.62s-1.41 3.75-2.15 5.63l-.93.13zm.47-5a6.55 6.55 0 0 0 1.33-2.61c.2-.87.41-1.74.61-2.74h-1.21l-2.94 2.21v.6l1.33 2.54.61.34.27-.2zM137.34 56l-.2-.73h-.27v-.27h-.2l-.87-2.21-.47-.27v-.52l2.48-1.87a202.08 202.08 0 0 0 7-19.55 166 166 0 0 0 4.48-20.22l-.47-1.28h.27a4 4 0 0 1 1.41 2.28 8.13 8.13 0 0 1 .13 2.88l-.2.67.2 1.47-.84 2.62v-.47h-.47l-2.88 10.17h-.53l-4 13.8h.4l-.67 2.34h.27a53.68 53.68 0 0 1 4.47-5.84 16.69 16.69 0 0 0 3.41-6.3l.67-.27v-.73l1.81-.4 2.74.4v1.74a13.24 13.24 0 0 0-.6 3.28c-.07 1.2-.13 2.48-.13 3.68a26 26 0 0 0 1.72 6.13 12.77 12.77 0 0 0 3.48 5.22 4.49 4.49 0 0 0 2.14.87 22.32 22.32 0 0 0 2.28.14 14.38 14.38 0 0 0 3.42-2.08 14.53 14.53 0 0 0 3.08-2.94l1.6-2.28h.47v.47l1.07.74v.66l-.67 1.41-1.14 2.55-.66.2-.27 1a12.47 12.47 0 0 1-4.56 2.95 24.84 24.84 0 0 1-5.55 1.13 8.33 8.33 0 0 1-2.69-1.57c-.87-.74-1.68-1.54-2.35-2.21a15 15 0 0 1-3.75-6.5 39.38 39.38 0 0 1-1.47-7.56l-.67-.2a109.45 109.45 0 0 0-6.29 9.24 100.49 100.49 0 0 1-6.16 8.83z" transform="translate(-13.66 -7.09)"/></g></svg>