<svg viewBox="0 0 341.13 50.74" xmlns="http://www.w3.org/2000/svg"><g fill="#fff"><path d="M7.06 1.3l9.05 39 10.86-39h7l10.88 39.1 9-39.1h7.13l-12.61 48h-6.76l-11.08-39.79-11.15 39.82h-6.83l-12.55-48.03zM67.69 1.3h34.84v5.89h-28.5v14.58h26.35v5.56h-26.35v16.28h29v5.72h-35.34zM111.77 1.3h6.51v42.31h24.09v5.72h-30.6z"/><path d="M184.15 13a17.08 17.08 0 0 1 5.53 10.92h-6.34a13.29 13.29 0 0 0-4.22-7.35q-3.17-2.71-8.88-2.72a14.15 14.15 0 0 0-11.26 5q-4.28 5-4.28 15.3 0 8.44 3.87 13.69t11.54 5.16a12.14 12.14 0 0 0 10.76-5.52 21.12 21.12 0 0 0 2.92-7.65h6.35a21.87 21.87 0 0 1-5.56 12.72q-5.66 6.16-15.25 6.17a20 20 0 0 1-13.9-5.07q-7.43-6.65-7.43-20.65 0-10.64 5.56-17.44 6-7.4 16.57-7.39 9.05-.01 14.02 4.83zM238.1 16.33q4.77 6.38 4.77 16.31 0 10.76-5.46 17.88-6.41 8.37-18.28 8.37-11.07 0-17.42-7.32-5.66-7.07-5.66-17.85a28.43 28.43 0 0 1 4.84-16.67q6.21-8.9 18.38-8.89 12.73 0 18.83 8.17zm-5.74 30.61a26.27 26.27 0 0 0 3.84-14.18q0-8.47-4.43-13.65t-12.11-5.17a15.76 15.76 0 0 0-12.16 5.12q-4.71 5.13-4.71 15.1a22 22 0 0 0 4 13.47q4 5.48 13.09 5.48 8.64 0 12.48-6.17z" transform="translate(-1.23 -8.16)"/><path d="M249.22 1.3h9.32l13.81 40.61 13.71-40.61h9.26v48h-6.21v-28.31c0-1 0-2.61.06-4.88s.07-4.69.07-7.29l-13.71 40.51h-6.45l-13.84-40.49v1.48c0 1.17 0 3 .1 5.37s.1 4.18.1 5.32v28.32h-6.22zM305.77 1.3h34.85v5.89h-28.5v14.58h26.35v5.56h-26.35v16.28h29v5.72h-35.35z"/></g></svg>